<svg xmlns="http://www.w3.org/2000/svg" width="1919.756" height="749.685" viewBox="0 0 1919.756 749.685">
    <defs>
        <clipPath id="clip-path">
            <path class="cls-1" d="M0-131h1919.756v749.685H0z"/>
        </clipPath>
        <clipPath id="clip-path-2">
            <path class="cls-1" d="M178 0h1834.756v618.685H178z"/>
        </clipPath>
        <style>
            .cls-1{fill:none}
        </style>
    </defs>
    <g id="Scroll_Group_16" data-name="Scroll Group 16" transform="translate(0 131)" style="clip-path:url(#clip-path);isolation:isolate">
        <g id="Group_1048" data-name="Group 1048" transform="translate(-.5 -131.5)">
            <g id="Scroll_Group_3" data-name="Scroll Group 3" transform="translate(-177.5 131.5)" style="clip-path:url(#clip-path-2);isolation:isolate">
                <g id="Group_1191" data-name="Group 1191" transform="translate(177.5 -131.5)">
                    <path id="Path_232" data-name="Path 232" d="M198.582 964.136h46.451a5.208 5.208 0 0 0 4.511-7.812L226.319 916.1a43.75 43.75 0 0 1 75.777-43.75l23.225 40.228a5.209 5.209 0 0 0 9.022 0l23.226-40.228a43.749 43.749 0 1 1 75.776 43.75l-23.226 40.227a5.209 5.209 0 0 0 4.511 7.813h46.452a43.75 43.75 0 1 1 0 87.5H414.63a5.209 5.209 0 0 0-4.511 7.813l23.226 40.229c.3.52.58 1.047.857 1.574l9.779 16.974 19.033 63.54a1.466 1.466 0 0 1-2.685 1.121l-36.336-28.177a43.733 43.733 0 0 1-66.424-11.284l-23.226-40.23a5.209 5.209 0 0 0-9.022 0l-23.221 40.226a43.75 43.75 0 1 1-75.777-43.749l23.225-40.229a5.208 5.208 0 0 0-4.511-7.813h-46.455a43.75 43.75 0 0 1 0-87.5z" transform="translate(-329.832 -267.048)" style="stroke-width:5px;stroke:#daa13d;fill:none"/>
                    <path id="Path_233" data-name="Path 233" d="M1405.191 41.633c-6.8 0-13.028 3.714-17.889 9.9-4.86-6.182-11.093-9.9-17.888-9.9-15.525 0-28.111 19.383-28.111 43.294s12.586 43.294 28.111 43.294c6.8 0 13.028-3.714 17.888-9.9 4.86 6.182 11.093 9.9 17.889 9.9 15.526 0 28.111-19.383 28.111-43.294s-12.585-43.294-28.111-43.294z" transform="translate(-209.537 544.817)" style="stroke:#cc79a7;stroke-width:5px;fill:none"/>
                    <path id="Path_234" data-name="Path 234" d="M956.549 108.315H855.221a13.569 13.569 0 0 1-4.291-26.441l22-7.335h-17.709A13.569 13.569 0 0 1 850.93 48.1l22-7.335h-17.709a13.569 13.569 0 1 1 0-27.138h101.328a13.569 13.569 0 0 1 4.291 26.441l-22 7.335h17.713a13.569 13.569 0 0 1 4.291 26.441l-22 7.335h17.713a13.569 13.569 0 1 1 0 27.138z" transform="translate(336.115 120.374)" style="stroke:#6badcb;stroke-width:5px;fill:none"/>
                    <path id="Path_235" data-name="Path 235" d="m350.864 40.808 9.483-29.562a2.407 2.407 0 0 1 4.7.745l-.117 31.046a2.407 2.407 0 0 0 4.36 1.416l18.154-25.185a2.407 2.407 0 0 1 4.239 2.16l-9.7 29.49a2.407 2.407 0 0 0 3.709 2.694l25.041-18.342a2.408 2.408 0 0 1 3.365 3.364l-18.343 25.049a2.407 2.407 0 0 0 2.7 3.708l29.49-9.7a2.408 2.408 0 0 1 2.16 4.24l-25.19 18.149a2.408 2.408 0 0 0 1.417 4.36l31.046-.117a2.407 2.407 0 0 1 .745 4.7L408.559 98.5a2.407 2.407 0 0 0 0 4.584l29.563 9.483a2.407 2.407 0 0 1-.745 4.7l-31.046-.117a2.407 2.407 0 0 0-1.417 4.36l25.186 18.159a2.407 2.407 0 0 1-2.16 4.239l-29.49-9.7a2.407 2.407 0 0 0-2.7 3.709l18.35 25.042a2.408 2.408 0 0 1-3.365 3.364l-25.047-18.342a2.407 2.407 0 0 0-3.709 2.694l9.7 29.49a2.407 2.407 0 0 1-4.239 2.16l-18.154-25.185a2.407 2.407 0 0 0-4.36 1.416l.117 31.046a2.407 2.407 0 0 1-4.7.745l-9.483-29.562a2.408 2.408 0 0 0-4.585 0l-9.475 29.562a2.407 2.407 0 0 1-4.7-.745l.117-31.046a2.407 2.407 0 0 0-4.36-1.416L309.7 182.326a2.407 2.407 0 0 1-4.239-2.16l9.7-29.49a2.407 2.407 0 0 0-3.709-2.694l-25.048 18.342a2.407 2.407 0 0 1-3.364-3.364l18.342-25.048a2.407 2.407 0 0 0-2.694-3.709l-29.49 9.7a2.407 2.407 0 0 1-2.161-4.239l25.186-18.154a2.408 2.408 0 0 0-1.417-4.36l-31.046.117a2.407 2.407 0 0 1-.744-4.7l29.562-9.483a2.407 2.407 0 0 0 0-4.584l-29.562-9.483a2.407 2.407 0 0 1 .744-4.7l31.046.117a2.408 2.408 0 0 0 1.417-4.36l-25.181-18.148a2.408 2.408 0 0 1 2.161-4.24l29.49 9.7a2.407 2.407 0 0 0 2.694-3.708l-18.342-25.044a2.407 2.407 0 0 1 3.364-3.364l25.048 18.342a2.407 2.407 0 0 0 3.709-2.694l-9.7-29.49a2.407 2.407 0 0 1 4.239-2.16l18.154 25.185a2.407 2.407 0 0 0 4.36-1.416l-.119-31.046a2.407 2.407 0 0 1 4.7-.745l9.482 29.562a2.407 2.407 0 0 0 4.582 0z" transform="translate(1392.93 394.428)" style="stroke:#c7642a;stroke-width:5px;fill:none"/>
                </g>
            </g>
        </g>
    </g>
</svg>
