<svg xmlns="http://www.w3.org/2000/svg" width="1920.792" height="755.959" viewBox="0 0 1920.792 755.959">
    <defs>
        <clipPath id="a">
            <path style="fill:none" d="M56-131h1920.792v755.959H56z"/>
        </clipPath>
    </defs>
    <g data-name="Group 1049">
        <g data-name="Scroll Group 4" transform="translate(-56 131)" style="isolation:isolate;clip-path:url(#a)">
            <g data-name="Group 1192">
                <path data-name="Path 235" d="m350.864 40.808 9.483-29.562a2.407 2.407 0 0 1 4.7.745l-.117 31.046a2.407 2.407 0 0 0 4.36 1.416l18.154-25.185a2.407 2.407 0 0 1 4.239 2.16l-9.7 29.49a2.407 2.407 0 0 0 3.709 2.694l25.041-18.342a2.408 2.408 0 0 1 3.365 3.364l-18.343 25.049a2.407 2.407 0 0 0 2.7 3.708l29.49-9.7a2.408 2.408 0 0 1 2.16 4.24l-25.19 18.149a2.408 2.408 0 0 0 1.417 4.36l31.046-.117a2.407 2.407 0 0 1 .745 4.7L408.559 98.5a2.407 2.407 0 0 0 0 4.584l29.563 9.483a2.407 2.407 0 0 1-.745 4.7l-31.046-.117a2.407 2.407 0 0 0-1.417 4.36l25.186 18.159a2.407 2.407 0 0 1-2.16 4.239l-29.49-9.7a2.407 2.407 0 0 0-2.7 3.709l18.35 25.042a2.408 2.408 0 0 1-3.365 3.364l-25.047-18.342a2.407 2.407 0 0 0-3.709 2.694l9.7 29.49a2.407 2.407 0 0 1-4.239 2.16l-18.154-25.185a2.407 2.407 0 0 0-4.36 1.416l.117 31.046a2.407 2.407 0 0 1-4.7.745l-9.483-29.562a2.408 2.408 0 0 0-4.585 0l-9.475 29.562a2.407 2.407 0 0 1-4.7-.745l.117-31.046a2.407 2.407 0 0 0-4.36-1.416L309.7 182.326a2.407 2.407 0 0 1-4.239-2.16l9.7-29.49a2.407 2.407 0 0 0-3.709-2.694l-25.048 18.342a2.407 2.407 0 0 1-3.364-3.364l18.342-25.048a2.407 2.407 0 0 0-2.694-3.709l-29.49 9.7a2.407 2.407 0 0 1-2.161-4.239l25.186-18.154a2.408 2.408 0 0 0-1.417-4.36l-31.046.117a2.407 2.407 0 0 1-.744-4.7l29.562-9.483a2.407 2.407 0 0 0 0-4.584l-29.562-9.483a2.407 2.407 0 0 1 .744-4.7l31.046.117a2.408 2.408 0 0 0 1.417-4.36l-25.181-18.148a2.408 2.408 0 0 1 2.161-4.24l29.49 9.7a2.407 2.407 0 0 0 2.694-3.708l-18.342-25.044a2.407 2.407 0 0 1 3.364-3.364l25.048 18.342a2.407 2.407 0 0 0 3.709-2.694l-9.7-29.49a2.407 2.407 0 0 1 4.239-2.16l18.154 25.185a2.407 2.407 0 0 0 4.36-1.416l-.119-31.046a2.407 2.407 0 0 1 4.7-.745l9.482 29.562a2.407 2.407 0 0 0 4.582 0z" transform="translate(407.653 523.928)" style="stroke-width:5px;stroke:#c7642a;fill:none"/>
                <path data-name="Path 232" d="M198.582 964.136h46.451a5.208 5.208 0 0 0 4.511-7.812L226.319 916.1a43.75 43.75 0 0 1 75.777-43.75l23.225 40.228a5.209 5.209 0 0 0 9.022 0l23.226-40.228a43.749 43.749 0 1 1 75.776 43.75l-23.226 40.227a5.209 5.209 0 0 0 4.511 7.813h46.452a43.75 43.75 0 1 1 0 87.5H414.63a5.209 5.209 0 0 0-4.511 7.813l23.226 40.229c.3.52.58 1.047.857 1.574l9.779 16.974 19.033 63.54a1.466 1.466 0 0 1-2.685 1.121l-36.336-28.177a43.733 43.733 0 0 1-66.424-11.284l-23.226-40.23a5.209 5.209 0 0 0-9.022 0l-23.221 40.226a43.75 43.75 0 1 1-75.777-43.749l23.225-40.229a5.208 5.208 0 0 0-4.511-7.813h-46.455a43.75 43.75 0 0 1 0-87.5z" transform="translate(1636.461 -453.275)" style="stroke:#daa13d;stroke-width:5px;fill:none"/>
                <path data-name="Path 233" d="M1462.83 41.633c-12.927 0-24.783 7.065-34.028 18.825-9.245-11.76-21.1-18.825-34.027-18.825-29.532 0-53.472 36.871-53.472 82.353s23.94 82.353 53.472 82.353c12.926 0 24.782-7.065 34.027-18.825 9.245 11.76 21.1 18.825 34.028 18.825 29.532 0 53.473-36.871 53.473-82.353s-23.94-82.353-53.473-82.353z" transform="translate(-1338.803 104.514)" style="stroke:#cc79a7;stroke-width:5px;fill:none"/>
                <path data-name="Path 234" d="M956.549 108.315H855.221a13.569 13.569 0 0 1-4.291-26.441l22-7.335h-17.709A13.569 13.569 0 0 1 850.93 48.1l22-7.335h-17.709a13.569 13.569 0 1 1 0-27.138h101.328a13.569 13.569 0 0 1 4.291 26.441l-22 7.335h17.713a13.569 13.569 0 0 1 4.291 26.441l-22 7.335h17.713a13.569 13.569 0 1 1 0 27.138z" transform="translate(392.115 -11.126)" style="stroke:#6badcb;stroke-width:5px;fill:none"/>
            </g>
        </g>
    </g>
</svg>
