<svg xmlns="http://www.w3.org/2000/svg" width="390.585" height="450.767" viewBox="0 0 390.585 450.767">
    <defs>
        <clipPath id="a">
            <path style="fill:none" d="M41-93h390.585v450.767H41z"/>
        </clipPath>
    </defs>
    <g data-name="Scroll Group 18" transform="translate(-41 93)" style="isolation:isolate;clip-path:url(#a)">
        <g data-name="Group 1067">
            <path data-name="Path 274" d="M190.79 943.891h38.178a4.28 4.28 0 0 0 3.707-6.421l-19.088-33.064a35.958 35.958 0 0 1 62.281-35.958l19.088 33.064a4.281 4.281 0 0 0 7.415 0l19.09-33.064a35.958 35.958 0 1 1 62.28 35.958l-19.09 33.063a4.282 4.282 0 0 0 3.708 6.422h38.179a35.958 35.958 0 1 1 0 71.916H368.36a4.282 4.282 0 0 0-3.708 6.422l19.09 33.064c.247.427.477.86.7 1.294l8.038 13.951 15.643 52.224a1.205 1.205 0 0 1-2.207.922l-29.864-23.159a35.945 35.945 0 0 1-54.594-9.275l-19.09-33.062a4.281 4.281 0 0 0-7.415 0l-19.088 33.063a35.958 35.958 0 1 1-62.281-35.957l19.088-33.064a4.281 4.281 0 0 0-3.707-6.422H190.79a35.958 35.958 0 0 1 0-71.916z" transform="translate(132.588 -661.123)" style="stroke:#daa13d;stroke-width:5px;fill:none"/>
            <path data-name="Path 275" d="M898.295 60.307h-49.954a6.689 6.689 0 0 1-2.115-13.035l10.848-3.616h-8.732a6.689 6.689 0 0 1-2.115-13.035L857.073 27h-8.732a6.689 6.689 0 1 1 0-13.379h49.953a6.689 6.689 0 0 1 2.115 13.035l-10.848 3.616h8.732a6.689 6.689 0 0 1 2.115 13.035l-10.848 3.616h8.732a6.689 6.689 0 1 1 0 13.379z" transform="translate(-586.732 -12.126)" style="stroke-width:3px;stroke:#6badcb;fill:none"/>
            <path data-name="Path 276" d="m304.968 25.478 4.832-15.053a1.226 1.226 0 0 1 2.393.379l-.059 15.809a1.226 1.226 0 0 0 2.22.721l9.244-12.825a1.226 1.226 0 0 1 2.159 1.1l-4.942 15.017A1.226 1.226 0 0 0 322.7 32l12.755-9.34a1.226 1.226 0 0 1 1.714 1.713l-9.341 12.755a1.226 1.226 0 0 0 1.372 1.888l15.017-4.942a1.226 1.226 0 0 1 1.1 2.159l-12.825 9.244a1.226 1.226 0 0 0 .722 2.22l15.809-.059a1.226 1.226 0 0 1 .379 2.393l-15.054 4.829a1.226 1.226 0 0 0 0 2.334l15.052 4.828a1.226 1.226 0 0 1-.379 2.393l-15.809-.059a1.226 1.226 0 0 0-.722 2.22l12.825 9.244a1.226 1.226 0 0 1-1.1 2.159L329.2 73.037a1.226 1.226 0 0 0-1.372 1.889l9.341 12.755a1.226 1.226 0 0 1-1.714 1.713L322.7 80.053a1.226 1.226 0 0 0-1.889 1.372l4.942 15.017a1.226 1.226 0 0 1-2.159 1.1l-9.244-12.824a1.226 1.226 0 0 0-2.22.721l.059 15.809a1.226 1.226 0 0 1-2.393.379l-4.829-15.054a1.226 1.226 0 0 0-2.335 0l-4.832 15.054a1.226 1.226 0 0 1-2.393-.379l.06-15.809a1.226 1.226 0 0 0-2.22-.721l-9.244 12.825a1.226 1.226 0 0 1-2.159-1.1l4.942-15.017a1.226 1.226 0 0 0-1.889-1.372l-12.755 9.34a1.226 1.226 0 0 1-1.713-1.713l9.34-12.755a1.226 1.226 0 0 0-1.372-1.889l-15.017 4.942a1.226 1.226 0 0 1-1.1-2.159l12.825-9.244a1.226 1.226 0 0 0-.722-2.22l-15.809.059a1.226 1.226 0 0 1-.379-2.393l15.054-4.829a1.226 1.226 0 0 0 0-2.334L258.2 50.03a1.226 1.226 0 0 1 .379-2.393l15.809.059a1.226 1.226 0 0 0 .722-2.22l-12.825-9.244a1.226 1.226 0 0 1 1.1-2.159l15.015 4.942a1.226 1.226 0 0 0 1.372-1.888l-9.34-12.755a1.226 1.226 0 0 1 1.713-1.713L284.9 32a1.226 1.226 0 0 0 1.889-1.372l-4.942-15.017a1.226 1.226 0 0 1 2.159-1.1l9.244 12.825a1.226 1.226 0 0 0 2.22-.721l-.06-15.809a1.226 1.226 0 0 1 2.393-.379l4.828 15.054a1.226 1.226 0 0 0 2.337-.003z" transform="translate(-114.001 300.815)" style="stroke:#c7642a;stroke-width:3px;fill:none"/>
            <path data-name="Path 277" d="M1396.516 41.633c-5.873 0-11.259 3.21-15.46 8.552-4.2-5.343-9.587-8.552-15.459-8.552-13.417 0-24.294 16.751-24.294 37.415s10.877 37.415 24.294 37.415c5.873 0 11.259-3.21 15.459-8.552 4.2 5.343 9.587 8.552 15.46 8.552 13.417 0 24.294-16.751 24.294-37.415s-10.877-37.415-24.294-37.415z" transform="translate(-1339.803 14.379)" style="stroke:#cc79a7;stroke-width:3px;fill:none"/>
        </g>
    </g>
</svg>
