<svg xmlns="http://www.w3.org/2000/svg" width="1920" height="601" viewBox="0 0 1920 601">
    <defs>
        <linearGradient id="xkxqumhg1b" x1=".5" x2=".5" y2="1" gradientUnits="objectBoundingBox">
            <stop offset="0" stop-color="#191919"/>
            <stop offset="1" stop-color="#242054"/>
        </linearGradient>
        <linearGradient id="nqa5snncyc" x1=".5" x2=".5" y2="1" gradientUnits="objectBoundingBox">
            <stop offset="0" stop-color="#191919"/>
            <stop offset="1" stop-color="#36723b" stop-opacity=".051"/>
        </linearGradient>
        <clipPath id="2a1pmklu9a">
            <path data-name="Rectangle 1248" transform="translate(0 149)" style="fill:#fff;stroke:#707070" d="M0 0h1920v601H0z"/>
        </clipPath>
    </defs>
    <g data-name="Group 2332">
        <g data-name="Mask Group 108" style="clip-path:url(#2a1pmklu9a)" transform="translate(0 -149)">
            <path data-name="Path 235" d="m350.864 40.808 9.483-29.562a2.407 2.407 0 0 1 4.7.745l-.117 31.046a2.407 2.407 0 0 0 4.36 1.416l18.154-25.185a2.407 2.407 0 0 1 4.239 2.16l-9.7 29.49a2.407 2.407 0 0 0 3.709 2.694l25.041-18.342a2.408 2.408 0 0 1 3.365 3.364l-18.343 25.049a2.407 2.407 0 0 0 2.7 3.708l29.49-9.7a2.408 2.408 0 0 1 2.16 4.24l-25.19 18.149a2.408 2.408 0 0 0 1.417 4.36l31.046-.117a2.407 2.407 0 0 1 .745 4.7L408.559 98.5a2.407 2.407 0 0 0 0 4.584l29.563 9.483a2.407 2.407 0 0 1-.745 4.7l-31.046-.117a2.407 2.407 0 0 0-1.417 4.36l25.186 18.159a2.407 2.407 0 0 1-2.16 4.239l-29.49-9.7a2.407 2.407 0 0 0-2.7 3.709l18.35 25.042a2.408 2.408 0 0 1-3.365 3.364l-25.047-18.342a2.407 2.407 0 0 0-3.709 2.694l9.7 29.49a2.407 2.407 0 0 1-4.239 2.16l-18.154-25.185a2.407 2.407 0 0 0-4.36 1.416l.117 31.046a2.407 2.407 0 0 1-4.7.745l-9.483-29.562a2.408 2.408 0 0 0-4.585 0l-9.475 29.562a2.407 2.407 0 0 1-4.7-.745l.117-31.046a2.407 2.407 0 0 0-4.36-1.416L309.7 182.326a2.407 2.407 0 0 1-4.239-2.16l9.7-29.49a2.407 2.407 0 0 0-3.709-2.694l-25.048 18.342a2.407 2.407 0 0 1-3.364-3.364l18.342-25.048a2.407 2.407 0 0 0-2.694-3.709l-29.49 9.7a2.407 2.407 0 0 1-2.161-4.239l25.186-18.154a2.408 2.408 0 0 0-1.417-4.36l-31.046.117a2.407 2.407 0 0 1-.744-4.7l29.562-9.483a2.407 2.407 0 0 0 0-4.584l-29.562-9.483a2.407 2.407 0 0 1 .744-4.7l31.046.117a2.408 2.408 0 0 0 1.417-4.36l-25.181-18.148a2.408 2.408 0 0 1 2.161-4.24l29.49 9.7a2.407 2.407 0 0 0 2.694-3.708l-18.342-25.044a2.407 2.407 0 0 1 3.364-3.364l25.048 18.342a2.407 2.407 0 0 0 3.709-2.694l-9.7-29.49a2.407 2.407 0 0 1 4.239-2.16l18.154 25.185a2.407 2.407 0 0 0 4.36-1.416l-.119-31.046a2.407 2.407 0 0 1 4.7-.745l9.482 29.562a2.407 2.407 0 0 0 4.582 0z" transform="translate(765.188 48.203)" style="stroke:#c7642a;fill:none;stroke-width:5px"/>
            <path data-name="Path 1073" d="M2815.094 5022.044c-111.32 0-201.561 33.528-201.561 33.528v327.449s90.241-33.528 201.561-33.528 201.56 33.528 201.56 33.528v-327.449s-90.242-33.528-201.56-33.528z" transform="translate(-2155.772 -4371.68)" style="mix-blend-mode:screen;isolation:isolate;fill:url(#xkxqumhg1b)"/>
            <path data-name="Path 1074" d="M2815.094 5022.044c-111.32 0-201.561 33.528-201.561 33.528v327.449s90.241-33.528 201.561-33.528 201.56 33.528 201.56 33.528v-327.449s-90.242-33.528-201.56-33.528z" transform="translate(-1752.653 -4699.463)" style="mix-blend-mode:screen;isolation:isolate;fill:url(#xkxqumhg1b)"/>
            <circle data-name="Ellipse 503" cx="264.5" cy="264.5" r="264.5" transform="translate(1583 15)" style="fill:url(#nqa5snncyc)"/>
            <path data-name="Path 130" d="M829.059 153.245c0-19.846-21.485-37.672-55.616-49.942 24.19-7.07 38.931-16.457 38.931-26.757 0-15.141-31.852-28.307-78.753-35.044 7.9-3.817 12.464-8.312 12.464-13.127 0-13.823-37.553-25.027-83.879-25.027s-83.877 11.2-83.877 25.027c0 4.815 4.566 9.31 12.463 13.127-46.9 6.738-78.752 19.9-78.752 35.044 0 10.3 14.741 19.687 38.931 26.757-34.13 12.27-55.617 30.1-55.617 49.942 0 20.006 21.839 37.961 56.456 50.24-24.684 7.1-39.77 16.579-39.77 27 0 15.141 31.852 28.307 78.752 35.044-7.9 3.817-12.463 8.312-12.463 13.127 0 13.823 37.553 25.027 83.877 25.027s83.879-11.2 83.879-25.027c0-4.815-4.567-9.31-12.464-13.127 46.9-6.738 78.753-19.9 78.753-35.044 0-10.418-15.085-19.9-39.77-27 34.617-12.278 56.455-30.234 56.455-50.24z" transform="translate(-564.183 18.9)" style="stroke:#6badcb;stroke-linecap:round;fill:none;stroke-width:5px"/>
            <path data-name="Path 59" d="M1737.37 41.633c-42.129 0-80.769 23.025-110.9 61.351-30.13-38.325-68.769-61.351-110.9-61.351-96.247 0-174.27 120.165-174.27 268.4s78.023 268.394 174.27 268.394c42.129 0 80.768-23.025 110.9-61.351 30.131 38.325 68.771 61.351 110.9 61.351 96.249 0 174.272-120.165 174.272-268.394s-78.023-268.4-174.272-268.4z" transform="translate(186.254 325.073)" style="stroke:#cc79a7;fill:none;stroke-width:5px"/>
        </g>
    </g>
</svg>
