<svg xmlns="http://www.w3.org/2000/svg" width="390" height="452" viewBox="0 0 390 452">
    <defs>
        <linearGradient id="q5vowymyvb" x1=".5" x2=".5" y2="1" gradientUnits="objectBoundingBox">
            <stop offset="0" stop-color="#191919"/>
            <stop offset="1" stop-color="#242054"/>
        </linearGradient>
        <linearGradient id="5yivlzolcc" x1=".5" x2=".5" y2="1" gradientUnits="objectBoundingBox">
            <stop offset="0" stop-color="#191919"/>
            <stop offset="1" stop-color="#36723b" stop-opacity=".051"/>
        </linearGradient>
        <clipPath id="qh9qk21oga">
            <path data-name="Rectangle 1266" transform="translate(656.307 148.909)" style="fill:#fff;stroke:#707070" d="M0 0h390v452H0z"/>
        </clipPath>
    </defs>
    <g data-name="Mask Group 110" transform="translate(-656.307 -148.909)" style="clip-path:url(#qh9qk21oga)">
        <path data-name="Path 1075" d="m312.151 27.878 5.557-17.325a1.411 1.411 0 0 1 2.754.436l-.068 18.194a1.411 1.411 0 0 0 2.555.83l10.639-14.759a1.411 1.411 0 0 1 2.484 1.266l-5.688 17.28a1.411 1.411 0 0 0 2.174 1.579l14.679-10.749a1.411 1.411 0 0 1 1.972 1.972l-10.75 14.679a1.411 1.411 0 0 0 1.579 2.173l17.282-5.687a1.411 1.411 0 0 1 1.266 2.485l-14.76 10.639a1.411 1.411 0 0 0 .83 2.555l18.194-.068a1.411 1.411 0 0 1 .436 2.754l-17.323 5.558a1.411 1.411 0 0 0 0 2.686l17.325 5.557a1.411 1.411 0 0 1-.436 2.754l-18.194-.068a1.411 1.411 0 0 0-.83 2.555l14.76 10.639a1.411 1.411 0 0 1-1.266 2.484l-17.284-5.687a1.411 1.411 0 0 0-1.579 2.174l10.75 14.679a1.411 1.411 0 0 1-1.972 1.972l-14.679-10.75a1.411 1.411 0 0 0-2.174 1.579l5.687 17.282a1.411 1.411 0 0 1-2.484 1.266l-10.638-14.759a1.411 1.411 0 0 0-2.555.83l.068 18.194a1.41 1.41 0 0 1-2.754.436l-5.557-17.325a1.411 1.411 0 0 0-2.687 0l-5.557 17.325a1.411 1.411 0 0 1-2.754-.436l.069-18.194a1.411 1.411 0 0 0-2.555-.83l-10.639 14.759a1.411 1.411 0 0 1-2.484-1.266l5.687-17.282a1.411 1.411 0 0 0-2.174-1.579l-14.679 10.749a1.411 1.411 0 0 1-1.971-1.972l10.749-14.679a1.411 1.411 0 0 0-1.579-2.174L264.295 88.3a1.411 1.411 0 0 1-1.266-2.484l14.76-10.639a1.411 1.411 0 0 0-.831-2.555l-18.194.068a1.411 1.411 0 0 1-.436-2.754l17.325-5.557a1.411 1.411 0 0 0 0-2.686l-17.325-5.557a1.41 1.41 0 0 1 .436-2.754l18.194.068a1.411 1.411 0 0 0 .831-2.555l-14.76-10.639a1.411 1.411 0 0 1 1.266-2.485l17.282 5.687a1.41 1.41 0 0 0 1.579-2.173L272.407 26.6a1.411 1.411 0 0 1 1.971-1.972l14.679 10.749a1.411 1.411 0 0 0 2.174-1.579l-5.688-17.278a1.411 1.411 0 0 1 2.484-1.266l10.639 14.759a1.411 1.411 0 0 0 2.555-.83l-.069-18.194a1.411 1.411 0 0 1 2.754-.436l5.557 17.325a1.411 1.411 0 0 0 2.688 0z" transform="translate(451.498 70.902)" style="stroke-width:2px;stroke:#c7642a;fill:none"/>
        <path data-name="Path 1076" d="M2696.775 5022.044c-45.974 0-83.242 15.018-83.242 15.018v146.667s37.269-15.017 83.242-15.017 83.242 15.017 83.242 15.017v-146.667s-37.268-15.018-83.242-15.018z" transform="translate(-1900.196 -4530.724)" style="mix-blend-mode:screen;isolation:isolate;fill:url(#q5vowymyvb)"/>
        <path data-name="Path 1077" d="M2696.775 5022.044c-45.974 0-83.242 15.018-83.242 15.018v146.667s37.269-15.017 83.242-15.017 83.242 15.017 83.242 15.017v-146.667s-37.268-15.018-83.242-15.018z" transform="translate(-1733.711 -4677.542)" style="mix-blend-mode:screen;isolation:isolate;fill:url(#q5vowymyvb)"/>
        <ellipse data-name="Ellipse 1467" cx="184" cy="199" rx="184" ry="199" transform="translate(879.822 -155.091)" style="fill:url(#5yivlzolcc)"/>
        <path data-name="Path 1078" d="M583.461 42.924c0-5.24-5.673-9.946-14.684-13.186 6.387-1.867 10.279-4.345 10.279-7.065 0-4-8.41-7.474-20.793-9.253 2.085-1.008 3.291-2.195 3.291-3.466 0-3.65-9.915-6.608-22.146-6.608s-22.146 2.958-22.146 6.608c0 1.271 1.206 2.458 3.29 3.466-12.382 1.78-20.792 5.256-20.792 9.253 0 2.719 3.892 5.2 10.279 7.065-9.011 3.24-14.684 7.946-14.684 13.186 0 5.282 5.766 10.023 14.906 13.265-6.517 1.874-10.5 4.377-10.5 7.128 0 4 8.41 7.474 20.793 9.253-2.085 1.008-3.29 2.195-3.29 3.466 0 3.65 9.915 6.608 22.146 6.608s22.146-2.958 22.146-6.608c0-1.271-1.206-2.458-3.291-3.466 12.383-1.779 20.793-5.255 20.793-9.253 0-2.751-3.983-5.254-10.5-7.128 9.142-3.242 14.903-7.983 14.903-13.265z" transform="translate(116.899 247.859)" style="stroke:#6badcb;stroke-linecap:round;fill:none"/>
        <path data-name="Path 1079" d="M1615.836 41.633c-29.2 0-55.985 15.96-76.87 42.525-20.885-26.565-47.667-42.525-76.868-42.525-66.713 0-120.795 83.292-120.795 186.039s54.082 186.037 120.795 186.037c29.2 0 55.984-15.96 76.868-42.525 20.885 26.565 47.668 42.525 76.87 42.525 66.715 0 120.8-83.292 120.8-186.037s-54.085-186.039-120.8-186.039z" transform="translate(-386.226 271.083)" style="stroke:#cc79a7;stroke-width:2px;fill:none"/>
    </g>
</svg>
