<svg xmlns="http://www.w3.org/2000/svg" width="1920.729" height="749.021" viewBox="0 0 1920.729 749.021">
    <defs>
        <linearGradient id="b" y1=".5" x2="1.042" y2="1.416" gradientUnits="objectBoundingBox">
            <stop offset="0" stop-color="#191919"/>
            <stop offset="1" stop-color="#242054"/>
        </linearGradient>
        <linearGradient id="c" y1=".5" x2="1.042" y2="1.416" gradientUnits="objectBoundingBox">
            <stop offset="0" stop-color="#191919"/>
            <stop offset="1" stop-color="#36723b" stop-opacity=".051"/>
        </linearGradient>
        <clipPath id="a">
            <path style="fill:none" d="M114 223h1920.729v749.021H114z"/>
        </clipPath>
    </defs>
    <g data-name="Scroll Group 14" transform="translate(-114 -223)" style="clip-path:url(#a);isolation:isolate">
        <g data-name="Group 1068">
            <path data-name="Path 1" d="M1854.252 638.939c-34.725-30.865-90.375-35.918-146.967-18.385-56.592-17.533-112.242-12.481-146.965 18.385s-40.409 80.332-20.682 130.636c-19.727 50.3-14.041 99.771 20.682 130.636.39.347.792.677 1.187 1.018l-18.088 60.386a1.667 1.667 0 0 0 3.052 1.275l52.789-40.937c31.361 10.045 69.47 8.588 108.024-3.358 56.592 17.535 112.242 12.482 146.967-18.383s40.409-80.333 20.682-130.636c19.728-50.306 14.042-99.776-20.681-130.637z" transform="translate(-1525.814 133.679)" style="stroke-width:5px;stroke-linecap:round;stroke:#36723b;stroke-linejoin:round;fill:none"/>
            <path data-name="Union 16" d="M-1596 500a125 125 0 0 1 125-125h14a125 125 0 0 1 125 125zm-264 0V332a132 132 0 0 1 132-132 132 132 0 0 1 132 132v168zm-264 0V132A132 132 0 0 1-1992 0a132 132 0 0 1 132 132v368z" transform="translate(3340.401 472.416)" style="fill:url(#b);mix-blend-mode:screen;isolation:isolate"/>
            <path data-name="Union 17" d="M264 500V332a132 132 0 1 1 264 0v168zM0 500V132a132 132 0 1 1 264 0v368z" transform="rotate(150 317.188 317.041)" style="fill:url(#c);mix-blend-mode:screen;isolation:isolate"/>
            <path data-name="Path 53" d="m350.864 40.808 9.483-29.562a2.407 2.407 0 0 1 4.7.745l-.117 31.046a2.407 2.407 0 0 0 4.36 1.416l18.154-25.185a2.407 2.407 0 0 1 4.239 2.16l-9.7 29.49a2.407 2.407 0 0 0 3.709 2.694l25.041-18.342a2.408 2.408 0 0 1 3.365 3.364l-18.343 25.049a2.407 2.407 0 0 0 2.7 3.708l29.49-9.7a2.408 2.408 0 0 1 2.16 4.24l-25.19 18.149a2.408 2.408 0 0 0 1.417 4.36l31.046-.117a2.407 2.407 0 0 1 .745 4.7L408.559 98.5a2.407 2.407 0 0 0 0 4.584l29.563 9.483a2.407 2.407 0 0 1-.745 4.7l-31.046-.117a2.407 2.407 0 0 0-1.417 4.36l25.186 18.159a2.407 2.407 0 0 1-2.16 4.239l-29.49-9.7a2.407 2.407 0 0 0-2.7 3.709l18.35 25.042a2.408 2.408 0 0 1-3.365 3.364l-25.047-18.342a2.407 2.407 0 0 0-3.709 2.694l9.7 29.49a2.407 2.407 0 0 1-4.239 2.16l-18.154-25.185a2.407 2.407 0 0 0-4.36 1.416l.117 31.046a2.407 2.407 0 0 1-4.7.745l-9.483-29.562a2.408 2.408 0 0 0-4.585 0l-9.475 29.562a2.407 2.407 0 0 1-4.7-.745l.117-31.046a2.407 2.407 0 0 0-4.36-1.416L309.7 182.326a2.407 2.407 0 0 1-4.239-2.16l9.7-29.49a2.407 2.407 0 0 0-3.709-2.694l-25.048 18.342a2.407 2.407 0 0 1-3.364-3.364l18.342-25.048a2.407 2.407 0 0 0-2.694-3.709l-29.49 9.7a2.407 2.407 0 0 1-2.161-4.239l25.186-18.154a2.408 2.408 0 0 0-1.417-4.36l-31.046.117a2.407 2.407 0 0 1-.744-4.7l29.562-9.483a2.407 2.407 0 0 0 0-4.584l-29.562-9.483a2.407 2.407 0 0 1 .744-4.7l31.046.117a2.408 2.408 0 0 0 1.417-4.36l-25.181-18.148a2.408 2.408 0 0 1 2.161-4.24l29.49 9.7a2.407 2.407 0 0 0 2.694-3.708l-18.342-25.044a2.407 2.407 0 0 1 3.364-3.364l25.048 18.342a2.407 2.407 0 0 0 3.709-2.694l-9.7-29.49a2.407 2.407 0 0 1 4.239-2.16l18.154 25.185a2.407 2.407 0 0 0 4.36-1.416l-.119-31.046a2.407 2.407 0 0 1 4.7-.745l9.482 29.562a2.407 2.407 0 0 0 4.582 0z" transform="translate(903.054 388.844)" style="stroke:#c7642a;stroke-width:5px;fill:none"/>
            <path data-name="Path 130" d="M731.011 109.2c0-14.015-15.173-26.6-39.275-35.268 17.082-4.993 27.492-11.622 27.492-18.9 0-10.692-22.493-19.99-55.614-24.748 5.577-2.7 8.8-5.87 8.8-9.27 0-9.761-26.519-17.674-59.234-17.674s-59.23 7.92-59.23 17.681c0 3.4 3.225 6.575 8.8 9.27-33.119 4.758-55.613 14.056-55.613 24.748 0 7.274 10.41 13.9 27.492 18.9-24.1 8.665-39.276 21.253-39.276 35.268 0 14.128 15.422 26.808 39.868 35.479-17.432 5.012-28.085 11.708-28.085 19.065 0 10.692 22.494 19.99 55.613 24.748-5.576 2.7-8.8 5.87-8.8 9.27 0 9.761 26.519 17.674 59.232 17.674s59.234-7.913 59.234-17.674c0-3.4-3.225-6.575-8.8-9.27 33.121-4.758 55.614-14.056 55.614-24.748 0-7.357-10.653-14.053-28.085-19.065 24.445-8.676 39.867-21.356 39.867-35.486z" transform="translate(1421.218 219.069)" style="stroke:#6badcb;stroke-width:5px;stroke-linecap:round;fill:none"/>
            <path data-name="Path 59" d="M1485.257 41.633c-15.312 0-29.356 8.369-40.308 22.3-10.951-13.93-24.995-22.3-40.306-22.3-34.982 0-63.34 43.675-63.34 97.551s28.358 97.55 63.34 97.55c15.312 0 29.355-8.369 40.306-22.3 10.952 13.93 25 22.3 40.308 22.3 34.982 0 63.341-43.675 63.341-97.55s-28.358-97.551-63.341-97.551z" transform="translate(295.098 539.232)" style="stroke:#cc79a7;stroke-width:5px;fill:none"/>
        </g>
    </g>
</svg>
