<svg xmlns="http://www.w3.org/2000/svg" width="390" height="450" viewBox="0 0 390 450">
    <defs>
        <linearGradient id="b" y1=".5" x2="1.042" y2="1.416" gradientUnits="objectBoundingBox">
            <stop offset="0" stop-color="#191919"/>
            <stop offset="1" stop-color="#36723b" stop-opacity=".051"/>
        </linearGradient>
        <linearGradient id="c" y1=".5" x2="1.042" y2="1.416" gradientUnits="objectBoundingBox">
            <stop offset="0" stop-color="#191919"/>
            <stop offset="1" stop-color="#242054"/>
        </linearGradient>
        <clipPath id="a">
            <path data-name="Rectangle 763" transform="translate(0 76)" style="fill:#2b2b2b" d="M0 0h390v450H0z"/>
        </clipPath>
    </defs>
    <g data-name="Mask Group 75" transform="translate(0 -76)" style="clip-path:url(#a)">
        <g data-name="Group 798">
            <path data-name="Union 30" d="M94.711 179.376v-60.27a47.355 47.355 0 1 1 94.711 0v60.27zm-94.711 0V47.355a47.355 47.355 0 0 1 94.711 0v132.021z" transform="rotate(150 82.946 108.688)" style="fill:url(#b);mix-blend-mode:screen;isolation:isolate"/>
            <path data-name="Union 29" d="M-1934.667 179a44.75 44.75 0 0 1 44.751-44.75h5.166A44.75 44.75 0 0 1-1840 179zm-94.667 0v-60.067A47.333 47.333 0 0 1-1982 71.6a47.333 47.333 0 0 1 47.333 47.333V179zm-94.666 0V47.334A47.334 47.334 0 0 1-2076.666 0a47.333 47.333 0 0 1 47.333 47.334V179z" transform="translate(2325 347)" style="fill:url(#c);mix-blend-mode:screen;isolation:isolate"/>
            <path data-name="Path 246" d="M1687.167 624.372c-16.922-15.041-44.04-17.5-71.618-8.959-27.578-8.544-54.7-6.082-71.617 8.959s-19.691 39.146-10.078 63.66c-9.613 24.513-6.842 48.619 10.078 63.66.19.169.386.33.578.5l-8.814 29.427a.812.812 0 0 0 1.487.621l25.724-19.949c15.282 4.895 33.853 4.185 52.641-1.636 27.578 8.545 54.7 6.083 71.618-8.958s19.691-39.147 10.078-63.66c9.615-24.519 6.844-48.624-10.077-63.665z" transform="translate(-1615.55 -162.527)" style="stroke-linecap:round;stroke:#36723b;stroke-linejoin:round;fill:none;stroke-width:2px"/>
            <path data-name="Path 255" d="m288.228 19.887 3.131-9.762a.8.8 0 0 1 1.552.246l-.039 10.252a.8.8 0 0 0 1.44.468l5.995-8.317a.8.8 0 0 1 1.4.713l-3.2 9.738a.8.8 0 0 0 1.225.89L308 18.058a.8.8 0 0 1 1.111 1.111l-6.057 8.272a.8.8 0 0 0 .89 1.225l9.738-3.2a.8.8 0 0 1 .713 1.4l-8.317 5.995a.8.8 0 0 0 .468 1.44l10.252-.039a.8.8 0 0 1 .246 1.552l-9.764 3.126a.8.8 0 0 0 0 1.514l9.762 3.131a.8.8 0 0 1-.246 1.552l-10.251-.037a.8.8 0 0 0-.468 1.44l8.317 5.995a.8.8 0 0 1-.713 1.4l-9.738-3.2a.8.8 0 0 0-.89 1.225l6.057 8.271a.8.8 0 0 1-1.11 1.104l-8.271-6.057a.8.8 0 0 0-1.225.89l3.2 9.738a.8.8 0 0 1-1.4.713l-5.992-8.319a.8.8 0 0 0-1.44.468l.039 10.252a.8.8 0 0 1-1.552.246l-3.131-9.762a.8.8 0 0 0-1.514 0l-3.131 9.762a.8.8 0 0 1-1.552-.246l.039-10.252a.8.8 0 0 0-1.44-.468l-5.995 8.317a.8.8 0 0 1-1.4-.713l3.2-9.738a.8.8 0 0 0-1.225-.89l-8.271 6.057a.8.8 0 0 1-1.111-1.111l6.057-8.271a.8.8 0 0 0-.89-1.225l-9.738 3.2a.8.8 0 0 1-.714-1.4l8.317-5.995a.8.8 0 0 0-.468-1.44l-10.252.039a.8.8 0 0 1-.246-1.552l9.762-3.131a.8.8 0 0 0 0-1.514l-9.756-3.125a.8.8 0 0 1 .246-1.552l10.254.044a.8.8 0 0 0 .468-1.44l-8.317-5.995a.8.8 0 0 1 .714-1.4l9.738 3.2a.8.8 0 0 0 .89-1.225l-6.057-8.272a.8.8 0 0 1 1.111-1.111l8.271 6.057a.8.8 0 0 0 1.225-.89l-3.2-9.738a.8.8 0 0 1 1.4-.713l5.995 8.317a.8.8 0 0 0 1.44-.468l-.039-10.252a.8.8 0 0 1 1.552-.246l3.131 9.762a.8.8 0 0 0 1.506.001z" transform="translate(20.529 426.928)" style="stroke:#c7642a;fill:none;stroke-width:2px"/>
            <path data-name="Path 256" d="M589.121 45.466c0-5.576-6.037-10.585-15.627-14.033 6.8-1.987 10.939-4.624 10.939-7.518 0-4.254-8.95-7.954-22.128-9.847 2.219-1.072 3.5-2.335 3.5-3.689 0-3.884-10.552-7.032-23.569-7.032s-23.567 3.153-23.567 7.032c0 1.353 1.283 2.616 3.5 3.689-13.178 1.893-22.128 5.593-22.128 9.847 0 2.894 4.142 5.532 10.939 7.518-9.59 3.448-15.628 8.457-15.628 14.033 0 5.621 6.136 10.667 15.863 14.117-6.936 1.994-11.175 4.659-11.175 7.586 0 4.254 8.95 7.954 22.128 9.847-2.219 1.072-3.5 2.335-3.5 3.689 0 3.884 10.552 7.032 23.568 7.032s23.569-3.148 23.569-7.032c0-1.353-1.283-2.616-3.5-3.689 13.179-1.893 22.128-5.593 22.128-9.847 0-2.927-4.239-5.592-11.175-7.586 9.727-3.45 15.863-8.495 15.863-14.117z" transform="translate(-152.237 30.458)" style="stroke:#6badcb;stroke-linecap:round;fill:none;stroke-width:2px"/>
            <path data-name="Path 257" d="M1415.822 41.633c-7.927 0-15.2 4.332-20.865 11.543-5.669-7.211-12.939-11.543-20.865-11.543-18.109 0-32.789 22.609-32.789 50.5s14.68 50.5 32.789 50.5c7.926 0 15.2-4.332 20.865-11.543 5.669 7.211 12.939 11.543 20.865 11.543 18.109 0 32.789-22.609 32.789-50.5s-14.68-50.5-32.789-50.5z" transform="translate(-1105.494 158.372)" style="stroke:#cc79a7;fill:none;stroke-width:2px"/>
        </g>
    </g>
</svg>
