<svg xmlns="http://www.w3.org/2000/svg" width="475.851" height="162.704" viewBox="0 0 475.851 162.704">
    <g data-name="Group 1202">
        <path data-name="Path 169" d="M773.355 1123.882a11.206 11.206 0 0 0-8.553-20.65 11.206 11.206 0 0 0-20.65-8.553 11.206 11.206 0 0 0-20.65 8.553 11.206 11.206 0 0 0-8.553 20.65 11.206 11.206 0 0 0 8.553 20.65 11.206 11.206 0 0 0 20.65 8.553 11.206 11.206 0 0 0 20.65-8.553 11.206 11.206 0 0 0 8.553-20.65z" transform="translate(-707.748 -1008.569)" style="stroke:#707070;fill:none;stroke-width:2px"/>
        <path data-name="Path 170" d="m318.912 30.136 6.243-19.462a1.585 1.585 0 0 1 3.093.49l-.077 20.436a1.585 1.585 0 0 0 2.87.932l11.951-16.58a1.585 1.585 0 0 1 2.791 1.422l-6.389 19.415a1.585 1.585 0 0 0 2.442 1.774l16.49-12.075a1.585 1.585 0 0 1 2.215 2.215l-12.076 16.49a1.585 1.585 0 0 0 1.774 2.441l19.415-6.389a1.585 1.585 0 0 1 1.422 2.791L354.5 55.99a1.585 1.585 0 0 0 .933 2.87l20.439-.077a1.585 1.585 0 0 1 .49 3.093l-19.467 6.244a1.585 1.585 0 0 0 0 3.018l19.462 6.243a1.585 1.585 0 0 1-.49 3.094l-20.438-.075a1.585 1.585 0 0 0-.933 2.87l16.581 11.951a1.585 1.585 0 0 1-1.422 2.791l-19.415-6.391a1.585 1.585 0 0 0-1.774 2.442l12.076 16.49a1.585 1.585 0 0 1-2.215 2.215l-16.49-12.075a1.585 1.585 0 0 0-2.442 1.774l6.389 19.415a1.585 1.585 0 0 1-2.791 1.422l-11.951-16.58a1.585 1.585 0 0 0-2.87.932l.077 20.439a1.585 1.585 0 0 1-3.093.49l-6.243-19.462a1.585 1.585 0 0 0-3.018 0l-6.242 19.462a1.585 1.585 0 0 1-3.094-.49l.077-20.439a1.585 1.585 0 0 0-2.87-.932L291.812 123.3a1.585 1.585 0 0 1-2.791-1.422l6.389-19.415a1.585 1.585 0 0 0-2.442-1.774l-16.49 12.075a1.585 1.585 0 0 1-2.215-2.215l12.076-16.49a1.585 1.585 0 0 0-1.774-2.442l-19.413 6.393a1.585 1.585 0 0 1-1.423-2.791l16.581-11.951a1.585 1.585 0 0 0-.933-2.87l-20.439.077a1.585 1.585 0 0 1-.49-3.094l19.462-6.243a1.585 1.585 0 0 0 0-3.018l-19.462-6.243a1.584 1.584 0 0 1 .49-3.093l20.439.077a1.585 1.585 0 0 0 .933-2.87l-16.581-11.953a1.585 1.585 0 0 1 1.423-2.791l19.415 6.389a1.584 1.584 0 0 0 1.774-2.441L274.264 28.7a1.585 1.585 0 0 1 2.215-2.215l16.49 12.075a1.585 1.585 0 0 0 2.442-1.774l-6.389-19.415a1.585 1.585 0 0 1 2.791-1.422l11.951 16.58a1.585 1.585 0 0 0 2.87-.932l-.077-20.439a1.585 1.585 0 0 1 3.094-.49l6.242 19.462a1.585 1.585 0 0 0 3.019.006z" transform="translate(97.376 32.004)" style="stroke:#c7642a;fill:none;stroke-width:2px"/>
        <path data-name="Path 171" d="M212.326 620.267h-8.72a.978.978 0 0 1-.847-1.467l4.36-7.552a8.213 8.213 0 0 0-3.006-11.22 8.214 8.214 0 0 0-11.22 3.006l-4.36 7.552a.978.978 0 0 1-1.694 0l-4.36-7.552a8.213 8.213 0 0 0-11.22-3.006 8.213 8.213 0 0 0-3.006 11.22l4.36 7.552a.978.978 0 0 1-.847 1.467h-8.721a8.214 8.214 0 0 0-8.213 8.213 8.213 8.213 0 0 0 8.213 8.213h8.721a.978.978 0 0 1 .847 1.467l-4.36 7.552a8.213 8.213 0 0 0 3.006 11.22 8.213 8.213 0 0 0 11.22-3.006l4.36-7.552a.978.978 0 0 1 1.694 0l4.36 7.552a8.214 8.214 0 0 0 11.22 3.006 8.213 8.213 0 0 0 3.006-11.22l-4.36-7.552a.978.978 0 0 1 .847-1.467h8.72a8.213 8.213 0 0 0 8.213-8.213 8.213 8.213 0 0 0-8.213-8.213z" transform="translate(108.24 -597.905)" style="stroke:#8f8ac7;opacity:.1;fill:none;stroke-width:2px"/>
    </g>
</svg>
