<svg xmlns="http://www.w3.org/2000/svg" width="356.5" height="597.123" viewBox="0 0 356.5 597.123">
    <g data-name="Group 1201" style="opacity:.75">
        <path data-name="Path 140" d="M529.229 18.564c0-2.015-2.181-3.824-5.646-5.07 2.455-.718 3.952-1.671 3.952-2.716 0-1.537-3.233-2.873-7.994-3.557.8-.387 1.265-.844 1.265-1.333 0-1.4-3.812-2.541-8.515-2.541s-8.515 1.137-8.515 2.541c0 .489.464.945 1.265 1.333-4.761.684-7.994 2.02-7.994 3.557 0 1.046 1.5 2 3.952 2.716-3.465 1.246-5.646 3.055-5.646 5.07 0 2.031 2.217 3.854 5.731 5.1-2.506.72-4.037 1.683-4.037 2.741 0 1.537 3.233 2.873 7.994 3.557-.8.387-1.265.844-1.265 1.333 0 1.4 3.812 2.541 8.515 2.541s8.515-1.137 8.515-2.541c0-.489-.464-.945-1.265-1.333 4.761-.684 7.994-2.02 7.994-3.557 0-1.058-1.531-2.02-4.037-2.741 3.515-1.247 5.731-3.07 5.731-5.1z" transform="translate(-181.729 390.059)" style="fill:#daa13d"/>
        <path data-name="Path 142" d="M1614.343 1190.55c-2.773-2.465-7.218-2.869-11.738-1.468-4.52-1.4-8.965-1-11.738 1.468s-3.227 6.416-1.652 10.434c-1.576 4.018-1.122 7.969 1.652 10.434s7.218 2.869 11.738 1.468c4.52 1.4 8.965 1 11.738-1.468s3.227-6.416 1.652-10.434c1.575-4.018 1.121-7.968-1.652-10.434z" transform="translate(-1579.313 -1179.281)" style="fill:#36723b"/>
        <path data-name="Path 143" d="m271.816 14.405 1.467-4.574a.372.372 0 0 1 .727.115l-.018 4.8a.372.372 0 0 0 .675.219l2.809-3.9a.372.372 0 0 1 .656.334l-1.5 4.563a.372.372 0 0 0 .574.417l3.875-2.838a.373.373 0 0 1 .521.521l-2.838 3.876a.372.372 0 0 0 .417.574l4.563-1.5a.372.372 0 0 1 .334.656l-3.9 2.809a.372.372 0 0 0 .219.675l4.8-.018a.372.372 0 0 1 .115.727l-4.574 1.467a.372.372 0 0 0 0 .709l4.574 1.467a.372.372 0 0 1-.115.727l-4.8-.018a.372.372 0 0 0-.219.675l3.9 2.809a.372.372 0 0 1-.334.656l-4.563-1.5a.372.372 0 0 0-.417.574L281.6 33.3a.373.373 0 0 1-.521.521l-3.879-2.834a.372.372 0 0 0-.574.417l1.5 4.563a.372.372 0 0 1-.656.334l-2.809-3.9a.372.372 0 0 0-.675.219l.018 4.8a.372.372 0 0 1-.727.115l-1.467-4.574a.373.373 0 0 0-.709 0l-1.467 4.574a.372.372 0 0 1-.727-.115l.018-4.8a.373.373 0 0 0-.675-.219l-2.809 3.9a.372.372 0 0 1-.656-.334l1.5-4.563a.372.372 0 0 0-.574-.417l-3.875 2.838a.372.372 0 0 1-.521-.521l2.838-3.875a.372.372 0 0 0-.417-.574l-4.563 1.5a.372.372 0 0 1-.334-.656l3.9-2.809a.372.372 0 0 0-.219-.675l-4.8.018a.372.372 0 0 1-.115-.727l4.574-1.467a.372.372 0 0 0 0-.709l-4.574-1.467a.372.372 0 0 1 .115-.727l4.8.018a.373.373 0 0 0 .219-.675l-3.9-2.809a.373.373 0 0 1 .334-.656l4.563 1.5a.372.372 0 0 0 .417-.574l-2.838-3.876a.372.372 0 0 1 .521-.521l3.875 2.838a.372.372 0 0 0 .574-.417l-1.5-4.563a.372.372 0 0 1 .656-.334l2.809 3.9a.372.372 0 0 0 .675-.219l-.018-4.8a.372.372 0 0 1 .727-.115l1.467 4.574a.372.372 0 0 0 .715-.002z" transform="translate(-228.764 550.321)" style="fill:#c7642a"/>
        <path data-name="Path 144" d="M1360.049 41.633a6.2 6.2 0 0 1-10.5 0c-4.555 0-8.248 5.687-8.248 12.7s3.693 12.7 8.248 12.7a6.2 6.2 0 0 1 10.5 0c4.555 0 8.248-5.687 8.248-12.7s-3.697-12.7-8.248-12.7z" transform="translate(-1082.218 -1.846)" style="fill:#cc79a7"/>
    </g>
</svg>
