<svg xmlns="http://www.w3.org/2000/svg" width="1752" height="1083" viewBox="0 0 1752 1083">
    <defs>
        <clipPath id="clip-path">
            <path id="Rectangle_723" data-name="Rectangle 723" transform="translate(535 4711)" style="stroke:#707070;fill:#fff" d="M0 0h851v441H0z"/>
        </clipPath>
        <style>
            .cls-5{fill:#fff}.cls-4,.cls-7{fill:#f04e30}.cls-4{font-size:1.75rem;font-family:'IBMPlexSansThaiLooped',sans-serif;font-weight:400}.cls-5{font-size:2.25rem;font-weight:600;font-family:'IBMPlexSansThai',sans-serif}
        </style>
    </defs>
    <g id="Group_1130" data-name="Group 1130" transform="translate(-80 -4293)">
        <path id="Path_504" data-name="Path 504" d="M0 0h97v102H0z" transform="translate(80 4835)" style="fill:none"/>
        <path id="Ellipse_68_-_Outline" data-name="Ellipse 68 - Outline" d="M37.5 3a34.51 34.51 0 0 0-13.428 66.29A34.51 34.51 0 0 0 50.928 5.71 34.281 34.281 0 0 0 37.5 3m0-3A37.5 37.5 0 1 1 0 37.5 37.5 37.5 0 0 1 37.5 0z" transform="translate(611 4966)" style="stroke:#f04e30;stroke-width:3px;fill:#f04e30"/>
        <g id="Group_1131" data-name="Group 1131">
            <g id="Group_1055" data-name="Group 1055" transform="translate(-2 7)">
                <g id="Group_1054" data-name="Group 1054">
                    <text id="ออกแบบการสร้างการเปลี่ยนแปลง" class="cls-4" transform="translate(1348 5105)"><tspan x="0" y="0">ออกแบบการสร้างการเปลี่ยนแปลง</tspan></text>
                    <text id="ผลักดันให้เกิดการเปลี่ยนแปลง" class="cls-4" transform="translate(1454 4835)"><tspan x="0" y="0">ผลักดันให้เกิดการเปลี่ยนแปลง</tspan></text>
                    <text id="ทำความเข้าใจระบบ" class="cls-4" transform="translate(428 5105)"><tspan x="-214.25" y="0">ทำความเข้าใจระบบ</tspan></text>
                    <text id="ตั้งเป้าภาพสำเร็จและหาความเป็นไปได้" class="cls-4" transform="translate(994 5356)"><tspan x="-212.55" y="0">ตั้งเป้าภาพสำเร็จและหาความเป็นไปได้</tspan></text>
                    <text id="กำหนดขอบเขตของระบบ" class="cls-4" transform="translate(438 4789)"><tspan x="-283.825" y="0">กำหนดขอบเขตของระบบ</tspan></text>
                    <text id="_1_Frame_the_system" data-name="1 Frame the system" class="cls-5" transform="translate(154 4701)"><tspan x="0" y="0">1</tspan><tspan x="0" y="45">Frame the system</tspan></text>
                    <text id="_4_Design_the_Intervention" data-name="4 Design the Intervention" class="cls-5" transform="translate(1348 4971)"><tspan x="0" y="0">4</tspan><tspan x="0" y="45">Design the </tspan><tspan x="0" y="90">Intervention</tspan></text>
                    <text id="_5_Foster_the_Transition_to_Change" data-name="5 Foster the Transition to Change" class="cls-5" transform="translate(1454 4701)"><tspan x="0" y="0">5</tspan><tspan x="0" y="45">Foster the Transition </tspan><tspan x="0" y="90">to Change</tspan></text>
                    <text id="_2_Listen_Understand_the_system" data-name="2 Listen &amp; Understand the system" class="cls-5" transform="translate(218 4971)"><tspan x="0" y="0">2</tspan><tspan x="0" y="45">Listen &amp; Understand</tspan><tspan x="0" y="90">the system</tspan></text>
                    <text id="_3_Define_the_Desired_Future_Possibility" data-name="3 Define the Desired Future &amp; Possibility" class="cls-5" transform="translate(786 5222)"><tspan x="0" y="0">3</tspan><tspan x="0" y="45">Define the Desired</tspan><tspan x="0" y="90">Future &amp; Possibility</tspan></text>
                    <path id="Ellipse_63" data-name="Ellipse 63" d="M425 4a427.8 427.8 0 0 0-43.05 2.174 422.033 422.033 0 0 0-41.8 6.38 419.653 419.653 0 0 0-40.344 10.373 419.584 419.584 0 0 0-38.677 14.156A422.24 422.24 0 0 0 37.083 261.129a419.157 419.157 0 0 0-14.156 38.677 418.99 418.99 0 0 0-10.373 40.344 422.033 422.033 0 0 0-6.38 41.8 427.368 427.368 0 0 0 0 86.1 422.033 422.033 0 0 0 6.38 41.8 419.653 419.653 0 0 0 10.373 40.344 419.584 419.584 0 0 0 14.156 38.677 422.24 422.24 0 0 0 224.046 224.046 419.157 419.157 0 0 0 38.677 14.156 418.99 418.99 0 0 0 40.344 10.373 422.033 422.033 0 0 0 41.8 6.38 427.368 427.368 0 0 0 86.1 0 422.033 422.033 0 0 0 41.8-6.38 419.653 419.653 0 0 0 40.344-10.373 419.584 419.584 0 0 0 38.677-14.156 422.24 422.24 0 0 0 224.046-224.046 419.157 419.157 0 0 0 14.156-38.677 418.99 418.99 0 0 0 10.373-40.344 422.033 422.033 0 0 0 6.38-41.8 427.368 427.368 0 0 0 0-86.1 422.033 422.033 0 0 0-6.38-41.8 419.653 419.653 0 0 0-10.373-40.344 419.584 419.584 0 0 0-14.156-38.677A422.24 422.24 0 0 0 588.871 37.083a419.157 419.157 0 0 0-38.677-14.156 418.99 418.99 0 0 0-40.344-10.373 422.033 422.033 0 0 0-41.8-6.38A427.8 427.8 0 0 0 425 4m0-4c234.721 0 425 190.279 425 425S659.721 850 425 850 0 659.721 0 425 190.279 0 425 0z" transform="translate(535 4286)" style="opacity:.1;fill:#fff"/>
                    <circle id="Ellipse_67" data-name="Ellipse 67" class="cls-7" cx="37.5" cy="37.5" r="37.5" transform="translate(498 4674)"/>
                    <path id="Ellipse_67_-_Outline" data-name="Ellipse 67 - Outline" class="cls-7" d="M37.5 3a34.51 34.51 0 0 0-13.428 66.29A34.51 34.51 0 0 0 50.928 5.71 34.281 34.281 0 0 0 37.5 3m0-3A37.5 37.5 0 1 1 0 37.5 37.5 37.5 0 0 1 37.5 0z" transform="translate(498 4674)"/>
                    <circle id="Ellipse_74" data-name="Ellipse 74" class="cls-7" cx="37.5" cy="37.5" r="37.5" transform="translate(1226 4964)"/>
                    <path id="Ellipse_74_-_Outline" data-name="Ellipse 74 - Outline" class="cls-7" d="M37.5 3a34.51 34.51 0 0 0-13.428 66.29A34.51 34.51 0 0 0 50.928 5.71 34.281 34.281 0 0 0 37.5 3m0-3A37.5 37.5 0 1 1 0 37.5 37.5 37.5 0 0 1 37.5 0z" transform="translate(1226 4964)"/>
                    <circle id="Ellipse_75" data-name="Ellipse 75" class="cls-7" cx="37.5" cy="37.5" r="37.5" transform="translate(1348 4674)"/>
                    <path id="Ellipse_75_-_Outline" data-name="Ellipse 75 - Outline" class="cls-7" d="M37.5 3a34.51 34.51 0 0 0-13.428 66.29A34.51 34.51 0 0 0 50.928 5.71 34.281 34.281 0 0 0 37.5 3m0-3A37.5 37.5 0 1 1 0 37.5 37.5 37.5 0 0 1 37.5 0z" transform="translate(1348 4674)"/>
                    <circle id="Ellipse_71" data-name="Ellipse 71" class="cls-7" cx="37.5" cy="37.5" r="37.5" transform="translate(920 5099)"/>
                    <path id="Ellipse_71_-_Outline" data-name="Ellipse 71 - Outline" class="cls-7" d="M37.5 3a34.51 34.51 0 0 0-13.428 66.29A34.51 34.51 0 0 0 50.928 5.71 34.281 34.281 0 0 0 37.5 3m0-3A37.5 37.5 0 1 1 0 37.5 37.5 37.5 0 0 1 37.5 0z" transform="translate(920 5099)"/>
                </g>
                <g id="Mask_Group_52" data-name="Mask Group 52" style="clip-path:url(#clip-path)">
                    <path id="Path_368" data-name="Path 368" class="cls-7" d="M425 0h.762q1.049 0 2.1.009h.185l.963.008-.037 4C427.653 4.006 426.318 4 425 4V0zm11 .14 1.555.042h.392L438 .2h.871l.272.009H439.288L440 .26l-.139 4c-1.315-.046-2.65-.086-3.966-.119l.1-4zm10.993.42q2 .1 4 .222l-.241 3.993a435.604 435.604 0 0 0-3.96-.22zm10.979.7h.062c.853.066 1.675.131 2.526.2h.019l.084.007 1.3.11-.343 3.985a432.3 432.3 0 0 0-3.952-.322zm10.957.983q1.993.2 3.978.427l-.446 3.975a398.365 398.365 0 0 0-3.94-.423zm10.927 1.265h.038l.111.014.062.008.058.008.09.012h.025l.111.014 1.569.207.047.006.062.008.081.011h.035l.108.015h.018a820.1 820.1 0 0 1 1.547.211L483.272 8c-1.3-.18-2.623-.357-3.927-.525zm10.891 1.547q1.977.307 3.948.632l-.651 3.947c-1.3-.214-2.612-.425-3.91-.626zm10.847 1.829.085.016h.011c.918.167 1.827.336 2.743.509l.039.007.083.016.1.018h.015l.855.163-.753 3.928c-1.29-.247-2.6-.492-3.892-.727zm10.8 2.11.609.128H513l.1.021.046.01.073.015.08.017.041.009.114.024h.015l.533.113.031.007.1.021.038.008.086.018.055.012.065.014.073.016.038.008q.9.194 1.8.391l-.855 3.907a422.538 422.538 0 0 0-3.871-.828zm10.736 2.39 1.6.38.043.01.081.019.064.015.063.015.064.016.064.015.07.017.054.013.073.018.054.013.077.019.05.012.072.017.089.022.039.009.266.065 1.066.261-.957 3.884a422.717 422.717 0 0 0-3.85-.929l.92-3.893zm10.67 2.669c1.294.342 2.574.686 3.863 1.04L536.6 18.95a423.139 423.139 0 0 0-3.826-1.03l1.021-3.867zM544.392 17q1.922.561 3.836 1.141l-1.158 3.829a414.4 414.4 0 0 0-3.8-1.13zm10.517 3.222c.961.308 1.923.62 2.881.935l.039.013.072.024.091.03.015.005.708.234-1.258 3.8a424.565 424.565 0 0 0-3.769-1.229l1.221-3.809zm10.431 3.5.762.267.029.01.086.03.047.016.062.022.072.025.023.008.8.285h.005l.107.038.018.006.1.035.029.01.089.031.038.013.08.029.07.025.045.016 1.308.469-1.356 3.763a414.036 414.036 0 0 0-3.735-1.326l1.32-3.776zm10.336 3.767q1.871.71 3.734 1.436l-1.454 3.726a392.268 392.268 0 0 0-3.7-1.423zm10.234 4.034c.979.4 1.946.8 2.921 1.209h.005l.12.05h.005l.121.051.518.217-1.55 3.687a447.348 447.348 0 0 0-3.659-1.518l1.515-3.7zm10.125 4.3q1.313.578 2.622 1.165h.01l.072.032.948.427-1.646 3.646c-1.2-.541-2.415-1.083-3.617-1.613zm10.009 4.562c.768.362 1.52.719 2.286 1.086l.012.006.1.048.035.017.085.041.035.017.081.039.04.019.079.038.042.02.069.033.052.025.07.034.046.022.077.037.042.02.088.043.03.014.116.056.037.018.084.04.028.014.074.036-1.74 3.6a402.669 402.669 0 0 0-3.574-1.706zm9.887 4.82.64.323.035.018.044.022.078.039.026.013.1.052c.877.445 1.762.9 2.636 1.348l-1.833 3.555c-1.168-.6-2.356-1.208-3.53-1.8zm9.758 5.075.157.084.047.025.036.02q1.642.883 3.276 1.78l-1.925 3.506a434.401 434.401 0 0 0-3.483-1.891l1.892-3.524zm9.624 5.327 1.085.621c.664.382 1.324.763 1.986 1.148l.1.056.048.028.048.028.088.051.106.062-2.015 3.455a417.943 417.943 0 0 0-3.433-1.98zm9.483 5.575q1.711 1.036 3.412 2.088l-2.1 3.4a418.212 418.212 0 0 0-3.38-2.068zM654.13 67l.378.242.111.071.112.072c.917.59 1.839 1.189 2.751 1.786l-2.182 3.346c-1.1-.72-2.219-1.445-3.325-2.155zm9.182 6.058q1.046.709 2.085 1.424l.016.011.081.056.052.036.054.037.058.04.044.03.062.043.047.033.061.042.042.029.061.042.057.04.044.03.086.06.015.01.432.3-2.275 3.279c-1.081-.748-2.18-1.5-3.268-2.24l2.246-3.31zm9.022 6.293c.547.392 1.1.794 1.649 1.188l.1.073.016.011.092.067.017.012.087.063.023.016.091.066.012.009 1.148.836-2.361 3.229a428.624 428.624 0 0 0-3.209-2.323zm8.856 6.523.295.223.013.01.082.062.03.023.07.053.046.035.052.04.075.057.026.019c.607.461 1.207.92 1.812 1.385l.017.013.078.06.066.051.03.023.089.069.4.3-2.443 3.167c-1.041-.8-2.1-1.612-3.148-2.406zm8.685 6.75q1.065.85 2.125 1.707l.023.018.055.044.052.042.034.027.075.061.017.013.735.6-2.524 3.1c-1.02-.83-2.058-1.666-3.086-2.486zm8.509 6.971.9.758.011.009.091.077.011.01.089.076.013.011.1.081a389.22 389.22 0 0 1 1.837 1.566l-2.6 3.037c-1-.856-2.015-1.719-3.021-2.565l2.575-3.061zm8.327 7.188.156.138.075.067.087.078q1.181 1.048 2.357 2.108l.065.059.088.079.146.132.007.006-2.68 2.969c-.976-.881-1.97-1.77-2.954-2.642zm8.139 7.4q1.463 1.365 2.912 2.742l-2.756 2.9c-.953-.906-1.923-1.82-2.885-2.717zm7.946 7.607.006.006.146.144.044.043.129.127.06.059.117.116.071.07.1.1.084.083.072.071.112.11.068.067.112.11.072.072.1.1.088.087.066.065.119.118.061.061.125.124.052.052.133.133.042.042.142.141.031.03.153.153.012.012.157.156.017.017.158.158.022.022.154.154.015.015-2.83 2.827c-.929-.93-1.876-1.869-2.814-2.79zm7.748 7.809.019.02.133.138.037.039.144.149.027.028.155.161.011.012q1.124 1.166 2.239 2.342l-2.9 2.754a411.376 411.376 0 0 0-2.741-2.862zm7.544 8.005c.651.709 1.285 1.4 1.931 2.117l.013.014.14.155.059.065.077.085.111.123.042.046.142.157.018.02.158.176-2.971 2.678a389.09 389.09 0 0 0-2.667-2.931l2.946-2.706zm7.336 8.2.322.37c.764.879 1.535 1.772 2.292 2.657l-3.039 2.6c-.855-1-1.726-2.008-2.59-3zm7.122 8.383c.336.406.664.8 1 1.21l.082.1.076.092.012.015.072.087.012.015.064.078.023.028.061.075.022.027.056.068.071.087.036.044.066.081.012.015.07.085.01.013.074.09v.006l.709.871-3.105 2.522a459.096 459.096 0 0 0-2.512-3.064l3.081-2.551zm6.9 8.563q1.138 1.45 2.264 2.909l.191.248-3.169 2.441c-.8-1.041-1.62-2.094-2.432-3.128zm6.681 8.738c.295.4.592.8.885 1.193l.007.01.024.033q.731.99 1.457 1.984l-3.231 2.358a428.951 428.951 0 0 0-2.351-3.19zm6.454 8.907.028.04.012.017.056.079.03.043.036.051.048.068.017.024.057.081.013.018q1 1.425 1.993 2.859l-3.291 2.274a409.526 409.526 0 0 0-2.268-3.249zm6.222 9.071q1.11 1.664 2.2 3.339l-3.348 2.188a419.32 419.32 0 0 0-2.184-3.307zm5.985 9.229.194.309.011.018.05.08.027.042.039.062.035.056.031.049.048.077.019.03.052.083.019.03.057.092.012.019.067.108.067.107.065.1q.663 1.06 1.32 2.124l-3.4 2.1c-.691-1.119-1.4-2.25-2.1-3.363zm5.745 9.381c.679 1.142 1.36 2.3 2.029 3.448l-3.457 2.012a417.842 417.842 0 0 0-2.009-3.415zm5.5 9.527c.474.846.94 1.684 1.408 2.533l.011.02.047.085.039.07.017.031.417.759-3.508 1.922a390.239 390.239 0 0 0-1.92-3.465l3.49-1.955zm5.251 9.666q.932 1.769 1.846 3.547l-3.557 1.83c-.6-1.168-1.217-2.35-1.829-3.513l3.539-1.864zm5 9.8.38.772c.459.934.922 1.884 1.374 2.823l-3.6 1.737a417.853 417.853 0 0 0-1.737-3.56zm4.742 9.924q.838 1.815 1.66 3.639l-3.647 1.643c-.54-1.2-1.093-2.411-1.645-3.6zm4.483 10.045c.53 1.231 1.047 2.445 1.565 3.682l-3.688 1.548c-.509-1.212-1.03-2.44-1.551-3.647l3.674-1.582zm4.22 10.158c.495 1.237.986 2.48 1.469 3.723l-3.728 1.451a402.993 402.993 0 0 0-1.456-3.687l3.714-1.486zm3.954 10.265.2.552v.01l.026.072q.379 1.028.753 2.059l.005.014.03.082.022.061.017.046.036.1.005.015.271.752-3.764 1.353c-.445-1.238-.9-2.49-1.359-3.724l3.751-1.389zm3.685 10.365a455.3 455.3 0 0 1 1.255 3.738l.018.054-3.8 1.255a413.673 413.673 0 0 0-1.261-3.756l3.786-1.291zm3.414 10.458q.557 1.786 1.1 3.578l.074.244-3.83 1.155c-.379-1.258-.77-2.532-1.162-3.786zm3.14 10.543q.374 1.32.741 2.643l.032.115v.008l.031.113v.009l.263.958-3.858 1.055c-.346-1.267-.7-2.55-1.062-3.814zm2.864 10.62q.495 1.935.973 3.88l-3.885.954c-.314-1.277-.638-2.57-.963-3.844l3.875-.991zm2.585 10.691.165.728v.014l.042.187.018.078.019.083.032.144.015.067.029.13.016.07.027.122.016.073.031.137.021.094.013.059.046.2q.19.854.376 1.709l-3.908.852c-.28-1.285-.57-2.586-.863-3.867zm2.306 10.756.008.041.078.392v.023l.037.183.006.028.076.383v.014l.039.2c.175.886.347 1.77.516 2.658l-3.929.75c-.247-1.291-.5-2.6-.762-3.888zm2.025 10.812c.052.3.1.6.155.9l.034.2.03.175.009.052.027.159.011.065.021.125.014.08.021.125.011.067.026.154.01.061.024.14.009.056.026.152.008.045.029.174.006.033.064.384v.015l.033.2v.008l.066.4v.015l.025.155-3.947.648c-.213-1.3-.435-2.612-.66-3.907l3.941-.685zm1.743 10.86.072.493.032.222v.026l.014.094.014.1.015.1.017.119.009.064.023.158.009.061.022.156.007.047.02.143.008.057.022.156.01.071.015.109.019.131.009.064q.112.793.221 1.586l-3.963.545c-.179-1.3-.367-2.623-.559-3.923zm1.461 10.9.006.051.007.056.021.179v.024c.108.9.214 1.8.316 2.7v.012l.043.378.006.057.017.149.01.094.007.06.023.2v.005l-3.975.443c-.145-1.307-.3-2.631-.457-3.936zm1.179 10.937q.086.91.169 1.82l.009.1.005.056.018.2c.054.6.107 1.207.158 1.81l-3.985.34c-.112-1.31-.231-2.638-.355-3.946zm.9 10.964q.042.609.082 1.219l.005.083.008.125.007.111v.072l.01.158v.062l.011.167v.044l.009.138v.062l.01.153v.078l.008.128.007.112v.066q.038.607.074 1.215l-3.993.238a432.345 432.345 0 0 0-.254-3.954zm.615 10.982.019.455.005.12v.055l.008.181v.028l.008.2v.006q.026.628.049 1.257v.042l.006.172v.384l.039 1.1-4 .136c-.045-1.315-.1-2.647-.153-3.961zm.335 10.994v.253l.01.617v.258q0 .175.005.351v.812q.011.854.018 1.709l-4 .034a435.899 435.899 0 0 0-.052-3.963zm-3.945 10.977 4 .031q0 .433-.008.865V429.822c-.008.743-.018 1.48-.03 2.222 0 .1 0 .2-.005.3l-4-.068c.014-1.318.03-2.651.04-3.966zm-.222 10.9 4 .132q-.031.926-.065 1.851v.262l-.006.145v.011c0 .057 0 .1-.006.156v.012c-.02.525-.041 1.035-.063 1.559l-4-.17c.043-1.326.093-2.658.137-3.972zm-.5 10.886 3.993.235-.078 1.289-.009.142v.041l-.006.1-.01.16v.014q-.047.742-.1 1.483v.022l-.007.1-.009.131a78.57 78.57 0 0 1-.034.5l-3.991-.272c.083-1.317.171-2.651.248-3.959zm-.779 10.869 3.986.337-.066.769v.04l-.009.1-.006.071v.049q-.1 1.165-.209 2.327v.011l-.013.139-.011.117v.028l-.031.329-3.982-.374c.109-1.318.227-2.647.338-3.957zm-1.058 10.845 3.976.44c-.051.459-.1.914-.154 1.373l-.009.083-.005.047q-.141 1.235-.289 2.468l-3.971-.477c.152-1.318.304-2.642.449-3.948zm-1.341 10.8 3.963.542q-.048.351-.1.7l-.007.052-.008.061-.014.1-.005.04-.044.312v.011l-.022.155v.006l-.045.317v.035l-.015.107-.009.061-.01.074q-.136.961-.277 1.921l-3.958-.58c.186-1.294.373-2.613.551-3.914zm-1.617 10.78 3.948.645q-.191 1.169-.388 2.337v.01l-.019.112-.008.045-.022.128-.017.1-.007.042-.022.131v.013l-.175 1.018-3.941-.682c.218-1.299.439-2.608.651-3.899zm-1.9 10.729 3.93.747c-.248 1.3-.505 2.624-.765 3.923l-3.922-.784c.261-1.293.516-2.6.761-3.891zM836.4 514.8l3.909.849-.158.723-.006.025-.068.312-.011.05-.019.088-.011.05-.021.095q-.283 1.28-.573 2.558l-3.9-.886c.293-1.279.582-2.58.858-3.864zm-2.451 10.615 3.885.951q-.476 1.944-.969 3.881l-3.876-.988c.327-1.273.65-2.566.962-3.843zm-2.727 10.548 3.859 1.052c-.266.976-.532 1.94-.805 2.913v.009l-.036.127-.015.052-.022.08-.021.073-.169.6-3.849-1.088c.357-1.264.714-2.549 1.06-3.818zm-3 10.473 3.831 1.152q-.577 1.918-1.171 3.828l-3.819-1.188a379.41 379.41 0 0 0 1.16-3.792zm-3.274 10.393 3.8 1.252a512.902 512.902 0 0 1-1.27 3.8l-3.787-1.287c.423-1.251.846-2.516 1.258-3.765zm-3.544 10.3 3.765 1.35q-.676 1.884-1.369 3.76l-3.752-1.386c.452-1.229.913-2.482 1.352-3.72zm-3.811 10.208 3.729 1.448c-.186.479-.374.962-.562 1.439l-.006.015-.046.116-.016.041-.031.078q-.4 1.017-.805 2.032l-3.715-1.483c.488-1.216.976-2.457 1.452-3.682zm-4.076 10.1 3.69 1.545q-.773 1.847-1.562 3.682l-3.675-1.579c.519-1.2 1.04-2.427 1.547-3.64zm-4.338 10 3.648 1.64q-.563 1.253-1.135 2.5v.006l-.048.1-.472 1.028-3.633-1.675a320.775 320.775 0 0 0 1.64-3.596zm-4.6 9.879 3.6 1.734q-.867 1.8-1.751 3.595l-3.588-1.768c.59-1.177 1.173-2.377 1.743-3.558zm-4.852 9.756 3.558 1.828q-.568 1.105-1.142 2.207l-.015.029-.046.089-.017.032-.07.135-.037.07-.025.048-.048.091-.02.038-.061.116-.006.012-.357.682-3.541-1.861a278.664 278.664 0 0 0 1.831-3.513zm-5.1 9.627 3.51 1.919-.507.924-.01.018-.064.116-.012.022-.071.128-.018.033-.053.1-.024.044-.047.085-.026.047-.053.1-.018.032-.068.122-.026.047-.044.08-.028.051-.045.081-.026.048-.067.12-.027.048-.041.073-.036.066-.034.061-.037.067-.028.05-.155.278-.009.016-.363.65-3.491-1.952a359.955 359.955 0 0 0 1.919-3.473zm-5.351 9.491 3.459 2.01q-.806 1.387-1.619 2.763l-.014.024-.042.07-.351.592-3.439-2.042a396.596 396.596 0 0 0 2.007-3.414zm-5.6 9.349 3.405 2.1q-1.05 1.7-2.115 3.4l-3.386-2.13a293.025 293.025 0 0 0 2.101-3.367zm-5.836 9.2 3.35 2.186-.322.492-.006.009-.078.119-.056.085-.019.029-.066.1q-.514.784-1.031 1.565l-.067.1-.554.833-3.329-2.217a247.558 247.558 0 0 0 2.184-3.296zm-6.072 9.048 3.292 2.272-.386.559-.052.075-.024.035-.066.1-.016.022c-.577.832-1.16 1.667-1.743 2.495l-3.271-2.3c.763-1.076 1.525-2.17 2.272-3.252zm-6.3 8.889 3.233 2.356q-1.061 1.457-2.135 2.9l-.022.03-.044.06-.17.229-3.21-2.386c.786-1.047 1.58-2.121 2.35-3.184zm-6.528 8.724 3.171 2.438-1.086 1.407-.006.008-.078.1-.031.04-.055.071-.038.049-.035.045-.122.157-.076.1q-.46.592-.923 1.181l-3.148-2.468a331.223 331.223 0 0 0 2.427-3.128zm-6.753 8.552 3.107 2.519q-.934 1.152-1.877 2.3l-.034.041-.051.062-.046.056-.041.05-.088.107-.017.021-.077.093-.028.034-.064.078-.033.04-.07.085-.021.026-.085.1-3.083-2.548c.835-1.007 1.68-2.039 2.507-3.06zm-6.971 8.375 3.041 2.6-.81.946-.005.006-.157.183-.012.013-.135.156-.032.038-.131.152-.056.065-.082.1-.1.112-.075.087-.079.092-.053.061-.135.157-.05.058-.084.1-.046.052-.134.155-.065.075-.066.076-.127.146-.037.043-.143.164-3.017-2.627c.865-.997 1.735-2.006 2.589-3.006zm-7.185 8.193L741 709.2c-.462.513-.929 1.03-1.393 1.541l-.052.057-.127.139-.069.076-.073.081-.087.1-.089.1-.087.095-.064.07-.124.135-.058.064-.089.1-.061.067-.121.132-.07.076-.072.079-.053.058-2.948-2.7c.892-.982 1.788-1.97 2.668-2.946zm-7.393 8.005 2.9 2.751q-1.284 1.355-2.58 2.7l-.029.03-.125.129-.031.032-2.878-2.778c.917-.942 1.838-1.905 2.743-2.859zm-7.6 7.813 2.832 2.825-.16.16-.033.033-.158.158-.153.153-.041.04-.15.15-.03.03-.135.135-.031.031-.157.156-.024.024-.335.333-.009.009q-.707.7-1.418 1.4l-2.805-2.852c.936-.911 1.882-1.85 2.81-2.781zm-7.795 7.615 2.758 2.9-.1.092-.038.036-.09.086-.068.065-.131.124-.072.068-.082.078-.088.083-.122.115-.056.053-.31.293-.031.029-.326.308-.014.013-.2.187-.034.032-.1.094-.075.07-.112.105-.107.1-.043.04-.717.671-2.731-2.923c.97-.894 1.94-1.809 2.892-2.715zm-7.988 7.411 2.683 2.967q-.946.855-1.9 1.705l-.014.012-.091.082-.03.026-.083.074-.09.081-.029.026-.745.662-2.655-2.992c.989-.867 1.982-1.757 2.957-2.638zm-8.176 7.2 2.605 3.035c-.484.415-.974.834-1.46 1.247l-.112.1-.016.014-.1.084-.02.017-.1.089-.054.045-.053.045-.062.053-.045.038-.06.051-.066.056-.063.054-.089.075-.022.019-.1.085-.012.01-.61.515-2.577-3.059a365.186 365.186 0 0 0 3.019-2.565zm-8.359 6.991 2.526 3.1q-.771.628-1.544 1.252l-.021.017-.081.076-.026.021-.128.1-.049.04-.049.04-.073.059-.033.027-.1.084h-.006l-1 .8-2.5-3.125c1.03-.815 2.064-1.653 3.087-2.483zm-8.536 6.773 2.446 3.165c-.631.488-1.274.981-1.908 1.466l-.011.008-.1.076-.042.032-.06.046-1.057.8-2.416-3.188a217.895 217.895 0 0 0 3.151-2.397zm-8.708 6.551 2.363 3.227c-.483.354-.958.7-1.443 1.052l-.114.083-.028.02-.081.059-.05.036-.02.015-.183.132q-.658.476-1.318.95l-2.333-3.249c1.07-.757 2.15-1.54 3.211-2.317zm-8.874 6.324 2.279 3.287q-1.642 1.138-3.3 2.264l-2.248-3.308a233.149 233.149 0 0 0 3.273-2.235zm-9.034 6.093 2.194 3.345c-.914.6-1.823 1.191-2.742 1.783l-.045.029-.06.039-.085.055h-.006l-.417.268-2.162-3.365a195.742 195.742 0 0 0 3.327-2.15zm-9.189 5.858 2.106 3.4q-1.7 1.054-3.41 2.09l-2.074-3.42c1.128-.673 2.265-1.37 3.382-2.062zm-9.337 5.618 2.018 3.454c-1.027.6-2.025 1.177-3.057 1.769l-.055.031-.041.024-.309.177-1.985-3.473a254.071 254.071 0 0 0 3.434-1.975zm-9.478 5.374 1.927 3.5-.984.54h-.006l-.105.058h-.006l-.147.08-.085.046-.045.024-.094.051-.031.017-.4.218-.022.012-.12.065-.014.007-.261.141-.054.029-.062.034-.081.044-.014.008-.981.529-1.894-3.523c1.16-.603 2.331-1.24 3.483-1.873zm-9.615 5.126 1.836 3.554a425.716 425.716 0 0 1-3.562 1.819l-1.8-3.571a271.936 271.936 0 0 0 3.531-1.795zm-9.744 4.875 1.743 3.6q-1.8.871-3.609 1.726l-1.709-3.617c1.193-.556 2.396-1.13 3.579-1.703zm-9.868 4.62 1.649 3.644-.022.01-.307.139-.016.007-.094.042-.033.015-.095.043-.014.006-.308.139-.035.016-.089.04-.035.016-.287.129-.044.02-.077.035-.055.025-.072.032-.079.035-.072.032-.1.047-.048.021-.094.042-.037.016-.127.057h-.007c-.5.225-1 .444-1.5.666l-1.614-3.66a267.804 267.804 0 0 0 3.616-1.608zm-9.984 4.361 1.553 3.686-1.418.594h-.007l-.122.051-.04.017-.091.038-.273.113-.014.006q-.864.359-1.73.714l-1.518-3.7c1.22-.49 2.452-1.002 3.664-1.513zm-10.1 4.1 1.457 3.725-.524.2-.034.013-.09.035-.268.1-.027.01-.57.221h-.008l-.313.121-.04.015-.078.03-.063.024-.065.025-.1.037-.037.014-.141.054-.015.006-.129.049-.022.009-1.043.4-.014.005-.124.047-.028.011h-.006l-1.421-3.739c1.243-.447 2.487-.927 3.712-1.406zm-10.2 3.835 1.359 3.762c-1.248.451-2.515.9-3.769 1.341l-1.313-3.766c1.241-.436 2.497-.883 3.733-1.33zm-10.3 3.568 1.261 3.8-.494.164-.03.01-.1.032-.075.025-.037.012q-1.532.505-3.068 1l-1.21-3.805c1.254-.403 2.521-.817 3.768-1.231zm-10.385 3.3 1.161 3.828-.739.223-.058.018-.064.019-.095.029q-1.113.335-2.228.663l-.058.017-.053.016-.11.032-.023.007-.4.118-1.125-3.839c1.273-.362 2.55-.744 3.807-1.125zm-10.468 3.027 1.061 3.857q-.862.237-1.726.471l-.1.027-.032.009c-.673.182-1.324.356-2 .535L533.094 832c1.269-.341 2.555-.688 3.821-1.037zm-10.541 2.752.96 3.883-.056.014-.062.015-.131.032-.062.015-.081.02-.067.017-.07.017-.3.073-.031.008-.105.026h-.019q-1.45.355-2.9.7l-.923-3.892a213.2 213.2 0 0 0 3.862-.923zm-10.609 2.476.858 3.907q-1.3.287-2.613.565l-.106.023-.029.006-1.161.245-.821-3.915c1.301-.263 2.604-.543 3.887-.825zm-10.671 2.2.756 3.928q-.918.177-1.837.35l-.074.014-.08.015-.061.011-.106.02-.037.007-.147.027-.034.006-.114.021-.05.009-.1.018-.057.011-.1.018-.134.025h-.025l-.978.18-.719-3.935c1.312-.225 2.618-.471 3.912-.72zm-10.724 1.921.654 3.946q-1.97.327-3.949.635l-.617-3.952c1.314-.197 2.63-.408 3.927-.623zm-10.755 1.648.552 3.962c-1.325.184-2.637.361-3.965.533l-.514-3.967c1.302-.169 2.627-.347 3.927-.528zm-10.81 1.363.449 3.975-.1.011c-.556.063-1.1.123-1.655.183l-.051.005-.088.01-.08.009h-.038q-.981.106-1.964.208l-.412-3.979a313.28 313.28 0 0 0 3.938-.422zm-10.844 1.082.346 3.985-.61.053h-.057l-.063.005c-1.093.093-2.164.18-3.26.265l-.309-3.988a259.85 259.85 0 0 0 3.953-.32zm-10.867.8.244 3.993h-.06l-.141.009h-.022l-.325.02h-.015l-.5.029h-.007l-1.344.077h-.022l-.139.008h-.027l-.153.008h-.044l-.1.005h-.135l-.971.051-.207-3.995c1.322-.044 2.655-.119 3.968-.199zm-10.885.525.142 4H440.17q-1.917.067-3.838.118l-.1-4c1.313-.024 2.647-.065 3.962-.112zm-10.9.248.04 4a445.19 445.19 0 0 1-4.006.022v-4c1.319.005 2.655-.003 3.972-.016zm-14.868-.109c1.312.032 2.643.059 3.955.079l-.062 4-.681-.011h-.321q-.993-.018-1.986-.04H415.041l-.715-.017zm-10.891-.407c1.311.066 2.641.126 3.954.18l-.163 4-.366-.015h-.126l-.125-.005h-.042l-.128-.005h-.029c-.907-.039-1.785-.079-2.691-.124h-.127l-.356-.018zm-10.877-.686c1.31.1 2.638.194 3.949.281l-.266 3.991q-.99-.066-1.979-.136h-.018l-.077-.005-.086-.006h-.052c-.6-.043-1.171-.085-1.776-.131zm-10.855-.965c1.307.133 2.633.262 3.942.383l-.368 3.983q-1.993-.184-3.98-.387zm-10.826-1.245c1.3.167 2.627.33 3.933.485l-.471 3.972-.4-.047h-.041l-.1-.012-.061-.007-.085-.01-.126-.015-.064-.008-.083-.01-.066-.008-.078-.009-.082-.01-.1-.012-.1-.012-.052-.006-.11-.013h-.04c-.8-.1-1.576-.2-2.379-.3zm-10.79-1.524c1.3.2 2.618.4 3.92.587l-.573 3.959q-.849-.123-1.7-.249l-.049-.007-.075-.011-.085-.013-.053-.008c-.674-.1-1.326-.2-2-.3zm-10.746-1.8c1.294.235 2.608.466 3.9.689l-.676 3.942q-.881-.151-1.762-.306l-.148-.026h-.024l-.152-.027-.146-.026-.058-.01-.081-.014-.075-.013-.051-.009-1.44-.258zm-10.7-2.082c1.288.268 2.6.534 3.887.79l-.778 3.924-.489-.1h-.006l-.108-.022-.1-.02-.028-.006a419.78 419.78 0 0 1-3.194-.652zm-10.627-2.355c1.28.3 2.58.6 3.864.891l-.88 3.9q-.828-.187-1.654-.377l-.076-.018-.058-.013-.109-.025-.028-.007-1.272-.3h-.018l-.111-.026-.071-.017-.042-.01-.46-.108zm-10.572-2.636c1.272.335 2.563.668 3.838.991l-.981 3.878-1.107-.282-.085-.022-.036-.009q-1.325-.34-2.647-.688zm-10.5-2.91c1.262.368 2.544.734 3.81 1.09l-1.082 3.851q-1.927-.542-3.846-1.1zm-10.42-3.183c1.252.4 2.524.8 3.779 1.189l-1.182 3.821c-.975-.3-1.952-.608-2.925-.917l-.027-.008-.1-.032-.762-.243zm-10.333-3.454c1.241.433 2.5.866 3.746 1.287l-1.282 3.789-.06-.02h-.01l-.3-.1-.032-.011-.1-.035-.065-.022-.058-.02q-1.582-.538-3.159-1.088zm-10.239-3.722c1.229.465 2.478.931 3.711 1.384l-1.38 3.754c-.788-.29-1.6-.59-2.384-.885l-.047-.018-.071-.027-1.244-.469zm-10.139-3.988c1.216.5 2.452.995 3.673 1.48l-1.477 3.717c-.552-.219-1.094-.436-1.645-.658l-.04-.016-.079-.032-.087-.035h-.011q-.924-.372-1.845-.749zm-10.033-4.251c1.2.528 2.426 1.058 3.634 1.575l-1.574 3.677q-1.839-.787-3.669-1.59zm-9.919-4.511c1.189.56 2.4 1.122 3.593 1.67l-1.669 3.635-.653-.3-.041-.019-.063-.029-.1-.045-.02-.009a457.9 457.9 0 0 1-2.751-1.282zm-9.8-4.767c1.175.591 2.369 1.184 3.549 1.763l-1.763 3.591q-1.193-.585-2.384-1.18l-.062-.031-.042-.021-1.1-.549zm-9.671-5.02a470.18 470.18 0 0 0 3.5 1.855l-1.855 3.544-.033-.017-.037-.019-.1-.052-.033-.017-.115-.061-.039-.021-.1-.054-.057-.03-.061-.032-.075-.039-.043-.022q-1.424-.749-2.842-1.508zm-9.537-5.269c1.143.651 2.3 1.305 3.453 1.945l-1.947 3.494-.751-.42-.024-.014-.078-.044-.078-.044-.037-.021q-1.26-.706-2.517-1.422zm-9.4-5.515c1.125.68 2.27 1.364 3.4 2.034l-2.037 3.443-.029-.017-.023-.014-.116-.069-.013-.008-.4-.239-.011-.007-.127-.075h-.007l-.261-.155-.034-.02-.094-.056-.038-.023-.1-.057-.032-.019-.118-.07-.057-.034-.063-.038-.068-.041-.053-.032-.068-.041-.048-.029-.141-.084-.039-.023-.079-.047-.039-.023-.078-.047-.048-.029-.073-.044-.111-.067-.039-.024-.094-.057-.028-.017-.12-.072-.778-.469zm-9.252-5.756c1.107.709 2.233 1.422 3.347 2.121l-2.125 3.389-.27-.169-.068-.043-.035-.022c-.666-.419-1.346-.849-2.01-1.271l-.119-.076-.019-.017-.118-.075-.076-.048-.035-.022-.626-.4zm-9.1-5.993c1.088.737 2.2 1.479 3.291 2.206l-2.212 3.333q-1.667-1.106-3.322-2.227zm-8.942-6.227c1.069.765 2.157 1.536 3.233 2.291l-2.3 3.275-.2-.139-.014-.01-.386-.272-.023-.016-.084-.059-.028-.02-.081-.057-.029-.02-.141-.1-.047-.033-.064-.045-.052-.037-.061-.043-.073-.052-.04-.028-.119-.084-.014-.01-.113-.08-.014-.01c-.565-.4-1.119-.794-1.682-1.2zm-8.779-6.455c1.049.792 2.116 1.591 3.172 2.373l-2.381 3.214q-.894-.662-1.784-1.329l-.022-.017-.035-.026-.1-.074h-.006c-.415-.311-.841-.632-1.255-.945zm-8.61-6.68c1.028.819 2.075 1.645 3.111 2.454l-2.463 3.152-.192-.15-.039-.031-.059-.046q-1.429-1.119-2.85-2.25zm-8.435-6.9c1.007.845 2.032 1.7 3.047 2.534l-2.543 3.087-.962-.795-.091-.075-.018-.015-.082-.068-.1-.082-.039-.033-.084-.069-.022-.019c-.562-.467-1.116-.929-1.675-1.4zm-8.254-7.114c.985.871 1.988 1.75 2.981 2.612l-2.622 3.021-.026-.022-.119-.1-.121-.105-.023-.02q-.947-.824-1.892-1.655l-.024-.021-.1-.085-.132-.116-.039-.034-.159-.14h-.006l-.373-.329zm-8.068-7.324c.962.9 1.942 1.8 2.912 2.687l-2.7 2.952-.918-.841-.007-.007-.177-.163-.015-.014-.147-.135-.043-.04-.146-.135-.063-.058-.092-.085-.09-.083-.106-.1-.086-.08-.06-.056-.173-.16-.027-.025-.79-.734zm-7.871-7.525c.939.921 1.895 1.85 2.842 2.761l-2.774 2.882q-.894-.861-1.784-1.727l-.028-.027-.331-.323-.021-.02-.706-.691zm-7.681-7.729c.915.944 1.847 1.9 2.77 2.834l-2.847 2.81-.171-.173-.012-.012-.154-.156-.02-.02-.141-.143-.063-.064-.088-.09-.122-.124-.051-.052-.308-.314-.02-.02a437.824 437.824 0 0 1-1.647-1.691zm-7.48-7.924c.89.968 1.8 1.945 2.7 2.9l-2.918 2.735a407.25 407.25 0 0 1-2.61-2.81l-.037-.04-.075-.081zm-7.274-8.114c.865.99 1.747 1.99 2.621 2.972l-2.988 2.659-.22-.248-.037-.042-.109-.123-.114-.128-.03-.034q-.569-.641-1.135-1.285l-.023-.026-.144-.164-.045-.051-.085-.1-.7-.8zm-7.062-8.3c.839 1.012 1.7 2.035 2.544 3.039l-3.055 2.582-.15-.177-.016-.018q-.878-1.04-1.749-2.086l-.016-.019-.142-.171-.036-.043-.1-.124-.048-.057-.115-.138-.077-.093-.038-.046-.074-.09zm-6.843-8.482a393.971 393.971 0 0 0 2.464 3.1l-3.121 2.5a397.326 397.326 0 0 1-2.488-3.133zm-6.629-8.651a435.933 435.933 0 0 0 2.383 3.165l-3.184 2.421q-.561-.738-1.12-1.479l-.023-.031-.053-.07-.038-.051-.051-.068-.076-.1-.027-.036-.061-.081-.031-.041-.062-.082-.027-.035-.077-.1-.01-.013-.086-.115-.028-.037-.057-.076-.04-.053-.038-.051-.5-.669zm-6.4-8.819a409.037 409.037 0 0 0 2.3 3.225l-3.246 2.338-.388-.54-.03-.042-.047-.065-.044-.062-.012-.017-.2-.278-.016-.022-.063-.087-.013-.018-.081-.113-.058-.081-.027-.038-.069-.1-.011-.015c-.425-.6-.842-1.183-1.264-1.781zM74.7 658.6c.73 1.093 1.476 2.2 2.216 3.284l-3.3 2.253-.029-.042-.023-.034-.067-.1-.016-.023-.083-.121-.016-.023-.07-.1-.018-.027-.077-.113v-.007c-.614-.9-1.228-1.814-1.835-2.723zm-5.936-9.137c.7 1.111 1.419 2.235 2.131 3.34l-3.362 2.167v-.007l-.063-.1-.077-.12-.005-.008a431.88 431.88 0 0 1-1.547-2.42l-.005-.008-.068-.108-.03-.048-.044-.069-.037-.058-.025-.039-.247-.39zm-5.7-9.288a448.677 448.677 0 0 0 2.044 3.394l-3.417 2.08q-.319-.523-.636-1.048l-.015-.026-.034-.055-.054-.089-.014-.023c-.442-.731-.874-1.452-1.312-2.186zm-5.456-9.432a380.13 380.13 0 0 0 1.956 3.447l-3.47 1.99-.422-.737-.007-.013-.065-.13-.027-.048-.04-.071-.039-.068-.029-.05-.045-.079v-.006l-.178-.314-.007-.012-.239-.422-.007-.012-.053-.093-.017-.03-.048-.085-.03-.053-.057-.1-.049-.087-.024-.042-.057-.1-.011-.02-.513-.911zm-5.208-9.571a492.507 492.507 0 0 0 1.866 3.5l-3.52 1.9-.234-.435-.019-.035-.054-.1-.056-.1-.015-.028-.063-.118v-.009c-.481-.9-.962-1.8-1.437-2.7zm-4.959-9.7c.583 1.179 1.18 2.371 1.775 3.545l-3.568 1.808q-.619-1.222-1.23-2.448v-.007l-.052-.1-.006-.011-.5-1zm-4.7-9.827c.552 1.193 1.118 2.4 1.682 3.589l-3.614 1.714q-.4-.847-.8-1.7l-.052-.112v-.006l-.093-.2-.012-.026-.034-.072-.029-.063-.028-.06-.04-.085-.021-.044-.13-.278v-.007l-.453-.975zM38.29 591.7a433.036 433.036 0 0 0 1.587 3.63l-3.657 1.62c-.327-.738-.647-1.468-.97-2.208v-.006l-.054-.123-.017-.039-.038-.087-.121-.279v-.007l-.4-.916zm-4.19-10.062c.489 1.22.991 2.454 1.492 3.669l-3.7 1.524a462.71 462.71 0 0 1-.667-1.628l-.016-.04-.034-.082-.029-.081-.015-.036q-.373-.917-.741-1.836zm-3.924-10.164c.457 1.232.927 2.478 1.4 3.706l-3.737 1.427c-.367-.96-.728-1.917-1.088-2.88v-.013l-.048-.128-.031-.083-.021-.055-.04-.108v-.007l-.173-.466zm-3.657-10.263c.425 1.243.862 2.5 1.3 3.741l-3.773 1.329v-.012l-.027-.078-.026-.075-.019-.053c-.27-.767-.53-1.514-.8-2.283l-.008-.023-.04-.115-.015-.044-.03-.086q-.174-.5-.346-1.008zm-3.388-10.355c.392 1.254.8 2.524 1.2 3.774l-3.806 1.23-.2-.614c-.3-.919-.591-1.847-.88-2.769v-.015l-.032-.1-.1-.312zm-3.117-10.44c.36 1.264.73 2.544 1.1 3.805l-3.837 1.131q-.435-1.476-.859-2.956l-.02-.071-.016-.057-.037-.129-.178-.626zM17.172 529.9c.327 1.273.664 2.563 1 3.834l-3.865 1.03-.008-.031-.011-.042c-.334-1.256-.67-2.537-.993-3.8zM14.6 519.309c.293 1.282.6 2.58.9 3.859l-3.891.929-.231-.971-.027-.113-.006-.024-.066-.281-.024-.1-.01-.041-.031-.134v-.007c-.138-.588-.273-1.169-.409-1.759l-.005-.024-.025-.109-.016-.071-.009-.04-.05-.22zm-2.292-10.653c.26 1.29.53 2.6.8 3.883l-3.913.828a453.221 453.221 0 0 1-.81-3.92zM10.3 497.947c.226 1.3.462 2.61.7 3.9l-3.934.726-.1-.541v-.013l-.028-.153-.058-.317v-.019l-.027-.15-.058-.323v-.007l-.175-.974v-.007l-.027-.153v-.009l-.055-.312-.006-.033-.02-.115-.022-.047-.017-.1-.023-.129-.009-.049-.019-.108v-.015l-.064-.364zm-1.739-10.758c.193 1.3.395 2.622.6 3.922l-3.951.623-.172-1.1v-.022l-.017-.111v-.012q-.21-1.356-.411-2.714zM7.1 476.391c.159 1.306.326 2.63.5 3.935l-3.966.521q-.26-1.983-.5-3.972zM5.928 465.56c.125 1.31.258 2.637.4 3.945l-3.978.418q-.112-1.066-.219-2.134v-.018l-.013-.136v-.036l-.013-.131v-.024l-.015-.15v-.039l-.012-.117v-.04c-.039-.391-.075-.765-.112-1.157zm-.9-10.859c.091 1.312.19 2.642.294 3.952l-3.988.315-.071-.907v-.056l-.006-.081q-.069-.9-.134-1.8v-.13l-.072-1.016zm-.618-10.879c.058 1.314.123 2.645.193 3.957l-3.994.213q-.086-1.615-.16-3.233v-.181l-.006-.13V444.303l-.006-.141v-.008L.417 444zm-.34-10.892c.024 1.314.055 2.647.091 3.96l-4 .111a474.43 474.43 0 0 1-.081-3.388v-.109q0-.25-.009-.5zM.01 421.992l4 .028C4 423.008 4 424.011 4 425v.992L0 426V422.36q.009-.184.01-.368zm.216-11 4 .129a402.92 402.92 0 0 0-.11 3.966l-4-.092.021-.861v-.127a527.8 527.8 0 0 1 .071-2.524v-.124q.012-.181.018-.365zm.5-10.989 3.993.232a434.265 434.265 0 0 0-.211 3.963l-4-.194c.031-.637.062-1.253.1-1.889v-.026l.006-.12v-.14l.017-.309v-.027q.049-.743.092-1.487zm.774-10.97 3.986.334c-.11 1.312-.215 2.643-.313 3.956l-3.989-.3.072-.954.006-.069v-.063l.01-.133v-.008c.068-.885.141-1.783.215-2.667l.006-.072zm1.06-10.949 3.976.437a399.22 399.22 0 0 0-.414 3.945l-3.98-.4.007-.066.009-.086.006-.057.013-.127v-.017c.089-.879.182-1.773.276-2.65l.009-.083v-.034q.051-.433.098-.861zm1.34-10.917 3.963.539c-.177 1.3-.351 2.626-.516 3.932l-3.968-.5c.158-1.247.322-2.5.49-3.744v-.029l.014-.106.01-.076zm1.624-10.879 3.948.642c-.211 1.3-.419 2.616-.618 3.916l-3.954-.6c.113-.742.233-1.507.35-2.248l.011-.072.008-.052q.131-.796.257-1.586zm1.906-10.833 3.93.744c-.245 1.292-.486 2.6-.719 3.9l-3.937-.707c.237-1.321.476-2.617.726-3.934zm2.187-10.78 3.909.846a430.468 430.468 0 0 0-.82 3.876l-3.917-.809q.164-.794.331-1.586v-.011l.024-.112.006-.03.03-.144.02-.095.009-.042.025-.12.005-.026c.091-.431.181-.851.274-1.281v-.007l.028-.13.012-.057.015-.068zm2.466-10.719 3.886.948a422.9 422.9 0 0 0-.92 3.853l-3.895-.911.136-.58v-.018l.031-.133.028-.119.6-2.525.014-.059.015-.062.1-.392zm2.745-10.651 3.86 1.049a422.569 422.569 0 0 0-1.02 3.826l-3.87-1.012c.338-1.284.684-2.583 1.031-3.862zm3.022-10.576 3.831 1.149a396.084 396.084 0 0 0-1.119 3.8l-3.842-1.113q.191-.66.384-1.318l.031-.107.01-.034.089-.3.014-.049.023-.077.019-.065.023-.077.017-.059.046-.157.011-.037.027-.093.012-.042.029-.1v-.011q.2-.655.396-1.309zm3.3-10.494 3.8 1.249c-.41 1.248-.82 2.516-1.218 3.767l-3.812-1.212c.334-1.05.674-2.1 1.016-3.15l.015-.045.018-.055zm3.57-10.406 3.766 1.347a375.637 375.637 0 0 0-1.316 3.736l-3.781-1.312q.656-1.888 1.329-3.77zm3.84-10.309 3.73 1.445a425.872 425.872 0 0 0-1.414 3.7l-3.743-1.41.164-.435.017-.044.018-.048.043-.113.006-.015c.23-.607.458-1.207.691-1.813l.051-.132.015-.04.035-.092.021-.056.028-.073.061-.16.006-.015.041-.105.007-.017.042-.108.132-.342v-.01l.04-.1zm4.107-10.2 3.691 1.542a402.698 402.698 0 0 0-1.51 3.664l-3.705-1.507q.328-.806.658-1.61l.015-.037.035-.086.05-.121.016-.038.044-.108.012-.028.051-.123.007-.017.363-.876.015-.036.042-.1.018-.043.036-.087.06-.143.008-.019zm4.371-10.094 3.65 1.637c-.538 1.2-1.079 2.42-1.606 3.625l-3.665-1.6.452-1.031.2-.455.047-.107.007-.017.144-.324v-.01l.041-.093.017-.039.038-.086.02-.046.052-.118.035-.078.026-.059.039-.089.016-.036.477-1.068zm4.633-9.977 3.606 1.732a451.274 451.274 0 0 0-1.7 3.581l-3.622-1.7.41-.872.017-.036.014-.029.057-.12v-.008c.252-.535.5-1.06.756-1.594v-.008l.059-.124.012-.024.053-.111.055-.115.006-.013zm4.89-9.853 3.56 1.825c-.6 1.17-1.2 2.359-1.791 3.535l-3.577-1.791.064-.128.029-.058.028-.055q.453-.9.91-1.8l.052-.1.009-.018c.237-.466.478-.939.717-1.4zm5.144-9.722 3.511 1.917a417.701 417.701 0 0 0-1.882 3.487l-3.534-1.887.339-.634.012-.022.035-.065q.544-1.014 1.092-2.024v-.007l.027-.049.391-.718zm5.395-9.586 3.46 2.007a390.485 390.485 0 0 0-1.971 3.436l-3.479-1.974q.3-.536.609-1.07l.013-.022.044-.078.031-.055.035-.061.064-.112v-.007l.078-.135.005-.009.075-.131c.259-.452.527-.918.788-1.369l.041-.07.019-.033zm5.641-9.443 3.407 2.1a418.007 418.007 0 0 0-2.06 3.384l-3.427-2.064q.41-.681.823-1.36l.026-.043.042-.07.04-.066.03-.05.154-.252.012-.019.068-.112.013-.022c.292-.479.577-.945.871-1.422zm5.884-9.294 3.352 2.183a401.07 401.07 0 0 0-2.146 3.329l-3.372-2.152.8-1.252.013-.021.052-.08.042-.065.028-.044c.406-.64.814-1.264 1.229-1.9zm6.122-9.139 3.294 2.269c-.746 1.083-1.5 2.184-2.232 3.274l-3.315-2.238.9-1.326.086-.126.033-.048.041-.06.057-.083.013-.019q.557-.826 1.121-1.645zm6.356-8.978 3.235 2.353a402.048 402.048 0 0 0-2.316 3.215l-3.257-2.323c.34-.477.687-.961 1.029-1.437l.047-.065.024-.034q.615-.858 1.235-1.711zm6.586-8.811 3.173 2.436c-.8 1.043-1.608 2.1-2.4 3.155l-3.2-2.406.009-.012.05-.066.033-.044.054-.071.022-.029.2-.262.017-.023.063-.083.017-.023.285-.377.011-.015.069-.091.005-.007.214-.283.012-.016.065-.086.016-.022.065-.086v-.006l.144-.189v-.005l.062-.082.021-.028.06-.078.026-.034.057-.075.005-.007.119-.156.036-.047.048-.063.039-.051.048-.063.045-.059.039-.051.081-.106.036-.047.055-.071.035-.045.056-.073.033-.043.087-.114zm6.81-8.638 3.109 2.517a435.333 435.333 0 0 0-2.479 3.092l-3.134-2.494q.69-.869 1.385-1.735l.024-.03.052-.065.045-.056.037-.047.073-.091.017-.021c.291-.355.572-.71.872-1.072zm7.031-8.46 3.043 2.6c-.853 1-1.714 2.019-2.558 3.027l-3.067-2.567.347-.414.1-.118c.615-.733 1.229-1.458 1.849-2.187l.005-.006.089-.1.016-.018.091-.106.064-.075.017-.019zm7.246-8.276 2.975 2.673a434.74 434.74 0 0 0-2.635 2.96l-3-2.645q1.316-1.492 2.645-2.972zm7.456-8.087 2.906 2.749c-.9.955-1.815 1.928-2.71 2.891l-2.931-2.722q1.017-1.1 2.042-2.184l.016-.017.159-.169.023-.025.114-.121.074-.079.039-.041zm7.662-7.892 2.834 2.823c-.928.931-1.864 1.88-2.783 2.82l-2.86-2.8.866-.884.018-.018.161-.164.023-.023.128-.13.052-.052.133-.135.065-.066.085-.086.066-.067.126-.127.071-.072.09-.091.076-.077.119-.12.049-.049zm7.863-7.693 2.76 2.895c-.951.907-1.912 1.832-2.855 2.748l-2.787-2.869q1.432-1.395 2.88-2.776zm8.058-7.488 2.685 2.965a411.74 411.74 0 0 0-2.925 2.674l-2.713-2.94.025-.023.128-.118.085-.078.062-.057.172-.158.032-.03.109-.1.01-.009c.5-.458.99-.908 1.491-1.364l.048-.043.086-.078.143-.13.021-.019zm8.248-7.278 2.608 3.033c-1 .857-2 1.731-2.992 2.6l-2.636-3.009.832-.727.058-.051.085-.074.137-.119.056-.049.12-.1.044-.038.161-.14.035-.03.164-.142.006-.005.179-.155.019-.016.36-.312.014-.012zm8.432-7.063 2.529 3.1a459.08 459.08 0 0 0-3.058 2.519l-2.558-3.075q.957-.8 1.919-1.587l.018-.015.082-.067.034-.028.086-.07.093-.076.023-.019.833-.681zM165.1 88.7l2.448 3.163c-1.04.8-2.09 1.625-3.122 2.44l-2.478-3.14.022-.017.027-.021.09-.071.031-.025.1-.082.009-.007.121-.1.009-.007.109-.086.022-.017.1-.076.025-.02.239-.188.008-.007.116-.091.008-.006c.7-.55 1.409-1.1 2.113-1.646zm8.785-6.62 2.366 3.225c-1.06.777-2.131 1.571-3.184 2.358l-2.4-3.2.549-.41.008-.006.1-.072.041-.031.033-.025q.638-.475 1.277-.948l.152-.113.054-.04.026-.019.106-.078.007-.005.862-.634zm8.953-6.391 2.282 3.285c-1.08.75-2.171 1.516-3.244 2.276l-2.313-3.264.046-.033.02-.014c.608-.431 1.2-.847 1.81-1.275l.026-.018.085-.059.048-.034.052-.036q.596-.417 1.192-.826zm9.115-6.158 2.2 3.343c-1.1.722-2.21 1.459-3.3 2.191l-2.227-3.322q1.658-1.111 3.33-2.21zm9.271-5.92 2.109 3.4c-1.117.693-2.247 1.4-3.358 2.105l-2.141-3.379.833-.527.05-.032.055-.035c.824-.519 1.623-1.019 2.451-1.532zm9.421-5.678 2.02 3.452a401.778 401.778 0 0 0-3.411 2.018l-2.053-3.433.1-.059.015-.009.089-.053.042-.025.072-.043.116-.069.028-.016.1-.061.031-.019.1-.061.028-.016.4-.238.408-.242.011-.006.118-.07.023-.013.105-.062.03-.017.118-.07.065-.038.05-.03.084-.049.024-.014 1.291-.755zm9.564-5.432 1.93 3.5a390.623 390.623 0 0 0-3.462 1.929l-1.963-3.485a425.82 425.82 0 0 1 3.495-1.947zm9.7-5.182 1.839 3.552c-1.167.6-2.348 1.222-3.51 1.838l-1.872-3.535.282-.149.025-.013.108-.057.241-.127.012-.006q1.44-.756 2.881-1.502zm9.833-4.929 1.746 3.6a433.133 433.133 0 0 0-3.556 1.746l-1.78-3.582q.881-.438 1.765-.872l.039-.019.07-.034.069-.034.054-.027.123-.06.142-.069h.007l1.008-.491.122-.059.043-.021.077-.037.065-.031zm9.958-4.672 1.652 3.643c-1.2.542-2.408 1.1-3.6 1.652l-1.686-3.627q1.018-.473 2.038-.941h.007l.332-.152h.005l.082-.037.05-.023.077-.035.056-.025.071-.033.076-.035.107-.049.066-.03.067-.03.064-.029.068-.031.06-.027.167-.076.013-.006.1-.044.025-.011.1-.046zm10.077-4.411 1.556 3.685a390.367 390.367 0 0 0-3.641 1.558l-1.591-3.67.02-.009.052-.023.116-.05h.008a414.26 414.26 0 0 1 3.486-1.489zm10.188-4.147 1.46 3.724c-1.224.48-2.462.972-3.681 1.463l-1.495-3.71c.864-.348 1.725-.692 2.592-1.034l.039-.015.082-.032.071-.028h.011zm10.293-3.88 1.362 3.761c-1.236.448-2.487.907-3.719 1.367l-1.4-3.748q1.522-.567 3.049-1.124l.1-.037.6-.218zm10.391-3.611 1.264 3.8c-1.248.415-2.511.843-3.754 1.27l-1.3-3.783.258-.089.074-.025.044-.015q.988-.338 1.977-.672l.031-.01.089-.03.1-.034.025-.008 1.191-.4zm10.482-3.338 1.164 3.827a424.14 424.14 0 0 0-3.787 1.172l-1.2-3.816.108-.034.031-.01.094-.03.127-.04.031-.01.12-.038.025-.008a359.5 359.5 0 0 1 3.285-1.014zm10.569-3.063 1.064 3.856c-1.268.35-2.553.711-3.817 1.073l-1.1-3.846.639-.182h.016l.124-.035.04-.011.122-.035.035-.01.116-.033.08-.023.053-.015.094-.026h.016q1.259-.365 2.518-.713zm10.641-2.787.963 3.882c-1.277.317-2.57.644-3.844.973l-1-3.873.792-.2h.017l.147-.038h.006l.147-.038.034-.009.113-.029.041-.01.3-.076c.757-.192 1.525-.385 2.284-.573zm10.709-2.509.862 3.906c-1.284.283-2.585.577-3.867.872l-.9-3.9 1.155-.264.144-.033h.022l.143-.032.062-.014.072-.016.086-.02.043-.01.332-.075h.013l.1-.023.036-.008.1-.022.025-.006.152-.034.1-.021.038-.009 1.279-.284zm10.771-2.229.76 3.927c-1.291.25-2.6.509-3.886.771l-.8-3.92 1.334-.269h.019l.088-.018.076-.015.058-.012c.785-.156 1.562-.309 2.349-.461zM354.648 5.8l.657 3.946c-1.3.216-2.61.441-3.9.669l-.695-3.939.53-.093h.01l.143-.025h.024l.308-.054.029-.005.125-.022.033-.006.143-.025h.011l.143-.025.056-.01.084-.015.07-.012.079-.014.121-.021.071-.012.086-.015.051-.009.095-.016h.022q.849-.159 1.704-.297zm10.872-1.671.555 3.961c-1.3.182-2.619.373-3.918.568l-.592-3.958.192-.029h.008l.324-.048h.01l.142-.021h.029l.316-.047h.006l.157-.023h.007c.826-.121 1.646-.239 2.474-.356h.006zm10.912-1.384.452 3.974c-1.3.148-2.627.305-3.93.466l-.489-3.97c.97-.12 1.914-.233 2.886-.346h.032l.123-.014h.038l.148-.017h.033l.116-.013.053-.006.106-.025h.043l.149-.017h.022l.142-.016h.016l.059-.007zm10.944-1.1.349 3.985c-1.308.115-2.634.237-3.941.364L383.4 2.01a449.1 449.1 0 0 1 3.513-.327h.01l.132-.012h.052l.079-.007zm10.969-.82.247 3.992c-1.311.081-2.64.17-3.95.263l-.284-3.99a445.46 445.46 0 0 1 1.657-.115l.153-.01h.028l.142-.01h.053l.1-.007.083-.005h.054q.858-.068 1.717-.121zm10.986-.542.145 4c-1.313.048-2.644.1-3.956.162l-.182-4q.986-.045 1.974-.085h.257l.148-.006h.012l.153-.006h.016l1.433-.054zm11-.258.043 4c-1.314.014-2.647.035-3.96.061l-.08-4 .366-.007H419.172l1.151-.014z" transform="translate(535 4286)"/>
                </g>
            </g>
            <path id="Path_505" data-name="Path 505" class="cls-7" d="M37.5 0A37.5 37.5 0 1 1 0 37.5 37.5 37.5 0 0 1 37.5 0z" transform="translate(611 4966)"/>
        </g>
    </g>
</svg>
