<svg xmlns="http://www.w3.org/2000/svg" className="w-full h-full" width="389.153" height="518" viewBox="0 0 389.153 518">
    <defs>
        <clipPath id="clip-path">
            <path style="fill:none" d="M82 0h389.153v518H82z"/>
        </clipPath>
        <clipPath id="clip-path-2">
            <path id="Rectangle_752" data-name="Rectangle 752" style="stroke:#707070;fill:#fff" d="M0 0h276.12v143.139H0z"/>
        </clipPath>
        <style>
            .cls-9{fill:#fff}.cls-13,.cls-8{fill:#f04e30}.cls-8{font-size:0.75rem;font-family:'IBMPlexSansThaiLooped',sans-serif;font-weight:500}.cls-9{font-size:0.8rem;font-family:'IBMPlexSansThai',sans-serif;font-weight:600;letter-spacing:.05em}.cls-14{stroke:none}
        </style>
    </defs>
    <g id="Scroll_Group_15" data-name="Scroll Group 15" transform="translate(-82)" style="isolation:isolate;clip-path:url(#clip-path)">
        <g id="Group_1250" data-name="Group 1250" transform="translate(81.153 -65)">
            <g id="Group_1249" data-name="Group 1249">
                <g id="Group_1203" data-name="Group 1203" transform="translate(-34 66.446)">
                    <circle id="Ellipse_1234" data-name="Ellipse 1234" cx="100.5" cy="100.5" r="100.5" transform="translate(-10.82 144)" style="fill:#fff"/>
                    <text id="หาคำตอบ_ผ่านกรอบ_การทำงาน_" data-name="หาคำตอบ ผ่านกรอบ การทำงาน*" transform="translate(59.18 198.277)" style="font-size:1rem;fill:#2b2b2b;font-family:'IBMPlexSansThaiLooped',sans-serif;font-weight:700"><tspan x="0" y="0">หาคำตอบ</tspan><tspan x="0" y="25">ผ่านกรอบ</tspan><tspan x="0" y="50">การทำงาน</tspan><tspan y="50" style="font-size:8.75px;baseline-shift:4.999500156940817">*</tspan></text>
                    <text id="_5_ขั้น" data-name="5 ขั้น" transform="translate(88.18 294.723)" style="font-size:1.75rem;fill:#2b2b2b;font-family:'IBMPlexSansThaiLooped',sans-serif;font-weight:700"><tspan x="-28.518" y="0">5 ขั้น</tspan></text>
                </g>
            </g>
            <g id="Group_1211" data-name="Group 1211">
                <g id="Group_1206" data-name="Group 1206" transform="translate(-314 -1697)">
                    <text id="กำหนดขอบเขตของระบบ" class="cls-8" transform="translate(505 1819)"><tspan x="-136.236" y="0">กำหนดขอบเขตของระบบ</tspan></text>
                    <text id="_1_Frame_the_system" data-name="1 Frame the system" class="cls-9" transform="translate(369 1778)"><tspan x="0" y="0">1</tspan><tspan x="0" y="20">Frame the system</tspan></text>
                </g>
                <g id="Group_1205" data-name="Group 1205" transform="translate(-180 -1710)">
                    <text id="ทำความเข้าใจระบบ" class="cls-8" transform="translate(472 1934)"><tspan x="-102.84" y="0">ทำความเข้าใจระบบ</tspan></text>
                    <text id="_2_Listen_Understand_the_system" data-name="2 Listen &amp; Understand the system" class="cls-9" transform="translate(369 1868)"><tspan x="0" y="0">2</tspan><tspan x="0" y="20">Listen &amp; Understand</tspan><tspan x="0" y="40">the system</tspan></text>
                </g>
                <g id="Group_1204" data-name="Group 1204" transform="translate(-151 -1713)">
                    <text id="ตั้งเป้าภาพสำเร็จ_และหาความเป็นไปได้" data-name="ตั้งเป้าภาพสำเร็จ และหาความเป็นไปได้" class="cls-8" transform="translate(369 2054)"><tspan x="0" y="0">ตั้งเป้าภาพสำเร็จ</tspan><tspan x="0" y="20">และหาความเป็นไปได้</tspan></text>
                    <text id="_3_Define_the_Desired_Future_Possibility" data-name="3 Define the Desired Future &amp; Possibility" class="cls-9" transform="translate(369 1988)"><tspan x="0" y="0">3 </tspan><tspan x="0" y="20">Define the Desired</tspan><tspan x="0" y="40">Future &amp; Possibility</tspan></text>
                </g>
                <g id="Group_1207" data-name="Group 1207" transform="translate(-180 -1724)">
                    <text id="ออกแบบการสร้าง_การเปลี่ยนแปลง" data-name="ออกแบบการสร้าง การเปลี่ยนแปลง" class="cls-8" transform="translate(369 2180)"><tspan x="0" y="0">ออกแบบการสร้าง</tspan><tspan x="0" y="20">การเปลี่ยนแปลง</tspan></text>
                    <text id="_4_Design_the_Intervention" data-name="4 Design the Intervention" class="cls-9" transform="translate(369 2134)"><tspan x="0" y="0">4</tspan><tspan x="0" y="20">Design the Intervention</tspan></text>
                </g>
                <g id="Group_1208" data-name="Group 1208" transform="translate(-314 -1792)">
                    <text id="ผลักดันให้เกิดการเปลี่ยนแปลง" class="cls-8" transform="translate(369 2353)"><tspan x="0" y="0">ผลักดันให้เกิดการเปลี่ยนแปลง</tspan></text>
                    <text id="_5_Foster_the_Transition_to_Change" data-name="5 Foster the Transition to Change" class="cls-9" transform="translate(369 2287)"><tspan x="0" y="0">5</tspan><tspan x="0" y="20">Foster the </tspan><tspan x="0" y="40">Transition to Change</tspan></text>
                </g>
                <g id="Group_1209" data-name="Group 1209" transform="translate(-40.634 57.327)">
                    <g id="Path_396" data-name="Path 396" style="opacity:.1;fill:none">
                        <path class="cls-14" d="M137.751 0A137.217 137.217 0 0 1 275.5 137.311c0 75.835-61.673 137.311-137.751 137.311S0 213.146 0 137.311 61.673 0 137.751 0z" transform="rotate(-90 175.906 216.425)"/>
                        <path d="M137.751 2c-9.212 0-18.418.925-27.362 2.75a135.376 135.376 0 0 0-25.48 7.883A135.897 135.897 0 0 0 61.85 25.11a136.643 136.643 0 0 0-20.092 16.525 136.39 136.39 0 0 0-16.577 20.027 135.182 135.182 0 0 0-12.515 22.984 134.294 134.294 0 0 0-7.908 25.395A135.896 135.896 0 0 0 2 137.311c0 9.182.928 18.357 2.758 27.27a134.296 134.296 0 0 0 7.908 25.397 135.182 135.182 0 0 0 12.515 22.983 136.39 136.39 0 0 0 16.577 20.027 136.64 136.64 0 0 0 20.092 16.525 135.9 135.9 0 0 0 23.06 12.476 135.374 135.374 0 0 0 25.48 7.884 137.192 137.192 0 0 0 27.361 2.75c9.212 0 18.418-.926 27.362-2.75a135.374 135.374 0 0 0 25.48-7.884 135.9 135.9 0 0 0 23.059-12.476 136.64 136.64 0 0 0 20.092-16.525 136.389 136.389 0 0 0 16.577-20.027 135.182 135.182 0 0 0 12.515-22.983 134.296 134.296 0 0 0 7.909-25.396 135.896 135.896 0 0 0 2.757-27.27c0-10.855-1.274-21.58-3.788-31.878a134.768 134.768 0 0 0-17.757-41.243 136.007 136.007 0 0 0-29.712-32.77A135.235 135.235 0 0 0 183.279 9.8C168.7 4.623 153.38 2 137.751 2m0-2c64.819 0 119.18 44.626 133.906 104.96 2.494 10.218 3.845 21.128 3.845 32.351 0 75.835-61.673 137.311-137.75 137.311C61.672 274.622 0 213.146 0 137.312 0 61.475 61.673 0 137.751 0z" style="fill:#fff;stroke:none" transform="rotate(-90 175.906 216.425)"/>
                    </g>
                    <g id="Mask_Group_72" data-name="Mask Group 72" transform="rotate(-90 244.565 148.076)" style="clip-path:url(#clip-path-2)">
                        <g id="Path_395" data-name="Path 395" style="stroke-dasharray:4 4;fill:none">
                            <path class="cls-14" d="M137.659 0A137.659 137.659 0 1 1 0 137.659 137.721 137.721 0 0 1 137.659 0z" transform="translate(.239 -137.349)"/>
                            <path d="M137.66 0H137.773a3.094 3.094 0 0 0 .13 0h.262l.126.001h.059l.12.001h.066l.124.002h.002c1.002.007 2 .025 2.997.053l-.057 2A138.907 138.907 0 0 0 137.659 2V0zm7.997.228.312.019h.002c.019 0 .037.002.056.003a.815.815 0 0 1 .067.004h.004l.05.003.055.004.054.003.055.004h.016l.048.004c.878.054 1.746.117 2.62.188H149l.043.004h.004l.074.006.017.002.03.002.051.005.114.009h.007l.306.027-.171 1.992a137.366 137.366 0 0 0-3.933-.282l.115-1.997zm7.969.688.582.068.008.002a138.8 138.8 0 0 1 .139.016l.031.004.025.003.039.005.038.004.023.003.034.004.021.003.05.006.008.001a33.29 33.29 0 0 1 .066.008l.048.006.01.001.117.015h.007c.454.057.907.116 1.359.177h.002l.12.017h.007l.051.008.01.001.113.015.019.003.034.005.024.003.039.005.04.006c.007 0 .013.002.02.003l.035.004.015.003.831.117-.287 1.98a136.443 136.443 0 0 0-3.908-.51l.23-1.986zm7.916 1.148.15.027h.006a185.58 185.58 0 0 1 .173.031l.009.002a83.907 83.907 0 0 1 .172.03h.002l.084.016h.004l.04.008.011.002.118.021.014.003.036.006.014.003.068.012.012.002.033.006.02.004.032.006.027.005.043.008a8.689 8.689 0 0 1 .056.01l.029.005.024.005.049.009c.007 0 .016.003.023.004l.031.006.024.004.04.007.014.003.052.01.017.003.04.007.017.003.054.01.007.002.05.01.012.001.054.01h.002l.06.012h.003l.058.012h.002c.717.135 1.431.276 2.144.422l-.402 1.96c-1.281-.264-2.584-.511-3.873-.737l.345-1.97zm7.836 1.608.3.071.008.002.055.013.004.001.05.012.023.006.028.006a9.054 9.054 0 0 1 .04.01l.067.016.013.003.038.01h.005c.71.172 1.42.349 2.126.53l.011.004c.014.003.023.005.037.01l.009.001a47.965 47.965 0 0 1 .113.03l.03.007.02.006.052.013.013.004.046.011a4.651 4.651 0 0 0 .126.033h.001l.663.176-.516 1.932c-1.263-.337-2.549-.66-3.822-.96l.46-1.947zm7.728 2.063.017.005.03.01.024.006.031.01.03.009.039.011.022.007.031.01.022.006.048.015.019.005.036.01.02.007.04.012.015.005.047.014c.004 0 .016.005.02.006l.037.011.016.005.051.016.013.003.043.013.014.005.052.015.002.001.055.017.01.003.052.016h.003l.059.019h.001l.055.017.007.002.116.036h.001c.917.282 1.83.573 2.737.874l-.628 1.898c-1.241-.41-2.506-.808-3.76-1.183l.573-1.916zm7.594 2.512c.274.1.548.2.822.302l.114.042.007.003.112.042.005.002.05.019.008.002.11.041.008.003.11.042.008.003.046.017a2.086 2.086 0 0 1 .065.024l.007.003.046.017.013.005.105.04.014.005.042.016.012.005.051.019.013.005.04.015.016.006.046.018.014.005.042.016.018.007.037.014.015.006.05.018.017.007.034.013.02.008.048.018.015.006.035.013.023.009.03.012.023.009.043.016a7.153 7.153 0 0 1 .05.02l.026.01.028.01.042.016.023.009.029.011.017.007.061.024c.004 0 .007.002.01.004l.034.012.014.006c.358.139.714.278 1.07.42l-.738 1.858a135.139 135.139 0 0 0-3.683-1.4l.683-1.88zm7.434 2.952c.355.153.708.308 1.061.463l.006.003.038.016.002.001.076.034.004.002.036.016.008.003.112.05.008.003.112.05.007.004.036.016c.003 0 .005.002.008.003l.113.05.005.003.113.05.008.004c.637.285 1.265.572 1.896.867l-.845 1.813a135.49 135.49 0 0 0-3.596-1.614l.792-1.837zm7.25 3.382c1.194.6 2.372 1.214 3.546 1.847l-.95 1.76a135.926 135.926 0 0 0-3.495-1.82l.898-1.787zm7.039 3.798.086.05h.001c.67.388 1.332.779 1.994 1.177l.005.003.032.02.011.006.066.04.003.001.027.016.02.013.024.014.041.025.017.01.031.02.017.01.045.026.001.001.049.03.01.006.101.061c.285.173.57.347.853.522l-1.05 1.702a136.147 136.147 0 0 0-3.385-2.021l1-1.732zm6.807 4.201c.399.263.796.527 1.193.794l.008.005.046.032h.002l.045.031.015.01.031.022.017.01.04.028a10.104 10.104 0 0 0 .044.03l.023.015.02.014.045.03.014.01.03.02.004.003c.581.394 1.157.79 1.732 1.193l-1.148 1.638a136.5 136.5 0 0 0-3.26-2.214l1.099-1.67zm6.551 4.59c1.07.795 2.129 1.608 3.174 2.434l-1.24 1.569a136.907 136.907 0 0 0-3.128-2.4l1.194-1.604zm6.276 4.96c.278.233.56.471.836.706l.01.009.027.023.012.01.046.04.013.01a2663754519.854 2663754519.854 0 0 0 .043.036l.02.019.036.03.018.016.025.02.017.016.034.029.019.016.027.023.016.014.033.028.008.007a43.958 43.958 0 0 1 .086.074l.01.009.042.036.009.007.034.03.011.01.042.035.006.006.037.032a7.12 7.12 0 0 0 .096.083l.01.008.04.034.002.003.043.037.01.008.037.032.006.006.043.037.008.007.036.031.01.009.042.037.003.003.039.033.012.01.034.03.009.008.04.034.014.013.028.024.014.013.038.033.016.014.025.022.018.016.032.028.024.02.02.017.022.02.016.014.044.04.012.01.026.022a7.3 7.3 0 0 0 .1.088l.005.004c.18.158.357.316.536.475l-1.329 1.494c-.978-.869-1.981-1.736-2.984-2.576l1.286-1.533zm5.978 5.314.004.005.04.036.002.003.04.038.012.01.03.03.012.01.037.036.016.014.023.023a9.269 9.269 0 0 0 .044.04l.027.026.02.02.021.02a15.13 15.13 0 0 1 .059.055l.011.011.024.023.015.014.08.076.01.01.027.025.003.004.055.051.008.008.028.027.003.003.09.086.005.005.088.084.007.007.085.081.01.009.026.026.004.003.052.05.01.01.025.024.013.013a126.361 126.361 0 0 1 .055.052l.024.024.014.013.041.04.014.013.022.021.016.016.023.022.022.02a51.502 51.502 0 0 0 .048.048l.02.02.021.02.028.027a15.847 15.847 0 0 1 .042.04l.024.023.014.014.036.035.014.013.028.028.012.012.038.037.01.009.032.032.01.009a101.394 101.394 0 0 1 .174.17l.002.002c.342.334.682.67 1.021 1.009l-1.413 1.415a137.16 137.16 0 0 0-2.83-2.744l1.372-1.456zm5.661 5.651c.458.484.912.972 1.363 1.463.015.016.029.03.042.046l.084.09.002.004.083.09.002.002.082.09.003.003.04.044.042.046.04.044.004.004.08.088.005.006.08.087.004.005.038.043.002.001.04.044.005.006.035.039.005.006.04.044.04.044.004.004.08.088c.002.003.002.004.005.006l.079.088.004.005.036.04.005.005.04.044.001.002.037.041.006.007.078.087.006.007.079.088.004.004.038.043.002.002.04.045-1.491 1.332c-.871-.975-1.769-1.952-2.667-2.903l1.453-1.374zm5.326 5.968.2.24.04.046.001.002.076.091.006.008.074.088.008.009.072.087.01.011.029.035.007.01.035.04.01.013.025.03.012.015.03.036.017.02.02.025.016.019.022.026.02.025.023.027.017.02.017.022.026.03.02.026.019.022.015.019.02.023.013.017.034.04.014.018.02.025.011.012.04.048.01.012.02.027.012.013.042.051.007.008c.006.009.015.019.022.027a9.51 9.51 0 0 0 .082.1l.009.011.024.03.002.002.049.06.006.007.024.03.006.007.046.056.006.008.023.028.008.01a136.74 136.74 0 0 1 .159.195 26.807 26.807 0 0 1 .028.035l.002.003.053.065a48.432 48.432 0 0 1 .19.235l.003.004.079.098.003.003.025.032.004.004.076.095.007.01c.023.028.052.063.074.092l.006.007.025.03.002.004a91.944 91.944 0 0 1 .054.067l.024.03.008.01.041.052.008.01.022.027.01.013a138.939 138.939 0 0 1 .106.133l.044.054.01.015.022.026.01.012.019.025-1.567 1.243a136.902 136.902 0 0 0-2.495-3.053l1.53-1.288zm4.972 6.267.132.178.005.006.022.03.01.013.031.042.017.022.015.02.021.029.01.014.032.042.01.013a49.523 49.523 0 0 1 .033.046l.034.046c.002.003-.001-.002.001 0l.035.047.003.005.072.098.002.002a150.737 150.737 0 0 1 .516.703l.001.002.072.099.002.003.034.047.002.003.035.048.004.005.03.041.007.01.033.046.002.003.031.042.008.012.032.044h.001c.01.016.022.03.033.046l.01.013.024.035.008.011.032.044.01.013.022.031.012.017.03.04.01.015.022.032.012.016.023.032.015.02a59.737 59.737 0 0 0 .07.098l.027.038c.006.01.008.012.015.02.005.009.011.016.017.024l.014.021.026.035.017.025.016.022.017.024.016.022.023.032.019.027.014.02.02.028.012.016.029.041.012.017.021.03.01.015.031.043.009.012.025.035.008.012.033.046.001.002.033.046.005.007.25.354-1.637 1.15c-.752-1.07-1.53-2.143-2.313-3.191l1.602-1.197zm4.6 6.543c.276.416.549.835.82 1.254l.001.003.066.102.003.005.03.047.003.003.032.05.003.005.028.044.006.009.061.095.008.013.025.04.006.008.03.046.007.012.024.038.007.01.03.048.005.007.026.042.007.01.061.097.006.009.03.047.001.001.032.05.005.008.029.046.001.002.033.052.033.052.001.002c.234.37.467.74.697 1.112l-1.7 1.054a136.407 136.407 0 0 0-2.125-3.32l1.669-1.103zm4.214 6.799.028.047.008.014.021.037.008.013.025.043.013.023.012.02.055.097.007.011a136.492 136.492 0 0 1 1.433 2.546l.008.016.016.028.012.022.023.042.012.023.014.025.013.023a24.69 24.69 0 0 0 .035.065l.012.021.016.03.01.019.025.044.008.015.019.035.008.016c.01.016.018.032.026.048l.002.003.026.047.006.012.025.045.002.004.028.051.001.003-1.758.953a136.127 136.127 0 0 0-1.928-3.437l1.73-1.004zm3.812 7.032c.6 1.187 1.185 2.391 1.75 3.597l-1.81.85a135.756 135.756 0 0 0-1.725-3.545l1.785-.902zm3.395 7.243.138.318c0 .001 0 .003.002.004l.016.039.001.002a38.607 38.607 0 0 1 .035.08l.014.034.007.016.021.05.01.022.01.026.012.026.01.022.016.04.01.022.015.035a6.524 6.524 0 0 0 .024.057l.005.012.022.05a2.735 2.735 0 0 0 .022.054l.006.014.022.052.002.003.02.05.005.01.046.107.003.007.022.053.024.058.024.056.001.003.047.112.002.004.071.17v.001l.048.112.002.005.046.11.002.007.022.052.001.003.046.11.003.007.045.11a.936.936 0 0 1 .004.008l.02.05.002.004.022.054.004.008.018.045.005.012.022.052.002.005.019.047.006.014.018.044.003.009.021.05.006.015.016.04.006.013.02.05.006.014.015.038.008.018.015.037.01.023.015.038.009.022.012.029.01.023.017.044.01.024.01.026c.004.01.007.015.01.026l.011.026.018.042.009.024.012.029.007.018.027.066.002.004.013.033.006.016.044.11.004.008.014.036.003.007.047.117.001.003.059.146-1.858.742a135.584 135.584 0 0 0-1.515-3.639l1.835-.795zm2.967 7.429c.457 1.25.897 2.51 1.319 3.776l-1.898.632c-.413-1.241-.85-2.493-1.3-3.721l1.879-.687zm2.526 7.589a135.687 135.687 0 0 1 .518 1.765l.004.014.01.034.005.018.015.05a8 8 0 0 0 .014.053l.008.028.007.023.014.05.004.011.012.044.004.015.014.05.001.003.017.058.001.005.015.055.001.003c.147.521.291 1.044.432 1.567l-1.931.52c-.34-1.263-.703-2.538-1.08-3.79l1.915-.576zm2.079 7.725a136.358 136.358 0 0 1 .397 1.717l.013.059.002.011.012.052.004.016.01.048.004.017.01.047.005.018.01.045.004.02.01.043.004.022.01.042.004.022.01.042.005.022.01.045c0 .006.002.012.004.018l.01.05.004.014.028.128.003.016.01.048.005.022.01.04c0 .01.003.018.005.027l.008.038.006.025.008.038.005.027.009.038.005.025.008.039.006.024a17.4 17.4 0 0 1 .013.064l.01.041c0 .008.002.015.004.023l.01.043c0 .007.002.014.004.02l.01.046.003.018.012.055a129.786 129.786 0 0 1 .07.336l.015.065v.001l.013.065v.001l.046.221-1.958.406a135.2 135.2 0 0 0-.856-3.848l1.946-.462zm1.623 7.832a138.07 138.07 0 0 1 .139.801l.008.049.003.017.007.043.004.023.006.037.005.03.006.033a11.944 11.944 0 0 0 .01.062l.007.037.004.027.008.044.003.019.01.057v.007c.02.11.037.221.056.332v.001l.01.065.001.003.01.065c.12.73.234 1.463.342 2.197l-1.98.29c-.19-1.294-.401-2.603-.629-3.89l1.97-.349zm1.162 7.914c.155 1.32.292 2.647.41 3.979l-1.993.175c-.115-1.303-.25-2.623-.403-3.92l1.986-.234zm.703 7.968a139.27 139.27 0 0 1 .14 2.898l.003.06v.011l.003.057v.012l.002.055a1.828 1.828 0 0 0 .003.068v.014l.002.057v.01l.003.066v.025l.002.04.002.037v.028l.002.04v.024l.002.045a3.476 3.476 0 0 1 .003.08l.002.054a148.878 148.878 0 0 1 .01.315l-2 .06c-.04-1.308-.099-2.633-.176-3.938l1.997-.118zm.243 7.995V138.202l-.001.027V138.432l-.001.02v.113l-.001.039V138.663l-.003.272V139.052l-.001.044V139.165l-.001.042v.056l-.001.016v.04a2.864 2.864 0 0 1-.001.057v.016l-.001.04V139.503l-.001.043v.013l-.001.043a1.41 1.41 0 0 0-.001.057v.058l-.005.267v.05l-.001.018v.032l-.001.026v.029l-.001.028v.027l-.001.03v.026l-.001.032v.023l-.001.036v.02l-.002.039V140.458l-.001.016v.045l-.001.01-.001.05v.007c-.006.272-.012.543-.02.814l-1.999-.053c.033-1.222.05-2.463.05-3.688l-.001-.256 2-.004zm-2.21 7.888 1.996.11a138.637 138.637 0 0 1-.278 3.991l-1.993-.168c.11-1.303.202-2.626.274-3.933zm-.664 7.856 1.988.225a140.015 140.015 0 0 1-.107.91l-.006.048v.008l-.006.049v.003l-.027.212v.002l-.005.044-.002.014-.005.04-.002.017-.005.04-.002.017-.005.04-.002.012a140.467 140.467 0 0 1-.026.209l-.005.042-.002.014-.005.042-.002.015-.005.04-.002.017-.005.041-.001.007-.027.208v.003l-.007.05v.005l-.007.05v.002c-.077.592-.157 1.177-.241 1.766l-1.98-.283c.185-1.294.354-2.61.501-3.91zm-1.116 7.801 1.97.341c-.158.915-.326 1.832-.502 2.741l-.003.012-.007.039-.004.02-.007.033-.005.027-.005.029-.007.034-.004.021-.023.119v.002l-.013.06-.159.795-1.96-.398c.26-1.282.506-2.585.729-3.875zm-1.57 7.726 1.947.455c-.112.481-.225.954-.343 1.433l-.002.01-.01.04-.004.016-.01.038c0 .006-.002.011-.003.017l-.01.038-.004.016a75.15 75.15 0 0 1-.022.09l-.008.031a7.805 7.805 0 0 1-.006.026l-.007.029-.007.028-.007.027-.008.031-.006.025-.008.034-.006.023-.028.114-.002.007-.013.051-.003.011-.012.048-.003.011-.012.05-.002.008c-.137.545-.278 1.088-.421 1.63l-1.933-.513c.334-1.264.655-2.55.953-3.824zm-2.018 7.618 1.917.569-.25.836-.004.012-.013.043-.006.019-.01.035a7.216 7.216 0 0 1-.008.024l-.009.03-.009.027-.006.023-.04.126-.001.008-.014.044-.003.009-.013.044-.002.007c-.26.847-.529 1.69-.805 2.53l-1.9-.624a135.17 135.17 0 0 0 1.176-3.762zm-2.461 7.488 1.88.68c-.155.431-.313.862-.473 1.291l-.001.003-.02.054-.003.005-.019.052-.002.006-.064.17-.004.01-.017.046-.005.014-.016.043a2.18 2.18 0 0 1-.005.013l-.018.046-.003.01-.021.056-.001.002-.02.052-.006.016-.015.04-.006.017-.015.038-.006.017-.016.043a9.944 9.944 0 0 1-.047.123l-.004.01-.017.045a3.581 3.581 0 0 0-.006.016l-.016.04-.005.015-.017.044-.004.01-.066.172v.002l-.022.055-.001.004c-.15.388-.3.775-.453 1.162l-1.86-.735c.48-1.216.95-2.457 1.394-3.687zm-2.895 7.331 1.838.789-.002.004a136.927 136.927 0 0 1-1.629 3.648l-1.814-.842c.55-1.186 1.091-2.397 1.607-3.599zm-3.319 7.15 1.79.894c-.407.813-.822 1.623-1.244 2.426l-.023.044-.003.005a125.358 125.358 0 0 1-.121.23l-.02.039c-.003.003-.004.007-.006.01l-.02.04-.003.004-.071.134-.023.043a20.943 20.943 0 0 1-.025.047l-.003.006-.28.524-1.762-.947a135.92 135.92 0 0 0 1.814-3.5zm-3.73 6.944 1.734.997c-.462.803-.933 1.603-1.41 2.396l-.003.005-.025.04a135.704 135.704 0 0 1-.105.174l-.004.008-.021.035-.009.014-.02.034-.008.012a43.02 43.02 0 0 0-.068.112l-.008.014-.019.03-.01.018-.019.03-.01.018-.02.031-.009.015a39.03 39.03 0 0 1-.02.033l-.002.004-.047.077-.006.01a24.105 24.105 0 0 1-.03.048l-.019.031-.01.016-.02.034a127.877 127.877 0 0 1-.11.178v.001l-.012.02-1.704-1.047a136.23 136.23 0 0 0 2.015-3.388zm-4.127 6.716 1.673 1.096c-.317.484-.631.957-.954 1.437l-.004.006-.025.036-.006.01-.024.035-.007.01a103.675 103.675 0 0 1-.083.123l-.019.028-.014.02-.017.026-.016.023-.015.023-.02.029-.012.018-.032.047-.007.01-.026.039a6.45 6.45 0 0 1-.009.013l-.025.036-.009.014-.025.037-.008.011-.032.047c-.002.004.002-.002 0 .001l-.07.102-.002.004-.033.048-.002.002c-.246.36-.495.72-.745 1.079l-1.64-1.145a136.503 136.503 0 0 0 2.208-3.265zm-4.51 6.465 1.607 1.192-.36.482-.007.01-.02.028-.016.02-.018.023-.017.024-.016.021-.022.03-.013.016-.033.045-.009.01-.027.037-.01.013-.026.036-.01.012-.029.039-.005.007-.11.146-.004.005-.034.044-.003.004-.149.197-.001.002-.036.046-.002.004-.148.194-.006.007-.03.041-.007.008-.033.044-.003.003-.073.095-.009.012-.026.035a8.727 8.727 0 0 1-.01.014c-.01.01-.017.021-.026.032l-.012.016-.025.032-.01.014a45.242 45.242 0 0 0-.052.067l-.016.021-.02.027-.013.016-.023.03-.01.012-.025.033a138.252 138.252 0 0 1-.875 1.124l-1.571-1.238a136.78 136.78 0 0 0 2.393-3.132zm-4.877 6.194 1.535 1.282c-.276.33-.55.656-.83.984 0 .002-.003.004-.004.006l-.028.032-.009.01-.027.032-.007.01-.028.032a236.345 236.345 0 0 1-.069.08l-.022.026-.015.018-.02.023-.02.022-.017.022-.02.023-.017.02-.036.041-.013.016-.025.028-.015.018-.022.026-.016.019-.023.026-.015.018-.03.034-.007.008-.037.044-.012.013-.027.031-.013.016-.025.029-.013.015-.029.033-.009.01-.077.09-.008.009-.03.035-.012.013-.027.032-.011.013-.03.033-.01.012-.075.086-.014.017-.024.028a17.352 17.352 0 0 1-.038.043l-.015.018-.025.028-.014.016-.035.04-.019.022-.019.021-.02.023-.017.02-.021.024-.015.018-.022.025-.014.015-.053.061-.004.005-.026.029-.01.012-.027.03-.009.01-.029.033-.004.005-.354.402-1.498-1.326c.868-.98 1.733-1.985 2.571-2.989zm-5.227 5.902 1.459 1.368a140.922 140.922 0 0 1-.678.717l-.025.027-.015.016-.022.022-.02.021-.02.02c-.007.01-.016.018-.024.026l-.014.016-.038.04-.014.014-.028.029-.013.013-.027.03-.014.013-.032.033-.007.008-.084.088-.004.004-.037.039-.007.006-.037.04-.004.003-.171.178-.002.001c-.477.495-.958.986-1.442 1.473l-1.419-1.41c.923-.928 1.844-1.882 2.74-2.835zm-5.558 5.59 1.377 1.45-.337.319-.005.004-.033.031-.009.009-.089.084-.02.02-.02.017-.023.023a42.087 42.087 0 0 1-.045.042l-.015.013-.035.033-.007.007-.044.04-.004.004-.038.036-.01.01-.035.032-.009.009-.037.034-.006.006-.09.083-.001.002-.042.04-.006.004-.039.037-.006.005-.042.04-.002.001-.089.083-.007.006-.035.033-.012.01-.032.031a7.108 7.108 0 0 1-.012.01l-.034.033-.009.008-.042.039-.012.01-.03.028-.019.018-.023.02-.02.02-.02.018-.024.022-.014.013-.095.087-.01.01-.03.028-.01.008-.032.03a137.528 137.528 0 0 1-1.28 1.162l-1.335-1.49c.974-.873 1.949-1.772 2.898-2.672zm-5.872 5.26 1.29 1.527-.079.067-.003.003-.035.03-.006.005a137.574 137.574 0 0 1-1.587 1.317l-.04.032v.001a197.848 197.848 0 0 1-.162.132l-.03.024-.015.013-.026.021-.021.017-.022.018-.033.026a6.424 6.424 0 0 0-.055.046l-.013.01a55.64 55.64 0 0 1-.045.037l-.038.03-.008.006c-.29.236-.582.47-.874.703l-1.246-1.565a136.995 136.995 0 0 0 3.048-2.5zm-6.167 4.911 1.2 1.6a137.938 137.938 0 0 1-1.089.81l-.036.026-.009.007a27.3 27.3 0 0 1-.034.024l-.011.009a27.019 27.019 0 0 1-.107.078l-.012.009-.025.018-.023.017-.021.016-.026.018-.02.015-.03.022-.017.012-.094.069-.01.007-.037.027-.014.01-.036.027-.01.007-.044.032-.004.003-.099.071-.006.005-.043.03-.007.006-.042.03-.007.006-.147.106-.008.005-.04.03-.01.007-.042.03-.006.004-.099.071-.006.004-.04.03-.015.01-.032.023a7.903 7.903 0 0 0-.018.013l-.027.02-.021.015-.026.018-.041.03-.023.016-.028.02-.016.011-.032.023a8.04 8.04 0 0 0-.012.009l-.035.025-.003.002-.593.421-1.154-1.634c1.069-.754 2.14-1.534 3.187-2.32zm-6.44 4.547 1.106 1.666a135.31 135.31 0 0 1-1.516.991l-.002.002-.047.03-.008.006-.045.029-.005.003-.103.066-.003.002a76.536 76.536 0 0 0-.108.07l-.039.024-.012.008c-.033.02-.065.042-.098.063l-.016.01-.032.02-.021.014-.027.017-.024.015-.024.015-.024.016-.023.015-.054.034-.014.01-.033.02-.014.009a30.89 30.89 0 0 1-.081.051l-.007.004c-.328.209-.655.414-.985.62l-1.057-1.699c1.11-.69 2.226-1.408 3.317-2.131zm-6.692 4.165 1.007 1.728c-1.151.671-2.313 1.326-3.485 1.964l-.956-1.757a136.108 136.108 0 0 0 3.434-1.935zm-6.923 3.77.905 1.783c-.371.188-.743.375-1.116.56l-.003.001-.05.025-.008.004-.045.022-.01.005-.049.024-.005.002-.051.026-.02.01-.032.015-.025.013-.024.012-.03.014-.019.01a16.224 16.224 0 0 1-.22.108l-.003.001-.046.023a136.544 136.544 0 0 1-1.696.815l-.044.021-.002.001-.096.045-.852-1.81c1.183-.556 2.374-1.139 3.541-1.73zm-7.131 3.358.8 1.834c-.382.166-.764.33-1.147.493l-.002.001a137 137 0 0 1-.285.12l-.004.003-.052.021-.006.003-.055.023-.169.071-.01.004-.045.02c-.004 0-.008.003-.012.004l-.043.018-.013.006-.053.022-.058.024-.002.001-.051.021-.013.006-.042.017-.015.007-.042.017-.012.005-.05.02-.005.003-.056.023-.006.002-.047.02-.017.007-.037.016-.02.007-.034.015a4.451 4.451 0 0 0-.02.008l-.039.016-.015.006a191.316 191.316 0 0 1-.063.026l-.044.018-.02.009-.033.013-.024.01-.03.012a7.063 7.063 0 0 1-.024.01l-.027.011-.028.012-.025.01-.052.021-.024.01-.03.012-.023.01-.032.013-.019.008-.035.014-.014.006-.04.016-.626.253-.745-1.856c1.213-.487 2.436-.999 3.635-1.522zm-7.314 2.937.69 1.877c-.444.163-.885.323-1.331.482l-.005.002-.04.014-.014.005a18.192 18.192 0 0 1-.054.019l-.035.013-.02.007-.034.012-.035.012-.035.013-.034.012-.025.008-.031.011-.023.008-.034.012-.02.008-.04.013-.015.006-.05.018-.005.001-.057.02a1.695 1.695 0 0 1-.01.004l-.046.016-.014.005-.043.015-.013.004-.045.016a176.41 176.41 0 0 1-.184.064l-.004.002-.052.018-.008.002-.053.019h-.003c-.453.158-.906.312-1.361.465l-.635-1.897c1.24-.415 2.49-.855 3.718-1.306zm-7.474 2.504.58 1.914c-.418.126-.836.25-1.256.373l-.004.001-.053.016-.008.002-.052.015-.006.002-.174.05-.014.005-.043.012-.017.005-.039.011-.02.006-.036.01-.02.006-.042.012-.015.005-.054.015-.026.008-.028.008-.031.009-.023.006-.033.01-.021.006-.034.01-.019.005-.184.052-.009.003-.044.012-.007.002-.047.014h-.002c-.494.14-.988.277-1.484.411l-.523-1.93c1.262-.342 2.536-.708 3.788-1.086zm-7.607 2.061.467 1.945c-.728.175-1.458.343-2.19.506h-.001a38.01 38.01 0 0 1-.057.013l-.008.002a29.943 29.943 0 0 0-.061.014l-.05.01-.009.002-.056.013h-.003l-.06.014-.008.002-.048.01-.02.004-.037.009a5.644 5.644 0 0 1-.023.005l-.032.007a7.548 7.548 0 0 1-.027.006l-.03.006a7.504 7.504 0 0 1-.027.006l-.031.007-.066.014-.013.003-.037.008-.018.004-.038.008-.017.004-.038.008-.017.004a15.584 15.584 0 0 1-.302.065h-.005l-.05.011h-.002c-.174.038-.347.074-.522.11l-.41-1.957c1.281-.267 2.575-.558 3.846-.863zm-7.715 1.614.352 1.968-.008.002-.044.008-.015.002-.047.009-.011.002-.119.02-.01.003-.048.008-.015.003-.044.007-.017.003-.043.008-.015.003-.047.008-.011.002-.12.02-.001.001-.059.01-.008.002-.05.008-.012.002-.05.009c-.004 0-.005 0-.009.002l-.055.009h-.004l-.243.043h-.004l-.057.01h-.004l-.06.01c-.841.143-1.685.278-2.531.405l-.006.001-.052.008-.014.002-.043.007-.02.002-.037.006-.015.002-.295-1.978c1.295-.193 2.604-.407 3.89-.637zm-7.797 1.16.237 1.987c-.405.048-.808.094-1.214.14h-.002l-.05.005h-.009l-.044.006-.015.001a18.733 18.733 0 0 0-.058.007l-.04.004-.02.002-.054.006-.04.004-.017.002-.043.005-.016.002-.045.004-.015.002-.047.005-.011.001-.057.006h-.001c-.642.068-1.284.132-1.928.191h-.006l-.052.005-.013.002a23.335 23.335 0 0 0-.124.01l-.034.004-.022.002-.18-1.992c1.304-.117 2.622-.255 3.92-.41zm-7.85.708.121 1.996c-1.327.081-2.659.143-3.996.186l-.064-1.999a137.85 137.85 0 0 0 3.938-.183zm-11.826.213a138.902 138.902 0 0 0 3.944.041l.007 2H137.971l-.044.001H137.092l-.054-.001h-.109l-.054-.001h-.111l-.054-.001h-.108c-.811-.007-1.616-.02-2.424-.04l.05-2zm-7.875-.422c1.303.107 2.627.197 3.934.267l-.107 1.997a138.835 138.835 0 0 1-3.991-.27l.164-1.994zm-7.834-.875c1.295.183 2.61.349 3.91.494l-.221 1.988-.37-.042-.01-.001-.048-.006-.018-.002-.038-.004-.023-.003-.035-.004-.025-.003-.03-.003a89.835 89.835 0 0 1-.195-.023l-.043-.005-.013-.002a22.565 22.565 0 0 1-.045-.005h-.008l-.314-.038-.007-.001-.049-.006h-.005l-.05-.007h-.004a123.089 123.089 0 0 1-.27-.033l-.043-.006c-.005 0-.01 0-.014-.002l-.041-.005c-.006 0-.01 0-.016-.002l-.041-.005-.015-.001-.042-.006h-.01a102.26 102.26 0 0 1-.095-.013h-.003l-.035-.005-.024-.003-.03-.004-.03-.003-.026-.004-.034-.004a6.043 6.043 0 0 1-.024-.003l-.038-.005-.02-.002-.045-.006-.013-.002-.12-.015-.008-.001-.05-.007-.014-.002a22.69 22.69 0 0 1-.046-.006c-.005 0-.01 0-.014-.002l-.049-.006-.01-.001a31.839 31.839 0 0 0-.055-.007h-.004a177.28 177.28 0 0 1-.184-.025h-.004l-.055-.008-.01-.001-.051-.007-.008-.001-.054-.007-.007-.001-.183-.025h-.003l-.054-.008-.015-.002-.044-.006-.018-.002a18.72 18.72 0 0 1-.04-.006l-.02-.002-.04-.006-.02-.002-.035-.005-.024-.004c-.01 0-.02-.002-.03-.004l-.062-.008-.018-.003-.042-.005-.013-.002-.045-.007h-.009a28.074 28.074 0 0 1-.271-.039l.28-1.98zm-7.768-1.329c1.281.258 2.585.5 3.875.721l-.337 1.971a138.1 138.1 0 0 1-1.885-.335l-.015-.003-.034-.007-.024-.004-.031-.006-.029-.005a7.953 7.953 0 0 0-.026-.005l-.036-.007-.02-.003-.05-.01-.007-.001-.182-.034h-.003c-.531-.101-1.062-.205-1.591-.311l.395-1.96zm-7.68-1.78c1.265.332 2.552.65 3.827.946l-.452 1.948-.61-.142c-.004-.001.004 0 0 0l-.056-.014a2.382 2.382 0 0 1-.014-.003l-.042-.01-.02-.005-.036-.008-.023-.006-.033-.008-.026-.006-.027-.006-.121-.03a2.166 2.166 0 0 1-.014-.003l-.04-.01c-.005 0-.01-.001-.013-.003l-.043-.01-.01-.002c-.925-.223-1.838-.453-2.755-.694l.508-1.934zm-7.56-2.226c1.243.406 2.51.799 3.764 1.168l-.565 1.919c-.631-.186-1.257-.375-1.884-.57h-.003l-.049-.016h-.001l-.189-.06c-.005 0-.01-.002-.016-.004l-.033-.01-.024-.008a11.173 11.173 0 0 0-.03-.01l-.026-.007a10.009 10.009 0 0 1-.082-.026l-.055-.017-.007-.003-.05-.015-.013-.005a19.924 19.924 0 0 0-.043-.013l-.016-.005-.043-.014-.012-.004-.05-.015-.007-.002-.236-.075a138.7 138.7 0 0 1-.95-.307l.62-1.901zm-7.418-2.665c1.218.478 2.459.944 3.69 1.387l-.677 1.882c-.942-.339-1.88-.687-2.812-1.046h-.002l-.053-.021-.008-.003a32.715 32.715 0 0 1-.05-.019l-.007-.003-.055-.021c-.004-.002.003.001 0 0l-.058-.023-.005-.001-.049-.02-.018-.006-.035-.014-.024-.01-.027-.01a9.418 9.418 0 0 0-.03-.011l-.02-.008-.18-.07h-.001l-.31-.122.731-1.861zm-7.249-3.095c1.188.549 2.4 1.087 3.602 1.6l-.785 1.84c-.46-.196-.917-.394-1.373-.595l-.013-.006-.041-.018-.016-.007-.039-.017-.015-.007-.042-.018-.013-.006a32.177 32.177 0 0 1-.105-.046l-.021-.01-.031-.014-.025-.01-.027-.013-.027-.011-.024-.011-.03-.013-.021-.01-.055-.024a7.294 7.294 0 0 1-.023-.01l-.031-.014a4.585 4.585 0 0 0-.02-.01l-.033-.014a5.533 5.533 0 0 1-.017-.008l-.035-.015-.015-.007-.037-.016-.137-.061-.009-.005-.041-.018-.008-.003-.042-.02-.005-.002-.233-.105-.004-.001-.045-.021h-.001c-.334-.151-.67-.305-1.001-.458l.838-1.816zm-7.056-3.512a135.76 135.76 0 0 0 3.502 1.808l-.89 1.79-.781-.391-.005-.003-.052-.026-.002-.001-.165-.084-.004-.002-.051-.026-.005-.002a31.934 31.934 0 0 1-.05-.026l-.004-.002-.22-.112-.004-.002c-.741-.38-1.479-.765-2.212-1.157l.943-1.764zm-6.84-3.917c1.115.682 2.256 1.358 3.39 2.008l-.993 1.736-.008-.005-.04-.023-.01-.006c-.414-.237-.828-.477-1.24-.719l-.001-.001-.05-.03-.006-.003-.047-.027-.006-.004-.105-.062-.004-.002-.046-.027-.013-.008a23.827 23.827 0 0 1-.037-.022l-.016-.01-.035-.02-.017-.01-.032-.02-.02-.01c-.014-.01-.03-.018-.044-.027a12.206 12.206 0 0 1-.05-.029l-.03-.018-.016-.01a14.217 14.217 0 0 1-.045-.027c-.51-.303-1.018-.61-1.524-.918l1.044-1.706zm-6.602-4.309c1.074.747 2.174 1.488 3.27 2.202l-1.094 1.675a137.901 137.901 0 0 1-3.317-2.234l1.14-1.643zm-6.341-4.683a136.9 136.9 0 0 0 3.136 2.387l-1.188 1.61a139.128 139.128 0 0 1-2.911-2.212l-.01-.007-.03-.023-.017-.014-.026-.02-.028-.022-.015-.011c-.015-.013-.03-.025-.047-.037-.003-.003.002.001-.001-.002a101.41 101.41 0 0 1-.048-.037l-.05-.039 1.235-1.573zm-6.06-5.043c.981.865 1.988 1.729 2.994 2.565l-1.28 1.537-.813-.681-.002-.002a53.54 53.54 0 0 1-.045-.038l-.002-.003-.093-.078-.008-.007-.037-.03-.013-.012-.03-.025-.017-.015-.027-.023-.018-.015-.028-.024c-.01-.009-.022-.02-.032-.027a32.681 32.681 0 0 0-.067-.057l-.025-.022-.018-.015-.025-.021a13.438 13.438 0 0 1-.123-.105l-.03-.027-.013-.01a25.488 25.488 0 0 1-.03-.027l-.01-.007-.033-.029a139.04 139.04 0 0 1-.118-.101l-.036-.031-.006-.005-.035-.03-.005-.004-.189-.163-.007-.006a31.49 31.49 0 0 1-.034-.03l-.005-.004-.113-.098-.033-.028-.01-.009-.03-.026a7.354 7.354 0 0 1-.012-.01l-.03-.027-.009-.007-.105-.091-.007-.007-.029-.025a5.252 5.252 0 0 1-.014-.012l-.026-.023-.018-.016-.024-.02-.02-.017-.023-.021-.04-.035-.018-.016a17.907 17.907 0 0 1-.088-.077l-.027-.023-.016-.014-.088-.078-.005-.003-.04-.036-.008-.007-.038-.034-.007-.005-.185-.163 1.323-1.5zm-5.758-5.384c.93.92 1.885 1.84 2.84 2.733l-1.366 1.461a138.547 138.547 0 0 1-1.81-1.723l-.002-.002-.042-.04-.002-.003-.133-.13-.002-.001-.042-.04-.004-.005a46.127 46.127 0 0 1-.04-.038l-.004-.005a131.21 131.21 0 0 1-.132-.129h-.001a102.76 102.76 0 0 1-.042-.041l-.005-.005-.04-.04-.003-.002-.132-.13h-.001l-.043-.044-.002-.001a139.05 139.05 0 0 1-.4-.394l1.408-1.421zm-5.438-5.708c.874.973 1.775 1.946 2.678 2.893l-1.448 1.38c-.297-.312-.593-.625-.886-.939l-.003-.003-.03-.032-.009-.009-.028-.03-.01-.011-.027-.03a1.751 1.751 0 0 0-.007-.007l-.05-.054-.016-.017-.02-.02-.02-.023-.018-.02-.023-.023-.016-.018-.025-.027a7.502 7.502 0 0 1-.015-.015l-.038-.042-.006-.006-.034-.036-.012-.013-.028-.031-.012-.013-.03-.031-.01-.012-.037-.04-.002-.002-.042-.046-.001-.001-.039-.042-.007-.008-.033-.036-.01-.01a39.148 39.148 0 0 1-.033-.036l-.006-.007-.122-.133-.008-.007c-.01-.013-.022-.025-.033-.037l-.008-.008-.036-.04-.004-.004-.082-.09-.004-.004a44.747 44.747 0 0 1-.036-.04l-.007-.007a40.046 40.046 0 0 1-.035-.038l-.006-.007-.039-.042-.001-.002-.082-.09-.006-.006a37.878 37.878 0 0 0-.043-.047l-.032-.036-.008-.008-.08-.089-.005-.004a85.38 85.38 0 0 0-.112-.124l-.015-.017-.028-.03-.01-.012-.038-.041-.015-.017-.023-.026-.018-.02-.02-.022-.02-.021-.018-.02-.02-.023a23.918 23.918 0 0 0-.018-.02l-.04-.044-.014-.016-.024-.027c-.005-.005-.01-.01-.013-.015-.006-.006-.006-.005-.011-.012l1.487-1.337zm-5.1-6.012c.817 1.021 1.66 2.045 2.507 3.043l-1.525 1.294c-.29-.342-.578-.685-.865-1.03l-.004-.004a75.377 75.377 0 0 1-.03-.036c0-.002-.002-.003-.003-.005l-.125-.15-.007-.008-.025-.03-.012-.015-.023-.028-.012-.014-.024-.03-.01-.013a59.848 59.848 0 0 1-.04-.047l-.019-.023-.018-.022-.018-.022-.019-.022a27.039 27.039 0 0 0-.017-.022l-.02-.023a24.064 24.064 0 0 0-.018-.023l-.017-.02-.035-.042-.012-.015-.025-.03-.014-.018-.023-.027-.014-.018-.024-.03-.012-.014-.03-.036-.007-.01c-.013-.014-.025-.03-.037-.045l-.006-.007a68.178 68.178 0 0 1-.042-.05l-.027-.034-.01-.013-.03-.036-.007-.009-.077-.094-.001-.001-.036-.045-.006-.007-.033-.04-.005-.007-.037-.045-.118-.146h-.001l-.039-.049-.51-.633 1.563-1.25zm-4.742-6.297a136.735 136.735 0 0 0 2.325 3.183l-1.597 1.203c-.212-.281-.423-.563-.633-.846l-.01-.013-.024-.034-.013-.017-.02-.029-.015-.018-.02-.028-.015-.02-.032-.043a13.139 13.139 0 0 1-.017-.023l-.015-.021-.02-.027a18.172 18.172 0 0 1-.014-.018l-.021-.03a9.9 9.9 0 0 1-.01-.013l-.024-.032-.004-.006-.083-.113-.007-.01-.024-.032a7.781 7.781 0 0 1-.034-.046l-.005-.008-.115-.156-.005-.007-.026-.035-.007-.01-.025-.034-.007-.01-.082-.112-.005-.007a60.1 60.1 0 0 1-.023-.033l-.01-.013a37.943 37.943 0 0 0-.033-.045l-.023-.031-.008-.012-.073-.1-.015-.02a26.384 26.384 0 0 1-.033-.046l-.018-.026-.016-.021-.017-.025-.019-.025-.014-.02-.032-.045-.013-.017-.022-.03-.013-.019a20.402 20.402 0 0 1-.098-.136l-.003-.004-.035-.048-.008-.011-.026-.037-.01-.014-.024-.034a30.472 30.472 0 0 0-.01-.014l-.028-.038-.007-.01-.069-.096a4.153 4.153 0 0 1-.007-.01l-.027-.037-.01-.015a49.428 49.428 0 0 1-.025-.035l-.009-.012-.029-.041-.005-.007-.068-.096-.01-.013-.024-.035-.012-.016-.022-.03-.012-.019-.022-.03-.012-.018-.032-.044-.002-.003 1.632-1.157zm-4.37-6.56a136.398 136.398 0 0 0 2.137 3.312l-1.665 1.108-.206-.31-.001-.003-.033-.049-.002-.003-.066-.1-.009-.013a43.818 43.818 0 0 1-.022-.034l-.013-.02-.019-.028-.014-.022-.016-.024-.016-.024a13.944 13.944 0 0 0-.013-.02l-.042-.063-.004-.007a70.643 70.643 0 0 1-.03-.046l-.023-.035a2.072 2.072 0 0 0-.007-.01l-.025-.038v-.001a137.28 137.28 0 0 1-.62-.953l-.002-.003-.026-.04-.003-.006-.105-.164-.007-.01-.022-.034-.008-.013-.022-.034-.007-.011-.075-.118-.004-.006-.02-.032-.01-.016c-.008-.01-.013-.02-.02-.03l-.012-.019a44.62 44.62 0 0 0-.017-.027l-.014-.022-.017-.027-.011-.017a165.702 165.702 0 0 1-.047-.074l-.017-.026-.015-.024-.015-.024-.016-.025-.015-.023-.018-.029-.012-.02-.03-.047-.008-.011a50.334 50.334 0 0 1-.023-.038l-.011-.017-.02-.032-.012-.019-.02-.032a15.922 15.922 0 0 1-.01-.016c-.009-.012-.016-.025-.024-.037l-.008-.013-.031-.05-.005-.007-.026-.041a5.378 5.378 0 0 0-.01-.016l-.022-.034-.01-.017-.02-.033c-.003-.003-.01-.013-.011-.017l-.025-.039-.006-.01-.03-.05-.01-.013-.02-.034-.014-.02-.018-.03-.007-.01 1.696-1.06zm-3.982-6.803c.627 1.147 1.28 2.3 1.94 3.43l-1.725 1.01a175.18 175.18 0 0 1-.126-.215l-.001-.002-.028-.048-.005-.008-.025-.043c-.002-.004-.003-.007-.006-.01l-.03-.051-.004-.009-.023-.039a12.383 12.383 0 0 0-.045-.078l-.01-.017-.02-.033-.006-.012a109.72 109.72 0 0 1-.716-1.251l-.002-.005-.024-.041-.003-.006-.023-.041v-.001l-.072-.126-.006-.012-.019-.032a5.194 5.194 0 0 0-.01-.018l-.017-.03-.01-.02c-.007-.01-.01-.018-.017-.03l-.013-.023-.015-.025-.026-.048-.01-.018-.019-.033-.01-.018-.02-.034-.009-.018-.02-.036-.008-.014-.026-.047-.002-.004-.03-.054c-.002-.003 0 .002-.002-.002l-.027-.049-.006-.01-.023-.043a5.32 5.32 0 0 0-.006-.01l-.026-.047-.002-.004c-.142-.255-.282-.51-.422-.766l1.755-.96zm-3.58-7.023a135.71 135.71 0 0 0 1.739 3.537l-1.782.908a137.021 137.021 0 0 1-1.764-3.59l1.808-.855zm-3.162-7.22a135.32 135.32 0 0 0 1.528 3.632l-1.832.803a135.85 135.85 0 0 1-1.209-2.847l-.008-.02-.011-.027-.012-.03-.009-.02-.015-.038-.006-.014-.281-.69 1.855-.75zm-2.736-7.392c.418 1.24.86 2.49 1.314 3.716l-1.876.694a136.472 136.472 0 0 1-1.333-3.77l1.895-.64zm-2.298-7.54c.345 1.262.713 2.536 1.094 3.787l-1.913.583a136.42 136.42 0 0 1-1.11-3.843l1.93-.527zm-1.852-7.66c.27 1.28.563 2.573.87 3.844l-1.944.47a136.41 136.41 0 0 1-.826-3.629v-.004l-.01-.048-.002-.007-.01-.047-.001-.005-.034-.16 1.957-.414zm-1.403-7.757c.195 1.294.412 2.602.645 3.889l-1.968.356-.11-.613v-.006a28.862 28.862 0 0 1-.012-.065l-.007-.042a5.27 5.27 0 0 0-.004-.02l-.006-.037-.004-.022-.006-.034-.005-.026v-.006a88.549 88.549 0 0 1-.018-.101l-.008-.042-.002-.015-.007-.04-.003-.015-.007-.041L2 161.17l-.008-.044v-.002l-.045-.263v-.002l-.072-.423v-.002a136.6 136.6 0 0 1-.053-.32l-.008-.05a.19.19 0 0 1 0-.003l-.009-.05v-.004l-.043-.262v-.003l-.008-.048-.001-.008-.008-.048v-.004c-.018-.107-.034-.21-.05-.316l-.001-.002-.008-.05v-.005c-.048-.302-.094-.596-.14-.9l1.978-.297zm-.949-7.825c.12 1.303.26 2.621.418 3.919l-1.986.24c-.16-1.32-.3-2.644-.423-3.976l1.991-.183zm-.495-7.868c.045 1.309.11 2.633.191 3.938l-1.996.125c-.083-1.324-.148-2.66-.194-3.995l2-.068zm-2.043-7.934 2 .046a138.81 138.81 0 0 0-.035 3.945l-2 .012a130.685 130.685 0 0 1 0-.204v-.032L0 138.173V137.78L0 137.765V137.158l.001-.11v-.119l.001-.044v-.121l.001-.045v-.008c0-.111.002-.219.003-.33V136.269l.001-.056.004-.332v-.003l.001-.052V135.765l.001-.049v-.005l.001-.051v-.003l.004-.22v-.064l.001-.043v-.015l.001-.038v-.017l.001-.035v-.022l.001-.029V135.123l.001-.028v-.021l.001-.032v-.011l.013-.594zm.413-7.989 1.993.16a137.622 137.622 0 0 0-.26 3.935l-1.997-.103v-.017l.002-.026.002-.034.001-.021.002-.04v-.009c.068-1.282.154-2.572.257-3.845zm.873-7.951 1.98.276c-.18 1.294-.343 2.61-.486 3.911l-1.988-.218c.089-.81.185-1.616.287-2.42v-.005l.008-.054v-.009l.008-.054v-.006l.016-.118.003-.026.004-.03.004-.033.004-.024.004-.036.003-.018.005-.041.001-.01c.047-.359.097-.728.147-1.085zm1.333-7.886 1.962.39a135.635 135.635 0 0 0-.714 3.877l-1.972-.334.122-.708.003-.02.006-.032.005-.028.005-.026.006-.036.003-.021.008-.044.002-.013.033-.181v-.003l.01-.06c.066-.37.134-.738.202-1.106v-.001l.011-.058.001-.005.01-.056.002-.005.033-.18.003-.012.008-.045.004-.02.007-.035.004-.025.007-.033.005-.026.005-.03.006-.028c0-.007.002-.014.004-.02l.016-.086v-.001l.01-.047v-.008l.01-.046v-.007l.01-.05v-.001l.163-.83zm1.792-7.797 1.936.505c-.33 1.265-.646 2.553-.94 3.828l-1.949-.448c.106-.46.213-.915.323-1.373l.001-.004.012-.048.001-.004.012-.05.037-.154v-.001l.01-.04.004-.017.01-.036c0-.007.002-.014.004-.02l.008-.033.006-.025.008-.032.006-.023.008-.033.003-.013a56.595 56.595 0 0 0 .023-.095l.007-.029a7.8 7.8 0 0 1 .007-.027l.007-.03.007-.026.007-.03.007-.026.007-.03a8.623 8.623 0 0 1 .036-.143l.004-.02.009-.034.005-.022.01-.035a16.046 16.046 0 0 1 .014-.056l.003-.017.01-.039.002-.008.036-.145.001-.003.012-.049.001-.004.013-.049v-.003c.09-.353.18-.707.272-1.059zm2.245-7.677 1.902.618c-.403 1.243-.794 2.51-1.16 3.765l-1.92-.56c.204-.702.415-1.4.63-2.096v-.002c.007-.018.012-.036.018-.055l.003-.01.015-.047.003-.01.015-.049.003-.01.017-.055v-.002c.007-.018.012-.037.018-.055l.006-.02.011-.035.008-.026.01-.028.008-.03.008-.023.01-.032.006-.02.043-.136.014-.045.003-.008.013-.043.003-.01.015-.045c.098-.312.197-.62.298-.93zm2.69-7.533 1.863.727a135.33 135.33 0 0 0-1.38 3.693l-1.883-.673c.449-1.257.916-2.507 1.4-3.747zm3.126-7.363 1.818.836a135.511 135.511 0 0 0-1.593 3.604l-1.841-.781a137 137 0 0 1 .48-1.12l.004-.006.018-.041.005-.013.016-.037.006-.013.032-.073.005-.013a9.614 9.614 0 0 0 .024-.054l.01-.025.014-.03.01-.021c.004-.012.01-.023.015-.035l.008-.018.021-.05.001-.002.025-.056.001-.003.024-.053.002-.006.022-.05.003-.006.024-.054c.244-.553.491-1.103.742-1.652v-.002l.025-.052.003-.007.022-.048.004-.008.024-.052v-.002l.026-.055v-.002zm3.551-7.167 1.766.94a135.812 135.812 0 0 0-1.801 3.506l-1.793-.888.005-.009a6.57 6.57 0 0 1 .07-.142l.002-.003c.286-.576.576-1.148.87-1.72l.022-.044.004-.007.021-.041.002-.004.062-.12.01-.02.015-.028.013-.025.012-.024.016-.03a8.545 8.545 0 0 0 .034-.067l.002-.003.057-.11.001-.002c.01-.017.018-.035.027-.052l.002-.003c.192-.37.386-.737.581-1.104zm3.962-6.949 1.708 1.04c-.68 1.118-1.354 2.26-2.002 3.396l-1.737-.99c.299-.525.601-1.048.907-1.568l.004-.006.026-.044.006-.011.024-.041a6.998 6.998 0 0 1 .033-.055l.004-.008.03-.05.008-.013.02-.036c.003-.003.01-.016.012-.02l.018-.03.013-.021.016-.027.014-.024.014-.023.036-.062.005-.009.021-.035.007-.012.022-.035.006-.011.023-.038.003-.006c.253-.424.503-.84.76-1.261zm4.36-6.707 1.644 1.138a136.546 136.546 0 0 0-2.196 3.274l-1.677-1.09c.212-.326.421-.645.636-.969l.002-.004.026-.038.005-.008.104-.158.01-.013.02-.031.01-.016a36.007 36.007 0 0 1 .052-.077l.012-.018.037-.056.01-.015.02-.029.012-.019.019-.027.013-.02.018-.027.013-.02.02-.028.008-.013.044-.066.006-.01c.008-.01.013-.019.02-.03l.012-.017.02-.03.011-.016.02-.03.011-.016.021-.032h.001l.051-.077.007-.01.02-.03.012-.017.02-.03.011-.016.02-.03.01-.015a289.278 289.278 0 0 1 .08-.12l.024-.033.008-.013.023-.033.007-.01.025-.037.002-.003.085-.125v-.001l.027-.039.004-.007.026-.037.005-.007.026-.038.002-.003.08-.119.007-.009.022-.032.01-.016.021-.03.011-.015.021-.031.01-.014c.012-.018.025-.038.038-.055l.013-.02.017-.024.016-.024.015-.022.019-.027.013-.02.025-.035.007-.01.104-.152.071-.103zm4.74-6.443 1.576 1.231a136.98 136.98 0 0 0-2.382 3.141l-1.611-1.185a141.75 141.75 0 0 1 .397-.536l.028-.038.003-.005.03-.038v-.002l.12-.16.005-.008.027-.035.006-.008.026-.035.006-.008.087-.116.001-.002.027-.036.007-.009.026-.035.004-.006.152-.2c0-.002.002-.003.003-.005.238-.316.476-.628.717-.943l.002-.003.03-.038.003-.005.117-.152.01-.012.02-.028.016-.019.018-.024.02-.025.014-.02.032-.04.004-.005.035-.046.006-.007.032-.042.005-.006.38-.49zm5.105-6.158 1.502 1.32c-.864.983-1.725 1.992-2.56 2.999l-1.54-1.277c.852-1.027 1.718-2.04 2.598-3.042zm5.452-5.853 1.424 1.405c-.92.93-1.837 1.888-2.729 2.845l-1.463-1.363a138.56 138.56 0 0 1 2.768-2.887zm5.781-5.529 1.34 1.485c-.971.877-1.943 1.78-2.888 2.683l-1.382-1.445a139.124 139.124 0 0 1 1.166-1.103l.034-.031.007-.007.032-.03.008-.007a173.526 173.526 0 0 1 .11-.103c.01-.008.014-.013.023-.022l.019-.016.023-.022.019-.017.022-.022.022-.02.02-.018.04-.037.012-.012.03-.028.015-.013.03-.027.013-.013.032-.03.01-.01.132-.121.007-.007.038-.035.007-.005.042-.04h.001l.138-.127.045-.042h.001c.214-.197.43-.393.645-.588l.003-.003.137-.124.003-.002.04-.036c.003-.003 0-.002.004-.005zm6.09-5.185 1.253 1.56c-1.02.818-2.043 1.664-3.039 2.512l-1.296-1.523.284-.242.008-.006.035-.03.018-.015.024-.02.024-.02.015-.013.03-.025c.872-.737 1.755-1.464 2.645-2.178zm6.38-4.825 1.16 1.63a136.721 136.721 0 0 0-3.178 2.332l-1.206-1.596.6-.45.046-.035.008-.006.039-.03.01-.007.041-.03.007-.005.047-.036a6.997 6.997 0 0 0 .046-.034l.018-.013.028-.021.02-.015.027-.02.02-.015.024-.018.023-.017.031-.023.036-.026.02-.016.027-.02.018-.013.028-.02.016-.012a55.554 55.554 0 0 1 .151-.112l.007-.005.037-.027.006-.005.037-.027.005-.004c.597-.44 1.197-.874 1.802-1.304zm6.65-4.447 1.063 1.694c-1.108.695-2.22 1.417-3.308 2.144l-1.112-1.662c.172-.116.345-.23.518-.345l.005-.004.045-.03.007-.004.045-.03.005-.003.101-.067.008-.005.04-.027.014-.009.036-.024.014-.009a35.988 35.988 0 0 1 .049-.032c.017-.01.033-.022.05-.033l.002-.001.046-.03.015-.01.033-.022.018-.012a36.33 36.33 0 0 1 .05-.032l.032-.021.017-.011.047-.03.014-.01.033-.022.021-.014.028-.018.021-.014.027-.017.021-.014.03-.02.019-.012.046-.03.018-.011.03-.02.02-.013.03-.02.02-.012.03-.02.018-.012.032-.02.017-.012.047-.03.016-.01.032-.021.02-.013.03-.02a19.1 19.1 0 0 0 .052-.033l.015-.01.046-.029.003-.002.049-.032.013-.008.036-.023.015-.01.036-.023.014-.01.04-.024.009-.006.103-.066.05-.032.007-.005.044-.029.007-.003.207-.133.002-.001c.263-.168.527-.335.791-.5zm6.895-4.053.963 1.752a136.05 136.05 0 0 0-3.426 1.948l-1.014-1.724c.605-.355 1.203-.701 1.814-1.047l.006-.004.039-.022.009-.005.04-.022V17.8l.128-.072.01-.006.034-.02.015-.007.033-.02.015-.008.034-.019.015-.009.062-.034.016-.01.027-.014a9.32 9.32 0 0 1 .023-.014l.026-.014.025-.014.025-.014.028-.016.021-.012.037-.02.013-.007.05-.029.01-.005.042-.024.014-.007.04-.022.011-.007.044-.024.008-.005.16-.09h.002l.601-.332zm7.12-3.646.86 1.806c-1.181.562-2.37 1.15-3.535 1.745l-.911-1.78c.842-.431 1.69-.854 2.542-1.269l.008-.003.04-.02.01-.005.04-.019.005-.002.119-.058.023-.011.026-.013.028-.013.022-.011.033-.016.019-.01.106-.05.003-.002.052-.025.007-.003.048-.023.007-.003.448-.215zm7.321-3.224.752 1.854a135.407 135.407 0 0 0-3.63 1.535l-.806-1.83c.483-.213.972-.425 1.458-.632h.001a157.256 157.256 0 0 1 .241-.103c.016-.007.03-.012.045-.02l.005-.001a132.803 132.803 0 0 1 .24-.102l.043-.018c.003 0 .005-.002.008-.003l.044-.019h.001l.24-.101h.001c.452-.19.903-.375 1.357-.56zm7.496-2.79.643 1.894c-1.239.42-2.488.865-3.714 1.32l-.698-1.873c.325-.121.652-.242.978-.36l.004-.001.04-.015.014-.005.036-.013.02-.008.033-.011.022-.008.031-.012.044-.016.028-.01.034-.012.023-.008.031-.011.024-.009.033-.012.021-.007.04-.015.014-.005.112-.04.011-.004.044-.016a2.914 2.914 0 0 1 .056-.02l.016-.006.042-.014.014-.005.053-.02h.002l.058-.02.004-.002.05-.018.014-.005.043-.015.016-.006.04-.014.015-.005.047-.017.009-.003.112-.04.013-.004.043-.015.018-.007.035-.012.022-.008.034-.012.022-.007.043-.015.011-.004.053-.019.024-.008.03-.01a8.692 8.692 0 0 1 .082-.029l.026-.01.03-.01.018-.006.127-.044.01-.004.04-.014.012-.004.04-.014.013-.004.041-.015.005-.001.75-.257zm7.648-2.347.53 1.929c-1.26.347-2.534.717-3.785 1.1l-.586-1.911.005-.002.04-.012.022-.007a27.417 27.417 0 0 1 .072-.022l.03-.009.028-.008.026-.009.03-.009.025-.007.03-.01.024-.007.032-.01h.001l.09-.027.012-.004.037-.01.018-.006.036-.011.018-.006.036-.01.019-.006.035-.01.014-.005.127-.038.017-.005.036-.01a4.69 4.69 0 0 0 .019-.007l.034-.01.02-.006.035-.01.02-.006.034-.01.022-.007.055-.016.03-.01.026-.007.03-.009.026-.008.03-.009.026-.007.031-.01c.005 0 .02-.005.024-.006l.04-.012.015-.005.056-.016.013-.004.043-.013.017-.005.042-.012.015-.005.044-.013c.005 0 .008-.002.012-.003l.052-.015.005-.002a136.4 136.4 0 0 1 2.165-.615zm7.77-1.894.417 1.956c-1.28.272-2.572.567-3.842.877l-.474-1.943c1.29-.315 2.595-.612 3.9-.89zm7.87-1.438L117 3.563c-1.293.197-2.601.417-3.888.652l-.36-1.968c.43-.078.86-.155 1.29-.23h.004l.054-.01.013-.001.045-.008.016-.003.042-.007.018-.003.043-.007.016-.003.058-.01.057-.01.024-.004.033-.005.028-.005.029-.005.028-.005.03-.005a118.645 118.645 0 0 1 .055-.01c.013-.001.019-.002.032-.005.007 0 .013-.002.02-.003l.075-.013.015-.002.033-.006c.008 0 .016-.002.024-.004l.033-.005.024-.004.033-.006c.008 0 .016-.002.025-.004l.03-.005.029-.004.03-.005.025-.005.116-.019.027-.004.03-.005.027-.004.03-.005.029-.005.029-.005.03-.005.026-.004.035-.006.023-.003.056-.01a2.3 2.3 0 0 0 .015-.002l.044-.007.02-.003.038-.006.022-.004a187.873 187.873 0 0 0 .059-.01l.04-.006.017-.002.05-.009h.007l.122-.02h.003l.057-.01h.007l.053-.009.008-.001.055-.009h.005c.185-.03.37-.058.555-.086zm7.938-.978.187 1.991c-1.303.122-2.62.265-3.918.425l-.244-1.985.013-.002.045-.005.021-.003.038-.004.023-.003.036-.005.022-.002.038-.005.02-.002a20.773 20.773 0 0 0 .11-.014h.006l.183-.022h.005l.056-.008h.006l.057-.007h.002c1.094-.13 2.192-.246 3.294-.35zM132.62.09l.072 1.998c-1.308.047-2.633.114-3.937.199l-.13-1.996a154.752 154.752 0 0 1 .79-.049l.048-.003.021-.001.034-.002.026-.002.03-.002.06-.003.056-.003.058-.003.12-.007.06-.004c.021 0 .041-.002.062-.003l.062-.003h.01l.053-.004h.007l.372-.02c.437-.022.873-.042 1.31-.06l.007-.001.053-.002h.01l.062-.003.062-.003.055-.002h.005l.12-.005h.02l.065-.003.06-.002.03-.002h.032l.023-.002c.02 0 .034 0 .054-.002l.158-.005zM137.66 0v2c-.34 0-.685.001-1.026.004l-.014-2 .388-.003h.531l.04-.001h.081z" style="fill:#f04e30;stroke:none" transform="translate(.239 -137.349)"/>
                        </g>
                    </g>
                    <circle id="Ellipse_1237" data-name="Ellipse 1237" class="cls-13" cx="15.699" cy="15.699" r="15.699" transform="rotate(-90 173.919 -1.99)"/>
                    <circle id="Ellipse_1238" data-name="Ellipse 1238" class="cls-13" cx="15.699" cy="15.699" r="15.699" transform="rotate(-90 274.117 98.207)"/>
                    <circle id="Ellipse_1229" data-name="Ellipse 1229" class="cls-13" cx="15.699" cy="15.699" r="15.699" transform="rotate(-90 244.565 162.851)"/>
                    <circle id="Ellipse_1235" data-name="Ellipse 1235" class="cls-13" cx="15.699" cy="15.699" r="15.699" transform="rotate(-90 106.967 25.252)"/>
                    <circle id="Ellipse_1236" data-name="Ellipse 1236" class="cls-13" cx="15.699" cy="15.699" r="15.699" transform="rotate(-90 244.565 26.176)"/>
                </g>
            </g>
        </g>
    </g>
</svg>
