<svg xmlns="http://www.w3.org/2000/svg" width="1920" height="1081" viewBox="0 0 1920 1081">
    <defs>
        <clipPath id="clip-path">
            <path id="Rectangle_958" data-name="Rectangle 958" style="fill:#fff;stroke:#707070" d="M0 0h1920v1081H0z"/>
        </clipPath>
        <style>
            .cls-7{fill:#6badcb}.cls-8{fill:#ede8db}
        </style>
    </defs>
    <g id="Mask_Group_104" data-name="Mask Group 104" style="clip-path:url(#clip-path)">
        <g id="Group_1143" data-name="Group 1143" transform="translate(-242.883 -72.326)">
            <path id="Path_5" data-name="Path 5" d="M215.762 1008.773h64.692a7.253 7.253 0 0 0 6.282-10.879l-32.345-56.026a60.93 60.93 0 0 1 105.534-60.93l32.345 56.025a7.254 7.254 0 0 0 12.565 0l32.347-56.025a60.929 60.929 0 1 1 105.532 60.93l-32.347 56.023a7.255 7.255 0 0 0 6.282 10.881h64.693a60.93 60.93 0 1 1 0 121.86h-64.693a7.255 7.255 0 0 0-6.282 10.881l32.347 56.026c.419.724.808 1.458 1.194 2.192l13.619 23.64 26.507 88.492a2.042 2.042 0 0 1-3.74 1.562l-50.6-39.242a60.907 60.907 0 0 1-92.508-15.715l-32.347-56.024a7.254 7.254 0 0 0-12.565 0l-32.345 56.024a60.93 60.93 0 1 1-105.534-60.928l32.345-56.026a7.254 7.254 0 0 0-6.282-10.881h-64.696a60.93 60.93 0 0 1 0-121.86z" transform="translate(1358.451 115.089)" style="fill:#daa13d"/>
            <path id="Path_3" data-name="Path 3" d="M951.193 1086.177a76.938 76.938 0 0 1-58.727 141.781 76.938 76.938 0 0 1-141.78 58.727 76.937 76.937 0 0 1-141.778-58.727 76.938 76.938 0 0 1-58.727-141.781 76.949 76.949 0 0 1 19.109-144.109l-44.31-95.584c-1.073-2.437 36.992 28.627 38.632 30.724l47.268 13.572a76.944 76.944 0 0 1 139.8-5.111A76.938 76.938 0 0 1 892.466 944.4a76.938 76.938 0 0 1 58.727 141.78z" transform="translate(-507.803 -600.911)" style="fill:#cc79a7"/>
            <path id="Path_6" data-name="Path 6" d="M953.837 1222.747a42.524 42.524 0 0 0-32.458-78.361 42.523 42.523 0 0 0-78.36-32.458 42.524 42.524 0 0 0-78.361 32.458 42.524 42.524 0 0 0-32.458 78.361 42.524 42.524 0 0 0 32.458 78.361 42.523 42.523 0 0 0 78.361 32.458 42.523 42.523 0 0 0 78.36-32.458 42.524 42.524 0 0 0 32.458-78.361z" transform="translate(1380.105 -1088.507)" style="stroke:#daa13d;fill:none;stroke-width:3px"/>
            <path id="Path_8" data-name="Path 8" d="M1359.521 440.413H902.816a61.157 61.157 0 0 1-19.34-119.177l99.175-33.059h-79.835A61.157 61.157 0 0 1 883.476 169l99.175-33.059h-79.835a61.158 61.158 0 1 1 0-122.315h456.705a61.157 61.157 0 0 1 19.341 119.174l-99.176 33.059h79.835a61.157 61.157 0 0 1 19.341 119.177l-99.176 33.064h79.835a61.158 61.158 0 1 1 0 122.315z" transform="translate(1159.072 497.7)" style="fill:#36723b"/>
            <g id="Group_534" data-name="Group 534" transform="translate(1176.01 -8.756)">
                <ellipse id="Ellipse_503" data-name="Ellipse 503" class="cls-7" cx="135.725" cy="54.509" rx="135.725" ry="54.509" transform="translate(495.355 325.316)"/>
                <ellipse id="Ellipse_504" data-name="Ellipse 504" class="cls-7" cx="122.152" cy="32.399" rx="122.152" ry="32.399" transform="translate(508.927 285.037)"/>
                <ellipse id="Ellipse_505" data-name="Ellipse 505" class="cls-7" cx="122.152" cy="32.399" rx="122.152" ry="32.399" transform="translate(508.927 410.255)"/>
                <ellipse id="Ellipse_506" data-name="Ellipse 506" class="cls-7" cx="68.23" cy="20.359" rx="68.23" ry="20.359" transform="translate(562.849 461.48)"/>
                <ellipse id="Ellipse_507" data-name="Ellipse 507" class="cls-7" cx="68.23" cy="20.359" rx="68.23" ry="20.359" transform="translate(562.849 257.893)"/>
            </g>
            <g id="Group_539" data-name="Group 539" transform="translate(-1193.686 175.465)">
                <ellipse id="Ellipse_1184" data-name="Ellipse 1184" class="cls-8" cx="171.98" cy="117.13" rx="171.98" ry="117.13" transform="rotate(-35.665 1941.9 -1931.808)"/>
                <ellipse id="Ellipse_1185" data-name="Ellipse 1185" class="cls-8" cx="117.13" cy="171.98" rx="117.13" ry="171.98" transform="rotate(-54.335 1485.38 -1072.347)"/>
            </g>
            <path id="Path_367" data-name="Path 367" d="M923.933 81.436h-72.564A9.717 9.717 0 0 1 848.3 62.5l15.757-5.253h-12.688a9.717 9.717 0 0 1-3.069-18.934l15.757-5.253h-12.688a9.717 9.717 0 1 1 0-19.434h72.563a9.717 9.717 0 0 1 3.073 18.935l-15.758 5.253h12.685a9.717 9.717 0 0 1 3.073 18.935L911.248 62h12.685a9.717 9.717 0 0 1 0 19.434z" transform="translate(-24.768 1005.459)" style="fill:#adc3a3"/>
            <path id="Path_9" data-name="Path 9" d="m351.658 41.074 9.563-29.813a2.427 2.427 0 0 1 4.739.751l-.118 31.31a2.428 2.428 0 0 0 4.4 1.428l18.308-25.4a2.427 2.427 0 0 1 4.275 2.178l-9.787 29.741a2.428 2.428 0 0 0 3.741 2.717l25.26-18.5a2.428 2.428 0 0 1 3.394 3.393l-18.5 25.261a2.427 2.427 0 0 0 2.718 3.74l29.741-9.787a2.428 2.428 0 0 1 2.178 4.276l-25.4 18.308a2.428 2.428 0 0 0 1.429 4.4l31.31-.118a2.427 2.427 0 0 1 .751 4.739l-29.816 9.562a2.427 2.427 0 0 0 0 4.623l29.814 9.563a2.428 2.428 0 0 1-.751 4.74l-31.31-.118a2.428 2.428 0 0 0-1.429 4.4l25.4 18.308a2.427 2.427 0 0 1-2.178 4.275l-29.741-9.787a2.428 2.428 0 0 0-2.718 3.736l18.5 25.26a2.428 2.428 0 0 1-3.394 3.393l-25.26-18.5a2.428 2.428 0 0 0-3.741 2.717l9.787 29.741a2.427 2.427 0 0 1-4.275 2.178l-18.308-25.4a2.428 2.428 0 0 0-4.4 1.428l.118 31.31a2.427 2.427 0 0 1-4.739.751l-9.563-29.813a2.428 2.428 0 0 0-4.624 0l-9.563 29.813a2.428 2.428 0 0 1-4.74-.751l.118-31.31a2.428 2.428 0 0 0-4.4-1.428l-18.308 25.4a2.427 2.427 0 0 1-4.275-2.178l9.787-29.741a2.428 2.428 0 0 0-3.741-2.717l-25.26 18.5a2.428 2.428 0 0 1-3.393-3.393l18.5-25.26a2.428 2.428 0 0 0-2.717-3.741l-29.74 9.79a2.428 2.428 0 0 1-2.179-4.275l25.4-18.308a2.428 2.428 0 0 0-1.429-4.4l-31.31.118a2.428 2.428 0 0 1-.75-4.74l29.813-9.563a2.427 2.427 0 0 0 0-4.623l-29.81-9.558a2.427 2.427 0 0 1 .75-4.739l31.31.118a2.428 2.428 0 0 0 1.429-4.4l-25.4-18.308a2.428 2.428 0 0 1 2.179-4.276l29.741 9.787a2.427 2.427 0 0 0 2.717-3.74l-18.5-25.261a2.428 2.428 0 0 1 3.393-3.393l25.26 18.5a2.428 2.428 0 0 0 3.741-2.717l-9.785-29.743a2.427 2.427 0 0 1 4.275-2.178l18.308 25.4a2.428 2.428 0 0 0 4.4-1.428l-.118-31.31a2.428 2.428 0 0 1 4.74-.751l9.563 29.813a2.428 2.428 0 0 0 4.62 0z" transform="translate(945.537 317.755)" style="stroke:#c7642a;fill:none;stroke-width:3px"/>
            <path id="Path_7" data-name="Path 7" d="M269.309 641.418h-17.363a1.947 1.947 0 0 1-1.686-2.921l8.681-15.037a16.353 16.353 0 0 0-5.986-22.34 16.354 16.354 0 0 0-22.34 5.986l-8.681 15.037a1.947 1.947 0 0 1-3.372 0l-8.682-15.037a16.353 16.353 0 0 0-22.34-5.986 16.353 16.353 0 0 0-5.986 22.34l8.682 15.037a1.947 1.947 0 0 1-1.686 2.921h-17.364a16.354 16.354 0 0 0-16.354 16.354 16.354 16.354 0 0 0 16.354 16.354h17.364a1.947 1.947 0 0 1 1.686 2.92l-8.682 15.038a16.354 16.354 0 0 0 5.986 22.34 16.354 16.354 0 0 0 22.34-5.986l8.682-15.038a1.947 1.947 0 0 1 3.372 0l8.681 15.038a16.354 16.354 0 0 0 22.34 5.986 16.354 16.354 0 0 0 5.986-22.34l-8.681-15.038a1.947 1.947 0 0 1 1.686-2.92h17.363a16.354 16.354 0 0 0 16.353-16.354 16.354 16.354 0 0 0-16.353-16.354z" transform="translate(744.637 -330.445)" style="stroke:#8f8ac7;fill:none;stroke-width:3px"/>
        </g>
    </g>
</svg>
