<svg xmlns="http://www.w3.org/2000/svg" width="1532.84" height="295.065" viewBox="0 0 1532.84 295.065">
    <g data-name="Group 617">
        <path data-name="Path 141" d="M862.577 1172.757a26.688 26.688 0 0 0-20.371-49.18 26.688 26.688 0 0 0-49.179-20.371 26.688 26.688 0 0 0-49.18 20.371 26.688 26.688 0 0 0-20.371 49.18 26.688 26.688 0 0 0 20.371 49.18 26.688 26.688 0 0 0 49.18 20.371 26.687 26.687 0 0 0 49.179-20.371 26.688 26.688 0 0 0 20.371-49.18z" transform="translate(-707.21 -971.215)" style="stroke:#707070;fill:none;stroke-width:3px"/>
        <path data-name="Path 138" d="m351.658 41.074 9.563-29.813a2.427 2.427 0 0 1 4.739.751l-.118 31.31a2.428 2.428 0 0 0 4.4 1.428l18.308-25.4a2.427 2.427 0 0 1 4.275 2.178l-9.787 29.741a2.428 2.428 0 0 0 3.741 2.717l25.26-18.5a2.428 2.428 0 0 1 3.394 3.393l-18.5 25.261a2.427 2.427 0 0 0 2.718 3.74l29.741-9.787a2.428 2.428 0 0 1 2.178 4.276l-25.4 18.308a2.428 2.428 0 0 0 1.429 4.4l31.31-.118a2.427 2.427 0 0 1 .751 4.739l-29.816 9.562a2.427 2.427 0 0 0 0 4.623l29.814 9.563a2.428 2.428 0 0 1-.751 4.74l-31.31-.118a2.428 2.428 0 0 0-1.429 4.4l25.4 18.308a2.427 2.427 0 0 1-2.178 4.275l-29.741-9.787a2.428 2.428 0 0 0-2.718 3.736l18.5 25.26a2.428 2.428 0 0 1-3.394 3.393l-25.26-18.5a2.428 2.428 0 0 0-3.741 2.717l9.787 29.741a2.427 2.427 0 0 1-4.275 2.178l-18.308-25.4a2.428 2.428 0 0 0-4.4 1.428l.118 31.31a2.427 2.427 0 0 1-4.739.751l-9.563-29.813a2.428 2.428 0 0 0-4.624 0l-9.563 29.813a2.428 2.428 0 0 1-4.74-.751l.118-31.31a2.428 2.428 0 0 0-4.4-1.428l-18.308 25.4a2.427 2.427 0 0 1-4.275-2.178l9.787-29.741a2.428 2.428 0 0 0-3.741-2.717l-25.26 18.5a2.428 2.428 0 0 1-3.393-3.393l18.5-25.26a2.428 2.428 0 0 0-2.717-3.741l-29.74 9.79a2.428 2.428 0 0 1-2.179-4.275l25.4-18.308a2.428 2.428 0 0 0-1.429-4.4l-31.31.118a2.428 2.428 0 0 1-.75-4.74l29.813-9.563a2.427 2.427 0 0 0 0-4.623l-29.81-9.558a2.427 2.427 0 0 1 .75-4.739l31.31.118a2.428 2.428 0 0 0 1.429-4.4l-25.4-18.308a2.428 2.428 0 0 1 2.179-4.276l29.741 9.787a2.427 2.427 0 0 0 2.717-3.74l-18.5-25.261a2.428 2.428 0 0 1 3.393-3.393l25.26 18.5a2.428 2.428 0 0 0 3.741-2.717l-9.785-29.743a2.427 2.427 0 0 1 4.275-2.178l18.308 25.4a2.428 2.428 0 0 0 4.4-1.428l-.118-31.31a2.428 2.428 0 0 1 4.74-.751l9.563 29.813a2.428 2.428 0 0 0 4.62 0z" transform="translate(1089.969 99.97)" style="stroke:#c7642a;fill:none;stroke-width:3px"/>
        <path data-name="Path 139" d="M269.309 641.418h-17.363a1.947 1.947 0 0 1-1.686-2.921l8.681-15.037a16.353 16.353 0 0 0-5.986-22.34 16.354 16.354 0 0 0-22.34 5.986l-8.681 15.037a1.947 1.947 0 0 1-3.372 0l-8.682-15.037a16.353 16.353 0 0 0-22.34-5.986 16.353 16.353 0 0 0-5.986 22.34l8.682 15.037a1.947 1.947 0 0 1-1.686 2.921h-17.364a16.354 16.354 0 0 0-16.354 16.354 16.354 16.354 0 0 0 16.354 16.354h17.364a1.947 1.947 0 0 1 1.686 2.92l-8.682 15.038a16.354 16.354 0 0 0 5.986 22.34 16.354 16.354 0 0 0 22.34-5.986l8.682-15.038a1.947 1.947 0 0 1 3.372 0l8.681 15.038a16.354 16.354 0 0 0 22.34 5.986 16.354 16.354 0 0 0 5.986-22.34l-8.681-15.038a1.947 1.947 0 0 1 1.686-2.92h17.363a16.354 16.354 0 0 0 16.353-16.354 16.354 16.354 0 0 0-16.353-16.354z" transform="translate(854.485 -597.385)" style="stroke:#8f8ac6;fill:none;stroke-width:3px"/>
    </g>
</svg>
