<svg xmlns="http://www.w3.org/2000/svg" width="586.268" height="628.208" viewBox="0 0 586.268 628.208">
    <defs>
        <style>
            .cls-7{fill:#eee8da}.cls-8{fill:#6badcb}
        </style>
    </defs>
    <g id="Group_846" data-name="Group 846" transform="translate(83.268 -132.63)">
        <path id="Path_151" data-name="Path 151" d="M177.113 908.355h23.657a2.652 2.652 0 0 0 2.3-3.978l-11.828-20.488a22.281 22.281 0 0 1 38.592-22.281l11.825 20.492a2.653 2.653 0 0 0 4.595 0l11.829-20.488a22.281 22.281 0 1 1 38.591 22.281l-11.829 20.487a2.653 2.653 0 0 0 2.3 3.979H310.8a22.281 22.281 0 1 1 0 44.562h-23.658a2.653 2.653 0 0 0-2.3 3.979l11.829 20.488c.153.265.3.533.437.8l4.98 8.645 9.693 32.36a.747.747 0 0 1-1.368.571l-18.505-14.35a22.273 22.273 0 0 1-33.828-5.747l-11.829-20.487a2.653 2.653 0 0 0-4.595 0l-11.828 20.487a22.281 22.281 0 1 1-38.592-22.28l11.831-20.487a2.652 2.652 0 0 0-2.3-3.979h-23.654a22.281 22.281 0 0 1 0-44.562z" transform="translate(146.044 -259.302)" style="fill:#daa13d"/>
        <path id="Path_149" data-name="Path 149" d="M856.432 932.173h19.293l-23.967-7.989a14.779 14.779 0 0 1 4.674-28.8h19.293l-23.967-7.984a14.779 14.779 0 0 1 4.674-28.8H966.8a14.779 14.779 0 1 1 0 29.559h-19.294l23.966 7.989a14.779 14.779 0 0 1-4.674 28.8h-19.292l23.966 7.989a14.771 14.771 0 0 1-1.577 28.46l4.5 15.018a.617.617 0 0 1-1.13.472l-19.536-15.15h-97.3a14.779 14.779 0 0 1 0-29.559z" transform="translate(-478.58 -447.895)" style="fill:#36723b"/>
        <path id="Path_146" data-name="Path 146" d="M620.316 904.926a19.524 19.524 0 0 1-14.9 35.978 19.524 19.524 0 0 1-35.978 14.9 19.524 19.524 0 0 1-35.978-14.9 19.524 19.524 0 0 1-14.9-35.978 19.527 19.527 0 0 1 4.849-36.569L512.161 844.1a.574.574 0 0 1 .978-.585l20.82 11.826a19.525 19.525 0 0 1 35.477-1.3 19.524 19.524 0 0 1 35.978 14.9 19.524 19.524 0 0 1 14.9 35.978z" transform="translate(-591.07 -639.56)" style="fill:#cc79a7"/>
        <path id="Path_152" data-name="Path 152" d="M190.2 612.053h-5.364a.6.6 0 0 1-.521-.9l2.682-4.645a5.052 5.052 0 0 0-1.849-6.9 5.052 5.052 0 0 0-6.9 1.849l-2.682 4.645a.6.6 0 0 1-1.042 0l-2.682-4.645a5.052 5.052 0 0 0-6.9-1.849 5.052 5.052 0 0 0-1.849 6.9l2.682 4.645a.6.6 0 0 1-.521.9h-5.364a5.052 5.052 0 0 0-5.052 5.052 5.052 5.052 0 0 0 5.052 5.052h5.364a.6.6 0 0 1 .521.9l-2.682 4.645a5.052 5.052 0 0 0 1.849 6.9 5.052 5.052 0 0 0 6.9-1.849l2.682-4.645a.6.6 0 0 1 1.042 0l2.682 4.645a5.052 5.052 0 0 0 6.9 1.849 5.052 5.052 0 0 0 1.849-6.9l-2.682-4.645a.6.6 0 0 1 .521-.9h5.364a5.052 5.052 0 0 0 5.052-5.052 5.052 5.052 0 0 0-5.052-5.052z" transform="translate(-7.247 -465.283)" style="stroke:#8f8ac6;fill:none;stroke-width:2px"/>
        <path id="Path_153" data-name="Path 153" d="m299.889 23.782 4.311-13.448a1.1 1.1 0 0 1 2.138.339l-.05 14.127a1.1 1.1 0 0 0 1.984.644l8.259-11.457a1.1 1.1 0 0 1 1.928.983l-4.415 13.416a1.1 1.1 0 0 0 1.687 1.226l11.395-8.344a1.1 1.1 0 0 1 1.531 1.53l-8.345 11.4a1.1 1.1 0 0 0 1.226 1.687l13.416-4.415a1.1 1.1 0 0 1 .983 1.929l-11.458 8.259a1.1 1.1 0 0 0 .645 1.984l14.123-.053a1.1 1.1 0 0 1 .339 2.138l-13.45 4.303a1.1 1.1 0 0 0 0 2.085l13.449 4.314a1.1 1.1 0 0 1-.339 2.138l-14.123-.053a1.1 1.1 0 0 0-.645 1.984l11.458 8.259a1.1 1.1 0 0 1-.983 1.928l-13.416-4.415a1.1 1.1 0 0 0-1.226 1.687l8.345 11.395a1.1 1.1 0 0 1-1.531 1.53l-11.395-8.344a1.1 1.1 0 0 0-1.687 1.226l4.415 13.416a1.1 1.1 0 0 1-1.928.983L308.271 76.7a1.1 1.1 0 0 0-1.984.644l.053 14.123a1.1 1.1 0 0 1-2.138.339l-4.314-13.449a1.1 1.1 0 0 0-2.086 0l-4.312 13.454a1.1 1.1 0 0 1-2.138-.339l.053-14.123a1.1 1.1 0 0 0-1.984-.644l-8.259 11.457a1.1 1.1 0 0 1-1.928-.983l4.415-13.416a1.1 1.1 0 0 0-1.687-1.226l-11.395 8.344a1.1 1.1 0 0 1-1.53-1.53l8.344-11.395a1.1 1.1 0 0 0-1.226-1.687l-13.415 4.415a1.1 1.1 0 0 1-.983-1.928l11.458-8.256a1.1 1.1 0 0 0-.645-1.984l-14.123.053a1.1 1.1 0 0 1-.338-2.138l13.448-4.314a1.1 1.1 0 0 0 0-2.085l-13.448-4.314a1.1 1.1 0 0 1 .338-2.138l14.123.053a1.1 1.1 0 0 0 .645-1.984l-11.458-8.259a1.1 1.1 0 0 1 .983-1.929l13.416 4.415a1.1 1.1 0 0 0 1.226-1.687l-8.344-11.4a1.1 1.1 0 0 1 1.53-1.53l11.395 8.344a1.1 1.1 0 0 0 1.687-1.226l-4.415-13.416a1.1 1.1 0 0 1 1.928-.983l8.259 11.457a1.1 1.1 0 0 0 1.984-.644l-.053-14.123a1.1 1.1 0 0 1 2.138-.339l4.309 13.453a1.1 1.1 0 0 0 2.089 0z" transform="translate(-114.347 194.428)" style="stroke:#c7642a;fill:none;stroke-width:2px"/>
        <path id="Path_154" data-name="Path 154" d="M885.785 50h-38.921a5.212 5.212 0 0 1-1.648-10.156l8.452-2.817h-6.8a5.212 5.212 0 0 1-1.648-10.156l8.452-2.817h-6.8a5.212 5.212 0 1 1 0-10.424h38.921a5.212 5.212 0 0 1 1.648 10.156l-8.46 2.814h6.8a5.212 5.212 0 0 1 1.648 10.156l-8.452 2.817h6.8a5.212 5.212 0 0 1 0 10.424z" transform="translate(-723.651 508.003)" style="fill:#adc3a3"/>
        <g id="Group_654" data-name="Group 654" transform="translate(-1573.822 -100.08)">
            <ellipse id="Ellipse_1184" data-name="Ellipse 1184" class="cls-7" cx="68.843" cy="46.887" rx="68.843" ry="46.887" transform="rotate(-35.665 1754.97 -1991.941)"/>
            <ellipse id="Ellipse_1185" data-name="Ellipse 1185" class="cls-7" cx="46.887" cy="68.843" rx="46.887" ry="68.843" transform="rotate(-54.335 1374.182 -1129.415)"/>
        </g>
        <g id="Group_655" data-name="Group 655" transform="translate(-232.354 -46.587)">
            <ellipse id="Ellipse_503" data-name="Ellipse 503" class="cls-8" cx="53.164" cy="21.351" rx="53.164" ry="21.351" transform="translate(495.355 284.303)"/>
            <ellipse id="Ellipse_504" data-name="Ellipse 504" class="cls-8" cx="47.847" cy="12.691" rx="47.847" ry="12.691" transform="translate(500.671 268.525)"/>
            <ellipse id="Ellipse_505" data-name="Ellipse 505" class="cls-8" cx="47.847" cy="12.691" rx="47.847" ry="12.691" transform="translate(500.671 317.573)"/>
            <ellipse id="Ellipse_506" data-name="Ellipse 506" class="cls-8" cx="26.726" cy="7.975" rx="26.726" ry="7.975" transform="translate(521.792 337.638)"/>
            <ellipse id="Ellipse_507" data-name="Ellipse 507" class="cls-8" cx="26.726" cy="7.975" rx="26.726" ry="7.975" transform="translate(521.792 257.893)"/>
        </g>
    </g>
</svg>
