<svg xmlns="http://www.w3.org/2000/svg" width="1632.812" height="295.5" viewBox="0 0 1632.812 295.5">
    <g data-name="Group 100" style="opacity:.75">
        <path data-name="Path 140" d="M555.354 30.3c0-3.568-3.863-6.773-10-8.98 4.349-1.271 7-2.959 7-4.811 0-2.722-5.727-5.09-14.16-6.3 1.42-.686 2.241-1.494 2.241-2.36 0-2.485-6.752-4.5-15.081-4.5s-15.081 2.015-15.081 4.5c0 .866.821 1.674 2.241 2.36-8.433 1.211-14.16 3.579-14.16 6.3 0 1.852 2.65 3.54 7 4.811-6.137 2.206-10 5.411-10 8.98 0 3.6 3.927 6.825 10.151 9.033-4.438 1.276-7.151 2.981-7.151 4.854 0 2.722 5.727 5.09 14.16 6.3-1.42.686-2.241 1.494-2.241 2.36 0 2.485 6.752 4.5 15.081 4.5s15.081-2.015 15.081-4.5c0-.866-.821-1.674-2.241-2.36 8.433-1.211 14.16-3.579 14.16-6.3 0-1.873-2.712-3.578-7.151-4.854 6.225-2.209 10.151-5.433 10.151-9.033z" transform="translate(1057.959 152.153)" style="fill:#daa13d"/>
        <path data-name="Path 142" d="M1634.417 1192.3c-4.912-4.366-12.785-5.081-20.791-2.6-8.006-2.48-15.878-1.766-20.791 2.6s-5.716 11.364-2.926 18.481c-2.791 7.116-1.986 14.114 2.926 18.481s12.785 5.081 20.791 2.6c8.006 2.481 15.878 1.766 20.791-2.6s5.716-11.364 2.926-18.481c2.79-7.116 1.986-14.114-2.926-18.481z" transform="translate(-1567.313 -1077.781)" style="fill:#999844"/>
        <path data-name="Path 143" d="m282.975 18.132 2.6-8.1a.66.66 0 0 1 1.288.2l-.032 8.508a.66.66 0 0 0 1.195.388l4.975-6.9a.66.66 0 0 1 1.162.592L291.5 20.9a.66.66 0 0 0 1.016.738l6.864-5.027a.66.66 0 0 1 .922.922l-5.025 6.867a.66.66 0 0 0 .739 1.016l8.082-2.66a.66.66 0 0 1 .592 1.162l-6.9 4.975a.66.66 0 0 0 .388 1.195l8.508-.032a.66.66 0 0 1 .2 1.288l-8.1 2.6a.66.66 0 0 0 0 1.256l8.1 2.6a.66.66 0 0 1-.2 1.288l-8.508-.032a.66.66 0 0 0-.388 1.195l6.9 4.975a.66.66 0 0 1-.592 1.162l-8.082-2.66a.66.66 0 0 0-.739 1.016l5.027 6.864a.66.66 0 0 1-.922.922l-6.864-5.03a.66.66 0 0 0-1.016.738l2.66 8.082a.66.66 0 0 1-1.162.592l-4.975-6.9a.66.66 0 0 0-1.195.388l.032 8.508a.66.66 0 0 1-1.288.2l-2.6-8.1a.66.66 0 0 0-1.256 0l-2.6 8.1a.66.66 0 0 1-1.288-.2l.032-8.508a.66.66 0 0 0-1.195-.388l-4.975 6.9a.66.66 0 0 1-1.162-.592l2.66-8.082a.66.66 0 0 0-1.017-.738l-6.864 5.027a.66.66 0 0 1-.922-.922l5.027-6.864a.66.66 0 0 0-.738-1.016l-8.082 2.66a.66.66 0 0 1-.594-1.16l6.9-4.975a.66.66 0 0 0-.388-1.195l-8.508.032a.66.66 0 0 1-.2-1.288l8.1-2.6a.66.66 0 0 0 0-1.256l-8.1-2.6a.66.66 0 0 1 .2-1.288l8.508.032a.66.66 0 0 0 .388-1.195L260 23.92a.66.66 0 0 1 .592-1.162l8.082 2.66a.66.66 0 0 0 .738-1.016l-5.027-6.864a.66.66 0 0 1 .922-.922l6.864 5.027a.66.66 0 0 0 1.017-.738l-2.66-8.082a.66.66 0 0 1 1.162-.592l4.975 6.9a.66.66 0 0 0 1.195-.388l-.032-8.508a.66.66 0 0 1 1.288-.2l2.6 8.1a.66.66 0 0 0 1.259-.003z" transform="translate(93.967 214.928)" style="fill:#c7642a"/>
        <path data-name="Path 144" d="M1374.506 41.633c-3.532 0-6.771 1.93-9.3 5.143-2.526-3.213-5.765-5.143-9.3-5.143-8.069 0-14.609 10.074-14.609 22.5s6.541 22.5 14.609 22.5c3.532 0 6.771-1.93 9.3-5.143 2.526 3.213 5.765 5.143 9.3 5.143 8.069 0 14.609-10.074 14.609-22.5s-6.54-22.5-14.609-22.5z" transform="translate(-154.802 -20.633)" style="fill:#cc79a7"/>
    </g>
</svg>
