<svg xmlns="http://www.w3.org/2000/svg" width="390" height="450" viewBox="0 0 390 450">
    <defs>
        <linearGradient id="b" x1="1.011" y1=".034" x2=".177" y2=".878" gradientUnits="objectBoundingBox">
            <stop offset="0" stop-color="#191919"/>
            <stop offset="1" stop-color="#242054"/>
        </linearGradient>
        <linearGradient id="c" x1=".157" y1=".141" x2=".806" y2=".868" gradientUnits="objectBoundingBox">
            <stop offset="0" stop-color="#191919"/>
            <stop offset="1" stop-color="#36723b" stop-opacity=".051"/>
        </linearGradient>
        <clipPath id="a">
            <path data-name="Rectangle 954" transform="translate(0 76)" style="fill:#fff;stroke:#707070" d="M0 0h390v450H0z"/>
        </clipPath>
    </defs>
    <g data-name="Mask Group 100" transform="translate(0 -76)" style="clip-path:url(#a)">
        <g data-name="Group 1396">
            <path data-name="Rectangle 191" transform="translate(0 76)" style="fill:#2b2b2b" d="M0 0h390v450H0z"/>
            <g data-name="Group 1394">
                <ellipse data-name="Ellipse 1407" cx="293.5" cy="294" rx="293.5" ry="294" transform="translate(96 208)" style="mix-blend-mode:screen;isolation:isolate;fill:url(#b)"/>
                <circle data-name="Ellipse 553" cx="219" cy="219" r="219" transform="translate(-186 -79)" style="fill:url(#c)"/>
            </g>
        </g>
        <g data-name="Group 1024">
            <g data-name="Group 1251">
                <path data-name="Path 259" d="M203.582 977.127h51.76a5.8 5.8 0 0 0 5.026-8.7L234.489 923.6a48.758 48.758 0 0 1 74.684-60.759 48.26 48.26 0 0 1 9.753 12.009l25.879 44.826a5.8 5.8 0 0 0 10.053 0l25.881-44.826a48.749 48.749 0 1 1 84.436 48.75l-25.881 44.824a5.8 5.8 0 0 0 5.026 8.706h51.761a48.75 48.75 0 0 1 0 97.5h-51.76a5.8 5.8 0 0 0-5.026 8.706l25.881 44.826c.335.579.647 1.167.955 1.754l10.9 18.914 21.208 70.8a1.634 1.634 0 0 1-2.992 1.25l-40.488-31.4a48.732 48.732 0 0 1-74.015-12.574l-25.881-44.824a5.8 5.8 0 0 0-10.053 0l-25.879 44.824a48.75 48.75 0 1 1-84.438-48.748l25.879-44.826a5.8 5.8 0 0 0-5.026-8.706h-51.76a48.75 48.75 0 0 1 0-97.5z" transform="translate(112.168 -485.671)" style="stroke-width:2px;stroke:#daa13d;fill:none"/>
                <path data-name="Path 206" d="m289.039 20.158 3.214-10.018a.816.816 0 0 1 1.592.252l-.04 10.521a.816.816 0 0 0 1.478.48l6.152-8.535a.816.816 0 0 1 1.437.732l-3.289 9.994a.816.816 0 0 0 1.257.913l8.488-6.216a.816.816 0 0 1 1.14 1.14l-6.216 8.489a.816.816 0 0 0 .913 1.257l9.994-3.289a.816.816 0 0 1 .732 1.437l-8.535 6.152a.816.816 0 0 0 .48 1.478l10.521-.04a.816.816 0 0 1 .252 1.592l-10.019 3.214a.816.816 0 0 0 0 1.553l10.019 3.214a.816.816 0 0 1-.252 1.593l-10.521-.04a.816.816 0 0 0-.48 1.478l8.535 6.152a.816.816 0 0 1-.732 1.437l-9.994-3.289a.816.816 0 0 0-.913 1.257l6.216 8.488a.816.816 0 0 1-1.14 1.14l-8.488-6.216a.816.816 0 0 0-1.257.913l3.289 9.994a.816.816 0 0 1-1.437.732l-6.152-8.535a.816.816 0 0 0-1.478.48l.04 10.521a.816.816 0 0 1-1.592.252l-3.214-10.018a.816.816 0 0 0-1.554 0l-3.213 10.018a.816.816 0 0 1-1.593-.252l.04-10.521a.816.816 0 0 0-1.478-.48l-6.152 8.535a.816.816 0 0 1-1.437-.732l3.289-9.994a.816.816 0 0 0-1.257-.913l-8.484 6.216a.816.816 0 0 1-1.14-1.14l6.216-8.488a.816.816 0 0 0-.913-1.257l-9.999 3.291a.816.816 0 0 1-.732-1.437l8.535-6.152a.816.816 0 0 0-.48-1.478l-10.521.04a.816.816 0 0 1-.252-1.593l10.018-3.214a.816.816 0 0 0 0-1.553L257.914 36.5a.816.816 0 0 1 .252-1.592l10.521.04a.816.816 0 0 0 .48-1.478l-8.535-6.152a.816.816 0 0 1 .732-1.437l9.994 3.289a.816.816 0 0 0 .913-1.257l-6.216-8.489a.816.816 0 0 1 1.14-1.14l8.488 6.216a.816.816 0 0 0 1.257-.913l-3.289-9.994a.816.816 0 0 1 1.437-.732l6.152 8.535a.816.816 0 0 0 1.478-.48l-.04-10.521a.816.816 0 0 1 1.593-.252l3.213 10.018a.816.816 0 0 0 1.555-.003z" transform="translate(56.738 160.428)" style="stroke:#6badcb;fill:none"/>
                <path data-name="Path 258" d="M939.785 916.291h-15.128l18.793-6.265a11.589 11.589 0 0 0-3.665-22.584h-15.128l18.793-6.265a11.589 11.589 0 0 0-3.665-22.583h-86.544a11.589 11.589 0 0 0 0 23.178h15.129l-18.793 6.265a11.589 11.589 0 0 0 3.665 22.583h15.128l-18.793 6.265a11.583 11.583 0 0 0 1.236 22.317l-3.527 11.776a.484.484 0 0 0 .886.37l15.319-11.88h76.294a11.589 11.589 0 1 0 0-23.178z" transform="translate(-910.376 -448.595)" style="stroke:#ede8db;stroke-width:2px;fill:none"/>
            </g>
        </g>
    </g>
</svg>
