<svg xmlns="http://www.w3.org/2000/svg" width="1920" height="950" viewBox="0 0 1920 950">
    <defs>
        <linearGradient id="b" x1=".854" y1=".846" x2=".179" y2=".113" gradientUnits="objectBoundingBox">
            <stop offset="0" stop-color="#191919"/>
            <stop offset="1" stop-color="#242054"/>
        </linearGradient>
        <linearGradient id="c" x1=".157" y1=".141" x2=".806" y2=".868" gradientUnits="objectBoundingBox">
            <stop offset="0" stop-color="#191919"/>
            <stop offset="1" stop-color="#36723b" stop-opacity=".051"/>
        </linearGradient>
        <clipPath id="a">
            <path data-name="Rectangle 725" style="fill:#fff;stroke:#707070" d="M0 0h1920v950H0z"/>
        </clipPath>
    </defs>
    <g data-name="Mask Group 54" style="clip-path:url(#a)">
        <g data-name="Group 160" transform="translate(0 -310)">
            <path data-name="Rectangle 17" transform="translate(0 310)" style="fill:#2b2b2b" d="M0 0h1920v950H0z"/>
            <circle data-name="Ellipse 221" cx="668" cy="668" r="668" transform="translate(923 412)" style="mix-blend-mode:screen;isolation:isolate;fill:url(#b)"/>
        </g>
        <circle data-name="Ellipse 222" cx="500.5" cy="500.5" r="500.5" transform="translate(-160 -134)" style="fill:url(#c)"/>
        <g data-name="Group 1079">
            <path data-name="Path 205" d="M1286.885 1120.362h-68.638l85.265-28.422a52.579 52.579 0 0 0-16.628-102.461h-68.638l85.265-28.422a52.579 52.579 0 0 0-16.628-102.461H894.237a52.58 52.58 0 0 0 0 105.159h68.637l-85.265 28.423a52.579 52.579 0 0 0 16.628 102.461h68.637l-85.265 28.423a52.551 52.551 0 0 0 5.609 101.252l-16 53.427a2.2 2.2 0 0 0 4.019 1.68l69.5-53.9h346.146a52.58 52.58 0 0 0 0-105.159z" transform="translate(-1090.561 -271.565)" style="stroke:#ede8db;fill:none;stroke-width:5px"/>
            <path data-name="Path 204" d="M227.508 1039.293h77.163a8.651 8.651 0 0 0 7.493-12.977l-38.58-66.826a72.677 72.677 0 0 1 125.88-72.677l38.58 66.826a8.653 8.653 0 0 0 14.987 0l38.583-66.826a72.676 72.676 0 1 1 125.878 72.677l-38.583 66.824a8.654 8.654 0 0 0 7.493 12.979h77.166a72.677 72.677 0 0 1 0 145.353H586.4a8.654 8.654 0 0 0-7.493 12.979l38.583 66.827c.5.864.964 1.739 1.424 2.615l16.245 28.2 31.617 105.552a2.436 2.436 0 0 1-4.461 1.863l-60.36-46.807a72.649 72.649 0 0 1-110.342-18.745l-38.581-66.83a8.653 8.653 0 0 0-14.987 0l-38.58 66.824a72.676 72.676 0 1 1-125.88-72.674l38.58-66.827a8.652 8.652 0 0 0-7.493-12.979h-77.164a72.677 72.677 0 0 1 0-145.353z" transform="translate(1474.461 -551.19)" style="stroke:#daa13d;fill:none;stroke-width:5px"/>
            <path data-name="Path 206" d="m351.658 41.074 9.563-29.813a2.427 2.427 0 0 1 4.739.751l-.118 31.31a2.428 2.428 0 0 0 4.4 1.428l18.308-25.4a2.427 2.427 0 0 1 4.275 2.178l-9.787 29.741a2.428 2.428 0 0 0 3.741 2.717l25.26-18.5a2.428 2.428 0 0 1 3.394 3.393l-18.5 25.261a2.427 2.427 0 0 0 2.718 3.74l29.741-9.787a2.428 2.428 0 0 1 2.178 4.276l-25.4 18.308a2.428 2.428 0 0 0 1.429 4.4l31.31-.118a2.427 2.427 0 0 1 .751 4.739l-29.816 9.562a2.427 2.427 0 0 0 0 4.623l29.814 9.563a2.428 2.428 0 0 1-.751 4.74l-31.31-.118a2.428 2.428 0 0 0-1.429 4.4l25.4 18.308a2.427 2.427 0 0 1-2.178 4.275l-29.741-9.787a2.428 2.428 0 0 0-2.718 3.736l18.5 25.26a2.428 2.428 0 0 1-3.394 3.393l-25.26-18.5a2.428 2.428 0 0 0-3.741 2.717l9.787 29.741a2.427 2.427 0 0 1-4.275 2.178l-18.308-25.4a2.428 2.428 0 0 0-4.4 1.428l.118 31.31a2.427 2.427 0 0 1-4.739.751l-9.563-29.813a2.428 2.428 0 0 0-4.624 0l-9.563 29.813a2.428 2.428 0 0 1-4.74-.751l.118-31.31a2.428 2.428 0 0 0-4.4-1.428l-18.308 25.4a2.427 2.427 0 0 1-4.275-2.178l9.787-29.741a2.428 2.428 0 0 0-3.741-2.717l-25.26 18.5a2.428 2.428 0 0 1-3.393-3.393l18.5-25.26a2.428 2.428 0 0 0-2.717-3.741l-29.74 9.79a2.428 2.428 0 0 1-2.179-4.275l25.4-18.308a2.428 2.428 0 0 0-1.429-4.4l-31.31.118a2.428 2.428 0 0 1-.75-4.74l29.813-9.563a2.427 2.427 0 0 0 0-4.623l-29.81-9.558a2.427 2.427 0 0 1 .75-4.739l31.31.118a2.428 2.428 0 0 0 1.429-4.4l-25.4-18.308a2.428 2.428 0 0 1 2.179-4.276l29.741 9.787a2.427 2.427 0 0 0 2.717-3.74l-18.5-25.261a2.428 2.428 0 0 1 3.393-3.393l25.26 18.5a2.428 2.428 0 0 0 3.741-2.717l-9.785-29.743a2.427 2.427 0 0 1 4.275-2.178l18.308 25.4a2.428 2.428 0 0 0 4.4-1.428l-.118-31.31a2.428 2.428 0 0 1 4.74-.751l9.563 29.813a2.428 2.428 0 0 0 4.62 0z" transform="translate(919.654 382.429)" style="stroke:#6badcb;fill:none;stroke-width:5px"/>
        </g>
    </g>
</svg>
