<svg xmlns="http://www.w3.org/2000/svg" width="1655" height="1083" viewBox="0 0 1655 1083">
    <defs>
        <clipPath id="clip-path">
            <path id="Rectangle_723" data-name="Rectangle 723" transform="translate(535 4711)" style="stroke:#707070;fill:#fff" d="M0 0h851v441H0z"/>
        </clipPath>
        <style>
            .cls-3{fill:#fff}.cls-2,.cls-5{fill:#f04e30}.cls-2{font-size:25px;font-family:IBMPlexSansThaiLooped-Medium,IBM Plex Sans Thai Looped;font-weight:500}.cls-3{font-size:35px;font-family:Helvetica;letter-spacing:.05em}.cls-9{fill:none}.cls-5{stroke:#f04e30;stroke-width:3px}.cls-8{stroke:none}
        </style>
    </defs>
    <g id="Group_1027" data-name="Group 1027" transform="translate(-154 -4286)">
        <text id="ออกแบบการสร้างการเปลี่ยนแปลง" class="cls-2" transform="translate(1348 5105)"><tspan x="0" y="0">ออกแบบการสร้างการเปลี่ยนแปลง</tspan></text>
        <text id="ผลักดันให้เกิดการเปลี่ยนแปลง" class="cls-2" transform="translate(1454 4835)"><tspan x="0" y="0">ผลักดันให้เกิดการเปลี่ยนแปลง</tspan></text>
        <text id="ทำความเข้าใจระบบ" class="cls-2" transform="translate(428 5105)"><tspan x="-214.25" y="0">ทำความเข้าใจระบบ</tspan></text>
        <text id="ตั้งเป้าภาพสำเร็จและหาความเป็นไปได้" class="cls-2" transform="translate(994 5356)"><tspan x="-212.55" y="0">ตั้งเป้าภาพสำเร็จและหาความเป็นไปได้</tspan></text>
        <text id="กำหนดขอบเขตของระบบ" class="cls-2" transform="translate(438 4789)"><tspan x="-283.825" y="0">กำหนดขอบเขตของระบบ</tspan></text>
        <text id="_1_Frame_the_system" data-name="1 Frame the system" class="cls-3" transform="translate(154 4701)"><tspan x="0" y="0">1</tspan><tspan x="0" y="45">Frame the system</tspan></text>
        <text id="_4_Design_the_Intervention" data-name="4 Design the Intervention" class="cls-3" transform="translate(1348 4971)"><tspan x="0" y="0">4</tspan><tspan x="0" y="45">Design the </tspan><tspan x="0" y="90">Intervention</tspan></text>
        <text id="_5_Foster_the_Transition_to_Change" data-name="5 Foster the Transition to Change" class="cls-3" transform="translate(1454 4701)"><tspan x="0" y="0">5</tspan><tspan x="0" y="45">Foster the Transition</tspan><tspan x="0" y="90">to Change</tspan></text>
        <text id="_2_Listen_Understand_the_system" data-name="2 Listen &amp; Understand the system" class="cls-3" transform="translate(218 4971)"><tspan x="0" y="0">2</tspan><tspan x="0" y="45">Listen &amp; Understand</tspan><tspan x="0" y="90">the system</tspan></text>
        <text id="_3_Define_the_Desired_Future_Possibility" data-name="3 Define the Desired Future &amp; Possibility" class="cls-3" transform="translate(786 5222)"><tspan x="0" y="0">3</tspan><tspan x="0" y="45">Define the Desired</tspan><tspan x="0" y="90">Future &amp; Possibility</tspan></text>
        <g id="Ellipse_63" data-name="Ellipse 63" transform="translate(535 4286)" style="stroke:#fff;stroke-width:4px;opacity:.1;fill:none">
            <circle class="cls-8" cx="425" cy="425" r="425"/>
            <circle class="cls-9" cx="425" cy="425" r="423"/>
        </g>
        <g id="Ellipse_67" data-name="Ellipse 67" class="cls-5" transform="translate(498 4674)">
            <circle class="cls-8" cx="37.5" cy="37.5" r="37.5"/>
            <circle class="cls-9" cx="37.5" cy="37.5" r="36"/>
        </g>
        <g id="Ellipse_74" data-name="Ellipse 74" class="cls-5" transform="translate(1226 4964)">
            <circle class="cls-8" cx="37.5" cy="37.5" r="37.5"/>
            <circle class="cls-9" cx="37.5" cy="37.5" r="36"/>
        </g>
        <g id="Ellipse_75" data-name="Ellipse 75" class="cls-5" transform="translate(1348 4674)">
            <circle class="cls-8" cx="37.5" cy="37.5" r="37.5"/>
            <circle class="cls-9" cx="37.5" cy="37.5" r="36"/>
        </g>
        <g id="Ellipse_68" data-name="Ellipse 68" class="cls-5" transform="translate(607 4964)">
            <circle class="cls-8" cx="37.5" cy="37.5" r="37.5"/>
            <circle class="cls-9" cx="37.5" cy="37.5" r="36"/>
        </g>
        <g id="Ellipse_71" data-name="Ellipse 71" class="cls-5" transform="translate(920 5099)">
            <circle class="cls-8" cx="37.5" cy="37.5" r="37.5"/>
            <circle class="cls-9" cx="37.5" cy="37.5" r="36"/>
        </g>
        <g id="Mask_Group_52" data-name="Mask Group 52" style="clip-path:url(#clip-path)">
            <g id="Path_368" data-name="Path 368" style="stroke-dasharray:4 7;fill:none">
                <path class="cls-8" d="M425 0c197.87 0 364.157 135.222 411.5 318.337A425.67 425.67 0 0 1 850 425c0 234.721-190.279 425-425 425S0 659.721 0 425 190.279 0 425 0z" transform="translate(535 4286)"/>
                <path d="M425 0h.405a23.282 23.282 0 0 0 .208 0H425.762c.7.002 1.398.005 2.097.01h.185l.963.008-.037 4A430.219 430.219 0 0 0 425 4V0zm11 .14c.517.013 1.04.027 1.555.042h.022l.105.004h.045a44.985 44.985 0 0 0 .138.005l.086.003.052.001.126.004.083.002.05.002.084.003.048.001c.027 0 .053.002.08.003l.057.001.076.003c.024 0 .037 0 .061.002l.07.002.067.002.068.002.272.009h.008l.138.005.713.024-.139 3.997c-1.315-.045-2.65-.085-3.966-.119l.102-3.998zm10.994.42c1.334.067 2.666.141 3.997.222l-.24 3.992c-1.314-.079-2.646-.153-3.96-.22l.203-3.995zm10.978.7.032.003.03.002a419.417 419.417 0 0 1 2.545.203l.084.007 1.298.11-.343 3.985c-1.31-.113-2.64-.221-3.952-.322l.306-3.988zm10.957.983c1.329.136 2.653.278 3.978.427l-.446 3.975a424.712 424.712 0 0 0-3.94-.423l.408-3.98zm10.928 1.265.027.003.01.002.112.014.062.008.059.008.09.011a3.358 3.358 0 0 1 .136.018 440.752 440.752 0 0 1 1.616.213l.061.009.082.01.035.005.108.015.019.002c.524.07 1.023.139 1.546.211L483.272 8c-1.302-.18-2.623-.357-3.927-.525l.512-3.967zm10.89 1.547c1.318.204 2.634.415 3.948.632l-.651 3.947a420.9 420.9 0 0 0-3.91-.627l.613-3.952zm10.847 1.829.085.015.01.002a422.853 422.853 0 0 1 2.783.517l.083.015.097.019.016.003.854.163-.753 3.928c-1.29-.247-2.6-.492-3.892-.727l.717-3.935zm10.795 2.11.609.128h.005l.102.022.046.01.072.015.08.017.04.009.115.024.015.003.533.113.03.007.1.02.038.009.086.018.055.012.066.014.073.016.038.008c.602.129 1.204.26 1.805.39l-.856 3.908a424.29 424.29 0 0 0-3.87-.828l.818-3.915zm10.736 2.39c.54.128 1.056.25 1.596.38l.043.01.08.02.065.016.062.015.065.015.063.016c.024.005.047.01.07.017l.054.012.073.018a22.926 22.926 0 0 1 .18.044l.073.017.089.022.039.01.265.064.004.001c.36.087.707.173 1.066.261l-.957 3.884a417.082 417.082 0 0 0-3.85-.93l.92-3.892zm10.67 2.67c1.294.34 2.575.685 3.863 1.039L536.6 18.95a421.28 421.28 0 0 0-3.826-1.03l1.021-3.867zM544.392 17c1.281.374 2.56.754 3.836 1.14l-1.158 3.829a423.3 423.3 0 0 0-3.8-1.13l1.122-3.84zm10.517 3.222a420.546 420.546 0 0 1 2.92.948l.072.023.09.03.016.005.708.234-1.258 3.797a421.468 421.468 0 0 0-3.77-1.228l1.222-3.81zm10.43 3.495c.26.09.504.176.762.267l.03.01a21.84 21.84 0 0 0 .133.047l.061.022.072.026.023.008.804.284.005.002.107.038.018.006.097.035.03.01.088.032.038.014.08.028.07.025.045.016c.442.158.868.31 1.308.47l-1.356 3.762a421.86 421.86 0 0 0-3.735-1.326l1.32-3.776zm10.336 3.767c1.248.473 2.492.952 3.734 1.436l-1.454 3.727a416.245 416.245 0 0 0-3.698-1.423l1.418-3.74zm10.234 4.034c.979.401 1.946.801 2.921 1.209l.005.002.12.05.006.003.12.05a385.798 385.798 0 0 1 .521.219l-1.55 3.687a421.53 421.53 0 0 0-3.659-1.518l1.516-3.702zm10.125 4.3c.875.385 1.75.774 2.622 1.165l.01.004.071.032.949.427-1.646 3.646a417.49 417.49 0 0 0-3.618-1.613l1.612-3.661zm10.009 4.562a416.502 416.502 0 0 1 2.398 1.14l.035.016.085.041.035.017a25.04 25.04 0 0 0 .121.058l.08.038c.013.007.027.014.042.02l.069.034.052.025.07.034.046.022.077.037.042.02.088.042.03.015.116.056.037.018.084.04.028.014.073.035-1.74 3.602a419.018 419.018 0 0 0-3.574-1.706l1.706-3.618zm9.887 4.82.64.323.035.018.044.022.077.04.026.012.102.052.003.001c.877.445 1.763.898 2.636 1.348l-1.833 3.555a423.24 423.24 0 0 0-3.53-1.799l1.8-3.572zm9.758 5.075a127.654 127.654 0 0 1 .24.129c1.095.589 2.187 1.182 3.276 1.78l-1.925 3.506a417.723 417.723 0 0 0-3.483-1.89l1.892-3.525zm9.623 5.327a433.007 433.007 0 0 1 3.072 1.77l.004.002.096.056.049.028.048.028.088.051.003.002.106.062-2.015 3.456a425.96 425.96 0 0 0-3.433-1.98l1.982-3.475zm9.484 5.575c1.14.69 2.278 1.387 3.412 2.088l-2.104 3.402a426.033 426.033 0 0 0-3.38-2.068l2.072-3.422zm9.335 5.819.377.242.003.002.111.071.002.002.113.072c.917.59 1.839 1.189 2.75 1.786l-2.19 3.346c-1.1-.72-2.219-1.445-3.326-2.154l2.16-3.367zm9.182 6.057c.697.473 1.39.947 2.085 1.424l.016.011.081.056.053.036.053.037.059.04.044.03c.02.015.041.03.062.043l.047.033.061.042.042.029.062.042.057.04.044.03.086.06.015.01.432.298-2.277 3.29c-1.081-.749-2.18-1.503-3.268-2.24l2.246-3.31zm9.022 6.293c.547.393 1.104.794 1.649 1.189l.003.002.101.073.016.011.092.067.017.013.087.063.023.016.09.066.013.009c.381.277.768.558 1.148.836l-2.361 3.23a421.644 421.644 0 0 0-3.209-2.324l2.33-3.25zm8.856 6.524.295.223.012.01.083.062.03.023.07.052.045.035.052.04.075.057.026.02c.607.46 1.207.92 1.812 1.384l.017.013a86.334 86.334 0 0 0 .143.11l.03.023.09.07.003.002.395.304-2.443 3.167c-1.041-.803-2.1-1.612-3.149-2.406l2.414-3.19zm8.685 6.75c.71.566 1.419 1.135 2.125 1.706l.023.019.055.044.052.042.034.027a65.576 65.576 0 0 0 .091.074l.735.597-2.524 3.103a425.68 425.68 0 0 0-3.086-2.486l2.495-3.127zm8.509 6.97.899.758.01.01.091.076.012.01.089.075.012.01.096.082.003.003c.616.521 1.225 1.04 1.837 1.565l-2.603 3.037a425.591 425.591 0 0 0-3.02-2.564l2.574-3.062zm8.327 7.188.155.138.076.067.087.078a426.22 426.22 0 0 1 2.51 2.246l.147.132.006.006-2.68 2.969c-.976-.881-1.97-1.77-2.954-2.642l2.653-2.994zm8.138 7.4c.975.91 1.946 1.824 2.912 2.743l-2.755 2.899c-.953-.906-1.924-1.82-2.885-2.717l2.728-2.925zm7.946 7.607.007.006.146.144.044.043.13.128.06.059.117.115.07.07.103.1.084.084.072.07.111.111.068.067.111.11.073.072.098.097.088.087.066.065.119.119.061.06.125.125.052.051.134.133.042.042.142.141.03.03.154.154.012.011.156.157.017.017.158.158.022.022.154.153.015.015-2.83 2.827c-.93-.93-1.876-1.868-2.814-2.79l2.803-2.853zm7.748 7.808.02.02.133.138.037.04a165.875 165.875 0 0 1 .171.176l.155.161.011.012a424.6 424.6 0 0 1 2.24 2.342l-2.901 2.753a424.05 424.05 0 0 0-2.742-2.861l2.876-2.78zm7.544 8.006c.651.709 1.285 1.403 1.931 2.116l.013.014.14.155.059.065.077.086.11.122.042.046.143.158.018.02.158.176-2.97 2.678a426.54 426.54 0 0 0-2.667-2.93l2.946-2.707zm7.336 8.196.322.37c.764.879 1.535 1.772 2.292 2.657l-3.039 2.6a425.51 425.51 0 0 0-2.59-2.998l3.015-2.629zm7.122 8.383c.336.405.664.803.998 1.21l.001.002a144.374 144.374 0 0 1 .162.197l.013.015.071.087.013.015.063.078.023.028.061.075.022.026.056.069.071.086.036.045.066.08.012.015.07.085.01.013.074.09.005.006.709.87-3.105 2.522a421.636 421.636 0 0 0-2.512-3.064l3.081-2.55zm6.904 8.563a429.76 429.76 0 0 1 2.264 2.91l.192.247-3.17 2.441a423.175 423.175 0 0 0-2.432-3.128l3.146-2.47zm6.681 8.738c.295.396.592.796.885 1.193l.007.01.025.033c.487.66.973 1.321 1.457 1.984l-3.231 2.358a424.443 424.443 0 0 0-2.351-3.19l3.208-2.388zm6.454 8.908.028.04.012.016.056.08.03.042.036.051.048.068.017.025.057.08.013.019c.668.95 1.332 1.903 1.993 2.859l-3.291 2.274a420.097 420.097 0 0 0-2.268-3.25l3.269-2.304zm6.222 9.07c.74 1.11 1.474 2.223 2.204 3.34l-3.348 2.188c-.72-1.101-1.454-2.214-2.184-3.308l3.328-2.22zm5.985 9.23.194.308.012.018.05.08.026.042.04.062.034.055.03.05.05.076.018.03.052.083.019.03.057.092.012.019.068.107c0 .002.002.004.003.005l.067.107.065.104v.002a427.9 427.9 0 0 1 1.32 2.124l-3.403 2.101c-.69-1.119-1.397-2.25-2.098-3.363l3.384-2.132zm5.745 9.38c.68 1.142 1.36 2.299 2.029 3.448l-3.458 2.012a420.06 420.06 0 0 0-2.009-3.415l3.438-2.045zm5.5 9.527c.474.846.94 1.684 1.408 2.533l.011.02.047.085.039.07.017.031.416.759-3.508 1.922a420.163 420.163 0 0 0-1.92-3.465l3.49-1.955zm5.251 9.666c.622 1.179 1.237 2.36 1.847 3.546l-3.557 1.83a420.186 420.186 0 0 0-1.829-3.513l3.54-1.863zm4.999 9.797a430.525 430.525 0 0 1 1.754 3.595l-3.603 1.737a423.98 423.98 0 0 0-1.738-3.56l3.587-1.772zm4.742 9.925c.559 1.21 1.112 2.423 1.66 3.64l-3.647 1.642a421.845 421.845 0 0 0-1.644-3.605l3.631-1.677zm4.483 10.044c.53 1.231 1.046 2.446 1.565 3.683l-3.688 1.547c-.51-1.212-1.03-2.44-1.551-3.647l3.674-1.583zm4.22 10.159c.494 1.236.985 2.48 1.469 3.722l-3.728 1.451a419.007 419.007 0 0 0-1.455-3.687l3.713-1.486zm3.953 10.264a424.913 424.913 0 0 1 .208.562l.026.072c.253.685.504 1.371.753 2.058.004.011 0 .004.005.015l.03.081.022.061.016.046.036.098.005.015.271.752-3.764 1.353a422.54 422.54 0 0 0-1.359-3.724l3.751-1.389zm3.685 10.365a426.739 426.739 0 0 1 1.273 3.792l-3.798 1.255a418.436 418.436 0 0 0-1.26-3.756l3.785-1.29zm3.414 10.458a421.936 421.936 0 0 1 1.173 3.822l-3.83 1.156c-.379-1.258-.77-2.532-1.161-3.787l3.818-1.191zm3.14 10.543c.25.88.496 1.761.74 2.643l.002.005.031.114.003.009.03.112.003.01.263.957-3.858 1.055c-.346-1.267-.704-2.55-1.062-3.813l3.848-1.092zm2.863 10.62c.33 1.29.655 2.586.973 3.88l-3.884.955c-.314-1.277-.638-2.57-.964-3.844l3.876-.99zm2.586 10.692.165.728.003.013.043.187.017.079.019.083.032.144.015.067.03.13.015.07.028.121.016.074.03.136.022.095.013.059.045.205.001.004c.127.57.252 1.139.377 1.709l-3.908.852c-.28-1.284-.57-2.585-.863-3.867l3.9-.89zm2.306 10.755.008.04v.004l.079.391.004.024.037.183.006.028.076.383.002.014.04.196v.004c.175.886.347 1.77.516 2.658l-3.929.75c-.246-1.29-.502-2.599-.761-3.887l3.922-.788zm2.025 10.812.155.899v.004l.035.2v.004l.03.175a16.96 16.96 0 0 1 .036.211l.011.065.022.125.013.08.021.126.012.067.026.154.01.062.024.14.01.056.025.152.007.045.03.174.005.034.064.383.002.015.033.197.001.009.066.398.003.015.025.154-3.947.648a420.55 420.55 0 0 0-.66-3.906l3.94-.686zm1.743 10.86.072.493v.003l.033.222a3.436 3.436 0 0 0 .017.12l.014.098.015.103.018.12a22.917 22.917 0 0 0 .031.221l.01.061.021.156.007.047.02.143.009.057.022.156.01.071.016.11.018.13.01.064c.074.528.148 1.057.22 1.586l-3.962.545c-.18-1.302-.367-2.622-.559-3.923l3.958-.583zm1.46 10.903.007.05.007.057.021.178.003.024c.108.9.214 1.803.316 2.704l.001.012.043.378.007.057.016.15.01.093.008.06.022.205.001.005-3.975.443c-.146-1.307-.3-2.632-.457-3.936l3.97-.48zm1.18 10.936.168 1.82.01.101c0 .019.003.037.004.056l.018.195v.002c.054.602.107 1.207.158 1.81l-3.985.34c-.112-1.31-.232-2.638-.356-3.946l3.983-.378zm.896 10.964.083 1.219.005.082.008.125.008.111.004.072.01.158.004.062.011.167.003.044a104.502 104.502 0 0 1 .013.2l.01.153.005.078.008.128.007.112c0 .022.002.044.004.066l.074 1.214-3.993.238a426.101 426.101 0 0 0-.254-3.954l3.99-.275zm.616 10.982a281.797 281.797 0 0 1 .024.575l.002.055.008.181.001.028.008.2v.006c.018.419.034.838.05 1.257l.002.042.006.172.002.062.005.121.004.124.003.077.039 1.098-3.998.135a431.827 431.827 0 0 0-.153-3.96l3.997-.173zm.334 10.994v.009l.004.235v.009l.01.617v.01l.005.233v.015a672.41 672.41 0 0 1 .006.421l.002.148.001.096.001.078.002.16.001.058.002.18v.022c.008.57.014 1.139.018 1.709l-4 .034a430.692 430.692 0 0 0-.051-3.963l4-.071zm-3.945 10.977 4 .03-.007.866v.022l-.002.1v.078l-.001.092-.002.123v.035l-.001.141v.015c-.009.743-.019 1.48-.031 2.222v.002l-.005.304-4-.067c.023-1.315.04-2.648.05-3.963zm-.222 10.896 3.998.132c-.02.618-.043 1.235-.066 1.851v.03l-.004.09-.003.069-.003.073-.005.146v.01l-.007.156v.012c-.02.525-.041 1.035-.063 1.56l-3.997-.17c.056-1.313.106-2.645.15-3.96zm-.5 10.886 3.993.235-.078 1.289v.004l-.009.142-.002.041-.007.099-.01.16v.014l-.096 1.483-.002.022-.007.103-.008.131v.001l-.034.501-3.991-.272c.09-1.31.174-2.64.25-3.953zm-.78 10.87 3.987.336a454.829 454.829 0 0 1-.078.91l-.006.072-.005.049a435.15 435.15 0 0 1-.209 2.327v.01l-.014.14-.01.117-.003.028-.03.33-3.983-.375c.123-1.308.241-2.635.352-3.945zm-1.057 10.844 3.976.44c-.051.46-.102.914-.155 1.373l-.009.082-.005.047c-.094.824-.19 1.647-.29 2.469l-3.971-.477c.157-1.304.31-2.628.454-3.934zm-1.338 10.814 3.963.542a435.921 435.921 0 0 1-.104.754l-.008.062-.015.103-.005.04-.044.312-.001.011-.022.155v.006l-.045.317-.005.035-.015.107-.009.06-.01.074c-.091.641-.184 1.281-.277 1.92l-3.958-.579c.19-1.299.377-2.618.555-3.919zm-1.617 10.775 3.948.645c-.128.78-.257 1.558-.389 2.337l-.001.01-.02.113-.007.045-.022.128-.017.102-.008.043-.022.13a429.614 429.614 0 0 1-.177 1.032l-3.941-.682c.223-1.294.444-2.607.656-3.903zm-1.896 10.73 3.93.746a428.105 428.105 0 0 1-.766 3.924l-3.922-.785c.258-1.288.513-2.595.758-3.886zm-2.174 10.675 3.908.85-.157.723-.006.025-.068.312-.011.05-.02.087-.01.05-.022.095v.003c-.189.854-.38 1.706-.573 2.558l-3.9-.886c.29-1.282.58-2.583.859-3.867zm-2.452 10.616 3.886.95c-.318 1.296-.64 2.59-.97 3.881l-3.876-.987c.325-1.274.648-2.567.96-3.844zm-2.727 10.547 3.86 1.052c-.267.976-.533 1.94-.806 2.913l-.002.009-.036.127-.014.052-.023.08-.02.073v.001l-.17.601-3.85-1.088c.358-1.266.715-2.55 1.061-3.82zm-3.001 10.473 3.83 1.152a424.902 424.902 0 0 1-1.17 3.828l-3.82-1.188c.39-1.256.78-2.532 1.16-3.792zm-3.274 10.393 3.799 1.251a415.96 415.96 0 0 1-1.27 3.796l-3.787-1.288c.423-1.245.846-2.51 1.258-3.76zm-3.544 10.304 3.765 1.35c-.45 1.256-.907 2.51-1.369 3.76l-3.752-1.386a418.57 418.57 0 0 0 1.356-3.724zm-3.812 10.208 3.73 1.448-.563 1.439-.006.015-.045.116-.017.042-.03.078c-.267.678-.536 1.355-.806 2.032l-3.715-1.483a419.03 419.03 0 0 0 1.452-3.687zm-4.076 10.104 3.69 1.545a423.407 423.407 0 0 1-1.562 3.682l-3.675-1.58c.52-1.207 1.04-2.434 1.547-3.647zm-4.338 9.995 3.649 1.64c-.376.836-.754 1.67-1.135 2.503l-.003.006-.047.104-.472 1.027-3.633-1.674c.55-1.194 1.103-2.407 1.641-3.606zm-4.596 9.88 3.604 1.734c-.578 1.201-1.161 2.4-1.75 3.594l-3.588-1.768a420.003 420.003 0 0 0 1.734-3.56zm-4.852 9.755 3.558 1.828c-.378.737-.759 1.472-1.141 2.207l-.016.03-.046.088-.017.032-.07.135-.037.07-.025.048-.047.09-.02.039-.06.116a426.042 426.042 0 0 1-.364.693l-3.54-1.861a420.188 420.188 0 0 0 1.825-3.515zm-5.103 9.627 3.51 1.919a449.29 449.29 0 0 1-.517.942l-.064.115-.012.022-.07.129-.018.032-.054.097-.024.044-.047.085-.026.047-.053.095-.017.033-.068.122-.026.047-.045.08-.028.051-.045.081-.026.048c-.026.047-.04.074-.067.12a12.09 12.09 0 0 0-.067.122l-.036.065-.034.061-.038.068-.028.05-.154.278-.01.016c-.12.217-.24.433-.362.65l-3.491-1.952a418.45 418.45 0 0 0 1.917-3.467zm-5.351 9.49 3.458 2.01a424.932 424.932 0 0 1-1.633 2.787l-.042.07-.35.593-3.44-2.042c.671-1.13 1.346-2.28 2.007-3.417zm-5.596 9.35 3.406 2.099c-.7 1.136-1.405 2.267-2.115 3.396l-3.386-2.13a416.31 416.31 0 0 0 2.095-3.365zm-5.835 9.202 3.35 2.186-.322.492-.006.01-.078.118-.056.086-.019.029-.066.1-.002.003c-.342.523-.686 1.044-1.03 1.565l-.002.002-.068.102-.553.834-3.33-2.218a425.39 425.39 0 0 0 2.182-3.309zm-6.072 9.049 3.292 2.271-.386.56-.052.074-.025.036-.066.095-.015.023c-.577.831-1.16 1.667-1.743 2.494l-3.271-2.302c.757-1.075 1.52-2.17 2.266-3.251zm-6.304 8.888 3.233 2.356c-.708.971-1.42 1.939-2.135 2.904l-.022.03-.044.06-.17.228-3.21-2.386c.784-1.055 1.574-2.13 2.348-3.192zm-6.53 8.723 3.17 2.439c-.364.474-.72.934-1.086 1.407l-.006.008a144.584 144.584 0 0 1-.11.14l-.055.071-.038.05-.035.045-.122.156v.002l-.077.097v.002c-.308.394-.615.788-.924 1.181l-3.147-2.468a425.437 425.437 0 0 0 2.43-3.13zm-6.754 8.552 3.107 2.52c-.623.768-1.248 1.534-1.876 2.298l-.034.04-.051.063a20.593 20.593 0 0 0-.176.213l-.017.021-.077.093-.028.034-.064.078-.033.04-.07.086-.022.026-.085.102-3.083-2.548a423.272 423.272 0 0 0 2.51-3.066zm-6.97 8.375 3.04 2.599-.81.945-.005.006-.158.183-.011.014-.135.156-.032.038-.131.152-.056.064-.082.096a57.51 57.51 0 0 1-.172.198l-.079.092-.053.06-.135.157-.05.058-.084.097-.046.053-.134.155-.066.075-.066.076a271.236 271.236 0 0 1-.164.19l-.143.163-3.017-2.626c.864-.992 1.734-2.001 2.588-3zm-7.185 8.193 2.973 2.676c-.462.513-.929 1.03-1.393 1.54l-.052.058-.127.14-.07.075-.073.08-.087.096-.089.098-.087.095-.063.07-.124.136-.058.063-.09.097-.06.067-.121.133-.07.076-.072.078-.054.059-2.948-2.704a424.93 424.93 0 0 0 2.665-2.933zm-7.393 8.006 2.903 2.751a430.699 430.699 0 0 1-2.765 2.89l-2.877-2.778c.913-.946 1.834-1.91 2.739-2.863zm-7.597 7.812 2.832 2.825-.002.002-.16.16-.033.034-.158.158-.002.002-.153.153-.04.04-.15.15-.03.03-.136.135-.032.031-.156.156-.025.025-.335.333-.009.009c-.471.468-.944.935-1.417 1.4l-2.806-2.85c.938-.923 1.884-1.862 2.812-2.793zm-7.795 7.615 2.758 2.897-.097.092-.038.037-.09.086-.069.065-.13.124a38.024 38.024 0 0 1-.242.23l-.122.115-.056.053-.31.293-.03.029-.327.308-.013.013-.199.186-.034.032c-.038.037-.06.058-.1.094l-.074.07-.112.106-.107.1a414.284 414.284 0 0 1-.76.712l-2.73-2.923c.96-.898 1.93-1.813 2.882-2.719zm-7.988 7.412 2.683 2.967a433.212 433.212 0 0 1-1.912 1.718l-.09.081-.03.026-.084.075-.09.08c-.01.01-.02.017-.03.026-.247.221-.495.442-.744.662l-2.654-2.992c.983-.872 1.976-1.762 2.951-2.643zm-8.176 7.203 2.606 3.035c-.484.416-.974.834-1.46 1.248l-.113.095-.016.014-.098.084-.02.017-.104.088-.054.046-.053.045-.062.053-.045.037-.06.051-.066.056a58.032 58.032 0 0 1-.152.129l-.022.019-.1.085-.012.01-.61.515-2.578-3.06c1.006-.847 2.021-1.71 3.02-2.567zm-8.359 6.991 2.527 3.101c-.514.419-1.029.836-1.544 1.252l-.021.017-.082.066-.026.02-.128.104-.05.04-.049.04-.073.059-.033.026-.104.084-.006.005-.997.8-2.498-3.125c1.027-.821 2.065-1.659 3.084-2.489zm-8.536 6.773 2.446 3.165c-.631.488-1.273.982-1.908 1.466l-.01.008-.1.076-.041.032-.06.046-1.058.804-2.416-3.188a423.334 423.334 0 0 0 3.147-2.409zm-8.707 6.551 2.363 3.227c-.483.354-.958.7-1.443 1.052v.001l-.115.083-.028.02-.081.059-.05.036-.02.015-.183.132c-.44.318-.879.635-1.319.95l-2.333-3.248a420.29 420.29 0 0 0 3.209-2.327zm-8.874 6.324 2.28 3.287a429.09 429.09 0 0 1-3.299 2.264l-2.248-3.308a420.172 420.172 0 0 0 3.267-2.243zm-9.034 6.093 2.193 3.345c-.914.6-1.823 1.191-2.742 1.783l-.045.03-.06.038-.085.055-.005.003-.418.269-2.162-3.365c1.106-.71 2.224-1.437 3.324-2.158zm-9.189 5.858 2.107 3.4a423.154 423.154 0 0 1-3.41 2.09l-2.074-3.42c1.123-.681 2.26-1.378 3.377-2.07zm-9.336 5.617 2.017 3.454c-1.027.6-2.025 1.178-3.057 1.77l-.055.03-.041.024c-.103.06-.206.118-.31.177l-1.984-3.473c1.14-.652 2.295-1.319 3.43-1.982zm-9.479 5.374 1.928 3.505-.985.54-.006.003-.105.057-.006.004c-.05.026-.098.053-.147.08l-.086.046-.044.025-.094.051-.031.017-.4.218-.023.012-.12.065-.014.008-.261.141-.054.03-.062.033-.081.044-.014.008-.98.528-1.895-3.523c1.157-.622 2.328-1.259 3.48-1.892zm-9.614 5.126 1.835 3.554c-1.19.615-2.365 1.214-3.562 1.819l-1.802-3.571c1.173-.593 2.36-1.199 3.529-1.802zm-9.745 4.874 1.743 3.6a422.6 422.6 0 0 1-3.609 1.727l-1.709-3.617a419.394 419.394 0 0 0 3.575-1.71zm-9.868 4.62 1.65 3.644-.023.01-.307.14-.016.006-.094.043-.033.015-.094.042-.015.007-.308.139-.036.015-.089.04-.035.016-.287.129-.044.02-.077.034-.055.025-.072.032-.078.035-.072.032-.104.047-.048.021-.095.042-.036.017-.127.056-.007.003c-.503.225-.997.444-1.502.666l-1.614-3.66c1.203-.53 2.42-1.074 3.618-1.616zm-9.984 4.361 1.553 3.687a445.01 445.01 0 0 1-1.425.597l-.122.05-.04.018-.092.038-.272.113-.014.006c-.576.24-1.153.477-1.73.714l-1.519-3.7a417.58 417.58 0 0 0 3.66-1.523zm-10.095 4.1 1.457 3.726-.524.204-.034.013-.09.035-.267.104-.027.01-.57.221-.008.004-.314.12-.04.016-.077.03-.063.024-.065.025-.096.037-.037.014-.141.055-.015.005-.13.05-.022.008a403.913 403.913 0 0 1-1.056.404l-.125.048-.028.01-.005.002-1.422-3.739c1.23-.467 2.474-.947 3.699-1.426zm-10.199 3.836 1.36 3.762c-1.249.45-2.516.902-3.77 1.341l-1.323-3.774c1.24-.435 2.497-.882 3.733-1.33zm-10.295 3.568 1.26 3.796-.493.164-.03.01-.097.032-.075.025a422.44 422.44 0 0 1-3.106 1.012l-1.224-3.808c1.25-.403 2.518-.817 3.765-1.23zm-10.385 3.299 1.161 3.828a369.03 369.03 0 0 1-.797.24l-.064.02-.095.028h-.001a427.33 427.33 0 0 1-2.286.681l-.053.016-.11.032-.023.007-.402.118-1.125-3.839c1.261-.37 2.538-.75 3.795-1.131zm-10.468 3.026 1.061 3.857c-.575.158-1.15.315-1.726.471l-.101.027-.032.009c-.674.182-1.325.356-2 .535l-1.023-3.867c1.27-.336 2.555-.683 3.821-1.032zm-10.54 2.752.96 3.884-.057.013-.062.016-.131.032-.062.015-.08.02-.068.017-.07.017-.297.073-.03.007-.106.026-.019.005c-.967.236-1.934.47-2.904.7l-.923-3.893c1.278-.303 2.573-.616 3.848-.932zm-10.61 2.477.858 3.907c-.87.19-1.74.38-2.613.565l-.106.023-.029.006-1.16.245-.822-3.915c1.286-.27 2.589-.55 3.872-.831zm-10.67 2.2.756 3.927c-.612.118-1.225.235-1.838.35h-.003a31.114 31.114 0 0 0-.154.03l-.06.01-.106.02-.037.007-.147.028-.033.006-.114.021a16.06 16.06 0 0 1-.05.01l-.096.017-.057.011-.1.018-.133.025-.025.005-.978.18-.719-3.935c1.293-.236 2.603-.482 3.893-.73zm-10.725 1.92.654 3.947c-1.314.218-2.631.43-3.949.635l-.617-3.952c1.3-.203 2.615-.414 3.912-.63zm-10.771 1.643.552 3.962c-1.325.184-2.637.36-3.966.533l-.514-3.967c1.304-.169 2.626-.347 3.928-.528zm-10.81 1.363.449 3.975a55.568 55.568 0 0 0-.105.011c-.556.063-1.097.123-1.654.184l-.05.005-.089.01-.08.008-.037.004c-.655.071-1.31.14-1.964.208l-.412-3.979a422.37 422.37 0 0 0 3.942-.426zm-10.843 1.083.347 3.985-.61.053-.057.005-.063.005c-1.094.093-2.164.18-3.26.265l-.31-3.988c1.313-.101 2.643-.21 3.953-.325zm-10.867.805.244 3.992-.034.002-.026.002-.141.008-.02.001-.324.02-.016.001-.496.03h-.007a424.242 424.242 0 0 1-1.366.078l-.139.007-.027.002a125.58 125.58 0 0 1-.198.01l-.098.006-.08.004-.055.003a425.1 425.1 0 0 1-.97.052l-.207-3.995c1.314-.068 2.647-.143 3.96-.223zm-10.885.525.142 3.997-.07.003-.048.002-.047.001c-1.278.045-2.557.084-3.838.118l-.105-3.999c1.317-.034 2.651-.075 3.966-.122zm-10.895.248.04 4c-1.329.013-2.674.02-4.006.02l-.003-4c1.317 0 2.653-.007 3.97-.02zm-14.868-.109c1.312.032 2.643.059 3.956.08l-.062 3.999-.681-.011-.04-.001-.105-.002c-.052 0-.103-.002-.155-.003h-.02a428.81 428.81 0 0 1-1.986-.04h-.03l-.1-.003c-.058 0-.09-.002-.147-.003h-.013l-.715-.017.098-3.999zm-10.891-.407c1.311.065 2.641.126 3.954.18l-.164 3.996-.366-.015h-.02l-.106-.005-.125-.005a9.277 9.277 0 0 0-.17-.008h-.029c-.907-.04-1.785-.08-2.691-.124l-.066-.004-.061-.003-.357-.017.201-3.995zm-10.877-.686c1.31.1 2.639.194 3.95.281l-.266 3.991c-.66-.044-1.32-.089-1.979-.136l-.017-.001-.077-.006-.086-.006-.052-.004c-.605-.043-1.171-.085-1.776-.13l.303-3.99zm-10.855-.965c1.307.133 2.634.262 3.943.383l-.369 3.983a430.686 430.686 0 0 1-3.98-.387l.406-3.98zm-10.826-1.245c1.304.167 2.627.33 3.933.485l-.47 3.972-.4-.047-.04-.005c-.028-.003-.077-.01-.104-.012l-.061-.008-.086-.01-.126-.015-.063-.008-.083-.01-.066-.008-.079-.01-.082-.01a58.037 58.037 0 0 1-.2-.024l-.052-.006-.11-.013a417.209 417.209 0 0 1-2.419-.303l.508-3.968zm-10.79-1.524c1.3.201 2.619.398 3.92.587l-.573 3.959c-.565-.082-1.13-.165-1.696-.25l-.05-.007a29.58 29.58 0 0 1-.074-.011l-.085-.013-.054-.008c-.674-.1-1.325-.2-1.998-.304l.61-3.953zm-10.746-1.803c1.295.234 2.609.466 3.905.688l-.675 3.943c-.588-.1-1.176-.203-1.762-.306h-.002l-.149-.026-.023-.005-.152-.026h-.003l-.145-.027-.058-.01-.082-.014-.075-.014-.052-.009-1.44-.258.713-3.936zm-10.695-2.082c1.288.268 2.596.534 3.887.79l-.778 3.924-.488-.098h-.006l-.109-.022-.1-.02-.027-.006c-1.069-.214-2.128-.43-3.194-.652l.815-3.916zm-10.637-2.36c1.28.302 2.58.602 3.864.891l-.88 3.902c-.552-.124-1.103-.25-1.654-.376l-.077-.018a20.13 20.13 0 0 1-.058-.013c-.027-.006-.082-.02-.109-.025l-.028-.007-1.272-.295-.019-.004-.11-.026-.072-.017a559.927 559.927 0 0 1-.502-.118l.917-3.893zm-10.572-2.635c1.272.335 2.563.668 3.838.99l-.981 3.879-1.107-.282-.085-.022a428.063 428.063 0 0 1-2.683-.697l1.018-3.868zm-10.499-2.91c1.262.367 2.544.734 3.81 1.09l-1.082 3.85a423.123 423.123 0 0 1-3.847-1.1l1.119-3.84zm-10.42-3.184c1.252.4 2.524.8 3.78 1.19l-1.183 3.82c-.975-.301-1.952-.607-2.924-.916l-.027-.008a461.393 461.393 0 0 1-.864-.275l1.218-3.81zm-10.333-3.453c1.241.432 2.502.865 3.747 1.287l-1.282 3.789a17.247 17.247 0 0 1-.06-.02l-.01-.004-.297-.1-.032-.011c-.025-.01-.076-.026-.101-.035l-.065-.022a425.948 425.948 0 0 1-3.216-1.107l1.316-3.777zm-10.239-3.722c1.23.465 2.478.93 3.711 1.383l-1.38 3.755c-.788-.29-1.598-.59-2.384-.885l-.047-.017-.07-.027c-.416-.155-.83-.311-1.245-.468l1.415-3.741zm-10.138-3.988c1.216.497 2.452.994 3.672 1.48l-1.477 3.717c-.552-.22-1.094-.436-1.645-.658l-.04-.016-.08-.032-.086-.035-.011-.005c-.616-.248-1.231-.497-1.846-.748l1.513-3.703zm-10.033-4.251c1.203.528 2.426 1.058 3.634 1.575l-1.574 3.678a421.807 421.807 0 0 1-3.669-1.59l1.609-3.663zm-9.92-4.511c1.19.56 2.4 1.121 3.594 1.67l-1.67 3.635-.652-.3-.041-.02-.064-.029-.098-.045a426.856 426.856 0 0 1-2.771-1.292l1.703-3.62zm-9.797-4.767c1.175.59 2.369 1.183 3.549 1.763l-1.763 3.59a423.58 423.58 0 0 1-3.583-1.78l1.797-3.573zm-9.671-5.02c1.16.62 2.338 1.245 3.503 1.855l-1.856 3.543-.032-.017-.037-.019-.099-.052-.033-.017-.116-.06-.039-.021-.102-.054-.058-.03a55.607 55.607 0 0 0-.178-.094c-.95-.5-1.897-1.002-2.842-1.508l1.889-3.526zm-9.537-5.27c1.142.651 2.304 1.306 3.453 1.946l-1.947 3.494-.751-.42-.025-.013-.078-.044-.078-.044a427.131 427.131 0 0 1-2.554-1.443l1.98-3.476zm-9.398-5.514c1.125.68 2.27 1.364 3.401 2.033l-2.036 3.443-.03-.017-.023-.014-.116-.069-.013-.007-.403-.24-.012-.006-.127-.076-.007-.004-.26-.155-.035-.02-.094-.056-.038-.023-.096-.057-.032-.02-.118-.07-.056-.033c-.023-.014-.04-.025-.064-.038l-.068-.041-.053-.032-.068-.04a32.998 32.998 0 0 1-.048-.029l-.14-.084-.04-.024-.079-.047a21.634 21.634 0 0 1-.039-.023l-.078-.047a20.043 20.043 0 0 1-.048-.03l-.074-.043-.11-.067-.04-.023-.094-.057-.028-.017-.12-.072-.005-.003-.778-.469 2.069-3.423zm-9.252-5.756c1.108.709 2.234 1.422 3.347 2.12l-2.125 3.39-.27-.17-.068-.043-.035-.022c-.666-.419-1.346-.848-2.01-1.27l-.002-.002c-.045-.03-.074-.047-.119-.076l-.02-.014-.118-.074-.076-.049-.035-.022-.626-.4 2.157-3.368zm-9.1-5.994c1.089.738 2.196 1.48 3.291 2.207l-2.212 3.333a424.496 424.496 0 0 1-3.322-2.228l2.243-3.312zm-8.942-6.226c1.07.765 2.157 1.536 3.233 2.29l-2.297 3.275-.198-.139-.014-.01c-.129-.09-.258-.18-.387-.272l-.022-.016-.085-.059-.028-.02a92.94 92.94 0 0 0-.08-.057l-.03-.02-.14-.1-.047-.032-.064-.046-.052-.037-.062-.043-.073-.052-.04-.028-.12-.084-.013-.01-.113-.08-.014-.01c-.565-.4-1.119-.794-1.682-1.197l2.328-3.253zm-8.778-6.455c1.049.792 2.116 1.59 3.172 2.373l-2.38 3.214c-.597-.441-1.191-.884-1.785-1.329l-.022-.016-.035-.027-.1-.074-.006-.005c-.415-.311-.841-.632-1.255-.945l2.41-3.191zm-8.61-6.68c1.028.82 2.075 1.645 3.11 2.454l-2.462 3.152-.192-.15-.04-.03-.059-.047a427.76 427.76 0 0 1-2.85-2.25l2.493-3.129zm-8.435-6.9c1.007.846 2.032 1.699 3.047 2.535l-2.544 3.087-.962-.795-.003-.003-.09-.075-.019-.015-.082-.068-.098-.082-.04-.032-.083-.07a422.501 422.501 0 0 1-1.698-1.418l2.572-3.063zm-8.254-7.113c.985.87 1.988 1.75 2.98 2.611l-2.622 3.021-.025-.022-.119-.103-.121-.106-.023-.02c-.631-.548-1.263-1.101-1.891-1.654l-.024-.021a121.276 121.276 0 0 1-.23-.202l-.038-.034-.159-.14-.005-.005-.373-.33 2.65-2.995zm-8.069-7.324c.962.896 1.942 1.8 2.913 2.687l-2.7 2.952-.917-.841-.007-.007-.177-.162-.015-.014-.147-.135c-.01-.01-.033-.03-.042-.04l-.147-.135a28.011 28.011 0 0 1-.244-.226l-.106-.097-.087-.08-.06-.056-.173-.16-.027-.026a390 390 0 0 1-.79-.733l2.726-2.927zm-7.877-7.53c.939.921 1.895 1.85 2.842 2.762l-2.774 2.882a428.83 428.83 0 0 1-1.784-1.727l-.027-.027-.331-.323-.02-.02-.707-.69 2.801-2.857zm-7.681-7.729c.914.945 1.846 1.898 2.77 2.834l-2.847 2.81-.171-.174-.012-.012-.154-.156-.02-.02-.14-.143-.063-.064-.089-.09-.121-.124a496.854 496.854 0 0 1-2.026-2.078l2.873-2.783zm-7.48-7.924c.89.967 1.797 1.944 2.696 2.904l-2.918 2.735c-.881-.94-1.738-1.862-2.61-2.81l-.037-.04-.075-.081 2.944-2.708zm-7.274-8.114c.865.99 1.747 1.99 2.621 2.972l-2.988 2.66-.22-.248-.037-.042-.11-.123-.113-.128-.03-.034c-.38-.428-.758-.856-1.135-1.285l-.023-.026-.144-.164-.045-.051-.085-.097-.703-.803 3.012-2.631zm-7.062-8.3c.839 1.013 1.695 2.036 2.543 3.04l-3.055 2.582-.004-.005-.15-.178-.015-.018a429.55 429.55 0 0 1-1.75-2.086l-.016-.02a350.82 350.82 0 0 1-.142-.17l-.035-.043-.104-.125-.047-.057-.115-.138-.077-.093-.038-.046c-.026-.03-.05-.058-.075-.09l3.08-2.552zm-6.846-8.477a427.015 427.015 0 0 0 2.464 3.104l-3.12 2.502a420.12 420.12 0 0 1-2.488-3.133l3.144-2.473zm-6.626-8.65a425.318 425.318 0 0 0 2.384 3.165l-3.185 2.42a427.23 427.23 0 0 1-1.12-1.479l-.023-.03a30.167 30.167 0 0 1-.053-.07l-.038-.052a28.054 28.054 0 0 0-.05-.067l-.077-.102-.027-.036-.06-.08-.032-.042-.062-.082-.026-.036-.078-.103-.01-.013-.086-.115-.028-.037-.057-.077-.04-.053-.039-.051-.5-.67 3.207-2.39zm-6.4-8.82a421.629 421.629 0 0 0 2.3 3.226l-3.245 2.338a670.288 670.288 0 0 1-.418-.582l-.047-.064-.044-.062-.012-.017-.2-.278-.015-.023-.063-.087-.013-.018a90.656 90.656 0 0 1-.139-.195l-.027-.037-.069-.097-.01-.015c-.426-.596-.843-1.183-1.265-1.78l3.267-2.308zm-6.17-8.98c.73 1.092 1.476 2.197 2.216 3.283l-3.305 2.254a25.117 25.117 0 0 1-.028-.042l-.024-.034-.067-.099-.015-.023a84.81 84.81 0 0 1-.083-.122l-.016-.023-.07-.102-.018-.027-.077-.113-.004-.007a424.483 424.483 0 0 1-1.835-2.723l3.326-2.222zm-5.937-9.138a422.617 422.617 0 0 0 2.132 3.34l-3.362 2.168-.005-.008-.063-.097-.077-.12a424.389 424.389 0 0 1-1.557-2.436l-.068-.108-.03-.047-.044-.07-.037-.057-.024-.04-.247-.39 3.382-2.135zm-5.697-9.288c.672 1.13 1.36 2.272 2.044 3.395l-3.417 2.08-.636-1.048-.015-.026-.034-.055-.053-.089-.014-.023c-.442-.731-.874-1.452-1.312-2.186l3.437-2.048zm-5.456-9.432a421.096 421.096 0 0 0 1.956 3.447l-3.47 1.99-.422-.737-.007-.013-.072-.127-.028-.047-.04-.071-.039-.068-.028-.05a33.44 33.44 0 0 1-.046-.08l-.003-.006-.179-.314-.007-.012-.239-.422-.007-.011-.053-.094-.016-.03-.048-.084-.03-.053-.057-.1-.049-.087-.023-.041-.057-.102-.012-.02-.512-.91 3.488-1.958zm-5.21-9.57c.614 1.162 1.242 2.339 1.867 3.496l-3.52 1.9-.235-.435-.019-.035-.054-.101-.056-.105-.015-.028-.064-.117-.004-.01c-.482-.896-.962-1.799-1.437-2.7l3.538-1.866zm-4.959-9.703a427.4 427.4 0 0 0 1.775 3.544l-3.568 1.808-.002-.005c-.413-.814-.823-1.63-1.23-2.448l-.004-.007-.053-.105-.005-.011-.498-1.002 3.585-1.774zm-4.704-9.828a426.04 426.04 0 0 0 1.681 3.59l-3.614 1.714-.8-1.696-.052-.112-.003-.006-.093-.199-.012-.025a38.335 38.335 0 0 1-.034-.073l-.029-.062-.028-.06a53.15 53.15 0 0 1-.06-.13l-.13-.278-.003-.007c-.154-.329-.301-.646-.453-.975l3.63-1.68zm-4.448-9.945c.52 1.206 1.055 2.428 1.587 3.63l-3.657 1.62a426.426 426.426 0 0 1-1.027-2.338l-.017-.039-.038-.087-.12-.278c-.006-.013.002.005-.004-.007-.132-.305-.265-.61-.396-.916l3.672-1.585zm-4.187-10.059c.489 1.22.991 2.454 1.492 3.67l-3.699 1.524c-.226-.55-.443-1.078-.666-1.628l-.017-.04-.033-.083-.034-.082-.014-.036c-.249-.611-.496-1.223-.742-1.836l3.713-1.489zm-3.924-10.164c.457 1.232.927 2.478 1.395 3.706l-3.736 1.427c-.367-.96-.729-1.917-1.088-2.88l-.005-.014c-.02-.05-.03-.077-.048-.128l-.031-.083a20.342 20.342 0 0 0-.02-.055l-.041-.108-.003-.007-.173-.466 3.75-1.392zm-3.657-10.263c.425 1.243.861 2.502 1.298 3.741l-3.773 1.33-.004-.012-.027-.078c-.01-.025-.017-.05-.026-.075l-.019-.053c-.27-.767-.53-1.513-.796-2.283l-.008-.022-.04-.116-.015-.044-.03-.086-.345-1.008 3.785-1.294zm-3.389-10.355c.393 1.254.796 2.524 1.2 3.774l-3.805 1.23a422.514 422.514 0 0 1-1.078-3.382l-.005-.015-.032-.1-.097-.313 3.817-1.194zm-3.117-10.44c.36 1.264.73 2.544 1.102 3.805l-3.837 1.13a421.275 421.275 0 0 1-.88-3.026l-.016-.057-.037-.13-.001-.002-.179-.626 3.848-1.094zm-2.844-10.518c.326 1.273.664 2.563 1.002 3.833l-3.865 1.03-.008-.03-.011-.042c-.334-1.256-.67-2.537-.993-3.798l3.875-.993zm-2.569-10.59c.293 1.283.597 2.581.902 3.86l-3.89.93-.23-.972-.001-.002-.027-.113-.006-.024-.066-.28-.024-.101-.01-.042-.03-.133-.002-.007a420.34 420.34 0 0 1-.409-1.759l-.005-.024-.025-.108-.017-.072-.009-.04-.05-.22 3.899-.892zm-2.292-10.652c.26 1.29.53 2.596.802 3.883l-3.914.827a423.873 423.873 0 0 1-.81-3.92l3.922-.79zm-2.015-10.709c.227 1.296.463 2.61.701 3.904l-3.933.725-.1-.541-.002-.013-.028-.153-.001-.004-.058-.317c0-.007-.002-.013-.003-.02l-.027-.15-.001-.003-.059-.323v-.007a424.38 424.38 0 0 1-.176-.974v-.007l-.028-.153-.002-.01-.055-.311-.006-.033-.02-.115-.008-.046-.017-.097-.023-.129a13.461 13.461 0 0 1-.028-.156l-.002-.015-.064-.364 3.94-.688zm-1.735-10.758c.193 1.302.394 2.622.6 3.922l-3.952.623-.172-1.1-.003-.022a69.408 69.408 0 0 0-.018-.111l-.001-.013c-.14-.903-.277-1.808-.411-2.713l3.957-.586zM7.105 476.39c.159 1.307.326 2.63.497 3.935l-3.966.52a424.55 424.55 0 0 1-.502-3.971l3.97-.484zM5.928 465.56c.126 1.31.259 2.637.396 3.944l-3.978.418c-.075-.71-.148-1.421-.219-2.133l-.002-.019-.013-.135-.004-.036-.013-.132-.002-.023-.015-.15-.004-.04-.011-.117a400.892 400.892 0 0 1-.116-1.197l3.981-.38zm-.897-10.86c.092 1.313.19 2.642.294 3.953l-3.987.315-.071-.907-.004-.056-.007-.08-.134-1.8-.004-.063-.005-.067-.072-1.016 3.99-.278zm-.618-10.878c.058 1.313.123 2.645.193 3.957l-3.995.213c-.057-1.077-.11-2.155-.16-3.234l-.001-.025-.005-.107-.002-.049-.006-.13-.005-.104-.002-.045-.006-.14v-.008l-.007-.153 3.996-.175zm-.34-10.892c.024 1.314.055 2.646.092 3.96L.166 437a439.134 439.134 0 0 1-.083-3.496l-.01-.5 4-.074zM.01 421.992l4 .028a429.087 429.087 0 0 0-.009 3.972l-4 .009L0 425v-.876l.001-.14v-.191l.005-1.142v-.075l.001-.065v-.137l.001-.014.002-.368zm.216-10.998 3.998.13c-.042 1.315-.08 2.65-.11 3.966l-3.999-.093.021-.86.001-.045.002-.082a421.852 421.852 0 0 1 .075-2.614v-.035c.005-.122.008-.245.012-.367zm.497-10.988 3.993.231a428.076 428.076 0 0 0-.211 3.963l-3.996-.194c.031-.637.063-1.253.097-1.89v-.026l.007-.12.004-.062.004-.077.017-.31.001-.026c.027-.497.055-.993.084-1.49zm.777-10.973 3.986.334c-.11 1.312-.215 2.643-.312 3.956l-3.99-.297.073-.954.005-.074.005-.063.01-.134.001-.008a430.895 430.895 0 0 1 .22-2.739l.002-.02zm1.06-10.948 3.976.436a429.336 429.336 0 0 0-.414 3.945l-3.98-.399.007-.07.008-.086.006-.057.013-.127.002-.017a429.828 429.828 0 0 1 .382-3.625zm1.342-10.918 3.963.54c-.177 1.303-.35 2.626-.516 3.931l-3.968-.502a430.728 430.728 0 0 1 .519-3.954l.002-.015zm1.624-10.879 3.948.642a422.105 422.105 0 0 0-.618 3.916l-3.954-.605c.114-.742.233-1.507.35-2.247l.012-.073.008-.051c.084-.528.168-1.055.254-1.582zm1.905-10.833 3.93.744a420.573 420.573 0 0 0-.718 3.897l-3.937-.706c.237-1.322.476-2.618.726-3.935zm2.187-10.78 3.91.847a422.028 422.028 0 0 0-.82 3.876l-3.917-.81.33-1.586.003-.01.023-.112.007-.03.03-.144.02-.095a10.316 10.316 0 0 0 .04-.188c.091-.43.18-.85.273-1.281l.002-.007.028-.13.012-.057.015-.068.044-.205zm2.467-10.719 3.886.948a422.09 422.09 0 0 0-.92 3.853l-3.895-.911a470.48 470.48 0 0 1 .14-.598l.031-.133.028-.12v-.002c.2-.842.401-1.684.605-2.525l.014-.058.015-.062.096-.392zm2.744-10.65 3.86 1.048a415.853 415.853 0 0 0-1.02 3.827l-3.87-1.012c.337-1.285.683-2.584 1.03-3.863zm3.022-10.576 3.832 1.149a421.375 421.375 0 0 0-1.12 3.798l-3.842-1.113.384-1.318v-.002l.032-.107.01-.034.089-.301a50.543 50.543 0 0 1 .037-.127l.019-.064.023-.077.017-.059.046-.157.011-.037.028-.092.012-.042.029-.098.003-.01.39-1.31zm3.297-10.494 3.8 1.248c-.41 1.248-.82 2.516-1.218 3.768l-3.812-1.213c.334-1.05.674-2.103 1.016-3.15l.014-.044.018-.055.182-.554zm3.57-10.406 3.766 1.348a413.565 413.565 0 0 0-1.316 3.735l-3.78-1.311c.438-1.26.881-2.517 1.33-3.772zm3.84-10.308 3.73 1.445c-.475 1.226-.951 2.471-1.414 3.701l-3.744-1.41.164-.434.017-.044.018-.048.043-.113.005-.015c.23-.607.459-1.207.691-1.813l.002-.004.05-.132.016-.04.035-.092.022-.056.028-.073.061-.16.006-.015.04-.105.007-.017.042-.109v-.001l.133-.342.004-.01.04-.105.004-.008zm4.107-10.205 3.69 1.542a423.891 423.891 0 0 0-1.51 3.664l-3.705-1.506c.218-.538.438-1.074.658-1.61l.016-.037c.011-.03.023-.058.035-.086l.05-.122.015-.037.045-.108.011-.028.051-.123.007-.017.363-.876.015-.036.042-.1.018-.043.036-.086.06-.144.007-.019.096-.228zm4.371-10.094 3.65 1.637c-.539 1.2-1.079 2.42-1.606 3.625l-3.665-1.603a512.072 512.072 0 0 1 .653-1.486l.002-.004.047-.107.008-.017.143-.324.005-.01.041-.093.017-.039.039-.086.02-.046.053-.118.034-.078.027-.06.04-.088.015-.036.477-1.067zm4.633-9.977 3.605 1.732c-.569 1.185-1.14 2.39-1.699 3.58l-3.622-1.697.41-.872.017-.036.014-.03.057-.12.004-.007c.252-.535.501-1.06.756-1.594l.004-.008.06-.124.01-.025.054-.11.055-.115.006-.013.269-.56zm4.89-9.853 3.56 1.825c-.6 1.17-1.203 2.36-1.792 3.535l-3.576-1.791.064-.128.029-.058.028-.055c.301-.602.605-1.203.91-1.804l.051-.101a433.447 433.447 0 0 1 .726-1.422zm5.144-9.722 3.511 1.916a419.313 419.313 0 0 0-1.882 3.487l-3.529-1.883.34-.634.011-.022.035-.065c.362-.676.726-1.35 1.092-2.025l.004-.007c.01-.016.018-.033.027-.049l.391-.718zm5.395-9.586 3.46 2.007a419.873 419.873 0 0 0-1.972 3.436l-3.478-1.974c.202-.357.405-.714.609-1.07l.013-.023.044-.078.032-.054.034-.061.065-.113.004-.007.078-.135.005-.01.075-.131.002-.002a420.798 420.798 0 0 1 .829-1.44l.019-.033.18-.312zm5.64-9.443 3.408 2.096a422.812 422.812 0 0 0-2.06 3.384l-3.426-2.063a414.823 414.823 0 0 1 .848-1.403l.043-.07.04-.066.03-.05.154-.252.011-.019.068-.112.014-.022c.292-.479.577-.945.871-1.423zm5.885-9.293 3.351 2.183a426.68 426.68 0 0 0-2.146 3.33l-3.372-2.152c.266-.418.534-.835.802-1.252l.013-.02.052-.081.041-.065.029-.044c.411-.639.815-1.263 1.23-1.9zm6.122-9.14 3.294 2.27a421.21 421.21 0 0 0-2.232 3.273l-3.315-2.238c.298-.442.598-.885.898-1.326h.001l.086-.127.033-.048.04-.06.057-.083.013-.02c.374-.547.749-1.094 1.125-1.64zm6.356-8.977 3.235 2.353a419.424 419.424 0 0 0-2.316 3.215l-3.257-2.323c.34-.476.687-.96 1.03-1.436l.046-.065.024-.034c.412-.571.824-1.141 1.238-1.71zm6.586-8.811 3.173 2.436c-.801 1.043-1.608 2.104-2.4 3.155l-3.195-2.406.01-.013.05-.066.032-.044.054-.07.022-.03.198-.262.017-.023.063-.083.017-.023.285-.376.011-.015.07-.09.004-.008.215-.282.012-.016.065-.086.016-.022.066-.086.004-.006.144-.189.004-.005.063-.082.021-.028.06-.078c.008-.011.017-.024.026-.034l.057-.076.005-.007.12-.156.035-.047.049-.063.038-.05.048-.063c.016-.021.03-.038.045-.06l.04-.05.08-.107c.013-.015.025-.03.036-.046l.055-.072.035-.045.056-.073.032-.043.088-.114.074-.096zm6.81-8.638 3.11 2.517a423.79 423.79 0 0 0-2.48 3.092l-3.132-2.488c.46-.58.922-1.158 1.385-1.735l.024-.03.052-.065.045-.056.037-.046.073-.09.017-.021c.291-.363.576-.716.87-1.078zm7.03-8.46 3.044 2.596c-.853 1-1.714 2.019-2.558 3.027l-3.067-2.567.346-.414.003-.002.099-.119.003-.003c.615-.733 1.229-1.459 1.85-2.187 0-.002.003-.004.004-.006l.09-.105.015-.019.09-.106.065-.075.017-.02zm7.247-8.276 2.975 2.674c-.879.978-1.765 1.974-2.635 2.96l-3-2.646c.877-.995 1.759-1.985 2.645-2.972l.015-.016zm7.456-8.086 2.906 2.749a420.75 420.75 0 0 0-2.71 2.89l-2.931-2.721c.678-.73 1.358-1.458 2.042-2.184l.015-.017.16-.168.023-.025.114-.12.074-.08a396.165 396.165 0 0 1 .307-.325zm7.662-7.893 2.834 2.823c-.928.932-1.864 1.88-2.783 2.82l-2.86-2.796c.288-.295.577-.59.866-.883l.018-.019.161-.163.023-.023.128-.13.052-.053.133-.135.065-.066.085-.086.066-.067.125-.127.071-.072.09-.09.076-.077.12-.12c.018-.02.03-.031.049-.05l.681-.686zm7.863-7.693 2.76 2.895c-.951.908-1.912 1.832-2.855 2.748l-2.787-2.869c.956-.929 1.917-1.853 2.882-2.774zm8.058-7.487 2.685 2.964a428.25 428.25 0 0 0-2.925 2.674l-2.713-2.94.025-.022.128-.118.084-.078c.02-.02.041-.038.062-.057l.172-.158.032-.03.11-.1a420.245 420.245 0 0 1 1.549-1.416l.085-.079.143-.13.021-.02.542-.49zm8.247-7.279 2.608 3.033c-.997.858-2.004 1.731-2.992 2.598l-2.637-3.009.832-.727.059-.05.085-.075.136-.119.057-.049.12-.104.044-.038.16-.14.036-.03.163-.142.006-.005.179-.155.019-.016.36-.312.013-.012.752-.648zm8.432-7.063 2.53 3.1a424.325 424.325 0 0 0-3.059 2.519l-2.558-3.076c.639-.53 1.278-1.06 1.92-1.587l.018-.015.082-.067.034-.028.085-.07.093-.076.023-.019.832-.681zm8.612-6.844 2.448 3.163c-1.04.805-2.09 1.626-3.122 2.44l-2.478-3.14.022-.017.027-.022.09-.07.031-.025a69 69 0 0 1 .105-.083l.01-.007.12-.096a.467.467 0 0 0 .01-.006l.109-.086.021-.017.097-.077.025-.02a360.54 360.54 0 0 1 .248-.194l.116-.09.008-.007c.7-.55 1.408-1.1 2.113-1.646zm8.785-6.62 2.366 3.226a423.98 423.98 0 0 0-3.184 2.358l-2.396-3.203.549-.41.008-.006.097-.072.041-.03.033-.026c.425-.316.851-.632 1.278-.947l.153-.113.054-.04a6.852 6.852 0 0 0 .131-.097l.007-.005.863-.635zm8.953-6.39 2.281 3.285c-1.08.75-2.17 1.515-3.244 2.275l-2.312-3.263.046-.033.02-.014c.608-.431 1.199-.847 1.81-1.275l.025-.018.085-.06.048-.033.052-.036 1.189-.829zm9.114-6.159 2.197 3.344c-1.1.721-2.21 1.459-3.302 2.19l-2.228-3.321c1.108-.743 2.219-1.48 3.333-2.213zm9.272-5.92 2.109 3.399a424.604 424.604 0 0 0-3.358 2.105l-2.141-3.378.833-.527.05-.032.056-.035c.824-.519 1.623-1.018 2.45-1.532zm9.42-5.678 2.021 3.452a422.151 422.151 0 0 0-3.411 2.018l-2.053-3.433.098-.059.015-.009.09-.053.042-.025.071-.043.116-.07.028-.016.103-.061.03-.019.103-.06.027-.017.401-.238.004-.002.408-.242.01-.007.119-.07.023-.013.105-.062.03-.018.117-.07.065-.038.05-.03.084-.049.024-.014 1.28-.752zm9.565-5.433 1.93 3.504a419.507 419.507 0 0 0-3.462 1.928l-1.963-3.485a429.95 429.95 0 0 1 3.495-1.947zm9.702-5.182 1.839 3.552a421.302 421.302 0 0 0-3.51 1.838l-1.872-3.535.282-.149.025-.013.108-.057.24-.127.012-.006c.957-.505 1.915-1.006 2.876-1.503zm9.834-4.929 1.745 3.6c-1.182.573-2.378 1.16-3.555 1.745l-1.78-3.582a418.738 418.738 0 0 1 1.804-.891l.07-.035.068-.033c.018-.01.037-.018.055-.027l.123-.06.003-.002.142-.07c.003 0 .005-.002.007-.003l1.008-.491.003-.002.122-.06.043-.02.077-.037.065-.032zm9.958-4.671 1.651 3.643a417.707 417.707 0 0 0-3.599 1.652l-1.686-3.627c.679-.316 1.358-.63 2.038-.941l.008-.003.332-.152.005-.003.082-.037.05-.023.077-.035.056-.026.07-.032.077-.035.107-.049c.025-.01.041-.019.066-.03l.067-.03.064-.03a23.217 23.217 0 0 1 .128-.058l.167-.075.013-.006.098-.045.025-.011.102-.046.002-.001zm10.076-4.411 1.557 3.685c-1.211.51-2.436 1.035-3.642 1.558l-1.59-3.67.019-.009.052-.022.116-.05.008-.004c1.162-.503 2.313-.995 3.48-1.488zm10.189-4.147 1.46 3.724c-1.224.48-2.463.972-3.682 1.463l-1.495-3.71a424.105 424.105 0 0 1 2.712-1.082l.071-.028.012-.005.922-.362zm10.292-3.88 1.363 3.76a413.35 413.35 0 0 0-3.72 1.367l-1.397-3.748c1.014-.378 2.03-.752 3.049-1.123h.001l.103-.038.601-.219zm10.391-3.611 1.264 3.795c-1.248.415-2.51.842-3.754 1.27l-1.3-3.783.258-.089.074-.025.043-.015c.659-.226 1.318-.45 1.978-.672l.031-.01.09-.03.1-.034.025-.009 1.191-.398zm10.482-3.339 1.164 3.827a421.25 421.25 0 0 0-3.787 1.172l-1.2-3.816h.001l.109-.034.03-.01.095-.03a100.76 100.76 0 0 0 .158-.05l.12-.037.025-.008c1.104-.346 2.178-.677 3.285-1.014zm10.566-3.064 1.064 3.856c-1.269.35-2.553.711-3.818 1.073l-1.1-3.846.639-.182.015-.004.124-.036a9.95 9.95 0 0 1 .04-.011l.122-.035.035-.01a291.198 291.198 0 0 0 .196-.055l.054-.015.093-.027.016-.004c.839-.237 1.679-.472 2.52-.704zm10.64-2.787.963 3.883c-1.276.316-2.57.644-3.843.972l-1-3.873.792-.203.016-.004.147-.038.006-.001.147-.038.035-.009.113-.029.041-.01c.106-.027.193-.05.3-.076.757-.193 1.525-.386 2.283-.574zm10.71-2.508.86 3.906c-1.283.283-2.584.576-3.866.872l-.898-3.898c.388-.09.766-.176 1.155-.264l.003-.001.144-.033.022-.005.143-.032.062-.014.072-.017.086-.02.044-.01.331-.074.013-.003.104-.023.036-.008.1-.023.024-.005.152-.034.096-.022a421.38 421.38 0 0 1 1.317-.293zm10.77-2.23.76 3.928c-1.291.25-2.599.509-3.887.77l-.796-3.919 1.333-.269.02-.004.087-.017.076-.015.058-.012a418.98 418.98 0 0 1 2.349-.461zm10.825-1.947.657 3.945c-1.296.216-2.61.441-3.903.67l-.695-3.94c.178-.03.353-.062.53-.093l.01-.001.143-.025.023-.004.308-.054.03-.005.125-.022.032-.006.143-.024.01-.002.143-.025.056-.01.085-.014.07-.012.079-.014.12-.02.072-.013.086-.014.05-.01c.032-.004.064-.01.095-.015l.022-.004c.57-.097 1.139-.193 1.71-.288zm10.872-1.667.555 3.962c-1.3.182-2.62.373-3.918.567l-.592-3.956.192-.029h.008l.324-.049.01-.001.141-.021.029-.005.316-.046.006-.001.157-.023.007-.001a421.975 421.975 0 0 1 2.48-.357l.285-.04zm10.912-1.384.452 3.974a422.8 422.8 0 0 0-3.93.466l-.489-3.97c.97-.12 1.914-.233 2.886-.346l.032-.004.123-.014.038-.004.148-.017.033-.004a79.218 79.218 0 0 0 .169-.02l.107-.012.043-.005.149-.017.022-.002.142-.017.016-.001.06-.007zm10.944-1.102.35 3.984c-1.309.115-2.635.238-3.941.365l-.387-3.982c1.173-.114 2.337-.222 3.513-.326l.01-.001.132-.012.052-.005a34.92 34.92 0 0 0 .271-.023zm10.969-.82.247 3.992c-1.311.08-2.64.17-3.95.263l-.284-3.99c.549-.04 1.107-.078 1.656-.115l.154-.01.028-.002.142-.01.052-.003.1-.007.083-.005.054-.004c.572-.038 1.145-.074 1.718-.11zm10.986-.54.145 3.998c-1.313.047-2.644.102-3.956.162l-.182-3.996c.658-.03 1.316-.059 1.974-.086h.029l.089-.004.072-.003.067-.003.148-.006h.012l.153-.007h.016c.482-.02.95-.037 1.433-.054zm10.997-.258.043 4a432.09 432.09 0 0 0-3.96.06l-.08-3.998.367-.008h.012l.106-.002a14.518 14.518 0 0 0 .154-.003l.12-.002.06-.001.099-.002h.053l.152-.003.15-.003h.049l.11-.003h.047l.146-.003h.046l.103-.002.156-.003h.062l.136-.003h.07l.08-.002.074-.001.092-.001.067-.001.13-.002h.052a73.083 73.083 0 0 0 .153-.003l1.151-.014z" style="fill:#f04e30;stroke:none" transform="translate(535 4286)"/>
            </g>
        </g>
    </g>
</svg>
