<svg xmlns="http://www.w3.org/2000/svg" width="50" height="50" viewBox="0 0 50 50">
    <path data-name="Path 473" d="m282.975 18.132 2.6-8.1a.66.66 0 0 1 1.288.2l-.032 8.508a.66.66 0 0 0 1.195.388l4.975-6.9a.66.66 0 0 1 1.162.592L291.5 20.9a.66.66 0 0 0 1.016.738l6.864-5.027a.66.66 0 0 1 .922.922l-5.025 6.867a.66.66 0 0 0 .739 1.016l8.082-2.66a.66.66 0 0 1 .592 1.162l-6.9 4.975a.66.66 0 0 0 .388 1.195l8.508-.032a.66.66 0 0 1 .2 1.288l-8.1 2.6a.66.66 0 0 0 0 1.256l8.1 2.6a.66.66 0 0 1-.2 1.288l-8.508-.032a.66.66 0 0 0-.388 1.195l6.9 4.975a.66.66 0 0 1-.592 1.162l-8.082-2.66a.66.66 0 0 0-.739 1.016l5.027 6.864a.66.66 0 0 1-.922.922l-6.864-5.03a.66.66 0 0 0-1.016.738l2.66 8.082a.66.66 0 0 1-1.162.592l-4.975-6.9a.66.66 0 0 0-1.195.388l.032 8.508a.66.66 0 0 1-1.288.2l-2.6-8.1a.66.66 0 0 0-1.256 0l-2.6 8.1a.66.66 0 0 1-1.288-.2l.032-8.508a.66.66 0 0 0-1.195-.388l-4.975 6.9a.66.66 0 0 1-1.162-.592l2.66-8.082a.66.66 0 0 0-1.017-.738l-6.864 5.027a.66.66 0 0 1-.922-.922l5.027-6.864a.66.66 0 0 0-.738-1.016l-8.082 2.66a.66.66 0 0 1-.594-1.16l6.9-4.975a.66.66 0 0 0-.388-1.195l-8.508.032a.66.66 0 0 1-.2-1.288l8.1-2.6a.66.66 0 0 0 0-1.256l-8.1-2.6a.66.66 0 0 1 .2-1.288l8.508.032a.66.66 0 0 0 .388-1.195L260 23.92a.66.66 0 0 1 .592-1.162l8.082 2.66a.66.66 0 0 0 .738-1.016l-5.027-6.864a.66.66 0 0 1 .922-.922l6.864 5.027a.66.66 0 0 0 1.017-.738l-2.66-8.082a.66.66 0 0 1 1.162-.592l4.975 6.9a.66.66 0 0 0 1.195-.388l-.032-8.508a.66.66 0 0 1 1.288-.2l2.6 8.1a.66.66 0 0 0 1.259-.003z" transform="translate(-257.346 -9.572)" style="fill:#36723b"/>
</svg>
