<svg xmlns="http://www.w3.org/2000/svg" width="280" height="3291" viewBox="0 0 280 3291">
    <defs>
        <style>
            .cls-1{fill:#fff}.cls-2{fill:#dda27f;stroke:#fff;stroke-width:3px}.cls-3,.cls-4{fill:#c7642a}.cls-3,.cls-5{font-size:30px}.cls-3,.cls-4,.cls-5,.cls-6{font-family:IBMPlexSansThai-SemiBold,IBM Plex Sans Thai;font-weight:600;letter-spacing:.05em}.cls-4,.cls-6{font-size:25px}.cls-5,.cls-6{fill:#36723b}.cls-7{fill:#2b2b2b}.cls-9{stroke:none}.cls-10{fill:none}
        </style>
    </defs>
    <g id="Group_1273" data-name="Group 1273" transform="translate(-812 -7743)">
        <path id="Rectangle_814" data-name="Rectangle 814" class="cls-1" transform="rotate(-90 5993 5041)" d="M0 0h3291v5H0z"/>
        <g id="Group_1256" data-name="Group 1256">
            <g id="Ellipse_1337" data-name="Ellipse 1337" class="cls-2" transform="translate(887 7855)">
                <circle class="cls-9" cx="67.5" cy="67.5" r="67.5"/>
                <circle class="cls-10" cx="67.5" cy="67.5" r="66"/>
            </g>
            <path id="Path_588" data-name="Path 588" class="cls-1" d="M-16.35 0h-12.1v-3.05l5.475-4.8a11.6 11.6 0 0 0 2.05-2.212 3.813 3.813 0 0 0 .65-2.137v-.325a2.145 2.145 0 0 0-.75-1.763 2.792 2.792 0 0 0-1.825-.613 2.645 2.645 0 0 0-2.05.762 4.431 4.431 0 0 0-1 1.838l-2.85-1.1a7.013 7.013 0 0 1 .775-1.663 5.532 5.532 0 0 1 1.263-1.387 6 6 0 0 1 1.788-.95 7.26 7.26 0 0 1 2.35-.35 7.2 7.2 0 0 1 2.45.387 5.109 5.109 0 0 1 1.813 1.087 4.691 4.691 0 0 1 1.125 1.65 5.442 5.442 0 0 1 .386 2.076 5.477 5.477 0 0 1-.35 2 7.377 7.377 0 0 1-.95 1.712 11 11 0 0 1-1.4 1.55q-.8.738-1.7 1.488l-3.675 3.025h8.525zm8.85.3a6.414 6.414 0 0 1-2.9-.613 5.35 5.35 0 0 1-2.025-1.762A8.1 8.1 0 0 1-13.613-4.9 17.052 17.052 0 0 1-14-8.725a17.094 17.094 0 0 1 .387-3.813 8.1 8.1 0 0 1 1.188-2.837 5.35 5.35 0 0 1 2.025-1.763 6.414 6.414 0 0 1 2.9-.612 5.494 5.494 0 0 1 4.912 2.375A11.888 11.888 0 0 1-1-8.725a11.888 11.888 0 0 1-1.588 6.65A5.494 5.494 0 0 1-7.5.3zm0-2.775a2.41 2.41 0 0 0 2.337-1.262A7.393 7.393 0 0 0-4.5-7.15v-3.15a7.393 7.393 0 0 0-.663-3.412A2.41 2.41 0 0 0-7.5-14.975a2.41 2.41 0 0 0-2.338 1.262A7.393 7.393 0 0 0-10.5-10.3v3.15a7.393 7.393 0 0 0 .663 3.413A2.41 2.41 0 0 0-7.5-2.475zM13.65 0H1.55v-3.05l5.475-4.8a11.6 11.6 0 0 0 2.05-2.212 3.813 3.813 0 0 0 .65-2.137v-.325a2.145 2.145 0 0 0-.75-1.763A2.792 2.792 0 0 0 7.15-14.9a2.645 2.645 0 0 0-2.05.762 4.431 4.431 0 0 0-1 1.838l-2.85-1.1a7.013 7.013 0 0 1 .775-1.663 5.532 5.532 0 0 1 1.263-1.387 6 6 0 0 1 1.787-.95 7.26 7.26 0 0 1 2.35-.35 7.2 7.2 0 0 1 2.45.387 5.109 5.109 0 0 1 1.813 1.087 4.691 4.691 0 0 1 1.125 1.65 5.442 5.442 0 0 1 .387 2.076 5.477 5.477 0 0 1-.35 2 7.377 7.377 0 0 1-.95 1.712 11 11 0 0 1-1.4 1.55Q9.7-6.55 8.8-5.8L5.125-2.775h8.525zm8.85.3a6.414 6.414 0 0 1-2.9-.613 5.35 5.35 0 0 1-2.025-1.762A8.1 8.1 0 0 1 16.388-4.9 17.052 17.052 0 0 1 16-8.725a17.094 17.094 0 0 1 .388-3.813 8.1 8.1 0 0 1 1.188-2.837 5.35 5.35 0 0 1 2.024-1.763 6.414 6.414 0 0 1 2.9-.612 5.494 5.494 0 0 1 4.912 2.375A11.888 11.888 0 0 1 29-8.725a11.888 11.888 0 0 1-1.588 6.65A5.494 5.494 0 0 1 22.5.3zm0-2.775a2.41 2.41 0 0 0 2.337-1.263A7.393 7.393 0 0 0 25.5-7.15v-3.15a7.393 7.393 0 0 0-.663-3.412 2.41 2.41 0 0 0-2.337-1.263 2.41 2.41 0 0 0-2.337 1.262A7.393 7.393 0 0 0 19.5-10.3v3.15a7.393 7.393 0 0 0 .663 3.413A2.41 2.41 0 0 0 22.5-2.475z" transform="translate(955 7930)"/>
        </g>
        <g id="Group_1257" data-name="Group 1257">
            <circle id="Ellipse_1335" data-name="Ellipse 1335" class="cls-1" cx="50" cy="50" r="50" transform="translate(905 8294)"/>
            <g id="Group_865" data-name="Group 865" transform="translate(0 1884)">
                <text id="Aug" class="cls-3" transform="translate(955 6458)"><tspan x="-28.575" y="0">Aug</tspan></text>
                <text id="_27" data-name="27" class="cls-4" transform="translate(955 6491)"><tspan x="-15.625" y="0">27</tspan></text>
            </g>
        </g>
        <g id="Group_1263" data-name="Group 1263">
            <g id="Ellipse_1338" data-name="Ellipse 1338" class="cls-2" transform="translate(888 8848)">
                <circle class="cls-9" cx="67.5" cy="67.5" r="67.5"/>
                <circle class="cls-10" cx="67.5" cy="67.5" r="66"/>
            </g>
            <path id="Path_593" data-name="Path 593" class="cls-1" d="M-16.35 0h-12.1v-3.05l5.475-4.8a11.6 11.6 0 0 0 2.05-2.212 3.813 3.813 0 0 0 .65-2.137v-.325a2.145 2.145 0 0 0-.75-1.763 2.792 2.792 0 0 0-1.825-.613 2.645 2.645 0 0 0-2.05.762 4.431 4.431 0 0 0-1 1.838l-2.85-1.1a7.013 7.013 0 0 1 .775-1.663 5.532 5.532 0 0 1 1.263-1.387 6 6 0 0 1 1.788-.95 7.26 7.26 0 0 1 2.35-.35 7.2 7.2 0 0 1 2.45.387 5.109 5.109 0 0 1 1.813 1.087 4.691 4.691 0 0 1 1.125 1.65 5.442 5.442 0 0 1 .386 2.076 5.477 5.477 0 0 1-.35 2 7.377 7.377 0 0 1-.95 1.712 11 11 0 0 1-1.4 1.55q-.8.738-1.7 1.488l-3.675 3.025h8.525zm8.85.3a6.414 6.414 0 0 1-2.9-.613 5.35 5.35 0 0 1-2.025-1.762A8.1 8.1 0 0 1-13.613-4.9 17.052 17.052 0 0 1-14-8.725a17.094 17.094 0 0 1 .387-3.813 8.1 8.1 0 0 1 1.188-2.837 5.35 5.35 0 0 1 2.025-1.763 6.414 6.414 0 0 1 2.9-.612 5.494 5.494 0 0 1 4.912 2.375A11.888 11.888 0 0 1-1-8.725a11.888 11.888 0 0 1-1.588 6.65A5.494 5.494 0 0 1-7.5.3zm0-2.775a2.41 2.41 0 0 0 2.337-1.262A7.393 7.393 0 0 0-4.5-7.15v-3.15a7.393 7.393 0 0 0-.663-3.412A2.41 2.41 0 0 0-7.5-14.975a2.41 2.41 0 0 0-2.338 1.262A7.393 7.393 0 0 0-10.5-10.3v3.15a7.393 7.393 0 0 0 .663 3.413A2.41 2.41 0 0 0-7.5-2.475zM13.65 0H1.55v-3.05l5.475-4.8a11.6 11.6 0 0 0 2.05-2.212 3.813 3.813 0 0 0 .65-2.137v-.325a2.145 2.145 0 0 0-.75-1.763A2.792 2.792 0 0 0 7.15-14.9a2.645 2.645 0 0 0-2.05.762 4.431 4.431 0 0 0-1 1.838l-2.85-1.1a7.013 7.013 0 0 1 .775-1.663 5.532 5.532 0 0 1 1.263-1.387 6 6 0 0 1 1.787-.95 7.26 7.26 0 0 1 2.35-.35 7.2 7.2 0 0 1 2.45.387 5.109 5.109 0 0 1 1.813 1.087 4.691 4.691 0 0 1 1.125 1.65 5.442 5.442 0 0 1 .387 2.076 5.477 5.477 0 0 1-.35 2 7.377 7.377 0 0 1-.95 1.712 11 11 0 0 1-1.4 1.55Q9.7-6.55 8.8-5.8L5.125-2.775h8.525zm3.625 0v-2.675h4.8v-12.4h-.225l-3.8 4.5L16-12.3l4.325-5.15H25.3v14.775h4V0z" transform="translate(955 8923)"/>
        </g>
        <g id="Group_1262" data-name="Group 1262">
            <circle id="Ellipse_1336" data-name="Ellipse 1336" class="cls-1" cx="50" cy="50" r="50" transform="translate(905 8698)"/>
            <g id="Group_866" data-name="Group 866" transform="translate(0 2288)">
                <text id="Nov" class="cls-5" transform="translate(955 6458)"><tspan x="-28.47" y="0">Nov</tspan></text>
                <text id="_11" data-name="11" class="cls-6" transform="translate(955 6491)"><tspan x="-15.625" y="0">11</tspan></text>
            </g>
        </g>
        <g id="Group_1266" data-name="Group 1266">
            <circle id="Ellipse_1347" data-name="Ellipse 1347" class="cls-1" cx="50" cy="50" r="50" transform="translate(905 9288)"/>
            <g id="Group_894" data-name="Group 894" transform="translate(0 2878)">
                <text id="Mar" class="cls-3" transform="translate(955 6458)"><tspan x="-28.02" y="0">Mar</tspan></text>
                <text id="_11-2" data-name="11" class="cls-4" transform="translate(955 6491)"><tspan x="-15.625" y="0">11</tspan></text>
            </g>
        </g>
        <g id="Group_1268" data-name="Group 1268">
            <circle id="Ellipse_1348" data-name="Ellipse 1348" class="cls-1" cx="50" cy="50" r="50" transform="translate(905 9565)"/>
            <g id="Group_895" data-name="Group 895" transform="translate(0 3155)">
                <text id="Mar-2" data-name="Mar" class="cls-3" transform="translate(955 6458)"><tspan x="-28.02" y="0">Mar</tspan></text>
                <text id="_30" data-name="30" class="cls-4" transform="translate(955 6491)"><tspan x="-15.625" y="0">30</tspan></text>
            </g>
        </g>
        <g id="Group_1271" data-name="Group 1271">
            <circle id="Ellipse_1349" data-name="Ellipse 1349" class="cls-1" cx="50" cy="50" r="50" transform="translate(905 9969)"/>
            <g id="Group_896" data-name="Group 896" transform="translate(0 3559)">
                <text id="May" class="cls-5" transform="translate(955 6458)"><tspan x="-29.865" y="0">May</tspan></text>
                <text id="_12" data-name="12" class="cls-6" transform="translate(955 6491)"><tspan x="-15.625" y="0">12</tspan></text>
            </g>
        </g>
        <g id="Group_1259" data-name="Group 1259">
            <rect id="Rectangle_824" data-name="Rectangle 824" class="cls-7" width="240" height="77" rx="33" transform="translate(832 8040)"/>
            <path id="Path_589" data-name="Path 589" class="cls-1" d="M-80.12 0v-13.96h2.64v11.62h5.5V0zm11.54-11.96a1.554 1.554 0 0 1-1.15-.36 1.265 1.265 0 0 1-.35-.92v-.4a1.265 1.265 0 0 1 .35-.92 1.554 1.554 0 0 1 1.15-.36 1.559 1.559 0 0 1 1.14.36 1.246 1.246 0 0 1 .36.92v.4a1.246 1.246 0 0 1-.36.92 1.559 1.559 0 0 1-1.14.36zm-1.28 1.52h2.56V0h-2.56zM-61.08 0a2.723 2.723 0 0 1-2.01-.69 2.665 2.665 0 0 1-.69-1.97V-8.4h-1.54v-2.04h.8a.955.955 0 0 0 .79-.27 1.307 1.307 0 0 0 .21-.81v-1.78h2.3v2.86h2.14v2.04h-2.14v6.36h1.98V0zm8.36.24a5.21 5.21 0 0 1-2.07-.39 4.285 4.285 0 0 1-1.54-1.1 4.92 4.92 0 0 1-.97-1.72 7.091 7.091 0 0 1-.34-2.27 7.124 7.124 0 0 1 .33-2.24 4.9 4.9 0 0 1 .95-1.71 4.21 4.21 0 0 1 1.52-1.1 5.084 5.084 0 0 1 2.04-.39 4.971 4.971 0 0 1 2.12.42 4.083 4.083 0 0 1 1.48 1.14 4.922 4.922 0 0 1 .87 1.67 6.918 6.918 0 0 1 .29 2.03v.84h-6.94v.26a2.584 2.584 0 0 0 .64 1.83 2.467 2.467 0 0 0 1.9.69 2.813 2.813 0 0 0 1.57-.4 4.5 4.5 0 0 0 1.09-1.02l1.38 1.54a4.291 4.291 0 0 1-1.75 1.41 6.1 6.1 0 0 1-2.57.51zm-.04-9a2.051 2.051 0 0 0-1.62.68 2.562 2.562 0 0 0-.6 1.76v.16h4.28v-.18a2.738 2.738 0 0 0-.53-1.75 1.835 1.835 0 0 0-1.53-.67zM-45.78 0v-10.44h2.56v2.16h.1a3.329 3.329 0 0 1 .31-.81 2.487 2.487 0 0 1 .55-.69 2.634 2.634 0 0 1 .81-.48 3.037 3.037 0 0 1 1.09-.18h.56v2.42h-.8a4.014 4.014 0 0 0-1.96.38 1.32 1.32 0 0 0-.66 1.24V0zm15.32 0a1.8 1.8 0 0 1-1.33-.49 2.254 2.254 0 0 1-.61-1.31h-.12a2.449 2.449 0 0 1-1.06 1.53 3.613 3.613 0 0 1-1.98.51 3.376 3.376 0 0 1-2.46-.84 2.989 2.989 0 0 1-.86-2.24 2.716 2.716 0 0 1 1.16-2.41 5.831 5.831 0 0 1 3.3-.79h1.78v-.76a1.887 1.887 0 0 0-.46-1.36 1.975 1.975 0 0 0-1.48-.48 2.455 2.455 0 0 0-1.45.39 3.851 3.851 0 0 0-.93.93l-1.52-1.36a4.405 4.405 0 0 1 1.54-1.45 5.09 5.09 0 0 1 2.54-.55 4.764 4.764 0 0 1 3.22.96 3.466 3.466 0 0 1 1.1 2.76v4.92h1.04V0zm-4.24-1.62A2.674 2.674 0 0 0-33.24-2a1.242 1.242 0 0 0 .6-1.12V-4.5h-1.64q-2 0-2 1.28v.34a1.114 1.114 0 0 0 .41.95 1.91 1.91 0 0 0 1.17.31zM-23.78 0a2.723 2.723 0 0 1-2.01-.69 2.665 2.665 0 0 1-.69-1.97V-8.4h-1.54v-2.04h.8a.955.955 0 0 0 .79-.27 1.307 1.307 0 0 0 .21-.81v-1.78h2.3v2.86h2.14v2.04h-2.14v6.36h1.98V0zm10.46-1.74h-.1a3.413 3.413 0 0 1-.37.75 2.718 2.718 0 0 1-.58.63 2.643 2.643 0 0 1-.84.44 3.641 3.641 0 0 1-1.13.16 3.008 3.008 0 0 1-2.48-1.06 4.683 4.683 0 0 1-.86-3.02v-6.6h2.56v6.34a2.753 2.753 0 0 0 .42 1.65 1.554 1.554 0 0 0 1.34.57 2.862 2.862 0 0 0 .75-.1 1.9 1.9 0 0 0 .65-.31 1.725 1.725 0 0 0 .46-.52 1.428 1.428 0 0 0 .18-.73v-6.9h2.56V0h-2.56zM-7.8 0v-10.44h2.56v2.16h.1a3.329 3.329 0 0 1 .31-.81 2.487 2.487 0 0 1 .55-.69 2.634 2.634 0 0 1 .81-.48 3.037 3.037 0 0 1 1.09-.18h.56v2.42h-.8a4.014 4.014 0 0 0-1.96.38 1.32 1.32 0 0 0-.66 1.24V0zM4.18.24a5.21 5.21 0 0 1-2.07-.39 4.285 4.285 0 0 1-1.54-1.1A4.92 4.92 0 0 1-.4-2.97a7.091 7.091 0 0 1-.34-2.27 7.124 7.124 0 0 1 .33-2.24 4.9 4.9 0 0 1 .95-1.71 4.21 4.21 0 0 1 1.52-1.1 5.084 5.084 0 0 1 2.04-.39 4.971 4.971 0 0 1 2.12.42A4.083 4.083 0 0 1 7.7-9.12a4.922 4.922 0 0 1 .87 1.67 6.918 6.918 0 0 1 .29 2.03v.84H1.92v.26a2.584 2.584 0 0 0 .64 1.83 2.467 2.467 0 0 0 1.9.69 2.813 2.813 0 0 0 1.57-.4 4.5 4.5 0 0 0 1.09-1.02L8.5-1.68A4.291 4.291 0 0 1 6.75-.27a6.1 6.1 0 0 1-2.57.51zm-.04-9a2.051 2.051 0 0 0-1.62.68 2.562 2.562 0 0 0-.6 1.76v.16H6.2v-.18a2.738 2.738 0 0 0-.53-1.75 1.835 1.835 0 0 0-1.53-.67zM18.64 0H16v-13.96h6.3a4.654 4.654 0 0 1 1.72.3 3.478 3.478 0 0 1 1.29.87 3.972 3.972 0 0 1 .82 1.37 5.193 5.193 0 0 1 .29 1.78 4.584 4.584 0 0 1-.65 2.48 3.546 3.546 0 0 1-1.95 1.48L26.68 0h-2.94l-2.6-5.38h-2.5zm3.4-7.6a1.691 1.691 0 0 0 1.2-.41 1.521 1.521 0 0 0 .44-1.17v-.92a1.488 1.488 0 0 0-.44-1.16 1.717 1.717 0 0 0-1.2-.4h-3.4v4.06zm11 7.84a5.21 5.21 0 0 1-2.07-.39 4.285 4.285 0 0 1-1.54-1.1 4.92 4.92 0 0 1-.97-1.72 7.091 7.091 0 0 1-.34-2.27 7.124 7.124 0 0 1 .33-2.24 4.9 4.9 0 0 1 .95-1.71 4.21 4.21 0 0 1 1.52-1.1 5.084 5.084 0 0 1 2.04-.39 4.971 4.971 0 0 1 2.12.42 4.083 4.083 0 0 1 1.48 1.14 4.922 4.922 0 0 1 .87 1.67 6.918 6.918 0 0 1 .29 2.03v.84h-6.94v.26a2.584 2.584 0 0 0 .64 1.83 2.467 2.467 0 0 0 1.9.69 2.813 2.813 0 0 0 1.57-.4 4.5 4.5 0 0 0 1.09-1.02l1.38 1.54a4.291 4.291 0 0 1-1.75 1.41 6.1 6.1 0 0 1-2.57.51zm-.04-9a2.051 2.051 0 0 0-1.62.68 2.562 2.562 0 0 0-.6 1.76v.16h4.28v-.18a2.738 2.738 0 0 0-.53-1.75A1.835 1.835 0 0 0 33-8.76zM42.04 0l-3.48-10.44h2.52l1.46 4.5 1.02 3.72h.14l1.02-3.72 1.42-4.5h2.44L45.08 0zm9.52-11.96a1.554 1.554 0 0 1-1.15-.36 1.265 1.265 0 0 1-.35-.92v-.4a1.265 1.265 0 0 1 .35-.92 1.554 1.554 0 0 1 1.15-.36 1.559 1.559 0 0 1 1.14.36 1.246 1.246 0 0 1 .36.92v.4a1.246 1.246 0 0 1-.36.92 1.559 1.559 0 0 1-1.14.36zm-1.28 1.52h2.56V0h-2.56zM60.02.24a5.21 5.21 0 0 1-2.07-.39 4.285 4.285 0 0 1-1.54-1.1 4.92 4.92 0 0 1-.97-1.72 7.091 7.091 0 0 1-.34-2.27 7.124 7.124 0 0 1 .33-2.24 4.9 4.9 0 0 1 .95-1.71 4.21 4.21 0 0 1 1.52-1.1 5.084 5.084 0 0 1 2.04-.39 4.971 4.971 0 0 1 2.12.42 4.083 4.083 0 0 1 1.48 1.14 4.922 4.922 0 0 1 .87 1.67 6.918 6.918 0 0 1 .29 2.03v.84h-6.94v.26a2.584 2.584 0 0 0 .64 1.83 2.467 2.467 0 0 0 1.9.69 2.813 2.813 0 0 0 1.57-.4 4.5 4.5 0 0 0 1.09-1.02l1.38 1.54a4.291 4.291 0 0 1-1.75 1.41 6.1 6.1 0 0 1-2.57.51zm-.04-9a2.051 2.051 0 0 0-1.62.68 2.562 2.562 0 0 0-.6 1.76v.16h4.28v-.18a2.738 2.738 0 0 0-.53-1.75 1.835 1.835 0 0 0-1.53-.67zm5.86-1.68h2.46l1.06 4.3.82 3.58h.08l.96-3.58 1.22-4.3h2.32l1.26 4.3.98 3.58h.08l.82-3.58 1.04-4.3h2.38L78.46 0H75.7l-1.34-4.6-.78-2.84h-.06l-.76 2.84L71.44 0h-2.72z" transform="translate(956 8084)"/>
        </g>
        <g id="Group_1264" data-name="Group 1264">
            <rect id="Rectangle_841" data-name="Rectangle 841" class="cls-7" width="240" height="77" rx="33" transform="translate(832 9033)"/>
            <path id="Path_594" data-name="Path 594" class="cls-1" d="M-77.99 0v-2.12h1.84v-9.72h-1.84v-2.12h6.34v2.12h-1.86v9.72h1.86V0zm8.88 0v-10.44h2.56v1.74h.1a3.341 3.341 0 0 1 1.01-1.41 2.914 2.914 0 0 1 1.91-.57 3.008 3.008 0 0 1 2.48 1.06 4.683 4.683 0 0 1 .86 3.02V0h-2.56v-6.34a2.892 2.892 0 0 0-.4-1.68 1.51 1.51 0 0 0-1.32-.56 2.688 2.688 0 0 0-.77.11 2.169 2.169 0 0 0-.66.32 1.671 1.671 0 0 0-.47.52 1.428 1.428 0 0 0-.18.73V0zm15.02 0a2.723 2.723 0 0 1-2.01-.69 2.665 2.665 0 0 1-.69-1.97V-8.4h-1.54v-2.04h.8a.955.955 0 0 0 .79-.27 1.307 1.307 0 0 0 .21-.81v-1.78h2.3v2.86h2.14v2.04h-2.14v6.36h1.98V0zm8.36.24a5.21 5.21 0 0 1-2.07-.39 4.285 4.285 0 0 1-1.54-1.1 4.92 4.92 0 0 1-.97-1.72 7.091 7.091 0 0 1-.34-2.27 7.124 7.124 0 0 1 .33-2.24 4.9 4.9 0 0 1 .95-1.71 4.21 4.21 0 0 1 1.52-1.1 5.084 5.084 0 0 1 2.04-.39 4.971 4.971 0 0 1 2.12.42 4.083 4.083 0 0 1 1.48 1.14 4.922 4.922 0 0 1 .87 1.67 6.918 6.918 0 0 1 .29 2.03v.84h-6.94v.26a2.584 2.584 0 0 0 .64 1.83 2.467 2.467 0 0 0 1.9.69 2.813 2.813 0 0 0 1.57-.4 4.5 4.5 0 0 0 1.09-1.02l1.38 1.54a4.291 4.291 0 0 1-1.75 1.41 6.1 6.1 0 0 1-2.57.51zm-.04-9a2.051 2.051 0 0 0-1.62.68 2.562 2.562 0 0 0-.6 1.76v.16h4.28v-.18a2.738 2.738 0 0 0-.53-1.75 1.835 1.835 0 0 0-1.53-.67zM-38.79 0v-10.44h2.56v2.16h.1a3.329 3.329 0 0 1 .31-.81 2.487 2.487 0 0 1 .55-.69 2.634 2.634 0 0 1 .81-.48 3.037 3.037 0 0 1 1.09-.18h.56v2.42h-.8a4.014 4.014 0 0 0-1.96.38 1.32 1.32 0 0 0-.66 1.24V0zm7.86 0v-10.44h2.56v1.74h.1a3.341 3.341 0 0 1 1.01-1.41 2.914 2.914 0 0 1 1.91-.57 3.008 3.008 0 0 1 2.48 1.06 4.683 4.683 0 0 1 .86 3.02V0h-2.56v-6.34a2.892 2.892 0 0 0-.4-1.68 1.51 1.51 0 0 0-1.32-.56 2.688 2.688 0 0 0-.77.11 2.169 2.169 0 0 0-.66.32 1.671 1.671 0 0 0-.47.52 1.428 1.428 0 0 0-.18.73V0zm19.44 0a1.8 1.8 0 0 1-1.33-.49 2.254 2.254 0 0 1-.61-1.31h-.12a2.449 2.449 0 0 1-1.06 1.53 3.613 3.613 0 0 1-1.98.51 3.376 3.376 0 0 1-2.46-.84 2.989 2.989 0 0 1-.86-2.24 2.716 2.716 0 0 1 1.16-2.41 5.831 5.831 0 0 1 3.3-.79h1.78v-.76a1.887 1.887 0 0 0-.46-1.36 1.975 1.975 0 0 0-1.48-.48 2.455 2.455 0 0 0-1.45.39 3.851 3.851 0 0 0-.93.93l-1.52-1.36a4.405 4.405 0 0 1 1.54-1.45 5.09 5.09 0 0 1 2.54-.55 4.764 4.764 0 0 1 3.22.96 3.466 3.466 0 0 1 1.1 2.76v4.92h1.04V0zm-4.24-1.62A2.674 2.674 0 0 0-14.27-2a1.242 1.242 0 0 0 .6-1.12V-4.5h-1.64q-2 0-2 1.28v.34a1.114 1.114 0 0 0 .41.95 1.91 1.91 0 0 0 1.17.31zM-5.43 0a2.548 2.548 0 0 1-1.94-.66 2.612 2.612 0 0 1-.62-1.86V-14.8h2.56v12.76h1.38V0zm16.84 0-1.12-3.56H5.33L4.23 0H1.55l4.68-13.96h3.28L14.15 0zM7.85-11.56h-.1L5.97-5.82h3.68zM16.05 0v-10.44h2.56v1.74h.1a3.341 3.341 0 0 1 1.01-1.41 2.914 2.914 0 0 1 1.91-.57 3.008 3.008 0 0 1 2.48 1.06 4.683 4.683 0 0 1 .86 3.02V0h-2.56v-6.34a2.892 2.892 0 0 0-.4-1.68 1.51 1.51 0 0 0-1.32-.56 2.688 2.688 0 0 0-.77.11 2.169 2.169 0 0 0-.66.32 1.671 1.671 0 0 0-.47.52 1.428 1.428 0 0 0-.18.73V0zm19.44 0a1.8 1.8 0 0 1-1.33-.49 2.254 2.254 0 0 1-.61-1.31h-.12a2.449 2.449 0 0 1-1.06 1.53 3.613 3.613 0 0 1-1.98.51 3.376 3.376 0 0 1-2.46-.84 2.989 2.989 0 0 1-.86-2.24 2.716 2.716 0 0 1 1.16-2.41 5.831 5.831 0 0 1 3.3-.79h1.78v-.76a1.887 1.887 0 0 0-.46-1.36 1.975 1.975 0 0 0-1.48-.48 2.455 2.455 0 0 0-1.45.39 3.851 3.851 0 0 0-.93.93l-1.52-1.36a4.405 4.405 0 0 1 1.54-1.45 5.09 5.09 0 0 1 2.54-.55 4.764 4.764 0 0 1 3.22.96 3.466 3.466 0 0 1 1.1 2.76v4.92h1.04V0zm-4.24-1.62A2.674 2.674 0 0 0 32.71-2a1.242 1.242 0 0 0 .6-1.12V-4.5h-1.64q-2 0-2 1.28v.34a1.114 1.114 0 0 0 .41.95 1.91 1.91 0 0 0 1.17.31zM41.55 0a2.548 2.548 0 0 1-1.94-.66 2.612 2.612 0 0 1-.62-1.86V-14.8h2.56v12.76h1.38V0zm9.58-10.44h2.4l-4.2 12.3a5.268 5.268 0 0 1-.45.97 2.41 2.41 0 0 1-.59.67 2.217 2.217 0 0 1-.82.38 4.65 4.65 0 0 1-1.12.12h-1.54V1.96h1.88L47.17.5l-3.74-10.94h2.54l1.82 5.52.68 2.64h.12l.72-2.64zM58.47.24a5.6 5.6 0 0 1-2.52-.51 5.8 5.8 0 0 1-1.8-1.41l1.56-1.52a4.738 4.738 0 0 0 1.27 1.04 3.242 3.242 0 0 0 1.59.38 2.179 2.179 0 0 0 1.33-.32 1.055 1.055 0 0 0 .41-.88.949.949 0 0 0-.29-.73 1.841 1.841 0 0 0-.99-.37l-1.04-.14a4.948 4.948 0 0 1-2.59-.97 2.7 2.7 0 0 1-.89-2.19 3.247 3.247 0 0 1 .28-1.37 2.907 2.907 0 0 1 .8-1.04 3.665 3.665 0 0 1 1.25-.66 5.41 5.41 0 0 1 1.63-.23 7.42 7.42 0 0 1 1.35.11 4.908 4.908 0 0 1 1.07.32 4.136 4.136 0 0 1 .88.52 8.262 8.262 0 0 1 .78.69l-1.5 1.5a3.96 3.96 0 0 0-1.1-.8 3.086 3.086 0 0 0-1.4-.32 1.929 1.929 0 0 0-1.21.3.957.957 0 0 0-.37.78.991.991 0 0 0 .31.79 2.146 2.146 0 0 0 1.05.39l1.06.14q3.38.48 3.38 3.08a3.105 3.105 0 0 1-.31 1.39 3.165 3.165 0 0 1-.87 1.08 4.11 4.11 0 0 1-1.35.7 5.852 5.852 0 0 1-1.77.25zm7.84-12.2a1.554 1.554 0 0 1-1.15-.36 1.265 1.265 0 0 1-.35-.92v-.4a1.265 1.265 0 0 1 .35-.92 1.554 1.554 0 0 1 1.15-.36 1.559 1.559 0 0 1 1.14.36 1.246 1.246 0 0 1 .36.92v.4a1.246 1.246 0 0 1-.36.92 1.559 1.559 0 0 1-1.14.36zm-1.28 1.52h2.56V0h-2.56zM73.97.24a5.6 5.6 0 0 1-2.52-.51 5.8 5.8 0 0 1-1.8-1.41l1.56-1.52a4.737 4.737 0 0 0 1.27 1.04 3.242 3.242 0 0 0 1.59.38 2.179 2.179 0 0 0 1.33-.32 1.055 1.055 0 0 0 .41-.88.949.949 0 0 0-.29-.73 1.841 1.841 0 0 0-.99-.37l-1.04-.14a4.948 4.948 0 0 1-2.59-.97 2.7 2.7 0 0 1-.89-2.19 3.247 3.247 0 0 1 .28-1.37 2.907 2.907 0 0 1 .8-1.04 3.665 3.665 0 0 1 1.25-.66 5.41 5.41 0 0 1 1.63-.23 7.421 7.421 0 0 1 1.35.11 4.908 4.908 0 0 1 1.07.32 4.136 4.136 0 0 1 .88.52 8.262 8.262 0 0 1 .78.69l-1.5 1.5a3.96 3.96 0 0 0-1.1-.8 3.086 3.086 0 0 0-1.4-.32 1.929 1.929 0 0 0-1.21.3.957.957 0 0 0-.37.78.991.991 0 0 0 .31.79 2.146 2.146 0 0 0 1.05.39l1.06.14q3.38.48 3.38 3.08a3.105 3.105 0 0 1-.31 1.39 3.165 3.165 0 0 1-.87 1.08 4.11 4.11 0 0 1-1.35.7 5.852 5.852 0 0 1-1.77.25z" transform="translate(952 9077)"/>
        </g>
        <g id="Group_1270" data-name="Group 1270">
            <rect id="Rectangle_845" data-name="Rectangle 845" class="cls-7" width="240" height="77" rx="33" transform="translate(832 9842)"/>
            <path id="Path_598" data-name="Path 598" class="cls-1" d="M-77.99 0v-2.12h1.84v-9.72h-1.84v-2.12h6.34v2.12h-1.86v9.72h1.86V0zm8.88 0v-10.44h2.56v1.74h.1a3.341 3.341 0 0 1 1.01-1.41 2.914 2.914 0 0 1 1.91-.57 3.008 3.008 0 0 1 2.48 1.06 4.683 4.683 0 0 1 .86 3.02V0h-2.56v-6.34a2.892 2.892 0 0 0-.4-1.68 1.51 1.51 0 0 0-1.32-.56 2.688 2.688 0 0 0-.77.11 2.169 2.169 0 0 0-.66.32 1.671 1.671 0 0 0-.47.52 1.428 1.428 0 0 0-.18.73V0zm15.02 0a2.723 2.723 0 0 1-2.01-.69 2.665 2.665 0 0 1-.69-1.97V-8.4h-1.54v-2.04h.8a.955.955 0 0 0 .79-.27 1.307 1.307 0 0 0 .21-.81v-1.78h2.3v2.86h2.14v2.04h-2.14v6.36h1.98V0zm8.36.24a5.21 5.21 0 0 1-2.07-.39 4.285 4.285 0 0 1-1.54-1.1 4.92 4.92 0 0 1-.97-1.72 7.091 7.091 0 0 1-.34-2.27 7.124 7.124 0 0 1 .33-2.24 4.9 4.9 0 0 1 .95-1.71 4.21 4.21 0 0 1 1.52-1.1 5.084 5.084 0 0 1 2.04-.39 4.971 4.971 0 0 1 2.12.42 4.083 4.083 0 0 1 1.48 1.14 4.922 4.922 0 0 1 .87 1.67 6.918 6.918 0 0 1 .29 2.03v.84h-6.94v.26a2.584 2.584 0 0 0 .64 1.83 2.467 2.467 0 0 0 1.9.69 2.813 2.813 0 0 0 1.57-.4 4.5 4.5 0 0 0 1.09-1.02l1.38 1.54a4.291 4.291 0 0 1-1.75 1.41 6.1 6.1 0 0 1-2.57.51zm-.04-9a2.051 2.051 0 0 0-1.62.68 2.562 2.562 0 0 0-.6 1.76v.16h4.28v-.18a2.738 2.738 0 0 0-.53-1.75 1.835 1.835 0 0 0-1.53-.67zM-38.79 0v-10.44h2.56v2.16h.1a3.329 3.329 0 0 1 .31-.81 2.487 2.487 0 0 1 .55-.69 2.634 2.634 0 0 1 .81-.48 3.037 3.037 0 0 1 1.09-.18h.56v2.42h-.8a4.014 4.014 0 0 0-1.96.38 1.32 1.32 0 0 0-.66 1.24V0zm7.86 0v-10.44h2.56v1.74h.1a3.341 3.341 0 0 1 1.01-1.41 2.914 2.914 0 0 1 1.91-.57 3.008 3.008 0 0 1 2.48 1.06 4.683 4.683 0 0 1 .86 3.02V0h-2.56v-6.34a2.892 2.892 0 0 0-.4-1.68 1.51 1.51 0 0 0-1.32-.56 2.688 2.688 0 0 0-.77.11 2.169 2.169 0 0 0-.66.32 1.671 1.671 0 0 0-.47.52 1.428 1.428 0 0 0-.18.73V0zm19.44 0a1.8 1.8 0 0 1-1.33-.49 2.254 2.254 0 0 1-.61-1.31h-.12a2.449 2.449 0 0 1-1.06 1.53 3.613 3.613 0 0 1-1.98.51 3.376 3.376 0 0 1-2.46-.84 2.989 2.989 0 0 1-.86-2.24 2.716 2.716 0 0 1 1.16-2.41 5.831 5.831 0 0 1 3.3-.79h1.78v-.76a1.887 1.887 0 0 0-.46-1.36 1.975 1.975 0 0 0-1.48-.48 2.455 2.455 0 0 0-1.45.39 3.851 3.851 0 0 0-.93.93l-1.52-1.36a4.405 4.405 0 0 1 1.54-1.45 5.09 5.09 0 0 1 2.54-.55 4.764 4.764 0 0 1 3.22.96 3.466 3.466 0 0 1 1.1 2.76v4.92h1.04V0zm-4.24-1.62A2.674 2.674 0 0 0-14.27-2a1.242 1.242 0 0 0 .6-1.12V-4.5h-1.64q-2 0-2 1.28v.34a1.114 1.114 0 0 0 .41.95 1.91 1.91 0 0 0 1.17.31zM-5.43 0a2.548 2.548 0 0 1-1.94-.66 2.612 2.612 0 0 1-.62-1.86V-14.8h2.56v12.76h1.38V0zm16.84 0-1.12-3.56H5.33L4.23 0H1.55l4.68-13.96h3.28L14.15 0zM7.85-11.56h-.1L5.97-5.82h3.68zM16.05 0v-10.44h2.56v1.74h.1a3.341 3.341 0 0 1 1.01-1.41 2.914 2.914 0 0 1 1.91-.57 3.008 3.008 0 0 1 2.48 1.06 4.683 4.683 0 0 1 .86 3.02V0h-2.56v-6.34a2.892 2.892 0 0 0-.4-1.68 1.51 1.51 0 0 0-1.32-.56 2.688 2.688 0 0 0-.77.11 2.169 2.169 0 0 0-.66.32 1.671 1.671 0 0 0-.47.52 1.428 1.428 0 0 0-.18.73V0zm19.44 0a1.8 1.8 0 0 1-1.33-.49 2.254 2.254 0 0 1-.61-1.31h-.12a2.449 2.449 0 0 1-1.06 1.53 3.613 3.613 0 0 1-1.98.51 3.376 3.376 0 0 1-2.46-.84 2.989 2.989 0 0 1-.86-2.24 2.716 2.716 0 0 1 1.16-2.41 5.831 5.831 0 0 1 3.3-.79h1.78v-.76a1.887 1.887 0 0 0-.46-1.36 1.975 1.975 0 0 0-1.48-.48 2.455 2.455 0 0 0-1.45.39 3.851 3.851 0 0 0-.93.93l-1.52-1.36a4.405 4.405 0 0 1 1.54-1.45 5.09 5.09 0 0 1 2.54-.55 4.764 4.764 0 0 1 3.22.96 3.466 3.466 0 0 1 1.1 2.76v4.92h1.04V0zm-4.24-1.62A2.674 2.674 0 0 0 32.71-2a1.242 1.242 0 0 0 .6-1.12V-4.5h-1.64q-2 0-2 1.28v.34a1.114 1.114 0 0 0 .41.95 1.91 1.91 0 0 0 1.17.31zM41.55 0a2.548 2.548 0 0 1-1.94-.66 2.612 2.612 0 0 1-.62-1.86V-14.8h2.56v12.76h1.38V0zm9.58-10.44h2.4l-4.2 12.3a5.268 5.268 0 0 1-.45.97 2.41 2.41 0 0 1-.59.67 2.217 2.217 0 0 1-.82.38 4.65 4.65 0 0 1-1.12.12h-1.54V1.96h1.88L47.17.5l-3.74-10.94h2.54l1.82 5.52.68 2.64h.12l.72-2.64zM58.47.24a5.6 5.6 0 0 1-2.52-.51 5.8 5.8 0 0 1-1.8-1.41l1.56-1.52a4.738 4.738 0 0 0 1.27 1.04 3.242 3.242 0 0 0 1.59.38 2.179 2.179 0 0 0 1.33-.32 1.055 1.055 0 0 0 .41-.88.949.949 0 0 0-.29-.73 1.841 1.841 0 0 0-.99-.37l-1.04-.14a4.948 4.948 0 0 1-2.59-.97 2.7 2.7 0 0 1-.89-2.19 3.247 3.247 0 0 1 .28-1.37 2.907 2.907 0 0 1 .8-1.04 3.665 3.665 0 0 1 1.25-.66 5.41 5.41 0 0 1 1.63-.23 7.42 7.42 0 0 1 1.35.11 4.908 4.908 0 0 1 1.07.32 4.136 4.136 0 0 1 .88.52 8.262 8.262 0 0 1 .78.69l-1.5 1.5a3.96 3.96 0 0 0-1.1-.8 3.086 3.086 0 0 0-1.4-.32 1.929 1.929 0 0 0-1.21.3.957.957 0 0 0-.37.78.991.991 0 0 0 .31.79 2.146 2.146 0 0 0 1.05.39l1.06.14q3.38.48 3.38 3.08a3.105 3.105 0 0 1-.31 1.39 3.165 3.165 0 0 1-.87 1.08 4.11 4.11 0 0 1-1.35.7 5.852 5.852 0 0 1-1.77.25zm7.84-12.2a1.554 1.554 0 0 1-1.15-.36 1.265 1.265 0 0 1-.35-.92v-.4a1.265 1.265 0 0 1 .35-.92 1.554 1.554 0 0 1 1.15-.36 1.559 1.559 0 0 1 1.14.36 1.246 1.246 0 0 1 .36.92v.4a1.246 1.246 0 0 1-.36.92 1.559 1.559 0 0 1-1.14.36zm-1.28 1.52h2.56V0h-2.56zM73.97.24a5.6 5.6 0 0 1-2.52-.51 5.8 5.8 0 0 1-1.8-1.41l1.56-1.52a4.737 4.737 0 0 0 1.27 1.04 3.242 3.242 0 0 0 1.59.38 2.179 2.179 0 0 0 1.33-.32 1.055 1.055 0 0 0 .41-.88.949.949 0 0 0-.29-.73 1.841 1.841 0 0 0-.99-.37l-1.04-.14a4.948 4.948 0 0 1-2.59-.97 2.7 2.7 0 0 1-.89-2.19 3.247 3.247 0 0 1 .28-1.37 2.907 2.907 0 0 1 .8-1.04 3.665 3.665 0 0 1 1.25-.66 5.41 5.41 0 0 1 1.63-.23 7.421 7.421 0 0 1 1.35.11 4.908 4.908 0 0 1 1.07.32 4.136 4.136 0 0 1 .88.52 8.262 8.262 0 0 1 .78.69l-1.5 1.5a3.96 3.96 0 0 0-1.1-.8 3.086 3.086 0 0 0-1.4-.32 1.929 1.929 0 0 0-1.21.3.957.957 0 0 0-.37.78.991.991 0 0 0 .31.79 2.146 2.146 0 0 0 1.05.39l1.06.14q3.38.48 3.38 3.08a3.105 3.105 0 0 1-.31 1.39 3.165 3.165 0 0 1-.87 1.08 4.11 4.11 0 0 1-1.35.7 5.852 5.852 0 0 1-1.77.25z" transform="translate(952 9886)"/>
        </g>
        <g id="Group_1260" data-name="Group 1260">
            <rect id="Rectangle_847" data-name="Rectangle 847" class="cls-7" width="240" height="77" rx="33" transform="translate(832 8444)"/>
            <path id="Path_591" data-name="Path 591" class="cls-1" d="M-77.99 0v-2.12h1.84v-9.72h-1.84v-2.12h6.34v2.12h-1.86v9.72h1.86V0zm8.88 0v-10.44h2.56v1.74h.1a3.341 3.341 0 0 1 1.01-1.41 2.914 2.914 0 0 1 1.91-.57 3.008 3.008 0 0 1 2.48 1.06 4.683 4.683 0 0 1 .86 3.02V0h-2.56v-6.34a2.892 2.892 0 0 0-.4-1.68 1.51 1.51 0 0 0-1.32-.56 2.688 2.688 0 0 0-.77.11 2.169 2.169 0 0 0-.66.32 1.671 1.671 0 0 0-.47.52 1.428 1.428 0 0 0-.18.73V0zm15.02 0a2.723 2.723 0 0 1-2.01-.69 2.665 2.665 0 0 1-.69-1.97V-8.4h-1.54v-2.04h.8a.955.955 0 0 0 .79-.27 1.307 1.307 0 0 0 .21-.81v-1.78h2.3v2.86h2.14v2.04h-2.14v6.36h1.98V0zm8.36.24a5.21 5.21 0 0 1-2.07-.39 4.285 4.285 0 0 1-1.54-1.1 4.92 4.92 0 0 1-.97-1.72 7.091 7.091 0 0 1-.34-2.27 7.124 7.124 0 0 1 .33-2.24 4.9 4.9 0 0 1 .95-1.71 4.21 4.21 0 0 1 1.52-1.1 5.084 5.084 0 0 1 2.04-.39 4.971 4.971 0 0 1 2.12.42 4.083 4.083 0 0 1 1.48 1.14 4.922 4.922 0 0 1 .87 1.67 6.918 6.918 0 0 1 .29 2.03v.84h-6.94v.26a2.584 2.584 0 0 0 .64 1.83 2.467 2.467 0 0 0 1.9.69 2.813 2.813 0 0 0 1.57-.4 4.5 4.5 0 0 0 1.09-1.02l1.38 1.54a4.291 4.291 0 0 1-1.75 1.41 6.1 6.1 0 0 1-2.57.51zm-.04-9a2.051 2.051 0 0 0-1.62.68 2.562 2.562 0 0 0-.6 1.76v.16h4.28v-.18a2.738 2.738 0 0 0-.53-1.75 1.835 1.835 0 0 0-1.53-.67zM-38.79 0v-10.44h2.56v2.16h.1a3.329 3.329 0 0 1 .31-.81 2.487 2.487 0 0 1 .55-.69 2.634 2.634 0 0 1 .81-.48 3.037 3.037 0 0 1 1.09-.18h.56v2.42h-.8a4.014 4.014 0 0 0-1.96.38 1.32 1.32 0 0 0-.66 1.24V0zm7.86 0v-10.44h2.56v1.74h.1a3.341 3.341 0 0 1 1.01-1.41 2.914 2.914 0 0 1 1.91-.57 3.008 3.008 0 0 1 2.48 1.06 4.683 4.683 0 0 1 .86 3.02V0h-2.56v-6.34a2.892 2.892 0 0 0-.4-1.68 1.51 1.51 0 0 0-1.32-.56 2.688 2.688 0 0 0-.77.11 2.169 2.169 0 0 0-.66.32 1.671 1.671 0 0 0-.47.52 1.428 1.428 0 0 0-.18.73V0zm19.44 0a1.8 1.8 0 0 1-1.33-.49 2.254 2.254 0 0 1-.61-1.31h-.12a2.449 2.449 0 0 1-1.06 1.53 3.613 3.613 0 0 1-1.98.51 3.376 3.376 0 0 1-2.46-.84 2.989 2.989 0 0 1-.86-2.24 2.716 2.716 0 0 1 1.16-2.41 5.831 5.831 0 0 1 3.3-.79h1.78v-.76a1.887 1.887 0 0 0-.46-1.36 1.975 1.975 0 0 0-1.48-.48 2.455 2.455 0 0 0-1.45.39 3.851 3.851 0 0 0-.93.93l-1.52-1.36a4.405 4.405 0 0 1 1.54-1.45 5.09 5.09 0 0 1 2.54-.55 4.764 4.764 0 0 1 3.22.96 3.466 3.466 0 0 1 1.1 2.76v4.92h1.04V0zm-4.24-1.62A2.674 2.674 0 0 0-14.27-2a1.242 1.242 0 0 0 .6-1.12V-4.5h-1.64q-2 0-2 1.28v.34a1.114 1.114 0 0 0 .41.95 1.91 1.91 0 0 0 1.17.31zM-5.43 0a2.548 2.548 0 0 1-1.94-.66 2.612 2.612 0 0 1-.62-1.86V-14.8h2.56v12.76h1.38V0zm16.84 0-1.12-3.56H5.33L4.23 0H1.55l4.68-13.96h3.28L14.15 0zM7.85-11.56h-.1L5.97-5.82h3.68zM16.05 0v-10.44h2.56v1.74h.1a3.341 3.341 0 0 1 1.01-1.41 2.914 2.914 0 0 1 1.91-.57 3.008 3.008 0 0 1 2.48 1.06 4.683 4.683 0 0 1 .86 3.02V0h-2.56v-6.34a2.892 2.892 0 0 0-.4-1.68 1.51 1.51 0 0 0-1.32-.56 2.688 2.688 0 0 0-.77.11 2.169 2.169 0 0 0-.66.32 1.671 1.671 0 0 0-.47.52 1.428 1.428 0 0 0-.18.73V0zm19.44 0a1.8 1.8 0 0 1-1.33-.49 2.254 2.254 0 0 1-.61-1.31h-.12a2.449 2.449 0 0 1-1.06 1.53 3.613 3.613 0 0 1-1.98.51 3.376 3.376 0 0 1-2.46-.84 2.989 2.989 0 0 1-.86-2.24 2.716 2.716 0 0 1 1.16-2.41 5.831 5.831 0 0 1 3.3-.79h1.78v-.76a1.887 1.887 0 0 0-.46-1.36 1.975 1.975 0 0 0-1.48-.48 2.455 2.455 0 0 0-1.45.39 3.851 3.851 0 0 0-.93.93l-1.52-1.36a4.405 4.405 0 0 1 1.54-1.45 5.09 5.09 0 0 1 2.54-.55 4.764 4.764 0 0 1 3.22.96 3.466 3.466 0 0 1 1.1 2.76v4.92h1.04V0zm-4.24-1.62A2.674 2.674 0 0 0 32.71-2a1.242 1.242 0 0 0 .6-1.12V-4.5h-1.64q-2 0-2 1.28v.34a1.114 1.114 0 0 0 .41.95 1.91 1.91 0 0 0 1.17.31zM41.55 0a2.548 2.548 0 0 1-1.94-.66 2.612 2.612 0 0 1-.62-1.86V-14.8h2.56v12.76h1.38V0zm9.58-10.44h2.4l-4.2 12.3a5.268 5.268 0 0 1-.45.97 2.41 2.41 0 0 1-.59.67 2.217 2.217 0 0 1-.82.38 4.65 4.65 0 0 1-1.12.12h-1.54V1.96h1.88L47.17.5l-3.74-10.94h2.54l1.82 5.52.68 2.64h.12l.72-2.64zM58.47.24a5.6 5.6 0 0 1-2.52-.51 5.8 5.8 0 0 1-1.8-1.41l1.56-1.52a4.738 4.738 0 0 0 1.27 1.04 3.242 3.242 0 0 0 1.59.38 2.179 2.179 0 0 0 1.33-.32 1.055 1.055 0 0 0 .41-.88.949.949 0 0 0-.29-.73 1.841 1.841 0 0 0-.99-.37l-1.04-.14a4.948 4.948 0 0 1-2.59-.97 2.7 2.7 0 0 1-.89-2.19 3.247 3.247 0 0 1 .28-1.37 2.907 2.907 0 0 1 .8-1.04 3.665 3.665 0 0 1 1.25-.66 5.41 5.41 0 0 1 1.63-.23 7.42 7.42 0 0 1 1.35.11 4.908 4.908 0 0 1 1.07.32 4.136 4.136 0 0 1 .88.52 8.262 8.262 0 0 1 .78.69l-1.5 1.5a3.96 3.96 0 0 0-1.1-.8 3.086 3.086 0 0 0-1.4-.32 1.929 1.929 0 0 0-1.21.3.957.957 0 0 0-.37.78.991.991 0 0 0 .31.79 2.146 2.146 0 0 0 1.05.39l1.06.14q3.38.48 3.38 3.08a3.105 3.105 0 0 1-.31 1.39 3.165 3.165 0 0 1-.87 1.08 4.11 4.11 0 0 1-1.35.7 5.852 5.852 0 0 1-1.77.25zm7.84-12.2a1.554 1.554 0 0 1-1.15-.36 1.265 1.265 0 0 1-.35-.92v-.4a1.265 1.265 0 0 1 .35-.92 1.554 1.554 0 0 1 1.15-.36 1.559 1.559 0 0 1 1.14.36 1.246 1.246 0 0 1 .36.92v.4a1.246 1.246 0 0 1-.36.92 1.559 1.559 0 0 1-1.14.36zm-1.28 1.52h2.56V0h-2.56zM73.97.24a5.6 5.6 0 0 1-2.52-.51 5.8 5.8 0 0 1-1.8-1.41l1.56-1.52a4.737 4.737 0 0 0 1.27 1.04 3.242 3.242 0 0 0 1.59.38 2.179 2.179 0 0 0 1.33-.32 1.055 1.055 0 0 0 .41-.88.949.949 0 0 0-.29-.73 1.841 1.841 0 0 0-.99-.37l-1.04-.14a4.948 4.948 0 0 1-2.59-.97 2.7 2.7 0 0 1-.89-2.19 3.247 3.247 0 0 1 .28-1.37 2.907 2.907 0 0 1 .8-1.04 3.665 3.665 0 0 1 1.25-.66 5.41 5.41 0 0 1 1.63-.23 7.421 7.421 0 0 1 1.35.11 4.908 4.908 0 0 1 1.07.32 4.136 4.136 0 0 1 .88.52 8.262 8.262 0 0 1 .78.69l-1.5 1.5a3.96 3.96 0 0 0-1.1-.8 3.086 3.086 0 0 0-1.4-.32 1.929 1.929 0 0 0-1.21.3.957.957 0 0 0-.37.78.991.991 0 0 0 .31.79 2.146 2.146 0 0 0 1.05.39l1.06.14q3.38.48 3.38 3.08a3.105 3.105 0 0 1-.31 1.39 3.165 3.165 0 0 1-.87 1.08 4.11 4.11 0 0 1-1.35.7 5.852 5.852 0 0 1-1.77.25z" transform="translate(952 8488)"/>
        </g>
        <g id="Group_1272" data-name="Group 1272">
            <rect id="Rectangle_846" data-name="Rectangle 846" class="cls-7" width="240" height="77" rx="33" transform="translate(832 10129)"/>
            <text id="Public_engagement" data-name="Public engagement" transform="translate(952 10173)" style="font-size:20px;font-family:IBMPlexSansThai-SemiBold,IBM Plex Sans Thai;font-weight:600;fill:#fff"><tspan x="-89.43" y="0">Public Engagement</tspan></text>
        </g>
        <g id="Group_1267" data-name="Group 1267">
            <rect id="Rectangle_843" data-name="Rectangle 843" class="cls-7" width="240" height="77" rx="33" transform="translate(832 9438)"/>
            <path id="Path_596" data-name="Path 596" class="cls-1" d="M-76.57 0v-13.96h9.2v2.34h-6.56v3.38h5.8v2.34h-5.8v3.56h6.56V0zm10.74 0 3.56-5.3-3.48-5.14h2.92l2.16 3.46h.08l2.14-3.46h2.72l-3.54 5.18L-55.71 0h-2.92l-2.2-3.6h-.08l-2.2 3.6zm11.98-10.44h2.56v1.72h.08a2.625 2.625 0 0 1 1.06-1.43 3.16 3.16 0 0 1 1.82-.53 3.568 3.568 0 0 1 3.05 1.41 6.655 6.655 0 0 1 1.05 4.03 6.741 6.741 0 0 1-1.05 4.06A3.559 3.559 0 0 1-48.33.24a3.072 3.072 0 0 1-1.81-.54 2.792 2.792 0 0 1-1.07-1.44h-.08V4h-2.56zm4.7 8.56a2.12 2.12 0 0 0 1.62-.66 2.5 2.5 0 0 0 .62-1.78v-1.8a2.531 2.531 0 0 0-.62-1.79 2.1 2.1 0 0 0-1.62-.67 2.469 2.469 0 0 0-1.53.46 1.453 1.453 0 0 0-.61 1.22v3.32a1.46 1.46 0 0 0 .61 1.26 2.548 2.548 0 0 0 1.53.44zM-37.63.24a5.21 5.21 0 0 1-2.07-.39 4.285 4.285 0 0 1-1.54-1.1 4.92 4.92 0 0 1-.97-1.72 7.091 7.091 0 0 1-.34-2.27 7.124 7.124 0 0 1 .33-2.24 4.9 4.9 0 0 1 .95-1.71 4.21 4.21 0 0 1 1.52-1.1 5.084 5.084 0 0 1 2.04-.39 4.971 4.971 0 0 1 2.12.42 4.083 4.083 0 0 1 1.48 1.14 4.922 4.922 0 0 1 .87 1.67 6.918 6.918 0 0 1 .29 2.03v.84h-6.94v.26a2.584 2.584 0 0 0 .64 1.83 2.467 2.467 0 0 0 1.9.69 2.813 2.813 0 0 0 1.57-.4 4.5 4.5 0 0 0 1.09-1.02l1.38 1.54a4.291 4.291 0 0 1-1.75 1.41 6.1 6.1 0 0 1-2.57.51zm-.04-9a2.051 2.051 0 0 0-1.62.68 2.562 2.562 0 0 0-.6 1.76v.16h4.28v-.18a2.738 2.738 0 0 0-.53-1.75 1.835 1.835 0 0 0-1.53-.67zM-30.69 0v-10.44h2.56v2.16h.1a3.329 3.329 0 0 1 .31-.81 2.487 2.487 0 0 1 .55-.69 2.634 2.634 0 0 1 .81-.48 3.037 3.037 0 0 1 1.09-.18h.56v2.42h-.8a4.014 4.014 0 0 0-1.96.38 1.32 1.32 0 0 0-.66 1.24V0zm11.2 0a2.723 2.723 0 0 1-2.01-.69 2.665 2.665 0 0 1-.69-1.97V-8.4h-1.54v-2.04h.8a.955.955 0 0 0 .79-.27 1.307 1.307 0 0 0 .21-.81v-1.78h2.3v2.86h2.14v2.04h-2.14v6.36h1.98V0zm8.52 0v-2.12h1.84v-9.72h-1.84v-2.12h6.34v2.12h-1.86v9.72h1.86V0zm8.88 0v-10.44H.47v1.74h.1a3.341 3.341 0 0 1 1.01-1.41 2.914 2.914 0 0 1 1.91-.57 3.008 3.008 0 0 1 2.48 1.06 4.683 4.683 0 0 1 .86 3.02V0H4.27v-6.34a2.892 2.892 0 0 0-.4-1.68 1.51 1.51 0 0 0-1.32-.56 2.688 2.688 0 0 0-.77.11 2.169 2.169 0 0 0-.66.32 1.671 1.671 0 0 0-.47.52 1.428 1.428 0 0 0-.18.73V0zm15.02 0a2.723 2.723 0 0 1-2.01-.69 2.665 2.665 0 0 1-.69-1.97V-8.4H8.69v-2.04h.8a.955.955 0 0 0 .79-.27 1.307 1.307 0 0 0 .21-.81v-1.78h2.3v2.86h2.14v2.04h-2.14v6.36h1.98V0zm8.36.24a5.21 5.21 0 0 1-2.07-.39 4.285 4.285 0 0 1-1.54-1.1 4.92 4.92 0 0 1-.97-1.72 7.091 7.091 0 0 1-.34-2.27 7.124 7.124 0 0 1 .33-2.24 4.9 4.9 0 0 1 .95-1.71 4.21 4.21 0 0 1 1.52-1.1 5.084 5.084 0 0 1 2.04-.39 4.971 4.971 0 0 1 2.12.42 4.083 4.083 0 0 1 1.48 1.14 4.922 4.922 0 0 1 .87 1.67 6.918 6.918 0 0 1 .29 2.03v.84h-6.94v.26a2.584 2.584 0 0 0 .64 1.83 2.467 2.467 0 0 0 1.9.69 2.813 2.813 0 0 0 1.57-.4 4.5 4.5 0 0 0 1.09-1.02l1.38 1.54a4.291 4.291 0 0 1-1.75 1.41 6.1 6.1 0 0 1-2.57.51zm-.04-9a2.051 2.051 0 0 0-1.62.68 2.562 2.562 0 0 0-.6 1.76v.16h4.28v-.18a2.738 2.738 0 0 0-.53-1.75 1.835 1.835 0 0 0-1.53-.67zM28.23 0v-10.44h2.56v2.16h.1a3.329 3.329 0 0 1 .31-.81 2.487 2.487 0 0 1 .55-.69 2.634 2.634 0 0 1 .81-.48 3.037 3.037 0 0 1 1.09-.18h.56v2.42h-.8a4.014 4.014 0 0 0-1.96.38 1.32 1.32 0 0 0-.66 1.24V0zm10.26 0-3.48-10.44h2.52l1.46 4.5 1.02 3.72h.14l1.02-3.72 1.42-4.5h2.44L41.53 0zm9.52-11.96a1.554 1.554 0 0 1-1.15-.36 1.265 1.265 0 0 1-.35-.92v-.4a1.265 1.265 0 0 1 .35-.92 1.554 1.554 0 0 1 1.15-.36 1.559 1.559 0 0 1 1.14.36 1.246 1.246 0 0 1 .36.92v.4a1.246 1.246 0 0 1-.36.92 1.559 1.559 0 0 1-1.14.36zm-1.28 1.52h2.56V0h-2.56zM56.47.24a5.21 5.21 0 0 1-2.07-.39 4.285 4.285 0 0 1-1.54-1.1 4.92 4.92 0 0 1-.97-1.72 7.091 7.091 0 0 1-.34-2.27 7.124 7.124 0 0 1 .33-2.24 4.9 4.9 0 0 1 .95-1.71 4.21 4.21 0 0 1 1.52-1.1 5.084 5.084 0 0 1 2.04-.39 4.971 4.971 0 0 1 2.12.42 4.083 4.083 0 0 1 1.48 1.14 4.922 4.922 0 0 1 .87 1.67 6.918 6.918 0 0 1 .29 2.03v.84h-6.94v.26a2.584 2.584 0 0 0 .64 1.83 2.467 2.467 0 0 0 1.9.69 2.813 2.813 0 0 0 1.57-.4 4.5 4.5 0 0 0 1.09-1.02l1.38 1.54a4.291 4.291 0 0 1-1.75 1.41 6.1 6.1 0 0 1-2.57.51zm-.04-9a2.051 2.051 0 0 0-1.62.68 2.562 2.562 0 0 0-.6 1.76v.16h4.28v-.18a2.738 2.738 0 0 0-.53-1.75 1.835 1.835 0 0 0-1.53-.67zm5.86-1.68h2.46l1.06 4.3.82 3.58h.08l.96-3.58 1.22-4.3h2.32l1.26 4.3.98 3.58h.08l.82-3.58 1.04-4.3h2.38L74.91 0h-2.76l-1.34-4.6-.78-2.84h-.06l-.76 2.84L67.89 0h-2.72z" transform="translate(952 9482)"/>
        </g>
        <g id="Group_1258" data-name="Group 1258">
            <rect id="Rectangle_839" data-name="Rectangle 839" class="cls-7" width="240" height="77" rx="33" transform="translate(832 8167)"/>
            <path id="Path_590" data-name="Path 590" class="cls-1" d="M-77.99 0v-2.12h1.84v-9.72h-1.84v-2.12h6.34v2.12h-1.86v9.72h1.86V0zm8.88 0v-10.44h2.56v1.74h.1a3.341 3.341 0 0 1 1.01-1.41 2.914 2.914 0 0 1 1.91-.57 3.008 3.008 0 0 1 2.48 1.06 4.683 4.683 0 0 1 .86 3.02V0h-2.56v-6.34a2.892 2.892 0 0 0-.4-1.68 1.51 1.51 0 0 0-1.32-.56 2.688 2.688 0 0 0-.77.11 2.169 2.169 0 0 0-.66.32 1.671 1.671 0 0 0-.47.52 1.428 1.428 0 0 0-.18.73V0zm15.02 0a2.723 2.723 0 0 1-2.01-.69 2.665 2.665 0 0 1-.69-1.97V-8.4h-1.54v-2.04h.8a.955.955 0 0 0 .79-.27 1.307 1.307 0 0 0 .21-.81v-1.78h2.3v2.86h2.14v2.04h-2.14v6.36h1.98V0zm8.36.24a5.21 5.21 0 0 1-2.07-.39 4.285 4.285 0 0 1-1.54-1.1 4.92 4.92 0 0 1-.97-1.72 7.091 7.091 0 0 1-.34-2.27 7.124 7.124 0 0 1 .33-2.24 4.9 4.9 0 0 1 .95-1.71 4.21 4.21 0 0 1 1.52-1.1 5.084 5.084 0 0 1 2.04-.39 4.971 4.971 0 0 1 2.12.42 4.083 4.083 0 0 1 1.48 1.14 4.922 4.922 0 0 1 .87 1.67 6.918 6.918 0 0 1 .29 2.03v.84h-6.94v.26a2.584 2.584 0 0 0 .64 1.83 2.467 2.467 0 0 0 1.9.69 2.813 2.813 0 0 0 1.57-.4 4.5 4.5 0 0 0 1.09-1.02l1.38 1.54a4.291 4.291 0 0 1-1.75 1.41 6.1 6.1 0 0 1-2.57.51zm-.04-9a2.051 2.051 0 0 0-1.62.68 2.562 2.562 0 0 0-.6 1.76v.16h4.28v-.18a2.738 2.738 0 0 0-.53-1.75 1.835 1.835 0 0 0-1.53-.67zM-38.79 0v-10.44h2.56v2.16h.1a3.329 3.329 0 0 1 .31-.81 2.487 2.487 0 0 1 .55-.69 2.634 2.634 0 0 1 .81-.48 3.037 3.037 0 0 1 1.09-.18h.56v2.42h-.8a4.014 4.014 0 0 0-1.96.38 1.32 1.32 0 0 0-.66 1.24V0zm7.86 0v-10.44h2.56v1.74h.1a3.341 3.341 0 0 1 1.01-1.41 2.914 2.914 0 0 1 1.91-.57 3.008 3.008 0 0 1 2.48 1.06 4.683 4.683 0 0 1 .86 3.02V0h-2.56v-6.34a2.892 2.892 0 0 0-.4-1.68 1.51 1.51 0 0 0-1.32-.56 2.688 2.688 0 0 0-.77.11 2.169 2.169 0 0 0-.66.32 1.671 1.671 0 0 0-.47.52 1.428 1.428 0 0 0-.18.73V0zm19.44 0a1.8 1.8 0 0 1-1.33-.49 2.254 2.254 0 0 1-.61-1.31h-.12a2.449 2.449 0 0 1-1.06 1.53 3.613 3.613 0 0 1-1.98.51 3.376 3.376 0 0 1-2.46-.84 2.989 2.989 0 0 1-.86-2.24 2.716 2.716 0 0 1 1.16-2.41 5.831 5.831 0 0 1 3.3-.79h1.78v-.76a1.887 1.887 0 0 0-.46-1.36 1.975 1.975 0 0 0-1.48-.48 2.455 2.455 0 0 0-1.45.39 3.851 3.851 0 0 0-.93.93l-1.52-1.36a4.405 4.405 0 0 1 1.54-1.45 5.09 5.09 0 0 1 2.54-.55 4.764 4.764 0 0 1 3.22.96 3.466 3.466 0 0 1 1.1 2.76v4.92h1.04V0zm-4.24-1.62A2.674 2.674 0 0 0-14.27-2a1.242 1.242 0 0 0 .6-1.12V-4.5h-1.64q-2 0-2 1.28v.34a1.114 1.114 0 0 0 .41.95 1.91 1.91 0 0 0 1.17.31zM-5.43 0a2.548 2.548 0 0 1-1.94-.66 2.612 2.612 0 0 1-.62-1.86V-14.8h2.56v12.76h1.38V0zm16.84 0-1.12-3.56H5.33L4.23 0H1.55l4.68-13.96h3.28L14.15 0zM7.85-11.56h-.1L5.97-5.82h3.68zM16.05 0v-10.44h2.56v1.74h.1a3.341 3.341 0 0 1 1.01-1.41 2.914 2.914 0 0 1 1.91-.57 3.008 3.008 0 0 1 2.48 1.06 4.683 4.683 0 0 1 .86 3.02V0h-2.56v-6.34a2.892 2.892 0 0 0-.4-1.68 1.51 1.51 0 0 0-1.32-.56 2.688 2.688 0 0 0-.77.11 2.169 2.169 0 0 0-.66.32 1.671 1.671 0 0 0-.47.52 1.428 1.428 0 0 0-.18.73V0zm19.44 0a1.8 1.8 0 0 1-1.33-.49 2.254 2.254 0 0 1-.61-1.31h-.12a2.449 2.449 0 0 1-1.06 1.53 3.613 3.613 0 0 1-1.98.51 3.376 3.376 0 0 1-2.46-.84 2.989 2.989 0 0 1-.86-2.24 2.716 2.716 0 0 1 1.16-2.41 5.831 5.831 0 0 1 3.3-.79h1.78v-.76a1.887 1.887 0 0 0-.46-1.36 1.975 1.975 0 0 0-1.48-.48 2.455 2.455 0 0 0-1.45.39 3.851 3.851 0 0 0-.93.93l-1.52-1.36a4.405 4.405 0 0 1 1.54-1.45 5.09 5.09 0 0 1 2.54-.55 4.764 4.764 0 0 1 3.22.96 3.466 3.466 0 0 1 1.1 2.76v4.92h1.04V0zm-4.24-1.62A2.674 2.674 0 0 0 32.71-2a1.242 1.242 0 0 0 .6-1.12V-4.5h-1.64q-2 0-2 1.28v.34a1.114 1.114 0 0 0 .41.95 1.91 1.91 0 0 0 1.17.31zM41.55 0a2.548 2.548 0 0 1-1.94-.66 2.612 2.612 0 0 1-.62-1.86V-14.8h2.56v12.76h1.38V0zm9.58-10.44h2.4l-4.2 12.3a5.268 5.268 0 0 1-.45.97 2.41 2.41 0 0 1-.59.67 2.217 2.217 0 0 1-.82.38 4.65 4.65 0 0 1-1.12.12h-1.54V1.96h1.88L47.17.5l-3.74-10.94h2.54l1.82 5.52.68 2.64h.12l.72-2.64zM58.47.24a5.6 5.6 0 0 1-2.52-.51 5.8 5.8 0 0 1-1.8-1.41l1.56-1.52a4.738 4.738 0 0 0 1.27 1.04 3.242 3.242 0 0 0 1.59.38 2.179 2.179 0 0 0 1.33-.32 1.055 1.055 0 0 0 .41-.88.949.949 0 0 0-.29-.73 1.841 1.841 0 0 0-.99-.37l-1.04-.14a4.948 4.948 0 0 1-2.59-.97 2.7 2.7 0 0 1-.89-2.19 3.247 3.247 0 0 1 .28-1.37 2.907 2.907 0 0 1 .8-1.04 3.665 3.665 0 0 1 1.25-.66 5.41 5.41 0 0 1 1.63-.23 7.42 7.42 0 0 1 1.35.11 4.908 4.908 0 0 1 1.07.32 4.136 4.136 0 0 1 .88.52 8.262 8.262 0 0 1 .78.69l-1.5 1.5a3.96 3.96 0 0 0-1.1-.8 3.086 3.086 0 0 0-1.4-.32 1.929 1.929 0 0 0-1.21.3.957.957 0 0 0-.37.78.991.991 0 0 0 .31.79 2.146 2.146 0 0 0 1.05.39l1.06.14q3.38.48 3.38 3.08a3.105 3.105 0 0 1-.31 1.39 3.165 3.165 0 0 1-.87 1.08 4.11 4.11 0 0 1-1.35.7 5.852 5.852 0 0 1-1.77.25zm7.84-12.2a1.554 1.554 0 0 1-1.15-.36 1.265 1.265 0 0 1-.35-.92v-.4a1.265 1.265 0 0 1 .35-.92 1.554 1.554 0 0 1 1.15-.36 1.559 1.559 0 0 1 1.14.36 1.246 1.246 0 0 1 .36.92v.4a1.246 1.246 0 0 1-.36.92 1.559 1.559 0 0 1-1.14.36zm-1.28 1.52h2.56V0h-2.56zM73.97.24a5.6 5.6 0 0 1-2.52-.51 5.8 5.8 0 0 1-1.8-1.41l1.56-1.52a4.737 4.737 0 0 0 1.27 1.04 3.242 3.242 0 0 0 1.59.38 2.179 2.179 0 0 0 1.33-.32 1.055 1.055 0 0 0 .41-.88.949.949 0 0 0-.29-.73 1.841 1.841 0 0 0-.99-.37l-1.04-.14a4.948 4.948 0 0 1-2.59-.97 2.7 2.7 0 0 1-.89-2.19 3.247 3.247 0 0 1 .28-1.37 2.907 2.907 0 0 1 .8-1.04 3.665 3.665 0 0 1 1.25-.66 5.41 5.41 0 0 1 1.63-.23 7.421 7.421 0 0 1 1.35.11 4.908 4.908 0 0 1 1.07.32 4.136 4.136 0 0 1 .88.52 8.262 8.262 0 0 1 .78.69l-1.5 1.5a3.96 3.96 0 0 0-1.1-.8 3.086 3.086 0 0 0-1.4-.32 1.929 1.929 0 0 0-1.21.3.957.957 0 0 0-.37.78.991.991 0 0 0 .31.79 2.146 2.146 0 0 0 1.05.39l1.06.14q3.38.48 3.38 3.08a3.105 3.105 0 0 1-.31 1.39 3.165 3.165 0 0 1-.87 1.08 4.11 4.11 0 0 1-1.35.7 5.852 5.852 0 0 1-1.77.25z" transform="translate(952 8211)"/>
        </g>
        <g id="Group_1261" data-name="Group 1261">
            <rect id="Rectangle_840" data-name="Rectangle 840" class="cls-7" width="280" height="77" rx="33" transform="translate(812 8571)"/>
            <path id="Path_592" data-name="Path 592" class="cls-1" d="M-97.82.24a6.634 6.634 0 0 1-3.05-.64 7.08 7.08 0 0 1-2.15-1.68l1.78-1.72a5.1 5.1 0 0 0 1.61 1.28 4.384 4.384 0 0 0 1.97.44 2.767 2.767 0 0 0 1.84-.53 1.785 1.785 0 0 0 .62-1.43 1.629 1.629 0 0 0-.4-1.14 2.673 2.673 0 0 0-1.5-.64l-1.32-.2q-4.18-.66-4.18-4.06a4.017 4.017 0 0 1 .35-1.7 3.615 3.615 0 0 1 1.01-1.3 4.679 4.679 0 0 1 1.59-.83 7.082 7.082 0 0 1 2.11-.29 6.8 6.8 0 0 1 2.76.52 5.419 5.419 0 0 1 2.02 1.54l-1.8 1.7a4.145 4.145 0 0 0-1.26-1.04 3.88 3.88 0 0 0-1.86-.4 2.822 2.822 0 0 0-1.71.43 1.428 1.428 0 0 0-.57 1.21 1.443 1.443 0 0 0 .46 1.18 3.233 3.233 0 0 0 1.48.56l1.3.24a5.967 5.967 0 0 1 3.13 1.35 3.58 3.58 0 0 1 1.01 2.71 4.518 4.518 0 0 1-.35 1.81 3.913 3.913 0 0 1-1.02 1.4 4.651 4.651 0 0 1-1.64.91 7.114 7.114 0 0 1-2.23.32zm10.9-.24a2.723 2.723 0 0 1-2.01-.69 2.665 2.665 0 0 1-.69-1.97V-8.4h-1.54v-2.04h.8a.955.955 0 0 0 .79-.27 1.306 1.306 0 0 0 .21-.81v-1.78h2.3v2.86h2.14v2.04h-2.14v6.36h1.98V0zm11.9 0a1.8 1.8 0 0 1-1.33-.49 2.254 2.254 0 0 1-.61-1.31h-.12a2.449 2.449 0 0 1-1.06 1.53 3.613 3.613 0 0 1-1.98.51 3.376 3.376 0 0 1-2.46-.84 2.989 2.989 0 0 1-.86-2.24 2.716 2.716 0 0 1 1.16-2.41 5.831 5.831 0 0 1 3.3-.79h1.78v-.76a1.887 1.887 0 0 0-.46-1.36 1.975 1.975 0 0 0-1.48-.48 2.455 2.455 0 0 0-1.45.39 3.851 3.851 0 0 0-.93.93l-1.52-1.36a4.405 4.405 0 0 1 1.54-1.45 5.09 5.09 0 0 1 2.54-.55 4.764 4.764 0 0 1 3.22.96 3.466 3.466 0 0 1 1.1 2.76v4.92h1.04V0zm-4.24-1.62A2.674 2.674 0 0 0-77.8-2a1.242 1.242 0 0 0 .6-1.12V-4.5h-1.64q-2 0-2 1.28v.34a1.114 1.114 0 0 0 .41.95 1.91 1.91 0 0 0 1.17.31zm7.74-13.18h2.56v8.92h.1l1.38-1.88 2.34-2.68h2.9l-3.6 4.04 3.98 6.4h-3.04l-2.68-4.68-1.38 1.5V0h-2.56zM-56.54.24a5.21 5.21 0 0 1-2.07-.39 4.285 4.285 0 0 1-1.54-1.1 4.92 4.92 0 0 1-.97-1.72 7.091 7.091 0 0 1-.34-2.27 7.124 7.124 0 0 1 .33-2.24 4.9 4.9 0 0 1 .95-1.71 4.21 4.21 0 0 1 1.52-1.1 5.084 5.084 0 0 1 2.04-.39 4.971 4.971 0 0 1 2.12.42 4.083 4.083 0 0 1 1.48 1.14 4.922 4.922 0 0 1 .87 1.67 6.918 6.918 0 0 1 .29 2.03v.84h-6.94v.26a2.584 2.584 0 0 0 .64 1.83 2.467 2.467 0 0 0 1.9.69 2.813 2.813 0 0 0 1.57-.4 4.5 4.5 0 0 0 1.09-1.02l1.38 1.54a4.291 4.291 0 0 1-1.75 1.41 6.1 6.1 0 0 1-2.57.51zm-.04-9a2.051 2.051 0 0 0-1.62.68 2.562 2.562 0 0 0-.6 1.76v.16h4.28v-.18a2.738 2.738 0 0 0-.53-1.75 1.835 1.835 0 0 0-1.53-.67zm6.98-6.04h2.56v6.1h.1a3.341 3.341 0 0 1 1.01-1.41 2.914 2.914 0 0 1 1.91-.57 3.008 3.008 0 0 1 2.48 1.06 4.683 4.683 0 0 1 .86 3.02V0h-2.56v-6.34a2.892 2.892 0 0 0-.4-1.68 1.51 1.51 0 0 0-1.32-.56 2.688 2.688 0 0 0-.77.11 2.169 2.169 0 0 0-.66.32 1.671 1.671 0 0 0-.47.52 1.428 1.428 0 0 0-.18.73V0h-2.56zM-33.7.24a5.073 5.073 0 0 1-2.01-.38 4.167 4.167 0 0 1-1.52-1.1 5.028 5.028 0 0 1-.97-1.73 7.091 7.091 0 0 1-.34-2.27 7 7 0 0 1 .34-2.26 4.934 4.934 0 0 1 .97-1.71 4.22 4.22 0 0 1 1.52-1.09 5.073 5.073 0 0 1 2.01-.38 5.146 5.146 0 0 1 2.02.38 4.2 4.2 0 0 1 1.53 1.09 4.934 4.934 0 0 1 .97 1.71 7 7 0 0 1 .34 2.26 7.091 7.091 0 0 1-.34 2.27 5.028 5.028 0 0 1-.97 1.73 4.148 4.148 0 0 1-1.53 1.1 5.146 5.146 0 0 1-2.02.38zm0-2.06a2.084 2.084 0 0 0 1.6-.62 2.572 2.572 0 0 0 .58-1.82V-6.2A2.541 2.541 0 0 0-32.1-8a2.084 2.084 0 0 0-1.6-.62 2.059 2.059 0 0 0-1.58.62 2.541 2.541 0 0 0-.58 1.8v1.94a2.572 2.572 0 0 0 .58 1.82 2.059 2.059 0 0 0 1.58.62zM-24.02 0a2.548 2.548 0 0 1-1.94-.66 2.612 2.612 0 0 1-.62-1.86V-14.8h2.56v12.76h1.38V0zm9.8-1.74h-.1A2.672 2.672 0 0 1-15.38-.3a3.118 3.118 0 0 1-1.82.54 3.538 3.538 0 0 1-3.03-1.42 6.741 6.741 0 0 1-1.05-4.06 6.655 6.655 0 0 1 1.05-4.03 3.547 3.547 0 0 1 3.03-1.41 3.16 3.16 0 0 1 1.82.53 2.625 2.625 0 0 1 1.06 1.43h.1v-6.08h2.56V0h-2.56zm-2.16-.14a2.594 2.594 0 0 0 1.54-.44 1.452 1.452 0 0 0 .62-1.26V-6.9a1.446 1.446 0 0 0-.62-1.22 2.513 2.513 0 0 0-1.54-.46 2.073 2.073 0 0 0-1.61.67 2.557 2.557 0 0 0-.61 1.79v1.8a2.52 2.52 0 0 0 .61 1.78 2.089 2.089 0 0 0 1.61.66zM-4.48.24a5.21 5.21 0 0 1-2.07-.39 4.285 4.285 0 0 1-1.54-1.1 4.92 4.92 0 0 1-.97-1.72 7.091 7.091 0 0 1-.34-2.27 7.124 7.124 0 0 1 .33-2.24 4.9 4.9 0 0 1 .95-1.71 4.21 4.21 0 0 1 1.52-1.1 5.084 5.084 0 0 1 2.04-.39 4.971 4.971 0 0 1 2.12.42A4.083 4.083 0 0 1-.96-9.12a4.922 4.922 0 0 1 .87 1.67A6.918 6.918 0 0 1 .2-5.42v.84h-6.94v.26a2.584 2.584 0 0 0 .64 1.83 2.467 2.467 0 0 0 1.9.69 2.813 2.813 0 0 0 1.57-.4 4.5 4.5 0 0 0 1.09-1.02l1.38 1.54A4.291 4.291 0 0 1-1.91-.27a6.1 6.1 0 0 1-2.57.51zm-.04-9a2.051 2.051 0 0 0-1.62.68 2.562 2.562 0 0 0-.6 1.76v.16h4.28v-.18a2.738 2.738 0 0 0-.53-1.75 1.835 1.835 0 0 0-1.53-.67zM2.46 0v-10.44h2.56v2.16h.1a3.329 3.329 0 0 1 .31-.81 2.487 2.487 0 0 1 .55-.69 2.634 2.634 0 0 1 .81-.48 3.037 3.037 0 0 1 1.09-.18h.56v2.42h-.8a4.014 4.014 0 0 0-1.96.38 1.32 1.32 0 0 0-.66 1.24V0zm12.16 0v-2.12h1.84v-9.72h-1.84v-2.12h6.34v2.12H19.1v9.72h1.86V0zm8.88 0v-10.44h2.56v1.74h.1a3.341 3.341 0 0 1 1.01-1.41 2.914 2.914 0 0 1 1.91-.57 3.008 3.008 0 0 1 2.48 1.06 4.683 4.683 0 0 1 .86 3.02V0h-2.56v-6.34a2.892 2.892 0 0 0-.4-1.68 1.51 1.51 0 0 0-1.32-.56 2.688 2.688 0 0 0-.77.11 2.169 2.169 0 0 0-.66.32 1.671 1.671 0 0 0-.47.52 1.428 1.428 0 0 0-.18.73V0zm15.02 0a2.723 2.723 0 0 1-2.01-.69 2.665 2.665 0 0 1-.69-1.97V-8.4h-1.54v-2.04h.8a.955.955 0 0 0 .79-.27 1.307 1.307 0 0 0 .21-.81v-1.78h2.3v2.86h2.14v2.04h-2.14v6.36h1.98V0zm8.36.24a5.21 5.21 0 0 1-2.07-.39 4.285 4.285 0 0 1-1.54-1.1 4.92 4.92 0 0 1-.97-1.72 7.091 7.091 0 0 1-.34-2.27 7.124 7.124 0 0 1 .33-2.24 4.9 4.9 0 0 1 .95-1.71 4.21 4.21 0 0 1 1.52-1.1 5.084 5.084 0 0 1 2.04-.39 4.971 4.971 0 0 1 2.12.42 4.083 4.083 0 0 1 1.48 1.14 4.922 4.922 0 0 1 .87 1.67 6.918 6.918 0 0 1 .29 2.03v.84h-6.94v.26a2.584 2.584 0 0 0 .64 1.83 2.467 2.467 0 0 0 1.9.69 2.813 2.813 0 0 0 1.57-.4 4.5 4.5 0 0 0 1.09-1.02l1.38 1.54a4.291 4.291 0 0 1-1.75 1.41 6.1 6.1 0 0 1-2.57.51zm-.04-9a2.051 2.051 0 0 0-1.62.68 2.562 2.562 0 0 0-.6 1.76v.16h4.28v-.18a2.738 2.738 0 0 0-.53-1.75 1.835 1.835 0 0 0-1.53-.67zM53.82 0v-10.44h2.56v2.16h.1a3.329 3.329 0 0 1 .31-.81 2.487 2.487 0 0 1 .55-.69 2.634 2.634 0 0 1 .81-.48 3.037 3.037 0 0 1 1.09-.18h.56v2.42H59a4.014 4.014 0 0 0-1.96.38 1.32 1.32 0 0 0-.66 1.24V0zm10.26 0L60.6-10.44h2.52l1.46 4.5 1.02 3.72h.14l1.02-3.72 1.42-4.5h2.44L67.12 0zm9.52-11.96a1.554 1.554 0 0 1-1.15-.36 1.265 1.265 0 0 1-.35-.92v-.4a1.265 1.265 0 0 1 .35-.92 1.554 1.554 0 0 1 1.15-.36 1.559 1.559 0 0 1 1.14.36 1.246 1.246 0 0 1 .36.92v.4a1.246 1.246 0 0 1-.36.92 1.559 1.559 0 0 1-1.14.36zm-1.28 1.52h2.56V0h-2.56zM82.06.24a5.21 5.21 0 0 1-2.07-.39 4.285 4.285 0 0 1-1.54-1.1 4.92 4.92 0 0 1-.97-1.72 7.091 7.091 0 0 1-.34-2.27 7.124 7.124 0 0 1 .33-2.24 4.9 4.9 0 0 1 .95-1.71 4.21 4.21 0 0 1 1.52-1.1 5.084 5.084 0 0 1 2.04-.39 4.971 4.971 0 0 1 2.12.42 4.083 4.083 0 0 1 1.48 1.14 4.922 4.922 0 0 1 .87 1.67 6.918 6.918 0 0 1 .29 2.03v.84H79.8v.26a2.584 2.584 0 0 0 .64 1.83 2.467 2.467 0 0 0 1.9.69 2.813 2.813 0 0 0 1.57-.4A4.5 4.5 0 0 0 85-3.22l1.38 1.54a4.291 4.291 0 0 1-1.75 1.41 6.1 6.1 0 0 1-2.57.51zm-.04-9a2.051 2.051 0 0 0-1.62.68 2.562 2.562 0 0 0-.6 1.76v.16h4.28v-.18a2.738 2.738 0 0 0-.53-1.75 1.835 1.835 0 0 0-1.53-.67zm5.86-1.68h2.46l1.06 4.3.82 3.58h.08l.96-3.58 1.22-4.3h2.32l1.26 4.3.98 3.58h.08l.82-3.58 1.04-4.3h2.38L100.5 0h-2.76L96.4-4.6l-.78-2.84h-.06L94.8-4.6 93.48 0h-2.72z" transform="translate(952 8615)"/>
        </g>
        <g id="Group_1269" data-name="Group 1269">
            <rect id="Rectangle_844" data-name="Rectangle 844" class="cls-7" width="280" height="77" rx="33" transform="translate(812 9715)"/>
            <path id="Path_597" data-name="Path 597" class="cls-1" d="M-97.82.24a6.634 6.634 0 0 1-3.05-.64 7.08 7.08 0 0 1-2.15-1.68l1.78-1.72a5.1 5.1 0 0 0 1.61 1.28 4.384 4.384 0 0 0 1.97.44 2.767 2.767 0 0 0 1.84-.53 1.785 1.785 0 0 0 .62-1.43 1.629 1.629 0 0 0-.4-1.14 2.673 2.673 0 0 0-1.5-.64l-1.32-.2q-4.18-.66-4.18-4.06a4.017 4.017 0 0 1 .35-1.7 3.615 3.615 0 0 1 1.01-1.3 4.679 4.679 0 0 1 1.59-.83 7.082 7.082 0 0 1 2.11-.29 6.8 6.8 0 0 1 2.76.52 5.419 5.419 0 0 1 2.02 1.54l-1.8 1.7a4.145 4.145 0 0 0-1.26-1.04 3.88 3.88 0 0 0-1.86-.4 2.822 2.822 0 0 0-1.71.43 1.428 1.428 0 0 0-.57 1.21 1.443 1.443 0 0 0 .46 1.18 3.233 3.233 0 0 0 1.48.56l1.3.24a5.967 5.967 0 0 1 3.13 1.35 3.58 3.58 0 0 1 1.01 2.71 4.518 4.518 0 0 1-.35 1.81 3.913 3.913 0 0 1-1.02 1.4 4.651 4.651 0 0 1-1.64.91 7.114 7.114 0 0 1-2.23.32zm10.9-.24a2.723 2.723 0 0 1-2.01-.69 2.665 2.665 0 0 1-.69-1.97V-8.4h-1.54v-2.04h.8a.955.955 0 0 0 .79-.27 1.306 1.306 0 0 0 .21-.81v-1.78h2.3v2.86h2.14v2.04h-2.14v6.36h1.98V0zm11.9 0a1.8 1.8 0 0 1-1.33-.49 2.254 2.254 0 0 1-.61-1.31h-.12a2.449 2.449 0 0 1-1.06 1.53 3.613 3.613 0 0 1-1.98.51 3.376 3.376 0 0 1-2.46-.84 2.989 2.989 0 0 1-.86-2.24 2.716 2.716 0 0 1 1.16-2.41 5.831 5.831 0 0 1 3.3-.79h1.78v-.76a1.887 1.887 0 0 0-.46-1.36 1.975 1.975 0 0 0-1.48-.48 2.455 2.455 0 0 0-1.45.39 3.851 3.851 0 0 0-.93.93l-1.52-1.36a4.405 4.405 0 0 1 1.54-1.45 5.09 5.09 0 0 1 2.54-.55 4.764 4.764 0 0 1 3.22.96 3.466 3.466 0 0 1 1.1 2.76v4.92h1.04V0zm-4.24-1.62A2.674 2.674 0 0 0-77.8-2a1.242 1.242 0 0 0 .6-1.12V-4.5h-1.64q-2 0-2 1.28v.34a1.114 1.114 0 0 0 .41.95 1.91 1.91 0 0 0 1.17.31zm7.74-13.18h2.56v8.92h.1l1.38-1.88 2.34-2.68h2.9l-3.6 4.04 3.98 6.4h-3.04l-2.68-4.68-1.38 1.5V0h-2.56zM-56.54.24a5.21 5.21 0 0 1-2.07-.39 4.285 4.285 0 0 1-1.54-1.1 4.92 4.92 0 0 1-.97-1.72 7.091 7.091 0 0 1-.34-2.27 7.124 7.124 0 0 1 .33-2.24 4.9 4.9 0 0 1 .95-1.71 4.21 4.21 0 0 1 1.52-1.1 5.084 5.084 0 0 1 2.04-.39 4.971 4.971 0 0 1 2.12.42 4.083 4.083 0 0 1 1.48 1.14 4.922 4.922 0 0 1 .87 1.67 6.918 6.918 0 0 1 .29 2.03v.84h-6.94v.26a2.584 2.584 0 0 0 .64 1.83 2.467 2.467 0 0 0 1.9.69 2.813 2.813 0 0 0 1.57-.4 4.5 4.5 0 0 0 1.09-1.02l1.38 1.54a4.291 4.291 0 0 1-1.75 1.41 6.1 6.1 0 0 1-2.57.51zm-.04-9a2.051 2.051 0 0 0-1.62.68 2.562 2.562 0 0 0-.6 1.76v.16h4.28v-.18a2.738 2.738 0 0 0-.53-1.75 1.835 1.835 0 0 0-1.53-.67zm6.98-6.04h2.56v6.1h.1a3.341 3.341 0 0 1 1.01-1.41 2.914 2.914 0 0 1 1.91-.57 3.008 3.008 0 0 1 2.48 1.06 4.683 4.683 0 0 1 .86 3.02V0h-2.56v-6.34a2.892 2.892 0 0 0-.4-1.68 1.51 1.51 0 0 0-1.32-.56 2.688 2.688 0 0 0-.77.11 2.169 2.169 0 0 0-.66.32 1.671 1.671 0 0 0-.47.52 1.428 1.428 0 0 0-.18.73V0h-2.56zM-33.7.24a5.073 5.073 0 0 1-2.01-.38 4.167 4.167 0 0 1-1.52-1.1 5.028 5.028 0 0 1-.97-1.73 7.091 7.091 0 0 1-.34-2.27 7 7 0 0 1 .34-2.26 4.934 4.934 0 0 1 .97-1.71 4.22 4.22 0 0 1 1.52-1.09 5.073 5.073 0 0 1 2.01-.38 5.146 5.146 0 0 1 2.02.38 4.2 4.2 0 0 1 1.53 1.09 4.934 4.934 0 0 1 .97 1.71 7 7 0 0 1 .34 2.26 7.091 7.091 0 0 1-.34 2.27 5.028 5.028 0 0 1-.97 1.73 4.148 4.148 0 0 1-1.53 1.1 5.146 5.146 0 0 1-2.02.38zm0-2.06a2.084 2.084 0 0 0 1.6-.62 2.572 2.572 0 0 0 .58-1.82V-6.2A2.541 2.541 0 0 0-32.1-8a2.084 2.084 0 0 0-1.6-.62 2.059 2.059 0 0 0-1.58.62 2.541 2.541 0 0 0-.58 1.8v1.94a2.572 2.572 0 0 0 .58 1.82 2.059 2.059 0 0 0 1.58.62zM-24.02 0a2.548 2.548 0 0 1-1.94-.66 2.612 2.612 0 0 1-.62-1.86V-14.8h2.56v12.76h1.38V0zm9.8-1.74h-.1A2.672 2.672 0 0 1-15.38-.3a3.118 3.118 0 0 1-1.82.54 3.538 3.538 0 0 1-3.03-1.42 6.741 6.741 0 0 1-1.05-4.06 6.655 6.655 0 0 1 1.05-4.03 3.547 3.547 0 0 1 3.03-1.41 3.16 3.16 0 0 1 1.82.53 2.625 2.625 0 0 1 1.06 1.43h.1v-6.08h2.56V0h-2.56zm-2.16-.14a2.594 2.594 0 0 0 1.54-.44 1.452 1.452 0 0 0 .62-1.26V-6.9a1.446 1.446 0 0 0-.62-1.22 2.513 2.513 0 0 0-1.54-.46 2.073 2.073 0 0 0-1.61.67 2.557 2.557 0 0 0-.61 1.79v1.8a2.52 2.52 0 0 0 .61 1.78 2.089 2.089 0 0 0 1.61.66zM-4.48.24a5.21 5.21 0 0 1-2.07-.39 4.285 4.285 0 0 1-1.54-1.1 4.92 4.92 0 0 1-.97-1.72 7.091 7.091 0 0 1-.34-2.27 7.124 7.124 0 0 1 .33-2.24 4.9 4.9 0 0 1 .95-1.71 4.21 4.21 0 0 1 1.52-1.1 5.084 5.084 0 0 1 2.04-.39 4.971 4.971 0 0 1 2.12.42A4.083 4.083 0 0 1-.96-9.12a4.922 4.922 0 0 1 .87 1.67A6.918 6.918 0 0 1 .2-5.42v.84h-6.94v.26a2.584 2.584 0 0 0 .64 1.83 2.467 2.467 0 0 0 1.9.69 2.813 2.813 0 0 0 1.57-.4 4.5 4.5 0 0 0 1.09-1.02l1.38 1.54A4.291 4.291 0 0 1-1.91-.27a6.1 6.1 0 0 1-2.57.51zm-.04-9a2.051 2.051 0 0 0-1.62.68 2.562 2.562 0 0 0-.6 1.76v.16h4.28v-.18a2.738 2.738 0 0 0-.53-1.75 1.835 1.835 0 0 0-1.53-.67zM2.46 0v-10.44h2.56v2.16h.1a3.329 3.329 0 0 1 .31-.81 2.487 2.487 0 0 1 .55-.69 2.634 2.634 0 0 1 .81-.48 3.037 3.037 0 0 1 1.09-.18h.56v2.42h-.8a4.014 4.014 0 0 0-1.96.38 1.32 1.32 0 0 0-.66 1.24V0zm12.16 0v-2.12h1.84v-9.72h-1.84v-2.12h6.34v2.12H19.1v9.72h1.86V0zm8.88 0v-10.44h2.56v1.74h.1a3.341 3.341 0 0 1 1.01-1.41 2.914 2.914 0 0 1 1.91-.57 3.008 3.008 0 0 1 2.48 1.06 4.683 4.683 0 0 1 .86 3.02V0h-2.56v-6.34a2.892 2.892 0 0 0-.4-1.68 1.51 1.51 0 0 0-1.32-.56 2.688 2.688 0 0 0-.77.11 2.169 2.169 0 0 0-.66.32 1.671 1.671 0 0 0-.47.52 1.428 1.428 0 0 0-.18.73V0zm15.02 0a2.723 2.723 0 0 1-2.01-.69 2.665 2.665 0 0 1-.69-1.97V-8.4h-1.54v-2.04h.8a.955.955 0 0 0 .79-.27 1.307 1.307 0 0 0 .21-.81v-1.78h2.3v2.86h2.14v2.04h-2.14v6.36h1.98V0zm8.36.24a5.21 5.21 0 0 1-2.07-.39 4.285 4.285 0 0 1-1.54-1.1 4.92 4.92 0 0 1-.97-1.72 7.091 7.091 0 0 1-.34-2.27 7.124 7.124 0 0 1 .33-2.24 4.9 4.9 0 0 1 .95-1.71 4.21 4.21 0 0 1 1.52-1.1 5.084 5.084 0 0 1 2.04-.39 4.971 4.971 0 0 1 2.12.42 4.083 4.083 0 0 1 1.48 1.14 4.922 4.922 0 0 1 .87 1.67 6.918 6.918 0 0 1 .29 2.03v.84h-6.94v.26a2.584 2.584 0 0 0 .64 1.83 2.467 2.467 0 0 0 1.9.69 2.813 2.813 0 0 0 1.57-.4 4.5 4.5 0 0 0 1.09-1.02l1.38 1.54a4.291 4.291 0 0 1-1.75 1.41 6.1 6.1 0 0 1-2.57.51zm-.04-9a2.051 2.051 0 0 0-1.62.68 2.562 2.562 0 0 0-.6 1.76v.16h4.28v-.18a2.738 2.738 0 0 0-.53-1.75 1.835 1.835 0 0 0-1.53-.67zM53.82 0v-10.44h2.56v2.16h.1a3.329 3.329 0 0 1 .31-.81 2.487 2.487 0 0 1 .55-.69 2.634 2.634 0 0 1 .81-.48 3.037 3.037 0 0 1 1.09-.18h.56v2.42H59a4.014 4.014 0 0 0-1.96.38 1.32 1.32 0 0 0-.66 1.24V0zm10.26 0L60.6-10.44h2.52l1.46 4.5 1.02 3.72h.14l1.02-3.72 1.42-4.5h2.44L67.12 0zm9.52-11.96a1.554 1.554 0 0 1-1.15-.36 1.265 1.265 0 0 1-.35-.92v-.4a1.265 1.265 0 0 1 .35-.92 1.554 1.554 0 0 1 1.15-.36 1.559 1.559 0 0 1 1.14.36 1.246 1.246 0 0 1 .36.92v.4a1.246 1.246 0 0 1-.36.92 1.559 1.559 0 0 1-1.14.36zm-1.28 1.52h2.56V0h-2.56zM82.06.24a5.21 5.21 0 0 1-2.07-.39 4.285 4.285 0 0 1-1.54-1.1 4.92 4.92 0 0 1-.97-1.72 7.091 7.091 0 0 1-.34-2.27 7.124 7.124 0 0 1 .33-2.24 4.9 4.9 0 0 1 .95-1.71 4.21 4.21 0 0 1 1.52-1.1 5.084 5.084 0 0 1 2.04-.39 4.971 4.971 0 0 1 2.12.42 4.083 4.083 0 0 1 1.48 1.14 4.922 4.922 0 0 1 .87 1.67 6.918 6.918 0 0 1 .29 2.03v.84H79.8v.26a2.584 2.584 0 0 0 .64 1.83 2.467 2.467 0 0 0 1.9.69 2.813 2.813 0 0 0 1.57-.4A4.5 4.5 0 0 0 85-3.22l1.38 1.54a4.291 4.291 0 0 1-1.75 1.41 6.1 6.1 0 0 1-2.57.51zm-.04-9a2.051 2.051 0 0 0-1.62.68 2.562 2.562 0 0 0-.6 1.76v.16h4.28v-.18a2.738 2.738 0 0 0-.53-1.75 1.835 1.835 0 0 0-1.53-.67zm5.86-1.68h2.46l1.06 4.3.82 3.58h.08l.96-3.58 1.22-4.3h2.32l1.26 4.3.98 3.58h.08l.82-3.58 1.04-4.3h2.38L100.5 0h-2.76L96.4-4.6l-.78-2.84h-.06L94.8-4.6 93.48 0h-2.72z" transform="translate(952 9759)"/>
        </g>
        <g id="Group_1265" data-name="Group 1265">
            <rect id="Rectangle_865" data-name="Rectangle 865" class="cls-7" width="240" height="77" rx="33" transform="translate(832 9161)"/>
            <path id="Path_595" data-name="Path 595" class="cls-1" d="M-76.57 0v-13.96h9.2v2.34h-6.56v3.38h5.8v2.34h-5.8v3.56h6.56V0zm10.74 0 3.56-5.3-3.48-5.14h2.92l2.16 3.46h.08l2.14-3.46h2.72l-3.54 5.18L-55.71 0h-2.92l-2.2-3.6h-.08l-2.2 3.6zm11.98-10.44h2.56v1.72h.08a2.625 2.625 0 0 1 1.06-1.43 3.16 3.16 0 0 1 1.82-.53 3.568 3.568 0 0 1 3.05 1.41 6.655 6.655 0 0 1 1.05 4.03 6.741 6.741 0 0 1-1.05 4.06A3.559 3.559 0 0 1-48.33.24a3.072 3.072 0 0 1-1.81-.54 2.792 2.792 0 0 1-1.07-1.44h-.08V4h-2.56zm4.7 8.56a2.12 2.12 0 0 0 1.62-.66 2.5 2.5 0 0 0 .62-1.78v-1.8a2.531 2.531 0 0 0-.62-1.79 2.1 2.1 0 0 0-1.62-.67 2.469 2.469 0 0 0-1.53.46 1.453 1.453 0 0 0-.61 1.22v3.32a1.46 1.46 0 0 0 .61 1.26 2.548 2.548 0 0 0 1.53.44zM-37.63.24a5.21 5.21 0 0 1-2.07-.39 4.285 4.285 0 0 1-1.54-1.1 4.92 4.92 0 0 1-.97-1.72 7.091 7.091 0 0 1-.34-2.27 7.124 7.124 0 0 1 .33-2.24 4.9 4.9 0 0 1 .95-1.71 4.21 4.21 0 0 1 1.52-1.1 5.084 5.084 0 0 1 2.04-.39 4.971 4.971 0 0 1 2.12.42 4.083 4.083 0 0 1 1.48 1.14 4.922 4.922 0 0 1 .87 1.67 6.918 6.918 0 0 1 .29 2.03v.84h-6.94v.26a2.584 2.584 0 0 0 .64 1.83 2.467 2.467 0 0 0 1.9.69 2.813 2.813 0 0 0 1.57-.4 4.5 4.5 0 0 0 1.09-1.02l1.38 1.54a4.291 4.291 0 0 1-1.75 1.41 6.1 6.1 0 0 1-2.57.51zm-.04-9a2.051 2.051 0 0 0-1.62.68 2.562 2.562 0 0 0-.6 1.76v.16h4.28v-.18a2.738 2.738 0 0 0-.53-1.75 1.835 1.835 0 0 0-1.53-.67zM-30.69 0v-10.44h2.56v2.16h.1a3.329 3.329 0 0 1 .31-.81 2.487 2.487 0 0 1 .55-.69 2.634 2.634 0 0 1 .81-.48 3.037 3.037 0 0 1 1.09-.18h.56v2.42h-.8a4.014 4.014 0 0 0-1.96.38 1.32 1.32 0 0 0-.66 1.24V0zm11.2 0a2.723 2.723 0 0 1-2.01-.69 2.665 2.665 0 0 1-.69-1.97V-8.4h-1.54v-2.04h.8a.955.955 0 0 0 .79-.27 1.307 1.307 0 0 0 .21-.81v-1.78h2.3v2.86h2.14v2.04h-2.14v6.36h1.98V0zm8.52 0v-2.12h1.84v-9.72h-1.84v-2.12h6.34v2.12h-1.86v9.72h1.86V0zm8.88 0v-10.44H.47v1.74h.1a3.341 3.341 0 0 1 1.01-1.41 2.914 2.914 0 0 1 1.91-.57 3.008 3.008 0 0 1 2.48 1.06 4.683 4.683 0 0 1 .86 3.02V0H4.27v-6.34a2.892 2.892 0 0 0-.4-1.68 1.51 1.51 0 0 0-1.32-.56 2.688 2.688 0 0 0-.77.11 2.169 2.169 0 0 0-.66.32 1.671 1.671 0 0 0-.47.52 1.428 1.428 0 0 0-.18.73V0zm15.02 0a2.723 2.723 0 0 1-2.01-.69 2.665 2.665 0 0 1-.69-1.97V-8.4H8.69v-2.04h.8a.955.955 0 0 0 .79-.27 1.307 1.307 0 0 0 .21-.81v-1.78h2.3v2.86h2.14v2.04h-2.14v6.36h1.98V0zm8.36.24a5.21 5.21 0 0 1-2.07-.39 4.285 4.285 0 0 1-1.54-1.1 4.92 4.92 0 0 1-.97-1.72 7.091 7.091 0 0 1-.34-2.27 7.124 7.124 0 0 1 .33-2.24 4.9 4.9 0 0 1 .95-1.71 4.21 4.21 0 0 1 1.52-1.1 5.084 5.084 0 0 1 2.04-.39 4.971 4.971 0 0 1 2.12.42 4.083 4.083 0 0 1 1.48 1.14 4.922 4.922 0 0 1 .87 1.67 6.918 6.918 0 0 1 .29 2.03v.84h-6.94v.26a2.584 2.584 0 0 0 .64 1.83 2.467 2.467 0 0 0 1.9.69 2.813 2.813 0 0 0 1.57-.4 4.5 4.5 0 0 0 1.09-1.02l1.38 1.54a4.291 4.291 0 0 1-1.75 1.41 6.1 6.1 0 0 1-2.57.51zm-.04-9a2.051 2.051 0 0 0-1.62.68 2.562 2.562 0 0 0-.6 1.76v.16h4.28v-.18a2.738 2.738 0 0 0-.53-1.75 1.835 1.835 0 0 0-1.53-.67zM28.23 0v-10.44h2.56v2.16h.1a3.329 3.329 0 0 1 .31-.81 2.487 2.487 0 0 1 .55-.69 2.634 2.634 0 0 1 .81-.48 3.037 3.037 0 0 1 1.09-.18h.56v2.42h-.8a4.014 4.014 0 0 0-1.96.38 1.32 1.32 0 0 0-.66 1.24V0zm10.26 0-3.48-10.44h2.52l1.46 4.5 1.02 3.72h.14l1.02-3.72 1.42-4.5h2.44L41.53 0zm9.52-11.96a1.554 1.554 0 0 1-1.15-.36 1.265 1.265 0 0 1-.35-.92v-.4a1.265 1.265 0 0 1 .35-.92 1.554 1.554 0 0 1 1.15-.36 1.559 1.559 0 0 1 1.14.36 1.246 1.246 0 0 1 .36.92v.4a1.246 1.246 0 0 1-.36.92 1.559 1.559 0 0 1-1.14.36zm-1.28 1.52h2.56V0h-2.56zM56.47.24a5.21 5.21 0 0 1-2.07-.39 4.285 4.285 0 0 1-1.54-1.1 4.92 4.92 0 0 1-.97-1.72 7.091 7.091 0 0 1-.34-2.27 7.124 7.124 0 0 1 .33-2.24 4.9 4.9 0 0 1 .95-1.71 4.21 4.21 0 0 1 1.52-1.1 5.084 5.084 0 0 1 2.04-.39 4.971 4.971 0 0 1 2.12.42 4.083 4.083 0 0 1 1.48 1.14 4.922 4.922 0 0 1 .87 1.67 6.918 6.918 0 0 1 .29 2.03v.84h-6.94v.26a2.584 2.584 0 0 0 .64 1.83 2.467 2.467 0 0 0 1.9.69 2.813 2.813 0 0 0 1.57-.4 4.5 4.5 0 0 0 1.09-1.02l1.38 1.54a4.291 4.291 0 0 1-1.75 1.41 6.1 6.1 0 0 1-2.57.51zm-.04-9a2.051 2.051 0 0 0-1.62.68 2.562 2.562 0 0 0-.6 1.76v.16h4.28v-.18a2.738 2.738 0 0 0-.53-1.75 1.835 1.835 0 0 0-1.53-.67zm5.86-1.68h2.46l1.06 4.3.82 3.58h.08l.96-3.58 1.22-4.3h2.32l1.26 4.3.98 3.58h.08l.82-3.58 1.04-4.3h2.38L74.91 0h-2.76l-1.34-4.6-.78-2.84h-.06l-.76 2.84L67.89 0h-2.72z" transform="translate(952 9205)"/>
        </g>
    </g>
</svg>
