<svg xmlns="http://www.w3.org/2000/svg" width="446" height="41.231" viewBox="0 0 446 41.231">
    <defs>
        <style>
            .cls-2{fill:#36723b}
        </style>
    </defs>
    <g id="Group_1215" data-name="Group 1215" transform="translate(-733 -5194.269)">
        <path id="Line_170" data-name="Line 170" transform="translate(733 5233)" style="fill:none;stroke:#fff;stroke-width:5px" d="M0 0h446"/>
        <g id="Group_886" data-name="Group 886" transform="translate(15.874 41)">
            <path id="Icon_ionic-md-home" data-name="Icon ionic-md-home" class="cls-2" d="M16.156 35.173V24.949h7.668v10.224h7.8V19.837H36.6L19.99 4.5 3.375 19.837h4.984v15.336z" transform="translate(742.004 5148.769)"/>
            <path id="Icon_ionic-md-home-2" data-name="Icon ionic-md-home" class="cls-2" d="M16.156 35.173V24.949h7.668v10.224h7.8V19.837H36.6L19.99 4.5 3.375 19.837h4.984v15.336z" transform="translate(775.233 5148.769)"/>
            <path id="Icon_ionic-md-home-3" data-name="Icon ionic-md-home" class="cls-2" d="M16.156 35.173V24.949h7.668v10.224h7.8V19.837H36.6L19.99 4.5 3.375 19.837h4.984v15.336z" transform="translate(808.462 5148.769)"/>
            <path id="Icon_ionic-md-home-4" data-name="Icon ionic-md-home" class="cls-2" d="M16.156 35.173V24.949h7.668v10.224h7.8V19.837H36.6L19.99 4.5 3.375 19.837h4.984v15.336z" transform="translate(841.691 5148.769)"/>
            <path id="Icon_ionic-md-home-5" data-name="Icon ionic-md-home" class="cls-2" d="M16.156 35.173V24.949h7.668v10.224h7.8V19.837H36.6L19.99 4.5 3.375 19.837h4.984v15.336z" transform="translate(874.92 5148.769)"/>
            <path id="Icon_ionic-md-home-6" data-name="Icon ionic-md-home" class="cls-2" d="M16.156 35.173V24.949h7.668v10.224h7.8V19.837H36.6L19.99 4.5 3.375 19.837h4.984v15.336z" transform="translate(907.223 5148.769)"/>
            <path id="Icon_ionic-md-home-7" data-name="Icon ionic-md-home" class="cls-2" d="M16.156 35.173V24.949h7.668v10.224h7.8V19.837H36.6L19.99 4.5 3.375 19.837h4.984v15.336z" transform="translate(940.452 5148.769)"/>
            <path id="Icon_ionic-md-home-8" data-name="Icon ionic-md-home" class="cls-2" d="M16.156 35.173V24.949h7.668v10.224h7.8V19.837H36.6L19.99 4.5 3.375 19.837h4.984v15.336z" transform="translate(973.681 5148.769)"/>
            <path id="Icon_ionic-md-home-9" data-name="Icon ionic-md-home" class="cls-2" d="M16.156 35.173V24.949h7.668v10.224h7.8V19.837H36.6L19.99 4.5 3.375 19.837h4.984v15.336z" transform="translate(1006.91 5148.769)"/>
            <path id="Icon_ionic-md-home-10" data-name="Icon ionic-md-home" class="cls-2" d="M16.156 35.173V24.949h7.668v10.224h7.8V19.837H36.6L19.99 4.5 3.375 19.837h4.984v15.336z" transform="translate(1040.139 5148.769)"/>
            <path id="Icon_ionic-md-home-11" data-name="Icon ionic-md-home" class="cls-2" d="M16.156 35.173V24.949h7.668v10.224h7.8V19.837H36.6L19.99 4.5 3.375 19.837h4.984v15.336z" transform="translate(1073.368 5148.769)"/>
            <path id="Icon_ionic-md-home-12" data-name="Icon ionic-md-home" class="cls-2" d="M16.156 35.173V24.949h7.668v10.224h7.8V19.837H36.6L19.99 4.5 3.375 19.837h4.984v15.336z" transform="translate(1106.597 5148.769)"/>
        </g>
    </g>
</svg>
