<svg xmlns="http://www.w3.org/2000/svg" viewBox="0 0 756 253">
    <defs>
        <clipPath id="clip-path">
            <rect id="Rectangle_837" data-name="Rectangle 837" width="756" height="253" rx="126.5" transform="translate(0 -.086)" style="stroke:#c7642a;fill:#fff"/>
        </clipPath>
        <style>
            .cls-3{fill:none}.cls-4{fill:#c7642a}
        </style>
    </defs>
    <g id="Group_893" data-name="Group 893" transform="translate(-504 -4545.914)">
        <g id="Mask_Group_86" data-name="Mask Group 86" transform="translate(504 4546)" style="clip-path:url(#clip-path)">
            <g id="Group_892" data-name="Group 892" transform="translate(87.868 16.579)">
                <g id="elderly_black_24dp_1_" data-name="elderly_black_24dp (1)" transform="translate(130.145)">
                    <path id="Rectangle_835" data-name="Rectangle 835" class="cls-3" transform="translate(-.013 .336)" d="M0 0h298v298H0z"/>
                    <path id="Path_464" data-name="Path 464" class="cls-4" d="M99.427 51.328a24.914 24.914 0 1 0-24.914-24.914 24.987 24.987 0 0 0 24.914 24.914zm80.97 87.2v130.8h-12.456v-130.8a6.228 6.228 0 1 0-12.457 0v12.457h-12.457v-8.6A74.98 74.98 0 0 1 99.3 111a100.481 100.481 0 0 0-6.1 33.758c0 2.865.249 5.73.374 8.6l24.54 35v80.97H93.2V207.04L71.025 175.4l-2.741 44.1-37.37 49.825-19.931-14.948 32.388-43.226v-66.4a151.3 151.3 0 0 1 6.229-42.225l-18.686 10.589v44.1H6V98.664l67.268-38.242v.125a24.908 24.908 0 0 1 24.167.374 25.392 25.392 0 0 1 9.965 10.587l9.841 20.8a49.668 49.668 0 0 0 44.471 27.53 18.66 18.66 0 0 1 18.688 18.689z" transform="translate(68.456 16.912)"/>
                </g>
                <g id="elderly_woman_black_24dp" transform="translate(406.198)">
                    <g id="Group_889" data-name="Group 889" transform="translate(2.473)">
                        <path id="Rectangle_836" data-name="Rectangle 836" class="cls-3" transform="translate(.461 .336)" d="M0 0h169v298H0z"/>
                    </g>
                    <g id="Group_891" data-name="Group 891" transform="translate(0 11.804)">
                        <g id="Group_890" data-name="Group 890">
                            <path id="Path_465" data-name="Path 465" class="cls-4" d="M162.143 68.457a50.138 50.138 0 0 1-44.719-27.606l-9.868-20.861C107.431 19.741 101.31 6 85.2 6 39.977 6 6 139.534 6 168.389h31.229L11 203.365l19.986 14.99 37.474-49.966h24.98v49.966h24.983v-50.341L93.44 93.44l6.121-33.852a75.187 75.187 0 0 0 43.845 31.478v8.619H155.9V87.194a6.246 6.246 0 0 1 12.491 0v131.16h12.489V87.194a18.712 18.712 0 0 0-18.737-18.737z" transform="translate(-6 56.457)"/>
                            <path id="Path_466" data-name="Path 466" class="cls-4" d="M18.495 24.859a24 24 0 0 0-1.249 7.37A24.983 24.983 0 1 0 42.229 7.246a24 24 0 0 0-7.37 1.249A12.381 12.381 0 0 0 23.491 1 12.528 12.528 0 0 0 11 13.491a12.381 12.381 0 0 0 7.495 11.368z" transform="translate(51.457 -1)"/>
                        </g>
                    </g>
                </g>
                <g id="elderly_woman_black_24dp-2" data-name="elderly_woman_black_24dp">
                    <g id="Group_889-2" data-name="Group 889">
                        <path id="Rectangle_836-2" data-name="Rectangle 836" class="cls-3" transform="translate(.131 .336)" d="M0 0h175v298H0z"/>
                    </g>
                    <g id="Group_891-2" data-name="Group 891" transform="translate(.014 11.804)">
                        <g id="Group_890-2" data-name="Group 890">
                            <path id="Path_465-2" data-name="Path 465" class="cls-4" d="M162.143 68.457a50.138 50.138 0 0 1-44.719-27.606l-9.868-20.861C107.431 19.741 101.31 6 85.2 6 39.977 6 6 139.534 6 168.389h31.229L11 203.365l19.986 14.99 37.474-49.966h24.98v49.966h24.983v-50.341L93.44 93.44l6.121-33.852a75.187 75.187 0 0 0 43.845 31.478v8.619H155.9V87.194a6.246 6.246 0 0 1 12.491 0v131.16h12.489V87.194a18.712 18.712 0 0 0-18.737-18.737z" transform="translate(-6 56.457)"/>
                            <path id="Path_466-2" data-name="Path 466" class="cls-4" d="M18.495 24.859a24 24 0 0 0-1.249 7.37A24.983 24.983 0 1 0 42.229 7.246a24 24 0 0 0-7.37 1.249A12.381 12.381 0 0 0 23.491 1 12.528 12.528 0 0 0 11 13.491a12.381 12.381 0 0 0 7.495 11.368z" transform="translate(51.457 -1)"/>
                        </g>
                    </g>
                </g>
            </g>
        </g>
        <g id="Rectangle_838" data-name="Rectangle 838" transform="translate(504 4545.915)" style="stroke-width:3px;fill:none;stroke:#c7642a">
            <rect width="756" height="253" rx="126.5" style="stroke:none"/>
            <rect class="cls-3" x="1.5" y="1.5" width="753" height="250" rx="125"/>
        </g>
    </g>
</svg>
