<svg xmlns="http://www.w3.org/2000/svg" width="780" height="390.002" viewBox="0 0 780 390.002">
    <g data-name="Group 1577">
        <path data-name="Subtraction 8" d="M7962 15323a396.385 396.385 0 0 1-39.875-2.014 389.414 389.414 0 0 1-348.113-348.112A396.224 396.224 0 0 1 7572 14933h780a396.281 396.281 0 0 1-2.014 39.876 389.406 389.406 0 0 1-348.11 348.112A396.393 396.393 0 0 1 7962 15323z" transform="translate(-7571.999 -14932.998)" style="fill:#fff"/>
        <text transform="translate(390.001 95.002)" style="font-size:50px;font-family:IBMPlexSansThai-SemiBold,IBM Plex Sans Thai;font-weight:600;fill:#2b2b2b"><tspan x="-242" y="0">ข้อสรุปจากกระบวนการ</tspan></text>
        <text data-name="จากกระบวนการที่สร้างการมีส่วนร่วม จากผู้เข้าร่วมอันหลากหลายสามารถ เกิดข้อสรุปในเชิงเนื้อหาได้ดังนี้" transform="translate(114.001 137.002)" style="font-size:25px;font-family:IBMPlexSansThaiLooped,IBM Plex Sans Thai Looped;fill:#2b2b2b"><tspan x="76.313" y="28">จากกระบวนการที่สร้างการมีส่วนร่วม</tspan><tspan x="82.7" y="69">จากผู้เข้าร่วมอันหลากหลายสามารถ</tspan><tspan x="109.913" y="110">เกิดข้อสรุปในเชิงเนื้อหาได้ดังนี้</tspan></text>
    </g>
</svg>
