<svg xmlns="http://www.w3.org/2000/svg" width="224.031" height="224.031" viewBox="0 0 224.031 224.031">
    <defs>
        <style>
            .cls-2{fill:none;stroke:#fff;stroke-linecap:round;stroke-linejoin:round;stroke-width:2px}
        </style>
    </defs>
    <g id="Group_1219" data-name="Group 1219" transform="translate(-1402.482 -5963.984)">
        <path id="Path_471" data-name="Path 471" d="m280.895 281.464 6.37-22.425c.483-1.7 2.384-1.447 2.594.346l2.662 22.786c.19 1.622 1.827 2.05 2.481.649l9.915-21.248c.73-1.563 2.576-.812 2.495 1.015l-.993 22.362c-.074 1.666 1.505 2.516 2.352 1.266l13.094-19.322c.944-1.393 2.681-.17 2.308 1.624l-4.42 21.261c-.343 1.649 1.137 2.9 2.151 1.821l15.747-16.786c1.124-1.2 2.7.452 2.057 2.146l-7.508 19.635c-.6 1.57.739 3.192 1.893 2.3l17.785-13.818c1.269-.986 2.653 1.03 1.763 2.569l-10.205 17.637c-.83 1.435.331 3.378 1.6 2.677l19.184-10.6c1.383-.764 2.542 1.553 1.449 2.9l-12.52 15.39c-1.024 1.259-.069 3.466 1.286 2.971l19.982-7.295c1.465-.536 2.379 2.016 1.125 3.14l-14.485 12.978c-1.179 1.057-.449 3.467.965 3.186l20.246-4.02c1.519-.3 2.178 2.42.8 3.311l-16.138 10.438c-1.3.839-.8 3.391.642 3.33l20.061-.851c1.546-.065 1.943 2.767.479 3.419l-17.524 7.81c-1.379.615-1.132 3.252.32 3.414l19.508 2.177c1.547.173 1.679 3.059.16 3.471l-18.65 5.06c-1.43.388-1.43 3.053 0 3.441l18.65 5.059c1.519.412 1.387 3.3-.16 3.471l-19.508 2.177c-1.452.162-1.7 2.8-.32 3.414l17.524 7.81c1.464.653 1.067 3.485-.479 3.419l-20.061-.851c-1.447-.061-1.939 2.492-.642 3.331l16.141 10.441c1.377.892.718 3.613-.8 3.312l-20.247-4.012c-1.414-.28-2.144 2.13-.965 3.186l14.485 12.978c1.254 1.124.34 3.676-1.125 3.141l-19.982-7.3c-1.355-.494-2.31 1.713-1.286 2.972l12.52 15.389c1.093 1.344-.066 3.662-1.449 2.9l-19.184-10.6c-1.269-.7-2.43 1.243-1.6 2.677l10.205 17.638c.89 1.539-.494 3.555-1.763 2.568l-17.78-13.821c-1.154-.9-2.493.724-1.893 2.294l7.506 19.636c.648 1.694-.933 3.343-2.057 2.145L321.9 448.217c-1.014-1.081-2.494.172-2.151 1.821l4.42 21.262c.373 1.793-1.364 3.016-2.308 1.624l-13.09-19.324c-.847-1.25-2.426-.4-2.352 1.266l.993 22.362c.081 1.827-1.765 2.579-2.495 1.016L295 457c-.654-1.4-2.291-.972-2.481.649l-2.662 22.786c-.21 1.793-2.111 2.047-2.594.346l-6.37-22.424a1.268 1.268 0 0 0-2.525 0L272 480.777c-.484 1.7-2.385 1.447-2.594-.346l-2.663-22.786c-.189-1.621-1.827-2.05-2.481-.649l-9.915 21.249c-.729 1.563-2.575.811-2.494-1.016l.993-22.362c.074-1.666-1.506-2.516-2.353-1.266L237.4 472.924c-.943 1.392-2.681.169-2.308-1.624l4.42-21.262c.343-1.649-1.137-2.9-2.151-1.821L221.614 465c-1.123 1.2-2.7-.451-2.057-2.145l7.507-19.636c.6-1.57-.739-3.192-1.894-2.294l-17.784 13.817c-1.27.987-2.654-1.029-1.763-2.568l10.2-17.638c.83-1.434-.331-3.378-1.6-2.677l-19.184 10.6c-1.383.764-2.541-1.554-1.448-2.9l12.519-15.389c1.025-1.259.069-3.466-1.286-2.972l-19.981 7.3c-1.466.535-2.38-2.017-1.125-3.141l14.484-12.978c1.179-1.056.45-3.466-.964-3.186L177 413.217c-1.52.3-2.178-2.42-.8-3.312l16.141-10.446c1.3-.839.8-3.392-.642-3.331l-20.062.851c-1.546.066-1.942-2.766-.478-3.419l17.524-7.81c1.379-.615 1.131-3.252-.321-3.414l-19.508-2.177c-1.546-.172-1.679-3.059-.159-3.471l18.649-5.059c1.43-.388 1.43-3.053 0-3.441l-18.649-5.06c-1.52-.412-1.387-3.3.159-3.471l19.508-2.177c1.452-.162 1.7-2.8.321-3.414l-17.524-7.81c-1.464-.652-1.068-3.484.478-3.419l20.062.851c1.446.061 1.938-2.491.642-3.33L176.2 329.911c-1.377-.891-.719-3.613.8-3.311l20.246 4.02c1.414.281 2.143-2.129.964-3.186l-14.484-12.978c-1.255-1.124-.341-3.676 1.125-3.14l19.981 7.295c1.355.495 2.311-1.712 1.286-2.971L193.6 300.25c-1.093-1.344.065-3.661 1.448-2.9l19.184 10.6c1.269.7 2.43-1.242 1.6-2.677l-10.2-17.637c-.891-1.539.493-3.555 1.763-2.569l17.784 13.818c1.155.9 2.494-.725 1.894-2.3l-7.507-19.635c-.647-1.694.934-3.343 2.057-2.146l15.738 16.796c1.014 1.081 2.494-.172 2.151-1.821l-4.42-21.261c-.373-1.794 1.365-3.017 2.308-1.624l13.094 19.322c.847 1.25 2.427.4 2.353-1.266l-.993-22.362c-.081-1.827 1.765-2.578 2.494-1.015l9.915 21.248c.654 1.4 2.292.973 2.481-.649l2.663-22.786c.209-1.793 2.11-2.046 2.594-.346l6.369 22.425a1.268 1.268 0 0 0 2.525-.001z" transform="translate(1234.865 5706.092)" style="fill:#c7642a"/>
        <g id="Group_481" data-name="Group 481" transform="translate(1369.283 5937.688)">
            <g id="Group_473" data-name="Group 473" transform="translate(102.276 152.012)">
                <path id="Path_325" data-name="Path 325" class="cls-2" d="M134.031 167.417h22.8a4.371 4.371 0 0 0 4.371-4.371h0a4.371 4.371 0 0 0-4.371-4.371h-17.797c-5.228-4.126-9.637-5.474-14.005-5.474a17.7 17.7 0 0 0-12.126 4.046 7.517 7.517 0 0 1-4.723 1.67h-5.9" transform="translate(-102.276 -152.01)"/>
                <path id="Path_326" data-name="Path 326" class="cls-2" d="M153.811 167.417h14.777l10.682-13.708a4.409 4.409 0 0 1 6.145-.8h0a4.408 4.408 0 0 1 .849 6.17L175.356 173.5a12.2 12.2 0 0 1-7.006 4.532l-19.507 4.468a23.766 23.766 0 0 1-11.911-.337l-24.323-7.035a11.558 11.558 0 0 0-3.212-.455h-7.121" transform="translate(-102.276 -152.01)"/>
            </g>
            <g id="Group_480" data-name="Group 480" transform="translate(104.632 93.525)">
                <g id="Group_475" data-name="Group 475" transform="translate(27.38 23.779)">
                    <g id="Group_474" data-name="Group 474" transform="translate(11.412 9.445)">
                        <path id="Path_327" data-name="Path 327" class="cls-2" d="M147.552 131.345c0 2.538 2.058 6.849 4.6 6.849s4.6-4.311 4.6-6.849a4.6 4.6 0 1 0-9.192 0z" transform="translate(-143.423 -126.748)"/>
                        <path id="Path_328" data-name="Path 328" class="cls-2" d="M160.874 148.192v-4.663a3.139 3.139 0 0 0-2.3-3.023l-2.727-.754a3.135 3.135 0 0 1-2.157-2.087" transform="translate(-143.423 -126.748)"/>
                        <path id="Path_329" data-name="Path 329" class="cls-2" d="M150.606 137.665a3.139 3.139 0 0 1-2.157 2.087l-2.727.754a3.138 3.138 0 0 0-2.3 3.023v4.663" transform="translate(-143.423 -126.748)"/>
                    </g>
                    <circle id="Ellipse_1158" data-name="Ellipse 1158" class="cls-2" cx="14.239" cy="14.239" r="14.239" transform="rotate(-45 24.309 10.069)"/>
                </g>
                <g id="Group_477" data-name="Group 477" transform="translate(0 20.734)">
                    <g id="Group_476" data-name="Group 476" transform="translate(5.947 4.554)">
                        <path id="Path_330" data-name="Path 330" class="cls-2" d="M113.5 122.069c0 1.8 1.458 4.853 3.257 4.853s3.256-3.055 3.256-4.853a3.257 3.257 0 1 0-6.513 0z" transform="translate(-110.579 -118.812)"/>
                        <path id="Path_331" data-name="Path 331" class="cls-2" d="M122.943 134.005v-3.3a2.226 2.226 0 0 0-1.629-2.143l-1.932-.534a2.223 2.223 0 0 1-1.528-1.478" transform="translate(-110.579 -118.812)"/>
                        <path id="Path_332" data-name="Path 332" class="cls-2" d="M115.668 126.547a2.225 2.225 0 0 1-1.528 1.478l-1.932.534a2.225 2.225 0 0 0-1.629 2.143v3.3" transform="translate(-110.579 -118.812)"/>
                    </g>
                    <circle id="Ellipse_1159" data-name="Ellipse 1159" class="cls-2" cx="10.089" cy="10.089" r="10.089" transform="rotate(-76.776 12.396 9.821)"/>
                </g>
                <g id="Group_479" data-name="Group 479" transform="translate(53.363)">
                    <g id="Group_478" data-name="Group 478" transform="translate(6.628 5.075)">
                        <path id="Path_333" data-name="Path 333" class="cls-2" d="M167.883 102.23c0 2.005 1.625 5.409 3.63 5.409s3.63-3.4 3.63-5.409a3.63 3.63 0 1 0-7.26 0z" transform="translate(-164.622 -98.6)"/>
                        <path id="Path_334" data-name="Path 334" class="cls-2" d="M178.405 115.535v-3.682a2.48 2.48 0 0 0-1.816-2.388l-2.154-.6a2.472 2.472 0 0 1-1.7-1.648" transform="translate(-164.622 -98.6)"/>
                        <path id="Path_335" data-name="Path 335" class="cls-2" d="M170.3 107.221a2.476 2.476 0 0 1-1.7 1.648l-2.154.6a2.477 2.477 0 0 0-1.816 2.388v3.682" transform="translate(-164.622 -98.6)"/>
                    </g>
                    <circle id="Ellipse_1160" data-name="Ellipse 1160" class="cls-2" cx="11.246" cy="11.246" r="11.246" transform="rotate(-76.782 13.817 10.948)"/>
                </g>
                <path id="Line_117" data-name="Line 117" class="cls-2" transform="translate(21.439 36.752)" d="M11.839 6.2 0 0"/>
                <path id="Line_118" data-name="Line 118" class="cls-2" transform="translate(58.354 23.925)" d="M0 10.76 4.264 0"/>
            </g>
        </g>
    </g>
</svg>
