<svg xmlns="http://www.w3.org/2000/svg" width="224.031" height="224.031" viewBox="0 0 224.031 224.031">
    <defs>
        <style>
            .cls-2{fill:none;stroke:#fff;stroke-linecap:round;stroke-linejoin:round;stroke-width:2px}
        </style>
    </defs>
    <g id="Group_1218" data-name="Group 1218" transform="translate(-1029.986 -5963.984)">
        <path id="Path_470" data-name="Path 470" d="m280.895 281.464 6.37-22.425c.483-1.7 2.384-1.447 2.594.346l2.662 22.786c.19 1.622 1.827 2.05 2.481.649l9.915-21.248c.73-1.563 2.576-.812 2.495 1.015l-.993 22.362c-.074 1.666 1.505 2.516 2.352 1.266l13.094-19.322c.944-1.393 2.681-.17 2.308 1.624l-4.42 21.261c-.343 1.649 1.137 2.9 2.151 1.821l15.747-16.786c1.124-1.2 2.7.452 2.057 2.146l-7.508 19.635c-.6 1.57.739 3.192 1.893 2.3l17.785-13.818c1.269-.986 2.653 1.03 1.763 2.569l-10.205 17.637c-.83 1.435.331 3.378 1.6 2.677l19.184-10.6c1.383-.764 2.542 1.553 1.449 2.9l-12.52 15.39c-1.024 1.259-.069 3.466 1.286 2.971l19.982-7.295c1.465-.536 2.379 2.016 1.125 3.14l-14.485 12.978c-1.179 1.057-.449 3.467.965 3.186l20.246-4.02c1.519-.3 2.178 2.42.8 3.311l-16.138 10.438c-1.3.839-.8 3.391.642 3.33l20.061-.851c1.546-.065 1.943 2.767.479 3.419l-17.524 7.81c-1.379.615-1.132 3.252.32 3.414l19.508 2.177c1.547.173 1.679 3.059.16 3.471l-18.65 5.06c-1.43.388-1.43 3.053 0 3.441l18.65 5.059c1.519.412 1.387 3.3-.16 3.471l-19.508 2.177c-1.452.162-1.7 2.8-.32 3.414l17.524 7.81c1.464.653 1.067 3.485-.479 3.419l-20.061-.851c-1.447-.061-1.939 2.492-.642 3.331l16.141 10.441c1.377.892.718 3.613-.8 3.312l-20.247-4.012c-1.414-.28-2.144 2.13-.965 3.186l14.485 12.978c1.254 1.124.34 3.676-1.125 3.141l-19.982-7.3c-1.355-.494-2.31 1.713-1.286 2.972l12.52 15.389c1.093 1.344-.066 3.662-1.449 2.9l-19.184-10.6c-1.269-.7-2.43 1.243-1.6 2.677l10.205 17.638c.89 1.539-.494 3.555-1.763 2.568l-17.78-13.821c-1.154-.9-2.493.724-1.893 2.294l7.506 19.636c.648 1.694-.933 3.343-2.057 2.145L321.9 448.217c-1.014-1.081-2.494.172-2.151 1.821l4.42 21.262c.373 1.793-1.364 3.016-2.308 1.624l-13.09-19.324c-.847-1.25-2.426-.4-2.352 1.266l.993 22.362c.081 1.827-1.765 2.579-2.495 1.016L295 457c-.654-1.4-2.291-.972-2.481.649l-2.662 22.786c-.21 1.793-2.111 2.047-2.594.346l-6.37-22.424a1.268 1.268 0 0 0-2.525 0L272 480.777c-.484 1.7-2.385 1.447-2.594-.346l-2.663-22.786c-.189-1.621-1.827-2.05-2.481-.649l-9.915 21.249c-.729 1.563-2.575.811-2.494-1.016l.993-22.362c.074-1.666-1.506-2.516-2.353-1.266L237.4 472.924c-.943 1.392-2.681.169-2.308-1.624l4.42-21.262c.343-1.649-1.137-2.9-2.151-1.821L221.614 465c-1.123 1.2-2.7-.451-2.057-2.145l7.507-19.636c.6-1.57-.739-3.192-1.894-2.294l-17.784 13.817c-1.27.987-2.654-1.029-1.763-2.568l10.2-17.638c.83-1.434-.331-3.378-1.6-2.677l-19.184 10.6c-1.383.764-2.541-1.554-1.448-2.9l12.519-15.389c1.025-1.259.069-3.466-1.286-2.972l-19.981 7.3c-1.466.535-2.38-2.017-1.125-3.141l14.484-12.978c1.179-1.056.45-3.466-.964-3.186L177 413.217c-1.52.3-2.178-2.42-.8-3.312l16.141-10.446c1.3-.839.8-3.392-.642-3.331l-20.062.851c-1.546.066-1.942-2.766-.478-3.419l17.524-7.81c1.379-.615 1.131-3.252-.321-3.414l-19.508-2.177c-1.546-.172-1.679-3.059-.159-3.471l18.649-5.059c1.43-.388 1.43-3.053 0-3.441l-18.649-5.06c-1.52-.412-1.387-3.3.159-3.471l19.508-2.177c1.452-.162 1.7-2.8.321-3.414l-17.524-7.81c-1.464-.652-1.068-3.484.478-3.419l20.062.851c1.446.061 1.938-2.491.642-3.33L176.2 329.911c-1.377-.891-.719-3.613.8-3.311l20.246 4.02c1.414.281 2.143-2.129.964-3.186l-14.484-12.978c-1.255-1.124-.341-3.676 1.125-3.14l19.981 7.295c1.355.495 2.311-1.712 1.286-2.971L193.6 300.25c-1.093-1.344.065-3.661 1.448-2.9l19.184 10.6c1.269.7 2.43-1.242 1.6-2.677l-10.2-17.637c-.891-1.539.493-3.555 1.763-2.569l17.784 13.818c1.155.9 2.494-.725 1.894-2.3l-7.507-19.635c-.647-1.694.934-3.343 2.057-2.146l15.738 16.796c1.014 1.081 2.494-.172 2.151-1.821l-4.42-21.261c-.373-1.794 1.365-3.017 2.308-1.624l13.094 19.322c.847 1.25 2.427.4 2.353-1.266l-.993-22.362c-.081-1.827 1.765-2.578 2.494-1.015l9.915 21.248c.654 1.4 2.292.973 2.481-.649l2.663-22.786c.209-1.793 2.11-2.046 2.594-.346l6.369 22.425a1.268 1.268 0 0 0 2.525-.001z" transform="translate(862.369 5706.092)" style="fill:#c7642a"/>
        <g id="Group_469" data-name="Group 469" transform="translate(824.161 5940.434)">
            <path id="Path_321" data-name="Path 321" class="cls-2" d="M347.378 140.445v-8.96h-6.719a22.721 22.721 0 0 0-3.392-8.184l4.752-4.753-6.336-6.336-4.752 4.753a22.685 22.685 0 0 0-8.185-3.392v-6.72h-8.96v6.72a22.687 22.687 0 0 0-8.184 3.392l-4.753-4.753-6.336 6.336 4.753 4.753a22.706 22.706 0 0 0-3.392 8.184h-6.719v8.96h6.719a22.7 22.7 0 0 0 3.392 8.184l-4.753 4.753 6.336 6.336 4.753-4.753a22.688 22.688 0 0 0 8.184 3.392v6.72h8.96v-6.72a22.686 22.686 0 0 0 8.185-3.392l4.752 4.753 6.336-6.336-4.752-4.753a22.714 22.714 0 0 0 3.392-8.184zm-29.111 12.51a16.99 16.99 0 1 1 16.99-16.99 16.99 16.99 0 0 1-16.99 16.99z" transform="translate(-.427 -.399)"/>
            <g id="Group_467" data-name="Group 467" transform="translate(274.074 90.779)">
                <path id="Path_322" data-name="Path 322" class="cls-2" d="M361.611 125.955a44.785 44.785 0 0 0-87.483 0" transform="translate(-274.128 -90.779)"/>
                <path id="Line_113" data-name="Line 113" class="cls-2" transform="translate(88.335 30.806)" d="M1.31 0 0 5.932"/>
                <path id="Line_114" data-name="Line 114" class="cls-2" transform="translate(83.591 32.943)" d="m0 0 4.744 3.795"/>
            </g>
            <g id="Group_468" data-name="Group 468" transform="translate(271.96 143.354)">
                <path id="Path_323" data-name="Path 323" class="cls-2" d="M274.128 146.561a44.785 44.785 0 0 0 87.483 0" transform="translate(-272.014 -144.739)"/>
                <path id="Line_115" data-name="Line 115" class="cls-2" d="M0 5.932 1.31 0"/>
                <path id="Line_116" data-name="Line 116" class="cls-2" transform="translate(1.31)" d="M4.744 3.795 0 0"/>
            </g>
        </g>
    </g>
</svg>
