<svg xmlns="http://www.w3.org/2000/svg" width="780" height="390" viewBox="0 0 780 390">
    <g data-name="Group 1572">
        <path data-name="Subtraction 3" d="M614 1166a396.24 396.24 0 0 1-39.875-2.014 389.417 389.417 0 0 1-348.111-348.111A396.218 396.218 0 0 1 224 776h780a396.226 396.226 0 0 1-2.013 39.875 389.416 389.416 0 0 1-348.112 348.112A396.248 396.248 0 0 1 614 1166z" transform="translate(-224 -776)" style="fill:#fff"/>
        <text transform="translate(390 96)" style="font-size:50px;font-family:IBMPlexSansThai-SemiBold,IBM Plex Sans Thai;font-weight:600;fill:#c7642a"><tspan x="-230.025" y="0">กระบวนการหาคำตอบ</tspan></text>
        <text data-name="RISE Impact ได้จัดกระบวนการหารือ เชิงนโยบาย ในประเด็นนี้ทั้งหมด 5 ครั้ง รวมผู้เข้าร่วมกว่า 79 คน" transform="translate(114 138)" style="font-size:25px;font-family:IBMPlexSansThaiLooped,IBM Plex Sans Thai Looped;fill:#c7642a"><tspan x="75.238" y="28">RISE Impact </tspan><tspan y="28">ได้จัดกระบวนการหารือ</tspan><tspan x="68.15" y="69">เชิงนโยบาย ในประเด็นนี้ทั้งหมด 5 ครั้ง </tspan><tspan x="146.688" y="110">รวมผู้เข้าร่วมกว่า 79 คน</tspan></text>
    </g>
</svg>
