<svg xmlns="http://www.w3.org/2000/svg" width="42.607" height="34.948" viewBox="0 0 42.607 34.948">
    <g data-name="Group 102">
        <path data-name="Subtraction 2" d="M-2236.344 2431.783a.448.448 0 0 1-.184-.04.422.422 0 0 1-.243-.493l2.57-10.883 2.484-10.513a10.614 10.614 0 0 1 2.871-5.239 10.582 10.582 0 0 1 7.53-3.119h5.325a10.582 10.582 0 0 1 7.53 3.119 10.7 10.7 0 0 1 1.695 2.206h4.638l1.214-1.738 4.931-7.062a.414.414 0 0 1 .346-.187.45.45 0 0 1 .184.04.422.422 0 0 1 .244.492l-2.571 10.884-2.483 10.513a10.614 10.614 0 0 1-2.871 5.238 10.579 10.579 0 0 1-7.53 3.119h-5.325a10.577 10.577 0 0 1-7.53-3.119 10.7 10.7 0 0 1-1.695-2.205h-4.638l-1.213 1.737-4.935 7.067a.415.415 0 0 1-.344.183zm20.354-24.961a10.576 10.576 0 0 0-7.53 3.119 10.576 10.576 0 0 0-3.119 7.53 10.643 10.643 0 0 0 .374 2.8 10.65 10.65 0 0 0 1.054 2.522h9.222a10.58 10.58 0 0 0 7.53-3.119 10.584 10.584 0 0 0 3.119-7.531 10.635 10.635 0 0 0-.375-2.8 10.62 10.62 0 0 0-1.054-2.522h-9.221z" transform="translate(2237.292 -2397.335)" style="fill:#fff;stroke:transparent;stroke-miterlimit:10"/>
    </g>
</svg>
