<svg xmlns="http://www.w3.org/2000/svg" width="177.511" height="65.084" viewBox="0 0 177.511 65.084">
    <g data-name="Group 563">
        <text data-name="Policy Dialogue" transform="translate(82.511 26)" style="font-size:1.4rem;font-family:IBMPlexSansThai,sans-serif;font-weight:700;fill:#fff"><tspan x="0" y="0">Policy</tspan><tspan x="0" y="27">Dialogue</tspan></text>
        <g data-name="Group 533">
            <path data-name="Subtraction 1" d="M11301.776 3006.375a.812.812 0 0 1-.325-.071.737.737 0 0 1-.428-.871l4.541-19.229 4.388-18.572a18.8 18.8 0 0 1 18.378-14.767h9.409a18.762 18.762 0 0 1 13.3 5.509 18.926 18.926 0 0 1 2.994 3.9h8.193l2.146-3.072 8.712-12.478a.731.731 0 0 1 .611-.33.809.809 0 0 1 .325.07.748.748 0 0 1 .429.871l-4.542 19.229-4.388 18.575a18.8 18.8 0 0 1-18.378 14.764h-9.409a18.745 18.745 0 0 1-13.3-5.51 18.946 18.946 0 0 1-2.994-3.9h-8.2l-2.145 3.069-8.712 12.478a.73.73 0 0 1-.605.335zm35.96-44.1a18.8 18.8 0 0 0-16.291 28.224h16.291a18.809 18.809 0 0 0 16.295-28.224h-16.295z" transform="translate(-11300.488 -2941.791)" style="stroke:transparent;stroke-miterlimit:10;fill:#fff"/>
        </g>
    </g>
</svg>
