<svg xmlns="http://www.w3.org/2000/svg" width="176.558" height="60.98" viewBox="0 0 176.558 60.98">
    <g data-name="Group 563">
        <path data-name="Path 533" d="M5.267 0v-5.8h4.094c2.99 0 4.876-2.093 4.876-5.129s-1.886-5.129-4.876-5.129h-7.59V0zm0-13.018h3.68a1.49 1.49 0 0 1 1.679 1.587v1.012a1.49 1.49 0 0 1-1.679 1.587h-3.68zM21.114.276c3.542 0 5.658-2.438 5.658-6.325s-2.116-6.3-5.658-6.3-5.658 2.415-5.658 6.3S17.572.276 21.114.276zm0-2.691C19.78-2.415 19-3.289 19-4.807v-2.461c0-1.518.782-2.392 2.116-2.392s2.116.874 2.116 2.392v2.461c-.002 1.518-.784 2.392-2.118 2.392zM34.109 0v-2.645h-1.518V-17.02h-3.4v13.708C29.187-1.173 30.245 0 32.568 0zm3.749-13.363c1.38 0 1.978-.713 1.978-1.679v-.506c0-.966-.6-1.679-1.978-1.679s-1.978.713-1.978 1.679v.506c0 .966.598 1.679 1.978 1.679zM36.156 0h3.4v-12.075h-3.4zM47.61.276a4.731 4.731 0 0 0 4.9-3.335l-2.645-1.15a2.252 2.252 0 0 1-2.255 1.794c-1.38 0-2.093-.966-2.093-2.484v-2.254c0-1.518.713-2.507 2.093-2.507A2 2 0 0 1 49.68-8l2.76-1.2a4.745 4.745 0 0 0-4.83-3.151c-3.634 0-5.635 2.438-5.635 6.3S43.976.276 47.61.276zM60.237-6.44l-.9 3.5H59.2l-.874-3.5-1.771-5.635h-3.379L57.408.621l-.414 1.334h-2.277V4.6h2.116a3.438 3.438 0 0 0 3.7-2.737l4.646-13.938h-3.171zM1.771 27H7.82c4.255 0 7.061-2.691 7.061-8.027s-2.806-8.027-7.061-8.027H1.771zm3.5-3.1v-9.849H7.82c2.07 0 3.358 1.127 3.358 3.68v2.484c0 2.553-1.288 3.68-3.358 3.68zM19.32 13.637c1.38 0 1.978-.713 1.978-1.679v-.506c0-.966-.6-1.679-1.978-1.679s-1.978.713-1.978 1.679v.506c0 .966.598 1.679 1.978 1.679zM17.618 27h3.4V14.925h-3.4zm17.388 0v-2.645h-1.127v-5.29c0-2.852-1.748-4.416-5.152-4.416-2.53 0-3.91.874-4.876 2.3l2.024 1.794a2.981 2.981 0 0 1 2.6-1.426c1.426 0 2 .736 2 1.909v.759h-1.909c-3.2 0-5.175 1.219-5.175 3.772 0 2.093 1.334 3.519 3.749 3.519 1.84 0 3.174-.828 3.542-2.392h.138A2.3 2.3 0 0 0 33.12 27zm-6.6-2.093c-1.012 0-1.587-.414-1.587-1.288v-.345c0-.874.69-1.357 2-1.357h1.656v1.426c0 1.104-.943 1.564-2.075 1.564zM42.2 27v-2.645h-1.513V9.98h-3.4v13.708c0 2.139 1.058 3.312 3.381 3.312zm6.946.276c3.542 0 5.658-2.438 5.658-6.325s-2.116-6.3-5.658-6.3-5.658 2.415-5.658 6.3 2.121 6.325 5.663 6.325zm0-2.691c-1.334 0-2.116-.874-2.116-2.392v-2.461c0-1.518.782-2.392 2.116-2.392s2.116.874 2.116 2.392v2.461c.005 1.518-.777 2.392-2.111 2.392zM68.4 27.874c0-2.231-1.265-3.519-4.209-3.519H60.7c-1.035 0-1.449-.345-1.449-.92a1.13 1.13 0 0 1 .529-.966 8.527 8.527 0 0 0 2.139.253c3.5 0 5.175-1.587 5.175-4a3.575 3.575 0 0 0-2.07-3.45v-.138h2.668V12.6H65.78a1.609 1.609 0 0 0-1.817 1.817v.46a7.96 7.96 0 0 0-2.047-.23c-3.473 0-5.175 1.633-5.175 4.071A3.562 3.562 0 0 0 58.9 22.17v.092c-1.127.23-2.254.874-2.254 2.139a2.04 2.04 0 0 0 1.754 2.116v.253a2.25 2.25 0 0 0-2.254 2.3c0 1.748 1.541 2.806 5.727 2.806 4.919 0 6.527-1.449 6.527-4.002zm-3.2.46c0 .874-.69 1.288-2.53 1.288H61.3c-1.84 0-2.53-.414-2.53-1.288a1.551 1.551 0 0 1 .437-1.081h4.14c1.353 0 1.858.391 1.858 1.081zm-3.289-7.843c-1.334 0-2-.6-2-1.656v-.276c0-1.058.667-1.656 2-1.656s2 .6 2 1.656v.276c.006 1.058-.661 1.656-1.995 1.656zM76.958 27h3.4V14.925h-3.4v7.843a1.922 1.922 0 0 1-2.139 1.748c-1.242 0-1.725-.828-1.725-2.3v-7.291h-3.4v7.59c0 3.036 1.311 4.761 3.772 4.761a3.278 3.278 0 0 0 3.381-2.3h.115zm11.615.276a6.545 6.545 0 0 0 5.06-2l-1.7-2.116a3.827 3.827 0 0 1-2.967 1.449 2.372 2.372 0 0 1-2.668-2.6v-.184h7.751v-1.012c0-3.266-1.61-6.164-5.612-6.164-3.634 0-5.658 2.484-5.658 6.3-.002 3.866 2.091 6.327 5.794 6.327zm-.073-10.12c1.357 0 2.024.989 2.024 2.461v.207H86.3v-.184a2.208 2.208 0 0 1 2.2-2.484z" transform="translate(82.511 21.897)" style="fill:#fff"/>
        <g data-name="Group 533">
            <path data-name="Subtraction 1" d="M11301.776 3006.375a.812.812 0 0 1-.325-.071.737.737 0 0 1-.428-.871l4.541-19.229 4.388-18.572a18.8 18.8 0 0 1 18.378-14.767h9.409a18.762 18.762 0 0 1 13.3 5.509 18.926 18.926 0 0 1 2.994 3.9h8.193l2.146-3.072 8.712-12.478a.731.731 0 0 1 .611-.33.809.809 0 0 1 .325.07.748.748 0 0 1 .429.871l-4.542 19.229-4.388 18.575a18.8 18.8 0 0 1-18.378 14.764h-9.409a18.745 18.745 0 0 1-13.3-5.51 18.946 18.946 0 0 1-2.994-3.9h-8.2l-2.145 3.069-8.712 12.478a.73.73 0 0 1-.605.335zm35.96-44.1a18.8 18.8 0 0 0-16.291 28.224h16.291a18.809 18.809 0 0 0 16.295-28.224h-16.295z" transform="translate(-11300.488 -2945.894)" style="stroke:transparent;stroke-miterlimit:10;fill:#fff"/>
        </g>
    </g>
</svg>
