<svg xmlns="http://www.w3.org/2000/svg" width="372.21" height="172.026" viewBox="0 0 372.21 172.026">
    <defs>
        <style>
            .cls-2{fill:#f04e30}.cls-3{fill:#080138}
        </style>
    </defs>
    <g id="Group_535" data-name="Group 535" transform="translate(0 -35.71)">
        <path id="Rectangle_454" data-name="Rectangle 454" transform="translate(0 35.71)" style="fill:none" d="M0 0h372.21v172.027H0z"/>
        <g id="Group_537" data-name="Group 537" transform="translate(34.625 63.846)">
            <g id="Group_535-2" data-name="Group 535">
                <path id="Path_231" data-name="Path 231" class="cls-2" d="M12.353 46.025h24.82c6.906 0 12.257 1.937 15.823 5.5 3.027 3.024 4.656 7.29 4.656 12.411v.164c0 8.765-4.731 14.27-11.632 16.832l13.258 19.388h-13.96L33.686 82.945H24.3v17.37H12.353zM36.4 72.395c5.816 0 9.152-3.106 9.152-7.677v-.157c0-5.118-3.571-7.759-9.387-7.759H24.3v15.593z" transform="translate(-12.353 -45.249)"/>
                <path id="Path_232" data-name="Path 232" class="cls-2" d="M32.55 46.025h11.94v54.29H32.55z" transform="translate(24.061 -45.249)"/>
                <path id="Path_233" data-name="Path 233" class="cls-2" d="m40.323 92.9 7.058-8.454c4.888 4.033 10.006 6.592 16.212 6.592 4.883 0 7.829-1.94 7.829-5.121v-.154c0-3.024-1.858-4.577-10.934-6.9C49.553 76.073 42.5 73.051 42.5 62.266v-.154c0-9.849 7.91-16.363 19-16.363a31.449 31.449 0 0 1 20.167 6.9l-6.206 9c-4.81-3.335-9.544-5.349-14.122-5.349s-6.976 2.094-6.976 4.734v.151c0 3.571 2.324 4.731 11.711 7.136 11.013 2.87 17.218 6.828 17.218 16.288v.157c0 10.78-8.224 16.829-19.934 16.829A34.549 34.549 0 0 1 40.323 92.9z" transform="translate(38.075 -45.748)"/>
                <path id="Path_234" data-name="Path 234" class="cls-2" d="M59.357 46.025h40.951v10.623H71.225v11.016h25.6v10.623h-25.6v11.405H100.7v10.623H59.357z" transform="translate(72.392 -45.249)"/>
            </g>
            <g id="Group_536" data-name="Group 536" transform="translate(60.288 61.496)">
                <path id="Path_235" data-name="Path 235" class="cls-3" d="M33.862 67.97h5.205v46.13h-5.205z" transform="translate(-33.862 -67.18)"/>
                <path id="Path_236" data-name="Path 236" class="cls-3" d="M40.54 67.97h5.269l16.81 25.176 16.8-25.176H84.7v46.13h-5.21V76.738l-16.807 24.71h-.261L45.613 76.8v37.3H40.54z" transform="translate(-21.822 -67.18)"/>
                <path id="Path_237" data-name="Path 237" class="cls-3" d="M60.951 67.97h17.272c10.41 0 17.263 5.536 17.263 14.631v.132c0 9.95-8.3 15.094-18.124 15.094h-11.2V114.1h-5.211zm16.61 25.109c7.646 0 12.655-4.087 12.655-10.147V82.8c0-6.593-4.944-10.018-12.392-10.018H66.159v20.3z" transform="translate(14.978 -67.18)"/>
                <path id="Path_238" data-name="Path 238" class="cls-3" d="M94.625 67.853H99.5l21.022 46.461h-5.6l-5.407-12.193H84.411l-5.469 12.193H73.6zm12.854 29.591L97 73.916 86.454 97.444z" transform="translate(37.788 -67.391)"/>
                <path id="Path_239" data-name="Path 239" class="cls-3" d="M91.9 91.678v-.132c0-13.053 9.754-23.859 23.326-23.859 8.372 0 13.381 2.965 17.995 7.316l-3.56 3.82c-3.89-3.689-8.235-6.326-14.5-6.326C104.946 72.5 97.3 80.8 97.3 91.412v.135c0 10.676 7.711 19.043 17.86 19.043 6.329 0 10.48-2.439 14.9-6.654l3.425 3.361c-4.813 4.877-10.082 8.106-18.454 8.106C101.717 115.4 91.9 104.922 91.9 91.678z" transform="translate(70.773 -67.688)"/>
                <path id="Path_240" data-name="Path 240" class="cls-3" d="M124.291 72.78h-15.486v-4.81h36.247v4.81h-15.486v41.32h-5.275z" transform="translate(101.255 -67.18)"/>
            </g>
        </g>
    </g>
</svg>
