<svg xmlns="http://www.w3.org/2000/svg" width="654.696" height="228.299" viewBox="0 0 654.696 228.299">
    <g data-name="Group 2038" transform="translate(-633 -7065.846)">
        <circle data-name="Ellipse 1413" cx="8.36" cy="8.36" r="8.36" transform="translate(701.542 7074.232)" style="fill:#8f8ac7"/>
        <path data-name="Path 830" d="M238.492 439.494a8.384 8.384 0 0 0 8.36-8.36l.12-22.641a8.311 8.311 0 0 0-11.727-7.566h-.045c-.042 0-.048.019-.084.041a8.909 8.909 0 0 0-4.019 5.814l-.077 12.542-.078 20.17" transform="translate(470.478 6695.326)" style="fill:#8f8ac7"/>
        <path data-name="Rectangle 1034" transform="translate(633.113 7119.107)" style="fill:#8f8ac7" d="M0 0h63.056v15.555H0z"/>
        <path data-name="Path 831" d="M256.2 466.458h-5.255v-78.82h5.255z" transform="translate(471.497 6694.687)" style="fill:#8f8ac7"/>
        <path data-name="Path 832" d="M214.754 418.12q-.767 0-1.559-.026l.263-7.878c14.528.485 20.225-7.47 20.278-7.55l6.566 4.36c-.308.465-7.577 11.094-25.548 11.094z" transform="translate(469.574 6695.453)" style="fill:#8f8ac7"/>
        <path data-name="Path 833" d="M171.093 463.657h-5.255v-15.819a5.206 5.206 0 0 1 5.2-5.2h86.869v5.255h-86.814z" transform="translate(467.162 6697.488)" style="fill:#8f8ac7"/>
        <circle data-name="Ellipse 1413" cx="8.36" cy="8.36" r="8.36" transform="translate(701.542 7207.232)" style="fill:#8f8ac7"/>
        <path data-name="Path 830" d="M238.492 439.494a8.384 8.384 0 0 0 8.36-8.36l.12-22.641a8.311 8.311 0 0 0-11.727-7.566h-.045c-.042 0-.048.019-.084.041a8.909 8.909 0 0 0-4.019 5.814l-.077 12.542-.078 20.17" transform="translate(470.478 6828.326)" style="fill:#8f8ac7"/>
        <path data-name="Rectangle 1034" transform="translate(633.113 7252.107)" style="fill:#8f8ac7" d="M0 0h63.056v15.555H0z"/>
        <path data-name="Path 831" d="M256.2 466.458h-5.255v-78.82h5.255z" transform="translate(471.497 6827.687)" style="fill:#8f8ac7"/>
        <path data-name="Path 832" d="M214.754 418.12q-.767 0-1.559-.026l.263-7.878c14.528.485 20.225-7.47 20.278-7.55l6.566 4.36c-.308.465-7.577 11.094-25.548 11.094z" transform="translate(469.574 6828.453)" style="fill:#8f8ac7"/>
        <path data-name="Path 833" d="M171.093 463.657h-5.255v-15.819a5.206 5.206 0 0 1 5.2-5.2h86.869v5.255h-86.814z" transform="translate(467.162 6830.488)" style="fill:#8f8ac7"/>
        <circle data-name="Ellipse 1413" cx="8.36" cy="8.36" r="8.36" transform="translate(841.542 7074.232)" style="fill:#8f8ac7"/>
        <path data-name="Path 830" d="M238.492 439.494a8.384 8.384 0 0 0 8.36-8.36l.12-22.641a8.311 8.311 0 0 0-11.727-7.566h-.045c-.042 0-.048.019-.084.041a8.909 8.909 0 0 0-4.019 5.814l-.077 12.542-.078 20.17" transform="translate(610.478 6695.326)" style="fill:#8f8ac7"/>
        <path data-name="Rectangle 1034" transform="translate(773.113 7119.107)" style="fill:#8f8ac7" d="M0 0h63.056v15.555H0z"/>
        <path data-name="Path 831" d="M256.2 466.458h-5.255v-78.82h5.255z" transform="translate(611.497 6694.687)" style="fill:#8f8ac7"/>
        <path data-name="Path 832" d="M214.754 418.12q-.767 0-1.559-.026l.263-7.878c14.528.485 20.225-7.47 20.278-7.55l6.566 4.36c-.308.465-7.577 11.094-25.548 11.094z" transform="translate(609.574 6695.453)" style="fill:#8f8ac7"/>
        <path data-name="Path 833" d="M171.093 463.657h-5.255v-15.819a5.206 5.206 0 0 1 5.2-5.2h86.869v5.255h-86.814z" transform="translate(607.162 6697.488)" style="fill:#8f8ac7"/>
        <circle data-name="Ellipse 1413" cx="8.36" cy="8.36" r="8.36" transform="translate(841.542 7207.232)" style="fill:#8f8ac7"/>
        <path data-name="Path 830" d="M238.492 439.494a8.384 8.384 0 0 0 8.36-8.36l.12-22.641a8.311 8.311 0 0 0-11.727-7.566h-.045c-.042 0-.048.019-.084.041a8.909 8.909 0 0 0-4.019 5.814l-.077 12.542-.078 20.17" transform="translate(610.478 6828.326)" style="fill:#8f8ac7"/>
        <path data-name="Rectangle 1034" transform="translate(773.113 7252.107)" style="fill:#8f8ac7" d="M0 0h63.056v15.555H0z"/>
        <path data-name="Path 831" d="M256.2 466.458h-5.255v-78.82h5.255z" transform="translate(611.497 6827.687)" style="fill:#8f8ac7"/>
        <path data-name="Path 832" d="M214.754 418.12q-.767 0-1.559-.026l.263-7.878c14.528.485 20.225-7.47 20.278-7.55l6.566 4.36c-.308.465-7.577 11.094-25.548 11.094z" transform="translate(609.574 6828.453)" style="fill:#8f8ac7"/>
        <path data-name="Path 833" d="M171.093 463.657h-5.255v-15.819a5.206 5.206 0 0 1 5.2-5.2h86.869v5.255h-86.814z" transform="translate(607.162 6830.488)" style="fill:#8f8ac7"/>
        <circle data-name="Ellipse 1413" cx="8.36" cy="8.36" r="8.36" transform="translate(981.542 7074.232)" style="fill:#8f8ac7"/>
        <path data-name="Path 830" d="M238.492 439.494a8.384 8.384 0 0 0 8.36-8.36l.12-22.641a8.311 8.311 0 0 0-11.727-7.566h-.045c-.042 0-.048.019-.084.041a8.909 8.909 0 0 0-4.019 5.814l-.077 12.542-.078 20.17" transform="translate(750.478 6695.326)" style="fill:#8f8ac7"/>
        <path data-name="Rectangle 1034" transform="translate(913.113 7119.107)" style="fill:#8f8ac7" d="M0 0h63.056v15.555H0z"/>
        <path data-name="Path 831" d="M256.2 466.458h-5.255v-78.82h5.255z" transform="translate(751.497 6694.687)" style="fill:#8f8ac7"/>
        <path data-name="Path 832" d="M214.754 418.12q-.767 0-1.559-.026l.263-7.878c14.528.485 20.225-7.47 20.278-7.55l6.566 4.36c-.308.465-7.577 11.094-25.548 11.094z" transform="translate(749.574 6695.453)" style="fill:#8f8ac7"/>
        <path data-name="Path 833" d="M171.093 463.657h-5.255v-15.819a5.206 5.206 0 0 1 5.2-5.2h86.869v5.255h-86.814z" transform="translate(747.162 6697.488)" style="fill:#8f8ac7"/>
        <circle data-name="Ellipse 1413" cx="8.36" cy="8.36" r="8.36" transform="translate(981.542 7207.232)" style="fill:#8f8ac7"/>
        <path data-name="Path 830" d="M238.492 439.494a8.384 8.384 0 0 0 8.36-8.36l.12-22.641a8.311 8.311 0 0 0-11.727-7.566h-.045c-.042 0-.048.019-.084.041a8.909 8.909 0 0 0-4.019 5.814l-.077 12.542-.078 20.17" transform="translate(750.478 6828.326)" style="fill:#8f8ac7"/>
        <path data-name="Rectangle 1034" transform="translate(913.113 7252.107)" style="fill:#8f8ac7" d="M0 0h63.056v15.555H0z"/>
        <path data-name="Path 831" d="M256.2 466.458h-5.255v-78.82h5.255z" transform="translate(751.497 6827.687)" style="fill:#8f8ac7"/>
        <path data-name="Path 832" d="M214.754 418.12q-.767 0-1.559-.026l.263-7.878c14.528.485 20.225-7.47 20.278-7.55l6.566 4.36c-.308.465-7.577 11.094-25.548 11.094z" transform="translate(749.574 6828.453)" style="fill:#8f8ac7"/>
        <path data-name="Path 833" d="M171.093 463.657h-5.255v-15.819a5.206 5.206 0 0 1 5.2-5.2h86.869v5.255h-86.814z" transform="translate(747.162 6830.488)" style="fill:#8f8ac7"/>
        <circle data-name="Ellipse 1413" cx="8.36" cy="8.36" r="8.36" transform="translate(1121.542 7074.232)" style="fill:#8f8ac7"/>
        <path data-name="Path 830" d="M238.492 439.494a8.384 8.384 0 0 0 8.36-8.36l.12-22.641a8.311 8.311 0 0 0-11.727-7.566h-.045c-.042 0-.048.019-.084.041a8.909 8.909 0 0 0-4.019 5.814l-.077 12.542-.078 20.17" transform="translate(890.478 6695.326)" style="fill:#8f8ac7"/>
        <path data-name="Rectangle 1034" transform="translate(1053.113 7119.107)" style="fill:#8f8ac7" d="M0 0h63.056v15.555H0z"/>
        <path data-name="Path 831" d="M256.2 466.458h-5.255v-78.82h5.255z" transform="translate(891.497 6694.687)" style="fill:#8f8ac7"/>
        <path data-name="Path 832" d="M214.754 418.12q-.767 0-1.559-.026l.263-7.878c14.528.485 20.225-7.47 20.278-7.55l6.566 4.36c-.308.465-7.577 11.094-25.548 11.094z" transform="translate(889.574 6695.453)" style="fill:#8f8ac7"/>
        <path data-name="Path 833" d="M171.093 463.657h-5.255v-15.819a5.206 5.206 0 0 1 5.2-5.2h86.869v5.255h-86.814z" transform="translate(887.162 6697.488)" style="fill:#8f8ac7"/>
        <circle data-name="Ellipse 1413" cx="8.36" cy="8.36" r="8.36" transform="translate(1121.542 7207.232)" style="fill:#8f8ac7"/>
        <path data-name="Path 830" d="M238.492 439.494a8.384 8.384 0 0 0 8.36-8.36l.12-22.641a8.311 8.311 0 0 0-11.727-7.566h-.045c-.042 0-.048.019-.084.041a8.909 8.909 0 0 0-4.019 5.814l-.077 12.542-.078 20.17" transform="translate(890.478 6828.326)" style="fill:#8f8ac7"/>
        <path data-name="Rectangle 1034" transform="translate(1053.113 7252.107)" style="fill:#8f8ac7" d="M0 0h63.056v15.555H0z"/>
        <path data-name="Path 831" d="M256.2 466.458h-5.255v-78.82h5.255z" transform="translate(891.497 6827.687)" style="fill:#8f8ac7"/>
        <path data-name="Path 832" d="M214.754 418.12q-.767 0-1.559-.026l.263-7.878c14.528.485 20.225-7.47 20.278-7.55l6.566 4.36c-.308.465-7.577 11.094-25.548 11.094z" transform="translate(889.574 6828.453)" style="fill:#8f8ac7"/>
        <path data-name="Path 833" d="M171.093 463.657h-5.255v-15.819a5.206 5.206 0 0 1 5.2-5.2h86.869v5.255h-86.814z" transform="translate(887.162 6830.488)" style="fill:#8f8ac7"/>
        <circle data-name="Ellipse 1413" cx="8.36" cy="8.36" r="8.36" transform="translate(1261.542 7074.232)" style="fill:#8f8ac7"/>
        <path data-name="Path 830" d="M238.492 439.494a8.384 8.384 0 0 0 8.36-8.36l.12-22.641a8.311 8.311 0 0 0-11.727-7.566h-.045c-.042 0-.048.019-.084.041a8.909 8.909 0 0 0-4.019 5.814l-.077 12.542-.078 20.17" transform="translate(1030.478 6695.326)" style="fill:#8f8ac7"/>
        <path data-name="Rectangle 1034" transform="translate(1193.113 7119.107)" style="fill:#8f8ac7" d="M0 0h63.056v15.555H0z"/>
        <path data-name="Path 831" d="M256.2 466.458h-5.255v-78.82h5.255z" transform="translate(1031.497 6694.687)" style="fill:#8f8ac7"/>
        <path data-name="Path 832" d="M214.754 418.12q-.767 0-1.559-.026l.263-7.878c14.528.485 20.225-7.47 20.278-7.55l6.566 4.36c-.308.465-7.577 11.094-25.548 11.094z" transform="translate(1029.574 6695.453)" style="fill:#8f8ac7"/>
        <path data-name="Path 833" d="M171.093 463.657h-5.255v-15.819a5.206 5.206 0 0 1 5.2-5.2h86.869v5.255h-86.814z" transform="translate(1027.162 6697.488)" style="fill:#8f8ac7"/>
        <circle data-name="Ellipse 1413" cx="8.36" cy="8.36" r="8.36" transform="translate(1261.542 7207.232)" style="fill:#8f8ac7"/>
        <path data-name="Path 830" d="M238.492 439.494a8.384 8.384 0 0 0 8.36-8.36l.12-22.641a8.311 8.311 0 0 0-11.727-7.566h-.045c-.042 0-.048.019-.084.041a8.909 8.909 0 0 0-4.019 5.814l-.077 12.542-.078 20.17" transform="translate(1030.478 6828.326)" style="fill:#8f8ac7"/>
        <path data-name="Rectangle 1034" transform="translate(1193.113 7252.107)" style="fill:#8f8ac7" d="M0 0h63.056v15.555H0z"/>
        <path data-name="Path 831" d="M256.2 466.458h-5.255v-78.82h5.255z" transform="translate(1031.497 6827.687)" style="fill:#8f8ac7"/>
        <path data-name="Path 832" d="M214.754 418.12q-.767 0-1.559-.026l.263-7.878c14.528.485 20.225-7.47 20.278-7.55l6.566 4.36c-.308.465-7.577 11.094-25.548 11.094z" transform="translate(1029.574 6828.453)" style="fill:#8f8ac7"/>
        <path data-name="Path 833" d="M171.093 463.657h-5.255v-15.819a5.206 5.206 0 0 1 5.2-5.2h86.869v5.255h-86.814z" transform="translate(1027.162 6830.488)" style="fill:#8f8ac7"/>
        <path data-name="Path 965" d="M189.786 388.63a8.337 8.337 0 1 0-8.337-8.337 8.362 8.362 0 0 0 8.337 8.337zm-15.424 14.17 13.263 17.1 2.161-10.422c5.42 6.253 11 10.422 20.17 10.422v-8.338c-7.921 0-11.831-4.168-15.167-10l-4.168-6.67a8.945 8.945 0 0 0-11.047-3.5c-3.544 1.553-4.389 7.216-5.211 11.423l-3.3 17.092" transform="translate(1027.428 6826.89)" style="fill:#8f8ac7"/>
        <path data-name="Path 966" d="M189.786 388.63a8.337 8.337 0 1 0-8.337-8.337 8.362 8.362 0 0 0 8.337 8.337zm-15.424 14.17 13.263 17.1 2.161-10.422c5.42 6.253 11 10.422 20.17 10.422v-8.338c-7.921 0-11.831-4.168-15.167-10l-4.168-6.67a8.945 8.945 0 0 0-11.047-3.5c-3.544 1.553-4.389 7.216-5.211 11.423l-3.3 17.092" transform="translate(467.428 6693.89)" style="fill:#f04e30"/>
        <path data-name="Path 967" d="M189.786 388.63a8.337 8.337 0 1 0-8.337-8.337 8.362 8.362 0 0 0 8.337 8.337zm-15.424 14.17 13.263 17.1 2.161-10.422c5.42 6.253 11 10.422 20.17 10.422v-8.338c-7.921 0-11.831-4.168-15.167-10l-4.168-6.67a8.945 8.945 0 0 0-11.047-3.5c-3.544 1.553-4.389 7.216-5.211 11.423l-3.3 17.092" transform="translate(467.428 6826.89)" style="fill:#f04e30"/>
        <path data-name="Path 968" d="M189.786 388.63a8.337 8.337 0 1 0-8.337-8.337 8.362 8.362 0 0 0 8.337 8.337zm-15.424 14.17 13.263 17.1 2.161-10.422c5.42 6.253 11 10.422 20.17 10.422v-8.338c-7.921 0-11.831-4.168-15.167-10l-4.168-6.67a8.945 8.945 0 0 0-11.047-3.5c-3.544 1.553-4.389 7.216-5.211 11.423l-3.3 17.092" transform="translate(607.428 6693.89)" style="fill:#f04e30"/>
        <path data-name="Path 969" d="M189.786 388.63a8.337 8.337 0 1 0-8.337-8.337 8.362 8.362 0 0 0 8.337 8.337zm-15.424 14.17 13.263 17.1 2.161-10.422c5.42 6.253 11 10.422 20.17 10.422v-8.338c-7.921 0-11.831-4.168-15.167-10l-4.168-6.67a8.945 8.945 0 0 0-11.047-3.5c-3.544 1.553-4.389 7.216-5.211 11.423l-3.3 17.092" transform="translate(607.428 6826.89)" style="fill:#f04e30"/>
        <path data-name="Path 970" d="M189.786 388.63a8.337 8.337 0 1 0-8.337-8.337 8.362 8.362 0 0 0 8.337 8.337zm-15.424 14.17 13.263 17.1 2.161-10.422c5.42 6.253 11 10.422 20.17 10.422v-8.338c-7.921 0-11.831-4.168-15.167-10l-4.168-6.67a8.945 8.945 0 0 0-11.047-3.5c-3.544 1.553-4.389 7.216-5.211 11.423l-3.3 17.092" transform="translate(747.428 6693.89)" style="fill:#f04e30"/>
        <path data-name="Path 971" d="M189.786 388.63a8.337 8.337 0 1 0-8.337-8.337 8.362 8.362 0 0 0 8.337 8.337zm-15.424 14.17 13.263 17.1 2.161-10.422c5.42 6.253 11 10.422 20.17 10.422v-8.338c-7.921 0-11.831-4.168-15.167-10l-4.168-6.67a8.945 8.945 0 0 0-11.047-3.5c-3.544 1.553-4.389 7.216-5.211 11.423l-3.3 17.092" transform="translate(747.428 6826.89)" style="fill:#f04e30"/>
        <path data-name="Path 972" d="M189.786 388.63a8.337 8.337 0 1 0-8.337-8.337 8.362 8.362 0 0 0 8.337 8.337zm-15.424 14.17 13.263 17.1 2.161-10.422c5.42 6.253 11 10.422 20.17 10.422v-8.338c-7.921 0-11.831-4.168-15.167-10l-4.168-6.67a8.945 8.945 0 0 0-11.047-3.5c-3.544 1.553-4.389 7.216-5.211 11.423l-3.3 17.092" transform="translate(887.428 6693.89)" style="fill:#f04e30"/>
        <path data-name="Path 973" d="M189.786 388.63a8.337 8.337 0 1 0-8.337-8.337 8.362 8.362 0 0 0 8.337 8.337zm-15.424 14.17 13.263 17.1 2.161-10.422c5.42 6.253 11 10.422 20.17 10.422v-8.338c-7.921 0-11.831-4.168-15.167-10l-4.168-6.67a8.945 8.945 0 0 0-11.047-3.5c-3.544 1.553-4.389 7.216-5.211 11.423l-3.3 17.092" transform="translate(887.428 6826.89)" style="fill:#f04e30"/>
        <path data-name="Path 974" d="M189.786 388.63a8.337 8.337 0 1 0-8.337-8.337 8.362 8.362 0 0 0 8.337 8.337zm-15.424 14.17 13.263 17.1 2.161-10.422c5.42 6.253 11 10.422 20.17 10.422v-8.338c-7.921 0-11.831-4.168-15.167-10l-4.168-6.67a8.945 8.945 0 0 0-11.047-3.5c-3.544 1.553-4.389 7.216-5.211 11.423l-3.3 17.092" transform="translate(1027.428 6693.89)" style="fill:#f04e30"/>
    </g>
</svg>
