<?xml version="1.0" encoding="utf-8"?>
<!-- Generator: Adobe Illustrator 25.2.2, SVG Export Plug-In . SVG Version: 6.00 Build 0)  -->
<svg version="1.1" id="Layer_1" xmlns="http://www.w3.org/2000/svg" xmlns:xlink="http://www.w3.org/1999/xlink" x="0px" y="0px"
	 viewBox="0 0 654.7 228.4" style="enable-background:new 0 0 654.7 228.4;" xml:space="preserve">
<style type="text/css">
	.st0{fill:#8F8AC7;}
	.st1{fill:#F04E30;}
</style>
<g>
	<g>
		<circle id="Ellipse_1413" class="st0" cx="76.9" cy="16.7" r="8.4"/>
		<path id="Path_830" class="st0" d="M76,69c4.6,0,8.3-3.7,8.4-8.4L84.5,38c0-4.6-3.7-8.3-8.3-8.3c-1.2,0-2.3,0.3-3.4,0.7l0,0
			c0,0,0,0-0.1,0c-2.1,1.3-3.5,3.4-4,5.8l-0.1,12.5L68.4,69"/>
		<rect id="Rectangle_1034" x="0.1" y="53.3" class="st0" width="63.1" height="15.6"/>
		<path id="Path_831" class="st0" d="M94.7,95.3h-5.3V16.5h5.3V95.3z"/>
		<path id="Path_832" class="st0" d="M51.3,47.7c-0.5,0-1,0-1.6,0l0.3-7.9c14.5,0.5,20.2-7.5,20.3-7.5l6.6,4.4
			C76.6,37.1,69.3,47.7,51.3,47.7z"/>
		<path id="Path_833" class="st0" d="M5.3,95.3H0V79.5c0-2.9,2.3-5.2,5.2-5.2h86.9v5.3H5.3V95.3z"/>
		<path id="Path_966" class="st1" d="M24.2,16.7c4.6,0,8.3-3.7,8.3-8.3S28.8,0,24.2,0s-8.3,3.7-8.3,8.3
			C15.9,12.9,19.6,16.7,24.2,16.7z M5.5,48h16.6l2.2-10.4c5.4,6.3,11,10.4,20.2,10.4v-8.3c-7.9,0-11.8-4.2-15.2-10L25,22.9
			c-2.3-3.7-7-5.2-11-3.5c-3.5,1.6-4.4,7.2-5.2,11.4L5.5,48"/>
	</g>
	<g>
		<circle id="Ellipse_1413_1_" class="st0" cx="216.9" cy="16.7" r="8.4"/>
		<path id="Path_830_1_" class="st0" d="M216,69c4.6,0,8.3-3.7,8.4-8.4l0.1-22.6c0-4.6-3.7-8.3-8.3-8.3c-1.2,0-2.3,0.3-3.4,0.7l0,0
			c0,0,0,0-0.1,0c-2.1,1.3-3.5,3.4-4,5.8l-0.1,12.5L208.4,69"/>
		<rect id="Rectangle_1034_1_" x="140.1" y="53.3" class="st0" width="63.1" height="15.6"/>
		<path id="Path_831_1_" class="st0" d="M234.7,95.3h-5.3V16.5h5.3V95.3z"/>
		<path id="Path_832_1_" class="st0" d="M191.3,47.7c-0.5,0-1,0-1.6,0l0.3-7.9c14.5,0.5,20.2-7.5,20.3-7.5l6.6,4.4
			C216.6,37.1,209.3,47.7,191.3,47.7z"/>
		<path id="Path_833_1_" class="st0" d="M145.3,95.3H140V79.5c0-2.9,2.3-5.2,5.2-5.2h86.9v5.3h-86.8V95.3z"/>
		<path id="Path_966_1_" class="st1" d="M164.2,16.7c4.6,0,8.3-3.7,8.3-8.3S168.8,0,164.2,0s-8.3,3.7-8.3,8.3S159.6,16.7,164.2,16.7
			z M145.5,48h16.6l2.2-10.4c5.4,6.3,11,10.4,20.2,10.4v-8.3c-7.9,0-11.8-4.2-15.2-10l-4.2-6.7c-2.3-3.7-7-5.2-11-3.5
			c-3.5,1.6-4.4,7.2-5.2,11.4L145.5,48"/>
	</g>
	<g>
		<circle id="Ellipse_1413_2_" class="st0" cx="356.9" cy="16.7" r="8.4"/>
		<path id="Path_830_2_" class="st0" d="M356,69c4.6,0,8.3-3.7,8.4-8.4l0.1-22.6c0-4.6-3.7-8.3-8.3-8.3c-1.2,0-2.3,0.3-3.4,0.7l0,0
			c0,0,0,0-0.1,0c-2.1,1.3-3.5,3.4-4,5.8l-0.1,12.5L348.4,69"/>
		<rect id="Rectangle_1034_2_" x="280.1" y="53.3" class="st0" width="63.1" height="15.6"/>
		<path id="Path_831_2_" class="st0" d="M374.7,95.3h-5.3V16.5h5.3V95.3z"/>
		<path id="Path_832_2_" class="st0" d="M331.3,47.7c-0.5,0-1,0-1.6,0l0.3-7.9c14.5,0.5,20.2-7.5,20.3-7.5l6.6,4.4
			C356.6,37.1,349.3,47.7,331.3,47.7z"/>
		<path id="Path_833_2_" class="st0" d="M285.3,95.3H280V79.5c0-2.9,2.3-5.2,5.2-5.2h86.9v5.3h-86.8V95.3z"/>
		<path id="Path_966_2_" class="st1" d="M304.2,16.7c4.6,0,8.3-3.7,8.3-8.3S308.8,0,304.2,0c-4.6,0-8.3,3.7-8.3,8.3
			C295.9,12.9,299.6,16.7,304.2,16.7z M285.5,48h16.6l2.2-10.4c5.4,6.3,11,10.4,20.2,10.4v-8.3c-7.9,0-11.8-4.2-15.2-10l-4.2-6.7
			c-2.3-3.7-7-5.2-11-3.5c-3.5,1.6-4.4,7.2-5.2,11.4L285.5,48"/>
	</g>
	<g>
		<circle id="Ellipse_1413_3_" class="st0" cx="496.9" cy="16.7" r="8.4"/>
		<path id="Path_830_3_" class="st0" d="M496,69c4.6,0,8.3-3.7,8.4-8.4l0.1-22.6c0-4.6-3.7-8.3-8.3-8.3c-1.2,0-2.3,0.3-3.4,0.7l0,0
			c0,0,0,0-0.1,0c-2.1,1.3-3.5,3.4-4,5.8l-0.1,12.5L488.4,69"/>
		<rect id="Rectangle_1034_3_" x="420.1" y="53.3" class="st0" width="63.1" height="15.6"/>
		<path id="Path_831_3_" class="st0" d="M514.7,95.3h-5.3V16.5h5.3V95.3z"/>
		<path id="Path_832_3_" class="st0" d="M471.3,47.7c-0.5,0-1,0-1.6,0l0.3-7.9c14.5,0.5,20.2-7.5,20.3-7.5l6.6,4.4
			C496.6,37.1,489.3,47.7,471.3,47.7z"/>
		<path id="Path_833_3_" class="st0" d="M425.3,95.3H420V79.5c0-2.9,2.3-5.2,5.2-5.2h86.9v5.3h-86.8L425.3,95.3L425.3,95.3z"/>
		<path id="Path_966_3_" class="st1" d="M444.2,16.7c4.6,0,8.3-3.7,8.3-8.3S448.8,0,444.2,0c-4.6,0-8.3,3.7-8.3,8.3
			C435.9,12.9,439.6,16.7,444.2,16.7z M425.5,48h16.6l2.2-10.4c5.4,6.3,11,10.4,20.2,10.4v-8.3c-7.9,0-11.8-4.2-15.2-10l-4.2-6.7
			c-2.3-3.7-7-5.2-11-3.5c-3.5,1.6-4.4,7.2-5.2,11.4L425.5,48"/>
	</g>
	<g>
		<circle id="Ellipse_1413_4_" class="st0" cx="636.9" cy="16.7" r="8.4"/>
		<path id="Path_830_4_" class="st0" d="M636,69c4.6,0,8.3-3.7,8.4-8.4l0.1-22.6c0-4.6-3.7-8.3-8.3-8.3c-1.2,0-2.3,0.3-3.4,0.7l0,0
			c0,0,0,0-0.1,0c-2.1,1.3-3.5,3.4-4,5.8l-0.1,12.5L628.4,69"/>
		<rect id="Rectangle_1034_4_" x="560.1" y="53.3" class="st0" width="63.1" height="15.6"/>
		<path id="Path_831_4_" class="st0" d="M654.7,95.3h-5.3V16.5h5.3V95.3z"/>
		<path id="Path_832_4_" class="st0" d="M611.3,47.7c-0.5,0-1,0-1.6,0l0.3-7.9c14.5,0.5,20.2-7.5,20.3-7.5l6.6,4.4
			C636.6,37.1,629.3,47.7,611.3,47.7z"/>
		<path id="Path_833_4_" class="st0" d="M565.3,95.3H560V79.5c0-2.9,2.3-5.2,5.2-5.2h86.9v5.3h-86.8L565.3,95.3L565.3,95.3z"/>
		<path id="Path_966_4_" class="st1" d="M584.2,16.7c4.6,0,8.3-3.7,8.3-8.3S588.8,0,584.2,0s-8.3,3.7-8.3,8.3S579.6,16.7,584.2,16.7
			z M565.5,48h16.6l2.2-10.4c5.4,6.3,11,10.4,20.2,10.4v-8.3c-7.9,0-11.8-4.2-15.2-10l-4.2-6.7c-2.3-3.7-7-5.2-11-3.5
			c-3.5,1.6-4.4,7.2-5.2,11.4L565.5,48"/>
	</g>
	<g>
		<circle id="Ellipse_1413_9_" class="st0" cx="76.9" cy="149.8" r="8.4"/>
		<path id="Path_830_9_" class="st0" d="M76,202.1c4.6,0,8.3-3.7,8.4-8.4l0.1-22.6c0-4.6-3.7-8.3-8.3-8.3c-1.2,0-2.3,0.3-3.4,0.7
			l0,0c0,0,0,0-0.1,0c-2.1,1.3-3.5,3.4-4,5.8l-0.1,12.5L68.5,202"/>
		<rect id="Rectangle_1034_9_" x="0.1" y="186.3" class="st0" width="63.1" height="15.6"/>
		<path id="Path_831_9_" class="st0" d="M94.7,228.4h-5.3v-78.8h5.3V228.4z"/>
		<path id="Path_832_9_" class="st0" d="M51.3,180.8c-0.5,0-1,0-1.6,0l0.3-7.9c14.5,0.5,20.2-7.5,20.3-7.5l6.6,4.4
			C76.6,170.2,69.3,180.8,51.3,180.8z"/>
		<path id="Path_833_9_" class="st0" d="M5.3,228.4H0v-15.8c0-2.9,2.3-5.2,5.2-5.2h86.9v5.3H5.3V228.4z"/>
		<path id="Path_966_9_" class="st1" d="M24.2,149.8c4.6,0,8.3-3.7,8.3-8.3s-3.7-8.3-8.3-8.3s-8.3,3.7-8.3,8.3
			C15.9,146,19.6,149.7,24.2,149.8z M5.5,181h16.6l2.2-10.4c5.4,6.3,11,10.4,20.2,10.4v-8.3c-7.9,0-11.8-4.2-15.2-10L25,156
			c-2.3-3.7-7-5.2-11-3.5c-3.5,1.6-4.4,7.2-5.2,11.4L5.5,181"/>
	</g>
	<g>
		<circle id="Ellipse_1413_8_" class="st0" cx="216.9" cy="149.8" r="8.4"/>
		<path id="Path_830_8_" class="st0" d="M216,202.1c4.6,0,8.3-3.7,8.4-8.4l0.1-22.6c0-4.6-3.7-8.3-8.3-8.3c-1.2,0-2.3,0.3-3.4,0.7
			l0,0c0,0,0,0-0.1,0c-2.1,1.3-3.5,3.4-4,5.8l-0.1,12.5l-0.1,20.2"/>
		<rect id="Rectangle_1034_8_" x="140.1" y="186.3" class="st0" width="63.1" height="15.6"/>
		<path id="Path_831_8_" class="st0" d="M234.7,228.4h-5.3v-78.8h5.3V228.4z"/>
		<path id="Path_832_8_" class="st0" d="M191.3,180.8c-0.5,0-1,0-1.6,0l0.3-7.9c14.5,0.5,20.2-7.5,20.3-7.5l6.6,4.4
			C216.6,170.2,209.3,180.8,191.3,180.8z"/>
		<path id="Path_833_8_" class="st0" d="M145.3,228.4H140v-15.8c0-2.9,2.3-5.2,5.2-5.2h86.9v5.3h-86.8V228.4z"/>
		<path id="Path_966_8_" class="st1" d="M164.2,149.8c4.6,0,8.3-3.7,8.3-8.3s-3.7-8.3-8.3-8.3s-8.3,3.7-8.3,8.3
			C155.9,146,159.6,149.7,164.2,149.8z M145.5,181h16.6l2.2-10.4c5.4,6.3,11,10.4,20.2,10.4v-8.3c-7.9,0-11.8-4.2-15.2-10L165,156
			c-2.3-3.7-7-5.2-11-3.5c-3.5,1.6-4.4,7.2-5.2,11.4L145.5,181"/>
	</g>
	<g>
		<circle id="Ellipse_1413_7_" class="st0" cx="356.9" cy="149.8" r="8.4"/>
		<path id="Path_830_7_" class="st0" d="M356,202.1c4.6,0,8.3-3.7,8.4-8.4l0.1-22.6c0-4.6-3.7-8.3-8.3-8.3c-1.2,0-2.3,0.3-3.4,0.7
			l0,0c0,0,0,0-0.1,0c-2.1,1.3-3.5,3.4-4,5.8l-0.1,12.5l-0.1,20.2"/>
		<rect id="Rectangle_1034_7_" x="280.1" y="186.3" class="st0" width="63.1" height="15.6"/>
		<path id="Path_831_7_" class="st0" d="M374.7,228.4h-5.3v-78.8h5.3V228.4z"/>
		<path id="Path_832_7_" class="st0" d="M331.3,180.8c-0.5,0-1,0-1.6,0l0.3-7.9c14.5,0.5,20.2-7.5,20.3-7.5l6.6,4.4
			C356.6,170.2,349.3,180.8,331.3,180.8z"/>
		<path id="Path_833_7_" class="st0" d="M285.3,228.4H280v-15.8c0-2.9,2.3-5.2,5.2-5.2h86.9v5.3h-86.8V228.4z"/>
		<path id="Path_966_7_" class="st1" d="M304.2,149.8c4.6,0,8.3-3.7,8.3-8.3s-3.7-8.3-8.3-8.3c-4.6,0-8.3,3.7-8.3,8.3
			C295.9,146,299.6,149.7,304.2,149.8z M285.5,181h16.6l2.2-10.4c5.4,6.3,11,10.4,20.2,10.4v-8.3c-7.9,0-11.8-4.2-15.2-10L305,156
			c-2.3-3.7-7-5.2-11-3.5c-3.5,1.6-4.4,7.2-5.2,11.4L285.5,181"/>
	</g>
	<g>
		<circle id="Ellipse_1413_6_" class="st0" cx="496.9" cy="149.8" r="8.4"/>
		<path id="Path_830_6_" class="st0" d="M496,202.1c4.6,0,8.3-3.7,8.4-8.4l0.1-22.6c0-4.6-3.7-8.3-8.3-8.3c-1.2,0-2.3,0.3-3.4,0.7
			l0,0c0,0,0,0-0.1,0c-2.1,1.3-3.5,3.4-4,5.8l-0.1,12.5l-0.1,20.2"/>
		<rect id="Rectangle_1034_6_" x="420.1" y="186.3" class="st0" width="63.1" height="15.6"/>
		<path id="Path_831_6_" class="st0" d="M514.7,228.4h-5.3v-78.8h5.3V228.4z"/>
		<path id="Path_832_6_" class="st0" d="M471.3,180.8c-0.5,0-1,0-1.6,0l0.3-7.9c14.5,0.5,20.2-7.5,20.3-7.5l6.6,4.4
			C496.6,170.2,489.3,180.8,471.3,180.8z"/>
		<path id="Path_833_6_" class="st0" d="M425.3,228.4H420v-15.8c0-2.9,2.3-5.2,5.2-5.2h86.9v5.3h-86.8L425.3,228.4L425.3,228.4z"/>
		<path id="Path_966_6_" class="st1" d="M444.2,149.8c4.6,0,8.3-3.7,8.3-8.3s-3.7-8.3-8.3-8.3c-4.6,0-8.3,3.7-8.3,8.3
			C435.9,146,439.6,149.7,444.2,149.8z M425.5,181h16.6l2.2-10.4c5.4,6.3,11,10.4,20.2,10.4v-8.3c-7.9,0-11.8-4.2-15.2-10L445,156
			c-2.3-3.7-7-5.2-11-3.5c-3.5,1.6-4.4,7.2-5.2,11.4L425.5,181"/>
	</g>
	<g>
		<circle id="Ellipse_1413_5_" class="st0" cx="636.9" cy="149.8" r="8.4"/>
		<path id="Path_830_5_" class="st0" d="M636,202.1c4.6,0,8.3-3.7,8.4-8.4l0.1-22.6c0-4.6-3.7-8.3-8.3-8.3c-1.2,0-2.3,0.3-3.4,0.7
			l0,0c0,0,0,0-0.1,0c-2.1,1.3-3.5,3.4-4,5.8l-0.1,12.5l-0.1,20.2"/>
		<rect id="Rectangle_1034_5_" x="560.1" y="186.3" class="st0" width="63.1" height="15.6"/>
		<path id="Path_831_5_" class="st0" d="M654.7,228.4h-5.3v-78.8h5.3V228.4z"/>
		<path id="Path_832_5_" class="st0" d="M611.3,180.8c-0.5,0-1,0-1.6,0l0.3-7.9c14.5,0.5,20.2-7.5,20.3-7.5l6.6,4.4
			C636.6,170.2,629.3,180.8,611.3,180.8z"/>
		<path id="Path_833_5_" class="st0" d="M565.3,228.4H560v-15.8c0-2.9,2.3-5.2,5.2-5.2h86.9v5.3h-86.8L565.3,228.4L565.3,228.4z"/>
		<path id="Path_966_5_" class="st0" d="M584.2,149.8c4.6,0,8.3-3.7,8.3-8.3s-3.7-8.3-8.3-8.3s-8.3,3.7-8.3,8.3
			C575.9,146,579.6,149.7,584.2,149.8z M565.5,181h16.6l2.2-10.4c5.4,6.3,11,10.4,20.2,10.4v-8.3c-7.9,0-11.8-4.2-15.2-10L585,156
			c-2.3-3.7-7-5.2-11-3.5c-3.5,1.6-4.4,7.2-5.2,11.4L565.5,181"/>
	</g>
</g>
</svg>
