<svg xmlns="http://www.w3.org/2000/svg" width="544" height="143" viewBox="0 0 544 143">
    <g data-name="Group 2246">
        <g data-name="Group 2242">
            <g data-name="Ellipse 1444" transform="translate(0 .5)" style="stroke-width:3px;stroke-dasharray:5 0;stroke:#8f8ac7;fill:none">
                <circle cx="71" cy="71" r="71" style="stroke:none"/>
                <circle cx="71" cy="71" r="69.5" style="fill:none"/>
            </g>
            <g data-name="Group 2043" transform="translate(31.939 35.881)">
                <path data-name="Path 829" d="M186.508 385.711a6.878 6.878 0 1 0-6.878-6.878 6.9 6.9 0 0 0 6.878 6.878zm-1.782 25.789 1.782-8.6c4.471 5.159 9.073 8.6 16.639 8.6v-6.879c-6.534 0-9.76-3.438-12.512-8.254l-3.438-5.5a7.379 7.379 0 0 0-9.114-2.889c-2.923 1.281-3.621 5.953-4.3 9.423l-2.723 14.1" transform="translate(-166.533 -371.522)" style="fill:#8f8ac7"/>
                <path data-name="Subtraction 9 - Outline" d="M16.449 39.99H2.061L4.932 25.3l.14-.726c.658-3.442 1.478-7.726 4.41-9.011h.005a7.721 7.721 0 0 1 3.021-.614 7.838 7.838 0 0 1 6.628 3.671l3.448 5.518a17.969 17.969 0 0 0 4.719 5.8 11.981 11.981 0 0 0 7.417 2.232h.433v7.745h-.433a19.142 19.142 0 0 1-9.694-2.42 26.567 26.567 0 0 1-6.683-5.658l-1.535 8.151zm-13.336-.867h12.976l1.733-9.2.588.678a27 27 0 0 0 7.045 6.14 18.141 18.141 0 0 0 8.833 2.3v-6.009a12.641 12.641 0 0 1-7.5-2.4 18.757 18.757 0 0 1-4.951-6.058l-3.434-5.5a6.971 6.971 0 0 0-5.894-3.265 6.858 6.858 0 0 0-2.681.544c-2.513 1.1-3.284 5.137-3.9 8.379l-.14.729zm14.968-25a7.3 7.3 0 0 1-5.163-12.476 7.3 7.3 0 1 1 10.328 10.328 7.26 7.26 0 0 1-5.164 2.148zm0-13.756a6.436 6.436 0 0 0-4.551 11 6.436 6.436 0 1 0 9.1-9.1 6.4 6.4 0 0 0-4.548-1.9z" transform="translate(1.894 .5)" style="fill:#8f8ac7"/>
                <circle data-name="Ellipse 1413" cx="6.897" cy="6.897" r="6.897" transform="translate(56.545 7.353)" style="fill:#8f8ac7"/>
                <path data-name="Path 830" d="M237.171 432.616a6.917 6.917 0 0 0 6.9-6.9l.1-18.678a6.856 6.856 0 0 0-9.675-6.242h-.035c-.035 0-.04.016-.069.034a7.35 7.35 0 0 0-3.315 4.8l-.063 10.347-.064 16.64" transform="translate(-174.499 -375.28)" style="fill:#8f8ac7"/>
                <path data-name="Rectangle 1034" transform="translate(.093 44.374)" style="fill:#8f8ac7" d="M0 0h52.019v12.832H0z"/>
                <path data-name="Path 831" d="M255.28 452.661h-4.335v-65.023h4.335z" transform="translate(-177.159 -373.609)" style="fill:#8f8ac7"/>
                <path data-name="Path 832" d="M214.481 415.415q-.632 0-1.286-.022l.217-6.5c11.985.4 16.685-6.162 16.729-6.229l5.417 3.6c-.258.382-6.252 9.151-21.077 9.151z" transform="translate(-172.137 -375.607)" style="fill:#8f8ac7"/>
                <path data-name="Path 833" d="M170.173 459.978h-4.335v-13.05a4.3 4.3 0 0 1 4.29-4.29h71.664v4.335h-71.619z" transform="translate(-165.838 -380.925)" style="fill:#8f8ac7"/>
            </g>
        </g>
        <g data-name="Group 2044">
            <g data-name="Ellipse 1442" transform="translate(84.092 -877.612)">
                <circle data-name="Ellipse 1445" cx="71" cy="71" r="71" transform="translate(122.908 878.112)" style="stroke:#8f8ac7;fill:none"/>
                <circle data-name="Ellipse 1446" cx="69.5" cy="69.5" r="69.5" transform="translate(124.408 879.612)" style="stroke-width:3px;stroke-dasharray:5 0;stroke:#8f8ac7;fill:none"/>
            </g>
            <path data-name="Path 97" d="M205.876 975.193v-45.3h-42.168v56.866H193.4" style="stroke-linecap:round;stroke-linejoin:round;stroke-width:2px;stroke:#8f8ac7;fill:none" transform="translate(84.092 -877.612)"/>
            <path data-name="Rectangle 176" transform="translate(244.057 35.881)" style="stroke-linecap:round;stroke-linejoin:round;stroke-width:2px;stroke:#8f8ac7;fill:none" d="M0 0h49.655v16.396H0z"/>
            <g data-name="Group 82">
                <path data-name="Line 7" transform="translate(285.945 35.881)" style="stroke-linecap:round;stroke-linejoin:round;stroke-width:2px;stroke:#8f8ac7;fill:none" d="M0 0v16.396"/>
                <path data-name="Line 8" transform="translate(277.415 35.881)" style="stroke-linecap:round;stroke-linejoin:round;stroke-width:2px;stroke:#8f8ac7;fill:none" d="M0 0v16.396"/>
                <path data-name="Line 9" transform="translate(268.885 35.881)" style="stroke-linecap:round;stroke-linejoin:round;stroke-width:2px;stroke:#8f8ac7;fill:none" d="M0 0v16.396"/>
                <path data-name="Line 10" transform="translate(260.355 35.881)" style="stroke-linecap:round;stroke-linejoin:round;stroke-width:2px;stroke:#8f8ac7;fill:none" d="M0 0v16.396"/>
                <path data-name="Line 11" transform="translate(251.825 35.881)" style="stroke-linecap:round;stroke-linejoin:round;stroke-width:2px;stroke:#8f8ac7;fill:none" d="M0 0v16.396"/>
            </g>
            <path data-name="Rectangle 177" transform="translate(268.538 60.428)" style="stroke-linecap:round;stroke-linejoin:round;stroke-width:2px;fill:#8f8ac7;stroke:#8f8ac7" d="M0 0h21.43v28.433H0z"/>
            <g data-name="Group 2044">
                <g data-name="Group 84">
                    <path data-name="Path 98" d="M193.4 986.755h17.533a5.781 5.781 0 1 0 0-11.563H193.4a5.781 5.781 0 0 0 0 11.563z" style="stroke-linecap:round;stroke-linejoin:round;stroke-width:2px;stroke:#8f8ac7;fill:none" transform="translate(84.092 -877.612)"/>
                </g>
                <path data-name="Path 976" d="M210.932 975.192h-8.766v11.563h8.766a5.781 5.781 0 1 0 0-11.563z" style="stroke-linecap:round;stroke-linejoin:round;stroke-width:2px;fill:#8f8ac7;stroke:#8f8ac7" transform="translate(84.092 -877.612)"/>
            </g>
            <g data-name="Group 2045">
                <g data-name="Group 84">
                    <path data-name="Path 98" d="m212.174 973.268 12.619 12.172a5.782 5.782 0 0 0 8.028-8.322L220.2 964.945a5.782 5.782 0 0 0-8.028 8.323z" style="stroke-linecap:round;stroke-linejoin:round;stroke-width:2px;stroke:#8f8ac7;fill:none" transform="translate(84.092 -877.612)"/>
                </g>
                <path data-name="Path 977" d="m232.821 977.118-6.31-6.087-8.027 8.323 6.309 6.086a5.782 5.782 0 0 0 8.028-8.322z" style="stroke-linecap:round;stroke-linejoin:round;stroke-width:2px;fill:#8f8ac7;stroke:#8f8ac7" transform="translate(84.092 -877.612)"/>
            </g>
            <path data-name="Path 978" d="M184.446 966.473V938.04h21.43v-8.147h-42.168v56.866H193.4v0a5.781 5.781 0 0 1 0-11.563h12.477v-8.719z" style="stroke-linecap:round;stroke-linejoin:round;stroke-width:2px;stroke:#8f8ac7;fill:none" transform="translate(84.092 -877.612)"/>
        </g>
        <g data-name="Group 2245">
            <g data-name="Ellipse 1443" transform="translate(402 .5)" style="stroke-width:3px;stroke-dasharray:5 0;stroke:#8f8ac7;fill:none">
                <circle cx="71" cy="71" r="71" style="stroke:none"/>
                <circle cx="71" cy="71" r="69.5" style="fill:none"/>
            </g>
            <g data-name="Group 2243">
                <path data-name="Path 975" d="m365.006 408.815-36.435-36.435-3.027-3.028a10.98 10.98 0 0 0-13.691-15.489l6.25 6.25-1.3 4.838-4.838 1.3-6.25-6.25a10.98 10.98 0 0 0 15.489 13.691l3.028 3.027 36.434 36.435a10.981 10.981 0 0 0 13.691 15.49l-6.25-6.251 1.3-4.838 4.838-1.3 6.251 6.251a10.981 10.981 0 0 0-15.49-13.692z" transform="rotate(90 567.984 296.268)" style="stroke-linecap:round;stroke-linejoin:round;stroke-width:2px;fill:#8f8ac7;stroke:#8f8ac7"/>
                <g data-name="Group 2046">
                    <path data-name="Path 979" d="m364.12 909.633-34.74 34.74-14.414-14.414 24.209-24.209z" style="stroke-linecap:round;stroke-linejoin:round;stroke-width:2px;fill:#8f8ac7;stroke:#8f8ac7" transform="translate(110.189 -876.012)"/>
                    <path data-name="Rectangle 1208" transform="rotate(-45 293.09 -518.672)" style="stroke-linecap:round;stroke-linejoin:round;stroke-width:2px;stroke:#8f8ac7;fill:none" d="M0 0h6.136v76.691H0z"/>
                </g>
            </g>
        </g>
    </g>
</svg>
