<svg xmlns="http://www.w3.org/2000/svg" width="223.437" height="223.437" viewBox="0 0 223.437 223.437">
    <g data-name="Group 2249">
        <path data-name="Path 849" d="M912.721 1200.225a35.389 35.389 0 0 0-27.012-65.214A35.389 35.389 0 0 0 820.5 1108a35.389 35.389 0 0 0-65.214 27.012 35.389 35.389 0 0 0-27.012 65.214 35.389 35.389 0 0 0 27.012 65.214 35.389 35.389 0 0 0 65.214 27.012 35.389 35.389 0 0 0 65.213-27.012 35.389 35.389 0 0 0 27.012-65.214z" transform="translate(-708.777 -1088.507)" style="fill:#8f8ac7"/>
        <g data-name="Group 1757" transform="translate(-784.142 276.372)">
            <circle data-name="Ellipse 1417" cx="11.207" cy="11.207" r="11.207" transform="translate(884.656 -187.936)" style="fill:none;stroke:#fff;stroke-miterlimit:10;stroke-width:2px"/>
            <path data-name="Path 866" d="M922.872-187.33a29.014 29.014 0 0 0-37.609-16.408 29.013 29.013 0 0 0-16.408 37.609c.527 1.346 27.008 47.757 27.008 47.757L921.02-162.3a28.941 28.941 0 0 0 1.852-25.03z" style="fill:none;stroke:#fff;stroke-miterlimit:10;stroke-width:2px"/>
        </g>
    </g>
</svg>
