<svg xmlns="http://www.w3.org/2000/svg" width="223.437" height="223.437" viewBox="0 0 223.437 223.437">
    <g data-name="Group 2248">
        <path data-name="Path 848" d="M912.721 1200.225a35.389 35.389 0 0 0-27.012-65.214A35.389 35.389 0 0 0 820.5 1108a35.389 35.389 0 0 0-65.214 27.012 35.389 35.389 0 0 0-27.012 65.214 35.389 35.389 0 0 0 27.012 65.214 35.389 35.389 0 0 0 65.214 27.012 35.389 35.389 0 0 0 65.213-27.012 35.389 35.389 0 0 0 27.012-65.214z" transform="translate(-708.778 -1088.507)" style="fill:#8f8ac7"/>
        <g data-name="Group 1762">
            <g data-name="Group 1761">
                <path data-name="Path 870" d="M1041.126-207.543a31.332 31.332 0 0 0-32.271-31.318 31.469 31.469 0 0 0-30.35 29.633 31.291 31.291 0 0 0 12.677 26.892 16.13 16.13 0 0 1 6.458 12.99v7.807h24.308v-7.8a16.611 16.611 0 0 1 6.736-13.2 31.28 31.28 0 0 0 12.442-25.004z" transform="translate(-898.076 306.137)" style="fill:none;stroke:#fff;stroke-miterlimit:10;stroke-width:2px"/>
                <path data-name="Line 236" transform="translate(98.616 150.634)" style="fill:none;stroke:#fff;stroke-miterlimit:10;stroke-width:2px" d="M0 0h26.203"/>
                <path data-name="Line 237" transform="translate(98.616 155.386)" style="fill:none;stroke:#fff;stroke-miterlimit:10;stroke-width:2px" d="M26.203 0H0"/>
                <path data-name="Rectangle 1068" d="M0 0h24.308a4.752 4.752 0 0 1-4.752 4.752H4.752A4.752 4.752 0 0 1 0 0z" transform="translate(99.564 161.422)" style="fill:none;stroke:#fff;stroke-miterlimit:10;stroke-width:2px"/>
                <g data-name="Group 1760">
                    <path data-name="Path 871" d="m1008.252-158.919-5.931-40.819a5.257 5.257 0 0 1 5.2-6.013h4.154" transform="translate(-899.96 303.516)" style="fill:none;stroke:#fff;stroke-miterlimit:10;stroke-width:2px"/>
                    <path data-name="Path 872" d="m1015.912-158.919 5.931-40.819a5.257 5.257 0 0 0-5.2-6.013h-4.154" transform="translate(-900.768 303.516)" style="fill:none;stroke:#fff;stroke-miterlimit:10;stroke-width:2px"/>
                </g>
            </g>
        </g>
    </g>
</svg>
