<svg xmlns="http://www.w3.org/2000/svg" width="223.437" height="223.437" viewBox="0 0 223.437 223.437">
    <g data-name="Group 2250">
        <path data-name="Path 856" d="M912.721 1200.225a35.389 35.389 0 0 0-27.012-65.214A35.389 35.389 0 0 0 820.5 1108a35.389 35.389 0 0 0-65.214 27.012 35.389 35.389 0 0 0-27.012 65.214 35.389 35.389 0 0 0 27.012 65.214 35.389 35.389 0 0 0 65.214 27.012 35.389 35.389 0 0 0 65.213-27.012 35.389 35.389 0 0 0 27.012-65.214z" transform="translate(-708.777 -1088.507)" style="fill:#8f8ac7"/>
        <g data-name="Group 1753">
            <path data-name="Path 325" d="M134.031 167.417h22.8a4.371 4.371 0 0 0 4.371-4.371h0a4.371 4.371 0 0 0-4.371-4.371h-17.797c-5.228-4.126-9.637-5.474-14.005-5.474a17.7 17.7 0 0 0-12.126 4.046 7.517 7.517 0 0 1-4.723 1.67h-5.9" transform="translate(-29.344 -9.554)" style="stroke-linecap:round;stroke-linejoin:round;fill:none;stroke:#fff;stroke-width:2px"/>
            <path data-name="Path 326" d="M153.811 167.417h14.777l10.682-13.708a4.409 4.409 0 0 1 6.145-.8h0a4.408 4.408 0 0 1 .849 6.17L175.356 173.5a12.2 12.2 0 0 1-7.006 4.532l-19.507 4.468a23.766 23.766 0 0 1-11.911-.337l-24.323-7.035a11.558 11.558 0 0 0-3.212-.455h-7.121" transform="translate(-29.344 -9.554)" style="stroke-linecap:round;stroke-linejoin:round;fill:none;stroke:#fff;stroke-width:2px"/>
        </g>
        <g data-name="Group 1754">
            <path data-name="Path 322" d="M352.742 122.389a40.244 40.244 0 0 0-78.614 0" transform="translate(-201.738 -41.268)" style="stroke-linecap:round;stroke-linejoin:round;fill:none;stroke:#fff;stroke-width:2px"/>
            <path data-name="Line 113" transform="translate(151.769 77.194)" style="stroke-linecap:round;stroke-linejoin:round;fill:none;stroke:#fff;stroke-width:2px" d="M1.177 0 0 5.331"/>
            <path data-name="Line 114" transform="translate(147.506 79.114)" style="stroke-linecap:round;stroke-linejoin:round;fill:none;stroke:#fff;stroke-width:2px" d="m0 0 4.263 3.41"/>
        </g>
        <g data-name="Group 1755">
            <path data-name="Path 323" d="M274.128 146.561a40.244 40.244 0 0 0 78.614 0" transform="translate(-201.738 -48.169)" style="stroke-linecap:round;stroke-linejoin:round;fill:none;stroke:#fff;stroke-width:2px"/>
            <path data-name="Line 115" style="stroke-linecap:round;stroke-linejoin:round;fill:none;stroke:#fff;stroke-width:2px" d="M0 5.331 1.177 0" transform="translate(70.491 96.755)"/>
            <path data-name="Line 116" transform="translate(71.668 96.755)" style="stroke-linecap:round;stroke-linejoin:round;fill:none;stroke:#fff;stroke-width:2px" d="M4.263 3.41 0 0"/>
        </g>
        <g data-name="Group 1756">
            <path data-name="Path 858" d="M714.7-56.15a5.439 5.439 0 0 0 5.439 5.439h3.626a5.439 5.439 0 0 0 5.435-5.439 7.251 7.251 0 0 0 7.252-7.252 7.251 7.251 0 0 0-7.252-7.252h-10.875" transform="translate(-600.363 159.837)" style="stroke-miterlimit:10;fill:none;stroke:#fff;stroke-width:2px"/>
            <path data-name="Path 859" d="M738.131-82.485c4.012.006 6.559 2.472 6.559 6.473a7.662 7.662 0 0 1-2.976 5.7" transform="translate(-606.488 163.315)" style="stroke-miterlimit:10;fill:none;stroke:#fff;stroke-width:2px"/>
            <path data-name="Path 860" d="M731.454-84.776a10.878 10.878 0 0 0-10.877-10.877 10.831 10.831 0 0 0-5.629 1.568 10.872 10.872 0 0 0-5.248 9.31v7.252" transform="translate(-598.989 166.708)" style="stroke-miterlimit:10;fill:none;stroke:#fff;stroke-width:2px"/>
            <path data-name="Path 861" d="m682.807-76.787 4.914 3.134a5.452 5.452 0 0 1 2.407 4.526 5.458 5.458 0 0 1-5.458 5.458 5.459 5.459 0 0 1-5.3-4.136 7.254 7.254 0 0 1-4.676-6.781 7.227 7.227 0 0 1 .527-2.719 6.7 6.7 0 0 1-.527-2.719 7.251 7.251 0 0 1 7.252-7.252 7.251 7.251 0 0 1 7.252-7.252 7.28 7.28 0 0 1 1.67.194 9.055 9.055 0 0 1 7.394-3.819 9.045 9.045 0 0 1 6.994 3.3" transform="translate(-589.369 167.395)" style="stroke-miterlimit:10;fill:none;stroke:#fff;stroke-width:2px"/>
            <path data-name="Path 862" d="M701-66.941a7.245 7.245 0 0 0-3.793 6.373 7.248 7.248 0 0 0 7.248 7.248 7.227 7.227 0 0 0 5.282-2.286L715-60.452a7.3 7.3 0 0 1 4.943-1.929h4.454" transform="translate(-595.554 158.817)" style="stroke-miterlimit:10;fill:none;stroke:#fff;stroke-width:2px"/>
            <path data-name="Path 863" d="M696.172-82.847a5.43 5.43 0 0 0 4.37 2.2 5.439 5.439 0 0 0 4.93-3.138l1.6-3.439" transform="translate(-595.271 164.392)" style="stroke-miterlimit:10;fill:none;stroke:#fff;stroke-width:2px"/>
            <path data-name="Path 864" d="M732.638-73.4a5.439 5.439 0 0 1-5.438-5.44v-1.813" transform="translate(-603.798 162.586)" style="stroke-miterlimit:10;fill:none;stroke:#fff;stroke-width:2px"/>
        </g>
    </g>
</svg>
