<svg xmlns="http://www.w3.org/2000/svg" width="223.437" height="223.437" viewBox="0 0 223.437 223.437">
    <g data-name="Group 2247">
        <path data-name="Path 847" d="M912.721 1200.225a35.389 35.389 0 0 0-27.012-65.214A35.389 35.389 0 0 0 820.5 1108a35.389 35.389 0 0 0-65.214 27.012 35.389 35.389 0 0 0-27.012 65.214 35.389 35.389 0 0 0 27.012 65.214 35.389 35.389 0 0 0 65.214 27.012 35.389 35.389 0 0 0 65.213-27.012 35.389 35.389 0 0 0 27.012-65.214z" transform="translate(-708.777 -1088.507)" style="fill:#8f8ac7"/>
        <g data-name="Group 1752">
            <g data-name="Group 1751">
                <path data-name="Path 100" d="m70.25 532.005-14.65 3.284a16.379 16.379 0 0 0-12.8 15.983v23.234h77.537v-23.234a16.38 16.38 0 0 0-12.8-15.983L92.885 532" transform="translate(30.149 -412.794)" style="fill:none;stroke:#fff;stroke-linecap:round;stroke-linejoin:round;stroke-width:2px"/>
                <path data-name="Path 101" d="M68.417 528.483v1.12a11.622 11.622 0 0 0 11.623 11.622h0A11.622 11.622 0 0 0 91.661 529.6v-1.12" transform="translate(31.678 -413.004)" style="fill:none;stroke:#fff;stroke-linecap:round;stroke-linejoin:round;stroke-width:2px"/>
                <path data-name="Path 102" d="M60.093 505.747v7.274a20.443 20.443 0 0 0 20.444 20.444h0a20.443 20.443 0 0 0 20.442-20.444v-7.274" transform="translate(31.181 -414.361)" style="fill:none;stroke:#fff;stroke-linecap:round;stroke-linejoin:round;stroke-width:2px"/>
                <path data-name="Path 103" d="M80.973 477.755a59.875 59.875 0 0 0-28.2 7.2l7.753 22.465c7.015-7.2 15.111-8.1 20.444-8.1s13.427.9 20.442 8.1l7.753-22.465a59.873 59.873 0 0 0-28.192-7.2z" transform="translate(30.745 -416.032)" style="fill:none;stroke:#fff;stroke-linecap:round;stroke-linejoin:round;stroke-width:2px"/>
                <g data-name="Group 87">
                    <path data-name="Line 14" transform="translate(111.717 66.958)" style="fill:none;stroke:#fff;stroke-linecap:round;stroke-linejoin:round;stroke-width:2px" d="M0 0v11.042"/>
                    <path data-name="Line 15" transform="translate(106.196 72.479)" style="fill:none;stroke:#fff;stroke-linecap:round;stroke-linejoin:round;stroke-width:2px" d="M0 0h11.042"/>
                </g>
                <path data-name="Path 104" d="M89.532 499.756s-.716 11.915 9.532 16.159" transform="translate(32.938 -414.719)" style="fill:none;stroke:#fff;stroke-linecap:round;stroke-linejoin:round;stroke-width:2px"/>
                <path data-name="Path 105" d="M61.246 533.676s6.957 30.551 19.222 7.239" transform="translate(31.25 -412.694)" style="fill:none;stroke:#fff;stroke-linecap:round;stroke-linejoin:round;stroke-width:2px"/>
                <path data-name="Path 106" d="M98.606 533.676s-6.957 30.551-19.221 7.239v33.492" transform="translate(32.333 -412.694)" style="fill:none;stroke:#fff;stroke-linecap:round;stroke-linejoin:round;stroke-width:2px"/>
                <path data-name="Path 107" d="M60.093 513.378s22.59 1.565 31.2-13.622" transform="translate(31.181 -414.719)" style="fill:none;stroke:#fff;stroke-linecap:round;stroke-linejoin:round;stroke-width:2px"/>
            </g>
        </g>
    </g>
</svg>
