<svg xmlns="http://www.w3.org/2000/svg" width="145.593" height="107.312" viewBox="0 0 145.593 107.312">
    <path data-name="Path 306" d="M971.865 120.938H857.03a15.377 15.377 0 0 1-4.863-29.966l24.933-8.313h-20.07a15.377 15.377 0 0 1-4.863-29.966l24.933-8.312h-20.07a15.377 15.377 0 0 1 0-30.755h114.835a15.377 15.377 0 0 1 4.863 29.966L951.791 51.9h20.074a15.377 15.377 0 0 1 4.863 29.966l-24.937 8.312h20.074a15.377 15.377 0 1 1 0 30.755z" transform="translate(-841.651 -13.626)" style="fill:#fff"/>
</svg>
