<svg xmlns="http://www.w3.org/2000/svg" width="224.031" height="165.125" viewBox="0 0 224.031 165.125">
    <g data-name="Group 2193">
        <g data-name="Group 2190">
            <path data-name="Path 810" d="M1042.017 178.751h-176.7a23.662 23.662 0 0 1-7.483-46.11l38.366-12.79h-30.884a23.662 23.662 0 0 1-7.483-46.11L896.2 60.95h-30.884a23.662 23.662 0 1 1 0-47.324h176.7a23.662 23.662 0 0 1 7.483 46.11l-38.371 12.791h30.888a23.662 23.662 0 0 1 7.483 46.11l-38.371 12.791h30.888a23.662 23.662 0 1 1 0 47.324z" transform="translate(-841.651 -13.626)" style="fill:#36723b"/>
        </g>
        <g data-name="Group 2189">
            <g data-name="Group 1670" transform="translate(91.974 11.521)">
                <g data-name="Group 478">
                    <path data-name="Path 333" d="M167.883 103.981c0 2.972 2.409 8.019 5.381 8.019s5.381-5.046 5.381-8.019a5.381 5.381 0 1 0-10.763 0z" transform="translate(-153.224 -91.077)" style="stroke-linecap:round;stroke-linejoin:round;fill:none;stroke:#fff;stroke-width:2px"/>
                    <path data-name="Path 334" d="M181.142 119.546v-5.458a3.676 3.676 0 0 0-2.692-3.54l-3.193-.884a3.665 3.665 0 0 1-2.525-2.443" transform="translate(-150.884 -86.918)" style="stroke-linecap:round;stroke-linejoin:round;fill:none;stroke:#fff;stroke-width:2px"/>
                    <path data-name="Path 335" d="M173.032 107.221a3.671 3.671 0 0 1-2.525 2.443l-3.193.884a3.672 3.672 0 0 0-2.692 3.54v5.458" transform="translate(-154.797 -86.918)" style="stroke-linecap:round;stroke-linejoin:round;fill:none;stroke:#fff;stroke-width:2px"/>
                </g>
                <circle data-name="Ellipse 1160" cx="16.671" cy="16.671" r="16.671" transform="rotate(-76.782 20.483 16.23)" style="stroke-linecap:round;stroke-linejoin:round;fill:none;stroke:#fff;stroke-width:2px"/>
            </g>
            <g data-name="Group 1671" transform="translate(91.974 56.521)">
                <g data-name="Group 478">
                    <path data-name="Path 333" d="M167.883 103.981c0 2.972 2.409 8.019 5.381 8.019s5.381-5.046 5.381-8.019a5.381 5.381 0 1 0-10.763 0z" transform="translate(-153.224 -91.077)" style="stroke-linecap:round;stroke-linejoin:round;fill:none;stroke:#fff;stroke-width:2px"/>
                    <path data-name="Path 334" d="M181.142 119.546v-5.458a3.676 3.676 0 0 0-2.692-3.54l-3.193-.884a3.665 3.665 0 0 1-2.525-2.443" transform="translate(-150.884 -86.918)" style="stroke-linecap:round;stroke-linejoin:round;fill:none;stroke:#fff;stroke-width:2px"/>
                    <path data-name="Path 335" d="M173.032 107.221a3.671 3.671 0 0 1-2.525 2.443l-3.193.884a3.672 3.672 0 0 0-2.692 3.54v5.458" transform="translate(-154.797 -86.918)" style="stroke-linecap:round;stroke-linejoin:round;fill:none;stroke:#fff;stroke-width:2px"/>
                </g>
                <circle data-name="Ellipse 1160" cx="16.671" cy="16.671" r="16.671" transform="rotate(-76.782 20.483 16.23)" style="stroke-linecap:round;stroke-linejoin:round;fill:none;stroke:#fff;stroke-width:2px"/>
            </g>
            <g data-name="Group 1672" transform="translate(91.974 113.521)">
                <g data-name="Group 478">
                    <path data-name="Path 333" d="M167.883 103.981c0 2.972 2.409 8.019 5.381 8.019s5.381-5.046 5.381-8.019a5.381 5.381 0 1 0-10.763 0z" transform="translate(-153.224 -91.077)" style="stroke-linecap:round;stroke-linejoin:round;fill:none;stroke:#fff;stroke-width:2px"/>
                    <path data-name="Path 334" d="M181.142 119.546v-5.458a3.676 3.676 0 0 0-2.692-3.54l-3.193-.884a3.665 3.665 0 0 1-2.525-2.443" transform="translate(-150.884 -86.918)" style="stroke-linecap:round;stroke-linejoin:round;fill:none;stroke:#fff;stroke-width:2px"/>
                    <path data-name="Path 335" d="M173.032 107.221a3.671 3.671 0 0 1-2.525 2.443l-3.193.884a3.672 3.672 0 0 0-2.692 3.54v5.458" transform="translate(-154.797 -86.918)" style="stroke-linecap:round;stroke-linejoin:round;fill:none;stroke:#fff;stroke-width:2px"/>
                </g>
                <circle data-name="Ellipse 1160" cx="16.671" cy="16.671" r="16.671" transform="rotate(-76.782 20.483 16.23)" style="stroke-linecap:round;stroke-linejoin:round;fill:none;stroke:#fff;stroke-width:2px"/>
            </g>
            <path data-name="Line 205" transform="translate(84.009 105.062)" style="stroke-dasharray:5 5;fill:none;stroke:#fff;stroke-width:2px" d="M0 0h56"/>
        </g>
    </g>
</svg>
