<svg xmlns="http://www.w3.org/2000/svg" width="780" height="390" viewBox="0 0 780 390">
    <g data-name="Group 2195">
        <path data-name="Subtraction 10" d="M8021-2084a396.25 396.25 0 0 1-39.875-2.013 391.013 391.013 0 0 1-38.723-5.91 388.031 388.031 0 0 1-73.208-22.725 390.024 390.024 0 0 1-66.248-35.958 392.788 392.788 0 0 1-57.719-47.622 392.783 392.783 0 0 1-47.623-57.719 390.047 390.047 0 0 1-35.958-66.247 388.048 388.048 0 0 1-22.725-73.207 390.936 390.936 0 0 1-5.91-38.723A396.06 396.06 0 0 1 7631-2474h780a396.258 396.258 0 0 1-2.014 39.875 390.554 390.554 0 0 1-5.91 38.723 388.018 388.018 0 0 1-22.725 73.207 390.1 390.1 0 0 1-35.957 66.247 392.836 392.836 0 0 1-47.623 57.719 392.764 392.764 0 0 1-57.719 47.622 390.026 390.026 0 0 1-66.247 35.958 388.044 388.044 0 0 1-73.207 22.725 391.057 391.057 0 0 1-38.723 5.91A396.248 396.248 0 0 1 8021-2084z" transform="translate(-7631 2473.999)" style="fill:#fff"/>
        <text transform="translate(390 95.999)" style="font-size:50px;font-family:IBMPlexSansThai-SemiBold,IBM Plex Sans Thai;font-weight:600;fill:#36723b"><tspan x="-230.025" y="0">กระบวนการหาคำตอบ</tspan></text>
        <text data-name="RISE Impact ได้จัดกระบวนการ หารือเชิงนโยบายในประเด็นนี้ทั้งหมด 3 ครั้ง รวมผู้เข้าร่วมกว่า 29 คน" transform="translate(116 136.999)" style="font-size:25px;font-family:IBMPlexSansThaiLooped,IBM Plex Sans Thai Looped;fill:#36723b"><tspan x="105.4" y="28">RISE Impact </tspan><tspan y="28">ได้จัดกระบวนการ</tspan><tspan x="40.938" y="69">หารือเชิงนโยบายในประเด็นนี้ทั้งหมด 3 ครั้ง </tspan><tspan x="146.688" y="110">รวมผู้เข้าร่วมกว่า 29 คน</tspan></text>
    </g>
</svg>
