<svg xmlns="http://www.w3.org/2000/svg" width="224.031" height="165.125" viewBox="0 0 224.031 165.125">
    <g data-name="Group 2192">
        <g data-name="Group 2191">
            <path data-name="Path 811" d="M1042.017 178.751h-176.7a23.662 23.662 0 0 1-7.483-46.11l38.366-12.79h-30.884a23.662 23.662 0 0 1-7.483-46.11L896.2 60.95h-30.884a23.662 23.662 0 1 1 0-47.324h176.7a23.662 23.662 0 0 1 7.483 46.11l-38.371 12.791h30.888a23.662 23.662 0 0 1 7.483 46.11l-38.371 12.791h30.888a23.662 23.662 0 1 1 0 47.324z" transform="translate(-841.651 -13.626)" style="fill:#36723b"/>
        </g>
        <g data-name="Group 1784">
            <g data-name="Group 1783" transform="translate(97.51 19.037)">
                <g data-name="Group 1663">
                    <path data-name="Rectangle 1038" d="M351.063 343.112h5.5a2.806 2.806 0 0 1 2.806 2.806v.049a2.805 2.805 0 0 1-2.805 2.807h-5.5v-5.662z" transform="translate(-338.732 -332.858)" style="stroke:#fff;stroke-linecap:round;stroke-linejoin:round;stroke-width:2px;fill:none"/>
                    <path data-name="Rectangle 1039" d="M351.063 350.227h6.376a3.219 3.219 0 0 1 3.219 3.219v.057a3.219 3.219 0 0 1-3.219 3.219h-6.376v-6.5z" transform="translate(-338.732 -334.311)" style="stroke:#fff;stroke-linecap:round;stroke-linejoin:round;stroke-width:2px;fill:none"/>
                    <path data-name="Line 206" transform="translate(15.892 7.892)" style="stroke:#fff;stroke-linecap:round;stroke-linejoin:round;stroke-width:2px;fill:none" d="M0 16.88V0"/>
                </g>
                <circle data-name="Ellipse 1421" cx="16.333" cy="16.333" r="16.333" style="stroke:#fff;stroke-linecap:round;stroke-linejoin:round;stroke-width:2px;fill:none"/>
            </g>
            <path data-name="Path 882" d="m313.921 425.66 1.207 1.206 5.672-5.672 55.036-55.036 8.452-10.865-10.865 8.452-55.036 55.036-5.672 5.672z" transform="translate(-233.391 -287.309)" style="fill:#fff;stroke:#fff;stroke-linecap:round;stroke-linejoin:round;stroke-width:2px"/>
            <path data-name="Path 883" d="m365.006 408.815-36.435-36.435-3.027-3.028a10.98 10.98 0 0 0-13.691-15.489l6.25 6.25-1.3 4.838-4.838 1.3-6.25-6.25a10.98 10.98 0 0 0 15.489 13.691l3.028 3.027 36.434 36.435a10.981 10.981 0 0 0 13.691 15.49l-6.25-6.251 1.3-4.838 4.838-1.3 6.251 6.251a10.981 10.981 0 0 0-15.49-13.692z" transform="translate(-231.803 -286.858)" style="stroke:#fff;stroke-linecap:round;stroke-linejoin:round;stroke-width:2px;fill:none"/>
        </g>
    </g>
</svg>
