<svg xmlns="http://www.w3.org/2000/svg" width="780" height="389.999" viewBox="0 0 780 389.999">
    <g data-name="Group 2206">
        <path data-name="Subtraction 11" d="M8021-2084a396.25 396.25 0 0 1-39.875-2.013 391.013 391.013 0 0 1-38.723-5.91 388.031 388.031 0 0 1-73.208-22.725 390.024 390.024 0 0 1-66.248-35.958 392.788 392.788 0 0 1-57.719-47.622 392.783 392.783 0 0 1-47.623-57.719 390.047 390.047 0 0 1-35.958-66.247 388.048 388.048 0 0 1-22.725-73.207 390.936 390.936 0 0 1-5.91-38.723A396.06 396.06 0 0 1 7631-2474h780a396.258 396.258 0 0 1-2.014 39.875 390.554 390.554 0 0 1-5.91 38.723 388.018 388.018 0 0 1-22.725 73.207 390.1 390.1 0 0 1-35.957 66.247 392.836 392.836 0 0 1-47.623 57.719 392.764 392.764 0 0 1-57.719 47.622 390.026 390.026 0 0 1-66.247 35.958 388.044 388.044 0 0 1-73.207 22.725 391.057 391.057 0 0 1-38.723 5.91A396.248 396.248 0 0 1 8021-2084z" transform="translate(-7631 2473.999)" style="fill:#fff"/>
        <text transform="translate(390 95.999)" style="font-size:50px;font-family:IBMPlexSansThai-SemiBold,IBM Plex Sans Thai;font-weight:600;fill:#2b2b2b"><tspan x="-242" y="0">ข้อสรุปจากกระบวนการ</tspan></text>
        <text data-name="จากกระบวนการหารือร่วมกันของผู้เข้าร่วม จากหลายภาคส่วน ได้บทสรุปเป็นข้อเสนอเชิงนโยบายดังนี้" transform="translate(114 137.999)" style="font-size:25px;font-family:IBMPlexSansThaiLooped,IBM Plex Sans Thai Looped;fill:#2b2b2b"><tspan x="46.975" y="28">จากกระบวนการหารือร่วมกันของผู้เข้าร่วม</tspan><tspan x="176.75" y="69">จากหลายภาคส่วน</tspan><tspan x="68.875" y="110">ได้บทสรุปเป็นข้อเสนอเชิงนโยบายดังนี้</tspan></text>
    </g>
</svg>
