<svg xmlns="http://www.w3.org/2000/svg" width="700" height="491.42" viewBox="0 0 700 491.42">
    <defs>
        <style>
            .cls-1{fill:#fff}.cls-2{fill:#c7642a}.cls-4,.cls-6{fill:none}.cls-6{stroke-width:3px;stroke-dasharray:5 0}.cls-5{fill:#6badcb}.cls-6{stroke:#6badcb}.cls-7{stroke:none}
        </style>
    </defs>
    <g id="Group_1236" data-name="Group 1236" transform="translate(-630 -4704)">
        <path id="Path_633" data-name="Path 633" class="cls-1" d="M141.37 39.42a10.811 10.811 0 0 1-3.535-.542 7.5 7.5 0 0 1-2.678-1.557 6.664 6.664 0 0 1-1.68-2.45 8.558 8.558 0 0 1-.577-3.22V19.68h4.48v11.725a4.667 4.667 0 0 0 1.05 3.255 4.319 4.319 0 0 0 5.88 0 4.667 4.667 0 0 0 1.05-3.255V13.1h4.48v18.55a8.558 8.558 0 0 1-.577 3.22 6.664 6.664 0 0 1-1.68 2.45 7.5 7.5 0 0 1-2.678 1.557 10.811 10.811 0 0 1-3.535.543zM130.38 13.1h8.61v-2.905h4.1v6.3h-12.71zM179.59 39h-16.94v-4.27l7.665-6.72a16.242 16.242 0 0 0 2.87-3.1 5.338 5.338 0 0 0 .91-2.992v-.455a3 3 0 0 0-1.05-2.463 3.909 3.909 0 0 0-2.555-.858 3.7 3.7 0 0 0-2.87 1.067 6.2 6.2 0 0 0-1.4 2.573l-3.99-1.54a9.818 9.818 0 0 1 1.085-2.328 7.745 7.745 0 0 1 1.767-1.942 8.393 8.393 0 0 1 2.5-1.33 11.2 11.2 0 0 1 6.72.052 7.153 7.153 0 0 1 2.538 1.523 6.567 6.567 0 0 1 1.575 2.31 8.144 8.144 0 0 1 .053 5.7 10.328 10.328 0 0 1-1.33 2.4 15.4 15.4 0 0 1-1.96 2.17q-1.12 1.033-2.38 2.083l-5.145 4.235h11.937zm19.915-20.44h-10.99l-.56 8.19h.245a12.2 12.2 0 0 1 .84-1.435 4.824 4.824 0 0 1 1.05-1.12 4.7 4.7 0 0 1 1.382-.717 6.074 6.074 0 0 1 1.908-.263 8.12 8.12 0 0 1 2.94.525 6.7 6.7 0 0 1 2.363 1.522 7.182 7.182 0 0 1 1.575 2.432 8.658 8.658 0 0 1 .577 3.255 9.347 9.347 0 0 1-.6 3.4 7.511 7.511 0 0 1-1.75 2.677 7.961 7.961 0 0 1-2.835 1.768 10.92 10.92 0 0 1-3.85.63 11.314 11.314 0 0 1-3.01-.367 8.933 8.933 0 0 1-2.345-1A7.948 7.948 0 0 1 184.7 36.6a12.172 12.172 0 0 1-1.295-1.733l3.36-2.59q.42.7.875 1.313a5.144 5.144 0 0 0 1.067 1.068 5.077 5.077 0 0 0 1.365.717 5.371 5.371 0 0 0 1.768.263 4.056 4.056 0 0 0 3.132-1.155 4.46 4.46 0 0 0 1.068-3.15v-.28a4.02 4.02 0 0 0-1.085-2.975 4.068 4.068 0 0 0-3.01-1.085 4.644 4.644 0 0 0-2.45.578 6.109 6.109 0 0 0-1.505 1.242l-3.78-.525.91-13.72h14.385zm13.58 20.86a9.7 9.7 0 0 1-3.745-.682 7.9 7.9 0 0 1-2.8-1.925 8.192 8.192 0 0 1-1.75-3.01 12.409 12.409 0 0 1-.6-3.973 15.35 15.35 0 0 1 .788-4.952 18.993 18.993 0 0 1 2.048-4.27 20.171 20.171 0 0 1 2.817-3.465 23.019 23.019 0 0 1 3.1-2.573h6.23q-2.17 1.54-3.868 2.975a27.155 27.155 0 0 0-2.975 2.905 15.558 15.558 0 0 0-2.1 3.063 14.413 14.413 0 0 0-1.243 3.447l.28.07a9.463 9.463 0 0 1 .823-1.347 5.611 5.611 0 0 1 1.137-1.155 5.36 5.36 0 0 1 1.54-.805 6.305 6.305 0 0 1 2.03-.3 7.515 7.515 0 0 1 2.817.525 6.453 6.453 0 0 1 2.275 1.522 7.1 7.1 0 0 1 1.5 2.4 8.558 8.558 0 0 1 .542 3.115 8.885 8.885 0 0 1-.63 3.4 7.742 7.742 0 0 1-1.785 2.66 8.187 8.187 0 0 1-2.783 1.75 10.064 10.064 0 0 1-3.648.625zm0-3.64a4.169 4.169 0 0 0 3.028-1.067 4.067 4.067 0 0 0 1.1-3.063v-.525a4.067 4.067 0 0 0-1.1-3.062 4.852 4.852 0 0 0-6.073 0 4.105 4.105 0 0 0-1.085 3.063v.525a4.105 4.105 0 0 0 1.085 3.063 4.156 4.156 0 0 0 3.045 1.066zm28.42-17.22h-10.99l-.56 8.19h.245a12.2 12.2 0 0 1 .84-1.435 4.824 4.824 0 0 1 1.05-1.12 4.7 4.7 0 0 1 1.382-.717 6.074 6.074 0 0 1 1.908-.263 8.12 8.12 0 0 1 2.94.525 6.7 6.7 0 0 1 2.363 1.522 7.182 7.182 0 0 1 1.575 2.432 8.658 8.658 0 0 1 .577 3.255 9.347 9.347 0 0 1-.6 3.4 7.511 7.511 0 0 1-1.75 2.677 7.961 7.961 0 0 1-2.835 1.768 10.92 10.92 0 0 1-3.85.63 11.314 11.314 0 0 1-3.01-.367 8.933 8.933 0 0 1-2.345-1A7.948 7.948 0 0 1 226.7 36.6a12.172 12.172 0 0 1-1.295-1.733l3.36-2.59q.42.7.875 1.313a5.144 5.144 0 0 0 1.067 1.068 5.077 5.077 0 0 0 1.365.717 5.371 5.371 0 0 0 1.768.263 4.056 4.056 0 0 0 3.132-1.155 4.46 4.46 0 0 0 1.068-3.15v-.28a4.02 4.02 0 0 0-1.085-2.975 4.068 4.068 0 0 0-3.01-1.085 4.644 4.644 0 0 0-2.45.578 6.109 6.109 0 0 0-1.505 1.242l-3.78-.525.91-13.72h14.385z" transform="translate(1006 5156)"/>
        <path id="Path_604" data-name="Path 604" class="cls-1" d="M141.37 39.42a10.811 10.811 0 0 1-3.535-.542 7.5 7.5 0 0 1-2.678-1.557 6.664 6.664 0 0 1-1.68-2.45 8.558 8.558 0 0 1-.577-3.22V19.68h4.48v11.725a4.667 4.667 0 0 0 1.05 3.255 4.319 4.319 0 0 0 5.88 0 4.667 4.667 0 0 0 1.05-3.255V13.1h4.48v18.55a8.558 8.558 0 0 1-.577 3.22 6.664 6.664 0 0 1-1.68 2.45 7.5 7.5 0 0 1-2.678 1.557 10.811 10.811 0 0 1-3.535.543zM130.38 13.1h8.61v-2.905h4.1v6.3h-12.71zM179.59 39h-16.94v-4.27l7.665-6.72a16.242 16.242 0 0 0 2.87-3.1 5.338 5.338 0 0 0 .91-2.992v-.455a3 3 0 0 0-1.05-2.463 3.909 3.909 0 0 0-2.555-.858 3.7 3.7 0 0 0-2.87 1.067 6.2 6.2 0 0 0-1.4 2.573l-3.99-1.54a9.818 9.818 0 0 1 1.085-2.328 7.745 7.745 0 0 1 1.767-1.942 8.393 8.393 0 0 1 2.5-1.33 11.2 11.2 0 0 1 6.72.052 7.153 7.153 0 0 1 2.538 1.523 6.567 6.567 0 0 1 1.575 2.31 8.144 8.144 0 0 1 .053 5.7 10.328 10.328 0 0 1-1.33 2.4 15.4 15.4 0 0 1-1.96 2.17q-1.12 1.033-2.38 2.083l-5.145 4.235h11.937zm19.915-20.44h-10.99l-.56 8.19h.245a12.2 12.2 0 0 1 .84-1.435 4.824 4.824 0 0 1 1.05-1.12 4.7 4.7 0 0 1 1.382-.717 6.074 6.074 0 0 1 1.908-.263 8.12 8.12 0 0 1 2.94.525 6.7 6.7 0 0 1 2.363 1.522 7.182 7.182 0 0 1 1.575 2.432 8.658 8.658 0 0 1 .577 3.255 9.347 9.347 0 0 1-.6 3.4 7.511 7.511 0 0 1-1.75 2.677 7.961 7.961 0 0 1-2.835 1.768 10.92 10.92 0 0 1-3.85.63 11.314 11.314 0 0 1-3.01-.367 8.933 8.933 0 0 1-2.345-1A7.948 7.948 0 0 1 184.7 36.6a12.172 12.172 0 0 1-1.295-1.733l3.36-2.59q.42.7.875 1.313a5.144 5.144 0 0 0 1.067 1.068 5.077 5.077 0 0 0 1.365.717 5.371 5.371 0 0 0 1.768.263 4.056 4.056 0 0 0 3.132-1.155 4.46 4.46 0 0 0 1.068-3.15v-.28a4.02 4.02 0 0 0-1.085-2.975 4.068 4.068 0 0 0-3.01-1.085 4.644 4.644 0 0 0-2.45.578 6.109 6.109 0 0 0-1.505 1.242l-3.78-.525.91-13.72h14.385zm13.58 20.86a9.7 9.7 0 0 1-3.745-.682 7.9 7.9 0 0 1-2.8-1.925 8.192 8.192 0 0 1-1.75-3.01 12.409 12.409 0 0 1-.6-3.973 15.35 15.35 0 0 1 .788-4.952 18.993 18.993 0 0 1 2.048-4.27 20.171 20.171 0 0 1 2.817-3.465 23.019 23.019 0 0 1 3.1-2.573h6.23q-2.17 1.54-3.868 2.975a27.155 27.155 0 0 0-2.975 2.905 15.558 15.558 0 0 0-2.1 3.063 14.413 14.413 0 0 0-1.243 3.447l.28.07a9.463 9.463 0 0 1 .823-1.347 5.611 5.611 0 0 1 1.137-1.155 5.36 5.36 0 0 1 1.54-.805 6.305 6.305 0 0 1 2.03-.3 7.515 7.515 0 0 1 2.817.525 6.453 6.453 0 0 1 2.275 1.522 7.1 7.1 0 0 1 1.5 2.4 8.558 8.558 0 0 1 .542 3.115 8.885 8.885 0 0 1-.63 3.4 7.742 7.742 0 0 1-1.785 2.66 8.187 8.187 0 0 1-2.783 1.75 10.064 10.064 0 0 1-3.648.625zm0-3.64a4.169 4.169 0 0 0 3.028-1.067 4.067 4.067 0 0 0 1.1-3.063v-.525a4.067 4.067 0 0 0-1.1-3.062 4.852 4.852 0 0 0-6.073 0 4.105 4.105 0 0 0-1.085 3.063v.525a4.105 4.105 0 0 0 1.085 3.063 4.156 4.156 0 0 0 3.045 1.066zm19.565-11.34a4.676 4.676 0 0 0 3.1-.857 2.757 2.757 0 0 0 1-2.188v-.245a3 3 0 0 0-.962-2.362 3.831 3.831 0 0 0-2.643-.858 5.3 5.3 0 0 0-2.853.77 6.949 6.949 0 0 0-2.152 2.17l-2.94-2.66a14.857 14.857 0 0 1 1.383-1.593 7.721 7.721 0 0 1 1.732-1.3 9.332 9.332 0 0 1 2.205-.857 11.123 11.123 0 0 1 2.765-.315 12.209 12.209 0 0 1 3.378.437 7.868 7.868 0 0 1 2.625 1.278 5.828 5.828 0 0 1 1.7 2.013 5.756 5.756 0 0 1 .6 2.642 5.853 5.853 0 0 1-.367 2.135 5.136 5.136 0 0 1-1.015 1.645 5.337 5.337 0 0 1-1.5 1.138 7.557 7.557 0 0 1-1.8.647v.21a8.357 8.357 0 0 1 1.995.665 5.243 5.243 0 0 1 1.628 1.208 5.766 5.766 0 0 1 1.085 1.767 6.227 6.227 0 0 1 .4 2.31 6.626 6.626 0 0 1-.648 2.94 6.523 6.523 0 0 1-1.837 2.275 8.566 8.566 0 0 1-2.835 1.452 12.438 12.438 0 0 1-3.694.513 12.166 12.166 0 0 1-3.15-.367 9.142 9.142 0 0 1-2.4-1 8.553 8.553 0 0 1-1.8-1.452 10.875 10.875 0 0 1-1.33-1.733l3.4-2.59a10.455 10.455 0 0 0 .91 1.347 5.71 5.71 0 0 0 1.12 1.068 4.833 4.833 0 0 0 1.435.7 6.246 6.246 0 0 0 1.82.245 4.493 4.493 0 0 0 3.115-.98 3.448 3.448 0 0 0 1.085-2.695v-.243a2.99 2.99 0 0 0-1.173-2.555 5.576 5.576 0 0 0-3.378-.875h-2.415v-3.85z" transform="translate(539 5156)"/>
        <g id="Group_1235" data-name="Group 1235">
            <path id="Path_603" data-name="Path 603" class="cls-2" d="M118.44 100H74.88V89.02l19.71-17.28a41.764 41.764 0 0 0 7.38-7.965 13.727 13.727 0 0 0 2.34-7.7V54.91a7.72 7.72 0 0 0-2.7-6.345 10.051 10.051 0 0 0-6.57-2.205q-4.86 0-7.38 2.745a15.952 15.952 0 0 0-3.6 6.615L73.8 51.76a25.247 25.247 0 0 1 2.79-5.985 19.916 19.916 0 0 1 4.545-4.995 21.582 21.582 0 0 1 6.435-3.42 28.8 28.8 0 0 1 17.28.135 18.393 18.393 0 0 1 6.525 3.915 16.887 16.887 0 0 1 4.05 5.94 20.941 20.941 0 0 1 .135 14.67 26.557 26.557 0 0 1-3.42 6.165 39.6 39.6 0 0 1-5.04 5.58q-2.88 2.655-6.12 5.355L87.75 90.01h30.69zm31.86 1.08a23.092 23.092 0 0 1-10.44-2.205 19.26 19.26 0 0 1-7.29-6.345 29.142 29.142 0 0 1-4.275-10.17 61.388 61.388 0 0 1-1.395-13.77 61.539 61.539 0 0 1 1.395-13.725 29.142 29.142 0 0 1 4.275-10.215 19.26 19.26 0 0 1 7.29-6.345 23.092 23.092 0 0 1 10.44-2.2q11.97 0 17.685 8.55T173.7 68.59q0 15.39-5.715 23.94t-17.685 8.55zm0-9.99q6.03 0 8.415-4.545T161.1 74.26V62.92q0-7.74-2.385-12.285T150.3 46.09q-6.03 0-8.415 4.545T139.5 62.92v11.34q0 7.74 2.385 12.285t8.415 4.545zm43.2 8.91 43.56-62.82h10.44L203.94 100zm4.32-28.26q-7.65 0-11.655-4.545T182.16 53.92q0-8.73 4.005-13.275T197.82 36.1q7.65 0 11.61 4.545t3.96 13.275q0 8.73-3.96 13.275t-11.61 4.545zm0-6.84q5.58 0 5.58-8.55v-4.86q0-8.55-5.58-8.55t-5.58 8.55v4.86q0 8.55 5.58 8.55zm45.36 36.18q-7.56 0-11.565-4.545T227.61 83.26q0-8.73 4.005-13.275t11.565-4.545q7.65 0 11.655 4.545t4 13.275q0 8.73-4 13.275t-11.655 4.545zm0-6.84q5.58 0 5.58-8.55v-4.86q0-8.55-5.58-8.55t-5.58 8.55v4.86q0 8.55 5.58 8.55z" transform="translate(1027 4925)"/>
            <g id="Ellipse_1351" data-name="Ellipse 1351" transform="translate(1057 4856)" style="stroke-width:3px;stroke-dasharray:5 0;stroke:#c7642a;fill:none">
                <circle class="cls-7" cx="136.5" cy="136.5" r="136.5"/>
                <circle class="cls-4" cx="136.5" cy="136.5" r="135"/>
            </g>
            <g id="elderly_woman_black_24dp" transform="translate(1154.305 4704.091)">
                <g id="Group_889" data-name="Group 889" transform="translate(.067 .336)">
                    <path id="Rectangle_836" data-name="Rectangle 836" class="cls-4" transform="translate(-.372 -.427)" d="M0 0h79v134H0z"/>
                </g>
                <g id="Group_891" data-name="Group 891" transform="translate(.014 5.46)">
                    <g id="Group_890" data-name="Group 890">
                        <path id="Path_465" data-name="Path 465" class="cls-2" d="M75.765 33.906a22.4 22.4 0 0 1-19.981-12.334l-4.409-9.321A11.141 11.141 0 0 0 41.385 6C21.181 6 6 65.663 6 78.556h13.953L8.232 94.183l8.93 6.7 16.744-22.327h11.162v22.324h11.163V78.388l-11.163-33.32L47.8 29.943a33.594 33.594 0 0 0 19.59 14.065v3.851h5.581v-5.581a2.791 2.791 0 1 1 5.581 0v58.6h5.581v-58.6a8.361 8.361 0 0 0-8.368-8.372z" transform="translate(-6 21.906)"/>
                        <path id="Path_466" data-name="Path 466" class="cls-2" d="M14.349 11.66a10.723 10.723 0 0 0-.558 3.293A11.162 11.162 0 1 0 24.953 3.791a10.723 10.723 0 0 0-3.293.558A5.532 5.532 0 0 0 16.581 1 5.6 5.6 0 0 0 11 6.581a5.532 5.532 0 0 0 3.349 5.079z" transform="translate(16.906 -1)"/>
                    </g>
                </g>
            </g>
            <g id="Group_1234" data-name="Group 1234">
                <path id="Path_602" data-name="Path 602" class="cls-5" d="M107.16 67v-6.42h11.52V30.82h-.54l-9.12 10.8-4.92-4.14 10.38-12.36h11.94v35.46h9.6V67zm48.54.72a20.963 20.963 0 0 1-6.51-.93 14.421 14.421 0 0 1-4.8-2.55 10.822 10.822 0 0 1-2.97-3.84 11.5 11.5 0 0 1-1.02-4.86 9.651 9.651 0 0 1 2.25-6.63 11.96 11.96 0 0 1 6.03-3.57v-.48a11.436 11.436 0 0 1-5.07-3.54 9.3 9.3 0 0 1-1.95-6.06 10.174 10.174 0 0 1 .93-4.38 9.542 9.542 0 0 1 2.73-3.42 13.279 13.279 0 0 1 4.41-2.25 22.406 22.406 0 0 1 11.94 0 13.279 13.279 0 0 1 4.41 2.25 9.542 9.542 0 0 1 2.73 3.42 10.174 10.174 0 0 1 .93 4.38 9.3 9.3 0 0 1-1.95 6.06 11.436 11.436 0 0 1-5.07 3.54v.48a11.96 11.96 0 0 1 6.03 3.57 9.651 9.651 0 0 1 2.25 6.63 11.5 11.5 0 0 1-1.02 4.86 10.822 10.822 0 0 1-2.97 3.84 14.421 14.421 0 0 1-4.8 2.55 20.963 20.963 0 0 1-6.51.93zm0-6.18a7.872 7.872 0 0 0 5.25-1.56 5.443 5.443 0 0 0 1.83-4.38v-1.26a5.443 5.443 0 0 0-1.83-4.38 9.614 9.614 0 0 0-10.5 0 5.443 5.443 0 0 0-1.83 4.38v1.26a5.443 5.443 0 0 0 1.83 4.38 7.872 7.872 0 0 0 5.25 1.56zm0-19.02a7.267 7.267 0 0 0 4.86-1.44 5.081 5.081 0 0 0 1.68-4.08v-.96a5.01 5.01 0 0 0-1.68-4.02 8.921 8.921 0 0 0-9.72 0 5.01 5.01 0 0 0-1.68 4.02V37a5.081 5.081 0 0 0 1.68 4.08 7.267 7.267 0 0 0 4.86 1.44zM184.5 67l29.04-41.88h6.96L191.46 67zm2.88-18.84q-5.1 0-7.77-3.03t-2.67-8.85q0-5.82 2.67-8.85t7.77-3.03q5.1 0 7.74 3.03t2.64 8.85q0 5.82-2.64 8.85t-7.74 3.03zm0-4.56q3.72 0 3.72-5.7v-3.24q0-5.7-3.72-5.7t-3.72 5.7v3.24q0 5.7 3.72 5.7zm30.24 24.12q-5.04 0-7.71-3.03t-2.67-8.85q0-5.82 2.67-8.85t7.71-3.03q5.1 0 7.77 3.03t2.67 8.85q0 5.82-2.67 8.85t-7.77 3.03zm0-4.56q3.72 0 3.72-5.7v-3.24q0-5.7-3.72-5.7t-3.72 5.7v3.24q0 5.7 3.72 5.7z" transform="translate(560 4949)"/>
                <g id="Ellipse_1350" data-name="Ellipse 1350" class="cls-6" transform="translate(630 4896)">
                    <circle class="cls-7" cx="96.5" cy="96.5" r="96.5"/>
                    <circle class="cls-4" cx="96.5" cy="96.5" r="95"/>
                </g>
                <path id="Line_173" data-name="Line 173" class="cls-6" transform="translate(820.5 4992.5)" d="M0 0h184.335"/>
                <g id="elderly_woman_black_24dp-2" data-name="elderly_woman_black_24dp" transform="translate(696.738 4777.091)">
                    <g id="Group_889-2" data-name="Group 889" transform="translate(-.305 -.091)">
                        <path id="Rectangle_836-2" data-name="Rectangle 836" class="cls-4" transform="translate(-.433)" d="M0 0h61v102H0z"/>
                    </g>
                    <g id="Group_891-2" data-name="Group 891" transform="translate(-.062 4.134)">
                        <g id="Group_890-2" data-name="Group 890">
                            <path id="Path_465-2" data-name="Path 465" class="cls-5" d="M59.1 27.242a17.052 17.052 0 0 1-15.2-9.389l-3.356-7.095A8.48 8.48 0 0 0 32.935 6C17.556 6 6 51.415 6 61.229h10.621L7.7 73.124l6.8 5.1 12.742-16.995h8.5v16.993h8.5V61.1l-8.5-25.363 2.078-11.512a25.571 25.571 0 0 0 14.912 10.706v2.931h4.248v-4.248a2.124 2.124 0 1 1 4.248 0v44.608h4.248V33.614a6.364 6.364 0 0 0-6.376-6.372z" transform="translate(-6 15.242)"/>
                            <path id="Path_466-2" data-name="Path 466" class="cls-5" d="M13.549 9.114a8.163 8.163 0 0 0-.425 2.507 8.5 8.5 0 1 0 8.5-8.5 8.163 8.163 0 0 0-2.507.425A4.211 4.211 0 0 0 15.248 1 4.261 4.261 0 0 0 11 5.248a4.211 4.211 0 0 0 2.549 3.866z" transform="translate(10.242 -1)"/>
                        </g>
                    </g>
                </g>
            </g>
        </g>
    </g>
</svg>
