<svg xmlns="http://www.w3.org/2000/svg" width="178.863" height="160.898" viewBox="0 0 178.863 160.898">
    <defs>
        <style>
            .cls-2{fill:none;stroke:#fff;stroke-linecap:round;stroke-linejoin:round;stroke-width:2px}
        </style>
    </defs>
    <g id="Group_1242" data-name="Group 1242" transform="translate(-370.069 -6600.551)">
        <path id="Path_481" data-name="Path 481" d="M311.337 657.018a16.367 16.367 0 0 1-14.174-24.55 22.357 22.357 0 0 0-8.183-30.542 22.358 22.358 0 0 0-30.542 8.184 16.367 16.367 0 0 1-28.348 0 22.357 22.357 0 0 0-30.541-8.184 22.357 22.357 0 0 0-8.183 30.542 16.367 16.367 0 0 1-14.174 24.55 22.358 22.358 0 0 0-22.358 22.358 22.358 22.358 0 0 0 22.358 22.358 16.367 16.367 0 0 1 14.174 24.55 22.358 22.358 0 0 0 8.183 30.542 22.357 22.357 0 0 0 30.541-8.184 16.367 16.367 0 0 1 28.348 0 22.358 22.358 0 0 0 30.542 8.184 22.358 22.358 0 0 0 8.183-30.542 16.367 16.367 0 0 1 14.174-24.55 22.358 22.358 0 0 0 22.357-22.358 22.358 22.358 0 0 0-22.357-22.358z" transform="translate(215.237 6001.624)" style="fill:#daa13d"/>
        <g id="Group_493" data-name="Group 493" transform="translate(232.984 6316.281)">
            <g id="Group_491" data-name="Group 491" transform="translate(232.11 328.29)">
                <path id="Path_345" data-name="Path 345" class="cls-2" d="M259.731 328.29h0a13.734 13.734 0 0 0-11.327 21.5l11.327 16.519h0l11.327-16.519a13.734 13.734 0 0 0-11.327-21.5z" transform="translate(-245.974 -328.29)"/>
                <circle id="Ellipse_1179" data-name="Ellipse 1179" class="cls-2" cx="6.301" cy="6.301" r="6.301" transform="rotate(-76.718 14.697 5.283)"/>
            </g>
            <g id="Group_492" data-name="Group 492" transform="translate(193.405 364.403)">
                <path id="Path_346" data-name="Path 346" class="cls-2" d="M203.894 377.337h0a10.471 10.471 0 0 0-8.636 16.393l8.636 12.593h0l8.635-12.593a10.471 10.471 0 0 0-8.635-16.393z" transform="translate(-193.405 -377.337)"/>
                <path id="Path_347" data-name="Path 347" class="cls-2" d="M210.734 389.791a4.8 4.8 0 1 1-4.8-4.8 4.8 4.8 0 0 1 4.8 4.8z" transform="translate(-195.442 -379.354)"/>
            </g>
            <path id="Path_348" data-name="Path 348" d="M207.651 407.006v2.552a5.208 5.208 0 0 0 5.208 5.208h31.559a5.208 5.208 0 0 0 5.208-5.208v-29.63" transform="translate(-3.757 -13.618)" style="stroke-dasharray:7;fill:none;stroke:#fff;stroke-linecap:round;stroke-linejoin:round;stroke-width:2px"/>
        </g>
    </g>
</svg>
