<svg xmlns="http://www.w3.org/2000/svg" width="178.863" height="160.898" viewBox="0 0 178.863 160.898">
    <defs>
        <style>
            .cls-2{fill:none;stroke:#f7f7f7;stroke-linecap:round;stroke-linejoin:round;stroke-width:2px}
        </style>
    </defs>
    <g id="Group_1239" data-name="Group 1239" transform="translate(-1361.5 -6072)">
        <path id="Path_480" data-name="Path 480" d="M311.337 657.018a16.367 16.367 0 0 1-14.174-24.55 22.357 22.357 0 0 0-8.183-30.542 22.358 22.358 0 0 0-30.542 8.184 16.367 16.367 0 0 1-28.348 0 22.357 22.357 0 0 0-30.541-8.184 22.357 22.357 0 0 0-8.183 30.542 16.367 16.367 0 0 1-14.174 24.55 22.358 22.358 0 0 0-22.358 22.358 22.358 22.358 0 0 0 22.358 22.358 16.367 16.367 0 0 1 14.174 24.55 22.358 22.358 0 0 0 8.183 30.542 22.357 22.357 0 0 0 30.541-8.184 16.367 16.367 0 0 1 28.348 0 22.358 22.358 0 0 0 30.542 8.184 22.358 22.358 0 0 0 8.183-30.542 16.367 16.367 0 0 1 14.174-24.55 22.358 22.358 0 0 0 22.357-22.358 22.358 22.358 0 0 0-22.357-22.358z" transform="translate(1206.668 5473.073)" style="fill:#daa13d"/>
        <g id="Group_505" data-name="Group 505" transform="translate(1223.529 5786.457)">
            <path id="Path_354" data-name="Path 354" class="cls-2" d="M249.448 393.211H221.83v-37.25l13.809-7.133 13.809 7.133z" transform="translate(-8.668 -2.283)"/>
            <path id="Rectangle_710" data-name="Rectangle 710" class="cls-2" transform="translate(221.053 377.228)" d="M0 0h11.836v13.7H0z"/>
            <path id="Rectangle_711" data-name="Rectangle 711" class="cls-2" transform="translate(188.916 364.108)" d="M0 0h24.245v4.652H0z"/>
            <path id="Rectangle_712" data-name="Rectangle 712" class="cls-2" transform="translate(190.924 368.76)" d="M0 0h22.238v22.167H0z"/>
            <path id="Rectangle_713" data-name="Rectangle 713" class="cls-2" transform="rotate(180 132.512 184.38)" d="M0 0h24.245v4.652H0z"/>
            <path id="Rectangle_714" data-name="Rectangle 714" class="cls-2" transform="rotate(180 131.508 195.464)" d="M0 0h22.238v22.167H0z"/>
            <path id="Rectangle_715" data-name="Rectangle 715" class="cls-2" transform="translate(218.977 374.963)" d="M0 0h15.987v2.264H0z"/>
            <path id="Line_128" data-name="Line 128" class="cls-2" transform="translate(226.971 377.228)" d="M0 0v13.7"/>
            <g id="Group_498" data-name="Group 498" transform="translate(221.815 354.697)">
                <circle id="Ellipse_1180" data-name="Ellipse 1180" class="cls-2" cx="5.155" cy="5.155" r="5.155"/>
                <g id="Group_497" data-name="Group 497" transform="translate(2.523 2.523)">
                    <path id="Line_129" data-name="Line 129" class="cls-2" transform="translate(2.632)" d="M0 0v5.265"/>
                    <path id="Line_130" data-name="Line 130" class="cls-2" transform="translate(0 2.632)" d="M0 0h5.265"/>
                </g>
            </g>
            <path id="Path_355" data-name="Path 355" class="cls-2" d="m249.963 354.7-16.032-8.281L217.9 354.7l-2.552-4.94 18.584-9.6 18.584 9.6z" transform="translate(-6.961)"/>
            <g id="Group_501" data-name="Group 501" transform="translate(245.505 372.925)">
                <g id="Group_499" data-name="Group 499">
                    <path id="Line_131" data-name="Line 131" class="cls-2" d="M0 0v2.038"/>
                    <path id="Line_132" data-name="Line 132" class="cls-2" transform="translate(6.393)" d="M0 0v2.038"/>
                    <path id="Line_133" data-name="Line 133" class="cls-2" transform="translate(12.787)" d="M0 0v2.038"/>
                </g>
                <g id="Group_500" data-name="Group 500" transform="translate(0 7.756)">
                    <path id="Line_134" data-name="Line 134" class="cls-2" d="M0 0v2.038"/>
                    <path id="Line_135" data-name="Line 135" class="cls-2" transform="translate(6.393)" d="M0 0v2.038"/>
                    <path id="Line_136" data-name="Line 136" class="cls-2" transform="translate(12.787)" d="M0 0v2.038"/>
                </g>
            </g>
            <g id="Group_504" data-name="Group 504" transform="translate(195.65 372.925)">
                <g id="Group_502" data-name="Group 502">
                    <path id="Line_137" data-name="Line 137" class="cls-2" transform="translate(12.787)" d="M0 0v2.038"/>
                    <path id="Line_138" data-name="Line 138" class="cls-2" transform="translate(6.393)" d="M0 0v2.038"/>
                    <path id="Line_139" data-name="Line 139" class="cls-2" d="M0 0v2.038"/>
                </g>
                <g id="Group_503" data-name="Group 503" transform="translate(0 7.756)">
                    <path id="Line_140" data-name="Line 140" class="cls-2" transform="translate(12.787)" d="M0 0v2.038"/>
                    <path id="Line_141" data-name="Line 141" class="cls-2" transform="translate(6.393)" d="M0 0v2.038"/>
                    <path id="Line_142" data-name="Line 142" class="cls-2" d="M0 0v2.038"/>
                </g>
            </g>
        </g>
    </g>
</svg>
