<svg xmlns="http://www.w3.org/2000/svg" width="1537.998" height="1699" viewBox="0 0 1537.998 1699">
    <defs>
        <style>
            .cls-1,.cls-8{fill:#fff}.cls-2{fill:#707070}.cls-3,.cls-4{fill:#191919}.cls-11,.cls-3{font-size:25px}.cls-10,.cls-11,.cls-3{font-family:IBMPlexSansThai-SemiBold,IBM Plex Sans Thai;font-weight:600}.cls-4{font-size:18px;font-family:IBMPlexSansThaiLooped,IBM Plex Sans Thai Looped}.cls-5{fill:#2b2b2b}.cls-10,.cls-11,.cls-6,.cls-7{fill:#daa13d}.cls-7{stroke:transparent;stroke-miterlimit:10}.cls-8{stroke:#daa13d;stroke-width:2px}.cls-9{fill:#e9c68a;stroke:#fff;stroke-width:3px}.cls-10{font-size:30px}.cls-10,.cls-11{letter-spacing:.05em}.cls-12{stroke:none}.cls-13{fill:none}
        </style>
    </defs>
    <g id="Group_1441" data-name="Group 1441" transform="translate(-191 -7894)">
        <g id="Group_1440" data-name="Group 1440">
            <g id="Group_1245" data-name="Group 1245">
                <rect id="Rectangle_830" data-name="Rectangle 830" class="cls-1" width="543.999" height="795" rx="15" transform="rotate(180 367.5 4742)"/>
                <path id="Polygon_50" data-name="Polygon 50" class="cls-1" d="M28.158 20.066a4 4 0 0 1 7.851 0l27.225 139.166A4 4 0 0 1 59.309 164H4.858a4 4 0 0 1-3.926-4.768z" transform="rotate(90 -4172.917 5062.917)"/>
            </g>
            <path id="Rectangle_831" data-name="Rectangle 831" class="cls-2" transform="rotate(180 350 4579.5)" d="M0 0h474v1H0z"/>
            <text id="การจัดการโครงสร้างเครือข่ายบริการสุขภาพระดับจังหวัด" class="cls-3" transform="translate(226 8810.5)"><tspan x="0" y="28">การจัดการโครงสร้างเครือข่ายบริการสุขภาพ</tspan><tspan x="0" y="69">ระดับจังหวัด</tspan></text>
            <text id="_-_หารือความเป็นไปได้เพื่อให้ข้อเสนอการยกระดับเครือข่ายบริการสุขภาพแก่ผู้สูงอายุระดับจังหวัดเกิดขึ้นจริง_-_สามารถนำผลจากการหารือไปประกอบการสังเคราะห์ร่างข้อเสนอเชิงนโยบายได้_-_เปิดพื้นที่ให้ผูเข้าร่วมเห็นโอกาสสร้างการเปลี่ยนแปลง" data-name="- หารือความเป็นไปได้เพื่อให้ข้อเสนอการยกระดับเครือข่ายบริการสุขภาพแก่ผู้สูงอายุระดับจังหวัดเกิดขึ้นจริง - สามารถนำผลจากการหารือไปประกอบการสังเคราะห์ร่างข้อเสนอเชิงนโยบายได้ - เปิดพื้นที่ให้ผูเข้าร่วมเห็นโอกาสสร้างการเปลี่ยนแปลง" class="cls-4" transform="translate(226 8984)"><tspan x="0" y="20">- หารือความเป็นไปได้เพื่อให้ข้อเสนอการยกระดับเครือข่าย</tspan><tspan x="0" y="50">บริการสุขภาพแก่ผู้สูงอายุระดับจังหวัดเกิดขึ้นจริง</tspan><tspan x="0" y="80">- สามารถนำผลจากการหารือไปประกอบการสังเคราะห์ร่าง</tspan><tspan x="0" y="110">ข้อเสนอเชิงนโยบายได้</tspan><tspan x="0" y="140">- เปิดพื้นที่ให้ผูเข้าร่วมเห็นโอกาสสร้างการเปลี่ยนแปลง</tspan></text>
            <text id="_-_ตัวแทนหน่วยงานรัฐที่เกี่ยวข้องกับการผลักดันให้เกิดนโยบายตามแนวทางข้อเสนอได้_-_ผู้มีประสบการณ์และผู้รับผิดชอบการพัฒนานโยบายรองรับสังคมสูงวัย_-_ตัวแทนผู้ให้บริการและผู้บริหารในระบบบริการสุขภาพระดับจังหวัด_" data-name="- ตัวแทนหน่วยงานรัฐที่เกี่ยวข้องกับการผลักดันให้เกิดนโยบายตามแนวทางข้อเสนอได้ - ผู้มีประสบการณ์และผู้รับผิดชอบการพัฒนานโยบายรองรับสังคมสูงวัย - ตัวแทนผู้ให้บริการและผู้บริหารในระบบบริการสุขภาพระดับจังหวัด" class="cls-4" transform="translate(226 9255)"><tspan x="0" y="20">- ตัวแทนหน่วยงานรัฐที่เกี่ยวข้องกับการผลักดันให้เกิด</tspan><tspan x="0" y="50">นโยบายตามแนวทางข้อเสนอได้</tspan><tspan x="0" y="80">- ผู้มีประสบการณ์และผู้รับผิดชอบการพัฒนานโยบายรองรับ</tspan><tspan x="0" y="110">สังคมสูงวัย </tspan><tspan x="0" y="140">- ตัวแทนผู้ให้บริการและผู้บริหารในระบบบริการสุขภาพระดับ</tspan><tspan x="0" y="170">จังหวัด</tspan></text>
            <g id="Group_881" data-name="Group 881" transform="translate(6 1708.001)">
                <rect id="Rectangle_813" data-name="Rectangle 813" class="cls-5" width="178" height="41.999" rx="21" transform="translate(220 7481)"/>
                <path id="Path_732" data-name="Path 732" class="cls-1" d="M4.158.216A2.14 2.14 0 0 0 6.39-1.71h.09A2.157 2.157 0 0 0 8.73.216c1.422 0 2.286-.99 2.286-2.628v-7.416h-1.44v7.236c0 1.134-.468 1.728-1.224 1.728s-1.206-.63-1.206-1.728V-4.77h-1.44v2.178c0 1.1-.45 1.728-1.206 1.728s-1.224-.594-1.224-1.728v-4a1.976 1.976 0 0 0 .468.036A1.729 1.729 0 0 0 5.652-8.3a1.729 1.729 0 0 0-1.908-1.746A1.729 1.729 0 0 0 1.836-8.3v5.886c0 1.622.882 2.63 2.322 2.63zM3.8-7.344a.862.862 0 0 1-.884-.956.862.862 0 0 1 .884-.952.862.862 0 0 1 .88.952.862.862 0 0 1-.88.956zm2.122 12.15H6.1v.648a.929.929 0 0 0 1.044.972h2.07a1.766 1.766 0 0 0 1.8-2.016V2.034h-1.4v2.412c0 .522-.27.774-.882.774h-1.19V3.348A1.426 1.426 0 0 0 5.958 1.89 1.487 1.487 0 0 0 4.3 3.348a1.446 1.446 0 0 0 1.622 1.458zm-.036-.792a.6.6 0 0 1-.648-.666.6.6 0 0 1 .648-.666.588.588 0 0 1 .63.666.588.588 0 0 1-.63.666zm1.458-15.768h3.564c.882 0 1.188-.4 1.512-1.17l.81-1.908h-1.224L11.2-12.6H9.036v-.126c.864-.432 1.08-.882 1.08-1.44a1.354 1.354 0 0 0-1.494-1.386 1.354 1.354 0 0 0-1.494 1.386 1.244 1.244 0 0 0 1.188 1.3v.036l-.972.558zm1.278-1.656a.676.676 0 0 1-.72-.738.676.676 0 0 1 .72-.738.676.676 0 0 1 .72.738.676.676 0 0 1-.72.738zM16.56.216a1.729 1.729 0 0 0 1.908-1.746 1.729 1.729 0 0 0-1.908-1.746 3.8 3.8 0 0 0-.468.036v-6.588h-1.44v8.3A1.729 1.729 0 0 0 16.56.216zm.054-.792a.862.862 0 0 1-.882-.954.862.862 0 0 1 .882-.954.862.862 0 0 1 .882.954.862.862 0 0 1-.882.954zm8.01.792c2.106 0 3.618-1.3 3.618-3.276v-6.768H26.8v6.714a2.079 2.079 0 0 1-2.178 2.25 1.861 1.861 0 0 1-2.07-1.944v-.234a3.224 3.224 0 0 1 1.062-2.214 3.348 3.348 0 0 0 1.062-2.412c0-1.422-.99-2.376-2.79-2.376a2.46 2.46 0 0 0-2.736 2.322 1.556 1.556 0 0 0 1.62 1.71 1.509 1.509 0 0 0 1.62-1.53 1.29 1.29 0 0 0-1.386-1.332 1.4 1.4 0 0 0-.288.036l-.036-.09a2.877 2.877 0 0 1 .954-.144c1.116 0 1.782.468 1.782 1.458a3.125 3.125 0 0 1-1.06 2.124 3.732 3.732 0 0 0-1.242 2.682c0 1.836 1.404 3.024 3.51 3.024zM20.808-6.75a.752.752 0 0 1-.774-.828.752.752 0 0 1 .774-.828.752.752 0 0 1 .774.828.752.752 0 0 1-.774.828zm3.762-5h3.564c.882 0 1.188-.4 1.512-1.17l.81-1.908h-1.224l-.81 2.232h-2.16v-.126c.864-.432 1.08-.882 1.08-1.44a1.354 1.354 0 0 0-1.494-1.386 1.354 1.354 0 0 0-1.494 1.386 1.244 1.244 0 0 0 1.188 1.3v.036l-.972.558zm1.278-1.656a.676.676 0 0 1-.72-.738.676.676 0 0 1 .72-.738.676.676 0 0 1 .72.738.676.676 0 0 1-.72.734zM37.314 0v-6.876c0-2-1.224-3.168-3.456-3.168a3.709 3.709 0 0 0-3.546 1.836l.882.774a2.662 2.662 0 0 1 2.484-1.53 1.966 1.966 0 0 1 2.2 2.214V0zm8.01.216a1.753 1.753 0 0 0 1.944-1.764V-4c0-1.728-.828-2.268-2.448-2.376l-3.492-.234v-.216c0-1.494 1.206-2.142 2.952-2.142a3.447 3.447 0 0 1 2.988 1.35l.81-.882a4.586 4.586 0 0 0-3.852-1.548c-2.628 0-4.3 1.26-4.3 3.564v.846l4.608.342c.99.072 1.3.378 1.3 1.26v.774a2.277 2.277 0 0 0-.5-.054 1.753 1.753 0 0 0-1.954 1.768A1.753 1.753 0 0 0 45.324.216zm-.054-2.772a.922.922 0 0 1 .954 1.008.922.922 0 0 1-.954 1.008.922.922 0 0 1-.954-1.008.922.922 0 0 1 .954-1.008zm.594-12.492.2 3.294h.99l.2-3.294zM54.558.216a1.729 1.729 0 0 0 1.908-1.746v-5.31c0-2-1.242-3.2-3.474-3.2a3.74 3.74 0 0 0-3.564 1.836l.882.774a2.689 2.689 0 0 1 2.5-1.53 1.992 1.992 0 0 1 2.214 2.232v3.488a4.1 4.1 0 0 0-.468-.036A1.729 1.729 0 0 0 52.65-1.53 1.729 1.729 0 0 0 54.558.216zM54.5-.576a.862.862 0 0 1-.882-.954.862.862 0 0 1 .882-.954.862.862 0 0 1 .882.954.862.862 0 0 1-.882.954zm6.52.792a1.746 1.746 0 0 0 1.908-1.782.876.876 0 0 0-.018-.216L66.87 0h1.35v-9.828h-1.44v8.676h-.072L62.91-2.88V-8.3A1.729 1.729 0 0 0 61-10.044 1.729 1.729 0 0 0 59.094-8.3 1.729 1.729 0 0 0 61-6.552a2.053 2.053 0 0 0 .468-.036v2.61a2.489 2.489 0 0 0 .072.684 2.444 2.444 0 0 0-.522-.054 1.746 1.746 0 0 0-1.908 1.782A1.746 1.746 0 0 0 61.02.216zm0-.792a.83.83 0 0 1-.936-.846v-.288a.83.83 0 0 1 .936-.846.83.83 0 0 1 .936.846v.288a.83.83 0 0 1-.936.846zm-.072-6.768a.862.862 0 0 1-.882-.954.862.862 0 0 1 .882-.954.862.862 0 0 1 .882.954.862.862 0 0 1-.882.954zM84.186 0v-1.332h-3.24v-11.232h-2.358l-3.33 3.114.882.954 3.168-2.952h.126v10.116h-3.51V0zm10.8 0v-1.332h-3.24v-11.232h-2.358l-3.33 3.114.882.954 3.168-2.952h.126v10.116h-3.51V0zm7 0h1.44v-2.214a2.715 2.715 0 0 1 1.26-2.2l.036.018v.162a1.645 1.645 0 0 0 1.764 1.764 1.688 1.688 0 0 0 1.854-1.764 1.688 1.688 0 0 0-1.854-1.764 3.162 3.162 0 0 0-2.97 2.142h-.09v-2.16a2.764 2.764 0 0 1 3.06-2.952 2.764 2.764 0 0 1 3.06 2.952V0h1.44v-6.21c0-2.34-1.71-3.834-4.5-3.834s-4.5 1.494-4.5 3.834zm4.5-3.258a.868.868 0 0 1-.882-.972.868.868 0 0 1 .882-.972.868.868 0 0 1 .882.972.868.868 0 0 1-.88.972zM122.364.216a1.746 1.746 0 0 0 1.908-1.782 1.708 1.708 0 0 0-1.584-1.764 1.845 1.845 0 0 0 .162-.9v-5.6h-1.44v6.714l-4.176 1.962h-.072V-8.3a1.729 1.729 0 0 0-1.908-1.746 1.729 1.729 0 0 0-1.908 1.746 1.729 1.729 0 0 0 1.908 1.746 2.053 2.053 0 0 0 .468-.036V0h1.368l3.366-1.584v.018a1.746 1.746 0 0 0 1.908 1.782zm0-.792a.83.83 0 0 1-.936-.846v-.288a.83.83 0 0 1 .936-.846.83.83 0 0 1 .936.846v.288a.83.83 0 0 1-.936.846zM115.2-7.344a.862.862 0 0 1-.882-.954.862.862 0 0 1 .882-.954.862.862 0 0 1 .882.954.862.862 0 0 1-.882.954z" transform="translate(247 7508)"/>
            </g>
            <g id="Group_879" data-name="Group 879" transform="translate(104 8687)">
                <path id="Path_623" data-name="Path 623" class="cls-6" d="M1.771 0v-16.054h7.59a5.149 5.149 0 0 1 2.024.38 4.489 4.489 0 0 1 1.53 1.047 4.588 4.588 0 0 1 .977 1.621 6.081 6.081 0 0 1 .345 2.082 6.054 6.054 0 0 1-.345 2.093 4.606 4.606 0 0 1-.977 1.61 4.489 4.489 0 0 1-1.53 1.047 5.149 5.149 0 0 1-2.024.374H5.267V0zm3.5-8.832h3.68a1.776 1.776 0 0 0 1.231-.4 1.51 1.51 0 0 0 .449-1.185v-1.012a1.51 1.51 0 0 0-.449-1.185 1.776 1.776 0 0 0-1.231-.4H5.267zM21.114.276a6.13 6.13 0 0 1-2.381-.437 4.75 4.75 0 0 1-1.771-1.265 5.766 5.766 0 0 1-1.115-2 8.261 8.261 0 0 1-.391-2.622 8.261 8.261 0 0 1 .391-2.622 5.643 5.643 0 0 1 1.115-1.989 4.809 4.809 0 0 1 1.771-1.254 6.13 6.13 0 0 1 2.381-.437 6.13 6.13 0 0 1 2.38.437 4.809 4.809 0 0 1 1.771 1.254 5.644 5.644 0 0 1 1.116 1.989 8.261 8.261 0 0 1 .391 2.622 8.261 8.261 0 0 1-.391 2.622 5.766 5.766 0 0 1-1.116 2 4.75 4.75 0 0 1-1.771 1.265 6.13 6.13 0 0 1-2.38.437zm0-2.691a1.983 1.983 0 0 0 1.564-.621 2.58 2.58 0 0 0 .552-1.771v-2.461a2.58 2.58 0 0 0-.552-1.771 1.983 1.983 0 0 0-1.564-.621 1.983 1.983 0 0 0-1.564.621A2.58 2.58 0 0 0 19-7.268v2.461a2.58 2.58 0 0 0 .552 1.771 1.983 1.983 0 0 0 1.562.621zM32.568 0A3.413 3.413 0 0 1 30-.851a3.418 3.418 0 0 1-.816-2.461V-17.02h3.4v14.375h1.518V0zm5.29-13.363a2.063 2.063 0 0 1-1.507-.472 1.635 1.635 0 0 1-.472-1.208v-.506a1.635 1.635 0 0 1 .472-1.208 2.063 2.063 0 0 1 1.507-.472 2.063 2.063 0 0 1 1.507.472 1.635 1.635 0 0 1 .471 1.208v.506a1.635 1.635 0 0 1-.471 1.208 2.063 2.063 0 0 1-1.507.472zm-1.7 1.288h3.4V0h-3.4zM47.61.276a6.138 6.138 0 0 1-2.415-.448 4.8 4.8 0 0 1-1.771-1.265 5.469 5.469 0 0 1-1.081-1.99 8.737 8.737 0 0 1-.368-2.622 8.624 8.624 0 0 1 .368-2.61 5.6 5.6 0 0 1 1.081-1.99 4.63 4.63 0 0 1 1.771-1.265 6.28 6.28 0 0 1 2.415-.437 5.38 5.38 0 0 1 3.07.828A4.533 4.533 0 0 1 52.44-9.2L49.68-8a2.314 2.314 0 0 0-.667-1.173 1.949 1.949 0 0 0-1.4-.483 1.862 1.862 0 0 0-1.564.678 2.9 2.9 0 0 0-.529 1.829V-4.9a2.847 2.847 0 0 0 .529 1.817 1.876 1.876 0 0 0 1.564.667 2.08 2.08 0 0 0 1.46-.494 2.894 2.894 0 0 0 .793-1.3l2.645 1.15A4.7 4.7 0 0 1 50.66-.53a5.523 5.523 0 0 1-3.05.806zm14.4-12.351h3.174L60.536 1.863a4.25 4.25 0 0 1-1.3 2.07 3.786 3.786 0 0 1-2.4.667h-2.119V1.955h2.277l.414-1.334-4.232-12.7h3.381l1.771 5.639.874 3.5h.138l.9-3.5zM1.771 10.946H7.82a7.987 7.987 0 0 1 2.9.506 5.842 5.842 0 0 1 2.231 1.507 6.883 6.883 0 0 1 1.426 2.507 11.023 11.023 0 0 1 .506 3.507 11.023 11.023 0 0 1-.506 3.507 6.883 6.883 0 0 1-1.426 2.507 5.842 5.842 0 0 1-2.231 1.507 7.987 7.987 0 0 1-2.9.506H1.771zM7.82 23.9a3.376 3.376 0 0 0 2.461-.874 3.782 3.782 0 0 0 .9-2.806v-2.489a3.782 3.782 0 0 0-.9-2.806 3.376 3.376 0 0 0-2.461-.874H5.267V23.9zm11.5-10.258a2.063 2.063 0 0 1-1.507-.472 1.635 1.635 0 0 1-.471-1.208v-.506a1.635 1.635 0 0 1 .471-1.208 2.063 2.063 0 0 1 1.507-.472 2.063 2.063 0 0 1 1.507.472 1.635 1.635 0 0 1 .472 1.208v.506a1.635 1.635 0 0 1-.472 1.208 2.063 2.063 0 0 1-1.507.467zm-1.7 1.288h3.4V27h-3.4zM33.12 27a2.141 2.141 0 0 1-1.529-.575 2.644 2.644 0 0 1-.771-1.541h-.138a2.792 2.792 0 0 1-1.219 1.782 4.193 4.193 0 0 1-2.323.609 3.767 3.767 0 0 1-2.783-.966 3.451 3.451 0 0 1-.966-2.553 3.184 3.184 0 0 1 1.392-2.84 6.722 6.722 0 0 1 3.784-.931h1.909v-.759a2.018 2.018 0 0 0-.46-1.392 1.976 1.976 0 0 0-1.541-.517 2.673 2.673 0 0 0-1.61.437 4.322 4.322 0 0 0-.989.989l-2.024-1.794a5.278 5.278 0 0 1 1.851-1.69 6.335 6.335 0 0 1 3.024-.609 5.727 5.727 0 0 1 3.864 1.127 4.136 4.136 0 0 1 1.288 3.289v5.29h1.127V27zm-4.72-2.093a2.773 2.773 0 0 0 1.461-.368 1.29 1.29 0 0 0 .609-1.2v-1.422h-1.651q-2 0-2 1.357v.345a1.142 1.142 0 0 0 .414.978 1.924 1.924 0 0 0 1.167.31zM40.664 27a3.413 3.413 0 0 1-2.564-.851 3.418 3.418 0 0 1-.816-2.461V9.98h3.4v14.375H42.2V27zm8.487.276a6.13 6.13 0 0 1-2.381-.437A4.75 4.75 0 0 1 45 25.574a5.766 5.766 0 0 1-1.115-2 8.261 8.261 0 0 1-.391-2.622 8.261 8.261 0 0 1 .391-2.622A5.643 5.643 0 0 1 45 16.34a4.809 4.809 0 0 1 1.771-1.254 6.7 6.7 0 0 1 4.761 0A4.809 4.809 0 0 1 53.3 16.34a5.643 5.643 0 0 1 1.115 1.989 8.261 8.261 0 0 1 .391 2.622 8.261 8.261 0 0 1-.391 2.622 5.766 5.766 0 0 1-1.115 2 4.75 4.75 0 0 1-1.771 1.265 6.13 6.13 0 0 1-2.378.438zm0-2.691a1.983 1.983 0 0 0 1.564-.621 2.58 2.58 0 0 0 .552-1.771v-2.461a2.58 2.58 0 0 0-.552-1.771 2.28 2.28 0 0 0-3.128 0 2.58 2.58 0 0 0-.552 1.771v2.461a2.58 2.58 0 0 0 .552 1.771 1.983 1.983 0 0 0 1.564.621zM68.4 27.874a4.086 4.086 0 0 1-.334 1.7 3.032 3.032 0 0 1-1.092 1.253 5.629 5.629 0 0 1-2.012.782 18.187 18.187 0 0 1-5.75.069 6.194 6.194 0 0 1-1.771-.552 2.427 2.427 0 0 1-.989-.874 2.257 2.257 0 0 1-.311-1.184 2.1 2.1 0 0 1 .6-1.587 2.847 2.847 0 0 1 1.659-.711v-.253a2.011 2.011 0 0 1-1.311-.747 2.228 2.228 0 0 1-.437-1.368 1.72 1.72 0 0 1 .2-.84 2.2 2.2 0 0 1 .506-.621 2.508 2.508 0 0 1 .724-.426 5.687 5.687 0 0 1 .828-.253v-.092a3.554 3.554 0 0 1-1.633-1.392 3.937 3.937 0 0 1-.529-2.059 3.732 3.732 0 0 1 1.277-2.955 5.8 5.8 0 0 1 3.9-1.115 7.93 7.93 0 0 1 2.047.23v-.46a1.794 1.794 0 0 1 .472-1.392 1.941 1.941 0 0 1 1.336-.427h1.909v2.53h-2.668v.138a3.445 3.445 0 0 1 1.564 1.391 4.077 4.077 0 0 1 .506 2.059 3.638 3.638 0 0 1-1.277 2.91 5.886 5.886 0 0 1-3.9 1.093 8.438 8.438 0 0 1-2.139-.253 1.091 1.091 0 0 0-.529.966.789.789 0 0 0 .333.679 1.955 1.955 0 0 0 1.116.241h3.5a4.65 4.65 0 0 1 3.209.92 3.354 3.354 0 0 1 .996 2.6zm-3.2.46a.907.907 0 0 0-.414-.805 2.76 2.76 0 0 0-1.449-.276H59.2a1.4 1.4 0 0 0-.333.517 1.657 1.657 0 0 0-.1.563 1.035 1.035 0 0 0 .575.978 4.423 4.423 0 0 0 1.955.31h1.38a4.423 4.423 0 0 0 1.955-.31 1.035 1.035 0 0 0 .573-.977zm-3.289-7.843a2.265 2.265 0 0 0 1.507-.426 1.534 1.534 0 0 0 .494-1.231v-.276a1.534 1.534 0 0 0-.494-1.231 2.88 2.88 0 0 0-3.013 0 1.534 1.534 0 0 0-.494 1.231v.276a1.534 1.534 0 0 0 .494 1.231 2.265 2.265 0 0 0 1.511.426zm15.042 4.485h-.115a4.188 4.188 0 0 1-.425.874 2.929 2.929 0 0 1-.678.736 3.188 3.188 0 0 1-.978.506 4.187 4.187 0 0 1-1.3.184 3.347 3.347 0 0 1-2.817-1.23 5.66 5.66 0 0 1-.955-3.531v-7.59h3.4v7.291a3.106 3.106 0 0 0 .391 1.7 1.472 1.472 0 0 0 1.334.6 2.759 2.759 0 0 0 .79-.116 2.22 2.22 0 0 0 .69-.333 1.717 1.717 0 0 0 .483-.541 1.5 1.5 0 0 0 .184-.759v-7.842h3.4V27h-3.4zm11.615 2.3a6.373 6.373 0 0 1-2.461-.448 5.081 5.081 0 0 1-1.828-1.265 5.329 5.329 0 0 1-1.127-1.99 8.492 8.492 0 0 1-.379-2.622 8.541 8.541 0 0 1 .368-2.587 5.5 5.5 0 0 1 1.092-1.99A4.843 4.843 0 0 1 86.02 15.1a6.138 6.138 0 0 1 2.415-.449 5.953 5.953 0 0 1 2.565.504 4.841 4.841 0 0 1 1.748 1.357 5.467 5.467 0 0 1 .989 1.966 8.666 8.666 0 0 1 .311 2.334v1.012H86.3v.184a2.7 2.7 0 0 0 .644 1.9 2.624 2.624 0 0 0 2.024.7 3.16 3.16 0 0 0 1.725-.426 6.781 6.781 0 0 0 1.242-1.023l1.7 2.116a5.369 5.369 0 0 1-2.1 1.472 7.783 7.783 0 0 1-2.962.529zm-.068-10.12a2.03 2.03 0 0 0-1.621.678 2.665 2.665 0 0 0-.579 1.806v.184h4.232v-.207a2.957 2.957 0 0 0-.494-1.783 1.766 1.766 0 0 0-1.538-.678z" transform="translate(204 68)"/>
                <g id="Group_533" data-name="Group 533" transform="translate(122 46.605)">
                    <path id="Subtraction_1" data-name="Subtraction 1" class="cls-7" d="M11301.776 3006.375a.812.812 0 0 1-.325-.071.737.737 0 0 1-.428-.871l4.541-19.229 4.388-18.572a18.8 18.8 0 0 1 18.378-14.767h9.409a18.762 18.762 0 0 1 13.3 5.509 18.926 18.926 0 0 1 2.994 3.9h8.193l2.146-3.072 8.712-12.478a.731.731 0 0 1 .611-.33.809.809 0 0 1 .325.07.748.748 0 0 1 .429.871l-4.542 19.229-4.388 18.575a18.8 18.8 0 0 1-18.378 14.764h-9.409a18.745 18.745 0 0 1-13.3-5.51 18.946 18.946 0 0 1-2.994-3.9h-8.2l-2.145 3.069-8.712 12.478a.73.73 0 0 1-.605.335zm35.96-44.1a18.8 18.8 0 0 0-16.291 28.224h16.291a18.809 18.809 0 0 0 16.295-28.224h-16.295z" transform="translate(-11300.999 -2946.396)"/>
                </g>
            </g>
            <g id="Group_882" data-name="Group 882" transform="translate(6 1354)">
                <g id="Ellipse_1346" data-name="Ellipse 1346" class="cls-8" transform="translate(628 7373)">
                    <circle class="cls-12" cx="33" cy="33" r="33"/>
                    <circle class="cls-13" cx="33" cy="33" r="32"/>
                </g>
                <path id="Path_648" data-name="Path 648" class="cls-6" d="M-1.33-14.56a4.676 4.676 0 0 0 3.1-.857 2.757 2.757 0 0 0 1-2.188v-.245a3 3 0 0 0-.97-2.362 3.831 3.831 0 0 0-2.64-.858 5.3 5.3 0 0 0-2.852.77 6.949 6.949 0 0 0-2.152 2.17l-2.94-2.66A14.857 14.857 0 0 1-7.4-22.383a7.722 7.722 0 0 1 1.733-1.3 9.332 9.332 0 0 1 2.205-.857A11.123 11.123 0 0 1-.7-24.85a12.209 12.209 0 0 1 3.378.437A7.868 7.868 0 0 1 5.3-23.135 5.828 5.828 0 0 1 7-21.122a5.756 5.756 0 0 1 .6 2.642 5.853 5.853 0 0 1-.368 2.135 5.136 5.136 0 0 1-1.02 1.645 5.337 5.337 0 0 1-1.5 1.137 7.557 7.557 0 0 1-1.8.648v.21a8.357 8.357 0 0 1 1.988.665 5.243 5.243 0 0 1 1.628 1.207 5.766 5.766 0 0 1 1.084 1.768 6.227 6.227 0 0 1 .4 2.31 6.626 6.626 0 0 1-.647 2.94A6.523 6.523 0 0 1 5.53-1.54 8.566 8.566 0 0 1 2.695-.087 12.438 12.438 0 0 1-.98.42 12.165 12.165 0 0 1-4.13.053a9.142 9.142 0 0 1-2.4-1A8.553 8.553 0 0 1-8.33-2.4a10.874 10.874 0 0 1-1.33-1.73l3.395-2.59a10.456 10.456 0 0 0 .91 1.347 5.71 5.71 0 0 0 1.12 1.068 4.833 4.833 0 0 0 1.435.7 6.246 6.246 0 0 0 1.82.245 4.493 4.493 0 0 0 3.115-.98 3.448 3.448 0 0 0 1.085-2.7v-.24a2.99 2.99 0 0 0-1.172-2.555 5.576 5.576 0 0 0-3.378-.875h-2.415v-3.85z" transform="translate(661 7417)"/>
            </g>
            <g id="Group_883" data-name="Group 883" transform="translate(6 1437)">
                <rect id="Rectangle_813-2" data-name="Rectangle 813" class="cls-6" width="99" height="42" rx="21" transform="translate(220 7481)"/>
                <path id="Path_731" data-name="Path 731" class="cls-1" d="M6.372.216c3.24 0 5.328-2.286 5.328-6.5s-2.088-6.5-5.328-6.5-5.328 2.286-5.328 6.5 2.088 6.5 5.328 6.5zm0-1.35c-2.178 0-3.708-1.62-3.708-4.1v-2.092c0-2.484 1.53-4.1 3.708-4.1s3.708 1.62 3.708 4.1v2.088c0 2.484-1.53 4.104-3.708 4.104zM15.714 0v-6.444c0-1.188 1.116-1.764 2.268-1.764 1.386 0 2.106.846 2.106 2.5V0h1.44v-5.958c0-2.25-1.206-3.546-3.114-3.546a2.633 2.633 0 0 0-2.628 1.728h-.072v-1.512h-1.44V0zm11.592 0v-1.26h-1.368v-12.06H24.5v11.826A1.408 1.408 0 0 0 26.028 0zm2.808-11.466c.612 0 .882-.324.882-.81v-.234c0-.486-.27-.81-.882-.81s-.882.324-.882.81v.234c0 .486.268.81.882.81zM29.394 0h1.44v-9.288h-1.44zm5.94 0v-6.444c0-1.188 1.116-1.764 2.268-1.764 1.386 0 2.106.846 2.106 2.5V0h1.44v-5.958c0-2.25-1.206-3.546-3.114-3.546a2.633 2.633 0 0 0-2.628 1.728h-.072v-1.512h-1.44V0zM47.61.216a3.9 3.9 0 0 0 3.672-2.124l-1.026-.738a2.692 2.692 0 0 1-2.556 1.6 2.631 2.631 0 0 1-2.754-2.808v-.432h6.678v-.684c0-2.628-1.53-4.536-4.014-4.536-2.52 0-4.176 1.908-4.176 4.86S45.09.216 47.61.216zm0-8.514a2.47 2.47 0 0 1 2.466 2.736v.2h-5.13v-.128A2.64 2.64 0 0 1 47.61-8.3z" transform="translate(244 7508)"/>
            </g>
        </g>
        <g id="Group_1295" data-name="Group 1295">
            <path id="Rectangle_814" data-name="Rectangle 814" class="cls-1" transform="rotate(-90 5275.5 4317.5)" d="M0 0h1699v5H0z"/>
            <g id="Group_1286" data-name="Group 1286">
                <g id="Ellipse_1337" data-name="Ellipse 1337" class="cls-9" transform="translate(893 7975)">
                    <circle class="cls-12" cx="67.5" cy="67.5" r="67.5"/>
                    <circle class="cls-13" cx="67.5" cy="67.5" r="66"/>
                </g>
                <path id="Path_624" data-name="Path 624" class="cls-1" d="M-16.35 0h-12.1v-3.05l5.475-4.8a11.6 11.6 0 0 0 2.05-2.212 3.813 3.813 0 0 0 .65-2.137v-.325a2.145 2.145 0 0 0-.75-1.763 2.792 2.792 0 0 0-1.825-.613 2.645 2.645 0 0 0-2.05.762 4.431 4.431 0 0 0-1 1.838l-2.85-1.1a7.013 7.013 0 0 1 .775-1.663 5.532 5.532 0 0 1 1.263-1.387 6 6 0 0 1 1.788-.95 7.26 7.26 0 0 1 2.35-.35 7.2 7.2 0 0 1 2.45.387 5.109 5.109 0 0 1 1.813 1.087 4.691 4.691 0 0 1 1.125 1.65 5.442 5.442 0 0 1 .386 2.076 5.477 5.477 0 0 1-.35 2 7.377 7.377 0 0 1-.95 1.712 11 11 0 0 1-1.4 1.55q-.8.738-1.7 1.488l-3.675 3.025h8.525zm8.85.3a6.414 6.414 0 0 1-2.9-.613 5.35 5.35 0 0 1-2.025-1.762A8.1 8.1 0 0 1-13.613-4.9 17.052 17.052 0 0 1-14-8.725a17.094 17.094 0 0 1 .387-3.813 8.1 8.1 0 0 1 1.188-2.837 5.35 5.35 0 0 1 2.025-1.763 6.414 6.414 0 0 1 2.9-.612 5.494 5.494 0 0 1 4.912 2.375A11.888 11.888 0 0 1-1-8.725a11.888 11.888 0 0 1-1.588 6.65A5.494 5.494 0 0 1-7.5.3zm0-2.775a2.41 2.41 0 0 0 2.337-1.262A7.393 7.393 0 0 0-4.5-7.15v-3.15a7.393 7.393 0 0 0-.663-3.412A2.41 2.41 0 0 0-7.5-14.975a2.41 2.41 0 0 0-2.338 1.262A7.393 7.393 0 0 0-10.5-10.3v3.15a7.393 7.393 0 0 0 .663 3.413A2.41 2.41 0 0 0-7.5-2.475zM13.65 0H1.55v-3.05l5.475-4.8a11.6 11.6 0 0 0 2.05-2.212 3.813 3.813 0 0 0 .65-2.137v-.325a2.145 2.145 0 0 0-.75-1.763A2.792 2.792 0 0 0 7.15-14.9a2.645 2.645 0 0 0-2.05.762 4.431 4.431 0 0 0-1 1.838l-2.85-1.1a7.013 7.013 0 0 1 .775-1.663 5.532 5.532 0 0 1 1.263-1.387 6 6 0 0 1 1.787-.95 7.26 7.26 0 0 1 2.35-.35 7.2 7.2 0 0 1 2.45.387 5.109 5.109 0 0 1 1.813 1.087 4.691 4.691 0 0 1 1.125 1.65 5.442 5.442 0 0 1 .387 2.076 5.477 5.477 0 0 1-.35 2 7.377 7.377 0 0 1-.95 1.712 11 11 0 0 1-1.4 1.55Q9.7-6.55 8.8-5.8L5.125-2.775h8.525zm8.85.3a6.414 6.414 0 0 1-2.9-.613 5.35 5.35 0 0 1-2.025-1.762A8.1 8.1 0 0 1 16.388-4.9 17.052 17.052 0 0 1 16-8.725a17.094 17.094 0 0 1 .388-3.813 8.1 8.1 0 0 1 1.188-2.837 5.35 5.35 0 0 1 2.024-1.763 6.414 6.414 0 0 1 2.9-.612 5.494 5.494 0 0 1 4.912 2.375A11.888 11.888 0 0 1 29-8.725a11.888 11.888 0 0 1-1.588 6.65A5.494 5.494 0 0 1 22.5.3zm0-2.775a2.41 2.41 0 0 0 2.337-1.263A7.393 7.393 0 0 0 25.5-7.15v-3.15a7.393 7.393 0 0 0-.663-3.412 2.41 2.41 0 0 0-2.337-1.263 2.41 2.41 0 0 0-2.337 1.262A7.393 7.393 0 0 0 19.5-10.3v3.15a7.393 7.393 0 0 0 .663 3.413A2.41 2.41 0 0 0 22.5-2.475z" transform="translate(960 8050)"/>
            </g>
            <g id="Group_1288" data-name="Group 1288">
                <circle id="Ellipse_1335" data-name="Ellipse 1335" class="cls-1" cx="50" cy="50" r="50" transform="translate(910 8288)"/>
                <g id="Group_865" data-name="Group 865" transform="translate(5 1878)">
                    <text id="Nov" class="cls-10" transform="translate(955 6458)"><tspan x="-28.47" y="0">Nov</tspan></text>
                    <text id="_12" data-name="12" class="cls-11" transform="translate(955 6491)"><tspan x="-15.625" y="0">12</tspan></text>
                </g>
            </g>
            <g id="Group_934" data-name="Group 934" transform="translate(0 -195)">
                <g id="Group_1294" data-name="Group 1294">
                    <circle id="Ellipse_1345" data-name="Ellipse 1345" class="cls-1" cx="50" cy="50" r="50" transform="translate(910 9410)"/>
                    <g id="Group_867" data-name="Group 867" transform="translate(5 3000)">
                        <text id="Apr" class="cls-10" transform="translate(955 6458)"><tspan x="-26.475" y="0">Apr</tspan></text>
                        <text id="_9" data-name="9" class="cls-11" transform="translate(955 6491)"><tspan x="-7.5" y="0">9</tspan></text>
                    </g>
                </g>
            </g>
            <g id="Group_1290" data-name="Group 1290">
                <g id="Ellipse_1338" data-name="Ellipse 1338" class="cls-9" transform="translate(893 8595)">
                    <circle class="cls-12" cx="67.5" cy="67.5" r="67.5"/>
                    <circle class="cls-13" cx="67.5" cy="67.5" r="66"/>
                </g>
                <path id="Path_627" data-name="Path 627" class="cls-1" d="M-16.35 0h-12.1v-3.05l5.475-4.8a11.6 11.6 0 0 0 2.05-2.212 3.813 3.813 0 0 0 .65-2.137v-.325a2.145 2.145 0 0 0-.75-1.763 2.792 2.792 0 0 0-1.825-.613 2.645 2.645 0 0 0-2.05.762 4.431 4.431 0 0 0-1 1.838l-2.85-1.1a7.013 7.013 0 0 1 .775-1.663 5.532 5.532 0 0 1 1.263-1.387 6 6 0 0 1 1.788-.95 7.26 7.26 0 0 1 2.35-.35 7.2 7.2 0 0 1 2.45.387 5.109 5.109 0 0 1 1.813 1.087 4.691 4.691 0 0 1 1.125 1.65 5.442 5.442 0 0 1 .386 2.076 5.477 5.477 0 0 1-.35 2 7.377 7.377 0 0 1-.95 1.712 11 11 0 0 1-1.4 1.55q-.8.738-1.7 1.488l-3.675 3.025h8.525zm8.85.3a6.414 6.414 0 0 1-2.9-.613 5.35 5.35 0 0 1-2.025-1.762A8.1 8.1 0 0 1-13.613-4.9 17.052 17.052 0 0 1-14-8.725a17.094 17.094 0 0 1 .387-3.813 8.1 8.1 0 0 1 1.188-2.837 5.35 5.35 0 0 1 2.025-1.763 6.414 6.414 0 0 1 2.9-.612 5.494 5.494 0 0 1 4.912 2.375A11.888 11.888 0 0 1-1-8.725a11.888 11.888 0 0 1-1.588 6.65A5.494 5.494 0 0 1-7.5.3zm0-2.775a2.41 2.41 0 0 0 2.337-1.262A7.393 7.393 0 0 0-4.5-7.15v-3.15a7.393 7.393 0 0 0-.663-3.412A2.41 2.41 0 0 0-7.5-14.975a2.41 2.41 0 0 0-2.338 1.262A7.393 7.393 0 0 0-10.5-10.3v3.15a7.393 7.393 0 0 0 .663 3.413A2.41 2.41 0 0 0-7.5-2.475zM13.65 0H1.55v-3.05l5.475-4.8a11.6 11.6 0 0 0 2.05-2.212 3.813 3.813 0 0 0 .65-2.137v-.325a2.145 2.145 0 0 0-.75-1.763A2.792 2.792 0 0 0 7.15-14.9a2.645 2.645 0 0 0-2.05.762 4.431 4.431 0 0 0-1 1.838l-2.85-1.1a7.013 7.013 0 0 1 .775-1.663 5.532 5.532 0 0 1 1.263-1.387 6 6 0 0 1 1.787-.95 7.26 7.26 0 0 1 2.35-.35 7.2 7.2 0 0 1 2.45.387 5.109 5.109 0 0 1 1.813 1.087 4.691 4.691 0 0 1 1.125 1.65 5.442 5.442 0 0 1 .387 2.076 5.477 5.477 0 0 1-.35 2 7.377 7.377 0 0 1-.95 1.712 11 11 0 0 1-1.4 1.55Q9.7-6.55 8.8-5.8L5.125-2.775h8.525zm3.625 0v-2.675h4.8v-12.4h-.225l-3.8 4.5L16-12.3l4.325-5.15H25.3v14.775h4V0z" transform="translate(960 8670)"/>
            </g>
            <g id="Group_1291" data-name="Group 1291">
                <circle id="Ellipse_1336" data-name="Ellipse 1336" class="cls-1" cx="50" cy="50" r="50" transform="translate(910 8780)"/>
                <g id="Group_866" data-name="Group 866" transform="translate(5 2370)">
                    <text id="Feb" class="cls-10" transform="translate(955 6458)"><tspan x="-27.075" y="0">Feb</tspan></text>
                    <text id="_19" data-name="19" class="cls-11" transform="translate(955 6491)"><tspan x="-15.625" y="0">19</tspan></text>
                </g>
            </g>
            <g id="Group_1289" data-name="Group 1289">
                <g id="Group_932" data-name="Group 932" transform="translate(0 152)">
                    <rect id="Rectangle_826" data-name="Rectangle 826" class="cls-5" width="240" height="108" rx="33" transform="translate(840 8286)"/>
                    <path id="Path_626" data-name="Path 626" class="cls-1" d="M-84.2 0v-2.12h1.84v-9.72h-1.84v-2.12h6.34v2.12h-1.86v9.72h1.86V0zm8.88 0v-10.44h2.56v1.74h.1a3.341 3.341 0 0 1 1.01-1.41 2.914 2.914 0 0 1 1.91-.57 3.008 3.008 0 0 1 2.48 1.06 4.683 4.683 0 0 1 .86 3.02V0h-2.56v-6.34a2.892 2.892 0 0 0-.4-1.68 1.51 1.51 0 0 0-1.32-.56 2.688 2.688 0 0 0-.77.11 2.169 2.169 0 0 0-.66.32 1.671 1.671 0 0 0-.47.52 1.428 1.428 0 0 0-.18.73V0zm15.02 0a2.723 2.723 0 0 1-2.01-.69A2.665 2.665 0 0 1-63-2.66V-8.4h-1.54v-2.04h.8a.955.955 0 0 0 .79-.27 1.307 1.307 0 0 0 .21-.81v-1.78h2.3v2.86h2.14v2.04h-2.14v6.36h1.98V0zm8.36.24a5.21 5.21 0 0 1-2.07-.39 4.285 4.285 0 0 1-1.54-1.1 4.92 4.92 0 0 1-.97-1.72 7.091 7.091 0 0 1-.34-2.27 7.124 7.124 0 0 1 .33-2.24 4.9 4.9 0 0 1 .95-1.71 4.21 4.21 0 0 1 1.52-1.1 5.084 5.084 0 0 1 2.04-.39 4.971 4.971 0 0 1 2.12.42 4.083 4.083 0 0 1 1.48 1.14 4.922 4.922 0 0 1 .87 1.67 6.918 6.918 0 0 1 .29 2.03v.84h-6.94v.26a2.584 2.584 0 0 0 .64 1.83 2.467 2.467 0 0 0 1.9.69 2.813 2.813 0 0 0 1.57-.4A4.5 4.5 0 0 0-49-3.22l1.38 1.54a4.291 4.291 0 0 1-1.75 1.41 6.1 6.1 0 0 1-2.57.51zm-.04-9a2.051 2.051 0 0 0-1.62.68 2.562 2.562 0 0 0-.6 1.76v.16h4.28v-.18a2.738 2.738 0 0 0-.53-1.75 1.835 1.835 0 0 0-1.53-.67zM-45 0v-10.44h2.56v2.16h.1a3.329 3.329 0 0 1 .31-.81 2.487 2.487 0 0 1 .55-.69 2.634 2.634 0 0 1 .81-.48 3.037 3.037 0 0 1 1.09-.18h.56v2.42h-.8a4.014 4.014 0 0 0-1.96.38 1.32 1.32 0 0 0-.66 1.24V0zm7.86 0v-10.44h2.56v1.74h.1a3.341 3.341 0 0 1 1.01-1.41 2.914 2.914 0 0 1 1.91-.57 3.008 3.008 0 0 1 2.48 1.06 4.683 4.683 0 0 1 .86 3.02V0h-2.56v-6.34a2.892 2.892 0 0 0-.4-1.68 1.51 1.51 0 0 0-1.32-.56 2.688 2.688 0 0 0-.77.11 2.169 2.169 0 0 0-.66.32 1.671 1.671 0 0 0-.47.52 1.428 1.428 0 0 0-.18.73V0zm19.44 0a1.8 1.8 0 0 1-1.33-.49 2.254 2.254 0 0 1-.61-1.31h-.12a2.449 2.449 0 0 1-1.06 1.53 3.613 3.613 0 0 1-1.98.51 3.376 3.376 0 0 1-2.46-.84 2.989 2.989 0 0 1-.86-2.24 2.716 2.716 0 0 1 1.16-2.41 5.831 5.831 0 0 1 3.3-.79h1.78v-.76a1.887 1.887 0 0 0-.46-1.36 1.975 1.975 0 0 0-1.48-.48 2.455 2.455 0 0 0-1.45.39 3.851 3.851 0 0 0-.93.93l-1.52-1.36a4.405 4.405 0 0 1 1.54-1.45 5.09 5.09 0 0 1 2.54-.55 4.764 4.764 0 0 1 3.22.96 3.466 3.466 0 0 1 1.1 2.76v4.92h1.04V0zm-4.24-1.62A2.674 2.674 0 0 0-20.48-2a1.242 1.242 0 0 0 .6-1.12V-4.5h-1.64q-2 0-2 1.28v.34a1.114 1.114 0 0 0 .41.95 1.91 1.91 0 0 0 1.17.31zM-11.64 0a2.548 2.548 0 0 1-1.94-.66 2.612 2.612 0 0 1-.62-1.86V-14.8h2.56v12.76h1.38V0zM.9.24A6.634 6.634 0 0 1-2.15-.4 7.081 7.081 0 0 1-4.3-2.08l1.78-1.72A5.1 5.1 0 0 0-.91-2.52a4.384 4.384 0 0 0 1.97.44 2.767 2.767 0 0 0 1.84-.53 1.785 1.785 0 0 0 .62-1.43 1.629 1.629 0 0 0-.4-1.14 2.673 2.673 0 0 0-1.5-.64L.3-6.02q-4.18-.66-4.18-4.06a4.017 4.017 0 0 1 .35-1.7 3.615 3.615 0 0 1 1.01-1.3 4.679 4.679 0 0 1 1.59-.83 7.082 7.082 0 0 1 2.11-.29 6.8 6.8 0 0 1 2.76.52 5.418 5.418 0 0 1 2.02 1.54l-1.8 1.7a4.145 4.145 0 0 0-1.26-1.04 3.88 3.88 0 0 0-1.86-.4 2.822 2.822 0 0 0-1.71.43 1.428 1.428 0 0 0-.57 1.21 1.443 1.443 0 0 0 .46 1.18A3.233 3.233 0 0 0 .7-8.5l1.3.24a5.967 5.967 0 0 1 3.13 1.35A3.58 3.58 0 0 1 6.14-4.2a4.518 4.518 0 0 1-.35 1.81 3.913 3.913 0 0 1-1.02 1.4 4.651 4.651 0 0 1-1.64.91A7.114 7.114 0 0 1 .9.24zm14.12-10.68h2.4l-4.2 12.3a5.268 5.268 0 0 1-.45.97 2.41 2.41 0 0 1-.59.67 2.217 2.217 0 0 1-.82.38 4.65 4.65 0 0 1-1.12.12H8.7V1.96h1.88L11.06.5 7.32-10.44h2.54l1.82 5.52.68 2.64h.12l.72-2.64zM19.1 0v-10.44h2.56v1.74h.1a3.341 3.341 0 0 1 1.01-1.41 2.914 2.914 0 0 1 1.91-.57 3.008 3.008 0 0 1 2.48 1.06 4.683 4.683 0 0 1 .86 3.02V0h-2.56v-6.34a2.892 2.892 0 0 0-.4-1.68 1.51 1.51 0 0 0-1.32-.56 2.688 2.688 0 0 0-.77.11 2.169 2.169 0 0 0-.66.32 1.671 1.671 0 0 0-.47.52 1.428 1.428 0 0 0-.18.73V0zm15.02 0a2.723 2.723 0 0 1-2.01-.69 2.665 2.665 0 0 1-.69-1.97V-8.4h-1.54v-2.04h.8a.955.955 0 0 0 .79-.27 1.307 1.307 0 0 0 .21-.81v-1.78h2.3v2.86h2.14v2.04h-2.14v6.36h1.98V0zm4.22-14.8h2.56v6.1h.1a3.341 3.341 0 0 1 1.01-1.41 2.914 2.914 0 0 1 1.91-.57 3.008 3.008 0 0 1 2.48 1.06 4.683 4.683 0 0 1 .86 3.02V0H44.7v-6.34a2.892 2.892 0 0 0-.4-1.68 1.51 1.51 0 0 0-1.32-.56 2.688 2.688 0 0 0-.77.11 2.169 2.169 0 0 0-.66.32 1.671 1.671 0 0 0-.47.52 1.428 1.428 0 0 0-.18.73V0h-2.56zM54.32.24a5.21 5.21 0 0 1-2.07-.39 4.285 4.285 0 0 1-1.54-1.1 4.92 4.92 0 0 1-.97-1.72 7.091 7.091 0 0 1-.34-2.27 7.124 7.124 0 0 1 .33-2.24 4.9 4.9 0 0 1 .95-1.71 4.21 4.21 0 0 1 1.52-1.1 5.084 5.084 0 0 1 2.04-.39 4.971 4.971 0 0 1 2.12.42 4.083 4.083 0 0 1 1.48 1.14 4.922 4.922 0 0 1 .87 1.67A6.918 6.918 0 0 1 59-5.42v.84h-6.94v.26a2.584 2.584 0 0 0 .64 1.83 2.467 2.467 0 0 0 1.9.69 2.813 2.813 0 0 0 1.57-.4 4.5 4.5 0 0 0 1.09-1.02l1.38 1.54a4.291 4.291 0 0 1-1.75 1.41 6.1 6.1 0 0 1-2.57.51zm-.04-9a2.051 2.051 0 0 0-1.62.68 2.562 2.562 0 0 0-.6 1.76v.16h4.28v-.18a2.738 2.738 0 0 0-.53-1.75 1.835 1.835 0 0 0-1.53-.67zm10.4 9a5.6 5.6 0 0 1-2.52-.51 5.8 5.8 0 0 1-1.8-1.41l1.56-1.52a4.738 4.738 0 0 0 1.27 1.04 3.242 3.242 0 0 0 1.59.38 2.179 2.179 0 0 0 1.33-.32 1.055 1.055 0 0 0 .41-.88.949.949 0 0 0-.29-.73 1.841 1.841 0 0 0-.99-.37l-1.04-.14a4.948 4.948 0 0 1-2.59-.97 2.7 2.7 0 0 1-.89-2.19A3.247 3.247 0 0 1 61-8.75a2.907 2.907 0 0 1 .8-1.04 3.665 3.665 0 0 1 1.25-.66 5.41 5.41 0 0 1 1.63-.23 7.42 7.42 0 0 1 1.35.11 4.908 4.908 0 0 1 1.07.32 4.136 4.136 0 0 1 .88.52 8.262 8.262 0 0 1 .78.69l-1.5 1.5a3.96 3.96 0 0 0-1.1-.8 3.086 3.086 0 0 0-1.4-.32 1.929 1.929 0 0 0-1.21.3.957.957 0 0 0-.37.78.991.991 0 0 0 .31.79 2.146 2.146 0 0 0 1.05.39l1.06.14q3.38.48 3.38 3.08a3.105 3.105 0 0 1-.31 1.39 3.165 3.165 0 0 1-.87 1.08 4.11 4.11 0 0 1-1.35.7 5.852 5.852 0 0 1-1.77.25zm7.84-12.2a1.554 1.554 0 0 1-1.15-.36 1.265 1.265 0 0 1-.35-.92v-.4a1.265 1.265 0 0 1 .35-.92 1.554 1.554 0 0 1 1.15-.36 1.559 1.559 0 0 1 1.14.36 1.246 1.246 0 0 1 .36.92v.4a1.246 1.246 0 0 1-.36.92 1.559 1.559 0 0 1-1.14.36zm-1.28 1.52h2.56V0h-2.56zM80.18.24a5.6 5.6 0 0 1-2.52-.51 5.8 5.8 0 0 1-1.8-1.41l1.56-1.52a4.737 4.737 0 0 0 1.27 1.04 3.242 3.242 0 0 0 1.59.38 2.179 2.179 0 0 0 1.33-.32 1.055 1.055 0 0 0 .41-.88.949.949 0 0 0-.29-.73 1.841 1.841 0 0 0-.99-.37l-1.04-.14a4.948 4.948 0 0 1-2.59-.97 2.7 2.7 0 0 1-.89-2.19 3.247 3.247 0 0 1 .28-1.37 2.907 2.907 0 0 1 .8-1.04 3.665 3.665 0 0 1 1.25-.66 5.41 5.41 0 0 1 1.63-.23 7.42 7.42 0 0 1 1.35.11 4.908 4.908 0 0 1 1.07.32 4.136 4.136 0 0 1 .88.52 8.262 8.262 0 0 1 .78.69l-1.5 1.5a3.96 3.96 0 0 0-1.1-.8 3.086 3.086 0 0 0-1.4-.32 1.929 1.929 0 0 0-1.21.3.957.957 0 0 0-.37.78.991.991 0 0 0 .31.79 2.146 2.146 0 0 0 1.05.39l1.06.14q3.38.48 3.38 3.08a3.105 3.105 0 0 1-.31 1.39 3.165 3.165 0 0 1-.87 1.08 4.11 4.11 0 0 1-1.35.7 5.852 5.852 0 0 1-1.77.25zM-24.97 22.98h-.08l-1.08 2.22-2.86 5.28-2.86-5.28-1.08-2.22h-.08V33h-2.5V19.04h2.98l3.58 6.82h.08l3.54-6.82h2.86V33h-2.5zm9.84 10.26a5.21 5.21 0 0 1-2.07-.39 4.285 4.285 0 0 1-1.54-1.1 4.92 4.92 0 0 1-.97-1.72 7.091 7.091 0 0 1-.34-2.27 7.124 7.124 0 0 1 .33-2.24 4.9 4.9 0 0 1 .95-1.71 4.21 4.21 0 0 1 1.52-1.1 5.084 5.084 0 0 1 2.04-.39 4.971 4.971 0 0 1 2.12.42 4.083 4.083 0 0 1 1.48 1.14 4.922 4.922 0 0 1 .87 1.67 6.918 6.918 0 0 1 .29 2.03v.84h-6.94v.26a2.584 2.584 0 0 0 .64 1.83 2.467 2.467 0 0 0 1.9.69 2.813 2.813 0 0 0 1.57-.4 4.5 4.5 0 0 0 1.09-1.02l1.38 1.54a4.291 4.291 0 0 1-1.75 1.41 6.1 6.1 0 0 1-2.57.51zm-.04-9a2.051 2.051 0 0 0-1.62.68 2.562 2.562 0 0 0-.6 1.76v.16h4.28v-.18a2.738 2.738 0 0 0-.53-1.75 1.835 1.835 0 0 0-1.53-.67zm11.2 9a5.21 5.21 0 0 1-2.07-.39 4.285 4.285 0 0 1-1.54-1.1 4.92 4.92 0 0 1-.97-1.72 7.091 7.091 0 0 1-.34-2.27 7.124 7.124 0 0 1 .33-2.24 4.9 4.9 0 0 1 .95-1.71 4.21 4.21 0 0 1 1.52-1.1 5.084 5.084 0 0 1 2.04-.39 4.971 4.971 0 0 1 2.12.42 4.083 4.083 0 0 1 1.48 1.14 4.922 4.922 0 0 1 .87 1.67 6.918 6.918 0 0 1 .29 2.03v.84h-6.94v.26a2.584 2.584 0 0 0 .64 1.83 2.467 2.467 0 0 0 1.9.69 2.813 2.813 0 0 0 1.57-.4 4.5 4.5 0 0 0 1.09-1.02l1.38 1.54a4.291 4.291 0 0 1-1.75 1.41 6.1 6.1 0 0 1-2.57.51zm-.04-9a2.051 2.051 0 0 0-1.62.68 2.562 2.562 0 0 0-.6 1.76v.16h4.28v-.18a2.738 2.738 0 0 0-.53-1.75 1.835 1.835 0 0 0-1.53-.67zM6.23 33a2.723 2.723 0 0 1-2.01-.69 2.665 2.665 0 0 1-.69-1.97V24.6H1.99v-2.04h.8a.955.955 0 0 0 .79-.27 1.307 1.307 0 0 0 .21-.81V19.7h2.3v2.86h2.14v2.04H6.09v6.36h1.98V33zm5.5-11.96a1.554 1.554 0 0 1-1.15-.36 1.265 1.265 0 0 1-.35-.92v-.4a1.265 1.265 0 0 1 .35-.92 1.554 1.554 0 0 1 1.15-.36 1.559 1.559 0 0 1 1.14.36 1.246 1.246 0 0 1 .36.92v.4a1.246 1.246 0 0 1-.36.92 1.559 1.559 0 0 1-1.14.36zm-1.28 1.52h2.56V33h-2.56zM15.97 33V22.56h2.56v1.74h.1a3.341 3.341 0 0 1 1.01-1.41 2.914 2.914 0 0 1 1.91-.57 3.008 3.008 0 0 1 2.48 1.06 4.683 4.683 0 0 1 .86 3.02V33h-2.56v-6.34a2.892 2.892 0 0 0-.4-1.68 1.51 1.51 0 0 0-1.32-.56 2.688 2.688 0 0 0-.77.11 2.169 2.169 0 0 0-.66.32 1.671 1.671 0 0 0-.47.52 1.428 1.428 0 0 0-.18.73V33zm21.18.88a3.433 3.433 0 0 1-.29 1.45 2.464 2.464 0 0 1-.95 1.05 5.148 5.148 0 0 1-1.7.64 12.494 12.494 0 0 1-2.54.22 12.562 12.562 0 0 1-2.24-.17 5.368 5.368 0 0 1-1.51-.48 2.011 2.011 0 0 1-.85-.77 2.076 2.076 0 0 1-.26-1.04 1.852 1.852 0 0 1 .49-1.37 2.413 2.413 0 0 1 1.37-.63v-.22a1.7 1.7 0 0 1-.99-.63 1.807 1.807 0 0 1-.35-1.11 1.526 1.526 0 0 1 .16-.71 1.656 1.656 0 0 1 .43-.53 2.658 2.658 0 0 1 .61-.37 3.632 3.632 0 0 1 .72-.23v-.08a3.131 3.131 0 0 1-1.43-1.22 3.458 3.458 0 0 1-.47-1.82 3.259 3.259 0 0 1 1.1-2.57 4.73 4.73 0 0 1 3.22-.97 7.5 7.5 0 0 1 .95.06 4.263 4.263 0 0 1 .87.2v-.34a1.326 1.326 0 0 1 1.48-1.52h1.62v1.96h-2.22v.28a3.022 3.022 0 0 1 1.22 1.2 3.519 3.519 0 0 1 .4 1.7 3.219 3.219 0 0 1-1.09 2.54 4.757 4.757 0 0 1-3.23.96 6.3 6.3 0 0 1-1.6-.18 1.716 1.716 0 0 0-.52.37.793.793 0 0 0-.22.57q0 .78 1.36.78h2.8a4.079 4.079 0 0 1 2.79.79 2.808 2.808 0 0 1 .87 2.19zm-2.4.3a.9.9 0 0 0-.4-.78 2.511 2.511 0 0 0-1.38-.28h-3.56a1.275 1.275 0 0 0-.54 1.08 1.076 1.076 0 0 0 .5.94 3.153 3.153 0 0 0 1.7.34h1.28a3.921 3.921 0 0 0 1.83-.32 1.051 1.051 0 0 0 .57-.98zm-3.08-6.56q1.88 0 1.88-1.6v-.34q0-1.6-1.88-1.6t-1.88 1.6v.34q0 1.6 1.88 1.6z" transform="translate(960 8329)"/>
                </g>
            </g>
            <g id="Group_1293" data-name="Group 1293">
                <g id="Group_933" data-name="Group 933" transform="translate(0 771)">
                    <rect id="Rectangle_826-2" data-name="Rectangle 826" class="cls-5" width="240" height="108" rx="33" transform="translate(840 8286)"/>
                    <path id="Path_629" data-name="Path 629" class="cls-1" d="M-84.2 0v-2.12h1.84v-9.72h-1.84v-2.12h6.34v2.12h-1.86v9.72h1.86V0zm8.88 0v-10.44h2.56v1.74h.1a3.341 3.341 0 0 1 1.01-1.41 2.914 2.914 0 0 1 1.91-.57 3.008 3.008 0 0 1 2.48 1.06 4.683 4.683 0 0 1 .86 3.02V0h-2.56v-6.34a2.892 2.892 0 0 0-.4-1.68 1.51 1.51 0 0 0-1.32-.56 2.688 2.688 0 0 0-.77.11 2.169 2.169 0 0 0-.66.32 1.671 1.671 0 0 0-.47.52 1.428 1.428 0 0 0-.18.73V0zm15.02 0a2.723 2.723 0 0 1-2.01-.69A2.665 2.665 0 0 1-63-2.66V-8.4h-1.54v-2.04h.8a.955.955 0 0 0 .79-.27 1.307 1.307 0 0 0 .21-.81v-1.78h2.3v2.86h2.14v2.04h-2.14v6.36h1.98V0zm8.36.24a5.21 5.21 0 0 1-2.07-.39 4.285 4.285 0 0 1-1.54-1.1 4.92 4.92 0 0 1-.97-1.72 7.091 7.091 0 0 1-.34-2.27 7.124 7.124 0 0 1 .33-2.24 4.9 4.9 0 0 1 .95-1.71 4.21 4.21 0 0 1 1.52-1.1 5.084 5.084 0 0 1 2.04-.39 4.971 4.971 0 0 1 2.12.42 4.083 4.083 0 0 1 1.48 1.14 4.922 4.922 0 0 1 .87 1.67 6.918 6.918 0 0 1 .29 2.03v.84h-6.94v.26a2.584 2.584 0 0 0 .64 1.83 2.467 2.467 0 0 0 1.9.69 2.813 2.813 0 0 0 1.57-.4A4.5 4.5 0 0 0-49-3.22l1.38 1.54a4.291 4.291 0 0 1-1.75 1.41 6.1 6.1 0 0 1-2.57.51zm-.04-9a2.051 2.051 0 0 0-1.62.68 2.562 2.562 0 0 0-.6 1.76v.16h4.28v-.18a2.738 2.738 0 0 0-.53-1.75 1.835 1.835 0 0 0-1.53-.67zM-45 0v-10.44h2.56v2.16h.1a3.329 3.329 0 0 1 .31-.81 2.487 2.487 0 0 1 .55-.69 2.634 2.634 0 0 1 .81-.48 3.037 3.037 0 0 1 1.09-.18h.56v2.42h-.8a4.014 4.014 0 0 0-1.96.38 1.32 1.32 0 0 0-.66 1.24V0zm7.86 0v-10.44h2.56v1.74h.1a3.341 3.341 0 0 1 1.01-1.41 2.914 2.914 0 0 1 1.91-.57 3.008 3.008 0 0 1 2.48 1.06 4.683 4.683 0 0 1 .86 3.02V0h-2.56v-6.34a2.892 2.892 0 0 0-.4-1.68 1.51 1.51 0 0 0-1.32-.56 2.688 2.688 0 0 0-.77.11 2.169 2.169 0 0 0-.66.32 1.671 1.671 0 0 0-.47.52 1.428 1.428 0 0 0-.18.73V0zm19.44 0a1.8 1.8 0 0 1-1.33-.49 2.254 2.254 0 0 1-.61-1.31h-.12a2.449 2.449 0 0 1-1.06 1.53 3.613 3.613 0 0 1-1.98.51 3.376 3.376 0 0 1-2.46-.84 2.989 2.989 0 0 1-.86-2.24 2.716 2.716 0 0 1 1.16-2.41 5.831 5.831 0 0 1 3.3-.79h1.78v-.76a1.887 1.887 0 0 0-.46-1.36 1.975 1.975 0 0 0-1.48-.48 2.455 2.455 0 0 0-1.45.39 3.851 3.851 0 0 0-.93.93l-1.52-1.36a4.405 4.405 0 0 1 1.54-1.45 5.09 5.09 0 0 1 2.54-.55 4.764 4.764 0 0 1 3.22.96 3.466 3.466 0 0 1 1.1 2.76v4.92h1.04V0zm-4.24-1.62A2.674 2.674 0 0 0-20.48-2a1.242 1.242 0 0 0 .6-1.12V-4.5h-1.64q-2 0-2 1.28v.34a1.114 1.114 0 0 0 .41.95 1.91 1.91 0 0 0 1.17.31zM-11.64 0a2.548 2.548 0 0 1-1.94-.66 2.612 2.612 0 0 1-.62-1.86V-14.8h2.56v12.76h1.38V0zM.9.24A6.634 6.634 0 0 1-2.15-.4 7.081 7.081 0 0 1-4.3-2.08l1.78-1.72A5.1 5.1 0 0 0-.91-2.52a4.384 4.384 0 0 0 1.97.44 2.767 2.767 0 0 0 1.84-.53 1.785 1.785 0 0 0 .62-1.43 1.629 1.629 0 0 0-.4-1.14 2.673 2.673 0 0 0-1.5-.64L.3-6.02q-4.18-.66-4.18-4.06a4.017 4.017 0 0 1 .35-1.7 3.615 3.615 0 0 1 1.01-1.3 4.679 4.679 0 0 1 1.59-.83 7.082 7.082 0 0 1 2.11-.29 6.8 6.8 0 0 1 2.76.52 5.418 5.418 0 0 1 2.02 1.54l-1.8 1.7a4.145 4.145 0 0 0-1.26-1.04 3.88 3.88 0 0 0-1.86-.4 2.822 2.822 0 0 0-1.71.43 1.428 1.428 0 0 0-.57 1.21 1.443 1.443 0 0 0 .46 1.18A3.233 3.233 0 0 0 .7-8.5l1.3.24a5.967 5.967 0 0 1 3.13 1.35A3.58 3.58 0 0 1 6.14-4.2a4.518 4.518 0 0 1-.35 1.81 3.913 3.913 0 0 1-1.02 1.4 4.651 4.651 0 0 1-1.64.91A7.114 7.114 0 0 1 .9.24zm14.12-10.68h2.4l-4.2 12.3a5.268 5.268 0 0 1-.45.97 2.41 2.41 0 0 1-.59.67 2.217 2.217 0 0 1-.82.38 4.65 4.65 0 0 1-1.12.12H8.7V1.96h1.88L11.06.5 7.32-10.44h2.54l1.82 5.52.68 2.64h.12l.72-2.64zM19.1 0v-10.44h2.56v1.74h.1a3.341 3.341 0 0 1 1.01-1.41 2.914 2.914 0 0 1 1.91-.57 3.008 3.008 0 0 1 2.48 1.06 4.683 4.683 0 0 1 .86 3.02V0h-2.56v-6.34a2.892 2.892 0 0 0-.4-1.68 1.51 1.51 0 0 0-1.32-.56 2.688 2.688 0 0 0-.77.11 2.169 2.169 0 0 0-.66.32 1.671 1.671 0 0 0-.47.52 1.428 1.428 0 0 0-.18.73V0zm15.02 0a2.723 2.723 0 0 1-2.01-.69 2.665 2.665 0 0 1-.69-1.97V-8.4h-1.54v-2.04h.8a.955.955 0 0 0 .79-.27 1.307 1.307 0 0 0 .21-.81v-1.78h2.3v2.86h2.14v2.04h-2.14v6.36h1.98V0zm4.22-14.8h2.56v6.1h.1a3.341 3.341 0 0 1 1.01-1.41 2.914 2.914 0 0 1 1.91-.57 3.008 3.008 0 0 1 2.48 1.06 4.683 4.683 0 0 1 .86 3.02V0H44.7v-6.34a2.892 2.892 0 0 0-.4-1.68 1.51 1.51 0 0 0-1.32-.56 2.688 2.688 0 0 0-.77.11 2.169 2.169 0 0 0-.66.32 1.671 1.671 0 0 0-.47.52 1.428 1.428 0 0 0-.18.73V0h-2.56zM54.32.24a5.21 5.21 0 0 1-2.07-.39 4.285 4.285 0 0 1-1.54-1.1 4.92 4.92 0 0 1-.97-1.72 7.091 7.091 0 0 1-.34-2.27 7.124 7.124 0 0 1 .33-2.24 4.9 4.9 0 0 1 .95-1.71 4.21 4.21 0 0 1 1.52-1.1 5.084 5.084 0 0 1 2.04-.39 4.971 4.971 0 0 1 2.12.42 4.083 4.083 0 0 1 1.48 1.14 4.922 4.922 0 0 1 .87 1.67A6.918 6.918 0 0 1 59-5.42v.84h-6.94v.26a2.584 2.584 0 0 0 .64 1.83 2.467 2.467 0 0 0 1.9.69 2.813 2.813 0 0 0 1.57-.4 4.5 4.5 0 0 0 1.09-1.02l1.38 1.54a4.291 4.291 0 0 1-1.75 1.41 6.1 6.1 0 0 1-2.57.51zm-.04-9a2.051 2.051 0 0 0-1.62.68 2.562 2.562 0 0 0-.6 1.76v.16h4.28v-.18a2.738 2.738 0 0 0-.53-1.75 1.835 1.835 0 0 0-1.53-.67zm10.4 9a5.6 5.6 0 0 1-2.52-.51 5.8 5.8 0 0 1-1.8-1.41l1.56-1.52a4.738 4.738 0 0 0 1.27 1.04 3.242 3.242 0 0 0 1.59.38 2.179 2.179 0 0 0 1.33-.32 1.055 1.055 0 0 0 .41-.88.949.949 0 0 0-.29-.73 1.841 1.841 0 0 0-.99-.37l-1.04-.14a4.948 4.948 0 0 1-2.59-.97 2.7 2.7 0 0 1-.89-2.19A3.247 3.247 0 0 1 61-8.75a2.907 2.907 0 0 1 .8-1.04 3.665 3.665 0 0 1 1.25-.66 5.41 5.41 0 0 1 1.63-.23 7.42 7.42 0 0 1 1.35.11 4.908 4.908 0 0 1 1.07.32 4.136 4.136 0 0 1 .88.52 8.262 8.262 0 0 1 .78.69l-1.5 1.5a3.96 3.96 0 0 0-1.1-.8 3.086 3.086 0 0 0-1.4-.32 1.929 1.929 0 0 0-1.21.3.957.957 0 0 0-.37.78.991.991 0 0 0 .31.79 2.146 2.146 0 0 0 1.05.39l1.06.14q3.38.48 3.38 3.08a3.105 3.105 0 0 1-.31 1.39 3.165 3.165 0 0 1-.87 1.08 4.11 4.11 0 0 1-1.35.7 5.852 5.852 0 0 1-1.77.25zm7.84-12.2a1.554 1.554 0 0 1-1.15-.36 1.265 1.265 0 0 1-.35-.92v-.4a1.265 1.265 0 0 1 .35-.92 1.554 1.554 0 0 1 1.15-.36 1.559 1.559 0 0 1 1.14.36 1.246 1.246 0 0 1 .36.92v.4a1.246 1.246 0 0 1-.36.92 1.559 1.559 0 0 1-1.14.36zm-1.28 1.52h2.56V0h-2.56zM80.18.24a5.6 5.6 0 0 1-2.52-.51 5.8 5.8 0 0 1-1.8-1.41l1.56-1.52a4.737 4.737 0 0 0 1.27 1.04 3.242 3.242 0 0 0 1.59.38 2.179 2.179 0 0 0 1.33-.32 1.055 1.055 0 0 0 .41-.88.949.949 0 0 0-.29-.73 1.841 1.841 0 0 0-.99-.37l-1.04-.14a4.948 4.948 0 0 1-2.59-.97 2.7 2.7 0 0 1-.89-2.19 3.247 3.247 0 0 1 .28-1.37 2.907 2.907 0 0 1 .8-1.04 3.665 3.665 0 0 1 1.25-.66 5.41 5.41 0 0 1 1.63-.23 7.42 7.42 0 0 1 1.35.11 4.908 4.908 0 0 1 1.07.32 4.136 4.136 0 0 1 .88.52 8.262 8.262 0 0 1 .78.69l-1.5 1.5a3.96 3.96 0 0 0-1.1-.8 3.086 3.086 0 0 0-1.4-.32 1.929 1.929 0 0 0-1.21.3.957.957 0 0 0-.37.78.991.991 0 0 0 .31.79 2.146 2.146 0 0 0 1.05.39l1.06.14q3.38.48 3.38 3.08a3.105 3.105 0 0 1-.31 1.39 3.165 3.165 0 0 1-.87 1.08 4.11 4.11 0 0 1-1.35.7 5.852 5.852 0 0 1-1.77.25zM-24.97 22.98h-.08l-1.08 2.22-2.86 5.28-2.86-5.28-1.08-2.22h-.08V33h-2.5V19.04h2.98l3.58 6.82h.08l3.54-6.82h2.86V33h-2.5zm9.84 10.26a5.21 5.21 0 0 1-2.07-.39 4.285 4.285 0 0 1-1.54-1.1 4.92 4.92 0 0 1-.97-1.72 7.091 7.091 0 0 1-.34-2.27 7.124 7.124 0 0 1 .33-2.24 4.9 4.9 0 0 1 .95-1.71 4.21 4.21 0 0 1 1.52-1.1 5.084 5.084 0 0 1 2.04-.39 4.971 4.971 0 0 1 2.12.42 4.083 4.083 0 0 1 1.48 1.14 4.922 4.922 0 0 1 .87 1.67 6.918 6.918 0 0 1 .29 2.03v.84h-6.94v.26a2.584 2.584 0 0 0 .64 1.83 2.467 2.467 0 0 0 1.9.69 2.813 2.813 0 0 0 1.57-.4 4.5 4.5 0 0 0 1.09-1.02l1.38 1.54a4.291 4.291 0 0 1-1.75 1.41 6.1 6.1 0 0 1-2.57.51zm-.04-9a2.051 2.051 0 0 0-1.62.68 2.562 2.562 0 0 0-.6 1.76v.16h4.28v-.18a2.738 2.738 0 0 0-.53-1.75 1.835 1.835 0 0 0-1.53-.67zm11.2 9a5.21 5.21 0 0 1-2.07-.39 4.285 4.285 0 0 1-1.54-1.1 4.92 4.92 0 0 1-.97-1.72 7.091 7.091 0 0 1-.34-2.27 7.124 7.124 0 0 1 .33-2.24 4.9 4.9 0 0 1 .95-1.71 4.21 4.21 0 0 1 1.52-1.1 5.084 5.084 0 0 1 2.04-.39 4.971 4.971 0 0 1 2.12.42 4.083 4.083 0 0 1 1.48 1.14 4.922 4.922 0 0 1 .87 1.67 6.918 6.918 0 0 1 .29 2.03v.84h-6.94v.26a2.584 2.584 0 0 0 .64 1.83 2.467 2.467 0 0 0 1.9.69 2.813 2.813 0 0 0 1.57-.4 4.5 4.5 0 0 0 1.09-1.02l1.38 1.54a4.291 4.291 0 0 1-1.75 1.41 6.1 6.1 0 0 1-2.57.51zm-.04-9a2.051 2.051 0 0 0-1.62.68 2.562 2.562 0 0 0-.6 1.76v.16h4.28v-.18a2.738 2.738 0 0 0-.53-1.75 1.835 1.835 0 0 0-1.53-.67zM6.23 33a2.723 2.723 0 0 1-2.01-.69 2.665 2.665 0 0 1-.69-1.97V24.6H1.99v-2.04h.8a.955.955 0 0 0 .79-.27 1.307 1.307 0 0 0 .21-.81V19.7h2.3v2.86h2.14v2.04H6.09v6.36h1.98V33zm5.5-11.96a1.554 1.554 0 0 1-1.15-.36 1.265 1.265 0 0 1-.35-.92v-.4a1.265 1.265 0 0 1 .35-.92 1.554 1.554 0 0 1 1.15-.36 1.559 1.559 0 0 1 1.14.36 1.246 1.246 0 0 1 .36.92v.4a1.246 1.246 0 0 1-.36.92 1.559 1.559 0 0 1-1.14.36zm-1.28 1.52h2.56V33h-2.56zM15.97 33V22.56h2.56v1.74h.1a3.341 3.341 0 0 1 1.01-1.41 2.914 2.914 0 0 1 1.91-.57 3.008 3.008 0 0 1 2.48 1.06 4.683 4.683 0 0 1 .86 3.02V33h-2.56v-6.34a2.892 2.892 0 0 0-.4-1.68 1.51 1.51 0 0 0-1.32-.56 2.688 2.688 0 0 0-.77.11 2.169 2.169 0 0 0-.66.32 1.671 1.671 0 0 0-.47.52 1.428 1.428 0 0 0-.18.73V33zm21.18.88a3.433 3.433 0 0 1-.29 1.45 2.464 2.464 0 0 1-.95 1.05 5.148 5.148 0 0 1-1.7.64 12.494 12.494 0 0 1-2.54.22 12.562 12.562 0 0 1-2.24-.17 5.368 5.368 0 0 1-1.51-.48 2.011 2.011 0 0 1-.85-.77 2.076 2.076 0 0 1-.26-1.04 1.852 1.852 0 0 1 .49-1.37 2.413 2.413 0 0 1 1.37-.63v-.22a1.7 1.7 0 0 1-.99-.63 1.807 1.807 0 0 1-.35-1.11 1.526 1.526 0 0 1 .16-.71 1.656 1.656 0 0 1 .43-.53 2.658 2.658 0 0 1 .61-.37 3.632 3.632 0 0 1 .72-.23v-.08a3.131 3.131 0 0 1-1.43-1.22 3.458 3.458 0 0 1-.47-1.82 3.259 3.259 0 0 1 1.1-2.57 4.73 4.73 0 0 1 3.22-.97 7.5 7.5 0 0 1 .95.06 4.263 4.263 0 0 1 .87.2v-.34a1.326 1.326 0 0 1 1.48-1.52h1.62v1.96h-2.22v.28a3.022 3.022 0 0 1 1.22 1.2 3.519 3.519 0 0 1 .4 1.7 3.219 3.219 0 0 1-1.09 2.54 4.757 4.757 0 0 1-3.23.96 6.3 6.3 0 0 1-1.6-.18 1.716 1.716 0 0 0-.52.37.793.793 0 0 0-.22.57q0 .78 1.36.78h2.8a4.079 4.079 0 0 1 2.79.79 2.808 2.808 0 0 1 .87 2.19zm-2.4.3a.9.9 0 0 0-.4-.78 2.511 2.511 0 0 0-1.38-.28h-3.56a1.275 1.275 0 0 0-.54 1.08 1.076 1.076 0 0 0 .5.94 3.153 3.153 0 0 0 1.7.34h1.28a3.921 3.921 0 0 0 1.83-.32 1.051 1.051 0 0 0 .57-.98zm-3.08-6.56q1.88 0 1.88-1.6v-.34q0-1.6-1.88-1.6t-1.88 1.6v.34q0 1.6 1.88 1.6z" transform="translate(960 8329)"/>
                </g>
            </g>
            <g id="Group_1287" data-name="Group 1287">
                <rect id="Rectangle_840" data-name="Rectangle 840" class="cls-5" width="280" height="77" rx="33" transform="translate(820 8161)"/>
                <path id="Path_625" data-name="Path 625" class="cls-1" d="M-88.86 0v-2.12h1.84v-9.72h-1.84v-2.12h6.34v2.12h-1.86v9.72h1.86V0zm8.88 0v-10.44h2.56v1.74h.1a3.341 3.341 0 0 1 1.01-1.41 2.914 2.914 0 0 1 1.91-.57 3.008 3.008 0 0 1 2.48 1.06 4.683 4.683 0 0 1 .86 3.02V0h-2.56v-6.34a2.892 2.892 0 0 0-.4-1.68 1.51 1.51 0 0 0-1.32-.56 2.688 2.688 0 0 0-.77.11 2.169 2.169 0 0 0-.66.32 1.671 1.671 0 0 0-.47.52 1.428 1.428 0 0 0-.18.73V0zm15.02 0a2.723 2.723 0 0 1-2.01-.69 2.665 2.665 0 0 1-.69-1.97V-8.4h-1.54v-2.04h.8a.955.955 0 0 0 .79-.27 1.306 1.306 0 0 0 .21-.81v-1.78h2.3v2.86h2.14v2.04h-2.14v6.36h1.98V0zm8.36.24a5.21 5.21 0 0 1-2.07-.39 4.285 4.285 0 0 1-1.54-1.1 4.92 4.92 0 0 1-.97-1.72 7.091 7.091 0 0 1-.34-2.27 7.124 7.124 0 0 1 .33-2.24 4.9 4.9 0 0 1 .95-1.71 4.21 4.21 0 0 1 1.52-1.1 5.084 5.084 0 0 1 2.04-.39 4.971 4.971 0 0 1 2.12.42 4.083 4.083 0 0 1 1.48 1.14 4.922 4.922 0 0 1 .87 1.67 6.918 6.918 0 0 1 .29 2.03v.84h-6.94v.26a2.584 2.584 0 0 0 .64 1.83 2.467 2.467 0 0 0 1.9.69 2.813 2.813 0 0 0 1.57-.4 4.5 4.5 0 0 0 1.09-1.02l1.38 1.54a4.291 4.291 0 0 1-1.75 1.41 6.1 6.1 0 0 1-2.57.51zm-.04-9a2.051 2.051 0 0 0-1.62.68 2.562 2.562 0 0 0-.6 1.76v.16h4.28v-.18a2.738 2.738 0 0 0-.53-1.75 1.835 1.835 0 0 0-1.53-.67zM-49.66 0v-10.44h2.56v2.16h.1a3.329 3.329 0 0 1 .31-.81 2.487 2.487 0 0 1 .55-.69 2.634 2.634 0 0 1 .81-.48 3.037 3.037 0 0 1 1.09-.18h.56v2.42h-.8a4.014 4.014 0 0 0-1.96.38 1.32 1.32 0 0 0-.66 1.24V0zm7.86 0v-10.44h2.56v1.74h.1a3.341 3.341 0 0 1 1.01-1.41 2.914 2.914 0 0 1 1.91-.57 3.008 3.008 0 0 1 2.48 1.06 4.683 4.683 0 0 1 .86 3.02V0h-2.56v-6.34a2.892 2.892 0 0 0-.4-1.68 1.51 1.51 0 0 0-1.32-.56 2.688 2.688 0 0 0-.77.11 2.169 2.169 0 0 0-.66.32 1.671 1.671 0 0 0-.47.52 1.428 1.428 0 0 0-.18.73V0zm19.44 0a1.8 1.8 0 0 1-1.33-.49 2.254 2.254 0 0 1-.61-1.31h-.12a2.449 2.449 0 0 1-1.06 1.53 3.613 3.613 0 0 1-1.98.51 3.376 3.376 0 0 1-2.46-.84 2.989 2.989 0 0 1-.86-2.24 2.716 2.716 0 0 1 1.16-2.41 5.831 5.831 0 0 1 3.3-.79h1.78v-.76A1.887 1.887 0 0 0-25-8.16a1.975 1.975 0 0 0-1.48-.48 2.455 2.455 0 0 0-1.45.39 3.851 3.851 0 0 0-.93.93l-1.52-1.36a4.405 4.405 0 0 1 1.54-1.45 5.09 5.09 0 0 1 2.54-.55 4.764 4.764 0 0 1 3.22.96 3.466 3.466 0 0 1 1.1 2.76v4.92h1.04V0zm-4.24-1.62A2.674 2.674 0 0 0-25.14-2a1.242 1.242 0 0 0 .6-1.12V-4.5h-1.64q-2 0-2 1.28v.34a1.114 1.114 0 0 0 .41.95 1.91 1.91 0 0 0 1.17.31zM-16.3 0a2.548 2.548 0 0 1-1.94-.66 2.612 2.612 0 0 1-.62-1.86V-14.8h2.56v12.76h1.38V0zm8.2-13.96h5.08a6.65 6.65 0 0 1 2.47.44 5.038 5.038 0 0 1 1.9 1.31 5.954 5.954 0 0 1 1.22 2.18A9.791 9.791 0 0 1 3-6.98a9.791 9.791 0 0 1-.43 3.05 5.954 5.954 0 0 1-1.22 2.18A5.038 5.038 0 0 1-.55-.44 6.65 6.65 0 0 1-3.02 0H-8.1zm5.08 11.62a3.175 3.175 0 0 0 2.35-.87A3.636 3.636 0 0 0 .2-5.88v-2.2a3.636 3.636 0 0 0-.87-2.67 3.175 3.175 0 0 0-2.35-.87h-2.44v9.28zm9.82-9.62a1.554 1.554 0 0 1-1.15-.36 1.265 1.265 0 0 1-.35-.92v-.4a1.265 1.265 0 0 1 .35-.92 1.554 1.554 0 0 1 1.15-.36 1.559 1.559 0 0 1 1.14.36 1.246 1.246 0 0 1 .36.92v.4a1.246 1.246 0 0 1-.36.92 1.559 1.559 0 0 1-1.14.36zm-1.28 1.52h2.56V0H5.52zM14.46.24a5.6 5.6 0 0 1-2.52-.51 5.8 5.8 0 0 1-1.8-1.41L11.7-3.2a4.737 4.737 0 0 0 1.27 1.04 3.242 3.242 0 0 0 1.59.38 2.179 2.179 0 0 0 1.33-.32 1.055 1.055 0 0 0 .41-.88.949.949 0 0 0-.29-.73 1.841 1.841 0 0 0-.99-.37l-1.04-.14a4.948 4.948 0 0 1-2.59-.97 2.7 2.7 0 0 1-.89-2.19 3.247 3.247 0 0 1 .28-1.37 2.907 2.907 0 0 1 .8-1.04 3.665 3.665 0 0 1 1.25-.66 5.41 5.41 0 0 1 1.63-.23 7.42 7.42 0 0 1 1.35.11 4.908 4.908 0 0 1 1.07.32 4.136 4.136 0 0 1 .88.52 8.262 8.262 0 0 1 .78.69l-1.5 1.5a3.96 3.96 0 0 0-1.1-.8 3.086 3.086 0 0 0-1.4-.32 1.929 1.929 0 0 0-1.21.3.957.957 0 0 0-.37.78.991.991 0 0 0 .31.79 2.146 2.146 0 0 0 1.05.39l1.06.14q3.38.48 3.38 3.08a3.105 3.105 0 0 1-.31 1.39 3.165 3.165 0 0 1-.87 1.08 4.11 4.11 0 0 1-1.35.7 5.852 5.852 0 0 1-1.77.25zm10.68 0a5.256 5.256 0 0 1-2.06-.38 3.972 3.972 0 0 1-1.51-1.1 4.956 4.956 0 0 1-.93-1.73 7.5 7.5 0 0 1-.32-2.27 7.4 7.4 0 0 1 .32-2.26 4.862 4.862 0 0 1 .93-1.71 4.02 4.02 0 0 1 1.51-1.09 5.256 5.256 0 0 1 2.06-.38 4.545 4.545 0 0 1 2.61.7 3.928 3.928 0 0 1 1.49 1.94l-2.1.94a2.176 2.176 0 0 0-.67-1.09 1.946 1.946 0 0 0-1.33-.43 1.915 1.915 0 0 0-1.61.68A2.814 2.814 0 0 0 23-6.16v1.9a2.771 2.771 0 0 0 .53 1.77 1.927 1.927 0 0 0 1.61.67 1.994 1.994 0 0 0 1.42-.47 3.22 3.22 0 0 0 .78-1.17l1.96.94a4.1 4.1 0 0 1-1.58 2.07 4.628 4.628 0 0 1-2.58.69zm12.38-1.98h-.1a3.414 3.414 0 0 1-.37.75 2.718 2.718 0 0 1-.58.63 2.643 2.643 0 0 1-.84.44 3.641 3.641 0 0 1-1.13.16 3.008 3.008 0 0 1-2.48-1.06 4.683 4.683 0 0 1-.86-3.02v-6.6h2.56v6.34a2.753 2.753 0 0 0 .42 1.65 1.554 1.554 0 0 0 1.34.57 2.862 2.862 0 0 0 .75-.1 1.9 1.9 0 0 0 .65-.31 1.725 1.725 0 0 0 .46-.52 1.428 1.428 0 0 0 .18-.73v-6.9h2.56V0h-2.56zM46.46.24a5.6 5.6 0 0 1-2.52-.51 5.8 5.8 0 0 1-1.8-1.41L43.7-3.2a4.738 4.738 0 0 0 1.27 1.04 3.242 3.242 0 0 0 1.59.38 2.179 2.179 0 0 0 1.33-.32 1.055 1.055 0 0 0 .41-.88.949.949 0 0 0-.29-.73 1.841 1.841 0 0 0-.99-.37l-1.04-.14a4.948 4.948 0 0 1-2.59-.97 2.7 2.7 0 0 1-.89-2.19 3.247 3.247 0 0 1 .28-1.37 2.907 2.907 0 0 1 .8-1.04 3.665 3.665 0 0 1 1.25-.66 5.41 5.41 0 0 1 1.63-.23 7.42 7.42 0 0 1 1.35.11 4.908 4.908 0 0 1 1.07.32 4.136 4.136 0 0 1 .88.52 8.262 8.262 0 0 1 .78.69l-1.5 1.5a3.96 3.96 0 0 0-1.1-.8 3.086 3.086 0 0 0-1.4-.32 1.929 1.929 0 0 0-1.21.3.957.957 0 0 0-.37.78.991.991 0 0 0 .31.79 2.146 2.146 0 0 0 1.05.39l1.06.14q3.38.48 3.38 3.08a3.105 3.105 0 0 1-.31 1.39 3.165 3.165 0 0 1-.87 1.08 4.11 4.11 0 0 1-1.35.7 5.852 5.852 0 0 1-1.77.25zm9.84 0a5.6 5.6 0 0 1-2.52-.51 5.8 5.8 0 0 1-1.8-1.41l1.56-1.52a4.738 4.738 0 0 0 1.27 1.04 3.242 3.242 0 0 0 1.59.38 2.179 2.179 0 0 0 1.33-.32 1.055 1.055 0 0 0 .41-.88.949.949 0 0 0-.29-.73 1.841 1.841 0 0 0-.99-.37l-1.04-.14a4.948 4.948 0 0 1-2.59-.97 2.7 2.7 0 0 1-.89-2.19 3.247 3.247 0 0 1 .28-1.37 2.907 2.907 0 0 1 .8-1.04 3.665 3.665 0 0 1 1.25-.66 5.41 5.41 0 0 1 1.63-.23 7.42 7.42 0 0 1 1.35.11 4.908 4.908 0 0 1 1.07.32 4.136 4.136 0 0 1 .88.52 8.262 8.262 0 0 1 .78.69l-1.5 1.5a3.96 3.96 0 0 0-1.1-.8 3.086 3.086 0 0 0-1.4-.32 1.929 1.929 0 0 0-1.21.3.957.957 0 0 0-.37.78.991.991 0 0 0 .31.79 2.146 2.146 0 0 0 1.05.39l1.06.14q3.38.48 3.38 3.08a3.105 3.105 0 0 1-.31 1.39 3.165 3.165 0 0 1-.87 1.08 4.11 4.11 0 0 1-1.35.7 5.852 5.852 0 0 1-1.77.25zm7.84-12.2a1.554 1.554 0 0 1-1.15-.36 1.265 1.265 0 0 1-.35-.92v-.4a1.265 1.265 0 0 1 .35-.92 1.554 1.554 0 0 1 1.15-.36 1.559 1.559 0 0 1 1.14.36 1.246 1.246 0 0 1 .36.92v.4a1.246 1.246 0 0 1-.36.92 1.559 1.559 0 0 1-1.14.36zm-1.28 1.52h2.56V0h-2.56zM72.52.24a5.073 5.073 0 0 1-2.01-.38 4.167 4.167 0 0 1-1.52-1.1 5.028 5.028 0 0 1-.97-1.73 7.091 7.091 0 0 1-.34-2.27 7 7 0 0 1 .34-2.26 4.934 4.934 0 0 1 .97-1.71 4.22 4.22 0 0 1 1.52-1.09 5.073 5.073 0 0 1 2.01-.38 5.146 5.146 0 0 1 2.02.38 4.2 4.2 0 0 1 1.53 1.09 4.934 4.934 0 0 1 .97 1.71 7 7 0 0 1 .34 2.26 7.091 7.091 0 0 1-.34 2.27 5.028 5.028 0 0 1-.97 1.73 4.148 4.148 0 0 1-1.53 1.1 5.146 5.146 0 0 1-2.02.38zm0-2.06a2.084 2.084 0 0 0 1.6-.62 2.572 2.572 0 0 0 .58-1.82V-6.2a2.541 2.541 0 0 0-.58-1.8 2.084 2.084 0 0 0-1.6-.62 2.059 2.059 0 0 0-1.58.62 2.541 2.541 0 0 0-.58 1.8v1.94a2.572 2.572 0 0 0 .58 1.82 2.059 2.059 0 0 0 1.58.62zM79.64 0v-10.44h2.56v1.74h.1a3.341 3.341 0 0 1 1.01-1.41 2.914 2.914 0 0 1 1.91-.57 3.008 3.008 0 0 1 2.48 1.06 4.683 4.683 0 0 1 .86 3.02V0H86v-6.34a2.892 2.892 0 0 0-.4-1.68 1.51 1.51 0 0 0-1.32-.56 2.688 2.688 0 0 0-.77.11 2.169 2.169 0 0 0-.66.32 1.671 1.671 0 0 0-.47.52 1.428 1.428 0 0 0-.18.73V0z" transform="translate(960 8205)"/>
            </g>
            <g id="Group_1292" data-name="Group 1292">
                <g id="Group_931" data-name="Group 931" transform="translate(0 -231)">
                    <rect id="Rectangle_842" data-name="Rectangle 842" class="cls-5" width="240" height="77" rx="33" transform="translate(840 9161)"/>
                    <path id="Path_628" data-name="Path 628" class="cls-1" d="M-81.28 0v-13.96h9.2v2.34h-6.56v3.38h5.8v2.34h-5.8v3.56h6.56V0zm10.74 0 3.56-5.3-3.48-5.14h2.92l2.16 3.46h.08l2.14-3.46h2.72l-3.54 5.18L-60.42 0h-2.92l-2.2-3.6h-.08l-2.2 3.6zm11.98-10.44H-56v1.72h.08a2.625 2.625 0 0 1 1.06-1.43 3.16 3.16 0 0 1 1.82-.53 3.568 3.568 0 0 1 3.05 1.41 6.655 6.655 0 0 1 1.05 4.03 6.741 6.741 0 0 1-1.05 4.06A3.559 3.559 0 0 1-53.04.24a3.072 3.072 0 0 1-1.81-.54 2.792 2.792 0 0 1-1.07-1.44H-56V4h-2.56zm4.7 8.56a2.12 2.12 0 0 0 1.62-.66 2.5 2.5 0 0 0 .62-1.78v-1.8a2.531 2.531 0 0 0-.62-1.79 2.1 2.1 0 0 0-1.62-.67 2.469 2.469 0 0 0-1.53.46A1.453 1.453 0 0 0-56-6.9v3.32a1.46 1.46 0 0 0 .61 1.26 2.548 2.548 0 0 0 1.53.44zM-42.34.24a5.21 5.21 0 0 1-2.07-.39 4.285 4.285 0 0 1-1.54-1.1 4.92 4.92 0 0 1-.97-1.72 7.091 7.091 0 0 1-.34-2.27 7.124 7.124 0 0 1 .33-2.24 4.9 4.9 0 0 1 .95-1.71 4.21 4.21 0 0 1 1.52-1.1 5.084 5.084 0 0 1 2.04-.39 4.971 4.971 0 0 1 2.12.42 4.083 4.083 0 0 1 1.48 1.14 4.922 4.922 0 0 1 .87 1.67 6.918 6.918 0 0 1 .29 2.03v.84h-6.94v.26a2.584 2.584 0 0 0 .64 1.83 2.467 2.467 0 0 0 1.9.69 2.813 2.813 0 0 0 1.57-.4 4.5 4.5 0 0 0 1.09-1.02l1.38 1.54a4.291 4.291 0 0 1-1.75 1.41 6.1 6.1 0 0 1-2.57.51zm-.04-9a2.051 2.051 0 0 0-1.62.68 2.562 2.562 0 0 0-.6 1.76v.16h4.28v-.18a2.738 2.738 0 0 0-.53-1.75 1.835 1.835 0 0 0-1.53-.67zM-35.4 0v-10.44h2.56v2.16h.1a3.329 3.329 0 0 1 .31-.81 2.487 2.487 0 0 1 .55-.69 2.634 2.634 0 0 1 .81-.48 3.037 3.037 0 0 1 1.09-.18h.56v2.42h-.8a4.014 4.014 0 0 0-1.96.38 1.32 1.32 0 0 0-.66 1.24V0zm11.2 0a2.723 2.723 0 0 1-2.01-.69 2.665 2.665 0 0 1-.69-1.97V-8.4h-1.54v-2.04h.8a.955.955 0 0 0 .79-.27 1.307 1.307 0 0 0 .21-.81v-1.78h2.3v2.86h2.14v2.04h-2.14v6.36h1.98V0zm9.1-13.96h5.08a6.65 6.65 0 0 1 2.47.44 5.038 5.038 0 0 1 1.9 1.31 5.954 5.954 0 0 1 1.22 2.18A9.791 9.791 0 0 1-4-6.98a9.791 9.791 0 0 1-.43 3.05 5.954 5.954 0 0 1-1.22 2.18 5.038 5.038 0 0 1-1.9 1.31 6.65 6.65 0 0 1-2.47.44h-5.08zm5.08 11.62a3.175 3.175 0 0 0 2.35-.87 3.636 3.636 0 0 0 .87-2.67v-2.2a3.636 3.636 0 0 0-.87-2.67 3.175 3.175 0 0 0-2.35-.87h-2.44v9.28zm9.82-9.62a1.554 1.554 0 0 1-1.15-.36 1.265 1.265 0 0 1-.35-.92v-.4a1.265 1.265 0 0 1 .35-.92 1.554 1.554 0 0 1 1.15-.36 1.559 1.559 0 0 1 1.14.36 1.246 1.246 0 0 1 .36.92v.4a1.246 1.246 0 0 1-.36.92 1.559 1.559 0 0 1-1.14.36zm-1.28 1.52h2.56V0h-2.56zM7.46.24a5.6 5.6 0 0 1-2.52-.51 5.8 5.8 0 0 1-1.8-1.41L4.7-3.2a4.737 4.737 0 0 0 1.27 1.04 3.242 3.242 0 0 0 1.59.38 2.179 2.179 0 0 0 1.33-.32 1.055 1.055 0 0 0 .41-.88.949.949 0 0 0-.29-.73 1.841 1.841 0 0 0-.99-.37l-1.04-.14a4.948 4.948 0 0 1-2.59-.97 2.7 2.7 0 0 1-.89-2.19 3.247 3.247 0 0 1 .28-1.37 2.907 2.907 0 0 1 .8-1.04 3.665 3.665 0 0 1 1.25-.66 5.41 5.41 0 0 1 1.63-.23 7.42 7.42 0 0 1 1.35.11 4.908 4.908 0 0 1 1.07.32 4.136 4.136 0 0 1 .88.52 8.262 8.262 0 0 1 .78.69l-1.5 1.5a3.96 3.96 0 0 0-1.1-.8 3.086 3.086 0 0 0-1.4-.32 1.929 1.929 0 0 0-1.21.3.957.957 0 0 0-.37.78.991.991 0 0 0 .31.79 2.146 2.146 0 0 0 1.05.39l1.06.14q3.38.48 3.38 3.08a3.105 3.105 0 0 1-.31 1.39 3.165 3.165 0 0 1-.87 1.08 4.11 4.11 0 0 1-1.35.7 5.852 5.852 0 0 1-1.77.25zm10.68 0a5.256 5.256 0 0 1-2.06-.38 3.972 3.972 0 0 1-1.51-1.1 4.956 4.956 0 0 1-.93-1.73 7.5 7.5 0 0 1-.32-2.27 7.4 7.4 0 0 1 .32-2.26 4.862 4.862 0 0 1 .93-1.71 4.02 4.02 0 0 1 1.51-1.09 5.256 5.256 0 0 1 2.06-.38 4.545 4.545 0 0 1 2.61.7 3.928 3.928 0 0 1 1.49 1.94l-2.1.94a2.176 2.176 0 0 0-.67-1.09 1.946 1.946 0 0 0-1.33-.43 1.915 1.915 0 0 0-1.61.68A2.814 2.814 0 0 0 16-6.16v1.9a2.771 2.771 0 0 0 .53 1.77 1.927 1.927 0 0 0 1.61.67 1.994 1.994 0 0 0 1.42-.47 3.22 3.22 0 0 0 .78-1.17l1.96.94a4.1 4.1 0 0 1-1.58 2.07 4.628 4.628 0 0 1-2.58.69zm12.38-1.98h-.1a3.413 3.413 0 0 1-.37.75 2.718 2.718 0 0 1-.58.63 2.643 2.643 0 0 1-.84.44 3.641 3.641 0 0 1-1.13.16 3.008 3.008 0 0 1-2.48-1.06 4.683 4.683 0 0 1-.86-3.02v-6.6h2.56v6.34a2.753 2.753 0 0 0 .42 1.65 1.554 1.554 0 0 0 1.34.57 2.862 2.862 0 0 0 .75-.1 1.9 1.9 0 0 0 .65-.31 1.725 1.725 0 0 0 .46-.52 1.428 1.428 0 0 0 .18-.73v-6.9h2.56V0h-2.56zM39.46.24a5.6 5.6 0 0 1-2.52-.51 5.8 5.8 0 0 1-1.8-1.41L36.7-3.2a4.738 4.738 0 0 0 1.27 1.04 3.242 3.242 0 0 0 1.59.38 2.179 2.179 0 0 0 1.33-.32 1.055 1.055 0 0 0 .41-.88.949.949 0 0 0-.29-.73 1.841 1.841 0 0 0-.99-.37l-1.04-.14a4.948 4.948 0 0 1-2.59-.97 2.7 2.7 0 0 1-.89-2.19 3.247 3.247 0 0 1 .28-1.37 2.907 2.907 0 0 1 .8-1.04 3.665 3.665 0 0 1 1.25-.66 5.41 5.41 0 0 1 1.63-.23 7.42 7.42 0 0 1 1.35.11 4.908 4.908 0 0 1 1.07.32 4.136 4.136 0 0 1 .88.52 8.262 8.262 0 0 1 .78.69l-1.5 1.5a3.96 3.96 0 0 0-1.1-.8 3.086 3.086 0 0 0-1.4-.32 1.929 1.929 0 0 0-1.21.3.957.957 0 0 0-.37.78.991.991 0 0 0 .31.79 2.146 2.146 0 0 0 1.05.39l1.06.14q3.38.48 3.38 3.08a3.105 3.105 0 0 1-.31 1.39 3.165 3.165 0 0 1-.87 1.08 4.11 4.11 0 0 1-1.35.7 5.852 5.852 0 0 1-1.77.25zm9.84 0a5.6 5.6 0 0 1-2.52-.51 5.8 5.8 0 0 1-1.8-1.41l1.56-1.52a4.738 4.738 0 0 0 1.27 1.04 3.242 3.242 0 0 0 1.59.38 2.179 2.179 0 0 0 1.33-.32 1.055 1.055 0 0 0 .41-.88.949.949 0 0 0-.29-.73 1.841 1.841 0 0 0-.99-.37l-1.04-.14a4.948 4.948 0 0 1-2.59-.97 2.7 2.7 0 0 1-.89-2.19 3.247 3.247 0 0 1 .28-1.37 2.907 2.907 0 0 1 .8-1.04 3.665 3.665 0 0 1 1.25-.66 5.41 5.41 0 0 1 1.63-.23 7.42 7.42 0 0 1 1.35.11 4.908 4.908 0 0 1 1.07.32 4.136 4.136 0 0 1 .88.52 8.262 8.262 0 0 1 .78.69l-1.5 1.5a3.96 3.96 0 0 0-1.1-.8 3.086 3.086 0 0 0-1.4-.32 1.929 1.929 0 0 0-1.21.3.957.957 0 0 0-.37.78.991.991 0 0 0 .31.79 2.146 2.146 0 0 0 1.05.39l1.06.14q3.38.48 3.38 3.08a3.105 3.105 0 0 1-.31 1.39 3.165 3.165 0 0 1-.87 1.08 4.11 4.11 0 0 1-1.35.7 5.852 5.852 0 0 1-1.77.25zm7.84-12.2a1.554 1.554 0 0 1-1.15-.36 1.265 1.265 0 0 1-.35-.92v-.4a1.265 1.265 0 0 1 .35-.92 1.554 1.554 0 0 1 1.15-.36 1.559 1.559 0 0 1 1.14.36 1.246 1.246 0 0 1 .36.92v.4a1.246 1.246 0 0 1-.36.92 1.559 1.559 0 0 1-1.14.36zm-1.28 1.52h2.56V0h-2.56zM65.52.24a5.073 5.073 0 0 1-2.01-.38 4.167 4.167 0 0 1-1.52-1.1 5.028 5.028 0 0 1-.97-1.73 7.091 7.091 0 0 1-.34-2.27 7 7 0 0 1 .34-2.26 4.934 4.934 0 0 1 .97-1.71 4.22 4.22 0 0 1 1.52-1.09 5.073 5.073 0 0 1 2.01-.38 5.146 5.146 0 0 1 2.02.38 4.2 4.2 0 0 1 1.53 1.09 4.934 4.934 0 0 1 .97 1.71 7 7 0 0 1 .34 2.26 7.091 7.091 0 0 1-.34 2.27 5.028 5.028 0 0 1-.97 1.73 4.148 4.148 0 0 1-1.53 1.1 5.146 5.146 0 0 1-2.02.38zm0-2.06a2.084 2.084 0 0 0 1.6-.62 2.572 2.572 0 0 0 .58-1.82V-6.2a2.541 2.541 0 0 0-.58-1.8 2.084 2.084 0 0 0-1.6-.62 2.059 2.059 0 0 0-1.58.62 2.541 2.541 0 0 0-.58 1.8v1.94a2.572 2.572 0 0 0 .58 1.82 2.059 2.059 0 0 0 1.58.62zM72.64 0v-10.44h2.56v1.74h.1a3.341 3.341 0 0 1 1.01-1.41 2.914 2.914 0 0 1 1.91-.57 3.008 3.008 0 0 1 2.48 1.06 4.683 4.683 0 0 1 .86 3.02V0H79v-6.34a2.892 2.892 0 0 0-.4-1.68 1.51 1.51 0 0 0-1.32-.56 2.688 2.688 0 0 0-.77.11 2.169 2.169 0 0 0-.66.32 1.671 1.671 0 0 0-.47.52 1.428 1.428 0 0 0-.18.73V0z" transform="translate(960 9205)"/>
                </g>
            </g>
        </g>
        <g id="Group_1438" data-name="Group 1438">
            <g id="Group_1243" data-name="Group 1243">
                <rect id="Rectangle_812" data-name="Rectangle 812" class="cls-1" width="543.999" height="665" rx="15" transform="rotate(180 367.5 4319.5)"/>
                <path id="Polygon_47" data-name="Polygon 47" class="cls-1" d="M28.158 20.066a4 4 0 0 1 7.851 0l27.225 139.166A4 4 0 0 1 59.309 164H4.858a4 4 0 0 1-3.926-4.768z" transform="rotate(90 -3706.5 4596.5)"/>
            </g>
            <text id="การจัดการโครงสร้างเครือข่ายบริการสุขภาพระดับจังหวัด-2" data-name="การจัดการโครงสร้างเครือข่ายบริการสุขภาพระดับจังหวัด" class="cls-3" transform="translate(226 8095.5)"><tspan x="0" y="28">การจัดการโครงสร้างเครือข่ายบริการสุขภาพ</tspan><tspan x="0" y="69">ระดับจังหวัด</tspan></text>
            <text id="ทำความเข้าใจระบบกับผู้ที่เกี่ยวข้องจริงในระดับจังหวัด_รวมทั้งหาช่องว่างในระบบบริการสุขภาพ_และหาแนวทางการจัดการเครือข่ายบริการสุขภาพรูปแบบใหม่ร่วมกัน_ผ่านเครื่องมือ_patient_journey" data-name="ทำความเข้าใจระบบกับผู้ที่เกี่ยวข้องจริงในระดับจังหวัด รวมทั้งหาช่องว่างในระบบบริการสุขภาพ และหาแนวทางการจัดการเครือข่ายบริการสุขภาพรูปแบบใหม่ร่วมกัน ผ่านเครื่องมือ patient journey" class="cls-4" transform="translate(226 8260)"><tspan x="0" y="20">ทำความเข้าใจระบบกับผู้ที่เกี่ยวข้องจริงในระดับจังหวัด รวม</tspan><tspan x="0" y="50">ทั้งหาช่องว่างในระบบบริการสุขภาพ และหาแนวทางการ</tspan><tspan x="0" y="80">จัดการเครือข่ายบริการสุขภาพรูปแบบใหม่ร่วมกัน ผ่านเครื่อง</tspan><tspan x="0" y="110">มือ </tspan><tspan y="110">patient journey</tspan></text>
            <text id="_-_หน่วยบริหาร_สสจ._อบจ._อบต._-_หน่วยบริการสุขภาพ_รพศ._รพช._โรงพยาบาลแม่ข่าย_รพ.สต._จ.เชียงใหม่" data-name="- หน่วยบริหาร (สสจ. อบจ. อบต.) - หน่วยบริการสุขภาพ (รพศ. รพช. โรงพยาบาลแม่ข่าย รพ.สต.) จ.เชียงใหม่" class="cls-4" transform="translate(226 8501)"><tspan x="0" y="20">- หน่วยบริหาร (สสจ. อบจ. อบต.)</tspan><tspan x="0" y="50">- หน่วยบริการสุขภาพ (รพศ. รพช. โรงพยาบาลแม่ข่าย </tspan><tspan x="0" y="80">รพ.สต.) จ.เชียงใหม่</tspan></text>
            <g id="Group_873" data-name="Group 873" transform="translate(6 954.001)">
                <rect id="Rectangle_813-3" data-name="Rectangle 813" class="cls-5" width="178" height="41.999" rx="21" transform="translate(220 7481)"/>
                <path id="Path_730" data-name="Path 730" class="cls-1" d="M4.158.216A2.14 2.14 0 0 0 6.39-1.71h.09A2.157 2.157 0 0 0 8.73.216c1.422 0 2.286-.99 2.286-2.628v-7.416h-1.44v7.236c0 1.134-.468 1.728-1.224 1.728s-1.206-.63-1.206-1.728V-4.77h-1.44v2.178c0 1.1-.45 1.728-1.206 1.728s-1.224-.594-1.224-1.728v-4a1.976 1.976 0 0 0 .468.036A1.729 1.729 0 0 0 5.652-8.3a1.729 1.729 0 0 0-1.908-1.746A1.729 1.729 0 0 0 1.836-8.3v5.886c0 1.622.882 2.63 2.322 2.63zM3.8-7.344a.862.862 0 0 1-.884-.956.862.862 0 0 1 .884-.952.862.862 0 0 1 .88.952.862.862 0 0 1-.88.956zm2.122 12.15H6.1v.648a.929.929 0 0 0 1.044.972h2.07a1.766 1.766 0 0 0 1.8-2.016V2.034h-1.4v2.412c0 .522-.27.774-.882.774h-1.19V3.348A1.426 1.426 0 0 0 5.958 1.89 1.487 1.487 0 0 0 4.3 3.348a1.446 1.446 0 0 0 1.622 1.458zm-.036-.792a.6.6 0 0 1-.648-.666.6.6 0 0 1 .648-.666.588.588 0 0 1 .63.666.588.588 0 0 1-.63.666zm1.458-15.768h3.564c.882 0 1.188-.4 1.512-1.17l.81-1.908h-1.224L11.2-12.6H9.036v-.126c.864-.432 1.08-.882 1.08-1.44a1.354 1.354 0 0 0-1.494-1.386 1.354 1.354 0 0 0-1.494 1.386 1.244 1.244 0 0 0 1.188 1.3v.036l-.972.558zm1.278-1.656a.676.676 0 0 1-.72-.738.676.676 0 0 1 .72-.738.676.676 0 0 1 .72.738.676.676 0 0 1-.72.738zM16.56.216a1.729 1.729 0 0 0 1.908-1.746 1.729 1.729 0 0 0-1.908-1.746 3.8 3.8 0 0 0-.468.036v-6.588h-1.44v8.3A1.729 1.729 0 0 0 16.56.216zm.054-.792a.862.862 0 0 1-.882-.954.862.862 0 0 1 .882-.954.862.862 0 0 1 .882.954.862.862 0 0 1-.882.954zm8.01.792c2.106 0 3.618-1.3 3.618-3.276v-6.768H26.8v6.714a2.079 2.079 0 0 1-2.178 2.25 1.861 1.861 0 0 1-2.07-1.944v-.234a3.224 3.224 0 0 1 1.062-2.214 3.348 3.348 0 0 0 1.062-2.412c0-1.422-.99-2.376-2.79-2.376a2.46 2.46 0 0 0-2.736 2.322 1.556 1.556 0 0 0 1.62 1.71 1.509 1.509 0 0 0 1.62-1.53 1.29 1.29 0 0 0-1.386-1.332 1.4 1.4 0 0 0-.288.036l-.036-.09a2.877 2.877 0 0 1 .954-.144c1.116 0 1.782.468 1.782 1.458a3.125 3.125 0 0 1-1.06 2.124 3.732 3.732 0 0 0-1.242 2.682c0 1.836 1.404 3.024 3.51 3.024zM20.808-6.75a.752.752 0 0 1-.774-.828.752.752 0 0 1 .774-.828.752.752 0 0 1 .774.828.752.752 0 0 1-.774.828zm3.762-5h3.564c.882 0 1.188-.4 1.512-1.17l.81-1.908h-1.224l-.81 2.232h-2.16v-.126c.864-.432 1.08-.882 1.08-1.44a1.354 1.354 0 0 0-1.494-1.386 1.354 1.354 0 0 0-1.494 1.386 1.244 1.244 0 0 0 1.188 1.3v.036l-.972.558zm1.278-1.656a.676.676 0 0 1-.72-.738.676.676 0 0 1 .72-.738.676.676 0 0 1 .72.738.676.676 0 0 1-.72.734zM37.314 0v-6.876c0-2-1.224-3.168-3.456-3.168a3.709 3.709 0 0 0-3.546 1.836l.882.774a2.662 2.662 0 0 1 2.484-1.53 1.966 1.966 0 0 1 2.2 2.214V0zm8.01.216a1.753 1.753 0 0 0 1.944-1.764V-4c0-1.728-.828-2.268-2.448-2.376l-3.492-.234v-.216c0-1.494 1.206-2.142 2.952-2.142a3.447 3.447 0 0 1 2.988 1.35l.81-.882a4.586 4.586 0 0 0-3.852-1.548c-2.628 0-4.3 1.26-4.3 3.564v.846l4.608.342c.99.072 1.3.378 1.3 1.26v.774a2.277 2.277 0 0 0-.5-.054 1.753 1.753 0 0 0-1.954 1.768A1.753 1.753 0 0 0 45.324.216zm-.054-2.772a.922.922 0 0 1 .954 1.008.922.922 0 0 1-.954 1.008.922.922 0 0 1-.954-1.008.922.922 0 0 1 .954-1.008zm.594-12.492.2 3.294h.99l.2-3.294zM54.558.216a1.729 1.729 0 0 0 1.908-1.746v-5.31c0-2-1.242-3.2-3.474-3.2a3.74 3.74 0 0 0-3.564 1.836l.882.774a2.689 2.689 0 0 1 2.5-1.53 1.992 1.992 0 0 1 2.214 2.232v3.488a4.1 4.1 0 0 0-.468-.036A1.729 1.729 0 0 0 52.65-1.53 1.729 1.729 0 0 0 54.558.216zM54.5-.576a.862.862 0 0 1-.882-.954.862.862 0 0 1 .882-.954.862.862 0 0 1 .882.954.862.862 0 0 1-.882.954zm6.52.792a1.746 1.746 0 0 0 1.908-1.782.876.876 0 0 0-.018-.216L66.87 0h1.35v-9.828h-1.44v8.676h-.072L62.91-2.88V-8.3A1.729 1.729 0 0 0 61-10.044 1.729 1.729 0 0 0 59.094-8.3 1.729 1.729 0 0 0 61-6.552a2.053 2.053 0 0 0 .468-.036v2.61a2.489 2.489 0 0 0 .072.684 2.444 2.444 0 0 0-.522-.054 1.746 1.746 0 0 0-1.908 1.782A1.746 1.746 0 0 0 61.02.216zm0-.792a.83.83 0 0 1-.936-.846v-.288a.83.83 0 0 1 .936-.846.83.83 0 0 1 .936.846v.288a.83.83 0 0 1-.936.846zm-.072-6.768a.862.862 0 0 1-.882-.954.862.862 0 0 1 .882-.954.862.862 0 0 1 .882.954.862.862 0 0 1-.882.954zm22.986-.612c0-2.988-1.6-4.824-4.212-4.824a3.944 3.944 0 0 0-4.176 4.158 3.588 3.588 0 0 0 3.708 3.87 3.281 3.281 0 0 0 3.024-1.8l.09.036C81.684-3.6 80.19-1.962 77.508 0h1.944a9.934 9.934 0 0 0 4.482-7.956zM79.74-6.03a2.4 2.4 0 0 1-2.628-2.646v-.144a2.4 2.4 0 0 1 2.628-2.646 2.4 2.4 0 0 1 2.628 2.646v.144A2.4 2.4 0 0 1 79.74-6.03zM91.188 0h1.44v-2.214a2.715 2.715 0 0 1 1.26-2.2l.036.018v.162a1.645 1.645 0 0 0 1.764 1.764 1.688 1.688 0 0 0 1.854-1.76 1.688 1.688 0 0 0-1.854-1.764 3.162 3.162 0 0 0-2.97 2.142h-.09v-2.16a2.764 2.764 0 0 1 3.06-2.952 2.764 2.764 0 0 1 3.06 2.952V0h1.44v-6.21c0-2.34-1.71-3.834-4.5-3.834s-4.5 1.494-4.5 3.834zm4.5-3.258a.868.868 0 0 1-.882-.972.868.868 0 0 1 .882-.972.868.868 0 0 1 .882.972.868.868 0 0 1-.882.972zM111.564.216a1.746 1.746 0 0 0 1.908-1.782 1.708 1.708 0 0 0-1.584-1.764 1.845 1.845 0 0 0 .162-.9v-5.6h-1.44v6.714l-4.176 1.962h-.072V-8.3a1.729 1.729 0 0 0-1.908-1.746 1.729 1.729 0 0 0-1.908 1.746 1.729 1.729 0 0 0 1.908 1.746 2.053 2.053 0 0 0 .468-.036V0h1.368l3.366-1.584v.018a1.746 1.746 0 0 0 1.908 1.782zm0-.792a.83.83 0 0 1-.936-.846v-.288a.83.83 0 0 1 .936-.846.83.83 0 0 1 .936.846v.288a.83.83 0 0 1-.936.846zM104.4-7.344a.862.862 0 0 1-.882-.954.862.862 0 0 1 .882-.954.862.862 0 0 1 .882.954.862.862 0 0 1-.882.954z" transform="translate(252 7508)"/>
            </g>
            <g id="Group_871" data-name="Group 871" transform="translate(104 7972)">
                <path id="Path_621" data-name="Path 621" class="cls-6" d="M1.771 0v-16.054h7.59a5.149 5.149 0 0 1 2.024.38 4.489 4.489 0 0 1 1.53 1.047 4.588 4.588 0 0 1 .977 1.621 6.081 6.081 0 0 1 .345 2.082 6.054 6.054 0 0 1-.345 2.093 4.606 4.606 0 0 1-.977 1.61 4.489 4.489 0 0 1-1.53 1.047 5.149 5.149 0 0 1-2.024.374H5.267V0zm3.5-8.832h3.68a1.776 1.776 0 0 0 1.231-.4 1.51 1.51 0 0 0 .449-1.185v-1.012a1.51 1.51 0 0 0-.449-1.185 1.776 1.776 0 0 0-1.231-.4H5.267zM21.114.276a6.13 6.13 0 0 1-2.381-.437 4.75 4.75 0 0 1-1.771-1.265 5.766 5.766 0 0 1-1.115-2 8.261 8.261 0 0 1-.391-2.622 8.261 8.261 0 0 1 .391-2.622 5.643 5.643 0 0 1 1.115-1.989 4.809 4.809 0 0 1 1.771-1.254 6.13 6.13 0 0 1 2.381-.437 6.13 6.13 0 0 1 2.38.437 4.809 4.809 0 0 1 1.771 1.254 5.644 5.644 0 0 1 1.116 1.989 8.261 8.261 0 0 1 .391 2.622 8.261 8.261 0 0 1-.391 2.622 5.766 5.766 0 0 1-1.116 2 4.75 4.75 0 0 1-1.771 1.265 6.13 6.13 0 0 1-2.38.437zm0-2.691a1.983 1.983 0 0 0 1.564-.621 2.58 2.58 0 0 0 .552-1.771v-2.461a2.58 2.58 0 0 0-.552-1.771 1.983 1.983 0 0 0-1.564-.621 1.983 1.983 0 0 0-1.564.621A2.58 2.58 0 0 0 19-7.268v2.461a2.58 2.58 0 0 0 .552 1.771 1.983 1.983 0 0 0 1.562.621zM32.568 0A3.413 3.413 0 0 1 30-.851a3.418 3.418 0 0 1-.816-2.461V-17.02h3.4v14.375h1.518V0zm5.29-13.363a2.063 2.063 0 0 1-1.507-.472 1.635 1.635 0 0 1-.472-1.208v-.506a1.635 1.635 0 0 1 .472-1.208 2.063 2.063 0 0 1 1.507-.472 2.063 2.063 0 0 1 1.507.472 1.635 1.635 0 0 1 .471 1.208v.506a1.635 1.635 0 0 1-.471 1.208 2.063 2.063 0 0 1-1.507.472zm-1.7 1.288h3.4V0h-3.4zM47.61.276a6.138 6.138 0 0 1-2.415-.448 4.8 4.8 0 0 1-1.771-1.265 5.469 5.469 0 0 1-1.081-1.99 8.737 8.737 0 0 1-.368-2.622 8.624 8.624 0 0 1 .368-2.61 5.6 5.6 0 0 1 1.081-1.99 4.63 4.63 0 0 1 1.771-1.265 6.28 6.28 0 0 1 2.415-.437 5.38 5.38 0 0 1 3.07.828A4.533 4.533 0 0 1 52.44-9.2L49.68-8a2.314 2.314 0 0 0-.667-1.173 1.949 1.949 0 0 0-1.4-.483 1.862 1.862 0 0 0-1.564.678 2.9 2.9 0 0 0-.529 1.829V-4.9a2.847 2.847 0 0 0 .529 1.817 1.876 1.876 0 0 0 1.564.667 2.08 2.08 0 0 0 1.46-.494 2.894 2.894 0 0 0 .793-1.3l2.645 1.15A4.7 4.7 0 0 1 50.66-.53a5.523 5.523 0 0 1-3.05.806zm14.4-12.351h3.174L60.536 1.863a4.25 4.25 0 0 1-1.3 2.07 3.786 3.786 0 0 1-2.4.667h-2.119V1.955h2.277l.414-1.334-4.232-12.7h3.381l1.771 5.639.874 3.5h.138l.9-3.5zM1.771 10.946H7.82a7.987 7.987 0 0 1 2.9.506 5.842 5.842 0 0 1 2.231 1.507 6.883 6.883 0 0 1 1.426 2.507 11.023 11.023 0 0 1 .506 3.507 11.023 11.023 0 0 1-.506 3.507 6.883 6.883 0 0 1-1.426 2.507 5.842 5.842 0 0 1-2.231 1.507 7.987 7.987 0 0 1-2.9.506H1.771zM7.82 23.9a3.376 3.376 0 0 0 2.461-.874 3.782 3.782 0 0 0 .9-2.806v-2.489a3.782 3.782 0 0 0-.9-2.806 3.376 3.376 0 0 0-2.461-.874H5.267V23.9zm11.5-10.258a2.063 2.063 0 0 1-1.507-.472 1.635 1.635 0 0 1-.471-1.208v-.506a1.635 1.635 0 0 1 .471-1.208 2.063 2.063 0 0 1 1.507-.472 2.063 2.063 0 0 1 1.507.472 1.635 1.635 0 0 1 .472 1.208v.506a1.635 1.635 0 0 1-.472 1.208 2.063 2.063 0 0 1-1.507.467zm-1.7 1.288h3.4V27h-3.4zM33.12 27a2.141 2.141 0 0 1-1.529-.575 2.644 2.644 0 0 1-.771-1.541h-.138a2.792 2.792 0 0 1-1.219 1.782 4.193 4.193 0 0 1-2.323.609 3.767 3.767 0 0 1-2.783-.966 3.451 3.451 0 0 1-.966-2.553 3.184 3.184 0 0 1 1.392-2.84 6.722 6.722 0 0 1 3.784-.931h1.909v-.759a2.018 2.018 0 0 0-.46-1.392 1.976 1.976 0 0 0-1.541-.517 2.673 2.673 0 0 0-1.61.437 4.322 4.322 0 0 0-.989.989l-2.024-1.794a5.278 5.278 0 0 1 1.851-1.69 6.335 6.335 0 0 1 3.024-.609 5.727 5.727 0 0 1 3.864 1.127 4.136 4.136 0 0 1 1.288 3.289v5.29h1.127V27zm-4.72-2.093a2.773 2.773 0 0 0 1.461-.368 1.29 1.29 0 0 0 .609-1.2v-1.422h-1.651q-2 0-2 1.357v.345a1.142 1.142 0 0 0 .414.978 1.924 1.924 0 0 0 1.167.31zM40.664 27a3.413 3.413 0 0 1-2.564-.851 3.418 3.418 0 0 1-.816-2.461V9.98h3.4v14.375H42.2V27zm8.487.276a6.13 6.13 0 0 1-2.381-.437A4.75 4.75 0 0 1 45 25.574a5.766 5.766 0 0 1-1.115-2 8.261 8.261 0 0 1-.391-2.622 8.261 8.261 0 0 1 .391-2.622A5.643 5.643 0 0 1 45 16.34a4.809 4.809 0 0 1 1.771-1.254 6.7 6.7 0 0 1 4.761 0A4.809 4.809 0 0 1 53.3 16.34a5.643 5.643 0 0 1 1.115 1.989 8.261 8.261 0 0 1 .391 2.622 8.261 8.261 0 0 1-.391 2.622 5.766 5.766 0 0 1-1.115 2 4.75 4.75 0 0 1-1.771 1.265 6.13 6.13 0 0 1-2.378.438zm0-2.691a1.983 1.983 0 0 0 1.564-.621 2.58 2.58 0 0 0 .552-1.771v-2.461a2.58 2.58 0 0 0-.552-1.771 2.28 2.28 0 0 0-3.128 0 2.58 2.58 0 0 0-.552 1.771v2.461a2.58 2.58 0 0 0 .552 1.771 1.983 1.983 0 0 0 1.564.621zM68.4 27.874a4.086 4.086 0 0 1-.334 1.7 3.032 3.032 0 0 1-1.092 1.253 5.629 5.629 0 0 1-2.012.782 18.187 18.187 0 0 1-5.75.069 6.194 6.194 0 0 1-1.771-.552 2.427 2.427 0 0 1-.989-.874 2.257 2.257 0 0 1-.311-1.184 2.1 2.1 0 0 1 .6-1.587 2.847 2.847 0 0 1 1.659-.711v-.253a2.011 2.011 0 0 1-1.311-.747 2.228 2.228 0 0 1-.437-1.368 1.72 1.72 0 0 1 .2-.84 2.2 2.2 0 0 1 .506-.621 2.508 2.508 0 0 1 .724-.426 5.687 5.687 0 0 1 .828-.253v-.092a3.554 3.554 0 0 1-1.633-1.392 3.937 3.937 0 0 1-.529-2.059 3.732 3.732 0 0 1 1.277-2.955 5.8 5.8 0 0 1 3.9-1.115 7.93 7.93 0 0 1 2.047.23v-.46a1.794 1.794 0 0 1 .472-1.392 1.941 1.941 0 0 1 1.336-.427h1.909v2.53h-2.668v.138a3.445 3.445 0 0 1 1.564 1.391 4.077 4.077 0 0 1 .506 2.059 3.638 3.638 0 0 1-1.277 2.91 5.886 5.886 0 0 1-3.9 1.093 8.438 8.438 0 0 1-2.139-.253 1.091 1.091 0 0 0-.529.966.789.789 0 0 0 .333.679 1.955 1.955 0 0 0 1.116.241h3.5a4.65 4.65 0 0 1 3.209.92 3.354 3.354 0 0 1 .996 2.6zm-3.2.46a.907.907 0 0 0-.414-.805 2.76 2.76 0 0 0-1.449-.276H59.2a1.4 1.4 0 0 0-.333.517 1.657 1.657 0 0 0-.1.563 1.035 1.035 0 0 0 .575.978 4.423 4.423 0 0 0 1.955.31h1.38a4.423 4.423 0 0 0 1.955-.31 1.035 1.035 0 0 0 .573-.977zm-3.289-7.843a2.265 2.265 0 0 0 1.507-.426 1.534 1.534 0 0 0 .494-1.231v-.276a1.534 1.534 0 0 0-.494-1.231 2.88 2.88 0 0 0-3.013 0 1.534 1.534 0 0 0-.494 1.231v.276a1.534 1.534 0 0 0 .494 1.231 2.265 2.265 0 0 0 1.511.426zm15.042 4.485h-.115a4.188 4.188 0 0 1-.425.874 2.929 2.929 0 0 1-.678.736 3.188 3.188 0 0 1-.978.506 4.187 4.187 0 0 1-1.3.184 3.347 3.347 0 0 1-2.817-1.23 5.66 5.66 0 0 1-.955-3.531v-7.59h3.4v7.291a3.106 3.106 0 0 0 .391 1.7 1.472 1.472 0 0 0 1.334.6 2.759 2.759 0 0 0 .79-.116 2.22 2.22 0 0 0 .69-.333 1.717 1.717 0 0 0 .483-.541 1.5 1.5 0 0 0 .184-.759v-7.842h3.4V27h-3.4zm11.615 2.3a6.373 6.373 0 0 1-2.461-.448 5.081 5.081 0 0 1-1.828-1.265 5.329 5.329 0 0 1-1.127-1.99 8.492 8.492 0 0 1-.379-2.622 8.541 8.541 0 0 1 .368-2.587 5.5 5.5 0 0 1 1.092-1.99A4.843 4.843 0 0 1 86.02 15.1a6.138 6.138 0 0 1 2.415-.449 5.953 5.953 0 0 1 2.565.504 4.841 4.841 0 0 1 1.748 1.357 5.467 5.467 0 0 1 .989 1.966 8.666 8.666 0 0 1 .311 2.334v1.012H86.3v.184a2.7 2.7 0 0 0 .644 1.9 2.624 2.624 0 0 0 2.024.7 3.16 3.16 0 0 0 1.725-.426 6.781 6.781 0 0 0 1.242-1.023l1.7 2.116a5.369 5.369 0 0 1-2.1 1.472 7.783 7.783 0 0 1-2.962.529zm-.068-10.12a2.03 2.03 0 0 0-1.621.678 2.665 2.665 0 0 0-.579 1.806v.184h4.232v-.207a2.957 2.957 0 0 0-.494-1.783 1.766 1.766 0 0 0-1.538-.678z" transform="translate(204 68)"/>
                <g id="Group_533-2" data-name="Group 533" transform="translate(122 46.605)">
                    <path id="Subtraction_1-2" data-name="Subtraction 1" class="cls-7" d="M11301.776 3006.375a.812.812 0 0 1-.325-.071.737.737 0 0 1-.428-.871l4.541-19.229 4.388-18.572a18.8 18.8 0 0 1 18.378-14.767h9.409a18.762 18.762 0 0 1 13.3 5.509 18.926 18.926 0 0 1 2.994 3.9h8.193l2.146-3.072 8.712-12.478a.731.731 0 0 1 .611-.33.809.809 0 0 1 .325.07.748.748 0 0 1 .429.871l-4.542 19.229-4.388 18.575a18.8 18.8 0 0 1-18.378 14.764h-9.409a18.745 18.745 0 0 1-13.3-5.51 18.946 18.946 0 0 1-2.994-3.9h-8.2l-2.145 3.069-8.712 12.478a.73.73 0 0 1-.605.335zm35.96-44.1a18.8 18.8 0 0 0-16.291 28.224h16.291a18.809 18.809 0 0 0 16.295-28.224h-16.295z" transform="translate(-11300.999 -2946.396)"/>
                </g>
            </g>
            <g id="Group_872" data-name="Group 872" transform="translate(6 639)">
                <g id="Ellipse_1346-2" data-name="Ellipse 1346" class="cls-8" transform="translate(628 7373)">
                    <circle class="cls-12" cx="33" cy="33" r="33"/>
                    <circle class="cls-13" cx="33" cy="33" r="32"/>
                </g>
                <path id="Path_646" data-name="Path 646" class="cls-6" d="M-7.315 0v-3.745H-.6V-21.1h-.31l-5.32 6.3-2.87-2.42 6.055-7.21H3.92v20.685h5.6V0z" transform="translate(661 7417)"/>
            </g>
            <g id="Group_874" data-name="Group 874" transform="translate(6 713)">
                <rect id="Rectangle_813-4" data-name="Rectangle 813" class="cls-2" width="99" height="42" rx="21" transform="translate(220 7481)"/>
                <path id="Path_729" data-name="Path 729" class="cls-1" d="M6.372.216c3.24 0 5.328-2.286 5.328-6.5s-2.088-6.5-5.328-6.5-5.328 2.286-5.328 6.5 2.088 6.5 5.328 6.5zm0-1.35c-2.178 0-3.708-1.62-3.708-4.1v-2.092c0-2.484 1.53-4.1 3.708-4.1s3.708 1.62 3.708 4.1v2.088c0 2.484-1.53 4.104-3.708 4.104zM14.778 0h1.44v-8.028h2v-1.26h-2v-2.772h2v-1.26h-1.4a1.918 1.918 0 0 0-2.034 2.16v1.872h-1.518v1.26h1.512zm5.832 0h1.44v-8.028h2v-1.26h-2v-2.772h2v-1.26h-1.4a1.918 1.918 0 0 0-2.034 2.16v1.872H19.1v1.26h1.51zm8.136 0v-1.26h-1.368v-12.06h-1.44v11.826A1.408 1.408 0 0 0 27.468 0zm2.808-11.466c.612 0 .882-.324.882-.81v-.234c0-.486-.27-.81-.882-.81s-.882.324-.882.81v.234c0 .486.27.81.882.81zM30.834 0h1.44v-9.288h-1.44zm5.94 0v-6.444c0-1.188 1.116-1.764 2.268-1.764 1.386 0 2.106.846 2.106 2.5V0h1.44v-5.958c0-2.25-1.206-3.546-3.114-3.546a2.633 2.633 0 0 0-2.628 1.728h-.072v-1.512h-1.44V0zM49.05.216a3.9 3.9 0 0 0 3.672-2.124L51.7-2.646a2.692 2.692 0 0 1-2.556 1.6 2.631 2.631 0 0 1-2.754-2.808v-.432h6.678v-.684c0-2.628-1.53-4.536-4.014-4.536-2.52 0-4.176 1.908-4.176 4.86S46.53.216 49.05.216zm0-8.514a2.47 2.47 0 0 1 2.466 2.736v.2h-5.13v-.128A2.64 2.64 0 0 1 49.05-8.3z" transform="translate(243 7508)"/>
            </g>
        </g>
        <g id="Group_1439" data-name="Group 1439">
            <g id="Group_1244" data-name="Group 1244">
                <rect id="Rectangle_828" data-name="Rectangle 828" class="cls-1" width="543.999" height="973.563" rx="15" transform="rotate(180 864.499 4595.282)"/>
                <path id="Polygon_48" data-name="Polygon 48" class="cls-1" d="M27.182 24.29a5 5 0 0 1 9.8 0l25.976 128.721a5 5 0 0 1-4.9 5.989H6.11a5 5 0 0 1-4.9-5.989z" transform="rotate(-90 4950.793 3915.791)"/>
            </g>
            <path id="Rectangle_829" data-name="Rectangle 829" class="cls-2" transform="rotate(180 847 4383)" d="M0 0h474v1H0z"/>
            <text id="การจัดการโครงสร้างเครือข่ายบริการสุขภาพระดับจังหวัด-3" data-name="การจัดการโครงสร้างเครือข่ายบริการสุขภาพระดับจังหวัด" class="cls-3" transform="translate(1220 8338.5)"><tspan x="0" y="28">การจัดการโครงสร้างเครือข่ายบริการสุขภาพ</tspan><tspan x="0" y="69">ระดับจังหวัด</tspan></text>
            <text id="_-_หา_จุดร่วม_ในการยกระดับเครือข่ายบริการสุขภาพสำหรับผู้สูงอายุในระดับจังหวัด_ทำให้เกิดบริการสุขภาพที่เชื่อมโยงกันตั้งแต่ระดับโรงพยาบาลจนถึงชุมชน_จากตัวแทนผู้ที่เกี่ยวข้องกับบริการสุขหลายจังหวัดหลายเขตสุขภาพ_-_ทบทวนเส้นทางและปัญหาจากประสบการณ์ของผู้สูงอ" data-name="- หา ‘จุดร่วม’ ในการยกระดับเครือข่ายบริการสุขภาพสำหรับผู้สูงอายุในระดับจังหวัด ทำให้เกิดบริการสุขภาพที่เชื่อมโยงกันตั้งแต่ระดับโรงพยาบาลจนถึงชุมชน จากตัวแทนผู้ที่เกี่ยวข้องกับบริการสุขหลายจังหวัดหลายเขตสุขภาพ - ทบทวนเส้นทางและปัญหาจากประสบการณ์ของผู้สูงอ" class="cls-4" transform="translate(1220 8503)"><tspan x="0" y="20">- หา ‘จุดร่วม’ ในการยกระดับเครือข่ายบริการสุขภาพสำหรับ</tspan><tspan x="0" y="50">ผู้สูงอายุในระดับจังหวัด ทำให้เกิดบริการสุขภาพที่เชื่อมโยง</tspan><tspan x="0" y="80">กันตั้งแต่ระดับโรงพยาบาลจนถึงชุมชน จากตัวแทนผู้ที่</tspan><tspan x="0" y="110" xml:space="preserve">เกี่ยวข้องกับบริการสุขหลายจังหวัดหลายเขตสุขภาพ  </tspan><tspan x="0" y="140">- ทบทวนเส้นทางและปัญหาจากประสบการณ์ของผู้สูงอายุใน</tspan><tspan x="0" y="170">การรับบริการสุขภาพ (</tspan><tspan y="170">patient journey) </tspan><tspan y="170">กับผู้เข้าร่วมที่มาจาก</tspan><tspan x="0" y="200">หลายบริบท เพื่อให้ได้แนวทางข้อเสนอเชิงนโยบายที่เป็นไปได้</tspan><tspan x="0" y="230" xml:space="preserve">และมีโอกาสขยายผลได้         </tspan></text>
            <text id="_-_ตัวแทนหน่วยบริการทางสุขภาพทุกระดับในจังหวัด_-_เจ้าหน้าที่หรือแพทย์ที่ให้บริการสำหรับผู้สูงอายุหลายบริการ_ได้แก่_การดูแลระยะกลาง_ระยะยาว_การดูแลแบบประคับประคอง_และภาวะสมองเสื่อม_-_หน่วยบริหารที่เกี่ยวข้องทุกระดับ_ได้แก่_สสจ._สสอ._และองค์การปกรองส่วนท้อง" data-name="- ตัวแทนหน่วยบริการทางสุขภาพทุกระดับในจังหวัด - เจ้าหน้าที่หรือแพทย์ที่ให้บริการสำหรับผู้สูงอายุหลายบริการ ได้แก่ การดูแลระยะกลาง ระยะยาว การดูแลแบบประคับประคอง และภาวะสมองเสื่อม - หน่วยบริหารที่เกี่ยวข้องทุกระดับ ได้แก่ สสจ. สสอ. และองค์การปกรองส่วนท้อง" class="cls-4" transform="translate(1220 8862)"><tspan x="0" y="20">- ตัวแทนหน่วยบริการทางสุขภาพทุกระดับในจังหวัด </tspan><tspan x="0" y="50">- เจ้าหน้าที่หรือแพทย์ที่ให้บริการสำหรับผู้สูงอายุหลายบริการ </tspan><tspan x="0" y="80">ได้แก่ การดูแลระยะกลาง ระยะยาว การดูแลแบบประคับ</tspan><tspan x="0" y="110">ประคอง และภาวะสมองเสื่อม </tspan><tspan x="0" y="140">- หน่วยบริหารที่เกี่ยวข้องทุกระดับ ได้แก่ สสจ. สสอ. และ</tspan><tspan x="0" y="170">องค์การปกรองส่วนท้องถิ่น</tspan><tspan x="0" y="200">- ผู้ให้บริการเอกชน</tspan><tspan x="0" y="230">โดยมุ่งเชิญ 3 จังหวัด ที่มีสัดส่วนผู้สูงอายุเยอะ หรือปานกลาง </tspan><tspan x="0" y="260">คละเขตสุขภาพ และไม่ใช่กรุงเทพมหานคร</tspan></text>
            <g id="Group_877" data-name="Group 877" transform="translate(1000 1315.001)">
                <rect id="Rectangle_813-5" data-name="Rectangle 813" class="cls-5" width="178" height="41.999" rx="21" transform="translate(220 7481)"/>
                <path id="Path_734" data-name="Path 734" class="cls-1" d="M4.158.216A2.14 2.14 0 0 0 6.39-1.71h.09A2.157 2.157 0 0 0 8.73.216c1.422 0 2.286-.99 2.286-2.628v-7.416h-1.44v7.236c0 1.134-.468 1.728-1.224 1.728s-1.206-.63-1.206-1.728V-4.77h-1.44v2.178c0 1.1-.45 1.728-1.206 1.728s-1.224-.594-1.224-1.728v-4a1.976 1.976 0 0 0 .468.036A1.729 1.729 0 0 0 5.652-8.3a1.729 1.729 0 0 0-1.908-1.746A1.729 1.729 0 0 0 1.836-8.3v5.886c0 1.622.882 2.63 2.322 2.63zM3.8-7.344a.862.862 0 0 1-.884-.956.862.862 0 0 1 .884-.952.862.862 0 0 1 .88.952.862.862 0 0 1-.88.956zm2.122 12.15H6.1v.648a.929.929 0 0 0 1.044.972h2.07a1.766 1.766 0 0 0 1.8-2.016V2.034h-1.4v2.412c0 .522-.27.774-.882.774h-1.19V3.348A1.426 1.426 0 0 0 5.958 1.89 1.487 1.487 0 0 0 4.3 3.348a1.446 1.446 0 0 0 1.622 1.458zm-.036-.792a.6.6 0 0 1-.648-.666.6.6 0 0 1 .648-.666.588.588 0 0 1 .63.666.588.588 0 0 1-.63.666zm1.458-15.768h3.564c.882 0 1.188-.4 1.512-1.17l.81-1.908h-1.224L11.2-12.6H9.036v-.126c.864-.432 1.08-.882 1.08-1.44a1.354 1.354 0 0 0-1.494-1.386 1.354 1.354 0 0 0-1.494 1.386 1.244 1.244 0 0 0 1.188 1.3v.036l-.972.558zm1.278-1.656a.676.676 0 0 1-.72-.738.676.676 0 0 1 .72-.738.676.676 0 0 1 .72.738.676.676 0 0 1-.72.738zM16.56.216a1.729 1.729 0 0 0 1.908-1.746 1.729 1.729 0 0 0-1.908-1.746 3.8 3.8 0 0 0-.468.036v-6.588h-1.44v8.3A1.729 1.729 0 0 0 16.56.216zm.054-.792a.862.862 0 0 1-.882-.954.862.862 0 0 1 .882-.954.862.862 0 0 1 .882.954.862.862 0 0 1-.882.954zm8.01.792c2.106 0 3.618-1.3 3.618-3.276v-6.768H26.8v6.714a2.079 2.079 0 0 1-2.178 2.25 1.861 1.861 0 0 1-2.07-1.944v-.234a3.224 3.224 0 0 1 1.062-2.214 3.348 3.348 0 0 0 1.062-2.412c0-1.422-.99-2.376-2.79-2.376a2.46 2.46 0 0 0-2.736 2.322 1.556 1.556 0 0 0 1.62 1.71 1.509 1.509 0 0 0 1.62-1.53 1.29 1.29 0 0 0-1.386-1.332 1.4 1.4 0 0 0-.288.036l-.036-.09a2.877 2.877 0 0 1 .954-.144c1.116 0 1.782.468 1.782 1.458a3.125 3.125 0 0 1-1.06 2.124 3.732 3.732 0 0 0-1.242 2.682c0 1.836 1.404 3.024 3.51 3.024zM20.808-6.75a.752.752 0 0 1-.774-.828.752.752 0 0 1 .774-.828.752.752 0 0 1 .774.828.752.752 0 0 1-.774.828zm3.762-5h3.564c.882 0 1.188-.4 1.512-1.17l.81-1.908h-1.224l-.81 2.232h-2.16v-.126c.864-.432 1.08-.882 1.08-1.44a1.354 1.354 0 0 0-1.494-1.386 1.354 1.354 0 0 0-1.494 1.386 1.244 1.244 0 0 0 1.188 1.3v.036l-.972.558zm1.278-1.656a.676.676 0 0 1-.72-.738.676.676 0 0 1 .72-.738.676.676 0 0 1 .72.738.676.676 0 0 1-.72.734zM37.314 0v-6.876c0-2-1.224-3.168-3.456-3.168a3.709 3.709 0 0 0-3.546 1.836l.882.774a2.662 2.662 0 0 1 2.484-1.53 1.966 1.966 0 0 1 2.2 2.214V0zm8.01.216a1.753 1.753 0 0 0 1.944-1.764V-4c0-1.728-.828-2.268-2.448-2.376l-3.492-.234v-.216c0-1.494 1.206-2.142 2.952-2.142a3.447 3.447 0 0 1 2.988 1.35l.81-.882a4.586 4.586 0 0 0-3.852-1.548c-2.628 0-4.3 1.26-4.3 3.564v.846l4.608.342c.99.072 1.3.378 1.3 1.26v.774a2.277 2.277 0 0 0-.5-.054 1.753 1.753 0 0 0-1.954 1.768A1.753 1.753 0 0 0 45.324.216zm-.054-2.772a.922.922 0 0 1 .954 1.008.922.922 0 0 1-.954 1.008.922.922 0 0 1-.954-1.008.922.922 0 0 1 .954-1.008zm.594-12.492.2 3.294h.99l.2-3.294zM54.558.216a1.729 1.729 0 0 0 1.908-1.746v-5.31c0-2-1.242-3.2-3.474-3.2a3.74 3.74 0 0 0-3.564 1.836l.882.774a2.689 2.689 0 0 1 2.5-1.53 1.992 1.992 0 0 1 2.214 2.232v3.488a4.1 4.1 0 0 0-.468-.036A1.729 1.729 0 0 0 52.65-1.53 1.729 1.729 0 0 0 54.558.216zM54.5-.576a.862.862 0 0 1-.882-.954.862.862 0 0 1 .882-.954.862.862 0 0 1 .882.954.862.862 0 0 1-.882.954zm6.52.792a1.746 1.746 0 0 0 1.908-1.782.876.876 0 0 0-.018-.216L66.87 0h1.35v-9.828h-1.44v8.676h-.072L62.91-2.88V-8.3A1.729 1.729 0 0 0 61-10.044 1.729 1.729 0 0 0 59.094-8.3 1.729 1.729 0 0 0 61-6.552a2.053 2.053 0 0 0 .468-.036v2.61a2.489 2.489 0 0 0 .072.684 2.444 2.444 0 0 0-.522-.054 1.746 1.746 0 0 0-1.908 1.782A1.746 1.746 0 0 0 61.02.216zm0-.792a.83.83 0 0 1-.936-.846v-.288a.83.83 0 0 1 .936-.846.83.83 0 0 1 .936.846v.288a.83.83 0 0 1-.936.846zm-.072-6.768a.862.862 0 0 1-.882-.954.862.862 0 0 1 .882-.954.862.862 0 0 1 .882.954.862.862 0 0 1-.882.954zm22.986 6.012h-6.606l3.384-3.042c1.6-1.44 2.754-2.808 2.754-4.752a3.505 3.505 0 0 0-3.852-3.654 3.967 3.967 0 0 0-4.032 2.952l1.35.522a2.556 2.556 0 0 1 2.61-2.124 2.134 2.134 0 0 1 2.322 2.34v.216a5.4 5.4 0 0 1-2.07 3.546l-4.1 3.78V0h8.244zM90.558.216a3.944 3.944 0 0 0 4.176-4.158 3.588 3.588 0 0 0-3.708-3.87A3.281 3.281 0 0 0 88-6.012l-.09-.036c.684-2.916 2.178-4.554 4.86-6.516h-1.942a9.934 9.934 0 0 0-4.482 7.956c0 2.988 1.602 4.824 4.212 4.824zM90.54-1.1a2.4 2.4 0 0 1-2.628-2.646v-.144a2.4 2.4 0 0 1 2.628-2.644 2.4 2.4 0 0 1 2.628 2.646v.144A2.4 2.4 0 0 1 90.54-1.1zM101.988 0h1.44v-2.214a2.715 2.715 0 0 1 1.26-2.2l.036.018v.162a1.645 1.645 0 0 0 1.764 1.764 1.688 1.688 0 0 0 1.854-1.764 1.688 1.688 0 0 0-1.854-1.764 3.162 3.162 0 0 0-2.97 2.142h-.09v-2.16a2.764 2.764 0 0 1 3.06-2.952 2.764 2.764 0 0 1 3.06 2.952V0h1.44v-6.21c0-2.34-1.71-3.834-4.5-3.834s-4.5 1.494-4.5 3.834zm4.5-3.258a.868.868 0 0 1-.882-.972.868.868 0 0 1 .882-.972.868.868 0 0 1 .882.972.868.868 0 0 1-.882.972zM122.364.216a1.746 1.746 0 0 0 1.908-1.782 1.708 1.708 0 0 0-1.584-1.764 1.845 1.845 0 0 0 .162-.9v-5.6h-1.44v6.714l-4.176 1.962h-.072V-8.3a1.729 1.729 0 0 0-1.908-1.746 1.729 1.729 0 0 0-1.908 1.746 1.729 1.729 0 0 0 1.908 1.746 2.053 2.053 0 0 0 .468-.036V0h1.368l3.366-1.584v.018a1.746 1.746 0 0 0 1.908 1.782zm0-.792a.83.83 0 0 1-.936-.846v-.288a.83.83 0 0 1 .936-.846.83.83 0 0 1 .936.846v.288a.83.83 0 0 1-.936.846zM115.2-7.344a.862.862 0 0 1-.882-.954.862.862 0 0 1 .882-.954.862.862 0 0 1 .882.954.862.862 0 0 1-.882.954z" transform="translate(247 7508)"/>
            </g>
            <g id="Group_875" data-name="Group 875" transform="translate(1098 8215)">
                <path id="Path_622" data-name="Path 622" class="cls-6" d="M1.771 0v-16.054h7.59a5.149 5.149 0 0 1 2.024.38 4.489 4.489 0 0 1 1.53 1.047 4.588 4.588 0 0 1 .977 1.621 6.081 6.081 0 0 1 .345 2.082 6.054 6.054 0 0 1-.345 2.093 4.606 4.606 0 0 1-.977 1.61 4.489 4.489 0 0 1-1.53 1.047 5.149 5.149 0 0 1-2.024.374H5.267V0zm3.5-8.832h3.68a1.776 1.776 0 0 0 1.231-.4 1.51 1.51 0 0 0 .449-1.185v-1.012a1.51 1.51 0 0 0-.449-1.185 1.776 1.776 0 0 0-1.231-.4H5.267zM21.114.276a6.13 6.13 0 0 1-2.381-.437 4.75 4.75 0 0 1-1.771-1.265 5.766 5.766 0 0 1-1.115-2 8.261 8.261 0 0 1-.391-2.622 8.261 8.261 0 0 1 .391-2.622 5.643 5.643 0 0 1 1.115-1.989 4.809 4.809 0 0 1 1.771-1.254 6.13 6.13 0 0 1 2.381-.437 6.13 6.13 0 0 1 2.38.437 4.809 4.809 0 0 1 1.771 1.254 5.644 5.644 0 0 1 1.116 1.989 8.261 8.261 0 0 1 .391 2.622 8.261 8.261 0 0 1-.391 2.622 5.766 5.766 0 0 1-1.116 2 4.75 4.75 0 0 1-1.771 1.265 6.13 6.13 0 0 1-2.38.437zm0-2.691a1.983 1.983 0 0 0 1.564-.621 2.58 2.58 0 0 0 .552-1.771v-2.461a2.58 2.58 0 0 0-.552-1.771 1.983 1.983 0 0 0-1.564-.621 1.983 1.983 0 0 0-1.564.621A2.58 2.58 0 0 0 19-7.268v2.461a2.58 2.58 0 0 0 .552 1.771 1.983 1.983 0 0 0 1.562.621zM32.568 0A3.413 3.413 0 0 1 30-.851a3.418 3.418 0 0 1-.816-2.461V-17.02h3.4v14.375h1.518V0zm5.29-13.363a2.063 2.063 0 0 1-1.507-.472 1.635 1.635 0 0 1-.472-1.208v-.506a1.635 1.635 0 0 1 .472-1.208 2.063 2.063 0 0 1 1.507-.472 2.063 2.063 0 0 1 1.507.472 1.635 1.635 0 0 1 .471 1.208v.506a1.635 1.635 0 0 1-.471 1.208 2.063 2.063 0 0 1-1.507.472zm-1.7 1.288h3.4V0h-3.4zM47.61.276a6.138 6.138 0 0 1-2.415-.448 4.8 4.8 0 0 1-1.771-1.265 5.469 5.469 0 0 1-1.081-1.99 8.737 8.737 0 0 1-.368-2.622 8.624 8.624 0 0 1 .368-2.61 5.6 5.6 0 0 1 1.081-1.99 4.63 4.63 0 0 1 1.771-1.265 6.28 6.28 0 0 1 2.415-.437 5.38 5.38 0 0 1 3.07.828A4.533 4.533 0 0 1 52.44-9.2L49.68-8a2.314 2.314 0 0 0-.667-1.173 1.949 1.949 0 0 0-1.4-.483 1.862 1.862 0 0 0-1.564.678 2.9 2.9 0 0 0-.529 1.829V-4.9a2.847 2.847 0 0 0 .529 1.817 1.876 1.876 0 0 0 1.564.667 2.08 2.08 0 0 0 1.46-.494 2.894 2.894 0 0 0 .793-1.3l2.645 1.15A4.7 4.7 0 0 1 50.66-.53a5.523 5.523 0 0 1-3.05.806zm14.4-12.351h3.174L60.536 1.863a4.25 4.25 0 0 1-1.3 2.07 3.786 3.786 0 0 1-2.4.667h-2.119V1.955h2.277l.414-1.334-4.232-12.7h3.381l1.771 5.639.874 3.5h.138l.9-3.5zM1.771 10.946H7.82a7.987 7.987 0 0 1 2.9.506 5.842 5.842 0 0 1 2.231 1.507 6.883 6.883 0 0 1 1.426 2.507 11.023 11.023 0 0 1 .506 3.507 11.023 11.023 0 0 1-.506 3.507 6.883 6.883 0 0 1-1.426 2.507 5.842 5.842 0 0 1-2.231 1.507 7.987 7.987 0 0 1-2.9.506H1.771zM7.82 23.9a3.376 3.376 0 0 0 2.461-.874 3.782 3.782 0 0 0 .9-2.806v-2.489a3.782 3.782 0 0 0-.9-2.806 3.376 3.376 0 0 0-2.461-.874H5.267V23.9zm11.5-10.258a2.063 2.063 0 0 1-1.507-.472 1.635 1.635 0 0 1-.471-1.208v-.506a1.635 1.635 0 0 1 .471-1.208 2.063 2.063 0 0 1 1.507-.472 2.063 2.063 0 0 1 1.507.472 1.635 1.635 0 0 1 .472 1.208v.506a1.635 1.635 0 0 1-.472 1.208 2.063 2.063 0 0 1-1.507.467zm-1.7 1.288h3.4V27h-3.4zM33.12 27a2.141 2.141 0 0 1-1.529-.575 2.644 2.644 0 0 1-.771-1.541h-.138a2.792 2.792 0 0 1-1.219 1.782 4.193 4.193 0 0 1-2.323.609 3.767 3.767 0 0 1-2.783-.966 3.451 3.451 0 0 1-.966-2.553 3.184 3.184 0 0 1 1.392-2.84 6.722 6.722 0 0 1 3.784-.931h1.909v-.759a2.018 2.018 0 0 0-.46-1.392 1.976 1.976 0 0 0-1.541-.517 2.673 2.673 0 0 0-1.61.437 4.322 4.322 0 0 0-.989.989l-2.024-1.794a5.278 5.278 0 0 1 1.851-1.69 6.335 6.335 0 0 1 3.024-.609 5.727 5.727 0 0 1 3.864 1.127 4.136 4.136 0 0 1 1.288 3.289v5.29h1.127V27zm-4.72-2.093a2.773 2.773 0 0 0 1.461-.368 1.29 1.29 0 0 0 .609-1.2v-1.422h-1.651q-2 0-2 1.357v.345a1.142 1.142 0 0 0 .414.978 1.924 1.924 0 0 0 1.167.31zM40.664 27a3.413 3.413 0 0 1-2.564-.851 3.418 3.418 0 0 1-.816-2.461V9.98h3.4v14.375H42.2V27zm8.487.276a6.13 6.13 0 0 1-2.381-.437A4.75 4.75 0 0 1 45 25.574a5.766 5.766 0 0 1-1.115-2 8.261 8.261 0 0 1-.391-2.622 8.261 8.261 0 0 1 .391-2.622A5.643 5.643 0 0 1 45 16.34a4.809 4.809 0 0 1 1.771-1.254 6.7 6.7 0 0 1 4.761 0A4.809 4.809 0 0 1 53.3 16.34a5.643 5.643 0 0 1 1.115 1.989 8.261 8.261 0 0 1 .391 2.622 8.261 8.261 0 0 1-.391 2.622 5.766 5.766 0 0 1-1.115 2 4.75 4.75 0 0 1-1.771 1.265 6.13 6.13 0 0 1-2.378.438zm0-2.691a1.983 1.983 0 0 0 1.564-.621 2.58 2.58 0 0 0 .552-1.771v-2.461a2.58 2.58 0 0 0-.552-1.771 2.28 2.28 0 0 0-3.128 0 2.58 2.58 0 0 0-.552 1.771v2.461a2.58 2.58 0 0 0 .552 1.771 1.983 1.983 0 0 0 1.564.621zM68.4 27.874a4.086 4.086 0 0 1-.334 1.7 3.032 3.032 0 0 1-1.092 1.253 5.629 5.629 0 0 1-2.012.782 18.187 18.187 0 0 1-5.75.069 6.194 6.194 0 0 1-1.771-.552 2.427 2.427 0 0 1-.989-.874 2.257 2.257 0 0 1-.311-1.184 2.1 2.1 0 0 1 .6-1.587 2.847 2.847 0 0 1 1.659-.711v-.253a2.011 2.011 0 0 1-1.311-.747 2.228 2.228 0 0 1-.437-1.368 1.72 1.72 0 0 1 .2-.84 2.2 2.2 0 0 1 .506-.621 2.508 2.508 0 0 1 .724-.426 5.687 5.687 0 0 1 .828-.253v-.092a3.554 3.554 0 0 1-1.633-1.392 3.937 3.937 0 0 1-.529-2.059 3.732 3.732 0 0 1 1.277-2.955 5.8 5.8 0 0 1 3.9-1.115 7.93 7.93 0 0 1 2.047.23v-.46a1.794 1.794 0 0 1 .472-1.392 1.941 1.941 0 0 1 1.336-.427h1.909v2.53h-2.668v.138a3.445 3.445 0 0 1 1.564 1.391 4.077 4.077 0 0 1 .506 2.059 3.638 3.638 0 0 1-1.277 2.91 5.886 5.886 0 0 1-3.9 1.093 8.438 8.438 0 0 1-2.139-.253 1.091 1.091 0 0 0-.529.966.789.789 0 0 0 .333.679 1.955 1.955 0 0 0 1.116.241h3.5a4.65 4.65 0 0 1 3.209.92 3.354 3.354 0 0 1 .996 2.6zm-3.2.46a.907.907 0 0 0-.414-.805 2.76 2.76 0 0 0-1.449-.276H59.2a1.4 1.4 0 0 0-.333.517 1.657 1.657 0 0 0-.1.563 1.035 1.035 0 0 0 .575.978 4.423 4.423 0 0 0 1.955.31h1.38a4.423 4.423 0 0 0 1.955-.31 1.035 1.035 0 0 0 .573-.977zm-3.289-7.843a2.265 2.265 0 0 0 1.507-.426 1.534 1.534 0 0 0 .494-1.231v-.276a1.534 1.534 0 0 0-.494-1.231 2.88 2.88 0 0 0-3.013 0 1.534 1.534 0 0 0-.494 1.231v.276a1.534 1.534 0 0 0 .494 1.231 2.265 2.265 0 0 0 1.511.426zm15.042 4.485h-.115a4.188 4.188 0 0 1-.425.874 2.929 2.929 0 0 1-.678.736 3.188 3.188 0 0 1-.978.506 4.187 4.187 0 0 1-1.3.184 3.347 3.347 0 0 1-2.817-1.23 5.66 5.66 0 0 1-.955-3.531v-7.59h3.4v7.291a3.106 3.106 0 0 0 .391 1.7 1.472 1.472 0 0 0 1.334.6 2.759 2.759 0 0 0 .79-.116 2.22 2.22 0 0 0 .69-.333 1.717 1.717 0 0 0 .483-.541 1.5 1.5 0 0 0 .184-.759v-7.842h3.4V27h-3.4zm11.615 2.3a6.373 6.373 0 0 1-2.461-.448 5.081 5.081 0 0 1-1.828-1.265 5.329 5.329 0 0 1-1.127-1.99 8.492 8.492 0 0 1-.379-2.622 8.541 8.541 0 0 1 .368-2.587 5.5 5.5 0 0 1 1.092-1.99A4.843 4.843 0 0 1 86.02 15.1a6.138 6.138 0 0 1 2.415-.449 5.953 5.953 0 0 1 2.565.504 4.841 4.841 0 0 1 1.748 1.357 5.467 5.467 0 0 1 .989 1.966 8.666 8.666 0 0 1 .311 2.334v1.012H86.3v.184a2.7 2.7 0 0 0 .644 1.9 2.624 2.624 0 0 0 2.024.7 3.16 3.16 0 0 0 1.725-.426 6.781 6.781 0 0 0 1.242-1.023l1.7 2.116a5.369 5.369 0 0 1-2.1 1.472 7.783 7.783 0 0 1-2.962.529zm-.068-10.12a2.03 2.03 0 0 0-1.621.678 2.665 2.665 0 0 0-.579 1.806v.184h4.232v-.207a2.957 2.957 0 0 0-.494-1.783 1.766 1.766 0 0 0-1.538-.678z" transform="translate(204 68)"/>
                <g id="Group_533-3" data-name="Group 533" transform="translate(122 46.605)">
                    <path id="Subtraction_1-3" data-name="Subtraction 1" class="cls-7" d="M11301.776 3006.375a.812.812 0 0 1-.325-.071.737.737 0 0 1-.428-.871l4.541-19.229 4.388-18.572a18.8 18.8 0 0 1 18.378-14.767h9.409a18.762 18.762 0 0 1 13.3 5.509 18.926 18.926 0 0 1 2.994 3.9h8.193l2.146-3.072 8.712-12.478a.731.731 0 0 1 .611-.33.809.809 0 0 1 .325.07.748.748 0 0 1 .429.871l-4.542 19.229-4.388 18.575a18.8 18.8 0 0 1-18.378 14.764h-9.409a18.745 18.745 0 0 1-13.3-5.51 18.946 18.946 0 0 1-2.994-3.9h-8.2l-2.145 3.069-8.712 12.478a.73.73 0 0 1-.605.335zm35.96-44.1a18.8 18.8 0 0 0-16.291 28.224h16.291a18.809 18.809 0 0 0 16.295-28.224h-16.295z" transform="translate(-11300.999 -2946.396)"/>
                </g>
            </g>
            <g id="Group_878" data-name="Group 878" transform="translate(1000 882)">
                <g id="Ellipse_1346-3" data-name="Ellipse 1346" class="cls-8" transform="translate(628 7373)">
                    <circle class="cls-12" cx="33" cy="33" r="33"/>
                    <circle class="cls-13" cx="33" cy="33" r="32"/>
                </g>
                <path id="Path_647" data-name="Path 647" class="cls-6" d="M8.61 0H-8.33v-4.27l7.665-6.72a16.242 16.242 0 0 0 2.87-3.1 5.338 5.338 0 0 0 .91-2.992v-.455A3 3 0 0 0 2.065-20a3.909 3.909 0 0 0-2.555-.86 3.7 3.7 0 0 0-2.87 1.067 6.2 6.2 0 0 0-1.4 2.573l-3.99-1.54a9.819 9.819 0 0 1 1.085-2.328A7.745 7.745 0 0 1-5.9-23.03a8.393 8.393 0 0 1 2.5-1.33 10.164 10.164 0 0 1 3.29-.49 10.078 10.078 0 0 1 3.43.542 7.153 7.153 0 0 1 2.537 1.523 6.567 6.567 0 0 1 1.575 2.31 7.619 7.619 0 0 1 .542 2.9 7.667 7.667 0 0 1-.49 2.8 10.328 10.328 0 0 1-1.33 2.4A15.4 15.4 0 0 1 4.2-10.2Q3.08-9.17 1.82-8.12l-5.145 4.235H8.61z" transform="translate(661 7417)"/>
            </g>
            <g id="Group_876" data-name="Group 876" transform="translate(1000 956)">
                <rect id="Rectangle_813-6" data-name="Rectangle 813" class="cls-6" width="99" height="42" rx="21" transform="translate(220 7481)"/>
                <path id="Path_733" data-name="Path 733" class="cls-1" d="M6.372.216c3.24 0 5.328-2.286 5.328-6.5s-2.088-6.5-5.328-6.5-5.328 2.286-5.328 6.5 2.088 6.5 5.328 6.5zm0-1.35c-2.178 0-3.708-1.62-3.708-4.1v-2.092c0-2.484 1.53-4.1 3.708-4.1s3.708 1.62 3.708 4.1v2.088c0 2.484-1.53 4.104-3.708 4.104zM15.714 0v-6.444c0-1.188 1.116-1.764 2.268-1.764 1.386 0 2.106.846 2.106 2.5V0h1.44v-5.958c0-2.25-1.206-3.546-3.114-3.546a2.633 2.633 0 0 0-2.628 1.728h-.072v-1.512h-1.44V0zm11.592 0v-1.26h-1.368v-12.06H24.5v11.826A1.408 1.408 0 0 0 26.028 0zm2.808-11.466c.612 0 .882-.324.882-.81v-.234c0-.486-.27-.81-.882-.81s-.882.324-.882.81v.234c0 .486.268.81.882.81zM29.394 0h1.44v-9.288h-1.44zm5.94 0v-6.444c0-1.188 1.116-1.764 2.268-1.764 1.386 0 2.106.846 2.106 2.5V0h1.44v-5.958c0-2.25-1.206-3.546-3.114-3.546a2.633 2.633 0 0 0-2.628 1.728h-.072v-1.512h-1.44V0zM47.61.216a3.9 3.9 0 0 0 3.672-2.124l-1.026-.738a2.692 2.692 0 0 1-2.556 1.6 2.631 2.631 0 0 1-2.754-2.808v-.432h6.678v-.684c0-2.628-1.53-4.536-4.014-4.536-2.52 0-4.176 1.908-4.176 4.86S45.09.216 47.61.216zm0-8.514a2.47 2.47 0 0 1 2.466 2.736v.2h-5.13v-.128A2.64 2.64 0 0 1 47.61-8.3z" transform="translate(244 7508)"/>
            </g>
        </g>
    </g>
</svg>
