<svg xmlns="http://www.w3.org/2000/svg" width="528" height="388.216" viewBox="0 0 528 388.216">
  <defs>
    <style>
      .cls-1, .cls-4 {
        fill: none;
        stroke: #fff;
      }

      .cls-1 {
        stroke-width: 2px;
        stroke-dasharray: 4;
      }

      .cls-2 {
        fill: #fff;
      }

      .cls-3 {
        fill: #6badcb;
      }

      .cls-4 {
        stroke-width: 5px;
      }
    </style>
  </defs>
  <g id="Group_2084" data-name="Group 2084" transform="translate(-697 -4846.12)">
    <path id="Path_880" data-name="Path 880" class="cls-1" d="M-8721.714,7942.578h99.215l99.315-69.2h98.623l96.9-55.831h100.075" transform="translate(9435 -2920)"/>
    <g id="Group_1781" data-name="Group 1781" transform="translate(390)">
      <path id="Path_1030" data-name="Path 1030" class="cls-2" d="M30.188,31H16.636V27.584l6.132-5.376a12.993,12.993,0,0,0,2.3-2.478,4.271,4.271,0,0,0,.728-2.394v-.364A2.4,2.4,0,0,0,24.952,15a3.127,3.127,0,0,0-2.044-.686,2.962,2.962,0,0,0-2.3.854,4.963,4.963,0,0,0-1.12,2.058L16.3,15.992a7.855,7.855,0,0,1,.868-1.862,6.2,6.2,0,0,1,1.414-1.554,6.714,6.714,0,0,1,2-1.064,8.131,8.131,0,0,1,2.632-.392,8.062,8.062,0,0,1,2.744.434,5.722,5.722,0,0,1,2.03,1.218,5.254,5.254,0,0,1,1.26,1.848,6.515,6.515,0,0,1,.042,4.564A8.262,8.262,0,0,1,28.228,21.1a12.319,12.319,0,0,1-1.568,1.736q-.9.826-1.9,1.666L20.64,27.892h9.548ZM46.12,14.648H37.328L36.88,21.2h.2a9.756,9.756,0,0,1,.672-1.148,3.859,3.859,0,0,1,.84-.9,3.763,3.763,0,0,1,1.106-.574,4.859,4.859,0,0,1,1.526-.21,6.5,6.5,0,0,1,2.352.42,5.359,5.359,0,0,1,1.89,1.218,5.746,5.746,0,0,1,1.26,1.946,6.926,6.926,0,0,1,.462,2.6,7.477,7.477,0,0,1-.476,2.716,6.009,6.009,0,0,1-1.4,2.142,6.369,6.369,0,0,1-2.268,1.414,8.736,8.736,0,0,1-3.08.5,9.051,9.051,0,0,1-2.408-.294,7.147,7.147,0,0,1-1.876-.8,6.358,6.358,0,0,1-1.4-1.162A9.737,9.737,0,0,1,33.24,27.7l2.688-2.072q.336.56.7,1.05a4.115,4.115,0,0,0,.854.854,4.062,4.062,0,0,0,1.092.574,4.3,4.3,0,0,0,1.414.21,3.245,3.245,0,0,0,2.506-.924,3.568,3.568,0,0,0,.854-2.52v-.224a3.216,3.216,0,0,0-.868-2.38,3.255,3.255,0,0,0-2.408-.868,3.715,3.715,0,0,0-1.96.462,4.887,4.887,0,0,0-1.2.994l-3.024-.42.728-10.976H46.12Zm16.8,0H54.128L53.68,21.2h.2a9.757,9.757,0,0,1,.672-1.148,3.859,3.859,0,0,1,.84-.9,3.763,3.763,0,0,1,1.106-.574,4.859,4.859,0,0,1,1.526-.21,6.5,6.5,0,0,1,2.352.42,5.359,5.359,0,0,1,1.89,1.218,5.746,5.746,0,0,1,1.26,1.946,6.926,6.926,0,0,1,.462,2.6,7.477,7.477,0,0,1-.476,2.716,6.009,6.009,0,0,1-1.4,2.142,6.369,6.369,0,0,1-2.268,1.414,8.736,8.736,0,0,1-3.08.5,9.051,9.051,0,0,1-2.408-.294,7.147,7.147,0,0,1-1.876-.8,6.358,6.358,0,0,1-1.4-1.162A9.737,9.737,0,0,1,50.04,27.7l2.688-2.072q.336.56.7,1.05a4.115,4.115,0,0,0,.854.854,4.062,4.062,0,0,0,1.092.574,4.3,4.3,0,0,0,1.414.21,3.245,3.245,0,0,0,2.506-.924,3.568,3.568,0,0,0,.854-2.52v-.224a3.216,3.216,0,0,0-.868-2.38,3.255,3.255,0,0,0-2.408-.868,3.715,3.715,0,0,0-1.96.462,4.887,4.887,0,0,0-1.2.994l-3.024-.42.728-10.976H62.92Zm17.808,4.144a12.28,12.28,0,0,1-.63,3.962A15.2,15.2,0,0,1,78.46,26.17a16.137,16.137,0,0,1-2.254,2.772A18.414,18.414,0,0,1,73.728,31H68.744q1.708-1.232,3.08-2.38A21.1,21.1,0,0,0,74.218,26.3a12.447,12.447,0,0,0,1.68-2.45,11.531,11.531,0,0,0,.994-2.758l-.224-.056a8.272,8.272,0,0,1-.658,1.092,4.07,4.07,0,0,1-.91.924,4.505,4.505,0,0,1-1.232.63,5.044,5.044,0,0,1-1.624.238,5.981,5.981,0,0,1-2.268-.42,5.192,5.192,0,0,1-1.806-1.218,5.711,5.711,0,0,1-1.2-1.9,6.817,6.817,0,0,1-.434-2.506,7.108,7.108,0,0,1,.5-2.716,6.193,6.193,0,0,1,1.428-2.128,6.55,6.55,0,0,1,2.226-1.4,8.052,8.052,0,0,1,2.926-.5,7.759,7.759,0,0,1,3,.546,6.322,6.322,0,0,1,2.24,1.54,6.554,6.554,0,0,1,1.4,2.408A9.927,9.927,0,0,1,80.728,18.792ZM73.616,21.06a3.325,3.325,0,0,0,2.436-.854,3.284,3.284,0,0,0,.868-2.45v-.42a3.284,3.284,0,0,0-.868-2.45,3.881,3.881,0,0,0-4.858,0,3.254,3.254,0,0,0-.882,2.45v.42a3.254,3.254,0,0,0,.882,2.45A3.335,3.335,0,0,0,73.616,21.06Z" transform="translate(325 5203)"/>
      <path id="Path_1031" data-name="Path 1031" class="cls-2" d="M30.188,31H16.636V27.584l6.132-5.376a12.993,12.993,0,0,0,2.3-2.478,4.271,4.271,0,0,0,.728-2.394v-.364A2.4,2.4,0,0,0,24.952,15a3.127,3.127,0,0,0-2.044-.686,2.962,2.962,0,0,0-2.3.854,4.963,4.963,0,0,0-1.12,2.058L16.3,15.992a7.855,7.855,0,0,1,.868-1.862,6.2,6.2,0,0,1,1.414-1.554,6.714,6.714,0,0,1,2-1.064,8.131,8.131,0,0,1,2.632-.392,8.062,8.062,0,0,1,2.744.434,5.722,5.722,0,0,1,2.03,1.218,5.254,5.254,0,0,1,1.26,1.848,6.515,6.515,0,0,1,.042,4.564A8.262,8.262,0,0,1,28.228,21.1a12.319,12.319,0,0,1-1.568,1.736q-.9.826-1.9,1.666L20.64,27.892h9.548ZM46.12,14.648H37.328L36.88,21.2h.2a9.756,9.756,0,0,1,.672-1.148,3.859,3.859,0,0,1,.84-.9,3.763,3.763,0,0,1,1.106-.574,4.859,4.859,0,0,1,1.526-.21,6.5,6.5,0,0,1,2.352.42,5.359,5.359,0,0,1,1.89,1.218,5.746,5.746,0,0,1,1.26,1.946,6.926,6.926,0,0,1,.462,2.6,7.477,7.477,0,0,1-.476,2.716,6.009,6.009,0,0,1-1.4,2.142,6.369,6.369,0,0,1-2.268,1.414,8.736,8.736,0,0,1-3.08.5,9.051,9.051,0,0,1-2.408-.294,7.147,7.147,0,0,1-1.876-.8,6.358,6.358,0,0,1-1.4-1.162A9.737,9.737,0,0,1,33.24,27.7l2.688-2.072q.336.56.7,1.05a4.115,4.115,0,0,0,.854.854,4.062,4.062,0,0,0,1.092.574,4.3,4.3,0,0,0,1.414.21,3.245,3.245,0,0,0,2.506-.924,3.568,3.568,0,0,0,.854-2.52v-.224a3.216,3.216,0,0,0-.868-2.38,3.255,3.255,0,0,0-2.408-.868,3.715,3.715,0,0,0-1.96.462,4.887,4.887,0,0,0-1.2.994l-3.024-.42.728-10.976H46.12ZM56.984,31.336a7.759,7.759,0,0,1-3-.546,6.322,6.322,0,0,1-2.24-1.54,6.554,6.554,0,0,1-1.4-2.408,9.927,9.927,0,0,1-.476-3.178A12.28,12.28,0,0,1,50.5,19.7a15.2,15.2,0,0,1,1.638-3.416,16.137,16.137,0,0,1,2.254-2.772,18.414,18.414,0,0,1,2.478-2.058h4.984q-1.736,1.232-3.094,2.38a21.723,21.723,0,0,0-2.38,2.324,12.447,12.447,0,0,0-1.68,2.45,11.53,11.53,0,0,0-.994,2.758l.224.056a7.57,7.57,0,0,1,.658-1.078,4.489,4.489,0,0,1,.91-.924,4.288,4.288,0,0,1,1.232-.644,5.044,5.044,0,0,1,1.624-.238,6.012,6.012,0,0,1,2.254.42,5.162,5.162,0,0,1,1.82,1.218,5.681,5.681,0,0,1,1.2,1.918,6.846,6.846,0,0,1,.434,2.492,7.108,7.108,0,0,1-.5,2.716,6.193,6.193,0,0,1-1.428,2.128,6.55,6.55,0,0,1-2.226,1.4A8.051,8.051,0,0,1,56.984,31.336Zm0-2.912a3.335,3.335,0,0,0,2.422-.854,3.254,3.254,0,0,0,.882-2.45V24.7a3.254,3.254,0,0,0-.882-2.45,3.881,3.881,0,0,0-4.858,0,3.284,3.284,0,0,0-.868,2.45v.42a3.284,3.284,0,0,0,.868,2.45A3.325,3.325,0,0,0,56.984,28.424ZM73.7,31.336a7.184,7.184,0,0,1-3.248-.686,5.992,5.992,0,0,1-2.268-1.974,9.066,9.066,0,0,1-1.33-3.164,19.1,19.1,0,0,1-.434-4.284,19.146,19.146,0,0,1,.434-4.27,9.066,9.066,0,0,1,1.33-3.178,5.992,5.992,0,0,1,2.268-1.974A7.184,7.184,0,0,1,73.7,11.12a6.154,6.154,0,0,1,5.5,2.66,13.315,13.315,0,0,1,1.778,7.448A13.315,13.315,0,0,1,79.2,28.676,6.154,6.154,0,0,1,73.7,31.336Zm0-3.108a2.7,2.7,0,0,0,2.618-1.414,8.28,8.28,0,0,0,.742-3.822V19.464a8.28,8.28,0,0,0-.742-3.822,3.131,3.131,0,0,0-5.236,0,8.28,8.28,0,0,0-.742,3.822v3.528a8.28,8.28,0,0,0,.742,3.822A2.7,2.7,0,0,0,73.7,28.228Z" transform="translate(522 5203)"/>
      <path id="Path_1032" data-name="Path 1032" class="cls-2" d="M30.188,31H16.636V27.584l6.132-5.376a12.993,12.993,0,0,0,2.3-2.478,4.271,4.271,0,0,0,.728-2.394v-.364A2.4,2.4,0,0,0,24.952,15a3.127,3.127,0,0,0-2.044-.686,2.962,2.962,0,0,0-2.3.854,4.963,4.963,0,0,0-1.12,2.058L16.3,15.992a7.855,7.855,0,0,1,.868-1.862,6.2,6.2,0,0,1,1.414-1.554,6.714,6.714,0,0,1,2-1.064,8.131,8.131,0,0,1,2.632-.392,8.062,8.062,0,0,1,2.744.434,5.722,5.722,0,0,1,2.03,1.218,5.254,5.254,0,0,1,1.26,1.848,6.515,6.515,0,0,1,.042,4.564A8.262,8.262,0,0,1,28.228,21.1a12.319,12.319,0,0,1-1.568,1.736q-.9.826-1.9,1.666L20.64,27.892h9.548ZM46.12,14.648H37.328L36.88,21.2h.2a9.756,9.756,0,0,1,.672-1.148,3.859,3.859,0,0,1,.84-.9,3.763,3.763,0,0,1,1.106-.574,4.859,4.859,0,0,1,1.526-.21,6.5,6.5,0,0,1,2.352.42,5.359,5.359,0,0,1,1.89,1.218,5.746,5.746,0,0,1,1.26,1.946,6.926,6.926,0,0,1,.462,2.6,7.477,7.477,0,0,1-.476,2.716,6.009,6.009,0,0,1-1.4,2.142,6.369,6.369,0,0,1-2.268,1.414,8.736,8.736,0,0,1-3.08.5,9.051,9.051,0,0,1-2.408-.294,7.147,7.147,0,0,1-1.876-.8,6.358,6.358,0,0,1-1.4-1.162A9.737,9.737,0,0,1,33.24,27.7l2.688-2.072q.336.56.7,1.05a4.115,4.115,0,0,0,.854.854,4.062,4.062,0,0,0,1.092.574,4.3,4.3,0,0,0,1.414.21,3.245,3.245,0,0,0,2.506-.924,3.568,3.568,0,0,0,.854-2.52v-.224a3.216,3.216,0,0,0-.868-2.38,3.255,3.255,0,0,0-2.408-.868,3.715,3.715,0,0,0-1.96.462,4.887,4.887,0,0,0-1.2.994l-3.024-.42.728-10.976H46.12ZM56.984,31.336a7.759,7.759,0,0,1-3-.546,6.322,6.322,0,0,1-2.24-1.54,6.554,6.554,0,0,1-1.4-2.408,9.927,9.927,0,0,1-.476-3.178A12.28,12.28,0,0,1,50.5,19.7a15.2,15.2,0,0,1,1.638-3.416,16.137,16.137,0,0,1,2.254-2.772,18.414,18.414,0,0,1,2.478-2.058h4.984q-1.736,1.232-3.094,2.38a21.723,21.723,0,0,0-2.38,2.324,12.447,12.447,0,0,0-1.68,2.45,11.53,11.53,0,0,0-.994,2.758l.224.056a7.57,7.57,0,0,1,.658-1.078,4.489,4.489,0,0,1,.91-.924,4.288,4.288,0,0,1,1.232-.644,5.044,5.044,0,0,1,1.624-.238,6.012,6.012,0,0,1,2.254.42,5.162,5.162,0,0,1,1.82,1.218,5.681,5.681,0,0,1,1.2,1.918,6.846,6.846,0,0,1,.434,2.492,7.108,7.108,0,0,1-.5,2.716,6.193,6.193,0,0,1-1.428,2.128,6.55,6.55,0,0,1-2.226,1.4A8.051,8.051,0,0,1,56.984,31.336Zm0-2.912a3.335,3.335,0,0,0,2.422-.854,3.254,3.254,0,0,0,.882-2.45V24.7a3.254,3.254,0,0,0-.882-2.45,3.881,3.881,0,0,0-4.858,0,3.284,3.284,0,0,0-.868,2.45v.42a3.284,3.284,0,0,0,.868,2.45A3.325,3.325,0,0,0,56.984,28.424ZM67.848,31V28h5.376V14.116h-.252l-4.256,5.04-2.3-1.932,4.844-5.768h5.572V28h4.48v3Z" transform="translate(718 5203)"/>
      <path id="Path_1029" data-name="Path 1029" class="cls-2" d="M52.2,31H38.65V27.584l6.132-5.376a12.993,12.993,0,0,0,2.3-2.478,4.271,4.271,0,0,0,.728-2.394v-.364A2.4,2.4,0,0,0,46.966,15a3.127,3.127,0,0,0-2.044-.686,2.962,2.962,0,0,0-2.3.854,4.963,4.963,0,0,0-1.12,2.058l-3.192-1.232a7.855,7.855,0,0,1,.868-1.862A6.2,6.2,0,0,1,40.6,12.576a6.714,6.714,0,0,1,2-1.064,8.96,8.96,0,0,1,5.376.042A5.722,5.722,0,0,1,50,12.772a5.254,5.254,0,0,1,1.26,1.848,6.515,6.515,0,0,1,.042,4.564A8.262,8.262,0,0,1,50.242,21.1a12.319,12.319,0,0,1-1.568,1.736q-.9.826-1.9,1.666l-4.116,3.388H52.2Zm16.94-12.208a12.28,12.28,0,0,1-.63,3.962,15.194,15.194,0,0,1-1.638,3.416,16.137,16.137,0,0,1-2.254,2.772A18.414,18.414,0,0,1,62.142,31H57.158q1.708-1.232,3.08-2.38A21.1,21.1,0,0,0,62.632,26.3a12.447,12.447,0,0,0,1.68-2.45,11.53,11.53,0,0,0,.994-2.758l-.224-.056a8.272,8.272,0,0,1-.658,1.092,4.07,4.07,0,0,1-.91.924,4.505,4.505,0,0,1-1.232.63,5.044,5.044,0,0,1-1.624.238,5.981,5.981,0,0,1-2.268-.42,5.192,5.192,0,0,1-1.806-1.218,5.711,5.711,0,0,1-1.2-1.9,6.817,6.817,0,0,1-.434-2.506,7.108,7.108,0,0,1,.5-2.716,6.193,6.193,0,0,1,1.428-2.128,6.55,6.55,0,0,1,2.226-1.4,8.052,8.052,0,0,1,2.926-.5,7.759,7.759,0,0,1,3,.546,6.322,6.322,0,0,1,2.24,1.54,6.554,6.554,0,0,1,1.4,2.408A9.927,9.927,0,0,1,69.142,18.792ZM62.03,21.06a3.325,3.325,0,0,0,2.436-.854,3.284,3.284,0,0,0,.868-2.45v-.42a3.284,3.284,0,0,0-.868-2.45,3.881,3.881,0,0,0-4.858,0,3.254,3.254,0,0,0-.882,2.45v.42a3.254,3.254,0,0,0,.882,2.45A3.335,3.335,0,0,0,62.03,21.06Zm15.82-1.708a3.741,3.741,0,0,0,2.478-.686,2.205,2.205,0,0,0,.8-1.75v-.2a2.4,2.4,0,0,0-.77-1.89,3.065,3.065,0,0,0-2.114-.686,4.242,4.242,0,0,0-2.282.616A5.559,5.559,0,0,0,74.238,16.5l-2.352-2.128a11.885,11.885,0,0,1,1.106-1.274,6.177,6.177,0,0,1,1.386-1.036,7.466,7.466,0,0,1,1.764-.686,8.9,8.9,0,0,1,2.212-.252,9.767,9.767,0,0,1,2.7.35,6.294,6.294,0,0,1,2.1,1.022,4.663,4.663,0,0,1,1.358,1.61,4.605,4.605,0,0,1,.476,2.114,4.682,4.682,0,0,1-.294,1.708,4.109,4.109,0,0,1-.812,1.316,4.27,4.27,0,0,1-1.2.91,6.046,6.046,0,0,1-1.442.518v.168a6.686,6.686,0,0,1,1.6.532,4.194,4.194,0,0,1,1.3.966A4.612,4.612,0,0,1,85,23.748a4.982,4.982,0,0,1,.322,1.848,5.3,5.3,0,0,1-.518,2.352,5.218,5.218,0,0,1-1.47,1.82A6.853,6.853,0,0,1,81.07,30.93a9.951,9.951,0,0,1-2.94.406,9.732,9.732,0,0,1-2.52-.294,7.314,7.314,0,0,1-1.918-.8,6.843,6.843,0,0,1-1.442-1.162A8.7,8.7,0,0,1,71.186,27.7L73.9,25.624A8.365,8.365,0,0,0,74.63,26.7a4.568,4.568,0,0,0,.9.854,3.866,3.866,0,0,0,1.148.56,5,5,0,0,0,1.456.2,3.594,3.594,0,0,0,2.492-.784,2.758,2.758,0,0,0,.868-2.156v-.2a2.392,2.392,0,0,0-.938-2.044,4.461,4.461,0,0,0-2.7-.7H75.918v-3.08Zm13.692,7.336a2.208,2.208,0,0,1,1.694.588,2.1,2.1,0,0,1,.546,1.484v.5a6.256,6.256,0,0,1-.21,1.568,7.945,7.945,0,0,1-.588,1.568,8.726,8.726,0,0,1-.9,1.428A6.605,6.605,0,0,1,90.926,35H88.378a14.3,14.3,0,0,0,1.6-1.806,6.694,6.694,0,0,0,.98-1.946,1.825,1.825,0,0,1-1.26-.686,2.173,2.173,0,0,1-.392-1.3v-.5a2.128,2.128,0,0,1,.532-1.484A2.2,2.2,0,0,1,91.542,26.688ZM105.43,31V27.22H96.582V24.084l7.784-12.628h4.564V24.364h2.548V27.22H108.93V31Zm-5.824-6.636h5.824V15.04h-.224Zm21.364,6.972a7.759,7.759,0,0,1-3-.546,6.322,6.322,0,0,1-2.24-1.54,6.553,6.553,0,0,1-1.4-2.408,9.927,9.927,0,0,1-.476-3.178,12.28,12.28,0,0,1,.63-3.962,15.2,15.2,0,0,1,1.638-3.416,16.137,16.137,0,0,1,2.254-2.772,18.414,18.414,0,0,1,2.478-2.058h4.984q-1.736,1.232-3.094,2.38a21.723,21.723,0,0,0-2.38,2.324,12.447,12.447,0,0,0-1.68,2.45,11.53,11.53,0,0,0-.994,2.758l.224.056a7.57,7.57,0,0,1,.658-1.078,4.489,4.489,0,0,1,.91-.924,4.288,4.288,0,0,1,1.232-.644,5.044,5.044,0,0,1,1.624-.238,6.012,6.012,0,0,1,2.254.42,5.162,5.162,0,0,1,1.82,1.218,5.681,5.681,0,0,1,1.2,1.918,6.846,6.846,0,0,1,.434,2.492,7.108,7.108,0,0,1-.5,2.716,6.193,6.193,0,0,1-1.428,2.128,6.55,6.55,0,0,1-2.226,1.4A8.052,8.052,0,0,1,120.97,31.336Zm0-2.912a3.335,3.335,0,0,0,2.422-.854,3.254,3.254,0,0,0,.882-2.45V24.7a3.254,3.254,0,0,0-.882-2.45,3.881,3.881,0,0,0-4.858,0,3.284,3.284,0,0,0-.868,2.45v.42a3.284,3.284,0,0,0,.868,2.45A3.325,3.325,0,0,0,120.97,28.424Zm15.652-9.072a3.741,3.741,0,0,0,2.478-.686,2.205,2.205,0,0,0,.8-1.75v-.2a2.4,2.4,0,0,0-.77-1.89,3.065,3.065,0,0,0-2.114-.686,4.242,4.242,0,0,0-2.282.616A5.559,5.559,0,0,0,133.01,16.5l-2.352-2.128a11.888,11.888,0,0,1,1.106-1.274,6.177,6.177,0,0,1,1.386-1.036,7.465,7.465,0,0,1,1.764-.686,8.9,8.9,0,0,1,2.212-.252,9.767,9.767,0,0,1,2.7.35,6.294,6.294,0,0,1,2.1,1.022,4.663,4.663,0,0,1,1.358,1.61,4.6,4.6,0,0,1,.476,2.114,4.682,4.682,0,0,1-.294,1.708,4.109,4.109,0,0,1-.812,1.316,4.27,4.27,0,0,1-1.2.91,6.046,6.046,0,0,1-1.442.518v.168a6.686,6.686,0,0,1,1.6.532,4.194,4.194,0,0,1,1.3.966,4.613,4.613,0,0,1,.868,1.414A4.982,4.982,0,0,1,144.1,25.6a5.3,5.3,0,0,1-.518,2.352,5.219,5.219,0,0,1-1.47,1.82,6.853,6.853,0,0,1-2.268,1.162,9.951,9.951,0,0,1-2.94.406,9.732,9.732,0,0,1-2.52-.294,7.314,7.314,0,0,1-1.918-.8,6.843,6.843,0,0,1-1.442-1.162,8.7,8.7,0,0,1-1.064-1.386l2.716-2.072A8.364,8.364,0,0,0,133.4,26.7a4.568,4.568,0,0,0,.9.854,3.866,3.866,0,0,0,1.148.56,5,5,0,0,0,1.456.2,3.594,3.594,0,0,0,2.492-.784,2.758,2.758,0,0,0,.868-2.156v-.2a2.392,2.392,0,0,0-.938-2.044,4.461,4.461,0,0,0-2.7-.7H134.69v-3.08Z" transform="translate(282 4965)"/>
      <path id="Path_1028" data-name="Path 1028" class="cls-2" d="M41.25,19.352a3.741,3.741,0,0,0,2.478-.686,2.205,2.205,0,0,0,.8-1.75v-.2a2.4,2.4,0,0,0-.77-1.89,3.065,3.065,0,0,0-2.114-.686,4.242,4.242,0,0,0-2.282.616A5.559,5.559,0,0,0,37.638,16.5l-2.352-2.128a11.885,11.885,0,0,1,1.106-1.274,6.177,6.177,0,0,1,1.386-1.036,7.466,7.466,0,0,1,1.764-.686,8.9,8.9,0,0,1,2.212-.252,9.767,9.767,0,0,1,2.7.35,6.294,6.294,0,0,1,2.1,1.022,4.663,4.663,0,0,1,1.358,1.61,4.6,4.6,0,0,1,.476,2.114,4.682,4.682,0,0,1-.294,1.708,4.109,4.109,0,0,1-.812,1.316,4.27,4.27,0,0,1-1.2.91,6.046,6.046,0,0,1-1.442.518v.168a6.686,6.686,0,0,1,1.6.532,4.2,4.2,0,0,1,1.3.966,4.612,4.612,0,0,1,.868,1.414,4.982,4.982,0,0,1,.322,1.848,5.3,5.3,0,0,1-.518,2.352,5.218,5.218,0,0,1-1.47,1.82A6.853,6.853,0,0,1,44.47,30.93a9.951,9.951,0,0,1-2.94.406,9.732,9.732,0,0,1-2.52-.294,7.314,7.314,0,0,1-1.918-.8,6.843,6.843,0,0,1-1.442-1.162A8.7,8.7,0,0,1,34.586,27.7L37.3,25.624A8.365,8.365,0,0,0,38.03,26.7a4.568,4.568,0,0,0,.9.854,3.866,3.866,0,0,0,1.148.56,5,5,0,0,0,1.456.2,3.594,3.594,0,0,0,2.492-.784,2.758,2.758,0,0,0,.868-2.156v-.2a2.392,2.392,0,0,0-.938-2.044,4.461,4.461,0,0,0-2.7-.7H39.318v-3.08ZM59.114,31.336a7.184,7.184,0,0,1-3.248-.686A5.992,5.992,0,0,1,53.6,28.676a9.066,9.066,0,0,1-1.33-3.164,19.1,19.1,0,0,1-.434-4.284,19.145,19.145,0,0,1,.434-4.27A9.066,9.066,0,0,1,53.6,13.78a5.992,5.992,0,0,1,2.268-1.974,7.184,7.184,0,0,1,3.248-.686,6.154,6.154,0,0,1,5.5,2.66,13.315,13.315,0,0,1,1.778,7.448,13.315,13.315,0,0,1-1.778,7.448A6.154,6.154,0,0,1,59.114,31.336Zm0-3.108a2.7,2.7,0,0,0,2.618-1.414,8.28,8.28,0,0,0,.742-3.822V19.464a8.28,8.28,0,0,0-.742-3.822,3.131,3.131,0,0,0-5.236,0,8.28,8.28,0,0,0-.742,3.822v3.528a8.28,8.28,0,0,0,.742,3.822A2.7,2.7,0,0,0,59.114,28.228ZM77.258,31V27.22H68.41V24.084l7.784-12.628h4.564V24.364h2.548V27.22H80.758V31Zm-5.824-6.636h5.824V15.04h-.224Zm17.108,2.324a2.208,2.208,0,0,1,1.694.588,2.1,2.1,0,0,1,.546,1.484v.5a6.256,6.256,0,0,1-.21,1.568,7.945,7.945,0,0,1-.588,1.568,8.726,8.726,0,0,1-.9,1.428A6.605,6.605,0,0,1,87.926,35H85.378a14.3,14.3,0,0,0,1.6-1.806,6.694,6.694,0,0,0,.98-1.946,1.825,1.825,0,0,1-1.26-.686,2.173,2.173,0,0,1-.392-1.3v-.5a2.128,2.128,0,0,1,.532-1.484A2.2,2.2,0,0,1,88.542,26.688Zm12.544,4.648a9.783,9.783,0,0,1-3.038-.434,6.73,6.73,0,0,1-2.24-1.19,5.05,5.05,0,0,1-1.386-1.792,5.367,5.367,0,0,1-.476-2.268A4.5,4.5,0,0,1,95,22.558a5.581,5.581,0,0,1,2.814-1.666v-.224a5.337,5.337,0,0,1-2.366-1.652,4.339,4.339,0,0,1-.91-2.828,4.748,4.748,0,0,1,.434-2.044,4.453,4.453,0,0,1,1.274-1.6A6.2,6.2,0,0,1,98.3,11.5a10.456,10.456,0,0,1,5.572,0,6.2,6.2,0,0,1,2.058,1.05,4.453,4.453,0,0,1,1.274,1.6,4.748,4.748,0,0,1,.434,2.044,4.339,4.339,0,0,1-.91,2.828,5.337,5.337,0,0,1-2.366,1.652v.224a5.581,5.581,0,0,1,2.814,1.666,4.5,4.5,0,0,1,1.05,3.094,5.367,5.367,0,0,1-.476,2.268,5.05,5.05,0,0,1-1.386,1.792,6.73,6.73,0,0,1-2.24,1.19A9.783,9.783,0,0,1,101.086,31.336Zm0-2.884a3.673,3.673,0,0,0,2.45-.728,2.54,2.54,0,0,0,.854-2.044v-.588a2.54,2.54,0,0,0-.854-2.044,4.487,4.487,0,0,0-4.9,0,2.54,2.54,0,0,0-.854,2.044v.588a2.54,2.54,0,0,0,.854,2.044A3.673,3.673,0,0,0,101.086,28.452Zm0-8.876a3.391,3.391,0,0,0,2.268-.672,2.371,2.371,0,0,0,.784-1.9v-.448a2.338,2.338,0,0,0-.784-1.876,4.163,4.163,0,0,0-4.536,0,2.338,2.338,0,0,0-.784,1.876V17a2.371,2.371,0,0,0,.784,1.9A3.391,3.391,0,0,0,101.086,19.576Zm16.8,11.76a7.184,7.184,0,0,1-3.248-.686,5.992,5.992,0,0,1-2.268-1.974,9.066,9.066,0,0,1-1.33-3.164,19.1,19.1,0,0,1-.434-4.284,19.146,19.146,0,0,1,.434-4.27,9.066,9.066,0,0,1,1.33-3.178,5.992,5.992,0,0,1,2.268-1.974,7.184,7.184,0,0,1,3.248-.686,6.154,6.154,0,0,1,5.5,2.66,13.315,13.315,0,0,1,1.778,7.448,13.315,13.315,0,0,1-1.778,7.448A6.154,6.154,0,0,1,117.886,31.336Zm0-3.108a2.7,2.7,0,0,0,2.618-1.414,8.28,8.28,0,0,0,.742-3.822V19.464a8.28,8.28,0,0,0-.742-3.822,3.131,3.131,0,0,0-5.236,0,8.28,8.28,0,0,0-.742,3.822v3.528a8.28,8.28,0,0,0,.742,3.822A2.7,2.7,0,0,0,117.886,28.228ZM131.018,31l6.8-16.548h-6.748v3.584h-3.136v-6.58H141.49V14.62L134.882,31Z" transform="translate(482 4891)"/>
      <path id="Path_1027" data-name="Path 1027" class="cls-2" d="M44.25,19.352a3.741,3.741,0,0,0,2.478-.686,2.205,2.205,0,0,0,.8-1.75v-.2a2.4,2.4,0,0,0-.77-1.89,3.065,3.065,0,0,0-2.114-.686,4.242,4.242,0,0,0-2.282.616A5.559,5.559,0,0,0,40.638,16.5l-2.352-2.128a11.885,11.885,0,0,1,1.106-1.274,6.177,6.177,0,0,1,1.386-1.036,7.466,7.466,0,0,1,1.764-.686,8.9,8.9,0,0,1,2.212-.252,9.767,9.767,0,0,1,2.7.35,6.294,6.294,0,0,1,2.1,1.022,4.663,4.663,0,0,1,1.358,1.61,4.6,4.6,0,0,1,.476,2.114,4.682,4.682,0,0,1-.294,1.708,4.109,4.109,0,0,1-.812,1.316,4.27,4.27,0,0,1-1.2.91,6.046,6.046,0,0,1-1.442.518v.168a6.686,6.686,0,0,1,1.6.532,4.2,4.2,0,0,1,1.3.966,4.612,4.612,0,0,1,.868,1.414,4.982,4.982,0,0,1,.322,1.848,5.3,5.3,0,0,1-.518,2.352,5.218,5.218,0,0,1-1.47,1.82A6.853,6.853,0,0,1,47.47,30.93a9.951,9.951,0,0,1-2.94.406,9.732,9.732,0,0,1-2.52-.294,7.314,7.314,0,0,1-1.918-.8,6.843,6.843,0,0,1-1.442-1.162A8.7,8.7,0,0,1,37.586,27.7L40.3,25.624A8.365,8.365,0,0,0,41.03,26.7a4.568,4.568,0,0,0,.9.854,3.866,3.866,0,0,0,1.148.56,5,5,0,0,0,1.456.2,3.594,3.594,0,0,0,2.492-.784,2.758,2.758,0,0,0,.868-2.156v-.2a2.392,2.392,0,0,0-.938-2.044,4.461,4.461,0,0,0-2.7-.7H42.318v-3.08Zm16.8,0a3.741,3.741,0,0,0,2.478-.686,2.205,2.205,0,0,0,.8-1.75v-.2a2.4,2.4,0,0,0-.77-1.89,3.065,3.065,0,0,0-2.114-.686,4.242,4.242,0,0,0-2.282.616A5.559,5.559,0,0,0,57.438,16.5l-2.352-2.128a11.885,11.885,0,0,1,1.106-1.274,6.177,6.177,0,0,1,1.386-1.036,7.466,7.466,0,0,1,1.764-.686,8.9,8.9,0,0,1,2.212-.252,9.767,9.767,0,0,1,2.7.35,6.294,6.294,0,0,1,2.1,1.022,4.663,4.663,0,0,1,1.358,1.61,4.605,4.605,0,0,1,.476,2.114,4.682,4.682,0,0,1-.294,1.708,4.109,4.109,0,0,1-.812,1.316,4.27,4.27,0,0,1-1.2.91,6.046,6.046,0,0,1-1.442.518v.168a6.686,6.686,0,0,1,1.6.532,4.2,4.2,0,0,1,1.3.966,4.612,4.612,0,0,1,.868,1.414,4.982,4.982,0,0,1,.322,1.848,5.3,5.3,0,0,1-.518,2.352,5.218,5.218,0,0,1-1.47,1.82A6.853,6.853,0,0,1,64.27,30.93a9.951,9.951,0,0,1-2.94.406,9.732,9.732,0,0,1-2.52-.294,7.314,7.314,0,0,1-1.918-.8,6.843,6.843,0,0,1-1.442-1.162A8.7,8.7,0,0,1,54.386,27.7L57.1,25.624A8.365,8.365,0,0,0,57.83,26.7a4.568,4.568,0,0,0,.9.854,3.866,3.866,0,0,0,1.148.56,5,5,0,0,0,1.456.2,3.594,3.594,0,0,0,2.492-.784,2.758,2.758,0,0,0,.868-2.156v-.2a2.392,2.392,0,0,0-.938-2.044,4.461,4.461,0,0,0-2.7-.7H59.118v-3.08ZM73.062,31V28h5.376V14.116h-.252l-4.256,5.04-2.3-1.932,4.844-5.768H82.05V28h4.48v3Zm18.48-4.312a2.208,2.208,0,0,1,1.694.588,2.1,2.1,0,0,1,.546,1.484v.5a6.256,6.256,0,0,1-.21,1.568,7.945,7.945,0,0,1-.588,1.568,8.726,8.726,0,0,1-.9,1.428A6.605,6.605,0,0,1,90.926,35H88.378a14.3,14.3,0,0,0,1.6-1.806,6.694,6.694,0,0,0,.98-1.946,1.825,1.825,0,0,1-1.26-.686,2.173,2.173,0,0,1-.392-1.3v-.5a2.128,2.128,0,0,1,.532-1.484A2.2,2.2,0,0,1,91.542,26.688Zm12.544,4.648a7.184,7.184,0,0,1-3.248-.686,5.992,5.992,0,0,1-2.268-1.974,9.066,9.066,0,0,1-1.33-3.164,19.1,19.1,0,0,1-.434-4.284,19.146,19.146,0,0,1,.434-4.27,9.066,9.066,0,0,1,1.33-3.178,5.992,5.992,0,0,1,2.268-1.974,7.184,7.184,0,0,1,3.248-.686,6.154,6.154,0,0,1,5.5,2.66,13.315,13.315,0,0,1,1.778,7.448,13.315,13.315,0,0,1-1.778,7.448A6.154,6.154,0,0,1,104.086,31.336Zm0-3.108a2.7,2.7,0,0,0,2.618-1.414,8.28,8.28,0,0,0,.742-3.822V19.464a8.28,8.28,0,0,0-.742-3.822,3.131,3.131,0,0,0-5.236,0,8.28,8.28,0,0,0-.742,3.822v3.528a8.28,8.28,0,0,0,.742,3.822A2.7,2.7,0,0,0,104.086,28.228Zm16.8,3.108a9.783,9.783,0,0,1-3.038-.434,6.73,6.73,0,0,1-2.24-1.19,5.05,5.05,0,0,1-1.386-1.792,5.367,5.367,0,0,1-.476-2.268,4.5,4.5,0,0,1,1.05-3.094,5.581,5.581,0,0,1,2.814-1.666v-.224a5.337,5.337,0,0,1-2.366-1.652,4.339,4.339,0,0,1-.91-2.828,4.748,4.748,0,0,1,.434-2.044,4.453,4.453,0,0,1,1.274-1.6A6.2,6.2,0,0,1,118.1,11.5a10.456,10.456,0,0,1,5.572,0,6.2,6.2,0,0,1,2.058,1.05,4.453,4.453,0,0,1,1.274,1.6,4.748,4.748,0,0,1,.434,2.044,4.339,4.339,0,0,1-.91,2.828,5.337,5.337,0,0,1-2.366,1.652v.224a5.581,5.581,0,0,1,2.814,1.666,4.5,4.5,0,0,1,1.05,3.094,5.367,5.367,0,0,1-.476,2.268,5.05,5.05,0,0,1-1.386,1.792,6.73,6.73,0,0,1-2.24,1.19A9.783,9.783,0,0,1,120.886,31.336Zm0-2.884a3.673,3.673,0,0,0,2.45-.728,2.54,2.54,0,0,0,.854-2.044v-.588a2.54,2.54,0,0,0-.854-2.044,4.487,4.487,0,0,0-4.9,0,2.54,2.54,0,0,0-.854,2.044v.588a2.54,2.54,0,0,0,.854,2.044A3.673,3.673,0,0,0,120.886,28.452Zm0-8.876a3.391,3.391,0,0,0,2.268-.672,2.371,2.371,0,0,0,.784-1.9v-.448a2.338,2.338,0,0,0-.784-1.876,4.163,4.163,0,0,0-4.536,0,2.338,2.338,0,0,0-.784,1.876V17a2.371,2.371,0,0,0,.784,1.9A3.391,3.391,0,0,0,120.886,19.576Zm16.884,11.76a7.759,7.759,0,0,1-3-.546,6.322,6.322,0,0,1-2.24-1.54,6.554,6.554,0,0,1-1.4-2.408,9.927,9.927,0,0,1-.476-3.178,12.28,12.28,0,0,1,.63-3.962,15.2,15.2,0,0,1,1.638-3.416,16.136,16.136,0,0,1,2.254-2.772,18.414,18.414,0,0,1,2.478-2.058h4.984q-1.736,1.232-3.094,2.38a21.725,21.725,0,0,0-2.38,2.324,12.447,12.447,0,0,0-1.68,2.45,11.531,11.531,0,0,0-.994,2.758l.224.056a7.57,7.57,0,0,1,.658-1.078,4.489,4.489,0,0,1,.91-.924,4.288,4.288,0,0,1,1.232-.644,5.044,5.044,0,0,1,1.624-.238,6.012,6.012,0,0,1,2.254.42,5.162,5.162,0,0,1,1.82,1.218,5.681,5.681,0,0,1,1.2,1.918,6.846,6.846,0,0,1,.434,2.492,7.108,7.108,0,0,1-.5,2.716,6.193,6.193,0,0,1-1.428,2.128,6.55,6.55,0,0,1-2.226,1.4A8.051,8.051,0,0,1,137.77,31.336Zm0-2.912a3.335,3.335,0,0,0,2.422-.854,3.254,3.254,0,0,0,.882-2.45V24.7a3.254,3.254,0,0,0-.882-2.45,3.881,3.881,0,0,0-4.858,0,3.284,3.284,0,0,0-.868,2.45v.42a3.284,3.284,0,0,0,.868,2.45A3.325,3.325,0,0,0,137.77,28.424Z" transform="translate(675 4835)"/>
      <rect id="Rectangle_976" data-name="Rectangle 976" class="cls-3" width="99" height="235" transform="translate(521 4952)"/>
      <rect id="Rectangle_977" data-name="Rectangle 977" class="cls-3" width="99" height="166" transform="translate(323 5021)"/>
      <rect id="Rectangle_978" data-name="Rectangle 978" class="cls-3" width="99" height="291" transform="translate(718 4896)"/>
      <line id="Line_202" data-name="Line 202" class="cls-4" x2="528" transform="translate(307 5187)"/>
    </g>
  </g>
</svg>
