<svg xmlns="http://www.w3.org/2000/svg" width="780.001" height="390.001" viewBox="0 0 780.001 390.001">
    <g data-name="Group 2116">
        <g data-name="Group 2113">
            <path data-name="Subtraction 9" d="M10154-2070a396.262 396.262 0 0 1-39.875-2.013 390.982 390.982 0 0 1-38.723-5.91 388.029 388.029 0 0 1-73.207-22.725 390.02 390.02 0 0 1-66.247-35.958 392.761 392.761 0 0 1-57.719-47.623 392.876 392.876 0 0 1-47.623-57.719 390.073 390.073 0 0 1-35.957-66.248 388.006 388.006 0 0 1-22.725-73.207 390.553 390.553 0 0 1-5.91-38.724A396.35 396.35 0 0 1 9764-2460h780a396.259 396.259 0 0 1-2.014 39.875 390.52 390.52 0 0 1-5.91 38.724 388.012 388.012 0 0 1-22.725 73.207 390.072 390.072 0 0 1-35.958 66.248 392.809 392.809 0 0 1-47.622 57.719 392.845 392.845 0 0 1-57.72 47.623 390.015 390.015 0 0 1-66.248 35.958 388.007 388.007 0 0 1-73.207 22.725 391.017 391.017 0 0 1-38.724 5.91A396.262 396.262 0 0 1 10154-2070z" transform="translate(-9764 2460.001)" style="fill:#fff"/>
        </g>
        <text transform="translate(390 96.001)" style="font-size:50px;font-family:IBMPlexSansThai-SemiBold,IBM Plex Sans Thai;font-weight:600;fill:#2b2b2b"><tspan x="-242" y="0">ข้อสรุปจากกระบวนการ</tspan></text>
        <text data-name="จากกระบวนการที่สร้างการมีส่วนร่วม จากผู้เข้าร่วมอันหลากหลาย สามารถเกิดข้อสรุปในเชิงเนื้อหาได้ดังนี้" transform="translate(114 138.001)" style="font-size:25px;font-family:IBMPlexSansThaiLooped,IBM Plex Sans Thai Looped;fill:#2b2b2b"><tspan x="76.313" y="28">จากกระบวนการที่สร้างการมีส่วนร่วม</tspan><tspan x="126.75" y="69">จากผู้เข้าร่วมอันหลากหลาย</tspan><tspan x="65.863" y="110">สามารถเกิดข้อสรุปในเชิงเนื้อหาได้ดังนี้</tspan></text>
    </g>
</svg>
