<svg xmlns="http://www.w3.org/2000/svg" width="178.777" height="160.899" viewBox="0 0 178.777 160.899">
    <g data-name="Group 2088">
        <path data-name="Path 804" d="M674.131 83.653c0-10.632-11.51-20.182-29.8-26.756 12.96-3.788 20.857-8.817 20.857-14.335 0-8.111-17.064-15.165-42.191-18.774 4.231-2.045 6.677-4.453 6.677-7.033 0-7.405-20.118-13.408-44.937-13.408s-44.936 6-44.936 13.408c0 2.58 2.446 4.988 6.677 7.033-25.125 3.61-42.19 10.663-42.19 18.774 0 5.518 7.9 10.547 20.856 14.335-18.285 6.574-29.8 16.124-29.8 26.756 0 10.718 11.7 20.337 30.245 26.915-13.224 3.8-21.306 8.882-21.306 14.463 0 8.111 17.064 15.165 42.19 18.774-4.23 2.045-6.677 4.453-6.677 7.033 0 7.405 20.118 13.408 44.936 13.408s44.937-6 44.937-13.408c0-2.58-2.447-4.988-6.677-7.033 25.126-3.61 42.191-10.663 42.191-18.774 0-5.581-8.082-10.661-21.306-14.463 18.555-6.578 30.254-16.198 30.254-26.915z" transform="translate(-495.354 -3.347)" style="fill:#6badcb"/>
        <g data-name="Group 1686">
            <g data-name="Group 1681">
                <path data-name="Path 836" d="M414.22 805.4h-32.874v-45.587h23.066l9.808 9.808z" style="fill:none;stroke:#fff;stroke-linecap:round;stroke-linejoin:round;stroke-width:2px" transform="translate(-333.002 -688.134)"/>
                <path data-name="Path 837" d="M414.22 769.621h-9.808v-9.808z" style="fill:none;stroke:#fff;stroke-linecap:round;stroke-linejoin:round;stroke-width:2px" transform="translate(-333.002 -688.134)"/>
                <path data-name="Line 218" transform="translate(53.883 81.487)" style="fill:none;stroke:#fff;stroke-linecap:round;stroke-linejoin:round;stroke-width:2px" d="M9.989 0H0"/>
                <path data-name="Line 219" transform="translate(53.883 87.935)" style="fill:none;stroke:#fff;stroke-linecap:round;stroke-linejoin:round;stroke-width:2px" d="M0 0h21.795"/>
                <path data-name="Line 220" transform="translate(53.883 94.383)" style="fill:none;stroke:#fff;stroke-linecap:round;stroke-linejoin:round;stroke-width:2px" d="M0 0h21.795"/>
                <path data-name="Line 221" transform="translate(53.883 100.83)" style="fill:none;stroke:#fff;stroke-linecap:round;stroke-linejoin:round;stroke-width:2px" d="M0 0h21.795"/>
                <path data-name="Line 222" transform="translate(53.883 107.278)" style="fill:none;stroke:#fff;stroke-linecap:round;stroke-linejoin:round;stroke-width:2px" d="M0 0h21.795"/>
            </g>
            <g data-name="Group 1682">
                <path data-name="Path 838" d="M465.434 777.171H432.56v-45.588h23.066l9.808 9.808z" style="fill:none;stroke:#fff;stroke-linecap:round;stroke-linejoin:round;stroke-width:2px" transform="translate(-333.002 -688.134)"/>
                <path data-name="Path 839" d="M465.434 741.39h-9.808v-9.808z" style="fill:none;stroke:#fff;stroke-linecap:round;stroke-linejoin:round;stroke-width:2px" transform="translate(-333.002 -688.134)"/>
                <path data-name="Line 223" transform="translate(105.097 53.256)" style="fill:none;stroke:#fff;stroke-linecap:round;stroke-linejoin:round;stroke-width:2px" d="M9.989 0H0"/>
                <path data-name="Line 224" transform="translate(105.097 59.704)" style="fill:none;stroke:#fff;stroke-linecap:round;stroke-linejoin:round;stroke-width:2px" d="M0 0h21.795"/>
                <path data-name="Line 225" transform="translate(105.097 66.152)" style="fill:none;stroke:#fff;stroke-linecap:round;stroke-linejoin:round;stroke-width:2px" d="M0 0h21.795"/>
                <path data-name="Line 226" transform="translate(105.097 72.599)" style="fill:none;stroke:#fff;stroke-linecap:round;stroke-linejoin:round;stroke-width:2px" d="M0 0h21.795"/>
                <path data-name="Line 227" transform="translate(105.097 79.047)" style="fill:none;stroke:#fff;stroke-linecap:round;stroke-linejoin:round;stroke-width:2px" d="M0 0h21.795"/>
            </g>
            <g data-name="Group 1685">
                <path data-name="Path 840" d="M421.08 735.669h-30.513v16.259" style="fill:none;stroke:#fff;stroke-linecap:round;stroke-linejoin:round;stroke-width:2px" transform="translate(-333.002 -688.134)"/>
                <g data-name="Group 1683">
                    <path data-name="Line 228" transform="translate(53.883 56.959)" style="fill:none;stroke:#fff;stroke-linecap:round;stroke-linejoin:round;stroke-width:2px" d="m0 0 3.681 6.835"/>
                    <path data-name="Line 229" transform="translate(57.565 56.959)" style="fill:none;stroke:#fff;stroke-linecap:round;stroke-linejoin:round;stroke-width:2px" d="M3.681 0 0 6.835"/>
                </g>
                <path data-name="Path 841" d="M425.7 801.315h30.513v-16.26" style="fill:none;stroke:#fff;stroke-linecap:round;stroke-linejoin:round;stroke-width:2px" transform="translate(-333.002 -688.134)"/>
                <g data-name="Group 1684">
                    <path data-name="Line 230" transform="translate(123.211 96.921)" style="fill:none;stroke:#fff;stroke-linecap:round;stroke-linejoin:round;stroke-width:2px" d="M3.681 6.835 0 0"/>
                    <path data-name="Line 231" transform="translate(119.53 96.921)" style="fill:none;stroke:#fff;stroke-linecap:round;stroke-linejoin:round;stroke-width:2px" d="M0 6.835 3.681 0"/>
                </g>
            </g>
        </g>
    </g>
</svg>
