<svg xmlns="http://www.w3.org/2000/svg" width="178.777" height="160.899" viewBox="0 0 178.777 160.899">
    <g data-name="Group 2086">
        <path data-name="Path 801" d="M674.131 83.653c0-10.632-11.51-20.182-29.8-26.756 12.96-3.788 20.857-8.817 20.857-14.335 0-8.111-17.064-15.165-42.191-18.774 4.231-2.045 6.677-4.453 6.677-7.033 0-7.405-20.118-13.408-44.937-13.408s-44.936 6-44.936 13.408c0 2.58 2.446 4.988 6.677 7.033-25.125 3.61-42.19 10.663-42.19 18.774 0 5.518 7.9 10.547 20.856 14.335-18.285 6.574-29.8 16.124-29.8 26.756 0 10.718 11.7 20.337 30.245 26.915-13.224 3.8-21.306 8.882-21.306 14.463 0 8.111 17.064 15.165 42.19 18.774-4.23 2.045-6.677 4.453-6.677 7.033 0 7.405 20.118 13.408 44.936 13.408s44.937-6 44.937-13.408c0-2.58-2.447-4.988-6.677-7.033 25.126-3.61 42.191-10.663 42.191-18.774 0-5.581-8.082-10.661-21.306-14.463 18.555-6.578 30.254-16.198 30.254-26.915z" transform="translate(-495.354 -3.348)" style="fill:#6badcb"/>
        <g data-name="Group 1680">
            <path data-name="Path 321" d="m1462.759 1358.25 3.577-5.72-4.289-2.682a17.117 17.117 0 0 0 1.1-6.578l4.931-1.137-1.514-6.574-4.932 1.136a17.072 17.072 0 0 0-3.87-5.433l2.683-4.289-5.72-3.578-2.683 4.289a17.088 17.088 0 0 0-6.578-1.1l-1.136-4.932-6.574 1.514 1.136 4.932a17.075 17.075 0 0 0-5.433 3.869l-4.289-2.683-3.578 5.719 4.289 2.683a17.1 17.1 0 0 0-1.1 6.579l-4.932 1.136 1.514 6.574 4.932-1.136a17.071 17.071 0 0 0 3.869 5.433l-2.684 4.289 5.72 3.578 2.683-4.289a17.093 17.093 0 0 0 6.58 1.1l1.135 4.931 6.574-1.514-1.135-4.932a17.079 17.079 0 0 0 5.433-3.87z" transform="rotate(-90 124.645 1378.716)" style="fill:none;stroke:#fff;stroke-linecap:round;stroke-linejoin:round;stroke-width:2px"/>
            <g data-name="Group 467">
                <path data-name="Path 322" d="M1477.058 1351.276a33.719 33.719 0 0 0-55.842-34.93" transform="rotate(-90 126.225 1376.486)" style="fill:none;stroke:#fff;stroke-linecap:round;stroke-linejoin:round;stroke-width:2px"/>
                <path data-name="Line 113" transform="rotate(-90 62.411 -36.678)" style="fill:none;stroke:#fff;stroke-linecap:round;stroke-linejoin:round;stroke-width:2px" d="M3.205 0 0 3.263"/>
                <path data-name="Line 114" transform="rotate(-90 62.641 -35.395)" style="fill:none;stroke:#fff;stroke-linecap:round;stroke-linejoin:round;stroke-width:2px" d="m0 0 1.513 4.317"/>
            </g>
            <path data-name="Path 321" d="m1402.636 1357.465 3.577-5.72-4.289-2.683a17.12 17.12 0 0 0 1.1-6.578l4.931-1.137-1.514-6.573-4.932 1.136a17.071 17.071 0 0 0-3.87-5.433l2.683-4.289-5.72-3.578-2.683 4.289a17.087 17.087 0 0 0-6.578-1.1l-1.136-4.932-6.574 1.514 1.136 4.932a17.093 17.093 0 0 0-5.433 3.87l-4.289-2.683-3.578 5.719 4.289 2.682a17.1 17.1 0 0 0-1.1 6.579l-4.932 1.136 1.514 6.573 4.932-1.136a17.085 17.085 0 0 0 3.869 5.433l-2.683 4.289 5.719 3.578 2.683-4.289a17.09 17.09 0 0 0 6.579 1.1l1.135 4.931 6.575-1.514-1.136-4.932a17.082 17.082 0 0 0 5.433-3.87z" transform="rotate(-90 117.314 1371.192)" style="fill:none;stroke:#fff;stroke-linecap:round;stroke-linejoin:round;stroke-width:2px"/>
            <g data-name="Group 468">
                <path data-name="Path 323" d="M1350.253 1335.177a33.719 33.719 0 0 0 55.842 34.931" transform="rotate(-90 113.638 1371.052)" style="fill:none;stroke:#fff;stroke-linecap:round;stroke-linejoin:round;stroke-width:2px"/>
                <path data-name="Line 115" style="fill:none;stroke:#fff;stroke-linecap:round;stroke-linejoin:round;stroke-width:2px" d="M0 3.263 3.205 0" transform="rotate(-90 106.853 30.574)"/>
                <path data-name="Line 116" transform="rotate(-90 105.25 28.971)" style="fill:none;stroke:#fff;stroke-linecap:round;stroke-linejoin:round;stroke-width:2px" d="M1.513 4.317 0 0"/>
            </g>
            <g data-name="Group 1663">
                <path data-name="Rectangle 1038" d="M0 0h5.138a2.655 2.655 0 0 1 2.655 2.655v0A2.655 2.655 0 0 1 5.138 5.31H0h0V0h0z" transform="translate(84.604 95.939)" style="fill:none;stroke:#fff;stroke-linecap:round;stroke-linejoin:round;stroke-width:2px"/>
                <path data-name="Rectangle 1039" d="M0 0h5.953A3.046 3.046 0 0 1 9 3.046v0a3.046 3.046 0 0 1-3.047 3.045H0h0V0h0z" transform="translate(84.604 101.249)" style="fill:none;stroke:#fff;stroke-linecap:round;stroke-linejoin:round;stroke-width:2px"/>
                <path data-name="Line 206" transform="translate(87.944 93.724)" style="fill:none;stroke:#fff;stroke-linecap:round;stroke-linejoin:round;stroke-width:2px" d="M0 15.831V0"/>
            </g>
            <g data-name="Group 1664">
                <path data-name="Rectangle 1040" d="M0 0h5.138a2.655 2.655 0 0 1 2.655 2.655v0A2.655 2.655 0 0 1 5.138 5.31H0h0V0h0z" transform="translate(85.195 50.677)" style="fill:none;stroke:#fff;stroke-linecap:round;stroke-linejoin:round;stroke-width:2px"/>
                <path data-name="Rectangle 1041" d="M0 0h5.953A3.046 3.046 0 0 1 9 3.046v0a3.046 3.046 0 0 1-3.047 3.045H0h0V0h0z" transform="translate(85.195 55.987)" style="fill:none;stroke:#fff;stroke-linecap:round;stroke-linejoin:round;stroke-width:2px"/>
                <path data-name="Line 207" transform="translate(88.535 48.462)" style="fill:none;stroke:#fff;stroke-linecap:round;stroke-linejoin:round;stroke-width:2px" d="M0 15.831V0"/>
            </g>
        </g>
    </g>
</svg>
