<svg xmlns="http://www.w3.org/2000/svg" width="1920" height="979" viewBox="0 0 1920 979">
    <defs>
        <linearGradient id="b" x1="-.302" y1=".807" x2="1.034" y2=".484" gradientUnits="objectBoundingBox">
            <stop offset="0" stop-color="#191919"/>
            <stop offset="1" stop-color="#457041" stop-opacity=".051"/>
        </linearGradient>
        <clipPath id="a">
            <path data-name="Rectangle 724" transform="translate(0 7931)" style="fill:#fff;stroke:#707070" d="M0 0h1920v979H0z"/>
        </clipPath>
    </defs>
    <g data-name="Mask Group 53" transform="translate(0 -7931)" style="clip-path:url(#a)">
        <g data-name="Group 561">
            <path data-name="Path 5" d="M253.423 1106.624H358.1a11.735 11.735 0 0 0 10.165-17.6l-52.337-90.655a98.591 98.591 0 0 1 170.764-98.591l52.337 90.655a11.738 11.738 0 0 0 20.331 0l52.34-90.655a98.59 98.59 0 1 1 170.761 98.591l-52.34 90.651a11.739 11.739 0 0 0 10.165 17.607h104.68a98.591 98.591 0 0 1 0 197.182H740.287a11.739 11.739 0 0 0-10.165 17.607l52.34 90.655a97.897 97.897 0 0 1 1.932 3.547l22.037 38.251 42.891 143.189a3.3 3.3 0 0 1-6.052 2.527l-81.883-63.5a98.554 98.554 0 0 1-149.687-25.43L559.361 1420a11.738 11.738 0 0 0-20.331 0l-52.337 90.652a98.59 98.59 0 1 1-170.764-98.587l52.337-90.655a11.737 11.737 0 0 0-10.165-17.607H253.423a98.591 98.591 0 0 1 0-197.182z" transform="translate(1432.168 7208.137)" style="fill:#daa13d"/>
            <circle data-name="Ellipse 156" cx="500.5" cy="500.5" r="500.5" transform="translate(-163 7733)" style="fill:url(#b)"/>
            <path data-name="Path 34" d="m351.658 41.074 9.563-29.813a2.427 2.427 0 0 1 4.739.751l-.118 31.31a2.428 2.428 0 0 0 4.4 1.428l18.308-25.4a2.427 2.427 0 0 1 4.275 2.178l-9.787 29.741a2.428 2.428 0 0 0 3.741 2.717l25.26-18.5a2.428 2.428 0 0 1 3.394 3.393l-18.5 25.261a2.427 2.427 0 0 0 2.718 3.74l29.741-9.787a2.428 2.428 0 0 1 2.178 4.276l-25.4 18.308a2.428 2.428 0 0 0 1.429 4.4l31.31-.118a2.427 2.427 0 0 1 .751 4.739l-29.816 9.562a2.427 2.427 0 0 0 0 4.623l29.814 9.563a2.428 2.428 0 0 1-.751 4.74l-31.31-.118a2.428 2.428 0 0 0-1.429 4.4l25.4 18.308a2.427 2.427 0 0 1-2.178 4.275l-29.741-9.787a2.428 2.428 0 0 0-2.718 3.736l18.5 25.26a2.428 2.428 0 0 1-3.394 3.393l-25.26-18.5a2.428 2.428 0 0 0-3.741 2.717l9.787 29.741a2.427 2.427 0 0 1-4.275 2.178l-18.308-25.4a2.428 2.428 0 0 0-4.4 1.428l.118 31.31a2.427 2.427 0 0 1-4.739.751l-9.563-29.813a2.428 2.428 0 0 0-4.624 0l-9.563 29.813a2.428 2.428 0 0 1-4.74-.751l.118-31.31a2.428 2.428 0 0 0-4.4-1.428l-18.308 25.4a2.427 2.427 0 0 1-4.275-2.178l9.787-29.741a2.428 2.428 0 0 0-3.741-2.717l-25.26 18.5a2.428 2.428 0 0 1-3.393-3.393l18.5-25.26a2.428 2.428 0 0 0-2.717-3.741l-29.74 9.79a2.428 2.428 0 0 1-2.179-4.275l25.4-18.308a2.428 2.428 0 0 0-1.429-4.4l-31.31.118a2.428 2.428 0 0 1-.75-4.74l29.813-9.563a2.427 2.427 0 0 0 0-4.623l-29.81-9.558a2.427 2.427 0 0 1 .75-4.739l31.31.118a2.428 2.428 0 0 0 1.429-4.4l-25.4-18.308a2.428 2.428 0 0 1 2.179-4.276l29.741 9.787a2.427 2.427 0 0 0 2.717-3.74l-18.5-25.261a2.428 2.428 0 0 1 3.393-3.393l25.26 18.5a2.428 2.428 0 0 0 3.741-2.717l-9.785-29.743a2.427 2.427 0 0 1 4.275-2.178l18.308 25.4a2.428 2.428 0 0 0 4.4-1.428l-.118-31.31a2.428 2.428 0 0 1 4.74-.751l9.563 29.813a2.428 2.428 0 0 0 4.62 0z" transform="translate(-104.256 8335.428)" style="stroke:#daa13d;fill:none;stroke-width:3px"/>
            <path data-name="Path 39" d="M775.24 989.792a46.407 46.407 0 0 1-35.422 85.517 46.407 46.407 0 0 1-85.517 35.422 46.406 46.406 0 0 1-85.516-35.422 46.407 46.407 0 0 1-35.422-85.517 46.413 46.413 0 0 1 11.526-86.922l-26.726-57.653a1.365 1.365 0 0 1 2.324-1.39l49.488 28.108a46.41 46.41 0 0 1 84.326-3.083 46.407 46.407 0 0 1 85.517 35.422 46.407 46.407 0 0 1 35.422 85.517z" transform="translate(830.198 6941.208)" style="fill:#cc79a7"/>
            <path data-name="Path 37" d="M269.309 641.418h-17.363a1.947 1.947 0 0 1-1.686-2.921l8.681-15.037a16.353 16.353 0 0 0-5.986-22.34 16.354 16.354 0 0 0-22.34 5.986l-8.681 15.037a1.947 1.947 0 0 1-3.372 0l-8.682-15.037a16.353 16.353 0 0 0-22.34-5.986 16.353 16.353 0 0 0-5.986 22.34l8.682 15.037a1.947 1.947 0 0 1-1.686 2.921h-17.364a16.354 16.354 0 0 0-16.354 16.354 16.354 16.354 0 0 0 16.354 16.354h17.364a1.947 1.947 0 0 1 1.686 2.92l-8.682 15.038a16.354 16.354 0 0 0 5.986 22.34 16.354 16.354 0 0 0 22.34-5.986l8.682-15.038a1.947 1.947 0 0 1 3.372 0l8.681 15.038a16.354 16.354 0 0 0 22.34 5.986 16.354 16.354 0 0 0 5.986-22.34l-8.681-15.038a1.947 1.947 0 0 1 1.686-2.92h17.363a16.354 16.354 0 0 0 16.353-16.354 16.354 16.354 0 0 0-16.353-16.354z" transform="translate(335.843 7360.883)" style="stroke:#8f8ac7;fill:none;stroke-width:3px"/>
            <path data-name="Path 33" d="M1286.885 1120.362h-68.638l85.265-28.422a52.579 52.579 0 0 0-16.628-102.461h-68.638l85.265-28.422a52.579 52.579 0 0 0-16.628-102.461H894.237a52.58 52.58 0 0 0 0 105.159h68.637l-85.265 28.423a52.579 52.579 0 0 0 16.628 102.461h68.637l-85.265 28.423a52.551 52.551 0 0 0 5.609 101.252l-16 53.427a2.2 2.2 0 0 0 4.019 1.68l69.5-53.9h346.146a52.58 52.58 0 0 0 0-105.159z" transform="translate(-1090.561 6874.436)" style="fill:#ede8db"/>
            <path data-name="Path 155" d="M792.751 1134.507a14.571 14.571 0 0 0-11.122-26.852 14.571 14.571 0 0 0-26.852-11.122 14.571 14.571 0 0 0-26.852 11.122 14.571 14.571 0 0 0-11.122 26.852 14.571 14.571 0 0 0 11.122 26.852 14.571 14.571 0 0 0 26.852 11.122 14.571 14.571 0 0 0 26.852-11.122 14.571 14.571 0 0 0 11.122-26.852z" transform="translate(-754.777 7099.493)" style="stroke:#adc3a3;fill:none;stroke-width:3px"/>
        </g>
    </g>
</svg>
