<svg xmlns="http://www.w3.org/2000/svg" width="225.01" height="579.866" viewBox="0 0 225.01 579.866">
    <defs>
        <style>
            .cls-1,.cls-12,.cls-3,.cls-5{fill:none}.cls-1,.cls-3{stroke:#fff}.cls-1,.cls-3,.cls-5{stroke-width:3px}.cls-1{stroke-dasharray:8 8}.cls-3,.cls-5{stroke-linecap:round;stroke-linejoin:round}.cls-5{stroke:#f04e30}.cls-7{fill:#fff}.cls-8{fill:#daa13d}.cls-10{fill:#6badcb}.cls-11{stroke:none}
        </style>
    </defs>
    <g id="Group_1255" data-name="Group 1255" transform="translate(-77 -5965.252)">
        <g id="Group_1254" data-name="Group 1254">
            <g id="Ellipse_422" data-name="Ellipse 422" class="cls-1" transform="rotate(90 -2949.426 3223.426)">
                <circle class="cls-11" cx="81.637" cy="81.637" r="81.637"/>
                <circle class="cls-12" cx="81.637" cy="81.637" r="80.137"/>
            </g>
            <g id="Ellipse_480" data-name="Ellipse 480" transform="matrix(0 1 -1 0 274 6009.65)" style="stroke-dasharray:6 6;stroke-width:3px;stroke:#fff;fill:none">
                <circle class="cls-11" cx="81.637" cy="81.637" r="81.637"/>
                <circle class="cls-12" cx="81.637" cy="81.637" r="80.137"/>
            </g>
            <g id="Ellipse_451" data-name="Ellipse 451" class="cls-1" transform="rotate(90 -3031.063 3305.063)">
                <circle class="cls-11" cx="81.637" cy="81.637" r="81.637"/>
                <circle class="cls-12" cx="81.637" cy="81.637" r="80.137"/>
            </g>
            <g id="Icon_feather-arrow-up" data-name="Icon feather-arrow-up" transform="rotate(-160 597.363 3016.687)">
                <path id="Path_41" data-name="Path 41" class="cls-3" d="M0 5.1 5.1 0l5.1 5.1"/>
            </g>
            <g id="Icon_feather-arrow-up-2" data-name="Icon feather-arrow-up" transform="rotate(-34 10024.852 2607)">
                <path id="Path_41-2" data-name="Path 41" class="cls-3" d="m0 0 5.1 5.1L10.2 0"/>
            </g>
            <g id="Icon_feather-arrow-up-3" data-name="Icon feather-arrow-up" transform="rotate(54.97 -5948.717 3386.063)">
                <path id="Path_41-3" data-name="Path 41" class="cls-3" d="m0 0 5.1 5.1L10.2 0"/>
            </g>
            <g id="Icon_feather-arrow-up-4" data-name="Icon feather-arrow-up" transform="rotate(54.97 -6105.623 3467.677)">
                <path id="Path_41-4" data-name="Path 41" class="cls-3" d="m0 0 5.1 5.1L10.2 0"/>
            </g>
            <g id="Icon_feather-arrow-up-5" data-name="Icon feather-arrow-up" transform="rotate(125.03 -1568.714 3197.34)">
                <path id="Path_41-5" data-name="Path 41" class="cls-3" d="M0 5.1 5.1 0l5.1 5.1"/>
            </g>
            <g id="Icon_feather-arrow-up-6" data-name="Icon feather-arrow-up" transform="rotate(125.03 -1523.726 3115.467)">
                <path id="Path_41-6" data-name="Path 41" class="cls-3" d="M0 8.168 8.168 0l8.168 8.168"/>
            </g>
            <g id="Icon_feather-arrow-up-7" data-name="Icon feather-arrow-up" transform="rotate(-122 1827.952 3017.274)">
                <path id="Path_41-7" data-name="Path 41" class="cls-3" d="M0 8.168 8.168 0l8.168 8.168"/>
            </g>
            <g id="Icon_feather-arrow-up-8" data-name="Icon feather-arrow-up" transform="rotate(125.03 -1611.19 3278.97)">
                <path id="Path_41-8" data-name="Path 41" class="cls-3" d="M0 5.1 5.1 0l5.1 5.1"/>
            </g>
        </g>
        <g id="Group_1253" data-name="Group 1253">
            <path id="Path_514" data-name="Path 514" d="M0 0v443.979" transform="translate(191.343 6009.5)" style="stroke-width:5px;stroke-dasharray:5 6;stroke:#f04e30;fill:none"/>
            <g id="Icon_feather-arrow-up-9" data-name="Icon feather-arrow-up" transform="translate(181.615 6117.583)">
                <path id="Path_41-9" data-name="Path 41" class="cls-5" d="m0 0 9.727 9.727L19.454 0"/>
            </g>
            <g id="Icon_feather-arrow-up-10" data-name="Icon feather-arrow-up" transform="translate(181.615 6284.583)">
                <path id="Path_41-10" data-name="Path 41" class="cls-5" d="m0 0 9.727 9.727L19.454 0"/>
            </g>
            <g id="Icon_feather-arrow-up-11" data-name="Icon feather-arrow-up" transform="translate(181.615 6446.094)">
                <path id="Path_41-11" data-name="Path 41" class="cls-5" d="m0 0 9.727 9.727L19.454 0"/>
            </g>
        </g>
        <g id="Group_1252" data-name="Group 1252">
            <circle id="Ellipse_450" data-name="Ellipse 450" cx="45.921" cy="45.921" r="45.921" transform="rotate(90 -3107.803 3345.474)" style="fill:#36723b"/>
            <path id="Path_554" data-name="Path 554" class="cls-7" d="M-25.095 0a1.911 1.911 0 0 1-1.455-.5 1.959 1.959 0 0 1-.465-1.395V-8.28h1.92v6.75H-24V0zm6.18.18a4.633 4.633 0 0 1-1.515-.233 3.215 3.215 0 0 1-1.148-.667 2.856 2.856 0 0 1-.72-1.05 3.668 3.668 0 0 1-.247-1.38v-5.13h1.92v5.025a2 2 0 0 0 .45 1.395 1.616 1.616 0 0 0 1.26.5 1.616 1.616 0 0 0 1.26-.5 2 2 0 0 0 .45-1.395V-11.1h1.92v7.95a3.668 3.668 0 0 1-.247 1.38 2.856 2.856 0 0 1-.72 1.05 3.215 3.215 0 0 1-1.148.667 4.633 4.633 0 0 1-1.515.233zM-22.86-11.1h1.005v-.525a.546.546 0 0 0-.135-.413.727.727 0 0 0-.5-.127h-.375v-1.35h1.125a1.7 1.7 0 0 1 1.11.323 1.046 1.046 0 0 1 .39.847 1.239 1.239 0 0 1-.2.667 1.261 1.261 0 0 1-.577.488v.09h2.835v1.35h-4.68zm13.275 5.565a1.435 1.435 0 0 0-.338-1.02 1.41 1.41 0 0 0-1.072-.36 1.806 1.806 0 0 0-1.073.285 2.565 2.565 0 0 0-.668.7l-1.14-1.02a3.318 3.318 0 0 1 1.132-1.1 3.688 3.688 0 0 1 1.884-.41 3.463 3.463 0 0 1 2.385.727 2.667 2.667 0 0 1 .81 2.093V0h-1.92zm4.05-2.745h1.92v2.415l1.995-.285a1.43 1.43 0 0 0 .773-.315 1.244 1.244 0 0 0 .322-.81l.105-1h1.98l-.1 1.065a1.868 1.868 0 0 1-.545 1.15 2.079 2.079 0 0 1-1.29.555v.075a1.75 1.75 0 0 1 .84.367A2.307 2.307 0 0 1 1-4.425a2.936 2.936 0 0 1 .3.78 7.455 7.455 0 0 1 .142.8L1.71 0H-.285L-.54-2.97a2.356 2.356 0 0 0-.4-1.26 1.189 1.189 0 0 0-1.148-.3l-1.53.195V0h-1.92zM8.04.18a3.024 3.024 0 0 1-.923-.127 2.348 2.348 0 0 1-.69-.345 1.985 1.985 0 0 1-.48-.5 2.666 2.666 0 0 1-.293-.585H5.58V0H3.66v-8.28h1.92v5.49a1.2 1.2 0 0 0 .15.607 1.359 1.359 0 0 0 .39.435 1.807 1.807 0 0 0 .54.262 2.079 2.079 0 0 0 .6.09 1.745 1.745 0 0 0 .75-.143 1.3 1.3 0 0 0 .488-.39 1.49 1.49 0 0 0 .262-.585 3.35 3.35 0 0 0 .075-.727V-8.28h1.92v5.22a3.662 3.662 0 0 1-.7 2.4A2.473 2.473 0 0 1 8.04.18zm8.415-5.715a1.435 1.435 0 0 0-.338-1.02 1.41 1.41 0 0 0-1.072-.36 1.806 1.806 0 0 0-1.073.285 2.565 2.565 0 0 0-.668.7l-1.14-1.02a3.318 3.318 0 0 1 1.132-1.1 3.688 3.688 0 0 1 1.884-.41 3.463 3.463 0 0 1 2.385.727 2.667 2.667 0 0 1 .81 2.093V0h-1.92zM23.58.18a4.247 4.247 0 0 1-2.49-.638 2.084 2.084 0 0 1-.9-1.807 1.852 1.852 0 0 1 .427-1.23 2.2 2.2 0 0 1 1.1-.7v-.09A2.042 2.042 0 0 1 20.55-5a2.03 2.03 0 0 1-.42-1.3 2.181 2.181 0 0 1 .172-.878 2.009 2.009 0 0 1 .48-.682 2.146 2.146 0 0 1 .75-.443 2.914 2.914 0 0 1 .983-.158 4.583 4.583 0 0 1 .75.068 2.319 2.319 0 0 1 .735.248l-.4 1.395a1.42 1.42 0 0 0-.368-.143 1.727 1.727 0 0 0-.368-.037 1.059 1.059 0 0 0-.72.248.856.856 0 0 0-.289.682.985.985 0 0 0 .255.705 1.26 1.26 0 0 0 .93.27h.81v1.29h-.81a.925.925 0 0 0-.66.255.9.9 0 0 0-.27.69v.3a.963.963 0 0 0 .4.848 1.963 1.963 0 0 0 1.132.277 1.884 1.884 0 0 0 1.343-.457 1.733 1.733 0 0 0 .485-1.328v-5.13h1.92v5.385a2.941 2.941 0 0 1-.27 1.275 2.719 2.719 0 0 1-.765.968 3.578 3.578 0 0 1-1.2.615A5.331 5.331 0 0 1 23.58.18z" transform="translate(193 6506)"/>
            <g id="Group_1128" data-name="Group 1128" transform="translate(75.984 6384.162)">
                <circle id="Ellipse_449" data-name="Ellipse 449" class="cls-8" cx="33.398" cy="33.398" r="33.398" transform="rotate(90 33.906 33.906)"/>
                <text id="ผลลัพธ์" transform="translate(1.016 21.48)" style="font-size:15px;font-family:IBMPlexSansThai-Medium,IBM Plex Sans Thai;font-weight:500;letter-spacing:.05em;fill:#fff"><tspan x="-24.6" y="17">ผลลัพธ์</tspan></text>
            </g>
            <g id="Group_1195" data-name="Group 1195" transform="translate(75.984 6214.788)">
                <circle id="Ellipse_449-2" data-name="Ellipse 449" class="cls-8" cx="33.398" cy="33.398" r="33.398" transform="rotate(90 33.906 33.906)"/>
                <path id="Path_558" data-name="Path 558" class="cls-7" d="M11.988 17.18a1.98 1.98 0 0 1-1.9-1.132 4.294 4.294 0 0 1-.4-1.343 12.149 12.149 0 0 1-.12-1.8 5.042 5.042 0 0 1 .8-3.075 2.694 2.694 0 0 1 2.287-1.065h.435v1.365h-.3q-1.485 0-1.485 2.01v1.71a8.105 8.105 0 0 0 .037.817 2.067 2.067 0 0 0 .15.623.957.957 0 0 0 .307.4.817.817 0 0 0 .495.142q.87 0 .87-1.26v-1.427h1.455v1.425a1.48 1.48 0 0 0 .255.945.825.825 0 0 0 .675.315.766.766 0 0 0 .63-.278 1.221 1.221 0 0 0 .225-.788v-6h1.635v6.166a2.383 2.383 0 0 1-.54 1.642 1.9 1.9 0 0 1-1.5.608 2.063 2.063 0 0 1-1.455-.472 1.868 1.868 0 0 1-.6-1.163h-.09a1.935 1.935 0 0 1-.57 1.163 1.759 1.759 0 0 1-1.296.472zm11.43-.03a2.958 2.958 0 0 1-1.943-.6 2.216 2.216 0 0 1-.727-1.815 2.282 2.282 0 0 1 .7-1.785 2.841 2.841 0 0 1 1.973-.63h2.55v-.63a1.738 1.738 0 0 0-.472-1.32 2.057 2.057 0 0 0-1.462-.45 2.561 2.561 0 0 0-1.448.375 3.137 3.137 0 0 0-.923.945l-1.05-.915a3.76 3.76 0 0 1 1.313-1.253 4.358 4.358 0 0 1 2.212-.488 3.765 3.765 0 0 1 2.58.788 2.863 2.863 0 0 1 .879 2.258V17h-1.632v-3.585h-2.055a1.755 1.755 0 0 0-1.1.3 1.04 1.04 0 0 0-.383.87v.3a1.187 1.187 0 0 0 .345.9 1.311 1.311 0 0 0 .945.33 2.053 2.053 0 0 0 .48-.045l.135.99a4.115 4.115 0 0 1-.42.06 4.814 4.814 0 0 1-.497.03zm9.57 0a2.958 2.958 0 0 1-1.943-.6 2.216 2.216 0 0 1-.727-1.815 2.282 2.282 0 0 1 .7-1.785 2.841 2.841 0 0 1 1.973-.63h2.55v-.63a1.738 1.738 0 0 0-.472-1.32 2.057 2.057 0 0 0-1.469-.45 2.561 2.561 0 0 0-1.447.375 3.137 3.137 0 0 0-.923.945l-1.05-.915a3.76 3.76 0 0 1 1.32-1.252 4.358 4.358 0 0 1 2.213-.488 3.765 3.765 0 0 1 2.58.788 2.863 2.863 0 0 1 .885 2.257V17h-1.64v-3.585h-2.055a1.755 1.755 0 0 0-1.1.3 1.04 1.04 0 0 0-.382.87v.3a1.187 1.187 0 0 0 .345.9 1.311 1.311 0 0 0 .945.33 2.053 2.053 0 0 0 .48-.045l.135.99a4.116 4.116 0 0 1-.42.06 4.814 4.814 0 0 1-.498.03zm2.58-9.85a1.629 1.629 0 0 1-1.168-.38 1.388 1.388 0 0 1-.39-1.05V4.82h1.44v1.185h3.9V7.3zm4.185 1.47H41.3l.495 4.065.18 2.31h.09l.57-2.31 1.11-4.065h1.245l1.11 4.06.57 2.31h.09l.18-2.31.495-4.065h1.515L47.778 17h-1.74l-1.215-4.68-.435-1.815h-.075l-.435 1.815L42.663 17h-1.74zm11.61 5.175h1.485v1.785H56.4v-1.44a2.545 2.545 0 0 0-.06-.592.845.845 0 0 0-.24-.42 1.228 1.228 0 0 0-.5-.27 4.242 4.242 0 0 0-.833-.142l-3.555-.3v-1.041a2.677 2.677 0 0 1 .915-2.175 3.937 3.937 0 0 1 2.595-.765 4.933 4.933 0 0 1 1.92.33 3.813 3.813 0 0 1 1.305.885l-.885 1.02a2.726 2.726 0 0 0-.952-.66 3.628 3.628 0 0 0-1.478-.27 2.3 2.3 0 0 0-1.4.368 1.253 1.253 0 0 0-.495 1.073v.1l2.28.21a4.463 4.463 0 0 1 2.205.66 2.084 2.084 0 0 1 .765 1.83v1.219a1.715 1.715 0 0 1-.4 1.215 1.645 1.645 0 0 1-1.26.435h-4.964zm3.555-7.71a1.363 1.363 0 0 1 .39-1.043 1.65 1.65 0 0 1 1.17-.367h3.045V6.11h-3.165V7.3h-1.44z" transform="translate(1.016 21.48)"/>
            </g>
            <g id="Group_1197" data-name="Group 1197" transform="translate(75.984 6050.788)">
                <circle id="Ellipse_449-3" data-name="Ellipse 449" class="cls-8" cx="33.398" cy="33.398" r="33.398" transform="rotate(90 33.906 33.906)"/>
                <path id="Path_561" data-name="Path 561" class="cls-7" d="M11.988 17.18a1.98 1.98 0 0 1-1.9-1.132 4.294 4.294 0 0 1-.4-1.343 12.149 12.149 0 0 1-.12-1.8 5.042 5.042 0 0 1 .8-3.075 2.694 2.694 0 0 1 2.287-1.065h.435v1.365h-.3q-1.485 0-1.485 2.01v1.71a8.105 8.105 0 0 0 .037.817 2.067 2.067 0 0 0 .15.623.957.957 0 0 0 .307.4.817.817 0 0 0 .495.142q.87 0 .87-1.26v-1.427h1.455v1.425a1.48 1.48 0 0 0 .255.945.825.825 0 0 0 .675.315.766.766 0 0 0 .63-.278 1.221 1.221 0 0 0 .225-.788v-6h1.635v6.166a2.383 2.383 0 0 1-.54 1.642 1.9 1.9 0 0 1-1.5.608 2.063 2.063 0 0 1-1.455-.472 1.868 1.868 0 0 1-.6-1.163h-.09a1.935 1.935 0 0 1-.57 1.163 1.759 1.759 0 0 1-1.296.472zm11.43-.03a2.958 2.958 0 0 1-1.943-.6 2.216 2.216 0 0 1-.727-1.815 2.282 2.282 0 0 1 .7-1.785 2.841 2.841 0 0 1 1.973-.63h2.55v-.63a1.738 1.738 0 0 0-.472-1.32 2.057 2.057 0 0 0-1.462-.45 2.561 2.561 0 0 0-1.448.375 3.137 3.137 0 0 0-.923.945l-1.05-.915a3.76 3.76 0 0 1 1.313-1.253 4.358 4.358 0 0 1 2.212-.488 3.765 3.765 0 0 1 2.58.788 2.863 2.863 0 0 1 .879 2.258V17h-1.632v-3.585h-2.055a1.755 1.755 0 0 0-1.1.3 1.04 1.04 0 0 0-.383.87v.3a1.187 1.187 0 0 0 .345.9 1.311 1.311 0 0 0 .945.33 2.053 2.053 0 0 0 .48-.045l.135.99a4.115 4.115 0 0 1-.42.06 4.814 4.814 0 0 1-.497.03zm9.57 0a2.958 2.958 0 0 1-1.943-.6 2.216 2.216 0 0 1-.727-1.815 2.282 2.282 0 0 1 .7-1.785 2.841 2.841 0 0 1 1.973-.63h2.55v-.63a1.738 1.738 0 0 0-.472-1.32 2.057 2.057 0 0 0-1.469-.45 2.561 2.561 0 0 0-1.447.375 3.137 3.137 0 0 0-.923.945l-1.05-.915a3.76 3.76 0 0 1 1.32-1.252 4.358 4.358 0 0 1 2.213-.488 3.765 3.765 0 0 1 2.58.788 2.863 2.863 0 0 1 .885 2.257V17h-1.64v-3.585h-2.055a1.755 1.755 0 0 0-1.1.3 1.04 1.04 0 0 0-.382.87v.3a1.187 1.187 0 0 0 .345.9 1.311 1.311 0 0 0 .945.33 2.053 2.053 0 0 0 .48-.045l.135.99a4.116 4.116 0 0 1-.42.06 4.814 4.814 0 0 1-.498.03zm2.58-9.85a1.629 1.629 0 0 1-1.168-.38 1.388 1.388 0 0 1-.39-1.05V4.82h1.44v1.185h3.9V7.3zm4.185 1.47H41.3l.495 4.065.18 2.31h.09l.57-2.31 1.11-4.065h1.245l1.11 4.06.57 2.31h.09l.18-2.31.495-4.065h1.515L47.778 17h-1.74l-1.215-4.68-.435-1.815h-.075l-.435 1.815L42.663 17h-1.74zm11.61 5.175h1.485v1.785H56.4v-1.44a2.545 2.545 0 0 0-.06-.592.845.845 0 0 0-.24-.42 1.228 1.228 0 0 0-.5-.27 4.242 4.242 0 0 0-.833-.142l-3.555-.3v-1.041a2.677 2.677 0 0 1 .915-2.175 3.937 3.937 0 0 1 2.595-.765 4.933 4.933 0 0 1 1.92.33 3.813 3.813 0 0 1 1.305.885l-.885 1.02a2.726 2.726 0 0 0-.952-.66 3.628 3.628 0 0 0-1.478-.27 2.3 2.3 0 0 0-1.4.368 1.253 1.253 0 0 0-.495 1.073v.1l2.28.21a4.463 4.463 0 0 1 2.205.66 2.084 2.084 0 0 1 .765 1.83v1.219a1.715 1.715 0 0 1-.4 1.215 1.645 1.645 0 0 1-1.26.435h-4.964zm3.555-7.71a1.363 1.363 0 0 1 .39-1.043 1.65 1.65 0 0 1 1.17-.367h3.045V6.11h-3.165V7.3h-1.44z" transform="translate(1.016 21.48)"/>
            </g>
            <g id="Group_1194" data-name="Group 1194" transform="translate(234.198 6384.162)">
                <circle id="Ellipse_449-4" data-name="Ellipse 449" class="cls-8" cx="33.398" cy="33.398" r="33.398" transform="rotate(90 33.906 33.906)"/>
                <path id="Path_555" data-name="Path 555" class="cls-7" d="M11.988 17.18a1.98 1.98 0 0 1-1.9-1.132 4.294 4.294 0 0 1-.4-1.343 12.149 12.149 0 0 1-.12-1.8 5.042 5.042 0 0 1 .8-3.075 2.694 2.694 0 0 1 2.287-1.065h.435v1.365h-.3q-1.485 0-1.485 2.01v1.71a8.105 8.105 0 0 0 .037.817 2.067 2.067 0 0 0 .15.623.957.957 0 0 0 .307.4.817.817 0 0 0 .495.142q.87 0 .87-1.26v-1.427h1.455v1.425a1.48 1.48 0 0 0 .255.945.825.825 0 0 0 .675.315.766.766 0 0 0 .63-.278 1.221 1.221 0 0 0 .225-.788v-6h1.635v6.166a2.383 2.383 0 0 1-.54 1.642 1.9 1.9 0 0 1-1.5.608 2.063 2.063 0 0 1-1.455-.472 1.868 1.868 0 0 1-.6-1.163h-.09a1.935 1.935 0 0 1-.57 1.163 1.759 1.759 0 0 1-1.296.472zm11.43-.03a2.958 2.958 0 0 1-1.943-.6 2.216 2.216 0 0 1-.727-1.815 2.282 2.282 0 0 1 .7-1.785 2.841 2.841 0 0 1 1.973-.63h2.55v-.63a1.738 1.738 0 0 0-.472-1.32 2.057 2.057 0 0 0-1.462-.45 2.561 2.561 0 0 0-1.448.375 3.137 3.137 0 0 0-.923.945l-1.05-.915a3.76 3.76 0 0 1 1.313-1.253 4.358 4.358 0 0 1 2.212-.488 3.765 3.765 0 0 1 2.58.788 2.863 2.863 0 0 1 .879 2.258V17h-1.632v-3.585h-2.055a1.755 1.755 0 0 0-1.1.3 1.04 1.04 0 0 0-.383.87v.3a1.187 1.187 0 0 0 .345.9 1.311 1.311 0 0 0 .945.33 2.053 2.053 0 0 0 .48-.045l.135.99a4.115 4.115 0 0 1-.42.06 4.814 4.814 0 0 1-.497.03zm9.57 0a2.958 2.958 0 0 1-1.943-.6 2.216 2.216 0 0 1-.727-1.815 2.282 2.282 0 0 1 .7-1.785 2.841 2.841 0 0 1 1.973-.63h2.55v-.63a1.738 1.738 0 0 0-.472-1.32 2.057 2.057 0 0 0-1.469-.45 2.561 2.561 0 0 0-1.447.375 3.137 3.137 0 0 0-.923.945l-1.05-.915a3.76 3.76 0 0 1 1.32-1.252 4.358 4.358 0 0 1 2.213-.488 3.765 3.765 0 0 1 2.58.788 2.863 2.863 0 0 1 .885 2.257V17h-1.64v-3.585h-2.055a1.755 1.755 0 0 0-1.1.3 1.04 1.04 0 0 0-.382.87v.3a1.187 1.187 0 0 0 .345.9 1.311 1.311 0 0 0 .945.33 2.053 2.053 0 0 0 .48-.045l.135.99a4.116 4.116 0 0 1-.42.06 4.814 4.814 0 0 1-.498.03zm2.58-9.85a1.629 1.629 0 0 1-1.168-.38 1.388 1.388 0 0 1-.39-1.05V4.82h1.44v1.185h3.9V7.3zm4.185 1.47H41.3l.495 4.065.18 2.31h.09l.57-2.31 1.11-4.065h1.245l1.11 4.06.57 2.31h.09l.18-2.31.495-4.065h1.515L47.778 17h-1.74l-1.215-4.68-.435-1.815h-.075l-.435 1.815L42.663 17h-1.74zm11.61 5.175h1.485v1.785H56.4v-1.44a2.545 2.545 0 0 0-.06-.592.845.845 0 0 0-.24-.42 1.228 1.228 0 0 0-.5-.27 4.242 4.242 0 0 0-.833-.142l-3.555-.3v-1.041a2.677 2.677 0 0 1 .915-2.175 3.937 3.937 0 0 1 2.595-.765 4.933 4.933 0 0 1 1.92.33 3.813 3.813 0 0 1 1.305.885l-.885 1.02a2.726 2.726 0 0 0-.952-.66 3.628 3.628 0 0 0-1.478-.27 2.3 2.3 0 0 0-1.4.368 1.253 1.253 0 0 0-.495 1.073v.1l2.28.21a4.463 4.463 0 0 1 2.205.66 2.084 2.084 0 0 1 .765 1.83v1.219a1.715 1.715 0 0 1-.4 1.215 1.645 1.645 0 0 1-1.26.435h-4.964zm3.555-7.71a1.363 1.363 0 0 1 .39-1.043 1.65 1.65 0 0 1 1.17-.367h3.045V6.11h-3.165V7.3h-1.44z" transform="translate(1.016 21.48)"/>
            </g>
            <g id="Group_1196" data-name="Group 1196" transform="translate(234.198 6214.788)">
                <circle id="Ellipse_449-5" data-name="Ellipse 449" class="cls-8" cx="33.398" cy="33.398" r="33.398" transform="rotate(90 33.906 33.906)"/>
                <path id="Path_557" data-name="Path 557" class="cls-7" d="M11.988 17.18a1.98 1.98 0 0 1-1.9-1.132 4.294 4.294 0 0 1-.4-1.343 12.149 12.149 0 0 1-.12-1.8 5.042 5.042 0 0 1 .8-3.075 2.694 2.694 0 0 1 2.287-1.065h.435v1.365h-.3q-1.485 0-1.485 2.01v1.71a8.105 8.105 0 0 0 .037.817 2.067 2.067 0 0 0 .15.623.957.957 0 0 0 .307.4.817.817 0 0 0 .495.142q.87 0 .87-1.26v-1.427h1.455v1.425a1.48 1.48 0 0 0 .255.945.825.825 0 0 0 .675.315.766.766 0 0 0 .63-.278 1.221 1.221 0 0 0 .225-.788v-6h1.635v6.166a2.383 2.383 0 0 1-.54 1.642 1.9 1.9 0 0 1-1.5.608 2.063 2.063 0 0 1-1.455-.472 1.868 1.868 0 0 1-.6-1.163h-.09a1.935 1.935 0 0 1-.57 1.163 1.759 1.759 0 0 1-1.296.472zm11.43-.03a2.958 2.958 0 0 1-1.943-.6 2.216 2.216 0 0 1-.727-1.815 2.282 2.282 0 0 1 .7-1.785 2.841 2.841 0 0 1 1.973-.63h2.55v-.63a1.738 1.738 0 0 0-.472-1.32 2.057 2.057 0 0 0-1.462-.45 2.561 2.561 0 0 0-1.448.375 3.137 3.137 0 0 0-.923.945l-1.05-.915a3.76 3.76 0 0 1 1.313-1.253 4.358 4.358 0 0 1 2.212-.488 3.765 3.765 0 0 1 2.58.788 2.863 2.863 0 0 1 .879 2.258V17h-1.632v-3.585h-2.055a1.755 1.755 0 0 0-1.1.3 1.04 1.04 0 0 0-.383.87v.3a1.187 1.187 0 0 0 .345.9 1.311 1.311 0 0 0 .945.33 2.053 2.053 0 0 0 .48-.045l.135.99a4.115 4.115 0 0 1-.42.06 4.814 4.814 0 0 1-.497.03zm9.57 0a2.958 2.958 0 0 1-1.943-.6 2.216 2.216 0 0 1-.727-1.815 2.282 2.282 0 0 1 .7-1.785 2.841 2.841 0 0 1 1.973-.63h2.55v-.63a1.738 1.738 0 0 0-.472-1.32 2.057 2.057 0 0 0-1.469-.45 2.561 2.561 0 0 0-1.447.375 3.137 3.137 0 0 0-.923.945l-1.05-.915a3.76 3.76 0 0 1 1.32-1.252 4.358 4.358 0 0 1 2.213-.488 3.765 3.765 0 0 1 2.58.788 2.863 2.863 0 0 1 .885 2.257V17h-1.64v-3.585h-2.055a1.755 1.755 0 0 0-1.1.3 1.04 1.04 0 0 0-.382.87v.3a1.187 1.187 0 0 0 .345.9 1.311 1.311 0 0 0 .945.33 2.053 2.053 0 0 0 .48-.045l.135.99a4.116 4.116 0 0 1-.42.06 4.814 4.814 0 0 1-.498.03zm2.58-9.85a1.629 1.629 0 0 1-1.168-.38 1.388 1.388 0 0 1-.39-1.05V4.82h1.44v1.185h3.9V7.3zm4.185 1.47H41.3l.495 4.065.18 2.31h.09l.57-2.31 1.11-4.065h1.245l1.11 4.06.57 2.31h.09l.18-2.31.495-4.065h1.515L47.778 17h-1.74l-1.215-4.68-.435-1.815h-.075l-.435 1.815L42.663 17h-1.74zm11.61 5.175h1.485v1.785H56.4v-1.44a2.545 2.545 0 0 0-.06-.592.845.845 0 0 0-.24-.42 1.228 1.228 0 0 0-.5-.27 4.242 4.242 0 0 0-.833-.142l-3.555-.3v-1.041a2.677 2.677 0 0 1 .915-2.175 3.937 3.937 0 0 1 2.595-.765 4.933 4.933 0 0 1 1.92.33 3.813 3.813 0 0 1 1.305.885l-.885 1.02a2.726 2.726 0 0 0-.952-.66 3.628 3.628 0 0 0-1.478-.27 2.3 2.3 0 0 0-1.4.368 1.253 1.253 0 0 0-.495 1.073v.1l2.28.21a4.463 4.463 0 0 1 2.205.66 2.084 2.084 0 0 1 .765 1.83v1.219a1.715 1.715 0 0 1-.4 1.215 1.645 1.645 0 0 1-1.26.435h-4.964zm3.555-7.71a1.363 1.363 0 0 1 .39-1.043 1.65 1.65 0 0 1 1.17-.367h3.045V6.11h-3.165V7.3h-1.44z" transform="translate(1.016 21.48)"/>
            </g>
            <g id="Group_1198" data-name="Group 1198" transform="translate(234.198 6050.788)">
                <circle id="Ellipse_449-6" data-name="Ellipse 449" class="cls-8" cx="33.398" cy="33.398" r="33.398" transform="rotate(90 33.906 33.906)"/>
                <path id="Path_560" data-name="Path 560" class="cls-7" d="M11.988 17.18a1.98 1.98 0 0 1-1.9-1.132 4.294 4.294 0 0 1-.4-1.343 12.149 12.149 0 0 1-.12-1.8 5.042 5.042 0 0 1 .8-3.075 2.694 2.694 0 0 1 2.287-1.065h.435v1.365h-.3q-1.485 0-1.485 2.01v1.71a8.105 8.105 0 0 0 .037.817 2.067 2.067 0 0 0 .15.623.957.957 0 0 0 .307.4.817.817 0 0 0 .495.142q.87 0 .87-1.26v-1.427h1.455v1.425a1.48 1.48 0 0 0 .255.945.825.825 0 0 0 .675.315.766.766 0 0 0 .63-.278 1.221 1.221 0 0 0 .225-.788v-6h1.635v6.166a2.383 2.383 0 0 1-.54 1.642 1.9 1.9 0 0 1-1.5.608 2.063 2.063 0 0 1-1.455-.472 1.868 1.868 0 0 1-.6-1.163h-.09a1.935 1.935 0 0 1-.57 1.163 1.759 1.759 0 0 1-1.296.472zm11.43-.03a2.958 2.958 0 0 1-1.943-.6 2.216 2.216 0 0 1-.727-1.815 2.282 2.282 0 0 1 .7-1.785 2.841 2.841 0 0 1 1.973-.63h2.55v-.63a1.738 1.738 0 0 0-.472-1.32 2.057 2.057 0 0 0-1.462-.45 2.561 2.561 0 0 0-1.448.375 3.137 3.137 0 0 0-.923.945l-1.05-.915a3.76 3.76 0 0 1 1.313-1.253 4.358 4.358 0 0 1 2.212-.488 3.765 3.765 0 0 1 2.58.788 2.863 2.863 0 0 1 .879 2.258V17h-1.632v-3.585h-2.055a1.755 1.755 0 0 0-1.1.3 1.04 1.04 0 0 0-.383.87v.3a1.187 1.187 0 0 0 .345.9 1.311 1.311 0 0 0 .945.33 2.053 2.053 0 0 0 .48-.045l.135.99a4.115 4.115 0 0 1-.42.06 4.814 4.814 0 0 1-.497.03zm9.57 0a2.958 2.958 0 0 1-1.943-.6 2.216 2.216 0 0 1-.727-1.815 2.282 2.282 0 0 1 .7-1.785 2.841 2.841 0 0 1 1.973-.63h2.55v-.63a1.738 1.738 0 0 0-.472-1.32 2.057 2.057 0 0 0-1.469-.45 2.561 2.561 0 0 0-1.447.375 3.137 3.137 0 0 0-.923.945l-1.05-.915a3.76 3.76 0 0 1 1.32-1.252 4.358 4.358 0 0 1 2.213-.488 3.765 3.765 0 0 1 2.58.788 2.863 2.863 0 0 1 .885 2.257V17h-1.64v-3.585h-2.055a1.755 1.755 0 0 0-1.1.3 1.04 1.04 0 0 0-.382.87v.3a1.187 1.187 0 0 0 .345.9 1.311 1.311 0 0 0 .945.33 2.053 2.053 0 0 0 .48-.045l.135.99a4.116 4.116 0 0 1-.42.06 4.814 4.814 0 0 1-.498.03zm2.58-9.85a1.629 1.629 0 0 1-1.168-.38 1.388 1.388 0 0 1-.39-1.05V4.82h1.44v1.185h3.9V7.3zm4.185 1.47H41.3l.495 4.065.18 2.31h.09l.57-2.31 1.11-4.065h1.245l1.11 4.06.57 2.31h.09l.18-2.31.495-4.065h1.515L47.778 17h-1.74l-1.215-4.68-.435-1.815h-.075l-.435 1.815L42.663 17h-1.74zm11.61 5.175h1.485v1.785H56.4v-1.44a2.545 2.545 0 0 0-.06-.592.845.845 0 0 0-.24-.42 1.228 1.228 0 0 0-.5-.27 4.242 4.242 0 0 0-.833-.142l-3.555-.3v-1.041a2.677 2.677 0 0 1 .915-2.175 3.937 3.937 0 0 1 2.595-.765 4.933 4.933 0 0 1 1.92.33 3.813 3.813 0 0 1 1.305.885l-.885 1.02a2.726 2.726 0 0 0-.952-.66 3.628 3.628 0 0 0-1.478-.27 2.3 2.3 0 0 0-1.4.368 1.253 1.253 0 0 0-.495 1.073v.1l2.28.21a4.463 4.463 0 0 1 2.205.66 2.084 2.084 0 0 1 .765 1.83v1.219a1.715 1.715 0 0 1-.4 1.215 1.645 1.645 0 0 1-1.26.435h-4.964zm3.555-7.71a1.363 1.363 0 0 1 .39-1.043 1.65 1.65 0 0 1 1.17-.367h3.045V6.11h-3.165V7.3h-1.44z" transform="translate(1.016 21.48)"/>
            </g>
            <g id="Group_1193" data-name="Group 1193" transform="translate(156.826 6302.961)">
                <ellipse id="Ellipse_449-7" data-name="Ellipse 449" class="cls-10" cx="44.398" cy="44.898" rx="44.398" ry="44.898" transform="rotate(90 45.207 34.207)"/>
                <path id="Path_556" data-name="Path 556" class="cls-7" d="M10.308 13.7h-.87v-1.335h1.2a.954.954 0 0 1 .99.66l.945 2.7h.48a1.14 1.14 0 0 0 1-.6 3.135 3.135 0 0 0 .375-1.665v-1.29a2.293 2.293 0 0 0-.57-1.658 2.123 2.123 0 0 0-1.6-.592 3.24 3.24 0 0 0-.908.12 2.766 2.766 0 0 0-.727.323 2.942 2.942 0 0 0-.555.457 3.213 3.213 0 0 0-.4.525l-1.04-.915a3.661 3.661 0 0 1 .555-.7 3.546 3.546 0 0 1 .787-.59 4.354 4.354 0 0 1 1.042-.405 5.324 5.324 0 0 1 1.32-.15A3.621 3.621 0 0 1 15.16 9.7a4.468 4.468 0 0 1 1.012 3.113 6.33 6.33 0 0 1-.225 1.755 3.874 3.874 0 0 1-.645 1.32 2.838 2.838 0 0 1-1.005.825 2.975 2.975 0 0 1-1.32.285h-1.5zm3.975 6.09h-1.02v-1.155h1.365a1.092 1.092 0 0 1 .825.27 1.027 1.027 0 0 1 .255.735v2.56h-1.425zm7.77-2.61a3.247 3.247 0 0 1-2.653-1.148 4.825 4.825 0 0 1-.945-3.157 5.344 5.344 0 0 1 .278-1.77 3.85 3.85 0 0 1 .8-1.358 3.448 3.448 0 0 1 1.253-.862 4.331 4.331 0 0 1 1.65-.3 4.505 4.505 0 0 1 1.53.248 3.408 3.408 0 0 1 1.177.7 3.028 3.028 0 0 1 .75 1.087 3.69 3.69 0 0 1 .262 1.417V17h-1.642v-4.83a2.293 2.293 0 0 0-.57-1.658 2.063 2.063 0 0 0-1.56-.592 2.053 2.053 0 0 0-1.612.645 2.535 2.535 0 0 0-.578 1.755v1.1a2.762 2.762 0 0 0 .517 1.807 1.94 1.94 0 0 0 1.583.623 2.984 2.984 0 0 0 .615-.06l.2 1.29a2.914 2.914 0 0 1-.533.082q-.312.018-.522.018zm10.575 0a4.384 4.384 0 0 1-1.478-.233 3.151 3.151 0 0 1-1.11-.66 2.886 2.886 0 0 1-.7-1.035 3.568 3.568 0 0 1-.248-1.358V8.765h1.635v5.01a2.162 2.162 0 0 0 .5 1.53 2.091 2.091 0 0 0 2.805 0 2.162 2.162 0 0 0 .5-1.53v-7.77h1.635V13.9a3.568 3.568 0 0 1-.248 1.358 2.886 2.886 0 0 1-.705 1.035 3.151 3.151 0 0 1-1.11.66 4.384 4.384 0 0 1-1.476.227zm9.495 0a4.378 4.378 0 0 1-1.958-.4 4.3 4.3 0 0 1-1.4-1.117l1.035-.973a3.1 3.1 0 0 0 1.05.87 3.011 3.011 0 0 0 1.365.3 2.037 2.037 0 0 0 1.208-.292.972.972 0 0 0 .4-.832.923.923 0 0 0-.307-.743 1.879 1.879 0 0 0-.968-.353l-.765-.1a5.748 5.748 0 0 1-1.05-.24 2.88 2.88 0 0 1-.862-.45 2.106 2.106 0 0 1-.585-.7 2.232 2.232 0 0 1-.218-1.035 2.465 2.465 0 0 1 .225-1.073 2.226 2.226 0 0 1 .63-.795 2.8 2.8 0 0 1 .968-.488 5.006 5.006 0 0 1 3.083.172 4.088 4.088 0 0 1 1.275.938l-.99.99a2.887 2.887 0 0 0-.885-.66 2.748 2.748 0 0 0-1.245-.27 1.817 1.817 0 0 0-1.11.285.927.927 0 0 0-.375.78.906.906 0 0 0 .345.78A2.214 2.214 0 0 0 42 12.11l.765.12a6.366 6.366 0 0 1 1.072.255 2.691 2.691 0 0 1 .833.442 1.875 1.875 0 0 1 .533.683 2.307 2.307 0 0 1 .188.975 2.411 2.411 0 0 1-.233 1.065 2.318 2.318 0 0 1-.66.818 3.151 3.151 0 0 1-1.035.525 4.538 4.538 0 0 1-1.34.187zm7.455-1.545a1.629 1.629 0 0 1-1.17-.375 1.388 1.388 0 0 1-.39-1.05v-.765h1.47v.825h2.5v1.365zm0-3.78a1.65 1.65 0 0 1-1.17-.368 1.363 1.363 0 0 1-.39-1.042v-.78h1.47v.825h2.5v1.365zm7.8 5.3a2.958 2.958 0 0 1-1.943-.6 2.216 2.216 0 0 1-.728-1.815 2.282 2.282 0 0 1 .7-1.785 2.841 2.841 0 0 1 1.972-.63h2.55v-.63a1.738 1.738 0 0 0-.472-1.32 2.057 2.057 0 0 0-1.463-.45 2.561 2.561 0 0 0-1.447.375 3.137 3.137 0 0 0-.923.945l-1.05-.915a3.76 3.76 0 0 1 1.313-1.253 4.358 4.358 0 0 1 2.213-.492 4.06 4.06 0 0 1 2.265.555.908.908 0 0 1 1.02-.81h1.845v1.425h-2.237v.03a2.921 2.921 0 0 1 .57 1.845V17h-1.635v-3.585h-2.055a1.755 1.755 0 0 0-1.1.3 1.04 1.04 0 0 0-.382.87v.3a1.187 1.187 0 0 0 .345.9 1.311 1.311 0 0 0 .945.33 2.053 2.053 0 0 0 .48-.045l.135.99a4.115 4.115 0 0 1-.42.06 4.814 4.814 0 0 1-.498.03zm6.78-6.075h1.665l2.025 4.605h.045a1.408 1.408 0 0 0 1.2-.562 2.63 2.63 0 0 0 .42-1.6V12.23a2.508 2.508 0 0 0-.435-1.567 1.433 1.433 0 0 0-1.2-.562h-.51V8.765h.54a2.986 2.986 0 0 1 2.49 1.08 4.771 4.771 0 0 1 .855 3.03 4.716 4.716 0 0 1-.878 3.038A2.975 2.975 0 0 1 67.923 17h-1.155zm9.705.87a3.538 3.538 0 0 1 .262-1.387 2.944 2.944 0 0 1 .757-1.065 3.356 3.356 0 0 1 1.193-.675 5.4 5.4 0 0 1 3.135 0 3.356 3.356 0 0 1 1.193.675 2.944 2.944 0 0 1 .757 1.065 3.538 3.538 0 0 1 .262 1.387V17h-1.634v-4.95a2.093 2.093 0 0 0-.57-1.582 2.539 2.539 0 0 0-3.15 0 2.093 2.093 0 0 0-.57 1.582v1.89h.075a2.733 2.733 0 0 1 .255-.585 1.923 1.923 0 0 1 .42-.5 2.043 2.043 0 0 1 .615-.352 2.387 2.387 0 0 1 .84-.135h.45v1.572h-.63a2.882 2.882 0 0 0-1.5.322 1.088 1.088 0 0 0-.525 1V17h-1.635zm4.485-5.72a1.363 1.363 0 0 1 .39-1.043 1.65 1.65 0 0 1 1.17-.367h3.045v1.29h-3.165V7.3h-1.44z" transform="translate(-10.382 21.48)"/>
            </g>
            <g id="Group_1199" data-name="Group 1199" transform="translate(156.826 6136.992)">
                <ellipse id="Ellipse_449-8" data-name="Ellipse 449" class="cls-10" cx="44.398" cy="44.898" rx="44.398" ry="44.898" transform="rotate(90 45.207 34.207)"/>
                <path id="Path_559" data-name="Path 559" class="cls-7" d="M10.308 13.7h-.87v-1.335h1.2a.954.954 0 0 1 .99.66l.945 2.7h.48a1.14 1.14 0 0 0 1-.6 3.135 3.135 0 0 0 .375-1.665v-1.29a2.293 2.293 0 0 0-.57-1.658 2.123 2.123 0 0 0-1.6-.592 3.24 3.24 0 0 0-.908.12 2.766 2.766 0 0 0-.727.323 2.942 2.942 0 0 0-.555.457 3.213 3.213 0 0 0-.4.525l-1.04-.915a3.661 3.661 0 0 1 .555-.7 3.546 3.546 0 0 1 .787-.59 4.354 4.354 0 0 1 1.042-.405 5.324 5.324 0 0 1 1.32-.15A3.621 3.621 0 0 1 15.16 9.7a4.468 4.468 0 0 1 1.012 3.113 6.33 6.33 0 0 1-.225 1.755 3.874 3.874 0 0 1-.645 1.32 2.838 2.838 0 0 1-1.005.825 2.975 2.975 0 0 1-1.32.285h-1.5zm3.975 6.09h-1.02v-1.155h1.365a1.092 1.092 0 0 1 .825.27 1.027 1.027 0 0 1 .255.735v2.56h-1.425zm7.77-2.61a3.247 3.247 0 0 1-2.653-1.148 4.825 4.825 0 0 1-.945-3.157 5.344 5.344 0 0 1 .278-1.77 3.85 3.85 0 0 1 .8-1.358 3.448 3.448 0 0 1 1.253-.862 4.331 4.331 0 0 1 1.65-.3 4.505 4.505 0 0 1 1.53.248 3.408 3.408 0 0 1 1.177.7 3.028 3.028 0 0 1 .75 1.087 3.69 3.69 0 0 1 .262 1.417V17h-1.642v-4.83a2.293 2.293 0 0 0-.57-1.658 2.063 2.063 0 0 0-1.56-.592 2.053 2.053 0 0 0-1.612.645 2.535 2.535 0 0 0-.578 1.755v1.1a2.762 2.762 0 0 0 .517 1.807 1.94 1.94 0 0 0 1.583.623 2.984 2.984 0 0 0 .615-.06l.2 1.29a2.914 2.914 0 0 1-.533.082q-.312.018-.522.018zm10.575 0a4.384 4.384 0 0 1-1.478-.233 3.151 3.151 0 0 1-1.11-.66 2.886 2.886 0 0 1-.7-1.035 3.568 3.568 0 0 1-.248-1.358V8.765h1.635v5.01a2.162 2.162 0 0 0 .5 1.53 2.091 2.091 0 0 0 2.805 0 2.162 2.162 0 0 0 .5-1.53v-7.77h1.635V13.9a3.568 3.568 0 0 1-.248 1.358 2.886 2.886 0 0 1-.705 1.035 3.151 3.151 0 0 1-1.11.66 4.384 4.384 0 0 1-1.476.227zm9.495 0a4.378 4.378 0 0 1-1.958-.4 4.3 4.3 0 0 1-1.4-1.117l1.035-.973a3.1 3.1 0 0 0 1.05.87 3.011 3.011 0 0 0 1.365.3 2.037 2.037 0 0 0 1.208-.292.972.972 0 0 0 .4-.832.923.923 0 0 0-.307-.743 1.879 1.879 0 0 0-.968-.353l-.765-.1a5.748 5.748 0 0 1-1.05-.24 2.88 2.88 0 0 1-.862-.45 2.106 2.106 0 0 1-.585-.7 2.232 2.232 0 0 1-.218-1.035 2.465 2.465 0 0 1 .225-1.073 2.226 2.226 0 0 1 .63-.795 2.8 2.8 0 0 1 .968-.488 5.006 5.006 0 0 1 3.083.172 4.088 4.088 0 0 1 1.275.938l-.99.99a2.887 2.887 0 0 0-.885-.66 2.748 2.748 0 0 0-1.245-.27 1.817 1.817 0 0 0-1.11.285.927.927 0 0 0-.375.78.906.906 0 0 0 .345.78A2.214 2.214 0 0 0 42 12.11l.765.12a6.366 6.366 0 0 1 1.072.255 2.691 2.691 0 0 1 .833.442 1.875 1.875 0 0 1 .533.683 2.307 2.307 0 0 1 .188.975 2.411 2.411 0 0 1-.233 1.065 2.318 2.318 0 0 1-.66.818 3.151 3.151 0 0 1-1.035.525 4.538 4.538 0 0 1-1.34.187zm7.455-1.545a1.629 1.629 0 0 1-1.17-.375 1.388 1.388 0 0 1-.39-1.05v-.765h1.47v.825h2.5v1.365zm0-3.78a1.65 1.65 0 0 1-1.17-.368 1.363 1.363 0 0 1-.39-1.042v-.78h1.47v.825h2.5v1.365zm7.8 5.3a2.958 2.958 0 0 1-1.943-.6 2.216 2.216 0 0 1-.728-1.815 2.282 2.282 0 0 1 .7-1.785 2.841 2.841 0 0 1 1.972-.63h2.55v-.63a1.738 1.738 0 0 0-.472-1.32 2.057 2.057 0 0 0-1.463-.45 2.561 2.561 0 0 0-1.447.375 3.137 3.137 0 0 0-.923.945l-1.05-.915a3.76 3.76 0 0 1 1.313-1.253 4.358 4.358 0 0 1 2.213-.492 4.06 4.06 0 0 1 2.265.555.908.908 0 0 1 1.02-.81h1.845v1.425h-2.237v.03a2.921 2.921 0 0 1 .57 1.845V17h-1.635v-3.585h-2.055a1.755 1.755 0 0 0-1.1.3 1.04 1.04 0 0 0-.382.87v.3a1.187 1.187 0 0 0 .345.9 1.311 1.311 0 0 0 .945.33 2.053 2.053 0 0 0 .48-.045l.135.99a4.115 4.115 0 0 1-.42.06 4.814 4.814 0 0 1-.498.03zm6.78-6.075h1.665l2.025 4.605h.045a1.408 1.408 0 0 0 1.2-.562 2.63 2.63 0 0 0 .42-1.6V12.23a2.508 2.508 0 0 0-.435-1.567 1.433 1.433 0 0 0-1.2-.562h-.51V8.765h.54a2.986 2.986 0 0 1 2.49 1.08 4.771 4.771 0 0 1 .855 3.03 4.716 4.716 0 0 1-.878 3.038A2.975 2.975 0 0 1 67.923 17h-1.155zm9.705.87a3.538 3.538 0 0 1 .262-1.387 2.944 2.944 0 0 1 .757-1.065 3.356 3.356 0 0 1 1.193-.675 5.4 5.4 0 0 1 3.135 0 3.356 3.356 0 0 1 1.193.675 2.944 2.944 0 0 1 .757 1.065 3.538 3.538 0 0 1 .262 1.387V17h-1.634v-4.95a2.093 2.093 0 0 0-.57-1.582 2.539 2.539 0 0 0-3.15 0 2.093 2.093 0 0 0-.57 1.582v1.89h.075a2.733 2.733 0 0 1 .255-.585 1.923 1.923 0 0 1 .42-.5 2.043 2.043 0 0 1 .615-.352 2.387 2.387 0 0 1 .84-.135h.45v1.572h-.63a2.882 2.882 0 0 0-1.5.322 1.088 1.088 0 0 0-.525 1V17h-1.635zm4.485-5.72a1.363 1.363 0 0 1 .39-1.043 1.65 1.65 0 0 1 1.17-.367h3.045v1.29h-3.165V7.3h-1.44z" transform="translate(-10.382 21.48)"/>
            </g>
            <g id="Group_1200" data-name="Group 1200" transform="translate(156.826 5976.252)">
                <ellipse id="Ellipse_449-9" data-name="Ellipse 449" class="cls-10" cx="44.398" cy="44.898" rx="44.398" ry="44.898" transform="rotate(90 45.207 34.207)"/>
                <path id="Path_562" data-name="Path 562" class="cls-7" d="M10.308 13.7h-.87v-1.335h1.2a.954.954 0 0 1 .99.66l.945 2.7h.48a1.14 1.14 0 0 0 1-.6 3.135 3.135 0 0 0 .375-1.665v-1.29a2.293 2.293 0 0 0-.57-1.658 2.123 2.123 0 0 0-1.6-.592 3.24 3.24 0 0 0-.908.12 2.766 2.766 0 0 0-.727.323 2.942 2.942 0 0 0-.555.457 3.213 3.213 0 0 0-.4.525l-1.04-.915a3.661 3.661 0 0 1 .555-.7 3.546 3.546 0 0 1 .787-.59 4.354 4.354 0 0 1 1.042-.405 5.324 5.324 0 0 1 1.32-.15A3.621 3.621 0 0 1 15.16 9.7a4.468 4.468 0 0 1 1.012 3.113 6.33 6.33 0 0 1-.225 1.755 3.874 3.874 0 0 1-.645 1.32 2.838 2.838 0 0 1-1.005.825 2.975 2.975 0 0 1-1.32.285h-1.5zm3.975 6.09h-1.02v-1.155h1.365a1.092 1.092 0 0 1 .825.27 1.027 1.027 0 0 1 .255.735v2.56h-1.425zm7.77-2.61a3.247 3.247 0 0 1-2.653-1.148 4.825 4.825 0 0 1-.945-3.157 5.344 5.344 0 0 1 .278-1.77 3.85 3.85 0 0 1 .8-1.358 3.448 3.448 0 0 1 1.253-.862 4.331 4.331 0 0 1 1.65-.3 4.505 4.505 0 0 1 1.53.248 3.408 3.408 0 0 1 1.177.7 3.028 3.028 0 0 1 .75 1.087 3.69 3.69 0 0 1 .262 1.417V17h-1.642v-4.83a2.293 2.293 0 0 0-.57-1.658 2.063 2.063 0 0 0-1.56-.592 2.053 2.053 0 0 0-1.612.645 2.535 2.535 0 0 0-.578 1.755v1.1a2.762 2.762 0 0 0 .517 1.807 1.94 1.94 0 0 0 1.583.623 2.984 2.984 0 0 0 .615-.06l.2 1.29a2.914 2.914 0 0 1-.533.082q-.312.018-.522.018zm10.575 0a4.384 4.384 0 0 1-1.478-.233 3.151 3.151 0 0 1-1.11-.66 2.886 2.886 0 0 1-.7-1.035 3.568 3.568 0 0 1-.248-1.358V8.765h1.635v5.01a2.162 2.162 0 0 0 .5 1.53 2.091 2.091 0 0 0 2.805 0 2.162 2.162 0 0 0 .5-1.53v-7.77h1.635V13.9a3.568 3.568 0 0 1-.248 1.358 2.886 2.886 0 0 1-.705 1.035 3.151 3.151 0 0 1-1.11.66 4.384 4.384 0 0 1-1.476.227zm9.495 0a4.378 4.378 0 0 1-1.958-.4 4.3 4.3 0 0 1-1.4-1.117l1.035-.973a3.1 3.1 0 0 0 1.05.87 3.011 3.011 0 0 0 1.365.3 2.037 2.037 0 0 0 1.208-.292.972.972 0 0 0 .4-.832.923.923 0 0 0-.307-.743 1.879 1.879 0 0 0-.968-.353l-.765-.1a5.748 5.748 0 0 1-1.05-.24 2.88 2.88 0 0 1-.862-.45 2.106 2.106 0 0 1-.585-.7 2.232 2.232 0 0 1-.218-1.035 2.465 2.465 0 0 1 .225-1.073 2.226 2.226 0 0 1 .63-.795 2.8 2.8 0 0 1 .968-.488 5.006 5.006 0 0 1 3.083.172 4.088 4.088 0 0 1 1.275.938l-.99.99a2.887 2.887 0 0 0-.885-.66 2.748 2.748 0 0 0-1.245-.27 1.817 1.817 0 0 0-1.11.285.927.927 0 0 0-.375.78.906.906 0 0 0 .345.78A2.214 2.214 0 0 0 42 12.11l.765.12a6.366 6.366 0 0 1 1.072.255 2.691 2.691 0 0 1 .833.442 1.875 1.875 0 0 1 .533.683 2.307 2.307 0 0 1 .188.975 2.411 2.411 0 0 1-.233 1.065 2.318 2.318 0 0 1-.66.818 3.151 3.151 0 0 1-1.035.525 4.538 4.538 0 0 1-1.34.187zm7.455-1.545a1.629 1.629 0 0 1-1.17-.375 1.388 1.388 0 0 1-.39-1.05v-.765h1.47v.825h2.5v1.365zm0-3.78a1.65 1.65 0 0 1-1.17-.368 1.363 1.363 0 0 1-.39-1.042v-.78h1.47v.825h2.5v1.365zm7.8 5.3a2.958 2.958 0 0 1-1.943-.6 2.216 2.216 0 0 1-.728-1.815 2.282 2.282 0 0 1 .7-1.785 2.841 2.841 0 0 1 1.972-.63h2.55v-.63a1.738 1.738 0 0 0-.472-1.32 2.057 2.057 0 0 0-1.463-.45 2.561 2.561 0 0 0-1.447.375 3.137 3.137 0 0 0-.923.945l-1.05-.915a3.76 3.76 0 0 1 1.313-1.253 4.358 4.358 0 0 1 2.213-.492 4.06 4.06 0 0 1 2.265.555.908.908 0 0 1 1.02-.81h1.845v1.425h-2.237v.03a2.921 2.921 0 0 1 .57 1.845V17h-1.635v-3.585h-2.055a1.755 1.755 0 0 0-1.1.3 1.04 1.04 0 0 0-.382.87v.3a1.187 1.187 0 0 0 .345.9 1.311 1.311 0 0 0 .945.33 2.053 2.053 0 0 0 .48-.045l.135.99a4.115 4.115 0 0 1-.42.06 4.814 4.814 0 0 1-.498.03zm6.78-6.075h1.665l2.025 4.605h.045a1.408 1.408 0 0 0 1.2-.562 2.63 2.63 0 0 0 .42-1.6V12.23a2.508 2.508 0 0 0-.435-1.567 1.433 1.433 0 0 0-1.2-.562h-.51V8.765h.54a2.986 2.986 0 0 1 2.49 1.08 4.771 4.771 0 0 1 .855 3.03 4.716 4.716 0 0 1-.878 3.038A2.975 2.975 0 0 1 67.923 17h-1.155zm9.705.87a3.538 3.538 0 0 1 .262-1.387 2.944 2.944 0 0 1 .757-1.065 3.356 3.356 0 0 1 1.193-.675 5.4 5.4 0 0 1 3.135 0 3.356 3.356 0 0 1 1.193.675 2.944 2.944 0 0 1 .757 1.065 3.538 3.538 0 0 1 .262 1.387V17h-1.634v-4.95a2.093 2.093 0 0 0-.57-1.582 2.539 2.539 0 0 0-3.15 0 2.093 2.093 0 0 0-.57 1.582v1.89h.075a2.733 2.733 0 0 1 .255-.585 1.923 1.923 0 0 1 .42-.5 2.043 2.043 0 0 1 .615-.352 2.387 2.387 0 0 1 .84-.135h.45v1.572h-.63a2.882 2.882 0 0 0-1.5.322 1.088 1.088 0 0 0-.525 1V17h-1.635zm4.485-5.72a1.363 1.363 0 0 1 .39-1.043 1.65 1.65 0 0 1 1.17-.367h3.045v1.29h-3.165V7.3h-1.44z" transform="translate(-10.382 21.48)"/>
            </g>
        </g>
    </g>
</svg>
