<svg xmlns="http://www.w3.org/2000/svg" width="1387.001" height="494.5" viewBox="0 0 1387.001 494.5">
    <defs>
        <style>
            .cls-10,.cls-2,.cls-6,.cls-8{fill:none}.cls-8{stroke:#f04e30}.cls-2,.cls-6{stroke:#fff}.cls-2,.cls-6,.cls-8{stroke-width:3px}.cls-2{stroke-dasharray:8 8}.cls-3{fill:#daa13d}.cls-5{fill:#fff}.cls-6,.cls-8{stroke-linecap:round;stroke-linejoin:round}.cls-7{fill:#6badcb}.cls-9{stroke:none}
        </style>
    </defs>
    <g id="Group_236" data-name="Group 236" transform="rotate(-90 -1469.5 2275.5)">
        <path id="Line_82" data-name="Line 82" transform="translate(559 3895.501)" style="stroke-width:5px;stroke-dasharray:5 15;stroke:#f04e30;fill:none" d="M0 0v1012"/>
        <g id="Ellipse_422" data-name="Ellipse 422" class="cls-2" transform="rotate(90 -1729.25 2490.75)">
            <circle class="cls-9" cx="200" cy="200" r="200"/>
            <circle class="cls-10" cx="200" cy="200" r="198.5"/>
        </g>
        <g id="Ellipse_480" data-name="Ellipse 480" class="cls-2" transform="rotate(90 -1529.339 2290.839)">
            <circle class="cls-9" cx="200" cy="200" r="200"/>
            <circle class="cls-10" cx="200" cy="200" r="198.5"/>
        </g>
        <g id="Ellipse_451" data-name="Ellipse 451" class="cls-2" transform="rotate(90 -1929.25 2690.75)">
            <circle class="cls-9" cx="200" cy="200" r="200"/>
            <circle class="cls-10" cx="200" cy="200" r="198.5"/>
        </g>
        <circle id="Ellipse_423" data-name="Ellipse 423" class="cls-3" cx="50" cy="50" r="50" transform="rotate(90 -1782 2588)"/>
        <circle id="Ellipse_481" data-name="Ellipse 481" class="cls-3" cx="50" cy="50" r="50" transform="rotate(90 -1582.089 2388.089)"/>
        <circle id="Ellipse_447" data-name="Ellipse 447" class="cls-3" cx="50" cy="50" r="50" transform="rotate(90 -1981.751 2787.751)"/>
        <circle id="Ellipse_425" data-name="Ellipse 425" class="cls-3" cx="50" cy="50" r="50" transform="rotate(90 -1979.25 2390.75)"/>
        <circle id="Ellipse_483" data-name="Ellipse 483" class="cls-3" cx="50" cy="50" r="50" transform="rotate(90 -1779.339 2190.839)"/>
        <circle id="Ellipse_449" data-name="Ellipse 449" class="cls-3" cx="50" cy="50" r="50" transform="rotate(90 -2179.001 2590.501)"/>
        <circle id="Ellipse_450" data-name="Ellipse 450" cx="112.5" cy="112.5" r="112.5" transform="rotate(90 -2117.251 2789.751)" style="fill:#36723b"/>
        <path id="Path_534" data-name="Path 534" class="cls-5" d="M-58.555 0a4.459 4.459 0 0 1-3.4-1.155 4.571 4.571 0 0 1-1.08-3.255v-14.91h4.48v15.75H-56V0zm14.42.42a10.811 10.811 0 0 1-3.535-.543 7.5 7.5 0 0 1-2.677-1.557 6.664 6.664 0 0 1-1.68-2.45 8.558 8.558 0 0 1-.573-3.22v-11.97h4.48v11.725a4.667 4.667 0 0 0 1.05 3.255 3.772 3.772 0 0 0 2.94 1.155 3.772 3.772 0 0 0 2.94-1.155 4.667 4.667 0 0 0 1.05-3.255V-25.9h4.48v18.55a8.558 8.558 0 0 1-.577 3.22 6.664 6.664 0 0 1-1.68 2.45A7.5 7.5 0 0 1-40.6-.123a10.811 10.811 0 0 1-3.535.543zm-9.2-26.32H-51v-1.225a1.274 1.274 0 0 0-.315-.962 1.7 1.7 0 0 0-1.155-.3h-.875v-3.15h2.625a3.962 3.962 0 0 1 2.59.753 2.441 2.441 0 0 1 .91 1.977 2.89 2.89 0 0 1-.472 1.557 2.943 2.943 0 0 1-1.347 1.138v.21h6.615v3.15H-53.34zm30.975 12.985a3.348 3.348 0 0 0-.788-2.38 3.289 3.289 0 0 0-2.5-.84 4.215 4.215 0 0 0-2.5.665 5.985 5.985 0 0 0-1.558 1.645l-2.66-2.38a7.742 7.742 0 0 1 2.642-2.573 8.606 8.606 0 0 1 4.392-.962 8.081 8.081 0 0 1 5.565 1.7 6.223 6.223 0 0 1 1.89 4.882V0h-4.48zm9.45-6.4h4.48v5.635l4.655-.665a3.338 3.338 0 0 0 1.8-.735 2.9 2.9 0 0 0 .752-1.89l.243-2.35h4.62l-.24 2.485a4.358 4.358 0 0 1-1.26 2.7 4.85 4.85 0 0 1-3.01 1.3v.175a4.083 4.083 0 0 1 1.96.858 5.383 5.383 0 0 1 1.243 1.488 6.85 6.85 0 0 1 .7 1.82A17.394 17.394 0 0 1 3.36-6.65L3.99 0H-.665l-.6-6.93a5.5 5.5 0 0 0-.928-2.94 2.774 2.774 0 0 0-2.677-.7l-3.57.455V0h-4.48zM18.76.42a7.057 7.057 0 0 1-2.152-.3A5.478 5.478 0 0 1 15-.683a4.632 4.632 0 0 1-1.12-1.173 6.221 6.221 0 0 1-.682-1.365h-.178V0H8.54v-19.32h4.48v12.81a2.807 2.807 0 0 0 .35 1.418 3.17 3.17 0 0 0 .91 1.015 4.216 4.216 0 0 0 1.26.612 4.85 4.85 0 0 0 1.4.21 4.072 4.072 0 0 0 1.75-.332 3.03 3.03 0 0 0 1.137-.91 3.477 3.477 0 0 0 .613-1.365 7.818 7.818 0 0 0 .175-1.7V-19.32h4.48v12.18a8.546 8.546 0 0 1-1.628 5.6A5.771 5.771 0 0 1 18.76.42zm19.635-13.335a3.348 3.348 0 0 0-.787-2.38 3.289 3.289 0 0 0-2.5-.84 4.215 4.215 0 0 0-2.5.665 5.985 5.985 0 0 0-1.557 1.645l-2.66-2.38a7.742 7.742 0 0 1 2.642-2.573 8.606 8.606 0 0 1 4.392-.962 8.081 8.081 0 0 1 5.565 1.7 6.223 6.223 0 0 1 1.89 4.882V0H38.4zM55.02.42a9.911 9.911 0 0 1-5.81-1.488 4.863 4.863 0 0 1-2.1-4.217 4.321 4.321 0 0 1 1-2.87A5.126 5.126 0 0 1 50.68-9.8v-.21a4.764 4.764 0 0 1-2.73-1.662 4.738 4.738 0 0 1-.98-3.028 5.089 5.089 0 0 1 .4-2.047 4.688 4.688 0 0 1 1.12-1.593 5.007 5.007 0 0 1 1.75-1.032 6.8 6.8 0 0 1 2.292-.368 10.694 10.694 0 0 1 1.75.158A5.41 5.41 0 0 1 56-19l-.945 3.255a3.313 3.313 0 0 0-.858-.333 4.03 4.03 0 0 0-.857-.087 2.47 2.47 0 0 0-1.68.578A2 2 0 0 0 50.995-14a2.3 2.3 0 0 0 .595 1.645 2.939 2.939 0 0 0 2.17.63h1.89v3.01h-1.89a2.159 2.159 0 0 0-1.54.6 2.109 2.109 0 0 0-.63 1.61v.7a2.248 2.248 0 0 0 .928 1.977 4.581 4.581 0 0 0 2.642.648 4.4 4.4 0 0 0 3.132-1.068 4.044 4.044 0 0 0 1.138-3.1V-19.32h4.48v12.565a6.863 6.863 0 0 1-.63 2.975 6.343 6.343 0 0 1-1.785 2.258 8.35 8.35 0 0 1-2.8 1.435A12.438 12.438 0 0 1 55.02.42z" transform="rotate(90 -2235.002 2785.001)"/>
        <path id="Path_540" data-name="Path 540" class="cls-5" d="M17.463 28.3a3.084 3.084 0 0 1-3.025-1.837 12.509 12.509 0 0 1-.875-5.237 8.507 8.507 0 0 1 1.3-5.138 4.27 4.27 0 0 1 3.625-1.737h.65v1.725h-.55a2.578 2.578 0 0 0-2.15.95 5.041 5.041 0 0 0-.75 3.1v2.35q0 .925.075 1.688a4.526 4.526 0 0 0 .3 1.3 1.877 1.877 0 0 0 .625.825 1.76 1.76 0 0 0 1.05.288 1.683 1.683 0 0 0 1.35-.625 3.043 3.043 0 0 0 .525-1.975v-2.35h1.975v2.35a3.216 3.216 0 0 0 .487 1.975 1.6 1.6 0 0 0 1.338.625 1.579 1.579 0 0 0 1.262-.538 2.374 2.374 0 0 0 .462-1.587V14.35h2v10.3a3.87 3.87 0 0 1-.875 2.663 3.042 3.042 0 0 1-2.4.987 3.067 3.067 0 0 1-2.25-.812 3.2 3.2 0 0 1-.95-2.012h-.125a3.261 3.261 0 0 1-.925 2.012 2.88 2.88 0 0 1-2.149.812zm17.8-.05a4.979 4.979 0 0 1-3.3-1.025 3.66 3.66 0 0 1-1.225-2.975 3.618 3.618 0 0 1 1.212-2.925 4.969 4.969 0 0 1 3.313-1.025h4.35V19q0-3.225-3.525-3.225a4.777 4.777 0 0 0-2.513.613 4.68 4.68 0 0 0-1.638 1.688l-1.274-1.126a5.434 5.434 0 0 1 2-2.063 6.609 6.609 0 0 1 3.525-.838 5.747 5.747 0 0 1 4.012 1.288 4.578 4.578 0 0 1 1.413 3.563V28h-2v-6.275h-3.9a3.383 3.383 0 0 0-2.1.575 1.928 1.928 0 0 0-.75 1.625v.575a2.128 2.128 0 0 0 .688 1.712 2.772 2.772 0 0 0 1.862.587 5.761 5.761 0 0 0 .587-.024q.238-.025.388-.05l.175 1.375a1.788 1.788 0 0 1-.562.112q-.413.038-.738.038zm14.475 0a4.979 4.979 0 0 1-3.3-1.025 3.66 3.66 0 0 1-1.225-2.975 3.618 3.618 0 0 1 1.213-2.925 4.969 4.969 0 0 1 3.312-1.025h4.35V19q0-3.225-3.525-3.225a4.777 4.777 0 0 0-2.513.613 4.68 4.68 0 0 0-1.638 1.688l-1.274-1.126a5.433 5.433 0 0 1 2-2.063 6.609 6.609 0 0 1 3.525-.838 5.747 5.747 0 0 1 4.013 1.288 4.578 4.578 0 0 1 1.412 3.563V28h-2v-6.275h-3.9a3.383 3.383 0 0 0-2.1.575 1.928 1.928 0 0 0-.75 1.625v.575a2.128 2.128 0 0 0 .688 1.712 2.772 2.772 0 0 0 1.863.587 5.761 5.761 0 0 0 .587-.025q.237-.025.388-.05l.175 1.375a1.788 1.788 0 0 1-.562.112q-.414.039-.739.039zm4.25-16.575a2.189 2.189 0 0 1-1.65-.55 2.013 2.013 0 0 1-.525-1.45v-1.55h2V9.95h6.375v1.725zm5.4 2.675h1.975l.9 6.45.45 5.025h.1l1.275-5.025 1.85-6.45h1.8l1.875 6.45 1.25 5.025h.125l.45-5.025.875-6.45h2l-2 13.65h-2.276l-2.2-7.575-.974-3.825h-.075l-.975 3.825-2.2 7.575h-2.225zm18.025 8.675h1.85v3.3h6.775V23.55a5.383 5.383 0 0 0-.1-1.1 1.631 1.631 0 0 0-.425-.812 2.345 2.345 0 0 0-.95-.55 7.619 7.619 0 0 0-1.675-.313l-5.725-.5V18.8a4.338 4.338 0 0 1 1.475-3.5 6.233 6.233 0 0 1 4.15-1.25 7.082 7.082 0 0 1 3.088.588 6.02 6.02 0 0 1 2.012 1.537l-1.275 1.2a4.707 4.707 0 0 0-1.45-1.15 5.155 5.155 0 0 0-2.45-.5 4.233 4.233 0 0 0-2.613.712 2.515 2.515 0 0 0-.937 2.138v.3l4.1.375a11.928 11.928 0 0 1 2.037.338 4.451 4.451 0 0 1 1.5.688 2.838 2.838 0 0 1 .925 1.15 4.227 4.227 0 0 1 .313 1.725V25.9a2.143 2.143 0 0 1-.537 1.525 2.069 2.069 0 0 1-1.588.575h-8.5zM84.037 10.1a1.969 1.969 0 0 1 .525-1.438 2.221 2.221 0 0 1 1.65-.537h4.95v1.7h-5.125v1.85h-2z" transform="rotate(90 -1796.75 2573.25)"/>
        <path id="Path_541" data-name="Path 541" class="cls-5" d="M17.463 28.3a3.084 3.084 0 0 1-3.025-1.837 12.509 12.509 0 0 1-.875-5.237 8.507 8.507 0 0 1 1.3-5.138 4.27 4.27 0 0 1 3.625-1.737h.65v1.725h-.55a2.578 2.578 0 0 0-2.15.95 5.041 5.041 0 0 0-.75 3.1v2.35q0 .925.075 1.688a4.526 4.526 0 0 0 .3 1.3 1.877 1.877 0 0 0 .625.825 1.76 1.76 0 0 0 1.05.288 1.683 1.683 0 0 0 1.35-.625 3.043 3.043 0 0 0 .525-1.975v-2.35h1.975v2.35a3.216 3.216 0 0 0 .487 1.975 1.6 1.6 0 0 0 1.338.625 1.579 1.579 0 0 0 1.262-.538 2.374 2.374 0 0 0 .462-1.587V14.35h2v10.3a3.87 3.87 0 0 1-.875 2.663 3.042 3.042 0 0 1-2.4.987 3.067 3.067 0 0 1-2.25-.812 3.2 3.2 0 0 1-.95-2.012h-.125a3.261 3.261 0 0 1-.925 2.012 2.88 2.88 0 0 1-2.149.812zm17.8-.05a4.979 4.979 0 0 1-3.3-1.025 3.66 3.66 0 0 1-1.225-2.975 3.618 3.618 0 0 1 1.212-2.925 4.969 4.969 0 0 1 3.313-1.025h4.35V19q0-3.225-3.525-3.225a4.777 4.777 0 0 0-2.513.613 4.68 4.68 0 0 0-1.638 1.688l-1.274-1.126a5.434 5.434 0 0 1 2-2.063 6.609 6.609 0 0 1 3.525-.838 5.747 5.747 0 0 1 4.012 1.288 4.578 4.578 0 0 1 1.413 3.563V28h-2v-6.275h-3.9a3.383 3.383 0 0 0-2.1.575 1.928 1.928 0 0 0-.75 1.625v.575a2.128 2.128 0 0 0 .688 1.712 2.772 2.772 0 0 0 1.862.587 5.761 5.761 0 0 0 .587-.024q.238-.025.388-.05l.175 1.375a1.788 1.788 0 0 1-.562.112q-.413.038-.738.038zm14.475 0a4.979 4.979 0 0 1-3.3-1.025 3.66 3.66 0 0 1-1.225-2.975 3.618 3.618 0 0 1 1.213-2.925 4.969 4.969 0 0 1 3.312-1.025h4.35V19q0-3.225-3.525-3.225a4.777 4.777 0 0 0-2.513.613 4.68 4.68 0 0 0-1.638 1.688l-1.274-1.126a5.433 5.433 0 0 1 2-2.063 6.609 6.609 0 0 1 3.525-.838 5.747 5.747 0 0 1 4.013 1.288 4.578 4.578 0 0 1 1.412 3.563V28h-2v-6.275h-3.9a3.383 3.383 0 0 0-2.1.575 1.928 1.928 0 0 0-.75 1.625v.575a2.128 2.128 0 0 0 .688 1.712 2.772 2.772 0 0 0 1.863.587 5.761 5.761 0 0 0 .587-.025q.237-.025.388-.05l.175 1.375a1.788 1.788 0 0 1-.562.112q-.414.039-.739.039zm4.25-16.575a2.189 2.189 0 0 1-1.65-.55 2.013 2.013 0 0 1-.525-1.45v-1.55h2V9.95h6.375v1.725zm5.4 2.675h1.975l.9 6.45.45 5.025h.1l1.275-5.025 1.85-6.45h1.8l1.875 6.45 1.25 5.025h.125l.45-5.025.875-6.45h2l-2 13.65h-2.276l-2.2-7.575-.974-3.825h-.075l-.975 3.825-2.2 7.575h-2.225zm18.025 8.675h1.85v3.3h6.775V23.55a5.383 5.383 0 0 0-.1-1.1 1.631 1.631 0 0 0-.425-.812 2.345 2.345 0 0 0-.95-.55 7.619 7.619 0 0 0-1.675-.313l-5.725-.5V18.8a4.338 4.338 0 0 1 1.475-3.5 6.233 6.233 0 0 1 4.15-1.25 7.082 7.082 0 0 1 3.088.588 6.02 6.02 0 0 1 2.012 1.537l-1.275 1.2a4.707 4.707 0 0 0-1.45-1.15 5.155 5.155 0 0 0-2.45-.5 4.233 4.233 0 0 0-2.613.712 2.515 2.515 0 0 0-.937 2.138v.3l4.1.375a11.928 11.928 0 0 1 2.037.338 4.451 4.451 0 0 1 1.5.688 2.838 2.838 0 0 1 .925 1.15 4.227 4.227 0 0 1 .313 1.725V25.9a2.143 2.143 0 0 1-.537 1.525 2.069 2.069 0 0 1-1.588.575h-8.5zM84.037 10.1a1.969 1.969 0 0 1 .525-1.438 2.221 2.221 0 0 1 1.65-.537h4.95v1.7h-5.125v1.85h-2z" transform="rotate(90 -1596.839 2373.339)"/>
        <path id="Path_535" data-name="Path 535" class="cls-5" d="M17.463 28.3a3.084 3.084 0 0 1-3.025-1.837 12.509 12.509 0 0 1-.875-5.237 8.507 8.507 0 0 1 1.3-5.138 4.27 4.27 0 0 1 3.625-1.737h.65v1.725h-.55a2.578 2.578 0 0 0-2.15.95 5.041 5.041 0 0 0-.75 3.1v2.35q0 .925.075 1.688a4.526 4.526 0 0 0 .3 1.3 1.877 1.877 0 0 0 .625.825 1.76 1.76 0 0 0 1.05.288 1.683 1.683 0 0 0 1.35-.625 3.043 3.043 0 0 0 .525-1.975v-2.35h1.975v2.35a3.216 3.216 0 0 0 .487 1.975 1.6 1.6 0 0 0 1.338.625 1.579 1.579 0 0 0 1.262-.538 2.374 2.374 0 0 0 .462-1.587V14.35h2v10.3a3.87 3.87 0 0 1-.875 2.663 3.042 3.042 0 0 1-2.4.987 3.067 3.067 0 0 1-2.25-.812 3.2 3.2 0 0 1-.95-2.012h-.125a3.261 3.261 0 0 1-.925 2.012 2.88 2.88 0 0 1-2.149.812zm17.8-.05a4.979 4.979 0 0 1-3.3-1.025 3.66 3.66 0 0 1-1.225-2.975 3.618 3.618 0 0 1 1.212-2.925 4.969 4.969 0 0 1 3.313-1.025h4.35V19q0-3.225-3.525-3.225a4.777 4.777 0 0 0-2.513.613 4.68 4.68 0 0 0-1.638 1.688l-1.274-1.126a5.434 5.434 0 0 1 2-2.063 6.609 6.609 0 0 1 3.525-.838 5.747 5.747 0 0 1 4.012 1.288 4.578 4.578 0 0 1 1.413 3.563V28h-2v-6.275h-3.9a3.383 3.383 0 0 0-2.1.575 1.928 1.928 0 0 0-.75 1.625v.575a2.128 2.128 0 0 0 .688 1.712 2.772 2.772 0 0 0 1.862.587 5.761 5.761 0 0 0 .587-.024q.238-.025.388-.05l.175 1.375a1.788 1.788 0 0 1-.562.112q-.413.038-.738.038zm14.475 0a4.979 4.979 0 0 1-3.3-1.025 3.66 3.66 0 0 1-1.225-2.975 3.618 3.618 0 0 1 1.213-2.925 4.969 4.969 0 0 1 3.312-1.025h4.35V19q0-3.225-3.525-3.225a4.777 4.777 0 0 0-2.513.613 4.68 4.68 0 0 0-1.638 1.688l-1.274-1.126a5.433 5.433 0 0 1 2-2.063 6.609 6.609 0 0 1 3.525-.838 5.747 5.747 0 0 1 4.013 1.288 4.578 4.578 0 0 1 1.412 3.563V28h-2v-6.275h-3.9a3.383 3.383 0 0 0-2.1.575 1.928 1.928 0 0 0-.75 1.625v.575a2.128 2.128 0 0 0 .688 1.712 2.772 2.772 0 0 0 1.863.587 5.761 5.761 0 0 0 .587-.025q.237-.025.388-.05l.175 1.375a1.788 1.788 0 0 1-.562.112q-.414.039-.739.039zm4.25-16.575a2.189 2.189 0 0 1-1.65-.55 2.013 2.013 0 0 1-.525-1.45v-1.55h2V9.95h6.375v1.725zm5.4 2.675h1.975l.9 6.45.45 5.025h.1l1.275-5.025 1.85-6.45h1.8l1.875 6.45 1.25 5.025h.125l.45-5.025.875-6.45h2l-2 13.65h-2.276l-2.2-7.575-.974-3.825h-.075l-.975 3.825-2.2 7.575h-2.225zm18.025 8.675h1.85v3.3h6.775V23.55a5.383 5.383 0 0 0-.1-1.1 1.631 1.631 0 0 0-.425-.812 2.345 2.345 0 0 0-.95-.55 7.619 7.619 0 0 0-1.675-.313l-5.725-.5V18.8a4.338 4.338 0 0 1 1.475-3.5 6.233 6.233 0 0 1 4.15-1.25 7.082 7.082 0 0 1 3.088.588 6.02 6.02 0 0 1 2.012 1.537l-1.275 1.2a4.707 4.707 0 0 0-1.45-1.15 5.155 5.155 0 0 0-2.45-.5 4.233 4.233 0 0 0-2.613.712 2.515 2.515 0 0 0-.937 2.138v.3l4.1.375a11.928 11.928 0 0 1 2.037.338 4.451 4.451 0 0 1 1.5.688 2.838 2.838 0 0 1 .925 1.15 4.227 4.227 0 0 1 .313 1.725V25.9a2.143 2.143 0 0 1-.537 1.525 2.069 2.069 0 0 1-1.588.575h-8.5zM84.037 10.1a1.969 1.969 0 0 1 .525-1.438 2.221 2.221 0 0 1 1.65-.537h4.95v1.7h-5.125v1.85h-2z" transform="rotate(90 -1996.501 2773.001)"/>
        <path id="Path_538" data-name="Path 538" class="cls-5" d="M17.463 28.3a3.084 3.084 0 0 1-3.025-1.837 12.509 12.509 0 0 1-.875-5.237 8.507 8.507 0 0 1 1.3-5.138 4.27 4.27 0 0 1 3.625-1.737h.65v1.725h-.55a2.578 2.578 0 0 0-2.15.95 5.041 5.041 0 0 0-.75 3.1v2.35q0 .925.075 1.688a4.526 4.526 0 0 0 .3 1.3 1.877 1.877 0 0 0 .625.825 1.76 1.76 0 0 0 1.05.288 1.683 1.683 0 0 0 1.35-.625 3.043 3.043 0 0 0 .525-1.975v-2.35h1.975v2.35a3.216 3.216 0 0 0 .487 1.975 1.6 1.6 0 0 0 1.338.625 1.579 1.579 0 0 0 1.262-.538 2.374 2.374 0 0 0 .462-1.587V14.35h2v10.3a3.87 3.87 0 0 1-.875 2.663 3.042 3.042 0 0 1-2.4.987 3.067 3.067 0 0 1-2.25-.812 3.2 3.2 0 0 1-.95-2.012h-.125a3.261 3.261 0 0 1-.925 2.012 2.88 2.88 0 0 1-2.149.812zm17.8-.05a4.979 4.979 0 0 1-3.3-1.025 3.66 3.66 0 0 1-1.225-2.975 3.618 3.618 0 0 1 1.212-2.925 4.969 4.969 0 0 1 3.313-1.025h4.35V19q0-3.225-3.525-3.225a4.777 4.777 0 0 0-2.513.613 4.68 4.68 0 0 0-1.638 1.688l-1.274-1.126a5.434 5.434 0 0 1 2-2.063 6.609 6.609 0 0 1 3.525-.838 5.747 5.747 0 0 1 4.012 1.288 4.578 4.578 0 0 1 1.413 3.563V28h-2v-6.275h-3.9a3.383 3.383 0 0 0-2.1.575 1.928 1.928 0 0 0-.75 1.625v.575a2.128 2.128 0 0 0 .688 1.712 2.772 2.772 0 0 0 1.862.587 5.761 5.761 0 0 0 .587-.024q.238-.025.388-.05l.175 1.375a1.788 1.788 0 0 1-.562.112q-.413.038-.738.038zm14.475 0a4.979 4.979 0 0 1-3.3-1.025 3.66 3.66 0 0 1-1.225-2.975 3.618 3.618 0 0 1 1.213-2.925 4.969 4.969 0 0 1 3.312-1.025h4.35V19q0-3.225-3.525-3.225a4.777 4.777 0 0 0-2.513.613 4.68 4.68 0 0 0-1.638 1.688l-1.274-1.126a5.433 5.433 0 0 1 2-2.063 6.609 6.609 0 0 1 3.525-.838 5.747 5.747 0 0 1 4.013 1.288 4.578 4.578 0 0 1 1.412 3.563V28h-2v-6.275h-3.9a3.383 3.383 0 0 0-2.1.575 1.928 1.928 0 0 0-.75 1.625v.575a2.128 2.128 0 0 0 .688 1.712 2.772 2.772 0 0 0 1.863.587 5.761 5.761 0 0 0 .587-.025q.237-.025.388-.05l.175 1.375a1.788 1.788 0 0 1-.562.112q-.414.039-.739.039zm4.25-16.575a2.189 2.189 0 0 1-1.65-.55 2.013 2.013 0 0 1-.525-1.45v-1.55h2V9.95h6.375v1.725zm5.4 2.675h1.975l.9 6.45.45 5.025h.1l1.275-5.025 1.85-6.45h1.8l1.875 6.45 1.25 5.025h.125l.45-5.025.875-6.45h2l-2 13.65h-2.276l-2.2-7.575-.974-3.825h-.075l-.975 3.825-2.2 7.575h-2.225zm18.025 8.675h1.85v3.3h6.775V23.55a5.383 5.383 0 0 0-.1-1.1 1.631 1.631 0 0 0-.425-.812 2.345 2.345 0 0 0-.95-.55 7.619 7.619 0 0 0-1.675-.313l-5.725-.5V18.8a4.338 4.338 0 0 1 1.475-3.5 6.233 6.233 0 0 1 4.15-1.25 7.082 7.082 0 0 1 3.088.588 6.02 6.02 0 0 1 2.012 1.537l-1.275 1.2a4.707 4.707 0 0 0-1.45-1.15 5.155 5.155 0 0 0-2.45-.5 4.233 4.233 0 0 0-2.613.712 2.515 2.515 0 0 0-.937 2.138v.3l4.1.375a11.928 11.928 0 0 1 2.037.338 4.451 4.451 0 0 1 1.5.688 2.838 2.838 0 0 1 .925 1.15 4.227 4.227 0 0 1 .313 1.725V25.9a2.143 2.143 0 0 1-.537 1.525 2.069 2.069 0 0 1-1.588.575h-8.5zM84.037 10.1a1.969 1.969 0 0 1 .525-1.438 2.221 2.221 0 0 1 1.65-.537h4.95v1.7h-5.125v1.85h-2z" transform="rotate(90 -1994 2376)"/>
        <path id="Path_543" data-name="Path 543" class="cls-5" d="M17.463 28.3a3.084 3.084 0 0 1-3.025-1.837 12.509 12.509 0 0 1-.875-5.237 8.507 8.507 0 0 1 1.3-5.138 4.27 4.27 0 0 1 3.625-1.737h.65v1.725h-.55a2.578 2.578 0 0 0-2.15.95 5.041 5.041 0 0 0-.75 3.1v2.35q0 .925.075 1.688a4.526 4.526 0 0 0 .3 1.3 1.877 1.877 0 0 0 .625.825 1.76 1.76 0 0 0 1.05.288 1.683 1.683 0 0 0 1.35-.625 3.043 3.043 0 0 0 .525-1.975v-2.35h1.975v2.35a3.216 3.216 0 0 0 .487 1.975 1.6 1.6 0 0 0 1.338.625 1.579 1.579 0 0 0 1.262-.538 2.374 2.374 0 0 0 .462-1.587V14.35h2v10.3a3.87 3.87 0 0 1-.875 2.663 3.042 3.042 0 0 1-2.4.987 3.067 3.067 0 0 1-2.25-.812 3.2 3.2 0 0 1-.95-2.012h-.125a3.261 3.261 0 0 1-.925 2.012 2.88 2.88 0 0 1-2.149.812zm17.8-.05a4.979 4.979 0 0 1-3.3-1.025 3.66 3.66 0 0 1-1.225-2.975 3.618 3.618 0 0 1 1.212-2.925 4.969 4.969 0 0 1 3.313-1.025h4.35V19q0-3.225-3.525-3.225a4.777 4.777 0 0 0-2.513.613 4.68 4.68 0 0 0-1.638 1.688l-1.274-1.126a5.434 5.434 0 0 1 2-2.063 6.609 6.609 0 0 1 3.525-.838 5.747 5.747 0 0 1 4.012 1.288 4.578 4.578 0 0 1 1.413 3.563V28h-2v-6.275h-3.9a3.383 3.383 0 0 0-2.1.575 1.928 1.928 0 0 0-.75 1.625v.575a2.128 2.128 0 0 0 .688 1.712 2.772 2.772 0 0 0 1.862.587 5.761 5.761 0 0 0 .587-.024q.238-.025.388-.05l.175 1.375a1.788 1.788 0 0 1-.562.112q-.413.038-.738.038zm14.475 0a4.979 4.979 0 0 1-3.3-1.025 3.66 3.66 0 0 1-1.225-2.975 3.618 3.618 0 0 1 1.213-2.925 4.969 4.969 0 0 1 3.312-1.025h4.35V19q0-3.225-3.525-3.225a4.777 4.777 0 0 0-2.513.613 4.68 4.68 0 0 0-1.638 1.688l-1.274-1.126a5.433 5.433 0 0 1 2-2.063 6.609 6.609 0 0 1 3.525-.838 5.747 5.747 0 0 1 4.013 1.288 4.578 4.578 0 0 1 1.412 3.563V28h-2v-6.275h-3.9a3.383 3.383 0 0 0-2.1.575 1.928 1.928 0 0 0-.75 1.625v.575a2.128 2.128 0 0 0 .688 1.712 2.772 2.772 0 0 0 1.863.587 5.761 5.761 0 0 0 .587-.025q.237-.025.388-.05l.175 1.375a1.788 1.788 0 0 1-.562.112q-.414.039-.739.039zm4.25-16.575a2.189 2.189 0 0 1-1.65-.55 2.013 2.013 0 0 1-.525-1.45v-1.55h2V9.95h6.375v1.725zm5.4 2.675h1.975l.9 6.45.45 5.025h.1l1.275-5.025 1.85-6.45h1.8l1.875 6.45 1.25 5.025h.125l.45-5.025.875-6.45h2l-2 13.65h-2.276l-2.2-7.575-.974-3.825h-.075l-.975 3.825-2.2 7.575h-2.225zm18.025 8.675h1.85v3.3h6.775V23.55a5.383 5.383 0 0 0-.1-1.1 1.631 1.631 0 0 0-.425-.812 2.345 2.345 0 0 0-.95-.55 7.619 7.619 0 0 0-1.675-.313l-5.725-.5V18.8a4.338 4.338 0 0 1 1.475-3.5 6.233 6.233 0 0 1 4.15-1.25 7.082 7.082 0 0 1 3.088.588 6.02 6.02 0 0 1 2.012 1.537l-1.275 1.2a4.707 4.707 0 0 0-1.45-1.15 5.155 5.155 0 0 0-2.45-.5 4.233 4.233 0 0 0-2.613.712 2.515 2.515 0 0 0-.937 2.138v.3l4.1.375a11.928 11.928 0 0 1 2.037.338 4.451 4.451 0 0 1 1.5.688 2.838 2.838 0 0 1 .925 1.15 4.227 4.227 0 0 1 .313 1.725V25.9a2.143 2.143 0 0 1-.537 1.525 2.069 2.069 0 0 1-1.588.575h-8.5zM84.037 10.1a1.969 1.969 0 0 1 .525-1.438 2.221 2.221 0 0 1 1.65-.537h4.95v1.7h-5.125v1.85h-2z" transform="rotate(90 -1794.089 2176.089)"/>
        <path id="Path_537" data-name="Path 537" class="cls-5" d="M17.463 28.3a3.084 3.084 0 0 1-3.025-1.837 12.509 12.509 0 0 1-.875-5.237 8.507 8.507 0 0 1 1.3-5.138 4.27 4.27 0 0 1 3.625-1.737h.65v1.725h-.55a2.578 2.578 0 0 0-2.15.95 5.041 5.041 0 0 0-.75 3.1v2.35q0 .925.075 1.688a4.526 4.526 0 0 0 .3 1.3 1.877 1.877 0 0 0 .625.825 1.76 1.76 0 0 0 1.05.288 1.683 1.683 0 0 0 1.35-.625 3.043 3.043 0 0 0 .525-1.975v-2.35h1.975v2.35a3.216 3.216 0 0 0 .487 1.975 1.6 1.6 0 0 0 1.338.625 1.579 1.579 0 0 0 1.262-.538 2.374 2.374 0 0 0 .462-1.587V14.35h2v10.3a3.87 3.87 0 0 1-.875 2.663 3.042 3.042 0 0 1-2.4.987 3.067 3.067 0 0 1-2.25-.812 3.2 3.2 0 0 1-.95-2.012h-.125a3.261 3.261 0 0 1-.925 2.012 2.88 2.88 0 0 1-2.149.812zm17.8-.05a4.979 4.979 0 0 1-3.3-1.025 3.66 3.66 0 0 1-1.225-2.975 3.618 3.618 0 0 1 1.212-2.925 4.969 4.969 0 0 1 3.313-1.025h4.35V19q0-3.225-3.525-3.225a4.777 4.777 0 0 0-2.513.613 4.68 4.68 0 0 0-1.638 1.688l-1.274-1.126a5.434 5.434 0 0 1 2-2.063 6.609 6.609 0 0 1 3.525-.838 5.747 5.747 0 0 1 4.012 1.288 4.578 4.578 0 0 1 1.413 3.563V28h-2v-6.275h-3.9a3.383 3.383 0 0 0-2.1.575 1.928 1.928 0 0 0-.75 1.625v.575a2.128 2.128 0 0 0 .688 1.712 2.772 2.772 0 0 0 1.862.587 5.761 5.761 0 0 0 .587-.024q.238-.025.388-.05l.175 1.375a1.788 1.788 0 0 1-.562.112q-.413.038-.738.038zm14.475 0a4.979 4.979 0 0 1-3.3-1.025 3.66 3.66 0 0 1-1.225-2.975 3.618 3.618 0 0 1 1.213-2.925 4.969 4.969 0 0 1 3.312-1.025h4.35V19q0-3.225-3.525-3.225a4.777 4.777 0 0 0-2.513.613 4.68 4.68 0 0 0-1.638 1.688l-1.274-1.126a5.433 5.433 0 0 1 2-2.063 6.609 6.609 0 0 1 3.525-.838 5.747 5.747 0 0 1 4.013 1.288 4.578 4.578 0 0 1 1.412 3.563V28h-2v-6.275h-3.9a3.383 3.383 0 0 0-2.1.575 1.928 1.928 0 0 0-.75 1.625v.575a2.128 2.128 0 0 0 .688 1.712 2.772 2.772 0 0 0 1.863.587 5.761 5.761 0 0 0 .587-.025q.237-.025.388-.05l.175 1.375a1.788 1.788 0 0 1-.562.112q-.414.039-.739.039zm4.25-16.575a2.189 2.189 0 0 1-1.65-.55 2.013 2.013 0 0 1-.525-1.45v-1.55h2V9.95h6.375v1.725zm5.4 2.675h1.975l.9 6.45.45 5.025h.1l1.275-5.025 1.85-6.45h1.8l1.875 6.45 1.25 5.025h.125l.45-5.025.875-6.45h2l-2 13.65h-2.276l-2.2-7.575-.974-3.825h-.075l-.975 3.825-2.2 7.575h-2.225zm18.025 8.675h1.85v3.3h6.775V23.55a5.383 5.383 0 0 0-.1-1.1 1.631 1.631 0 0 0-.425-.812 2.345 2.345 0 0 0-.95-.55 7.619 7.619 0 0 0-1.675-.313l-5.725-.5V18.8a4.338 4.338 0 0 1 1.475-3.5 6.233 6.233 0 0 1 4.15-1.25 7.082 7.082 0 0 1 3.088.588 6.02 6.02 0 0 1 2.012 1.537l-1.275 1.2a4.707 4.707 0 0 0-1.45-1.15 5.155 5.155 0 0 0-2.45-.5 4.233 4.233 0 0 0-2.613.712 2.515 2.515 0 0 0-.937 2.138v.3l4.1.375a11.928 11.928 0 0 1 2.037.338 4.451 4.451 0 0 1 1.5.688 2.838 2.838 0 0 1 .925 1.15 4.227 4.227 0 0 1 .313 1.725V25.9a2.143 2.143 0 0 1-.537 1.525 2.069 2.069 0 0 1-1.588.575h-8.5zM84.037 10.1a1.969 1.969 0 0 1 .525-1.438 2.221 2.221 0 0 1 1.65-.537h4.95v1.7h-5.125v1.85h-2z" transform="rotate(90 -2193.751 2575.751)"/>
        <g id="Icon_feather-arrow-up" data-name="Icon feather-arrow-up" transform="rotate(-160 576.854 2148.59)">
            <path id="Path_41" data-name="Path 41" class="cls-6" d="M0 12.5 12.5 0 25 12.5"/>
        </g>
        <g id="Icon_feather-arrow-up-2" data-name="Icon feather-arrow-up" transform="rotate(-160 541.604 1948.678)">
            <path id="Path_41-2" data-name="Path 41" class="cls-6" d="M0 12.5 12.5 0 25 12.5"/>
        </g>
        <g id="Icon_feather-arrow-up-3" data-name="Icon feather-arrow-up" transform="rotate(-160 612.12 2348.59)">
            <path id="Path_41-3" data-name="Path 41" class="cls-6" d="M0 12.5 12.5 0 25 12.5"/>
        </g>
        <g id="Icon_feather-arrow-up-4" data-name="Icon feather-arrow-up" transform="rotate(-20 12711.312 93.328)">
            <path id="Path_41-4" data-name="Path 41" class="cls-6" d="m0 0 12.5 12.5L25 0"/>
        </g>
        <g id="Icon_feather-arrow-up-5" data-name="Icon feather-arrow-up" transform="rotate(-20 11577.557 -106.584)">
            <path id="Path_41-5" data-name="Path 41" class="cls-6" d="m0 0 12.5 12.5L25 0"/>
        </g>
        <g id="Icon_feather-arrow-up-6" data-name="Icon feather-arrow-up" transform="rotate(54.97 -4050.995 2932.305)">
            <path id="Path_41-6" data-name="Path 41" class="cls-6" d="m0 0 12.5 12.5L25 0"/>
        </g>
        <g id="Icon_feather-arrow-up-7" data-name="Icon feather-arrow-up" transform="rotate(54.97 -3666.764 2732.449)">
            <path id="Path_41-7" data-name="Path 41" class="cls-6" d="m0 0 12.5 12.5L25 0"/>
        </g>
        <g id="Icon_feather-arrow-up-8" data-name="Icon feather-arrow-up" transform="rotate(54.97 -4435.395 3132.25)">
            <path id="Path_41-8" data-name="Path 41" class="cls-6" d="m0 0 12.5 12.5L25 0"/>
        </g>
        <g id="Icon_feather-arrow-up-9" data-name="Icon feather-arrow-up" transform="rotate(125.03 -961.746 2405.608)">
            <path id="Path_41-9" data-name="Path 41" class="cls-6" d="M0 12.5 12.5 0 25 12.5"/>
        </g>
        <g id="Icon_feather-arrow-up-10" data-name="Icon feather-arrow-up" transform="rotate(125.03 -857.733 2205.711)">
            <path id="Path_41-10" data-name="Path 41" class="cls-6" d="M0 12.5 12.5 0 25 12.5"/>
        </g>
        <g id="Icon_feather-arrow-up-11" data-name="Icon feather-arrow-up" transform="rotate(125.03 -1065.804 2605.593)">
            <path id="Path_41-11" data-name="Path 41" class="cls-6" d="M0 12.5 12.5 0 25 12.5"/>
        </g>
        <g id="Icon_feather-arrow-up-12" data-name="Icon feather-arrow-up" transform="rotate(-20 13845.57 293.328)">
            <path id="Path_41-12" data-name="Path 41" class="cls-6" d="m0 0 12.5 12.5L25 0"/>
        </g>
        <circle id="Ellipse_479" data-name="Ellipse 479" class="cls-7" cx="75" cy="75" r="75" transform="rotate(90 -1955 2590)"/>
        <circle id="Ellipse_482" data-name="Ellipse 482" class="cls-7" cx="75" cy="75" r="75" transform="rotate(90 -1755.089 2390.088)"/>
        <circle id="Ellipse_484" data-name="Ellipse 484" class="cls-7" cx="75" cy="75" r="75" transform="rotate(90 -1555 2190)"/>
        <path id="Path_536" data-name="Path 536" class="cls-5" d="M46.513 22.2h-1.525v-1.725h2.05a1.622 1.622 0 0 1 .712.163.88.88 0 0 1 .463.563l1.8 5.125h.95a2.28 2.28 0 0 0 1.975-1.126 5.59 5.59 0 0 0 .75-3.125v-2.05a4.3 4.3 0 0 0-1.088-3.137 3.952 3.952 0 0 0-2.963-1.113 5.471 5.471 0 0 0-2.925.712 5.2 5.2 0 0 0-1.8 1.838l-1.3-1.15a5.434 5.434 0 0 1 .862-1.2 5.281 5.281 0 0 1 1.3-1 7.222 7.222 0 0 1 1.75-.675 8.913 8.913 0 0 1 2.188-.25 5.622 5.622 0 0 1 4.513 1.85 7.661 7.661 0 0 1 1.587 5.15 10.754 10.754 0 0 1-.362 2.913 6.894 6.894 0 0 1-1.013 2.188 4.361 4.361 0 0 1-1.6 1.375 4.629 4.629 0 0 1-2.1.475h-2.2zm6.625 10.225h-1.65v-1.6h2.125a1.348 1.348 0 0 1 1.087.4 1.613 1.613 0 0 1 .338 1.075v4.3h-1.9zM64.662 28.3a5.893 5.893 0 0 1-2.487-.5 5.108 5.108 0 0 1-1.837-1.412A6.23 6.23 0 0 1 59.2 24.15a10.59 10.59 0 0 1-.388-2.975 9.05 9.05 0 0 1 .45-2.925A6.342 6.342 0 0 1 60.55 16a5.761 5.761 0 0 1 2.038-1.438 6.811 6.811 0 0 1 2.7-.512 7.234 7.234 0 0 1 2.463.4 5.425 5.425 0 0 1 1.9 1.138 4.989 4.989 0 0 1 1.213 1.775 6.048 6.048 0 0 1 .425 2.313V28h-2v-8.05a4.185 4.185 0 0 0-1.089-3.075 4.011 4.011 0 0 0-2.987-1.1 4.052 4.052 0 0 0-3.125 1.212 4.643 4.643 0 0 0-1.125 3.288v1.8a4.965 4.965 0 0 0 1 3.35 3.86 3.86 0 0 0 3.075 1.15q.275 0 .563-.013a2.948 2.948 0 0 0 .588-.087l.25 1.675a3.5 3.5 0 0 1-.9.138q-.476.012-.877.012zm16.325 0a5.842 5.842 0 0 1-4.175-1.437 5.15 5.15 0 0 1-1.525-3.937V14.35h2v8.375a3.876 3.876 0 0 0 .988 2.862 4.219 4.219 0 0 0 5.425 0 3.876 3.876 0 0 0 .988-2.862V9.95h2v12.975a5.15 5.15 0 0 1-1.525 3.938 5.842 5.842 0 0 1-4.175 1.437zm14.5 0a6.981 6.981 0 0 1-3.2-.675 6.252 6.252 0 0 1-2.225-1.9l1.425-1.15a4.847 4.847 0 0 0 1.787 1.537 5.388 5.388 0 0 0 2.362.488 3.845 3.845 0 0 0 2.288-.575 1.971 1.971 0 0 0 .787-1.7 1.876 1.876 0 0 0-.613-1.488 3.823 3.823 0 0 0-1.963-.737l-1.175-.175a12.645 12.645 0 0 1-1.575-.35 5.083 5.083 0 0 1-1.412-.65A3.176 3.176 0 0 1 90.95 19.8a3.577 3.577 0 0 1-.387-1.75 3.918 3.918 0 0 1 .363-1.725 3.4 3.4 0 0 1 1.025-1.25 4.794 4.794 0 0 1 1.563-.762 6.938 6.938 0 0 1 1.95-.263 6.653 6.653 0 0 1 2.963.588 6.091 6.091 0 0 1 1.987 1.537l-1.275 1.2a4.881 4.881 0 0 0-1.475-1.138 4.775 4.775 0 0 0-2.25-.487 3.476 3.476 0 0 0-2.15.575 1.9 1.9 0 0 0-.75 1.6 1.678 1.678 0 0 0 .725 1.55 5.414 5.414 0 0 0 2 .65l1.175.175a11.582 11.582 0 0 1 1.7.4 4.163 4.163 0 0 1 1.337.7 3.222 3.222 0 0 1 .888 1.113 3.635 3.635 0 0 1 .325 1.612 3.71 3.71 0 0 1-1.387 3.063 5.891 5.891 0 0 1-3.789 1.112zm10.775-2.8a2.189 2.189 0 0 1-1.65-.55 2.013 2.013 0 0 1-.525-1.45v-1.075h2v1.35h4.325V25.5zm0-6.425a2.189 2.189 0 0 1-1.65-.55 2.013 2.013 0 0 1-.525-1.45V16h2v1.35h4.325v1.725zm12.275 9.175a4.979 4.979 0 0 1-3.3-1.025 3.66 3.66 0 0 1-1.225-2.975 3.618 3.618 0 0 1 1.213-2.925 4.969 4.969 0 0 1 3.313-1.025h4.35V19q0-3.225-3.525-3.225a4.777 4.777 0 0 0-2.512.613 4.68 4.68 0 0 0-1.637 1.688l-1.275-1.125a5.434 5.434 0 0 1 2-2.063 6.609 6.609 0 0 1 3.525-.838 6.074 6.074 0 0 1 3.475.9 1.253 1.253 0 0 1 1.4-1.3h3.325v1.85h-4.025a4.594 4.594 0 0 1 1.25 3.4V28h-2v-6.275h-3.9a3.383 3.383 0 0 0-2.1.575 1.928 1.928 0 0 0-.75 1.625v.575a2.128 2.128 0 0 0 .688 1.712 2.772 2.772 0 0 0 1.863.587 5.761 5.761 0 0 0 .588-.025q.237-.025.387-.05l.175 1.375a1.788 1.788 0 0 1-.562.112q-.416.039-.741.039zm9.8-10.125h2.15l3.625 8.2h.075a2.932 2.932 0 0 0 2.438-1.088 4.774 4.774 0 0 0 .863-3.037v-2.05a4.676 4.676 0 0 0-.863-3 2.946 2.946 0 0 0-2.437-1.075h-.8V14.35h.825a4.811 4.811 0 0 1 4 1.8 7.907 7.907 0 0 1 1.425 5.025 7.957 7.957 0 0 1-1.412 5.025 4.776 4.776 0 0 1-3.988 1.8h-1.55zm14.8 1.325a5.783 5.783 0 0 1 .413-2.225 4.76 4.76 0 0 1 1.188-1.713 5.216 5.216 0 0 1 1.875-1.087 7.643 7.643 0 0 1 2.475-.375 7.559 7.559 0 0 1 2.45.375 5.216 5.216 0 0 1 1.875 1.087 4.9 4.9 0 0 1 1.2 1.713 5.634 5.634 0 0 1 .425 2.225V28h-2v-8.35A3.809 3.809 0 0 0 152 16.775a4.741 4.741 0 0 0-5.825 0 3.809 3.809 0 0 0-1.038 2.875v3.25h.125a4.143 4.143 0 0 1 .475-.913 3.3 3.3 0 0 1 .75-.775 3.636 3.636 0 0 1 1.063-.538 4.551 4.551 0 0 1 1.412-.2h.825v2h-1.15a4.583 4.583 0 0 0-2.55.625 1.96 1.96 0 0 0-.95 1.725V28h-2zm7.9-9.35a1.969 1.969 0 0 1 .525-1.438 2.221 2.221 0 0 1 1.65-.537h4.95v1.7h-5.125v1.85h-2z" transform="rotate(90 -1970.5 2550.5)"/>
        <path id="Path_539" data-name="Path 539" class="cls-5" d="M46.513 22.2h-1.525v-1.725h2.05a1.622 1.622 0 0 1 .712.163.88.88 0 0 1 .463.563l1.8 5.125h.95a2.28 2.28 0 0 0 1.975-1.126 5.59 5.59 0 0 0 .75-3.125v-2.05a4.3 4.3 0 0 0-1.088-3.137 3.952 3.952 0 0 0-2.963-1.113 5.471 5.471 0 0 0-2.925.712 5.2 5.2 0 0 0-1.8 1.838l-1.3-1.15a5.434 5.434 0 0 1 .862-1.2 5.281 5.281 0 0 1 1.3-1 7.222 7.222 0 0 1 1.75-.675 8.913 8.913 0 0 1 2.188-.25 5.622 5.622 0 0 1 4.513 1.85 7.661 7.661 0 0 1 1.587 5.15 10.754 10.754 0 0 1-.362 2.913 6.894 6.894 0 0 1-1.013 2.188 4.361 4.361 0 0 1-1.6 1.375 4.629 4.629 0 0 1-2.1.475h-2.2zm6.625 10.225h-1.65v-1.6h2.125a1.348 1.348 0 0 1 1.087.4 1.613 1.613 0 0 1 .338 1.075v4.3h-1.9zM64.662 28.3a5.893 5.893 0 0 1-2.487-.5 5.108 5.108 0 0 1-1.837-1.412A6.23 6.23 0 0 1 59.2 24.15a10.59 10.59 0 0 1-.388-2.975 9.05 9.05 0 0 1 .45-2.925A6.342 6.342 0 0 1 60.55 16a5.761 5.761 0 0 1 2.038-1.438 6.811 6.811 0 0 1 2.7-.512 7.234 7.234 0 0 1 2.463.4 5.425 5.425 0 0 1 1.9 1.138 4.989 4.989 0 0 1 1.213 1.775 6.048 6.048 0 0 1 .425 2.313V28h-2v-8.05a4.185 4.185 0 0 0-1.089-3.075 4.011 4.011 0 0 0-2.987-1.1 4.052 4.052 0 0 0-3.125 1.212 4.643 4.643 0 0 0-1.125 3.288v1.8a4.965 4.965 0 0 0 1 3.35 3.86 3.86 0 0 0 3.075 1.15q.275 0 .563-.013a2.948 2.948 0 0 0 .588-.087l.25 1.675a3.5 3.5 0 0 1-.9.138q-.476.012-.877.012zm16.325 0a5.842 5.842 0 0 1-4.175-1.437 5.15 5.15 0 0 1-1.525-3.937V14.35h2v8.375a3.876 3.876 0 0 0 .988 2.862 4.219 4.219 0 0 0 5.425 0 3.876 3.876 0 0 0 .988-2.862V9.95h2v12.975a5.15 5.15 0 0 1-1.525 3.938 5.842 5.842 0 0 1-4.175 1.437zm14.5 0a6.981 6.981 0 0 1-3.2-.675 6.252 6.252 0 0 1-2.225-1.9l1.425-1.15a4.847 4.847 0 0 0 1.787 1.537 5.388 5.388 0 0 0 2.362.488 3.845 3.845 0 0 0 2.288-.575 1.971 1.971 0 0 0 .787-1.7 1.876 1.876 0 0 0-.613-1.488 3.823 3.823 0 0 0-1.963-.737l-1.175-.175a12.645 12.645 0 0 1-1.575-.35 5.083 5.083 0 0 1-1.412-.65A3.176 3.176 0 0 1 90.95 19.8a3.577 3.577 0 0 1-.387-1.75 3.918 3.918 0 0 1 .363-1.725 3.4 3.4 0 0 1 1.025-1.25 4.794 4.794 0 0 1 1.563-.762 6.938 6.938 0 0 1 1.95-.263 6.653 6.653 0 0 1 2.963.588 6.091 6.091 0 0 1 1.987 1.537l-1.275 1.2a4.881 4.881 0 0 0-1.475-1.138 4.775 4.775 0 0 0-2.25-.487 3.476 3.476 0 0 0-2.15.575 1.9 1.9 0 0 0-.75 1.6 1.678 1.678 0 0 0 .725 1.55 5.414 5.414 0 0 0 2 .65l1.175.175a11.582 11.582 0 0 1 1.7.4 4.163 4.163 0 0 1 1.337.7 3.222 3.222 0 0 1 .888 1.113 3.635 3.635 0 0 1 .325 1.612 3.71 3.71 0 0 1-1.387 3.063 5.891 5.891 0 0 1-3.789 1.112zm10.775-2.8a2.189 2.189 0 0 1-1.65-.55 2.013 2.013 0 0 1-.525-1.45v-1.075h2v1.35h4.325V25.5zm0-6.425a2.189 2.189 0 0 1-1.65-.55 2.013 2.013 0 0 1-.525-1.45V16h2v1.35h4.325v1.725zm12.275 9.175a4.979 4.979 0 0 1-3.3-1.025 3.66 3.66 0 0 1-1.225-2.975 3.618 3.618 0 0 1 1.213-2.925 4.969 4.969 0 0 1 3.313-1.025h4.35V19q0-3.225-3.525-3.225a4.777 4.777 0 0 0-2.512.613 4.68 4.68 0 0 0-1.637 1.688l-1.275-1.125a5.434 5.434 0 0 1 2-2.063 6.609 6.609 0 0 1 3.525-.838 6.074 6.074 0 0 1 3.475.9 1.253 1.253 0 0 1 1.4-1.3h3.325v1.85h-4.025a4.594 4.594 0 0 1 1.25 3.4V28h-2v-6.275h-3.9a3.383 3.383 0 0 0-2.1.575 1.928 1.928 0 0 0-.75 1.625v.575a2.128 2.128 0 0 0 .688 1.712 2.772 2.772 0 0 0 1.863.587 5.761 5.761 0 0 0 .588-.025q.237-.025.387-.05l.175 1.375a1.788 1.788 0 0 1-.562.112q-.416.039-.741.039zm9.8-10.125h2.15l3.625 8.2h.075a2.932 2.932 0 0 0 2.438-1.088 4.774 4.774 0 0 0 .863-3.037v-2.05a4.676 4.676 0 0 0-.863-3 2.946 2.946 0 0 0-2.437-1.075h-.8V14.35h.825a4.811 4.811 0 0 1 4 1.8 7.907 7.907 0 0 1 1.425 5.025 7.957 7.957 0 0 1-1.412 5.025 4.776 4.776 0 0 1-3.988 1.8h-1.55zm14.8 1.325a5.783 5.783 0 0 1 .413-2.225 4.76 4.76 0 0 1 1.188-1.713 5.216 5.216 0 0 1 1.875-1.087 7.643 7.643 0 0 1 2.475-.375 7.559 7.559 0 0 1 2.45.375 5.216 5.216 0 0 1 1.875 1.087 4.9 4.9 0 0 1 1.2 1.713 5.634 5.634 0 0 1 .425 2.225V28h-2v-8.35A3.809 3.809 0 0 0 152 16.775a4.741 4.741 0 0 0-5.825 0 3.809 3.809 0 0 0-1.038 2.875v3.25h.125a4.143 4.143 0 0 1 .475-.913 3.3 3.3 0 0 1 .75-.775 3.636 3.636 0 0 1 1.063-.538 4.551 4.551 0 0 1 1.412-.2h.825v2h-1.15a4.583 4.583 0 0 0-2.55.625 1.96 1.96 0 0 0-.95 1.725V28h-2zm7.9-9.35a1.969 1.969 0 0 1 .525-1.438 2.221 2.221 0 0 1 1.65-.537h4.95v1.7h-5.125v1.85h-2z" transform="rotate(90 -1770.589 2350.588)"/>
        <path id="Path_542" data-name="Path 542" class="cls-5" d="M46.513 22.2h-1.525v-1.725h2.05a1.622 1.622 0 0 1 .712.163.88.88 0 0 1 .463.563l1.8 5.125h.95a2.28 2.28 0 0 0 1.975-1.126 5.59 5.59 0 0 0 .75-3.125v-2.05a4.3 4.3 0 0 0-1.088-3.137 3.952 3.952 0 0 0-2.963-1.113 5.471 5.471 0 0 0-2.925.712 5.2 5.2 0 0 0-1.8 1.838l-1.3-1.15a5.434 5.434 0 0 1 .862-1.2 5.281 5.281 0 0 1 1.3-1 7.222 7.222 0 0 1 1.75-.675 8.913 8.913 0 0 1 2.188-.25 5.622 5.622 0 0 1 4.513 1.85 7.661 7.661 0 0 1 1.587 5.15 10.754 10.754 0 0 1-.362 2.913 6.894 6.894 0 0 1-1.013 2.188 4.361 4.361 0 0 1-1.6 1.375 4.629 4.629 0 0 1-2.1.475h-2.2zm6.625 10.225h-1.65v-1.6h2.125a1.348 1.348 0 0 1 1.087.4 1.613 1.613 0 0 1 .338 1.075v4.3h-1.9zM64.662 28.3a5.893 5.893 0 0 1-2.487-.5 5.108 5.108 0 0 1-1.837-1.412A6.23 6.23 0 0 1 59.2 24.15a10.59 10.59 0 0 1-.388-2.975 9.05 9.05 0 0 1 .45-2.925A6.342 6.342 0 0 1 60.55 16a5.761 5.761 0 0 1 2.038-1.438 6.811 6.811 0 0 1 2.7-.512 7.234 7.234 0 0 1 2.463.4 5.425 5.425 0 0 1 1.9 1.138 4.989 4.989 0 0 1 1.213 1.775 6.048 6.048 0 0 1 .425 2.313V28h-2v-8.05a4.185 4.185 0 0 0-1.089-3.075 4.011 4.011 0 0 0-2.987-1.1 4.052 4.052 0 0 0-3.125 1.212 4.643 4.643 0 0 0-1.125 3.288v1.8a4.965 4.965 0 0 0 1 3.35 3.86 3.86 0 0 0 3.075 1.15q.275 0 .563-.013a2.948 2.948 0 0 0 .588-.087l.25 1.675a3.5 3.5 0 0 1-.9.138q-.476.012-.877.012zm16.325 0a5.842 5.842 0 0 1-4.175-1.437 5.15 5.15 0 0 1-1.525-3.937V14.35h2v8.375a3.876 3.876 0 0 0 .988 2.862 4.219 4.219 0 0 0 5.425 0 3.876 3.876 0 0 0 .988-2.862V9.95h2v12.975a5.15 5.15 0 0 1-1.525 3.938 5.842 5.842 0 0 1-4.175 1.437zm14.5 0a6.981 6.981 0 0 1-3.2-.675 6.252 6.252 0 0 1-2.225-1.9l1.425-1.15a4.847 4.847 0 0 0 1.787 1.537 5.388 5.388 0 0 0 2.362.488 3.845 3.845 0 0 0 2.288-.575 1.971 1.971 0 0 0 .787-1.7 1.876 1.876 0 0 0-.613-1.488 3.823 3.823 0 0 0-1.963-.737l-1.175-.175a12.645 12.645 0 0 1-1.575-.35 5.083 5.083 0 0 1-1.412-.65A3.176 3.176 0 0 1 90.95 19.8a3.577 3.577 0 0 1-.387-1.75 3.918 3.918 0 0 1 .363-1.725 3.4 3.4 0 0 1 1.025-1.25 4.794 4.794 0 0 1 1.563-.762 6.938 6.938 0 0 1 1.95-.263 6.653 6.653 0 0 1 2.963.588 6.091 6.091 0 0 1 1.987 1.537l-1.275 1.2a4.881 4.881 0 0 0-1.475-1.138 4.775 4.775 0 0 0-2.25-.487 3.476 3.476 0 0 0-2.15.575 1.9 1.9 0 0 0-.75 1.6 1.678 1.678 0 0 0 .725 1.55 5.414 5.414 0 0 0 2 .65l1.175.175a11.582 11.582 0 0 1 1.7.4 4.163 4.163 0 0 1 1.337.7 3.222 3.222 0 0 1 .888 1.113 3.635 3.635 0 0 1 .325 1.612 3.71 3.71 0 0 1-1.387 3.063 5.891 5.891 0 0 1-3.789 1.112zm10.775-2.8a2.189 2.189 0 0 1-1.65-.55 2.013 2.013 0 0 1-.525-1.45v-1.075h2v1.35h4.325V25.5zm0-6.425a2.189 2.189 0 0 1-1.65-.55 2.013 2.013 0 0 1-.525-1.45V16h2v1.35h4.325v1.725zm12.275 9.175a4.979 4.979 0 0 1-3.3-1.025 3.66 3.66 0 0 1-1.225-2.975 3.618 3.618 0 0 1 1.213-2.925 4.969 4.969 0 0 1 3.313-1.025h4.35V19q0-3.225-3.525-3.225a4.777 4.777 0 0 0-2.512.613 4.68 4.68 0 0 0-1.637 1.688l-1.275-1.125a5.434 5.434 0 0 1 2-2.063 6.609 6.609 0 0 1 3.525-.838 6.074 6.074 0 0 1 3.475.9 1.253 1.253 0 0 1 1.4-1.3h3.325v1.85h-4.025a4.594 4.594 0 0 1 1.25 3.4V28h-2v-6.275h-3.9a3.383 3.383 0 0 0-2.1.575 1.928 1.928 0 0 0-.75 1.625v.575a2.128 2.128 0 0 0 .688 1.712 2.772 2.772 0 0 0 1.863.587 5.761 5.761 0 0 0 .588-.025q.237-.025.387-.05l.175 1.375a1.788 1.788 0 0 1-.562.112q-.416.039-.741.039zm9.8-10.125h2.15l3.625 8.2h.075a2.932 2.932 0 0 0 2.438-1.088 4.774 4.774 0 0 0 .863-3.037v-2.05a4.676 4.676 0 0 0-.863-3 2.946 2.946 0 0 0-2.437-1.075h-.8V14.35h.825a4.811 4.811 0 0 1 4 1.8 7.907 7.907 0 0 1 1.425 5.025 7.957 7.957 0 0 1-1.412 5.025 4.776 4.776 0 0 1-3.988 1.8h-1.55zm14.8 1.325a5.783 5.783 0 0 1 .413-2.225 4.76 4.76 0 0 1 1.188-1.713 5.216 5.216 0 0 1 1.875-1.087 7.643 7.643 0 0 1 2.475-.375 7.559 7.559 0 0 1 2.45.375 5.216 5.216 0 0 1 1.875 1.087 4.9 4.9 0 0 1 1.2 1.713 5.634 5.634 0 0 1 .425 2.225V28h-2v-8.35A3.809 3.809 0 0 0 152 16.775a4.741 4.741 0 0 0-5.825 0 3.809 3.809 0 0 0-1.038 2.875v3.25h.125a4.143 4.143 0 0 1 .475-.913 3.3 3.3 0 0 1 .75-.775 3.636 3.636 0 0 1 1.063-.538 4.551 4.551 0 0 1 1.412-.2h.825v2h-1.15a4.583 4.583 0 0 0-2.55.625 1.96 1.96 0 0 0-.95 1.725V28h-2zm7.9-9.35a1.969 1.969 0 0 1 .525-1.438 2.221 2.221 0 0 1 1.65-.537h4.95v1.7h-5.125v1.85h-2z" transform="rotate(90 -1570.5 2150.5)"/>
        <g id="Icon_feather-arrow-up-13" data-name="Icon feather-arrow-up" transform="translate(546.5 4132.678)">
            <path id="Path_41-13" data-name="Path 41" class="cls-8" d="m0 0 12.5 12.5L25 0"/>
        </g>
        <g id="Icon_feather-arrow-up-14" data-name="Icon feather-arrow-up" transform="translate(546.5 4532.501)">
            <path id="Path_41-14" data-name="Path 41" class="cls-8" d="m0 0 12.5 12.5L25 0"/>
        </g>
        <g id="Icon_feather-arrow-up-15" data-name="Icon feather-arrow-up" transform="translate(546.5 4894.502)">
            <path id="Path_41-15" data-name="Path 41" class="cls-8" d="m0 0 12.5 12.5L25 0"/>
        </g>
    </g>
</svg>
