<svg xmlns="http://www.w3.org/2000/svg" width="225.214" height="579.866" viewBox="0 0 225.214 579.866">
    <defs>
        <style>
            .cls-1,.cls-12,.cls-3,.cls-5{fill:none}.cls-1,.cls-3{stroke:#fff}.cls-1,.cls-3,.cls-5{stroke-width:3px}.cls-1{stroke-dasharray:8 8}.cls-3,.cls-5{stroke-linecap:round;stroke-linejoin:round}.cls-5{stroke:#f04e30}.cls-9{fill:#fff;font-size:15px}.cls-8{fill:#daa13d}.cls-9{font-family:IBMPlexSansThai-Medium,IBM Plex Sans Thai;font-weight:500;letter-spacing:.05em}.cls-10{fill:#6badcb}.cls-11{stroke:none}
        </style>
    </defs>
    <g id="Group_1255" data-name="Group 1255" transform="translate(-77 -5965.252)">
        <g id="Group_1254" data-name="Group 1254">
            <g id="Ellipse_422" data-name="Ellipse 422" class="cls-1" transform="rotate(90 -2949.426 3223.426)">
                <circle class="cls-11" cx="81.637" cy="81.637" r="81.637"/>
                <circle class="cls-12" cx="81.637" cy="81.637" r="80.137"/>
            </g>
            <g id="Ellipse_480" data-name="Ellipse 480" transform="matrix(0 1 -1 0 274 6009.65)" style="stroke-dasharray:6 6;stroke-width:3px;stroke:#fff;fill:none">
                <circle class="cls-11" cx="81.637" cy="81.637" r="81.637"/>
                <circle class="cls-12" cx="81.637" cy="81.637" r="80.137"/>
            </g>
            <g id="Ellipse_451" data-name="Ellipse 451" class="cls-1" transform="rotate(90 -3031.063 3305.063)">
                <circle class="cls-11" cx="81.637" cy="81.637" r="81.637"/>
                <circle class="cls-12" cx="81.637" cy="81.637" r="80.137"/>
            </g>
            <g id="Icon_feather-arrow-up" data-name="Icon feather-arrow-up" transform="rotate(-160 597.363 3016.687)">
                <path id="Path_41" data-name="Path 41" class="cls-3" d="M0 5.1 5.1 0l5.1 5.1"/>
            </g>
            <g id="Icon_feather-arrow-up-2" data-name="Icon feather-arrow-up" transform="rotate(-34 10024.852 2607)">
                <path id="Path_41-2" data-name="Path 41" class="cls-3" d="m0 0 5.1 5.1L10.2 0"/>
            </g>
            <g id="Icon_feather-arrow-up-3" data-name="Icon feather-arrow-up" transform="rotate(54.97 -5948.717 3386.063)">
                <path id="Path_41-3" data-name="Path 41" class="cls-3" d="m0 0 5.1 5.1L10.2 0"/>
            </g>
            <g id="Icon_feather-arrow-up-4" data-name="Icon feather-arrow-up" transform="rotate(54.97 -6105.623 3467.677)">
                <path id="Path_41-4" data-name="Path 41" class="cls-3" d="m0 0 5.1 5.1L10.2 0"/>
            </g>
            <g id="Icon_feather-arrow-up-5" data-name="Icon feather-arrow-up" transform="rotate(125.03 -1568.714 3197.34)">
                <path id="Path_41-5" data-name="Path 41" class="cls-3" d="M0 5.1 5.1 0l5.1 5.1"/>
            </g>
            <g id="Icon_feather-arrow-up-6" data-name="Icon feather-arrow-up" transform="rotate(125.03 -1523.726 3115.467)">
                <path id="Path_41-6" data-name="Path 41" class="cls-3" d="M0 8.168 8.168 0l8.168 8.168"/>
            </g>
            <g id="Icon_feather-arrow-up-7" data-name="Icon feather-arrow-up" transform="rotate(-122 1827.952 3017.274)">
                <path id="Path_41-7" data-name="Path 41" class="cls-3" d="M0 8.168 8.168 0l8.168 8.168"/>
            </g>
            <g id="Icon_feather-arrow-up-8" data-name="Icon feather-arrow-up" transform="rotate(125.03 -1611.19 3278.97)">
                <path id="Path_41-8" data-name="Path 41" class="cls-3" d="M0 5.1 5.1 0l5.1 5.1"/>
            </g>
        </g>
        <g id="Group_1253" data-name="Group 1253">
            <path id="Path_514" data-name="Path 514" d="M0 0v443.979" transform="translate(191.343 6009.5)" style="stroke-width:5px;stroke-dasharray:5 6;stroke:#f04e30;fill:none"/>
            <g id="Icon_feather-arrow-up-9" data-name="Icon feather-arrow-up" transform="translate(181.615 6117.583)">
                <path id="Path_41-9" data-name="Path 41" class="cls-5" d="m0 0 9.727 9.727L19.454 0"/>
            </g>
            <g id="Icon_feather-arrow-up-10" data-name="Icon feather-arrow-up" transform="translate(181.615 6284.583)">
                <path id="Path_41-10" data-name="Path 41" class="cls-5" d="m0 0 9.727 9.727L19.454 0"/>
            </g>
            <g id="Icon_feather-arrow-up-11" data-name="Icon feather-arrow-up" transform="translate(181.615 6446.094)">
                <path id="Path_41-11" data-name="Path 41" class="cls-5" d="m0 0 9.727 9.727L19.454 0"/>
            </g>
        </g>
        <g id="Group_1252" data-name="Group 1252">
            <circle id="Ellipse_450" data-name="Ellipse 450" cx="45.921" cy="45.921" r="45.921" transform="rotate(90 -3107.803 3345.474)" style="fill:#36723b"/>
            <text id="เป้าหมาย" transform="translate(193 6506)" style="font-family:IBMPlexSansThaiLooped-SemiBold,IBM Plex Sans Thai Looped;font-weight:600;fill:#fff;font-size:15px"><tspan x="-31.185" y="0">เป้าหมาย</tspan></text>
            <g id="Group_1128" data-name="Group 1128" transform="translate(75.984 6384.162)">
                <circle id="Ellipse_449" data-name="Ellipse 449" class="cls-8" cx="33.398" cy="33.398" r="33.398" transform="rotate(90 33.906 33.906)"/>
                <text id="ผลลัพธ์" class="cls-9" transform="translate(1.016 21.48)"><tspan x="-24.6" y="17">ผลลัพธ์</tspan></text>
            </g>
            <g id="Group_1195" data-name="Group 1195" transform="translate(75.984 6214.788)">
                <circle id="Ellipse_449-2" data-name="Ellipse 449" class="cls-8" cx="33.398" cy="33.398" r="33.398" transform="rotate(90 33.906 33.906)"/>
                <text id="ผลลัพธ์-2" data-name="ผลลัพธ์" class="cls-9" transform="translate(1.016 21.48)"><tspan x="-24.6" y="17">ผลลัพธ์</tspan></text>
            </g>
            <g id="Group_1197" data-name="Group 1197" transform="translate(75.984 6050.788)">
                <circle id="Ellipse_449-3" data-name="Ellipse 449" class="cls-8" cx="33.398" cy="33.398" r="33.398" transform="rotate(90 33.906 33.906)"/>
                <text id="ผลลัพธ์-3" data-name="ผลลัพธ์" class="cls-9" transform="translate(1.016 21.48)"><tspan x="-24.6" y="17">ผลลัพธ์</tspan></text>
            </g>
            <g id="Group_1194" data-name="Group 1194" transform="translate(234.198 6384.162)">
                <circle id="Ellipse_449-4" data-name="Ellipse 449" class="cls-8" cx="33.398" cy="33.398" r="33.398" transform="rotate(90 33.906 33.906)"/>
                <text id="ผลลัพธ์-4" data-name="ผลลัพธ์" class="cls-9" transform="translate(1.016 21.48)"><tspan x="-24.6" y="17">ผลลัพธ์</tspan></text>
            </g>
            <g id="Group_1196" data-name="Group 1196" transform="translate(234.198 6214.788)">
                <circle id="Ellipse_449-5" data-name="Ellipse 449" class="cls-8" cx="33.398" cy="33.398" r="33.398" transform="rotate(90 33.906 33.906)"/>
                <text id="ผลลัพธ์-5" data-name="ผลลัพธ์" class="cls-9" transform="translate(1.016 21.48)"><tspan x="-24.6" y="17">ผลลัพธ์</tspan></text>
            </g>
            <g id="Group_1198" data-name="Group 1198" transform="translate(234.198 6050.788)">
                <circle id="Ellipse_449-6" data-name="Ellipse 449" class="cls-8" cx="33.398" cy="33.398" r="33.398" transform="rotate(90 33.906 33.906)"/>
                <text id="ผลลัพธ์-6" data-name="ผลลัพธ์" class="cls-9" transform="translate(1.016 21.48)"><tspan x="-24.6" y="17">ผลลัพธ์</tspan></text>
            </g>
            <g id="Group_1193" data-name="Group 1193" transform="translate(156.826 6302.961)">
                <ellipse id="Ellipse_449-7" data-name="Ellipse 449" class="cls-10" cx="44.398" cy="44.898" rx="44.398" ry="44.898" transform="rotate(90 45.207 34.207)"/>
                <text id="จุดประสงค์" class="cls-9" transform="translate(-10.382 21.48)"><tspan x="-36.525" y="17">จุดประสงค์</tspan></text>
            </g>
            <g id="Group_1199" data-name="Group 1199" transform="translate(156.826 6136.992)">
                <ellipse id="Ellipse_449-8" data-name="Ellipse 449" class="cls-10" cx="44.398" cy="44.898" rx="44.398" ry="44.898" transform="rotate(90 45.207 34.207)"/>
                <text id="จุดประสงค์-2" data-name="จุดประสงค์" class="cls-9" transform="translate(-10.382 21.48)"><tspan x="-36.525" y="17">จุดประสงค์</tspan></text>
            </g>
            <g id="Group_1200" data-name="Group 1200" transform="translate(156.826 5976.252)">
                <ellipse id="Ellipse_449-9" data-name="Ellipse 449" class="cls-10" cx="44.398" cy="44.898" rx="44.398" ry="44.898" transform="rotate(90 45.207 34.207)"/>
                <text id="จุดประสงค์-3" data-name="จุดประสงค์" class="cls-9" transform="translate(-10.382 21.48)"><tspan x="-36.525" y="17">จุดประสงค์</tspan></text>
            </g>
        </g>
    </g>
</svg>
