<svg xmlns="http://www.w3.org/2000/svg" width="105" height="105" viewBox="0 0 105 105">
    <defs>
        <style>
            .cls-9{fill:none}.cls-7{stroke:none}
        </style>
    </defs>
    <g id="Group_244" data-name="Group 244" transform="translate(-262 -2859)">
        <g id="Polygon_21" data-name="Polygon 21" style="fill:#242054">
            <path class="cls-7" d="M33.395 41.5H4.605c-.516 0-.974-.248-1.256-.681a1.476 1.476 0 0 1-.116-1.425L17.628 6.816c.366-.829 1.143-.893 1.372-.893.23 0 1.006.064 1.372.893l14.395 32.578c.208.472.166.992-.116 1.425-.282.433-.74.681-1.256.681z" transform="translate(290 2880)"/>
            <path d="M19 7.423 4.605 40h28.79L19 7.423m0-3c1.109 0 2.218.596 2.744 1.787L36.14 38.788C37.015 40.77 35.563 43 33.395 43H4.605c-2.168 0-3.62-2.23-2.744-4.212L16.256 6.21C16.782 5.02 17.89 4.423 19 4.423z" style="fill:#232053;stroke:none" transform="translate(290 2880)"/>
        </g>
        <g id="Ellipse_244" data-name="Ellipse 244" transform="translate(262 2859)" style="stroke-width:3px;stroke:#de5a3d;fill:none">
            <circle class="cls-7" cx="52.5" cy="52.5" r="52.5"/>
            <circle class="cls-9" cx="52.5" cy="52.5" r="51"/>
        </g>
        <circle id="Ellipse_245" data-name="Ellipse 245" cx="14" cy="14" r="14" transform="translate(276 2883)" style="fill:#daa13d"/>
        <circle id="Ellipse_246" data-name="Ellipse 246" cx="9.5" cy="9.5" r="9.5" transform="translate(290 2893)" style="fill:#36723b"/>
        <g id="Rectangle_227" data-name="Rectangle 227" transform="translate(317 2895)" style="stroke:#6badcb;stroke-width:3px;fill:none">
            <rect class="cls-7" width="37" height="37" rx="2"/>
            <rect class="cls-9" x="1.5" y="1.5" width="34" height="34" rx=".5"/>
        </g>
        <g id="Rectangle_228" data-name="Rectangle 228" transform="translate(306 2923)" style="fill:#cc79a7;stroke:#cc79a8;stroke-width:3px">
            <rect class="cls-7" width="20" height="20" rx="2"/>
            <rect class="cls-9" x="1.5" y="1.5" width="17" height="17" rx=".5"/>
        </g>
    </g>
</svg>
