<svg xmlns="http://www.w3.org/2000/svg" width="669" height="686" viewBox="0 0 669 686">
    <defs>
        <style>
            .cls-2{fill:#fff}.cls-7{fill:#f04e30}.cls-8{fill:#242054}
        </style>
    </defs>
    <g id="Group_1404" data-name="Group 1404" transform="translate(-1013 -406)">
        <g id="Ellipse_404" data-name="Ellipse 404" transform="translate(1046 406)" style="stroke:#fff;stroke-width:3px;stroke-dasharray:8 8;fill:none">
            <circle cx="300" cy="300" r="300" style="stroke:none"/>
            <circle cx="300" cy="300" r="298.5" style="fill:none"/>
        </g>
        <path id="Path_551" data-name="Path 551" class="cls-2" d="M150 0A150 150 0 1 1 0 150 150 150 0 0 1 150 0z" transform="translate(1196 556)"/>
        <g id="Group_613" data-name="Group 613">
            <circle id="Ellipse_408" data-name="Ellipse 408" cx="87.5" cy="87.5" r="87.5" transform="translate(1259 917)" style="fill:#cc79a7"/>
            <path id="Path_546" data-name="Path 546" class="cls-2" d="M85.6 14.35h2v2.225h.125a5.462 5.462 0 0 1 .512-.938 3.217 3.217 0 0 1 .8-.812 4.108 4.108 0 0 1 1.15-.562 5.04 5.04 0 0 1 1.537-.213 4.377 4.377 0 0 1 3.412 1.363 5.583 5.583 0 0 1 1.239 3.887V28h-2v-8.45q0-3.8-3.3-3.8a4.707 4.707 0 0 0-1.275.175 3.513 3.513 0 0 0-1.112.525 2.734 2.734 0 0 0-.787.875 2.426 2.426 0 0 0-.3 1.225V28h-2zm.575-4.4h8.25V8.125h1.95v3.55h-10.2zm21.65 18.35a4.919 4.919 0 0 1-1.525-.212 3.95 3.95 0 0 1-1.125-.562 3.41 3.41 0 0 1-.788-.8 4.761 4.761 0 0 1-.512-.95h-.125V28h-2V14.35h2v9.45a2.426 2.426 0 0 0 .3 1.225 2.734 2.734 0 0 0 .787.875 3.533 3.533 0 0 0 1.1.525 4.573 4.573 0 0 0 1.262.175 3.12 3.12 0 0 0 2.488-.962 4.21 4.21 0 0 0 .838-2.838v-8.45h2v8.7a5.547 5.547 0 0 1-1.25 3.888 4.448 4.448 0 0 1-3.45 1.362zM40.7 69.3a5.842 5.842 0 0 1-4.175-1.437A5.15 5.15 0 0 1 35 63.925V55.35h2v8.375a3.876 3.876 0 0 0 .987 2.863 3.665 3.665 0 0 0 2.713.987 3.665 3.665 0 0 0 2.712-.987 3.876 3.876 0 0 0 .988-2.863V50.95h2v12.975a5.15 5.15 0 0 1-1.525 3.938A5.842 5.842 0 0 1 40.7 69.3zm15.75 0a6.981 6.981 0 0 1-3.2-.675 6.252 6.252 0 0 1-2.225-1.9l1.425-1.15a4.847 4.847 0 0 0 1.788 1.538 5.388 5.388 0 0 0 2.362.487 3.845 3.845 0 0 0 2.287-.575 1.971 1.971 0 0 0 .788-1.7 1.876 1.876 0 0 0-.613-1.487A3.823 3.823 0 0 0 57.1 63.1l-1.175-.175a12.644 12.644 0 0 1-1.575-.35 5.083 5.083 0 0 1-1.413-.65 3.176 3.176 0 0 1-1.024-1.125 3.577 3.577 0 0 1-.388-1.75 3.918 3.918 0 0 1 .362-1.725 3.4 3.4 0 0 1 1.025-1.25 4.794 4.794 0 0 1 1.563-.763 6.938 6.938 0 0 1 1.95-.263 6.653 6.653 0 0 1 2.962.588 6.091 6.091 0 0 1 1.987 1.537l-1.275 1.2a4.881 4.881 0 0 0-1.475-1.138 4.775 4.775 0 0 0-2.25-.487 3.476 3.476 0 0 0-2.15.575 1.9 1.9 0 0 0-.75 1.6 1.678 1.678 0 0 0 .725 1.55 5.414 5.414 0 0 0 2 .65l1.175.175a11.582 11.582 0 0 1 1.7.4 4.163 4.163 0 0 1 1.338.7 3.222 3.222 0 0 1 .888 1.112 3.636 3.636 0 0 1 .325 1.612 3.71 3.71 0 0 1-1.387 3.063A5.891 5.891 0 0 1 56.45 69.3zm12.025-2.8a2.189 2.189 0 0 1-1.65-.55 2.013 2.013 0 0 1-.525-1.45v-1.075h2v1.35h4.325V66.5zm0-6.425a2.189 2.189 0 0 1-1.65-.55 2.013 2.013 0 0 1-.525-1.45V57h2v1.35h4.325v1.725zM82 69.25a4.979 4.979 0 0 1-3.3-1.025 3.66 3.66 0 0 1-1.225-2.975 3.618 3.618 0 0 1 1.213-2.925A4.969 4.969 0 0 1 82 61.3h4.35V60q0-3.225-3.525-3.225a4.777 4.777 0 0 0-2.512.612 4.68 4.68 0 0 0-1.637 1.688L77.4 57.95a5.433 5.433 0 0 1 2-2.062 6.609 6.609 0 0 1 3.525-.838 6.074 6.074 0 0 1 3.475.9 1.253 1.253 0 0 1 1.4-1.3h3.325v1.85H87.1a4.594 4.594 0 0 1 1.25 3.4V69h-2v-6.275h-3.9a3.383 3.383 0 0 0-2.1.575 1.928 1.928 0 0 0-.75 1.625v.575a2.128 2.128 0 0 0 .688 1.713 2.772 2.772 0 0 0 1.863.588 5.76 5.76 0 0 0 .588-.025q.237-.025.387-.05L83.3 69.1a1.788 1.788 0 0 1-.562.113q-.413.037-.738.037zm18.525-9.625q0-2.875-2.975-2.875a3.389 3.389 0 0 0-1.963.525 4.442 4.442 0 0 0-1.287 1.4L93.075 57.6a4.838 4.838 0 0 1 1.688-1.825 5.255 5.255 0 0 1 2.912-.725 5.132 5.132 0 0 1 3.6 1.15 4.2 4.2 0 0 1 1.25 3.25V69h-2zM112.4 69.3a4.318 4.318 0 0 1-3.4-1.375 5.629 5.629 0 0 1-1.225-3.875v-8.7h2v8.45q0 3.8 3.25 3.8a4.618 4.618 0 0 0 1.25-.175 3.364 3.364 0 0 0 1.1-.525 2.8 2.8 0 0 0 .775-.875 2.426 2.426 0 0 0 .3-1.225v-9.45h2v11.9h1.6V69h-1.475a1.73 1.73 0 0 1-1.463-.6 2.812 2.812 0 0 1-.537-1.525h-.1a3.264 3.264 0 0 1-1.487 1.787 5.027 5.027 0 0 1-2.588.638zm10.325-10.175h2.15l3.625 8.2h.075a2.932 2.932 0 0 0 2.438-1.087 4.774 4.774 0 0 0 .863-3.038v-2.05a4.676 4.676 0 0 0-.863-3 2.946 2.946 0 0 0-2.437-1.075h-.8V55.35h.825a4.811 4.811 0 0 1 4 1.8 7.907 7.907 0 0 1 1.425 5.025 7.957 7.957 0 0 1-1.413 5.025 4.776 4.776 0 0 1-3.988 1.8h-1.55zm21.875.5q0-2.875-2.975-2.875a3.389 3.389 0 0 0-1.963.525 4.442 4.442 0 0 0-1.287 1.4L137.15 57.6a4.838 4.838 0 0 1 1.688-1.825 5.255 5.255 0 0 1 2.913-.725 5.132 5.132 0 0 1 3.6 1.15 4.2 4.2 0 0 1 1.25 3.25V69h-2zm11.875 9.675a4.318 4.318 0 0 1-3.4-1.375 5.629 5.629 0 0 1-1.225-3.875v-8.7h2v8.45q0 3.8 3.25 3.8a4.618 4.618 0 0 0 1.25-.175 3.364 3.364 0 0 0 1.1-.525 2.8 2.8 0 0 0 .775-.875 2.426 2.426 0 0 0 .3-1.225v-9.45h2v11.9h1.6V69h-1.475a1.73 1.73 0 0 1-1.463-.6 2.812 2.812 0 0 1-.537-1.525h-.1a3.264 3.264 0 0 1-1.488 1.787 5.027 5.027 0 0 1-2.587.638z" transform="translate(1247 964)"/>
        </g>
        <g id="Group_612" data-name="Group 612">
            <path id="Path_545" data-name="Path 545" d="M87.5 0A87.5 87.5 0 1 1 0 87.5 87.5 87.5 0 0 1 87.5 0z" transform="translate(1507 451)" style="fill:#6badcb"/>
            <path id="Path_544" data-name="Path 544" class="cls-2" d="M69.188 14.35h2v2.225h.125a5.462 5.462 0 0 1 .512-.938 3.217 3.217 0 0 1 .8-.812 4.108 4.108 0 0 1 1.15-.562 5.04 5.04 0 0 1 1.537-.213 4.377 4.377 0 0 1 3.412 1.363 5.583 5.583 0 0 1 1.239 3.887V28h-2v-8.45q0-3.8-3.3-3.8a4.707 4.707 0 0 0-1.275.175 3.513 3.513 0 0 0-1.112.525 2.734 2.734 0 0 0-.787.875 2.426 2.426 0 0 0-.3 1.225V28h-2zm.575-4.4h8.25V8.125h1.95v3.55h-10.2zM91.412 28.3a4.919 4.919 0 0 1-1.525-.212 3.95 3.95 0 0 1-1.125-.562 3.41 3.41 0 0 1-.788-.8 4.761 4.761 0 0 1-.512-.95h-.125V28h-2V14.35h2v9.45a2.426 2.426 0 0 0 .3 1.225 2.734 2.734 0 0 0 .787.875 3.533 3.533 0 0 0 1.1.525 4.573 4.573 0 0 0 1.262.175 3.12 3.12 0 0 0 2.488-.962 4.21 4.21 0 0 0 .838-2.838v-8.45h2v8.7a5.547 5.547 0 0 1-1.25 3.888 4.448 4.448 0 0 1-3.45 1.362zm11.5-6.1h-1.525v-1.725h2.05a1.622 1.622 0 0 1 .713.163.88.88 0 0 1 .463.563l1.8 5.125h.95a2.28 2.28 0 0 0 1.975-1.125 5.59 5.59 0 0 0 .75-3.125v-2.05A4.3 4.3 0 0 0 109 16.888a3.952 3.952 0 0 0-2.962-1.113 5.471 5.471 0 0 0-2.925.712 5.2 5.2 0 0 0-1.8 1.838l-1.3-1.15a5.434 5.434 0 0 1 .862-1.2 5.281 5.281 0 0 1 1.3-1 7.222 7.222 0 0 1 1.75-.675 8.913 8.913 0 0 1 2.188-.25 5.622 5.622 0 0 1 4.512 1.85 7.661 7.661 0 0 1 1.588 5.15 10.754 10.754 0 0 1-.362 2.913 6.9 6.9 0 0 1-1.013 2.188 4.361 4.361 0 0 1-1.6 1.375 4.629 4.629 0 0 1-2.1.475h-2.2zm6.425-10.525a2.189 2.189 0 0 1-1.65-.55 2.013 2.013 0 0 1-.525-1.45v-1.55h2V9.95h6.375v1.725zM122.313 28.3a5.893 5.893 0 0 1-2.487-.5 5.108 5.108 0 0 1-1.838-1.412 6.23 6.23 0 0 1-1.138-2.238 10.59 10.59 0 0 1-.387-2.975 9.05 9.05 0 0 1 .45-2.925A6.342 6.342 0 0 1 118.2 16a5.761 5.761 0 0 1 2.037-1.438 6.811 6.811 0 0 1 2.7-.512 7.234 7.234 0 0 1 2.463.4 5.425 5.425 0 0 1 1.9 1.138 4.989 4.989 0 0 1 1.212 1.775 6.048 6.048 0 0 1 .425 2.313V28h-2v-8.05a4.185 4.185 0 0 0-1.088-3.075 4.011 4.011 0 0 0-2.987-1.1 4.052 4.052 0 0 0-3.125 1.212 4.643 4.643 0 0 0-1.125 3.288v1.8a4.965 4.965 0 0 0 1 3.35 3.86 3.86 0 0 0 3.075 1.15q.275 0 .563-.013a2.948 2.948 0 0 0 .588-.087l.25 1.675a3.5 3.5 0 0 1-.9.138q-.475.012-.875.012zM35.675 61.2l-2.125-.9a5.4 5.4 0 0 1 .563-2.112 5.472 5.472 0 0 1 1.287-1.663 5.831 5.831 0 0 1 1.862-1.088 6.7 6.7 0 0 1 2.313-.388 6.279 6.279 0 0 1 4.475 1.463 5.187 5.187 0 0 1 1.55 3.962V69h-2v-8.275a3.81 3.81 0 0 0-1.088-2.95 4.063 4.063 0 0 0-2.862-1 5.537 5.537 0 0 0-1.463.188 4.732 4.732 0 0 0-1.237.525 3.767 3.767 0 0 0-.95.825 3.04 3.04 0 0 0-.575 1.088l1.25.5a1.68 1.68 0 0 1 .763.512 1.4 1.4 0 0 1 .237.863V69h-2zm19.975 8.1a6.981 6.981 0 0 1-3.2-.675 6.252 6.252 0 0 1-2.225-1.9l1.425-1.15a4.847 4.847 0 0 0 1.788 1.538 5.388 5.388 0 0 0 2.362.487 3.845 3.845 0 0 0 2.287-.575 1.971 1.971 0 0 0 .788-1.7 1.876 1.876 0 0 0-.613-1.487A3.823 3.823 0 0 0 56.3 63.1l-1.175-.175a12.644 12.644 0 0 1-1.575-.35 5.083 5.083 0 0 1-1.413-.65 3.176 3.176 0 0 1-1.025-1.125 3.577 3.577 0 0 1-.388-1.75 3.918 3.918 0 0 1 .362-1.725 3.4 3.4 0 0 1 1.025-1.25 4.794 4.794 0 0 1 1.563-.763 6.938 6.938 0 0 1 1.95-.263 6.653 6.653 0 0 1 2.962.588 6.091 6.091 0 0 1 1.987 1.537l-1.275 1.2a4.881 4.881 0 0 0-1.475-1.138 4.775 4.775 0 0 0-2.25-.487 3.476 3.476 0 0 0-2.15.575 1.9 1.9 0 0 0-.75 1.6 1.678 1.678 0 0 0 .725 1.55 5.414 5.414 0 0 0 2 .65l1.175.175a11.582 11.582 0 0 1 1.7.4 4.163 4.163 0 0 1 1.338.7 3.222 3.222 0 0 1 .888 1.112 3.636 3.636 0 0 1 .325 1.612 3.71 3.71 0 0 1-1.387 3.063A5.891 5.891 0 0 1 55.65 69.3zm12.025-2.8a2.189 2.189 0 0 1-1.65-.55 2.013 2.013 0 0 1-.525-1.45v-1.075h2v1.35h4.325V66.5zm0-6.425a2.189 2.189 0 0 1-1.65-.55 2.013 2.013 0 0 1-.525-1.45V57h2v1.35h4.325v1.725zm15.1 9.225a5.842 5.842 0 0 1-4.175-1.437 5.15 5.15 0 0 1-1.525-3.938V55.35h2v8.375a3.876 3.876 0 0 0 .988 2.863 4.219 4.219 0 0 0 5.425 0 3.876 3.876 0 0 0 .988-2.863V55.35h2v8.575a5.15 5.15 0 0 1-1.525 3.938 5.842 5.842 0 0 1-4.176 1.437zm15.125 0a7.318 7.318 0 0 1-1.875-.238 5.272 5.272 0 0 1-1.55-.662l.75-1.475a4.986 4.986 0 0 0 2.625.65 3.26 3.26 0 0 0 2.675-1.162 4.937 4.937 0 0 0 .95-3.212V61.15a5.09 5.09 0 0 0-.912-3.2 3.223 3.223 0 0 0-2.713-1.175 4.043 4.043 0 0 0-2.225.563 3.694 3.694 0 0 0-1.35 1.563l-1.625-.825a5.127 5.127 0 0 1 1.925-2.187 6.036 6.036 0 0 1 3.325-.839 5.065 5.065 0 0 1 4.262 1.888 8.363 8.363 0 0 1 1.463 5.237 8.213 8.213 0 0 1-1.5 5.237A5.088 5.088 0 0 1 97.9 69.3zm15.1 0a4.318 4.318 0 0 1-3.4-1.375 5.629 5.629 0 0 1-1.225-3.875v-8.7h2v8.45q0 3.8 3.25 3.8a4.618 4.618 0 0 0 1.25-.175 3.364 3.364 0 0 0 1.1-.525 2.8 2.8 0 0 0 .775-.875 2.426 2.426 0 0 0 .3-1.225v-9.45h2v11.9h1.6V69h-1.475a1.73 1.73 0 0 1-1.463-.6 2.812 2.812 0 0 1-.537-1.525h-.1a3.264 3.264 0 0 1-1.487 1.787A5.027 5.027 0 0 1 113 69.3zm13.125-8.1L124 60.3a5.4 5.4 0 0 1 .563-2.112 5.472 5.472 0 0 1 1.287-1.662 5.831 5.831 0 0 1 1.863-1.088 6.7 6.7 0 0 1 2.313-.388 6.279 6.279 0 0 1 4.475 1.463 5.187 5.187 0 0 1 1.55 3.962V69h-2v-8.275a3.81 3.81 0 0 0-1.087-2.95 4.063 4.063 0 0 0-2.863-1 5.537 5.537 0 0 0-1.462.188 4.732 4.732 0 0 0-1.238.525 3.767 3.767 0 0 0-.95.825 3.04 3.04 0 0 0-.575 1.088l1.25.5a1.68 1.68 0 0 1 .763.512 1.4 1.4 0 0 1 .238.863V69h-2zm21-1.575q0-2.875-2.975-2.875a3.389 3.389 0 0 0-1.963.525 4.442 4.442 0 0 0-1.287 1.4l-1.225-1.075a4.838 4.838 0 0 1 1.688-1.825 5.255 5.255 0 0 1 2.913-.725 5.132 5.132 0 0 1 3.6 1.15 4.2 4.2 0 0 1 1.25 3.25V69h-2zm12.05 9.675a6.981 6.981 0 0 1-3.2-.675 6.252 6.252 0 0 1-2.225-1.9l1.425-1.15a4.847 4.847 0 0 0 1.787 1.538 5.389 5.389 0 0 0 2.363.487 3.846 3.846 0 0 0 2.288-.575 1.971 1.971 0 0 0 .787-1.7 1.876 1.876 0 0 0-.612-1.487 3.823 3.823 0 0 0-1.963-.738l-1.175-.175a12.645 12.645 0 0 1-1.575-.35 5.083 5.083 0 0 1-1.412-.65 3.176 3.176 0 0 1-1.025-1.125 3.577 3.577 0 0 1-.387-1.75 3.918 3.918 0 0 1 .363-1.725 3.4 3.4 0 0 1 1.025-1.25 4.794 4.794 0 0 1 1.563-.763 6.939 6.939 0 0 1 1.95-.263 6.653 6.653 0 0 1 2.963.588 6.091 6.091 0 0 1 1.988 1.537l-1.275 1.2a4.881 4.881 0 0 0-1.475-1.138 4.775 4.775 0 0 0-2.25-.487 3.476 3.476 0 0 0-2.15.575 1.9 1.9 0 0 0-.75 1.6 1.678 1.678 0 0 0 .725 1.55 5.414 5.414 0 0 0 2 .65l1.175.175a11.583 11.583 0 0 1 1.7.4 4.163 4.163 0 0 1 1.337.7 3.222 3.222 0 0 1 .887 1.112 3.635 3.635 0 0 1 .325 1.612 3.71 3.71 0 0 1-1.388 3.063 5.891 5.891 0 0 1-3.789 1.114z" transform="translate(1495 499)"/>
        </g>
        <g id="Group_611" data-name="Group 611" transform="translate(.001 -2700)">
            <circle id="Ellipse_400" data-name="Ellipse 400" cx="87.5" cy="87.5" r="87.5" transform="translate(1012.999 3149)" style="fill:#daa13d"/>
            <text id="ทีมเนื้อหา" transform="translate(1012.999 3216)" style="font-size:25px;font-family:IBMPlexSansThai,IBM Plex Sans Thai;letter-spacing:.05em;fill:#fff"><tspan x="-51.137" y="28">ทีมเนื้อหา</tspan></text>
        </g>
        <g id="Group_1401" data-name="Group 1401" transform="translate(1252.757 668.686)">
            <g id="Group_535" data-name="Group 535">
                <path id="Path_231" data-name="Path 231" class="cls-7" d="M12.353 46.025h15.483c4.308 0 7.646 1.208 9.87 3.434a10.626 10.626 0 0 1 2.9 7.742v.1a10.52 10.52 0 0 1-7.256 10.5l8.27 12.094h-8.703l-7.256-10.839h-5.856v10.835h-7.452zm15 16.45c3.628 0 5.709-1.937 5.709-4.789v-.1c0-3.193-2.228-4.84-5.856-4.84h-7.4v9.727z" transform="translate(-12.353 -45.541)"/>
                <path id="Path_232" data-name="Path 232" class="cls-7" d="M32.55 46.025H40v33.866h-7.45z" transform="translate(2.764 -45.541)"/>
                <path id="Path_233" data-name="Path 233" class="cls-7" d="m40.323 75.164 4.4-5.273C47.775 72.407 50.968 74 54.839 74c3.046 0 4.884-1.21 4.884-3.194v-.1c0-1.887-1.159-2.855-6.821-4.307-6.821-1.741-11.223-3.626-11.223-10.355v-.1c0-6.144 4.934-10.208 11.853-10.208a19.618 19.618 0 0 1 12.58 4.3l-3.872 5.629c-3-2.079-5.952-3.338-8.807-3.338s-4.352 1.306-4.352 2.953v.094c0 2.228 1.449 2.951 7.305 4.452 6.87 1.79 10.741 4.259 10.741 10.16v.1c0 6.725-5.13 10.5-12.435 10.5a21.552 21.552 0 0 1-14.369-5.422z" transform="translate(8.582 -45.748)"/>
                <path id="Path_234" data-name="Path 234" class="cls-7" d="M59.357 46.025H84.9v6.627H66.76v6.872h15.967v6.626H66.76v7.115h18.385v6.627H59.357z" transform="translate(22.829 -45.541)"/>
            </g>
            <g id="Group_536" data-name="Group 536" transform="translate(37.608 38.362)">
                <path id="Path_235" data-name="Path 235" class="cls-8" d="M33.862 67.97h3.247v28.778h-3.247z" transform="translate(-33.862 -67.477)"/>
                <path id="Path_236" data-name="Path 236" class="cls-8" d="M40.54 67.97h3.287l10.486 15.7 10.482-15.7h3.291v28.778h-3.249V73.439L54.353 88.854h-.163L43.7 73.478v23.27h-3.16z" transform="translate(-28.864 -67.477)"/>
                <path id="Path_237" data-name="Path 237" class="cls-8" d="M60.951 67.97h10.774c6.494 0 10.769 3.453 10.769 9.127v.082c0 6.207-5.179 9.416-11.306 9.416H64.2v10.153h-3.249zm10.361 15.663c4.77 0 7.894-2.549 7.894-6.33v-.084c0-4.112-3.084-6.249-7.73-6.249H64.2v12.663z" transform="translate(-13.586 -67.477)"/>
                <path id="Path_238" data-name="Path 238" class="cls-8" d="M86.717 67.853h3.044l13.114 28.983h-3.494l-3.373-7.606H80.345l-3.411 7.606H73.6zm8.019 18.459L88.2 71.635l-6.58 14.677z" transform="translate(-4.117 -67.565)"/>
                <path id="Path_239" data-name="Path 239" class="cls-8" d="M91.9 82.653v-.082c0-8.143 6.085-14.883 14.551-14.883a14.979 14.979 0 0 1 11.225 4.564l-2.221 2.383a12.511 12.511 0 0 0-9.045-3.946c-6.371 0-11.141 5.181-11.141 11.8v.084c0 6.66 4.81 11.879 11.141 11.879 3.948 0 6.538-1.521 9.293-4.151l2.137 2.1c-3 3.042-6.289 5.057-11.512 5.057-8.305-.006-14.428-6.543-14.428-14.805z" transform="translate(9.577 -67.688)"/>
                <path id="Path_240" data-name="Path 240" class="cls-8" d="M118.465 70.97h-9.66v-3h22.611v3h-9.66v25.778h-3.291z" transform="translate(22.231 -67.477)"/>
            </g>
        </g>
    </g>
</svg>
