<svg xmlns="http://www.w3.org/2000/svg" width="62" height="100" viewBox="0 0 62 100">
    <defs>
        <style>
            .cls-4{stroke:none}
        </style>
    </defs>
    <g id="Group_243" data-name="Group 243" transform="translate(-263 -2629)">
        <g id="Polygon_19" data-name="Polygon 19" style="fill:#457042">
            <path class="cls-4" d="M57.39 68.5H4.61c-.517 0-.976-.249-1.258-.682a1.476 1.476 0 0 1-.114-1.425L29.628 6.8c.367-.828 1.143-.892 1.372-.892.229 0 1.005.064 1.372.892l26.39 59.592c.21.472.168.992-.114 1.425-.282.433-.74.682-1.258.682z" transform="rotate(180 162.5 1349.5)"/>
            <path d="M31 7.409 4.61 67h52.78L31 7.409m0-3c1.108 0 2.216.595 2.743 1.785l26.39 59.591C61.012 67.77 59.56 70 57.39 70H4.61c-2.17 0-3.622-2.231-2.743-4.215l26.39-59.591c.527-1.19 1.635-1.785 2.743-1.785z" style="fill:#457041;stroke:none" transform="rotate(180 162.5 1349.5)"/>
        </g>
        <g id="Polygon_20" data-name="Polygon 20" style="fill:#242054">
            <path class="cls-4" d="M57.39 68.5H4.61c-.517 0-.976-.249-1.258-.682a1.476 1.476 0 0 1-.114-1.425L29.628 6.8c.367-.828 1.143-.892 1.372-.892.229 0 1.005.064 1.372.892l26.39 59.592c.21.472.168.992-.114 1.425-.282.433-.74.682-1.258.682z" transform="rotate(180 162.5 1357)"/>
            <path d="M31 7.409 4.61 67h52.78L31 7.409m0-3c1.108 0 2.216.595 2.743 1.785l26.39 59.591C61.012 67.77 59.56 70 57.39 70H4.61c-2.17 0-3.622-2.231-2.743-4.215l26.39-59.591c.527-1.19 1.635-1.785 2.743-1.785z" style="fill:#242054;stroke:none" transform="rotate(180 162.5 1357)"/>
        </g>
        <g id="Polygon_21" data-name="Polygon 21" style="fill:none">
            <path class="cls-4" d="M28.257 6.194a3 3 0 0 1 5.486 0l26.39 59.591A3 3 0 0 1 57.39 70H4.61a3 3 0 0 1-2.743-4.215z" transform="rotate(180 162.5 1364.5)"/>
            <path d="M31 7.409 4.61 67h52.78L31 7.409m0-3c1.108 0 2.216.595 2.743 1.785l26.39 59.591C61.012 67.77 59.56 70 57.39 70H4.61c-2.17 0-3.622-2.231-2.743-4.215l26.39-59.591c.527-1.19 1.635-1.785 2.743-1.785z" style="fill:#f04e30;stroke:none" transform="rotate(180 162.5 1364.5)"/>
        </g>
    </g>
</svg>
