<svg xmlns="http://www.w3.org/2000/svg" width="105.806" height="93.048" viewBox="0 0 105.806 93.048">
    <g data-name="Group 1167">
        <path data-name="Path 62" d="M-278 1153.507h-16.147a28.258 28.258 0 0 1-28.258-28.258 28.27 28.27 0 0 1 19.725-26.946l-2.805-9.365a.338.338 0 0 1 .62-.259l10.719 8.312H-278a28.258 28.258 0 0 1 28.258 28.258A28.258 28.258 0 0 1-278 1153.507z" transform="translate(322.41 -1088.508)" style="fill:#6badcb"/>
        <path data-name="Intersection 1" d="M-4022.079-13418v-23.5h30.343a28.268 28.268 0 0 1-27.859 23.5z" transform="translate(4064 13483)" style="fill:#242054"/>
        <path data-name="Path 63" d="M-294.075 819.693v41.59h-10.515l2.408 8.04a.291.291 0 0 1-.532.222l-10.683-8.263h-43.063v-41.59z" transform="translate(398.381 -778.193)" style="fill:none;stroke:#f04e30;stroke-linecap:round;stroke-linejoin:round;stroke-width:3px"/>
    </g>
</svg>
