<svg xmlns="http://www.w3.org/2000/svg" width="110.495" height="99.049" viewBox="0 0 110.495 99.049">
    <defs>
        <style>
            .cls-3{fill:none;stroke-width:3px;stroke:#242054}
        </style>
    </defs>
    <g id="Group_1158" data-name="Group 1158" transform="translate(-262 -2244.5)">
        <path id="Path_62" data-name="Path 62" d="M-278 1153.507h-16.147a28.258 28.258 0 0 1-28.258-28.258 28.27 28.27 0 0 1 19.725-26.946l-2.805-9.365a.338.338 0 0 1 .62-.259l10.719 8.312H-278a28.258 28.258 0 0 1 28.258 28.258A28.258 28.258 0 0 1-278 1153.507z" transform="translate(584.41 1155.992)" style="fill:#6badcb"/>
        <path id="Path_211" data-name="Path 211" d="M-294.152 1088.507h16.147a28.258 28.258 0 0 1 28.258 28.257h0a28.27 28.27 0 0 1-19.725 26.946h0l2.805 9.365a.338.338 0 0 1-.62.259l-10.719-8.312h-16.147a28.258 28.258 0 0 1-28.258-28.258h0a28.258 28.258 0 0 1 28.259-28.257z" transform="translate(620.742 1188.494)" style="stroke:#f04e30;stroke-linecap:round;stroke-linejoin:round;fill:none;stroke-width:3px"/>
        <path id="Line_45" data-name="Line 45" class="cls-3" transform="translate(307.664 2301.5)" d="M0 0h54"/>
        <path id="Line_46" data-name="Line 46" class="cls-3" transform="translate(307.664 2309.5)" d="M0 0h54"/>
    </g>
</svg>
