<?xml version="1.0" encoding="utf-8"?>
<!-- Generator: Adobe Illustrator 25.2.2, SVG Export Plug-In . SVG Version: 6.00 Build 0)  -->
<svg version="1.1" id="Layer_1" xmlns="http://www.w3.org/2000/svg" xmlns:xlink="http://www.w3.org/1999/xlink" x="0px" y="0px" viewBox="0 0 528 426.8" style="enable-background:new 0 0 528 426.8;" xml:space="preserve">
    <style type="text/css">
	.st0{fill:none;}
	.st1{fill:#FFFFFF;}
	.st2{fill:#F04E30;}
	.st3{fill:none;stroke:#FFFFFF;stroke-width:2;stroke-dasharray:5,5;}
	.st4{fill:#6BADCB;}
	.st5{fill:none;stroke:#6BADCB;stroke-width:3;stroke-dasharray:5,0;}
	.st6{fill:#DAA13D;}
	.st7{fill:none;stroke:#DAA13D;stroke-width:4;}
	.st8{fill:none;stroke:#D1A350;stroke-width:3;stroke-dasharray:5,0;}
	.st9{fill:none;stroke:#FFFFFF;stroke-width:5;}
	.st10{fill:#F04E30;stroke:#F04E30;stroke-width:4;stroke-dasharray:5,5;}
</style>
    <g id="elderly_woman_black_24dp" transform="translate(314.933 155.301)">
        <g id="Group_889" transform="translate(0.477 0.214)">
            <rect id="Rectangle_836" x="375.5" y="298" class="st0" width="44.5" height="77.6" />
        </g>
    </g>
    <g id="Group_2217" transform="translate(-696 -4820.16)">
        <path id="Path_1104" class="st1" d="M704.3,4919.3c-2,0.1-3.9-0.6-5.2-2.1c-1.2-1.4-1.8-3.4-1.8-6.1c-0.1-2.1,0.3-4.1,1.2-5.9
		c0.7-1.3,2.1-2.1,3.6-2.1c0.8,0,1.5,0.2,2.2,0.7c0.6,0.5,1,1.2,1.1,1.9h0.2c0.1-0.8,0.5-1.5,1.2-1.9c0.7-0.5,1.5-0.7,2.4-0.7
		c1,0,2.1,0.4,2.8,1.2c0.7,0.9,1.1,2,1,3.2v11.4h-3.6v-11c0-0.5-0.1-0.9-0.3-1.3c-0.2-0.3-0.6-0.5-1-0.4c-0.4,0-0.9,0.2-1.1,0.6
		c-0.2,0.5-0.4,1-0.5,1.5h-2.2c-0.1-0.5-0.2-1-0.4-1.5c-0.2-0.4-0.6-0.7-1.1-0.6c-0.6,0-1.1,0.4-1.3,0.9c-0.3,0.8-0.4,1.7-0.4,2.6
		v2.8c0,0.5,0.1,1.1,0.2,1.6c0.1,0.5,0.3,0.9,0.6,1.2c0.3,0.4,0.7,0.6,1.2,0.8c0.6,0.2,1.2,0.3,1.8,0.3c0.4,0,0.7,0,1.1-0.1l0.4,2.8
		c-0.3,0.1-0.6,0.1-1,0.2C705,4919.3,704.7,4919.3,704.3,4919.3z M700.4,4898.3h12.5v2.7h-12.5V4898.3z M722.9,4919.3
		c-1,0-2-0.2-2.9-0.6c-0.8-0.4-1.6-0.9-2.1-1.6c-0.6-0.7-1.1-1.6-1.3-2.5c-0.3-1.1-0.5-2.2-0.5-3.4c0-1.1,0.2-2.3,0.5-3.3
		c0.3-0.9,0.8-1.8,1.5-2.5c0.7-0.7,1.5-1.3,2.4-1.6c1-0.4,2-0.6,3.1-0.6c1,0,2,0.1,2.9,0.5c0.8,0.3,1.6,0.7,2.2,1.3
		c0.6,0.6,1.1,1.3,1.4,2.1c0.3,0.9,0.5,1.8,0.5,2.7v9.2h-3.6v-9c0.1-1-0.3-2.1-0.9-2.9c-0.7-0.7-1.6-1.1-2.6-1c-1-0.1-2,0.4-2.7,1.1
		c-0.7,0.9-1,1.9-1,3v2c0,2.8,1.2,4.2,3.5,4.2c0.2,0,0.4,0,0.5,0c0.2,0,0.3,0,0.5-0.1l0.4,2.8c-0.3,0.1-0.7,0.1-1,0.1
		C723.4,4919.3,723.1,4919.3,722.9,4919.3z M738.7,4919c-1,0.1-2-0.2-2.7-0.9c-0.6-0.7-0.9-1.7-0.9-2.6v-11.9h3.6v12.6h2v2.9H738.7z
		 M749.9,4919.3c-2,0.1-3.9-0.6-5.2-2.1c-1.2-1.4-1.8-3.4-1.8-6.1c-0.1-2.1,0.3-4.1,1.2-5.9c0.7-1.3,2.1-2.1,3.6-2.1
		c0.8,0,1.5,0.2,2.2,0.7c0.6,0.5,1,1.2,1.1,1.9h0.2c0.1-0.8,0.5-1.5,1.2-1.9c0.7-0.5,1.5-0.7,2.4-0.7c1,0,2.1,0.4,2.8,1.2
		c0.7,0.9,1.1,2,1,3.2v11.4h-3.6v-11c0-0.5-0.1-0.9-0.3-1.3c-0.2-0.3-0.6-0.5-1-0.4c-0.4,0-0.9,0.2-1.1,0.6c-0.2,0.5-0.4,1-0.5,1.5
		h-2.2c-0.1-0.5-0.2-1-0.4-1.5c-0.2-0.4-0.6-0.6-1.1-0.6c-0.6,0-1.1,0.4-1.3,0.9c-0.3,0.8-0.4,1.7-0.4,2.6v2.8
		c0,0.5,0.1,1.1,0.2,1.6c0.1,0.5,0.3,0.9,0.6,1.2c0.3,0.4,0.7,0.6,1.2,0.8c0.6,0.2,1.2,0.3,1.8,0.3c0.4,0,0.7,0,1.1-0.1l0.4,2.8
		c-0.3,0.1-0.6,0.1-1,0.2C750.6,4919.3,750.2,4919.3,749.9,4919.3z M746,4898.3h9.2v-2.3h3.3v5H746V4898.3z M768.2,4919.3
		c-1.6,0.1-3.3-0.3-4.6-1.2c-1.1-0.8-1.7-2-1.7-3.4c0-0.8,0.3-1.7,0.8-2.3c0.5-0.6,1.3-1.1,2.1-1.3v-0.2c-1.8-0.3-3-1.9-3-3.8
		c0-0.6,0.1-1.1,0.3-1.6c0.2-0.5,0.5-0.9,0.9-1.3c0.4-0.4,0.9-0.6,1.4-0.8c0.6-0.2,1.2-0.3,1.8-0.3c0.5,0,0.9,0,1.4,0.1
		c0.5,0.1,0.9,0.2,1.4,0.5l-0.8,2.6c-0.2-0.1-0.4-0.2-0.7-0.3c-0.2,0-0.5-0.1-0.7-0.1c-0.5,0-1,0.1-1.3,0.5
		c-0.4,0.3-0.6,0.8-0.5,1.3c0,0.5,0.2,1,0.5,1.3c0.5,0.4,1.1,0.6,1.7,0.5h1.5v2.4h-1.5c-0.5,0-0.9,0.2-1.2,0.5
		c-0.3,0.3-0.5,0.8-0.5,1.3v0.6c0,0.6,0.2,1.2,0.7,1.6c0.6,0.4,1.4,0.6,2.1,0.5c0.9,0.1,1.8-0.2,2.5-0.8c0.6-0.7,1-1.6,0.9-2.5v-9.6
		h3.6v10.1c0,0.8-0.2,1.6-0.5,2.4c-0.3,0.7-0.8,1.3-1.4,1.8c-0.7,0.5-1.4,0.9-2.2,1.1C770.2,4919.2,769.2,4919.4,768.2,4919.3
		L768.2,4919.3z M777.7,4907.9h3.6l3.6,8.2h0.1c0.7,0,1.5-0.3,1.9-1c0.5-0.8,0.7-1.7,0.7-2.7v-2.5c0.1-0.9-0.2-1.9-0.7-2.7
		c-0.4-0.6-1.1-1-1.9-1h-1.1v-2.9h1.1c1.8-0.1,3.5,0.7,4.6,2c1.2,1.7,1.8,3.7,1.7,5.7c0.1,2-0.5,4-1.7,5.7c-1.1,1.4-2.8,2.1-4.6,2
		h-2.4L777.7,4907.9z M698.5,4955v-3h5.4v-13.9h-0.3l-4.3,5l-2.3-1.9l4.8-5.8h5.6v16.5h4.5v3H698.5z M728.2,4942.8
		c0,1.3-0.2,2.7-0.6,4c-0.4,1.2-1,2.4-1.6,3.4c-0.6,1-1.4,1.9-2.3,2.8c-0.8,0.8-1.6,1.4-2.5,2.1h-5c1.1-0.8,2.2-1.6,3.1-2.4
		c0.9-0.7,1.7-1.5,2.4-2.3c0.7-0.7,1.2-1.6,1.7-2.4c0.4-0.9,0.8-1.8,1-2.8l-0.2-0.1c-0.2,0.4-0.4,0.7-0.7,1.1
		c-0.3,0.4-0.6,0.7-0.9,0.9c-0.4,0.3-0.8,0.5-1.2,0.6c-0.5,0.2-1.1,0.2-1.6,0.2c-0.8,0-1.5-0.1-2.3-0.4c-0.7-0.3-1.3-0.7-1.8-1.2
		c-0.5-0.5-0.9-1.2-1.2-1.9c-0.3-0.8-0.4-1.7-0.4-2.5c0-0.9,0.2-1.9,0.5-2.7c0.3-0.8,0.8-1.5,1.4-2.1c0.6-0.6,1.4-1.1,2.2-1.4
		c0.9-0.3,1.9-0.5,2.9-0.5c1,0,2,0.2,3,0.5c0.8,0.3,1.6,0.9,2.2,1.5c0.6,0.7,1.1,1.5,1.4,2.4
		C728.1,4940.6,728.2,4941.7,728.2,4942.8z M721.1,4945.1c0.9,0.1,1.8-0.3,2.4-0.9c0.6-0.7,0.9-1.5,0.9-2.5v-0.4
		c0.1-0.9-0.3-1.8-0.9-2.4c-0.7-0.6-1.5-0.9-2.4-0.9c-0.9-0.1-1.8,0.3-2.4,0.9c-0.6,0.7-0.9,1.5-0.9,2.4v0.4
		c-0.1,0.9,0.3,1.8,0.9,2.5C719.4,4944.8,720.2,4945.1,721.1,4945.1z M733.8,4950.7c0.6-0.1,1.2,0.2,1.7,0.6
		c0.4,0.4,0.6,0.9,0.5,1.5v0.5c0,0.5-0.1,1.1-0.2,1.6c-0.1,0.5-0.3,1.1-0.6,1.6c-0.3,0.5-0.6,1-0.9,1.4c-0.3,0.4-0.7,0.8-1.2,1.2
		h-2.5c0.6-0.6,1.1-1.2,1.6-1.8c0.4-0.6,0.8-1.2,1-1.9c-0.5,0-1-0.3-1.3-0.7c-0.3-0.4-0.4-0.8-0.4-1.3v-0.5c0-0.5,0.2-1.1,0.5-1.5
		C732.6,4950.8,733.2,4950.6,733.8,4950.7z M740.5,4955v-3h5.4v-13.9h-0.3l-4.3,5l-2.3-1.9l4.8-5.8h5.6v16.5h4.5v3H740.5z
		 M770.1,4955h-13.6v-3.4l6.1-5.4c0.9-0.7,1.6-1.6,2.3-2.5c0.5-0.7,0.7-1.5,0.7-2.4v-0.4c0-0.8-0.3-1.5-0.8-2
		c-0.6-0.5-1.3-0.7-2-0.7c-0.9-0.1-1.7,0.3-2.3,0.9c-0.5,0.6-0.9,1.3-1.1,2.1l-3.2-1.2c0.2-0.7,0.5-1.3,0.9-1.9
		c0.4-0.6,0.9-1.1,1.4-1.6c0.6-0.5,1.3-0.8,2-1.1c1.8-0.5,3.6-0.5,5.4,0c0.8,0.3,1.4,0.7,2,1.2c0.5,0.5,1,1.1,1.3,1.8
		c0.6,1.5,0.6,3.1,0,4.6c-0.3,0.7-0.6,1.3-1.1,1.9c-0.5,0.6-1,1.2-1.6,1.7c-0.6,0.6-1.2,1.1-1.9,1.7l-4.1,3.4h9.5V4955z M787,4942.8
		c0,1.3-0.2,2.7-0.6,4c-0.4,1.2-1,2.4-1.6,3.4c-0.6,1-1.4,1.9-2.3,2.8c-0.8,0.8-1.6,1.4-2.5,2.1h-5c1.1-0.8,2.2-1.6,3.1-2.4
		c0.9-0.7,1.7-1.5,2.4-2.3c0.7-0.7,1.2-1.6,1.7-2.4c0.4-0.9,0.8-1.8,1-2.8l-0.2-0.1c-0.2,0.4-0.4,0.7-0.7,1.1
		c-0.3,0.4-0.6,0.7-0.9,0.9c-0.4,0.3-0.8,0.5-1.2,0.6c-0.5,0.2-1.1,0.2-1.6,0.2c-0.8,0-1.5-0.1-2.3-0.4c-0.7-0.3-1.3-0.7-1.8-1.2
		c-0.5-0.5-0.9-1.2-1.2-1.9c-0.3-0.8-0.4-1.7-0.4-2.5c0-0.9,0.2-1.9,0.5-2.7c0.3-0.8,0.8-1.5,1.4-2.1c0.6-0.6,1.4-1.1,2.2-1.4
		c0.9-0.3,1.9-0.5,2.9-0.5c1,0,2,0.2,3,0.5c0.8,0.3,1.6,0.9,2.2,1.5c0.6,0.7,1.1,1.5,1.4,2.4C786.9,4940.6,787,4941.7,787,4942.8z
		 M779.9,4945.1c0.9,0.1,1.8-0.3,2.4-0.9c0.6-0.7,0.9-1.5,0.9-2.5v-0.4c0.1-0.9-0.3-1.8-0.9-2.4c-1.4-1.1-3.4-1.1-4.9,0
		c-0.6,0.7-0.9,1.5-0.9,2.4v0.4c-0.1,0.9,0.3,1.8,0.9,2.5C778.1,4944.8,779,4945.1,779.9,4945.1z" />
        <path id="Path_1105" class="st1" d="M1148.7,5057.3c-2,0.1-3.9-0.6-5.2-2.1c-1.2-1.4-1.8-3.4-1.8-6.1c-0.1-2.1,0.3-4.1,1.2-5.9
		c0.7-1.3,2.1-2.1,3.6-2.1c0.8,0,1.5,0.2,2.2,0.7c0.6,0.5,1,1.2,1.1,1.9h0.2c0.1-0.8,0.5-1.5,1.2-1.9c0.7-0.5,1.5-0.7,2.4-0.7
		c1,0,2.1,0.4,2.8,1.2c0.7,0.9,1.1,2,1,3.2v11.4h-3.6v-11c0-0.5-0.1-0.9-0.3-1.3c-0.2-0.3-0.6-0.5-1-0.4c-0.4,0-0.9,0.2-1.1,0.6
		c-0.2,0.5-0.4,1-0.5,1.5h-2.2c-0.1-0.5-0.2-1-0.4-1.5c-0.2-0.4-0.6-0.6-1.1-0.6c-0.6,0-1.1,0.4-1.3,0.9c-0.3,0.8-0.4,1.7-0.4,2.6
		v2.8c0,0.5,0.1,1.1,0.2,1.6c0.1,0.5,0.3,0.9,0.6,1.2c0.3,0.4,0.7,0.6,1.2,0.8c0.6,0.2,1.2,0.3,1.8,0.3c0.4,0,0.7,0,1.1-0.1l0.4,2.8
		c-0.3,0.1-0.6,0.1-1,0.2C1149.4,5057.3,1149.1,5057.3,1148.7,5057.3z M1144.8,5036.3h12.5v2.7h-12.5V5036.3z M1167.3,5057.3
		c-1,0-2-0.2-2.9-0.6c-0.8-0.4-1.6-0.9-2.1-1.6c-0.6-0.7-1.1-1.6-1.3-2.5c-0.3-1.1-0.5-2.2-0.5-3.4c0-1.1,0.2-2.3,0.5-3.3
		c0.3-0.9,0.8-1.8,1.5-2.5c0.7-0.7,1.5-1.3,2.4-1.6c1-0.4,2-0.6,3.1-0.6c1,0,2,0.1,2.9,0.5c0.8,0.3,1.6,0.7,2.2,1.3
		c0.6,0.6,1.1,1.3,1.4,2.1c0.3,0.9,0.5,1.8,0.5,2.7v9.2h-3.6v-9c0.1-1-0.3-2.1-0.9-2.9c-0.7-0.7-1.6-1.1-2.6-1c-1-0.1-2,0.4-2.7,1.1
		c-0.7,0.9-1,1.9-1,3v2c0,2.8,1.2,4.2,3.5,4.2c0.2,0,0.4,0,0.5,0c0.2,0,0.3,0,0.5-0.1l0.4,2.8c-0.3,0.1-0.7,0.1-1,0.1
		C1167.8,5057.3,1167.5,5057.3,1167.3,5057.3z M1185.6,5057.3c-1,0-1.9-0.1-2.8-0.4c-0.8-0.3-1.5-0.7-2.1-1.2c-0.6-0.5-1-1.2-1.3-2
		c-0.3-0.8-0.5-1.7-0.5-2.6v-9.6h3.6v9.4c-0.1,0.9,0.2,1.9,0.8,2.6c1.3,1.2,3.4,1.2,4.7,0c0.6-0.7,0.9-1.7,0.8-2.6v-9.4h3.6v9.6
		c0,0.9-0.1,1.8-0.5,2.6c-0.3,0.7-0.8,1.4-1.3,2c-0.6,0.6-1.3,1-2.1,1.2C1187.5,5057.2,1186.6,5057.3,1185.6,5057.3L1185.6,5057.3z
		 M1186.9,5036.3h1.9v-1c0-0.3-0.1-0.6-0.3-0.8c-0.3-0.2-0.6-0.3-0.9-0.2h-0.7v-2.5h2.1c0.7,0,1.5,0.2,2.1,0.6
		c0.5,0.4,0.7,1,0.7,1.6c0,0.4-0.1,0.9-0.4,1.2c-0.3,0.4-0.6,0.7-1.1,0.9v0.2h5.1v2.5h-8.6V5036.3z M1203,5046.7
		c0-0.7-0.2-1.4-0.6-1.9c-0.5-0.5-1.3-0.7-2-0.7c-0.7,0-1.4,0.1-2,0.5c-0.5,0.4-0.9,0.8-1.2,1.3l-2.1-1.9c0.5-0.8,1.3-1.6,2.1-2.1
		c1.1-0.6,2.3-0.8,3.5-0.8c1.6-0.1,3.2,0.4,4.5,1.4c1.1,1,1.6,2.4,1.5,3.9v10.5h-3.6V5046.7z M1215.4,5057.3
		c-1.4,0.1-2.8-0.5-3.7-1.6c-0.9-1.3-1.4-2.9-1.3-4.5v-9.7h3.6v9.4c0,0.9,0.2,1.8,0.6,2.5c0.5,0.7,1.4,1,2.2,0.9
		c0.4,0,0.8-0.1,1.1-0.2c0.4-0.1,0.7-0.3,1-0.5c0.3-0.2,0.5-0.5,0.7-0.8c0.2-0.3,0.3-0.7,0.3-1.1v-10.2h3.6v12.6h1.5v2.9h-2.2
		c-1.6,0-2.4-0.9-2.5-2.7h-0.2C1219.5,5056.2,1217.5,5057.5,1215.4,5057.3L1215.4,5057.3z M1165.9,5080.8c0,1.3-0.2,2.7-0.6,4
		c-0.4,1.2-1,2.4-1.6,3.4c-0.6,1-1.4,1.9-2.3,2.8c-0.8,0.8-1.6,1.4-2.5,2.1h-5c1.1-0.8,2.2-1.6,3.1-2.4c0.9-0.7,1.7-1.5,2.4-2.3
		c0.7-0.7,1.2-1.6,1.7-2.4c0.4-0.9,0.8-1.8,1-2.8l-0.2-0.1c-0.2,0.4-0.4,0.7-0.7,1.1c-0.3,0.4-0.6,0.7-0.9,0.9
		c-0.4,0.3-0.8,0.5-1.2,0.6c-0.5,0.2-1.1,0.2-1.6,0.2c-0.8,0-1.5-0.1-2.3-0.4c-0.7-0.3-1.3-0.7-1.8-1.2c-0.5-0.5-0.9-1.2-1.2-1.9
		c-0.3-0.8-0.4-1.7-0.4-2.5c0-0.9,0.2-1.9,0.5-2.7c0.3-0.8,0.8-1.5,1.4-2.1c0.6-0.6,1.4-1.1,2.2-1.4c0.9-0.3,1.9-0.5,2.9-0.5
		c1,0,2,0.2,3,0.5c0.8,0.3,1.6,0.9,2.2,1.5c0.6,0.7,1.1,1.5,1.4,2.4C1165.7,5078.6,1165.9,5079.7,1165.9,5080.8L1165.9,5080.8z
		 M1158.7,5083.1c0.9,0.1,1.8-0.3,2.4-0.9c0.6-0.7,0.9-1.5,0.9-2.5v-0.4c0.1-0.9-0.3-1.8-0.9-2.4c-1.4-1.1-3.4-1.1-4.9,0
		c-0.6,0.7-0.9,1.5-0.9,2.4v0.4c-0.1,0.9,0.3,1.8,0.9,2.5C1157,5082.8,1157.9,5083.1,1158.7,5083.1L1158.7,5083.1z M1171.5,5088.7
		c0.6-0.1,1.2,0.2,1.7,0.6c0.4,0.4,0.6,0.9,0.5,1.5v0.5c0,0.5-0.1,1.1-0.2,1.6c-0.1,0.5-0.3,1.1-0.6,1.6c-0.3,0.5-0.6,1-0.9,1.4
		c-0.3,0.4-0.7,0.8-1.2,1.2h-2.5c0.6-0.6,1.1-1.2,1.6-1.8c0.4-0.6,0.8-1.2,1-1.9c-0.5,0-1-0.3-1.3-0.7c-0.3-0.4-0.4-0.8-0.4-1.3
		v-0.5c0-0.5,0.2-1.1,0.5-1.5C1170.2,5088.8,1170.8,5088.6,1171.5,5088.7L1171.5,5088.7z M1184.1,5093.3c-1,0-2-0.2-3-0.5
		c-0.8-0.3-1.6-0.9-2.2-1.5c-0.6-0.7-1.1-1.5-1.4-2.4c-0.3-1-0.5-2.1-0.5-3.2c0-1.3,0.2-2.7,0.6-4c0.4-1.2,1-2.4,1.6-3.4
		c0.6-1,1.4-1.9,2.3-2.8c0.8-0.8,1.6-1.4,2.5-2.1h5c-1.2,0.8-2.2,1.6-3.1,2.4c-0.9,0.7-1.6,1.5-2.4,2.3c-0.7,0.7-1.2,1.6-1.7,2.4
		c-0.4,0.9-0.8,1.8-1,2.8l0.2,0.1c0.2-0.4,0.4-0.7,0.7-1.1c0.3-0.4,0.6-0.7,0.9-0.9c0.4-0.3,0.8-0.5,1.2-0.6
		c0.5-0.2,1.1-0.2,1.6-0.2c0.8,0,1.5,0.1,2.3,0.4c0.7,0.3,1.3,0.7,1.8,1.2c0.5,0.6,0.9,1.2,1.2,1.9c0.3,0.8,0.4,1.6,0.4,2.5
		c0,0.9-0.2,1.9-0.5,2.7c-0.3,0.8-0.8,1.5-1.4,2.1c-0.6,0.6-1.4,1.1-2.2,1.4C1186.1,5093.2,1185.1,5093.4,1184.1,5093.3
		L1184.1,5093.3z M1184.1,5090.4c0.9,0.1,1.8-0.3,2.4-0.9c0.6-0.7,0.9-1.5,0.9-2.4v-0.4c0.1-0.9-0.3-1.8-0.9-2.5
		c-1.4-1.1-3.4-1.1-4.9,0c-0.6,0.7-0.9,1.5-0.9,2.5v0.4c-0.1,0.9,0.3,1.8,0.9,2.4C1182.3,5090.2,1183.2,5090.5,1184.1,5090.4
		L1184.1,5090.4z M1200.9,5093.3c-1,0-2-0.2-3-0.5c-0.8-0.3-1.6-0.9-2.2-1.5c-0.6-0.7-1.1-1.5-1.4-2.4c-0.3-1-0.5-2.1-0.5-3.2
		c0-1.3,0.2-2.7,0.6-4c0.4-1.2,1-2.4,1.6-3.4c0.6-1,1.4-1.9,2.3-2.8c0.8-0.8,1.6-1.4,2.5-2.1h5c-1.2,0.8-2.2,1.6-3.1,2.4
		c-0.9,0.7-1.6,1.5-2.4,2.3c-0.7,0.7-1.2,1.6-1.7,2.4c-0.4,0.9-0.8,1.8-1,2.8l0.2,0.1c0.2-0.4,0.4-0.7,0.7-1.1
		c0.3-0.4,0.6-0.7,0.9-0.9c0.4-0.3,0.8-0.5,1.2-0.6c0.5-0.2,1.1-0.2,1.6-0.2c0.8,0,1.5,0.1,2.3,0.4c0.7,0.3,1.3,0.7,1.8,1.2
		c0.5,0.6,0.9,1.2,1.2,1.9c0.3,0.8,0.4,1.6,0.4,2.5c0,0.9-0.2,1.9-0.5,2.7c-0.3,0.8-0.8,1.5-1.4,2.1c-0.6,0.6-1.4,1.1-2.2,1.4
		C1202.9,5093.2,1201.9,5093.4,1200.9,5093.3L1200.9,5093.3z M1200.9,5090.4c0.9,0.1,1.8-0.3,2.4-0.9c0.6-0.7,0.9-1.5,0.9-2.4v-0.4
		c0.1-0.9-0.3-1.8-0.9-2.5c-1.4-1.1-3.4-1.1-4.9,0c-0.6,0.7-0.9,1.5-0.9,2.5v0.4c-0.1,0.9,0.3,1.8,0.9,2.4
		C1199.1,5090.2,1200,5090.5,1200.9,5090.4L1200.9,5090.4z M1213.9,5093l6.8-16.5h-6.7v3.6h-3.1v-6.6h13.6v3.2l-6.6,16.4H1213.9z" />
        <path id="Path_1106" class="st2" d="M1118.4,5177c-1,0.1-2-0.2-2.7-0.9c-0.6-0.7-0.9-1.7-0.9-2.6v-11.9h3.6v12.6h2v2.9H1118.4z
		 M1129.9,5177.3c-1,0-1.9-0.1-2.8-0.4c-0.8-0.3-1.5-0.7-2.1-1.2c-0.6-0.5-1-1.2-1.3-2c-0.3-0.8-0.5-1.7-0.5-2.6v-9.6h3.6v9.4
		c-0.1,0.9,0.2,1.9,0.8,2.6c1.3,1.2,3.4,1.2,4.7,0c0.6-0.7,0.9-1.7,0.8-2.6v-9.4h3.6v9.6c0,0.9-0.1,1.8-0.5,2.6
		c-0.3,0.7-0.8,1.4-1.3,2c-0.6,0.6-1.3,1-2.1,1.2C1131.8,5177.2,1130.9,5177.3,1129.9,5177.3z M1124.2,5156.3h9.2v-2.3h3.3v5h-12.5
		V5156.3z M1131.3,5150.5h1.8v-0.9c0-0.3-0.1-0.5-0.2-0.7c-0.2-0.2-0.5-0.3-0.8-0.2h-0.7v-2.1h1.9c0.7,0,1.3,0.1,1.8,0.5
		c0.4,0.3,0.7,0.9,0.6,1.4c0,0.4-0.1,0.8-0.3,1.1c-0.2,0.4-0.5,0.6-0.9,0.8v0.2h4.4v2.1h-7.5V5150.5z M1146.4,5177.3
		c-1.6,0.1-3.3-0.3-4.6-1.2c-1.1-0.8-1.7-2-1.7-3.4c0-0.8,0.3-1.7,0.8-2.3c0.5-0.6,1.3-1.1,2.1-1.3v-0.2c-1.8-0.3-3-1.9-3-3.8
		c0-0.6,0.1-1.1,0.3-1.6c0.2-0.5,0.5-0.9,0.9-1.3c0.4-0.4,0.9-0.6,1.4-0.8c0.6-0.2,1.2-0.3,1.8-0.3c0.5,0,0.9,0,1.4,0.1
		c0.5,0.1,0.9,0.2,1.4,0.5l-0.8,2.6c-0.2-0.1-0.4-0.2-0.7-0.3c-0.2,0-0.5-0.1-0.7-0.1c-0.5,0-1,0.1-1.3,0.5
		c-0.4,0.3-0.6,0.8-0.5,1.3c0,0.5,0.2,1,0.5,1.3c0.5,0.4,1.1,0.6,1.7,0.5h1.5v2.4h-1.5c-0.5,0-0.9,0.2-1.2,0.5
		c-0.3,0.3-0.5,0.8-0.5,1.3v0.6c0,0.6,0.2,1.2,0.7,1.6c0.6,0.4,1.4,0.6,2.1,0.5c0.9,0.1,1.8-0.2,2.5-0.8c0.6-0.7,1-1.6,0.9-2.5v-9.6
		h3.6v10.1c0,0.8-0.2,1.6-0.5,2.4c-0.3,0.7-0.8,1.3-1.4,1.8c-0.7,0.5-1.4,0.9-2.2,1.1C1148.4,5177.2,1147.4,5177.4,1146.4,5177.3
		L1146.4,5177.3z M1163.2,5177.3c-1.6,0.1-3.3-0.3-4.6-1.2c-1.1-0.8-1.7-2-1.7-3.4c0-0.8,0.3-1.7,0.8-2.3c0.5-0.6,1.3-1.1,2.1-1.3
		v-0.2c-1.8-0.3-3-1.9-3-3.8c0-0.6,0.1-1.1,0.3-1.6c0.2-0.5,0.5-0.9,0.9-1.3c0.4-0.4,0.9-0.6,1.4-0.8c0.6-0.2,1.2-0.3,1.8-0.3
		c0.5,0,0.9,0,1.4,0.1c0.5,0.1,0.9,0.2,1.4,0.5l-0.8,2.6c-0.2-0.1-0.4-0.2-0.7-0.3c-0.2,0-0.5-0.1-0.7-0.1c-0.5,0-1,0.1-1.3,0.5
		c-0.4,0.3-0.6,0.8-0.5,1.3c0,0.5,0.2,1,0.5,1.3c0.5,0.4,1.1,0.6,1.7,0.5h1.5v2.4h-1.5c-0.5,0-0.9,0.2-1.2,0.5
		c-0.3,0.3-0.5,0.8-0.5,1.3v0.6c0,0.6,0.2,1.2,0.7,1.6c0.6,0.4,1.4,0.6,2.1,0.5c0.9,0.1,1.8-0.3,2.5-0.9c0.6-0.7,1-1.6,0.9-2.5v-9.6
		h3.6v10.1c0,0.8-0.2,1.6-0.5,2.4c-0.3,0.7-0.8,1.3-1.4,1.8c-0.7,0.5-1.4,0.9-2.2,1.1C1165.2,5177.2,1164.2,5177.4,1163.2,5177.3
		L1163.2,5177.3z M1166.9,5159c-0.9,0.1-1.7-0.2-2.4-0.8c-0.6-0.6-0.9-1.4-0.8-2.2v-2.1h3v2.3h7.4v2.7L1166.9,5159z M1172.7,5165.9
		h3.6l3.6,8.2h0.1c0.7,0,1.5-0.3,1.9-1c0.5-0.8,0.7-1.7,0.7-2.7v-2.5c0.1-0.9-0.2-1.9-0.7-2.7c-0.4-0.6-1.1-1-1.9-1h-1.1v-2.9h1.1
		c1.8-0.1,3.5,0.7,4.6,2c1.2,1.7,1.8,3.7,1.7,5.7c0.1,2-0.5,4-1.7,5.7c-1.1,1.4-2.8,2.1-4.6,2h-2.4L1172.7,5165.9z M1195.5,5177.3
		c-0.9,0-1.8-0.1-2.6-0.3c-0.7-0.2-1.4-0.5-2-1c-0.6-0.5-1-1.1-1.3-1.7c-0.3-0.8-0.5-1.6-0.5-2.5c0-0.5,0-0.9,0.1-1.4
		c0.1-0.4,0.2-0.7,0.3-1.1c0.1-0.3,0.3-0.6,0.4-0.9c0.2-0.3,0.3-0.5,0.5-0.8c0.3-0.4,0.5-0.9,0.8-1.4c0.2-0.5,0.4-0.9,0.4-1.5v-0.4
		h-2.7v-3h3.2c0.8-0.1,1.6,0.2,2.2,0.7c0.5,0.5,0.8,1.1,0.8,1.8v0.1c0,0.6-0.1,1.2-0.3,1.7c-0.2,0.7-0.5,1.3-0.9,1.9
		c-0.3,0.5-0.5,1-0.7,1.6c-0.2,0.5-0.3,1.1-0.3,1.7v0.8c-0.1,0.7,0.2,1.4,0.7,1.9c1.1,0.8,2.7,0.8,3.8,0c0.5-0.5,0.7-1.1,0.7-1.8
		v-2.2c0-0.6-0.1-1.3-0.4-1.8c-0.3-0.5-0.8-0.7-1.3-0.6h-0.3v-2.7h0.6c0.5,0,0.9-0.1,1.2-0.4c0.4-0.4,0.5-0.9,0.5-1.5v-1.7h3.5v1.4
		c0,0.7-0.2,1.4-0.7,2c-0.6,0.6-1.4,1-2.2,1.1v0.2c1.9,0.6,2.9,2.3,2.9,5.2c0,0.9-0.1,1.8-0.4,2.7c-0.5,1.5-1.7,2.7-3.2,3.3
		C1197.3,5177.2,1196.4,5177.3,1195.5,5177.3L1195.5,5177.3z M1189.3,5156.3h9.2v-2.3h3.3v5h-12.5V5156.3z M1204.9,5161.5h3.3
		l0.8,7.8l0.2,3.5h0.2l0.8-3.5l2.1-7.8h2.5l2.1,7.8l0.8,3.5h0.2l0.2-3.5l0.8-7.8h3.3l-2.1,15.5h-3.9l-2.2-8.9l-0.6-2.8h-0.1
		l-0.6,2.8l-2.2,8.9h-3.8L1204.9,5161.5z M1182.1,5213.3c-1,0-2-0.2-3-0.5c-0.8-0.3-1.6-0.9-2.2-1.5c-0.6-0.7-1.1-1.5-1.4-2.4
		c-0.3-1-0.5-2.1-0.5-3.2c0-1.3,0.2-2.7,0.6-4c0.4-1.2,1-2.4,1.6-3.4c0.6-1,1.4-1.9,2.3-2.8c0.8-0.8,1.6-1.4,2.5-2.1h5
		c-1.2,0.8-2.2,1.6-3.1,2.4c-0.9,0.7-1.6,1.5-2.4,2.3c-0.7,0.7-1.2,1.6-1.7,2.4c-0.4,0.9-0.8,1.8-1,2.8l0.2,0.1
		c0.2-0.4,0.4-0.7,0.7-1.1c0.3-0.4,0.6-0.7,0.9-0.9c0.4-0.3,0.8-0.5,1.2-0.6c0.5-0.2,1.1-0.2,1.6-0.2c0.8,0,1.5,0.1,2.3,0.4
		c0.7,0.3,1.3,0.7,1.8,1.2c0.5,0.6,0.9,1.2,1.2,1.9c0.3,0.8,0.4,1.6,0.4,2.5c0,0.9-0.2,1.9-0.5,2.7c-0.3,0.8-0.8,1.5-1.4,2.1
		c-0.6,0.6-1.4,1.1-2.2,1.4C1184.1,5213.2,1183.1,5213.4,1182.1,5213.3L1182.1,5213.3z M1182.1,5210.4c0.9,0.1,1.8-0.3,2.4-0.9
		c0.6-0.7,0.9-1.5,0.9-2.4v-0.4c0.1-0.9-0.3-1.8-0.9-2.5c-1.4-1.1-3.4-1.1-4.9,0c-0.6,0.7-0.9,1.5-0.9,2.5v0.4
		c-0.1,0.9,0.3,1.8,0.9,2.4C1180.3,5210.2,1181.2,5210.5,1182.1,5210.4L1182.1,5210.4z M1198.8,5213.3c-1.1,0-2.2-0.2-3.2-0.7
		c-0.9-0.5-1.7-1.1-2.3-2c-0.6-1-1.1-2-1.3-3.2c-0.6-2.8-0.6-5.7,0-8.6c0.2-1.1,0.7-2.2,1.3-3.2c0.6-0.8,1.4-1.5,2.3-2
		c1-0.5,2.1-0.7,3.2-0.7c2.2-0.2,4.3,0.9,5.5,2.7c1.3,2.3,1.9,4.8,1.8,7.4c0.1,2.6-0.5,5.2-1.8,7.4
		C1203.1,5212.5,1201,5213.5,1198.8,5213.3z M1198.8,5210.2c1.1,0.1,2.1-0.5,2.6-1.4c0.5-1.2,0.8-2.5,0.7-3.8v-3.5
		c0.1-1.3-0.2-2.6-0.7-3.8c-0.9-1.4-2.9-1.8-4.3-0.9c-0.4,0.2-0.7,0.5-0.9,0.9c-0.5,1.2-0.8,2.5-0.7,3.8v3.5
		c-0.1,1.3,0.2,2.6,0.7,3.8C1196.7,5209.8,1197.7,5210.3,1198.8,5210.2z M1215.6,5213.3c-1.1,0-2.2-0.2-3.2-0.7
		c-0.9-0.5-1.7-1.1-2.3-2c-0.6-1-1.1-2-1.3-3.2c-0.6-2.8-0.6-5.7,0-8.6c0.2-1.1,0.7-2.2,1.3-3.2c0.6-0.8,1.4-1.5,2.3-2
		c1-0.5,2.1-0.7,3.2-0.7c2.2-0.2,4.3,0.9,5.5,2.7c1.3,2.3,1.9,4.8,1.8,7.4c0.1,2.6-0.5,5.2-1.8,7.4
		C1219.9,5212.5,1217.8,5213.5,1215.6,5213.3z M1215.6,5210.2c1.1,0.1,2.1-0.5,2.6-1.4c0.5-1.2,0.8-2.5,0.7-3.8v-3.5
		c0.1-1.3-0.2-2.6-0.7-3.8c-0.9-1.4-2.9-1.8-4.3-0.9c-0.4,0.2-0.7,0.5-0.9,0.9c-0.5,1.2-0.8,2.5-0.7,3.8v3.5
		c-0.1,1.3,0.2,2.6,0.7,3.8C1213.5,5209.8,1214.5,5210.3,1215.6,5210.2z" />
        <line id="Line_204" class="st3" x1="696" y1="4970" x2="841" y2="4970" />
        <line id="Line_239" class="st3" x1="1079" y1="5108" x2="1224" y2="5108" />
        <g id="Group_2216">
            <g id="Group_2213">
                <g id="Path_828" transform="translate(841 4968.675)">
                    <path class="st4" d="M94,276.3H2V2h92V276.3z" />
                    <path class="st4" d="M4,4v270.3h88V4H4 M0,0h96v278.3H0V0z" />
                </g>
                <g id="Group_2212">
                    <line id="Line_90" class="st5" x1="889.7" y1="4929.9" x2="889.7" y2="4968.7" />
                    <g id="Group_2211">
                        <g id="Ellipse_526" transform="translate(834.5 4820.16)">
                            <ellipse class="st0" cx="54.5" cy="55" rx="54.5" ry="55" />
                            <ellipse class="st5" cx="54.5" cy="55" rx="53" ry="53.5" />
                        </g>
                        <g id="Group_1645" transform="translate(-82.057 27.583)">
                            <path id="Path_829" class="st4" d="M956.4,4830.6c2.9,0,5.3-2.4,5.3-5.3s-2.4-5.3-5.3-5.3s-5.3,2.4-5.3,5.3l0,0
							C951.1,4828.3,953.5,4830.6,956.4,4830.6z M944.6,4850.4H955l1.4-6.6c3.4,4,7,6.6,12.8,6.6v-5.3c-5,0-7.5-2.6-9.6-6.3
							l-2.6-4.2c-1.5-2.4-4.4-3.3-7-2.2c-2.2,1-2.4,2.7-2.9,5.4L944.6,4850.4" />
                            <path id="Subtraction_9_-_Outline" class="st4" d="M955.1,4850.8h-11l2.2-11.3c0-0.2,0.1-0.4,0.1-0.6c0.5-2.6,1.1-5.9,3.4-6.9
							l0,0c0.7-0.3,1.5-0.5,2.3-0.5c2.1,0,4,1.1,5.1,2.8l2.6,4.2c0.9,1.7,2.1,3.2,3.6,4.5c1.7,1.2,3.7,1.8,5.7,1.7h0.3v5.9h-0.3
							c-2.6,0.1-5.2-0.6-7.4-1.9c-1.9-1.2-3.7-2.6-5.1-4.3l-1.2,6.3H955.1z M944.9,4850.1h10l1.3-7.1l0.5,0.5
							c1.5,1.9,3.3,3.5,5.4,4.7c2.1,1.2,4.4,1.8,6.8,1.8v-4.6c-2.1,0-4.1-0.6-5.8-1.8c-1.6-1.3-2.9-2.9-3.8-4.6l-2.6-4.2
							c-1-1.6-2.7-2.5-4.5-2.5c-0.7,0-1.4,0.1-2.1,0.4c-1.9,0.8-2.5,3.9-3,6.4c0,0.2-0.1,0.4-0.1,0.6L944.9,4850.1z M956.4,4831
							c-3.1,0-5.6-2.5-5.6-5.6c0-1.5,0.6-2.9,1.6-4c2.2-2.2,5.7-2.2,7.9,0c2.2,2.2,2.2,5.7,0,7.9c0,0,0,0,0,0
							C959.3,4830.4,957.9,4831,956.4,4831L956.4,4831z M956.4,4820.4c-2.7,0-4.9,2.2-4.9,4.9c0,1.3,0.5,2.6,1.5,3.5
							c1.9,1.9,5.1,1.9,7,0c1.9-1.9,1.9-5.1,0-7c0,0,0,0,0,0C959,4820.9,957.7,4820.4,956.4,4820.4L956.4,4820.4z" />
                            <circle id="Ellipse_1413" class="st4" cx="989.8" cy="4830.7" r="5.3" />
                            <path id="Path_830" class="st4" d="M989.2,4863.7c2.9,0,5.3-2.4,5.3-5.3l0.1-14.3c0-2.9-2.4-5.3-5.3-5.3
							c-0.7,0-1.5,0.2-2.2,0.5h0c0,0,0,0-0.1,0c-1.3,0.8-2.2,2.2-2.5,3.7l0,7.9l0,12.8" />
                            <rect id="Rectangle_1034" x="941.1" y="4853.8" class="st4" width="39.9" height="9.9" />
                            <path id="Path_831" class="st4" d="M1001,4880.4h-3.3v-49.9h3.3V4880.4z" />
                            <path id="Path_832" class="st4" d="M973.6,4850.3c-0.3,0-0.7,0-1,0l0.2-5c9.2,0.3,12.8-4.7,12.8-4.8l4.2,2.8
							C989.6,4843.6,985,4850.3,973.6,4850.3z" />
                            <path id="Path_833" class="st4" d="M944.4,4880.4h-3.3v-10c0-1.8,1.5-3.3,3.3-3.3h55v3.3h-55V4880.4z" />
                        </g>
                    </g>
                </g>
            </g>
            <g id="Group_2215">
                <g id="Rectangle_1033" transform="translate(983 5108)">
                    <rect y="0" class="st6" width="96" height="139" />
                    <rect x="2" y="2" class="st7" width="92" height="135" />
                </g>
                <g id="Group_2214">
                    <g id="Ellipse_1418" transform="translate(976.5 4959.484)">
                        <ellipse class="st0" cx="54.5" cy="55" rx="54.5" ry="55" />
                        <ellipse class="st8" cx="54.5" cy="55" rx="53" ry="53.5" />
                    </g>
                    <line id="Line_238" class="st8" x1="1031.7" y1="5069.3" x2="1031.7" y2="5108" />
                    <g id="Group_891" transform="translate(1010.933 4978.753)">
                        <g id="Group_890">
                            <path id="Path_465" class="st6" d="M40.6,32.5c-4.9,0-9.4-2.8-11.6-7.2l-2.6-5.4l0,0c-1.1-2.2-3.3-3.6-5.8-3.6l0,0
							C8.8,16.2,0,50.9,0,58.4h8.1l-6.8,9.1l5.2,3.9l9.7-13h6.5v13h6.5V58.3l-6.5-19.4l1.6-8.8c2.7,4,6.7,7,11.4,8.2v2.2h3.2v-3.2
							c0-0.9,0.7-1.6,1.6-1.7c0.9,0,1.6,0.7,1.7,1.6c0,0,0,0.1,0,0.1v34.1h3.2V37.3C45.4,34.6,43.3,32.5,40.6,32.5
							C40.6,32.5,40.6,32.5,40.6,32.5z" />
                            <path id="Path_466" class="st6" d="M18.2,6.2c-0.2,0.6-0.3,1.3-0.3,1.9c0,3.6,2.9,6.5,6.5,6.5c3.6,0,6.5-2.9,6.5-6.5
							s-2.9-6.5-6.5-6.5c0,0,0,0,0,0c-0.7,0-1.3,0.1-1.9,0.3c-0.5-1.2-1.7-1.9-3-1.9c-1.8,0-3.2,1.5-3.2,3.2
							C16.2,4.5,17,5.7,18.2,6.2z" />
                        </g>
                    </g>
                </g>
            </g>
            <line id="Line_202" class="st9" x1="696" y1="5246" x2="1224" y2="5246" />
        </g>
        <path id="Path_875" class="st10" d="M696,5228h528" />
    </g>
</svg>
