<svg xmlns="http://www.w3.org/2000/svg" width="529.048" height="428.34" viewBox="0 0 529.048 428.34">
    <g data-name="Group 2217">
        <path data-name="Path 1104" d="M8.344 31.336a6.585 6.585 0 0 1-5.208-2.058q-1.82-2.058-1.82-6.062a11.938 11.938 0 0 1 1.2-5.95 3.946 3.946 0 0 1 3.64-2.058 3.369 3.369 0 0 1 2.156.686 3.056 3.056 0 0 1 1.096 1.946h.168a2.923 2.923 0 0 1 1.176-1.946 3.918 3.918 0 0 1 2.352-.686 3.487 3.487 0 0 1 2.758 1.162 4.689 4.689 0 0 1 1.022 3.206V31H13.3V20a2.161 2.161 0 0 0-.35-1.344 1.158 1.158 0 0 0-.966-.448 1.13 1.13 0 0 0-1.078.588 4.559 4.559 0 0 0-.462 1.484H8.288a5.017 5.017 0 0 0-.392-1.47A1.086 1.086 0 0 0 6.8 18.2a1.343 1.343 0 0 0-1.33.924A7.012 7.012 0 0 0 5.1 21.7v2.828a6.086 6.086 0 0 0 .2 1.61 3.114 3.114 0 0 0 .644 1.232 2.892 2.892 0 0 0 1.176.8 5.017 5.017 0 0 0 1.792.28 5.152 5.152 0 0 0 1.064-.112l.42 2.8a4.912 4.912 0 0 1-.98.154q-.596.044-1.072.044zM4.4 10.28h12.484V13H4.4zm22.48 21.056a7.061 7.061 0 0 1-2.87-.56 5.793 5.793 0 0 1-2.142-1.6 7.193 7.193 0 0 1-1.33-2.534 11.432 11.432 0 0 1-.462-3.374 10.067 10.067 0 0 1 .518-3.332 7.187 7.187 0 0 1 1.484-2.534 6.558 6.558 0 0 1 2.352-1.624 8.015 8.015 0 0 1 3.094-.574 8.833 8.833 0 0 1 2.94.462 6.352 6.352 0 0 1 2.24 1.316 5.8 5.8 0 0 1 1.428 2.072 7.079 7.079 0 0 1 .5 2.73V31h-3.58v-8.988a4.142 4.142 0 0 0-.938-2.884 3.352 3.352 0 0 0-2.614-1.036 3.4 3.4 0 0 0-2.7 1.106 4.462 4.462 0 0 0-.966 3.038v2.044q0 4.172 3.5 4.172.308 0 .546-.014a3.1 3.1 0 0 0 .49-.07l.42 2.8a5.205 5.205 0 0 1-.994.14q-.552.028-.916.028zM42.728 31a3.568 3.568 0 0 1-2.716-.924 3.657 3.657 0 0 1-.868-2.6V15.544h3.584v12.6h2.044V31zm11.2.336a6.585 6.585 0 0 1-5.208-2.058q-1.82-2.058-1.82-6.062a11.938 11.938 0 0 1 1.2-5.95 3.946 3.946 0 0 1 3.64-2.058 3.369 3.369 0 0 1 2.156.686 3.056 3.056 0 0 1 1.092 1.946h.168a2.923 2.923 0 0 1 1.176-1.946 3.918 3.918 0 0 1 2.352-.686 3.487 3.487 0 0 1 2.758 1.162 4.689 4.689 0 0 1 1.022 3.206V31h-3.58V20a2.161 2.161 0 0 0-.35-1.344 1.158 1.158 0 0 0-.966-.448 1.13 1.13 0 0 0-1.078.588 4.559 4.559 0 0 0-.462 1.484h-2.156a5.017 5.017 0 0 0-.392-1.47 1.086 1.086 0 0 0-1.092-.6 1.343 1.343 0 0 0-1.33.924 7.012 7.012 0 0 0-.378 2.566v2.828a6.087 6.087 0 0 0 .2 1.61 3.114 3.114 0 0 0 .644 1.232 2.892 2.892 0 0 0 1.176.8 5.017 5.017 0 0 0 1.792.28 5.152 5.152 0 0 0 1.064-.112l.42 2.8a4.912 4.912 0 0 1-.98.154q-.596.044-1.068.044zM49.98 10.28h9.212V7.956h3.276V13H49.98zm22.2 21.056a7.928 7.928 0 0 1-4.648-1.19 3.891 3.891 0 0 1-1.68-3.374 3.456 3.456 0 0 1 .8-2.3 4.1 4.1 0 0 1 2.058-1.316v-.168a3.666 3.666 0 0 1-2.968-3.752 4.071 4.071 0 0 1 .322-1.638 3.751 3.751 0 0 1 .9-1.274 4.005 4.005 0 0 1 1.4-.826 5.439 5.439 0 0 1 1.834-.294 8.555 8.555 0 0 1 1.4.126 4.328 4.328 0 0 1 1.372.462l-.756 2.6a2.65 2.65 0 0 0-.686-.266 3.224 3.224 0 0 0-.686-.07 1.976 1.976 0 0 0-1.344.462 1.6 1.6 0 0 0-.532 1.274 1.838 1.838 0 0 0 .476 1.316 2.352 2.352 0 0 0 1.736.5h1.512v2.408h-1.514a1.727 1.727 0 0 0-1.232.476 1.687 1.687 0 0 0-.5 1.288v.56a1.8 1.8 0 0 0 .742 1.582 3.665 3.665 0 0 0 2.114.518 3.517 3.517 0 0 0 2.5-.84 3.235 3.235 0 0 0 .91-2.478v-9.578h3.59V25.6a5.491 5.491 0 0 1-.5 2.38 5.075 5.075 0 0 1-1.428 1.806 6.68 6.68 0 0 1-2.24 1.148 9.951 9.951 0 0 1-2.948.402zm9.52-11.424h3.56l3.584 8.232h.112a2.167 2.167 0 0 0 1.876-.952 4.557 4.557 0 0 0 .672-2.66V22.04a4.557 4.557 0 0 0-.672-2.66 2.167 2.167 0 0 0-1.876-.952h-1.092v-2.884h1.12a5.624 5.624 0 0 1 4.62 2.03 8.8 8.8 0 0 1 1.652 5.7 8.8 8.8 0 0 1-1.652 5.7A5.624 5.624 0 0 1 88.984 31h-2.436zM2.548 67v-3h5.376V50.116h-.252l-4.256 5.04-2.3-1.932 4.844-5.768h5.572V64h4.48v3zm29.68-12.208a12.28 12.28 0 0 1-.63 3.962 15.2 15.2 0 0 1-1.638 3.416 16.137 16.137 0 0 1-2.254 2.772A18.414 18.414 0 0 1 25.228 67h-4.984q1.708-1.232 3.08-2.38a21.1 21.1 0 0 0 2.394-2.32 12.447 12.447 0 0 0 1.68-2.45 11.53 11.53 0 0 0 .994-2.758l-.224-.056a8.272 8.272 0 0 1-.658 1.092 4.07 4.07 0 0 1-.91.924 4.505 4.505 0 0 1-1.232.63 5.044 5.044 0 0 1-1.624.238 5.981 5.981 0 0 1-2.268-.42 5.192 5.192 0 0 1-1.806-1.218 5.711 5.711 0 0 1-1.2-1.9 6.817 6.817 0 0 1-.434-2.506 7.108 7.108 0 0 1 .5-2.716 6.193 6.193 0 0 1 1.428-2.128 6.55 6.55 0 0 1 2.226-1.4 8.052 8.052 0 0 1 2.926-.5 7.759 7.759 0 0 1 3 .546 6.322 6.322 0 0 1 2.24 1.54 6.553 6.553 0 0 1 1.4 2.408 9.927 9.927 0 0 1 .472 3.166zm-7.112 2.268a3.325 3.325 0 0 0 2.436-.854 3.284 3.284 0 0 0 .868-2.45v-.42a3.284 3.284 0 0 0-.868-2.45 3.325 3.325 0 0 0-2.436-.854 3.335 3.335 0 0 0-2.422.854 3.254 3.254 0 0 0-.882 2.45v.42a3.254 3.254 0 0 0 .882 2.45 3.335 3.335 0 0 0 2.422.854zm12.712 5.628a2.208 2.208 0 0 1 1.694.588 2.1 2.1 0 0 1 .546 1.484v.5a6.255 6.255 0 0 1-.21 1.568 7.946 7.946 0 0 1-.588 1.572 8.726 8.726 0 0 1-.9 1.428A6.6 6.6 0 0 1 37.212 71h-2.548a14.3 14.3 0 0 0 1.6-1.806 6.694 6.694 0 0 0 .98-1.946 1.825 1.825 0 0 1-1.26-.686 2.173 2.173 0 0 1-.392-1.3v-.5a2.128 2.128 0 0 1 .532-1.484 2.2 2.2 0 0 1 1.704-.59zM44.52 67v-3h5.38V50.116h-.252l-4.256 5.04-2.3-1.932 4.844-5.768h5.572V64h4.48v3zm29.54 0H60.508v-3.416l6.132-5.376a12.993 12.993 0 0 0 2.3-2.478 4.271 4.271 0 0 0 .728-2.394v-.364A2.4 2.4 0 0 0 68.824 51a3.127 3.127 0 0 0-2.044-.686 2.962 2.962 0 0 0-2.3.854 4.963 4.963 0 0 0-1.12 2.058l-3.192-1.232a7.855 7.855 0 0 1 .868-1.862 6.2 6.2 0 0 1 1.414-1.554 6.714 6.714 0 0 1 2-1.064 8.96 8.96 0 0 1 5.376.042 5.722 5.722 0 0 1 2.03 1.218 5.254 5.254 0 0 1 1.26 1.848 6.515 6.515 0 0 1 .042 4.564A8.262 8.262 0 0 1 72.1 57.1a12.318 12.318 0 0 1-1.568 1.736q-.9.826-1.9 1.666l-4.116 3.388h9.544zM91 54.792a12.28 12.28 0 0 1-.63 3.962 15.194 15.194 0 0 1-1.638 3.416 16.137 16.137 0 0 1-2.254 2.772A18.414 18.414 0 0 1 84 67h-4.984q1.708-1.232 3.08-2.38a21.1 21.1 0 0 0 2.394-2.32 12.447 12.447 0 0 0 1.68-2.45 11.53 11.53 0 0 0 .994-2.758l-.224-.056a8.272 8.272 0 0 1-.658 1.092 4.07 4.07 0 0 1-.91.924 4.505 4.505 0 0 1-1.232.63 5.044 5.044 0 0 1-1.624.238 5.981 5.981 0 0 1-2.268-.42 5.192 5.192 0 0 1-1.806-1.218 5.711 5.711 0 0 1-1.2-1.9 6.817 6.817 0 0 1-.434-2.506 7.108 7.108 0 0 1 .5-2.716 6.193 6.193 0 0 1 1.428-2.128 6.55 6.55 0 0 1 2.226-1.4 8.052 8.052 0 0 1 2.926-.5 7.759 7.759 0 0 1 3 .546 6.322 6.322 0 0 1 2.24 1.54 6.554 6.554 0 0 1 1.4 2.408A9.927 9.927 0 0 1 91 54.792zm-7.112 2.268a3.325 3.325 0 0 0 2.436-.854 3.284 3.284 0 0 0 .868-2.45v-.42a3.284 3.284 0 0 0-.868-2.45 3.881 3.881 0 0 0-4.858 0 3.254 3.254 0 0 0-.882 2.45v.42a3.254 3.254 0 0 0 .882 2.45 3.335 3.335 0 0 0 2.422.854z" transform="translate(0 67.84)" style="fill:#fff"/>
        <path data-name="Path 1105" d="M105.748 31.336a6.585 6.585 0 0 1-5.208-2.058q-1.82-2.058-1.82-6.062a11.938 11.938 0 0 1 1.2-5.95 3.946 3.946 0 0 1 3.64-2.058 3.369 3.369 0 0 1 2.156.686 3.056 3.056 0 0 1 1.092 1.946h.168a2.923 2.923 0 0 1 1.176-1.946 3.918 3.918 0 0 1 2.352-.686 3.487 3.487 0 0 1 2.758 1.162 4.689 4.689 0 0 1 1.022 3.206V31H110.7V20a2.161 2.161 0 0 0-.35-1.344 1.158 1.158 0 0 0-.966-.448 1.13 1.13 0 0 0-1.078.588 4.559 4.559 0 0 0-.462 1.484h-2.156a5.017 5.017 0 0 0-.392-1.47 1.086 1.086 0 0 0-1.092-.6 1.343 1.343 0 0 0-1.33.924 7.012 7.012 0 0 0-.374 2.566v2.828a6.086 6.086 0 0 0 .2 1.61 3.114 3.114 0 0 0 .644 1.232 2.893 2.893 0 0 0 1.176.8 5.017 5.017 0 0 0 1.792.28 5.152 5.152 0 0 0 1.064-.112l.42 2.8a4.912 4.912 0 0 1-.98.154q-.592.044-1.068.044zM101.8 10.28h12.488V13H101.8zm22.484 21.056a7.061 7.061 0 0 1-2.87-.56 5.793 5.793 0 0 1-2.142-1.6 7.193 7.193 0 0 1-1.33-2.534 11.432 11.432 0 0 1-.462-3.374 10.067 10.067 0 0 1 .52-3.328 7.187 7.187 0 0 1 1.484-2.534 6.558 6.558 0 0 1 2.352-1.624 8.015 8.015 0 0 1 3.094-.574 8.833 8.833 0 0 1 2.94.462 6.352 6.352 0 0 1 2.24 1.316 5.8 5.8 0 0 1 1.428 2.072 7.079 7.079 0 0 1 .5 2.73V31h-3.584v-8.988a4.142 4.142 0 0 0-.938-2.884 3.352 3.352 0 0 0-2.618-1.036 3.4 3.4 0 0 0-2.7 1.106 4.462 4.462 0 0 0-.966 3.038v2.044q0 4.172 3.5 4.172.308 0 .546-.014a3.1 3.1 0 0 0 .49-.07l.42 2.8a5.205 5.205 0 0 1-.994.14q-.546.028-.91.028zm18.34 0a8.649 8.649 0 0 1-2.824-.436 6 6 0 0 1-2.142-1.246 5.331 5.331 0 0 1-1.344-1.96 6.846 6.846 0 0 1-.462-2.576v-9.574h3.584v9.38a3.734 3.734 0 0 0 .84 2.6 3.455 3.455 0 0 0 4.7 0 3.734 3.734 0 0 0 .84-2.6v-9.38h3.584v9.576a6.846 6.846 0 0 1-.462 2.576 5.331 5.331 0 0 1-1.344 1.96 6 6 0 0 1-2.142 1.246 8.649 8.649 0 0 1-2.828.434zm1.316-21.056h1.876V9.3a1.019 1.019 0 0 0-.252-.77 1.358 1.358 0 0 0-.924-.238h-.7v-2.52h2.1a3.17 3.17 0 0 1 2.072.6 1.953 1.953 0 0 1 .728 1.582 2.312 2.312 0 0 1-.378 1.246 2.355 2.355 0 0 1-1.078.91v.168h5.124V12.8h-8.568zm16.1 10.388a2.678 2.678 0 0 0-.63-1.9 2.631 2.631 0 0 0-2-.672 3.372 3.372 0 0 0-2 .532 4.788 4.788 0 0 0-1.246 1.316l-2.128-1.9a6.194 6.194 0 0 1 2.114-2.058 6.885 6.885 0 0 1 3.514-.77 6.465 6.465 0 0 1 4.452 1.358 4.978 4.978 0 0 1 1.512 3.906V31h-3.588zm12.376 10.668a4.51 4.51 0 0 1-3.7-1.568 6.889 6.889 0 0 1-1.288-4.48v-9.744h3.584v9.408a4.416 4.416 0 0 0 .63 2.52 2.468 2.468 0 0 0 2.2.924 3.974 3.974 0 0 0 1.148-.168 3.191 3.191 0 0 0 .994-.49 2.608 2.608 0 0 0 .714-.812 2.245 2.245 0 0 0 .28-1.134V15.544h3.584v12.6h1.484V31h-2.24q-2.408 0-2.492-2.744h-.168a4.628 4.628 0 0 1-4.732 3.08zm-49.56 23.456a12.28 12.28 0 0 1-.63 3.962 15.194 15.194 0 0 1-1.638 3.416 16.137 16.137 0 0 1-2.254 2.772A18.414 18.414 0 0 1 115.856 67h-4.984q1.708-1.232 3.08-2.38a21.1 21.1 0 0 0 2.394-2.324 12.447 12.447 0 0 0 1.68-2.45 11.53 11.53 0 0 0 .994-2.758l-.224-.056a8.272 8.272 0 0 1-.658 1.092 4.07 4.07 0 0 1-.91.924 4.505 4.505 0 0 1-1.232.63 5.044 5.044 0 0 1-1.624.238 5.981 5.981 0 0 1-2.268-.42 5.192 5.192 0 0 1-1.806-1.218 5.711 5.711 0 0 1-1.2-1.9 6.817 6.817 0 0 1-.434-2.506 7.108 7.108 0 0 1 .5-2.716 6.193 6.193 0 0 1 1.428-2.128 6.55 6.55 0 0 1 2.226-1.4 8.052 8.052 0 0 1 2.926-.5 7.759 7.759 0 0 1 3 .546 6.322 6.322 0 0 1 2.24 1.54 6.554 6.554 0 0 1 1.4 2.408 9.927 9.927 0 0 1 .472 3.17zm-7.112 2.268a3.325 3.325 0 0 0 2.436-.854 3.284 3.284 0 0 0 .868-2.45v-.42a3.284 3.284 0 0 0-.868-2.45 3.881 3.881 0 0 0-4.858 0 3.254 3.254 0 0 0-.882 2.45v.42a3.254 3.254 0 0 0 .882 2.45 3.335 3.335 0 0 0 2.422.854zm12.712 5.628a2.208 2.208 0 0 1 1.694.588 2.1 2.1 0 0 1 .546 1.484v.5a6.256 6.256 0 0 1-.21 1.568 7.946 7.946 0 0 1-.586 1.572 8.727 8.727 0 0 1-.9 1.428A6.6 6.6 0 0 1 127.84 71h-2.548a14.3 14.3 0 0 0 1.6-1.806 6.694 6.694 0 0 0 .98-1.946 1.825 1.825 0 0 1-1.26-.686 2.173 2.173 0 0 1-.392-1.3v-.5a2.128 2.128 0 0 1 .532-1.484 2.2 2.2 0 0 1 1.704-.59zm12.628 4.648a7.759 7.759 0 0 1-3-.546 6.322 6.322 0 0 1-2.24-1.54 6.554 6.554 0 0 1-1.4-2.408 9.927 9.927 0 0 1-.476-3.178 12.28 12.28 0 0 1 .63-3.962 15.2 15.2 0 0 1 1.638-3.416 16.136 16.136 0 0 1 2.254-2.772 18.414 18.414 0 0 1 2.478-2.058h4.984q-1.736 1.232-3.094 2.38a21.723 21.723 0 0 0-2.38 2.324 12.447 12.447 0 0 0-1.68 2.45 11.531 11.531 0 0 0-.994 2.758l.224.056a7.57 7.57 0 0 1 .658-1.078 4.489 4.489 0 0 1 .91-.924 4.288 4.288 0 0 1 1.232-.644 5.044 5.044 0 0 1 1.624-.238 6.012 6.012 0 0 1 2.254.42 5.162 5.162 0 0 1 1.82 1.218 5.681 5.681 0 0 1 1.2 1.918 6.846 6.846 0 0 1 .434 2.492 7.108 7.108 0 0 1-.5 2.716 6.193 6.193 0 0 1-1.428 2.128 6.55 6.55 0 0 1-2.226 1.4 8.052 8.052 0 0 1-2.922.504zm0-2.912a3.335 3.335 0 0 0 2.422-.854 3.254 3.254 0 0 0 .882-2.45v-.42a3.254 3.254 0 0 0-.882-2.45 3.881 3.881 0 0 0-4.858 0 3.284 3.284 0 0 0-.868 2.45v.42a3.284 3.284 0 0 0 .868 2.45 3.325 3.325 0 0 0 2.436.854zm16.8 2.912a7.759 7.759 0 0 1-3-.546 6.322 6.322 0 0 1-2.24-1.54 6.554 6.554 0 0 1-1.4-2.408 9.927 9.927 0 0 1-.476-3.178 12.28 12.28 0 0 1 .63-3.962 15.2 15.2 0 0 1 1.638-3.416 16.136 16.136 0 0 1 2.254-2.772 18.414 18.414 0 0 1 2.478-2.058h4.984q-1.736 1.232-3.094 2.38a21.723 21.723 0 0 0-2.38 2.324 12.447 12.447 0 0 0-1.68 2.45 11.531 11.531 0 0 0-.994 2.758l.224.056a7.57 7.57 0 0 1 .658-1.078 4.489 4.489 0 0 1 .91-.924 4.288 4.288 0 0 1 1.232-.644 5.044 5.044 0 0 1 1.624-.238 6.012 6.012 0 0 1 2.254.42 5.162 5.162 0 0 1 1.82 1.218 5.681 5.681 0 0 1 1.2 1.918 6.846 6.846 0 0 1 .434 2.492 7.108 7.108 0 0 1-.5 2.716 6.193 6.193 0 0 1-1.428 2.128 6.55 6.55 0 0 1-2.226 1.4 8.052 8.052 0 0 1-2.922.504zm0-2.912a3.335 3.335 0 0 0 2.422-.854 3.254 3.254 0 0 0 .882-2.45v-.42a3.254 3.254 0 0 0-.882-2.45 3.881 3.881 0 0 0-4.858 0 3.284 3.284 0 0 0-.868 2.45v.42a3.284 3.284 0 0 0 .868 2.45 3.325 3.325 0 0 0 2.436.854zM170.932 67l6.8-16.548h-6.748v3.584h-3.136v-6.58H181.4v3.164L174.8 67z" transform="translate(347 205.84)" style="fill:#fff"/>
        <path data-name="Path 1106" d="M77.356 31a3.568 3.568 0 0 1-2.716-.924 3.657 3.657 0 0 1-.868-2.6V15.544h3.584v12.6H79.4V31zm11.536.336a8.649 8.649 0 0 1-2.828-.434 6 6 0 0 1-2.142-1.246 5.331 5.331 0 0 1-1.344-1.96 6.846 6.846 0 0 1-.462-2.576v-9.576H85.7v9.38a3.734 3.734 0 0 0 .84 2.6 3.455 3.455 0 0 0 4.7 0 3.734 3.734 0 0 0 .84-2.6v-9.38h3.584v9.576a6.846 6.846 0 0 1-.462 2.576 5.331 5.331 0 0 1-1.344 1.96A6 6 0 0 1 91.72 30.9a8.649 8.649 0 0 1-2.828.436zM83.18 10.28h9.212V7.956h3.276V13H83.18zm7.14-5.8h1.764v-.948a.92.92 0 0 0-.238-.7 1.2 1.2 0 0 0-.826-.224h-.7v-2.1h1.9a2.826 2.826 0 0 1 1.834.518 1.7 1.7 0 0 1 .63 1.386 2.084 2.084 0 0 1-.318 1.088 2.117 2.117 0 0 1-.882.812v.168h4.368v2.1H90.32zm15.064 26.852a7.928 7.928 0 0 1-4.648-1.19 3.891 3.891 0 0 1-1.68-3.374 3.456 3.456 0 0 1 .8-2.3 4.1 4.1 0 0 1 2.058-1.316v-.168a3.666 3.666 0 0 1-2.968-3.752 4.071 4.071 0 0 1 .322-1.638 3.751 3.751 0 0 1 .9-1.274 4.005 4.005 0 0 1 1.4-.826 5.439 5.439 0 0 1 1.834-.294 8.555 8.555 0 0 1 1.4.126 4.328 4.328 0 0 1 1.372.462l-.756 2.6a2.65 2.65 0 0 0-.686-.266 3.224 3.224 0 0 0-.686-.07 1.976 1.976 0 0 0-1.344.462 1.6 1.6 0 0 0-.532 1.274 1.838 1.838 0 0 0 .476 1.316 2.352 2.352 0 0 0 1.736.5h1.512v2.408h-1.512a1.727 1.727 0 0 0-1.232.476 1.687 1.687 0 0 0-.5 1.288v.56a1.8 1.8 0 0 0 .742 1.582 3.665 3.665 0 0 0 2.114.518A3.517 3.517 0 0 0 108 27.6a3.235 3.235 0 0 0 .91-2.478v-9.578h3.59V25.6a5.491 5.491 0 0 1-.5 2.38 5.075 5.075 0 0 1-1.428 1.806 6.68 6.68 0 0 1-2.24 1.148 9.951 9.951 0 0 1-2.948.402zm16.828 0a7.928 7.928 0 0 1-4.648-1.19 3.891 3.891 0 0 1-1.68-3.374 3.456 3.456 0 0 1 .8-2.3 4.1 4.1 0 0 1 2.058-1.316v-.168a3.666 3.666 0 0 1-2.968-3.752 4.071 4.071 0 0 1 .322-1.638 3.751 3.751 0 0 1 .9-1.274 4.005 4.005 0 0 1 1.4-.826 5.439 5.439 0 0 1 1.834-.294 8.555 8.555 0 0 1 1.4.126 4.328 4.328 0 0 1 1.37.474l-.756 2.6a2.65 2.65 0 0 0-.686-.266 3.224 3.224 0 0 0-.686-.07 1.976 1.976 0 0 0-1.344.462 1.6 1.6 0 0 0-.532 1.274 1.838 1.838 0 0 0 .476 1.316 2.352 2.352 0 0 0 1.736.5h1.512v2.408h-1.52a1.727 1.727 0 0 0-1.232.476 1.687 1.687 0 0 0-.5 1.288v.56a1.8 1.8 0 0 0 .742 1.582 3.665 3.665 0 0 0 2.114.518 3.517 3.517 0 0 0 2.506-.854 3.235 3.235 0 0 0 .91-2.478v-9.572h3.584V25.6a5.491 5.491 0 0 1-.5 2.38 5.075 5.075 0 0 1-1.428 1.806 6.68 6.68 0 0 1-2.24 1.148 9.951 9.951 0 0 1-2.944.402zm3.7-18.34a3.418 3.418 0 0 1-2.408-.756 2.8 2.8 0 0 1-.812-2.156V7.956h2.968v2.324h7.392V13zm5.824 6.916h3.556l3.584 8.232h.112a2.167 2.167 0 0 0 1.876-.952 4.557 4.557 0 0 0 .672-2.66V22.04a4.557 4.557 0 0 0-.672-2.66 2.167 2.167 0 0 0-1.876-.952h-1.092v-2.884h1.12a5.624 5.624 0 0 1 4.62 2.03 8.8 8.8 0 0 1 1.652 5.7 8.8 8.8 0 0 1-1.652 5.7 5.624 5.624 0 0 1-4.62 2.03h-2.436zm22.792 11.424a9.614 9.614 0 0 1-2.622-.332 5.548 5.548 0 0 1-2.03-1.022 4.585 4.585 0 0 1-1.3-1.736 6.039 6.039 0 0 1-.462-2.45 6.814 6.814 0 0 1 .126-1.386 7.1 7.1 0 0 1 .308-1.078 5.352 5.352 0 0 1 .42-.868q.238-.392.49-.756a13.834 13.834 0 0 0 .784-1.372 3.231 3.231 0 0 0 .364-1.456v-.364h-2.688v-2.968h3.164a3.186 3.186 0 0 1 2.184.672 2.279 2.279 0 0 1 .756 1.792v.14a5.368 5.368 0 0 1-.28 1.708 12.557 12.557 0 0 1-.868 1.932 14.89 14.89 0 0 0-.728 1.554 4.633 4.633 0 0 0-.28 1.694v.812a2.441 2.441 0 0 0 .686 1.89 3.171 3.171 0 0 0 3.794 0 2.355 2.355 0 0 0 .672-1.806v-2.24a3.865 3.865 0 0 0-.35-1.82 1.375 1.375 0 0 0-1.33-.644H155V18.54h.56a1.81 1.81 0 0 0 1.246-.434 1.884 1.884 0 0 0 .49-1.47v-1.68h3.5v1.4a3.17 3.17 0 0 1-.658 2.016 3.488 3.488 0 0 1-2.226 1.12v.2q2.856.9 2.856 5.236a7.764 7.764 0 0 1-.434 2.674 5.358 5.358 0 0 1-3.22 3.29 7.148 7.148 0 0 1-2.59.444zm-6.22-21.052h9.212V7.956h3.28V13h-12.492zm15.6 5.264h3.332l.84 7.84.224 3.472h.2l.812-3.472 2.1-7.84h2.52l2.1 7.84.812 3.472h.2l.224-3.472.84-7.84h3.332L179.3 31h-3.86l-2.156-8.932-.616-2.8h-.084l-.616 2.8L169.812 31h-3.78zm-22.82 51.792a7.759 7.759 0 0 1-3-.546 6.322 6.322 0 0 1-2.24-1.54 6.554 6.554 0 0 1-1.4-2.408 9.927 9.927 0 0 1-.476-3.178 12.28 12.28 0 0 1 .63-3.962 15.2 15.2 0 0 1 1.638-3.416 16.136 16.136 0 0 1 2.254-2.772 18.414 18.414 0 0 1 2.478-2.058h4.984q-1.736 1.232-3.094 2.38a21.723 21.723 0 0 0-2.38 2.324 12.447 12.447 0 0 0-1.68 2.45 11.531 11.531 0 0 0-.994 2.758l.224.056a7.57 7.57 0 0 1 .658-1.078 4.489 4.489 0 0 1 .91-.924 4.288 4.288 0 0 1 1.232-.644 5.044 5.044 0 0 1 1.624-.238 6.012 6.012 0 0 1 2.254.42 5.162 5.162 0 0 1 1.82 1.218 5.681 5.681 0 0 1 1.2 1.918 6.846 6.846 0 0 1 .434 2.492 7.108 7.108 0 0 1-.5 2.716 6.193 6.193 0 0 1-1.428 2.128 6.55 6.55 0 0 1-2.226 1.4 8.052 8.052 0 0 1-2.926.504zm0-2.912a3.335 3.335 0 0 0 2.422-.854 3.254 3.254 0 0 0 .882-2.45v-.42a3.254 3.254 0 0 0-.882-2.45 3.881 3.881 0 0 0-4.858 0 3.284 3.284 0 0 0-.868 2.45v.42a3.284 3.284 0 0 0 .868 2.45 3.325 3.325 0 0 0 2.432.854zm16.712 2.912a7.184 7.184 0 0 1-3.248-.686 5.992 5.992 0 0 1-2.268-1.974 9.066 9.066 0 0 1-1.33-3.164 21.291 21.291 0 0 1 0-8.554 9.067 9.067 0 0 1 1.33-3.178 5.992 5.992 0 0 1 2.268-1.974 7.184 7.184 0 0 1 3.248-.686 6.154 6.154 0 0 1 5.5 2.66 13.315 13.315 0 0 1 1.778 7.448 13.315 13.315 0 0 1-1.778 7.448 6.154 6.154 0 0 1-5.5 2.66zm0-3.108a2.7 2.7 0 0 0 2.618-1.414 8.28 8.28 0 0 0 .742-3.822v-3.528a8.28 8.28 0 0 0-.742-3.822 3.131 3.131 0 0 0-5.236 0 8.28 8.28 0 0 0-.742 3.822v3.528a8.28 8.28 0 0 0 .742 3.822 2.7 2.7 0 0 0 2.618 1.414zm16.8 3.108a7.184 7.184 0 0 1-3.248-.686 5.992 5.992 0 0 1-2.268-1.974 9.066 9.066 0 0 1-1.33-3.164 21.291 21.291 0 0 1 0-8.554 9.067 9.067 0 0 1 1.33-3.178 5.992 5.992 0 0 1 2.268-1.974 7.184 7.184 0 0 1 3.248-.686 6.154 6.154 0 0 1 5.5 2.66 13.315 13.315 0 0 1 1.778 7.448 13.315 13.315 0 0 1-1.778 7.448 6.154 6.154 0 0 1-5.5 2.66zm0-3.108a2.7 2.7 0 0 0 2.618-1.414 8.28 8.28 0 0 0 .742-3.822v-3.528a8.28 8.28 0 0 0-.742-3.822 3.131 3.131 0 0 0-5.236 0 8.28 8.28 0 0 0-.742 3.822v3.528a8.28 8.28 0 0 0 .742 3.822 2.7 2.7 0 0 0 2.618 1.414z" transform="translate(345 325.84)" style="fill:#f04e30"/>
        <path data-name="Line 204" transform="translate(0 149.84)" style="stroke-dasharray:5 5;stroke-width:2px;stroke:#fff;fill:none" d="M0 0h145"/>
        <path data-name="Line 239" transform="translate(383 287.84)" style="stroke-dasharray:5 5;stroke-width:2px;stroke:#fff;fill:none" d="M0 0h145"/>
        <g data-name="Group 2216">
            <path data-name="Line 202" transform="translate(0 425.84)" style="stroke-width:5px;stroke:#fff;fill:none" d="M0 0h528"/>
            <g data-name="Group 2213">
                <g data-name="Path 828" style="fill:#6badcb">
                    <path d="M94 276.325H2V2h92v274.325z" style="stroke:none" transform="translate(145 148.515)"/>
                    <path d="M4 4v270.325h88V4H4M0 0h96v278.325H0V0z" style="fill:#6badcb;stroke:none" transform="translate(145 148.515)"/>
                </g>
                <g data-name="Group 2212">
                    <path data-name="Line 90" transform="translate(193.65 109.784)" style="stroke-width:3px;stroke-dasharray:5 0;stroke:#6badcb;fill:none" d="M0 0v38.731"/>
                    <g data-name="Group 2211">
                        <g data-name="Ellipse 526" transform="translate(138.5)" style="stroke-width:3px;stroke-dasharray:5 0;stroke:#6badcb;fill:none">
                            <ellipse cx="54.5" cy="55" rx="54.5" ry="55" style="stroke:none"/>
                            <ellipse cx="54.5" cy="55" rx="53" ry="53.5" style="fill:none"/>
                        </g>
                        <g data-name="Group 1645" transform="translate(-778.057 -4792.577)">
                            <path data-name="Path 829" d="M182.918 382.515a5.279 5.279 0 1 0-5.279-5.279 5.3 5.3 0 0 0 5.279 5.279zm-9.767 8.976 8.4 10.824 1.368-6.6c3.432 3.96 6.964 6.6 12.772 6.6v-5.28c-5.016 0-7.492-2.639-9.6-6.336l-2.639-4.224a5.664 5.664 0 0 0-7-2.217c-2.244.984-2.779 4.569-3.3 7.233l-2.09 10.824" transform="translate(773.489 4448.113)" style="fill:#6badcb"/>
                            <path data-name="Subtraction 9 - Outline" d="M13.1 30.58H2.061L4.265 19.3c.036-.182.071-.368.107-.557.505-2.642 1.134-5.93 3.385-6.917a5.927 5.927 0 0 1 2.319-.471 6.016 6.016 0 0 1 5.088 2.818l2.647 4.236a13.793 13.793 0 0 0 3.623 4.452 9.2 9.2 0 0 0 5.693 1.716h.333v5.945h-.33a14.693 14.693 0 0 1-7.441-1.858 20.393 20.393 0 0 1-5.13-4.343l-1.178 6.259zm-10.231-.665h9.96l1.33-7.062.451.52a20.723 20.723 0 0 0 5.408 4.713 13.925 13.925 0 0 0 6.78 1.768V25.24a9.7 9.7 0 0 1-5.757-1.84 14.4 14.4 0 0 1-3.8-4.65L14.6 14.528a5.351 5.351 0 0 0-4.524-2.506 5.264 5.264 0 0 0-2.058.418c-1.929.847-2.521 3.943-3 6.432l-.108.56zm11.49-19.19a5.606 5.606 0 0 1-3.964-9.576 5.606 5.606 0 1 1 7.928 7.928 5.573 5.573 0 0 1-3.965 1.647zm0-10.559a4.94 4.94 0 0 0-3.493 8.44 4.94 4.94 0 1 0 6.987-6.986A4.912 4.912 0 0 0 14.358.166z" transform="translate(942.049 4820.235)" style="fill:#6badcb"/>
                            <circle data-name="Ellipse 1413" cx="5.294" cy="5.294" r="5.294" transform="translate(984.478 4825.379)" style="fill:#6badcb"/>
                            <path data-name="Path 830" d="M235.724 425.082a5.309 5.309 0 0 0 5.294-5.294l.076-14.337a5.263 5.263 0 0 0-7.426-4.791h-.027c-.027 0-.031.012-.053.026a5.642 5.642 0 0 0-2.545 3.682l-.049 7.942-.049 12.773" transform="translate(753.457 4438.665)" style="fill:#6badcb"/>
                            <path data-name="Rectangle 1034" transform="translate(941.145 4853.797)" style="fill:#6badcb" d="M0 0h39.93v9.85H0z"/>
                            <path data-name="Path 831" d="M254.272 437.55h-3.328v-49.912h3.328z" transform="translate(746.767 4442.866)" style="fill:#6badcb"/>
                            <path data-name="Path 832" d="M214.182 412.452q-.486 0-.987-.017l.167-4.988c9.2.307 12.807-4.73 12.841-4.781l4.158 2.761c-.196.294-4.799 7.025-16.179 7.025z" transform="translate(759.395 4437.84)" style="fill:#6badcb"/>
                            <path data-name="Path 833" d="M169.165 455.948h-3.328v-10.017a3.3 3.3 0 0 1 3.293-3.293h55.01v3.327h-54.975z" transform="translate(775.236 4424.469)" style="fill:#6badcb"/>
                        </g>
                    </g>
                </g>
            </g>
            <g data-name="Group 2215">
                <g data-name="Rectangle 1033" style="stroke-width:4px;stroke:#daa13d;fill:#daa13d">
                    <path style="stroke:none" d="M0 0h96v139H0z" transform="translate(287 287.84)"/>
                    <path style="fill:none" d="M2 2h92v135H2z" transform="translate(287 287.84)"/>
                </g>
                <g data-name="Group 2214">
                    <g data-name="Ellipse 1418" transform="translate(280.5 139.324)" style="stroke:#d1a350;stroke-width:3px;stroke-dasharray:5 0;fill:none">
                        <ellipse cx="54.5" cy="55" rx="54.5" ry="55" style="stroke:none"/>
                        <ellipse cx="54.5" cy="55" rx="53" ry="53.5" style="fill:none"/>
                    </g>
                    <path data-name="Line 238" transform="translate(335.65 249.109)" style="stroke:#d1a350;stroke-width:3px;stroke-dasharray:5 0;fill:none" d="M0 0v38.731"/>
                    <g data-name="Group 891">
                        <g data-name="Group 890">
                            <path data-name="Path 465" d="M46.567 22.227a13.026 13.026 0 0 1-11.618-7.172l-2.564-5.42A6.478 6.478 0 0 0 26.576 6C14.827 6 6 40.693 6 48.19h8.113L7.3 57.277l5.193 3.894 9.734-12.981h6.491v12.981h6.491V48.092l-6.492-19.375 1.59-8.795A19.534 19.534 0 0 0 41.7 28.1v2.24h3.245v-3.245a1.623 1.623 0 1 1 3.245 0v34.076h3.245V27.095a4.862 4.862 0 0 0-4.868-4.868z" transform="translate(308.933 168.82)" style="fill:#daa13d"/>
                            <path data-name="Path 466" d="M12.947 7.2a6.235 6.235 0 0 0-.325 1.915 6.491 6.491 0 1 0 6.491-6.491 6.235 6.235 0 0 0-1.915.325A3.217 3.217 0 0 0 14.245 1 3.255 3.255 0 0 0 11 4.245 3.217 3.217 0 0 0 12.947 7.2z" transform="translate(320.16 157.593)" style="fill:#daa13d"/>
                        </g>
                    </g>
                </g>
            </g>
        </g>
        <path data-name="Path 875" d="M0 0h528" transform="translate(0 407.84)" style="stroke:#f04e30;stroke-width:4px;stroke-dasharray:5 5;fill:#f04e30"/>
    </g>
</svg>
