<svg xmlns="http://www.w3.org/2000/svg" width="223.873" height="165.125" viewBox="0 0 223.873 165.125">
    <g data-name="Group 2218">
        <path data-name="Path 817" d="M1496.77 41.633c-16.537 0-31.7 7.083-43.531 18.872-11.826-11.789-26.994-18.872-43.53-18.872-37.78 0-68.406 36.965-68.406 82.563s30.626 82.562 68.406 82.562c16.536 0 31.7-7.083 43.53-18.872 11.828 11.79 26.994 18.872 43.531 18.872 37.78 0 68.406-36.965 68.406-82.562s-30.626-82.563-68.406-82.563z" transform="translate(-1341.303 -41.633)" style="fill:#cc79a7"/>
        <g data-name="Group 1665">
            <path data-name="Path 321" d="m1475.987 1370.691 4.793-7.664-5.746-3.595a22.936 22.936 0 0 0 1.477-8.814l6.607-1.523-2.029-8.808-6.608 1.522a22.874 22.874 0 0 0-5.186-7.28l3.6-5.747-7.664-4.794-3.595 5.747a22.9 22.9 0 0 0-8.814-1.477l-1.522-6.608-8.809 2.029 1.522 6.609a22.883 22.883 0 0 0-7.28 5.184l-5.746-3.594-4.794 7.663 5.746 3.594a22.913 22.913 0 0 0-1.477 8.815l-6.608 1.522 2.029 8.808 6.609-1.522a22.873 22.873 0 0 0 5.185 7.28l-3.6 5.747 7.664 4.794 3.594-5.747a22.907 22.907 0 0 0 8.816 1.478l1.521 6.607 8.808-2.029-1.521-6.608a22.886 22.886 0 0 0 7.28-5.186z" transform="translate(-1311.29 -1268.313)" style="fill:none;stroke:#fff;stroke-linecap:round;stroke-linejoin:round;stroke-width:2px"/>
            <g data-name="Group 467">
                <path data-name="Path 322" d="M1496.041 1366.59a45.181 45.181 0 0 0-74.825-46.8" transform="translate(-1311.313 -1268.45)" style="fill:none;stroke:#fff;stroke-linecap:round;stroke-linejoin:round;stroke-width:2px"/>
                <path data-name="Line 113" transform="translate(184.621 95.559)" style="fill:none;stroke:#fff;stroke-linecap:round;stroke-linejoin:round;stroke-width:2px" d="M4.294 0 0 4.373"/>
                <path data-name="Line 114" transform="translate(182.594 94.148)" style="fill:none;stroke:#fff;stroke-linecap:round;stroke-linejoin:round;stroke-width:2px" d="m0 0 2.027 5.784"/>
            </g>
            <path data-name="Path 321" d="m1415.864 1369.906 4.793-7.664-5.746-3.595a22.937 22.937 0 0 0 1.477-8.814l6.607-1.523-2.029-8.808-6.608 1.522a22.87 22.87 0 0 0-5.186-7.28l3.6-5.747-7.664-4.794-3.595 5.747a22.9 22.9 0 0 0-8.814-1.477l-1.522-6.608-8.809 2.029 1.522 6.608a22.905 22.905 0 0 0-7.28 5.186l-5.746-3.594-4.794 7.663 5.746 3.594a22.916 22.916 0 0 0-1.477 8.815l-6.608 1.522 2.029 8.808 6.609-1.522a22.89 22.89 0 0 0 5.185 7.28l-3.594 5.747 7.663 4.794 3.6-5.747a22.9 22.9 0 0 0 8.815 1.478l1.521 6.607 8.809-2.029-1.522-6.608a22.888 22.888 0 0 0 7.28-5.186z" transform="translate(-1311.822 -1268.32)" style="fill:none;stroke:#fff;stroke-linecap:round;stroke-linejoin:round;stroke-width:2px"/>
            <g data-name="Group 468">
                <path data-name="Path 323" d="M1350.923 1335.177a45.182 45.182 0 0 0 74.825 46.8" transform="translate(-1311.959 -1268.194)" style="fill:none;stroke:#fff;stroke-linecap:round;stroke-linejoin:round;stroke-width:2px"/>
                <path data-name="Line 115" style="fill:none;stroke:#fff;stroke-linecap:round;stroke-linejoin:round;stroke-width:2px" d="M0 4.373 4.294 0" transform="translate(34.957 64.995)"/>
                <path data-name="Line 116" transform="translate(39.251 64.995)" style="fill:none;stroke:#fff;stroke-linecap:round;stroke-linejoin:round;stroke-width:2px" d="M2.027 5.784 0 0"/>
            </g>
            <g data-name="Group 1663">
                <path data-name="Rectangle 1038" d="M0 0h6.915a3.526 3.526 0 0 1 3.526 3.526v.062a3.526 3.526 0 0 1-3.526 3.527H0h0V0h0z" transform="translate(76.882 74.541)" style="fill:none;stroke:#fff;stroke-linecap:round;stroke-linejoin:round;stroke-width:2px"/>
                <path data-name="Rectangle 1039" d="M0 0h8.012a4.045 4.045 0 0 1 4.045 4.045v.072a4.045 4.045 0 0 1-4.045 4.045H0h0V0h0z" transform="translate(76.882 81.656)" style="fill:none;stroke:#fff;stroke-linecap:round;stroke-linejoin:round;stroke-width:2px"/>
                <path data-name="Line 206" transform="translate(81.357 71.573)" style="fill:none;stroke:#fff;stroke-linecap:round;stroke-linejoin:round;stroke-width:2px" d="M0 21.212V0"/>
            </g>
            <g data-name="Group 1664">
                <path data-name="Rectangle 1040" d="M0 0h6.915a3.526 3.526 0 0 1 3.526 3.526v.062a3.526 3.526 0 0 1-3.526 3.527H0h0V0h0z" transform="translate(137.53 75.333)" style="fill:none;stroke:#fff;stroke-linecap:round;stroke-linejoin:round;stroke-width:2px"/>
                <path data-name="Rectangle 1041" d="M0 0h8.012a4.045 4.045 0 0 1 4.045 4.045v.072a4.045 4.045 0 0 1-4.045 4.045H0h0V0h0z" transform="translate(137.53 82.448)" style="fill:none;stroke:#fff;stroke-linecap:round;stroke-linejoin:round;stroke-width:2px"/>
                <path data-name="Line 207" transform="translate(142.005 72.365)" style="fill:none;stroke:#fff;stroke-linecap:round;stroke-linejoin:round;stroke-width:2px" d="M0 21.212V0"/>
            </g>
        </g>
    </g>
</svg>
