<svg xmlns="http://www.w3.org/2000/svg" width="223.873" height="165.125" viewBox="0 0 223.873 165.125">
    <g data-name="Group 2220">
        <path data-name="Path 819" d="M1496.77 41.633c-16.537 0-31.7 7.083-43.531 18.872-11.826-11.789-26.994-18.872-43.53-18.872-37.78 0-68.406 36.965-68.406 82.563s30.626 82.562 68.406 82.562c16.536 0 31.7-7.083 43.53-18.872 11.828 11.79 26.994 18.872 43.531 18.872 37.78 0 68.406-36.965 68.406-82.562s-30.626-82.563-68.406-82.563z" transform="translate(-1341.303 -41.633)" style="fill:#8f8ac7"/>
        <g data-name="Group 1778">
            <path data-name="Rectangle 1069" transform="translate(77.61 75.022)" style="fill:none;stroke:#fff;stroke-linecap:round;stroke-linejoin:round;stroke-width:2px" d="M0 0h9.808v38.761H0z"/>
            <path data-name="Rectangle 1070" transform="translate(97.225 75.022)" style="fill:none;stroke:#fff;stroke-linecap:round;stroke-linejoin:round;stroke-width:2px" d="M0 0h9.808v38.761H0z"/>
            <path data-name="Rectangle 1071" transform="translate(116.841 75.022)" style="fill:none;stroke:#fff;stroke-linecap:round;stroke-linejoin:round;stroke-width:2px" d="M0 0h9.808v38.761H0z"/>
            <path data-name="Rectangle 1072" transform="translate(136.456 75.022)" style="fill:none;stroke:#fff;stroke-linecap:round;stroke-linejoin:round;stroke-width:2px" d="M0 0h9.808v38.761H0z"/>
            <path data-name="Rectangle 1073" transform="translate(70.624 113.782)" style="fill:none;stroke:#fff;stroke-linecap:round;stroke-linejoin:round;stroke-width:2px" d="M0 0h82.627v9.445H0z"/>
            <path data-name="Path 876" d="M451.92 204.51h-82.626v-9.445l41.313-12.365 41.313 12.367z" style="fill:none;stroke:#fff;stroke-linecap:round;stroke-linejoin:round;stroke-width:2px" transform="translate(-298.67 -129.488)"/>
            <path data-name="Line 240" transform="translate(82.514 75.022)" style="fill:none;stroke:#fff;stroke-linecap:round;stroke-linejoin:round;stroke-width:2px" d="M0 0v38.761"/>
            <path data-name="Line 241" transform="translate(102.129 75.022)" style="fill:none;stroke:#fff;stroke-linecap:round;stroke-linejoin:round;stroke-width:2px" d="M0 0v38.761"/>
            <path data-name="Line 242" transform="translate(121.745 75.022)" style="fill:none;stroke:#fff;stroke-linecap:round;stroke-linejoin:round;stroke-width:2px" d="M0 0v38.761"/>
            <path data-name="Line 243" transform="translate(141.36 75.022)" style="fill:none;stroke:#fff;stroke-linecap:round;stroke-linejoin:round;stroke-width:2px" d="M0 0v38.761"/>
            <g data-name="Group 1777">
                <path data-name="Line 244" transform="translate(144.532 35.774)" style="fill:none;stroke:#fff;stroke-linecap:round;stroke-linejoin:round;stroke-width:2px" d="M0 17.436V0"/>
                <path data-name="Line 245" transform="translate(135.814 44.492)" style="fill:none;stroke:#fff;stroke-linecap:round;stroke-linejoin:round;stroke-width:2px" d="M17.436 0H0"/>
            </g>
            <path data-name="Path 877" d="M410.607 182.7v-16.439h12.714v7.719h-12.714" style="fill:none;stroke:#fff;stroke-linecap:round;stroke-linejoin:round;stroke-width:2px" transform="translate(-298.67 -129.488)"/>
        </g>
    </g>
</svg>
