<svg xmlns="http://www.w3.org/2000/svg" viewBox="0 0 399.998 470.099">
    <defs>
        <style>
            .cls-1{fill:#191919}.cls-2{fill:#707070}.cls-3,.cls-4{fill:#cc79a7}.cls-3{opacity:.7}.cls-5{fill:#fff}
        </style>
    </defs>
    <g id="Group_1408" data-name="Group 1408" transform="translate(-254 -4147)">
        <g id="Group_1391" data-name="Group 1391" transform="translate(-1220.832 844)">
            <g id="Group_1384" data-name="Group 1384" transform="translate(1242 -801)">
                <path id="Path_735" data-name="Path 735" class="cls-1" d="m3.38 0 4.86-11.82H3.42v2.56H1.18v-4.7h9.68v2.26L6.14 0zM15.6 0l9.68-13.96h2.32L17.92 0zm.96-6.28a3.269 3.269 0 0 1-2.59-1.01 4.334 4.334 0 0 1-.89-2.95 4.334 4.334 0 0 1 .89-2.95 3.269 3.269 0 0 1 2.59-1.01 3.237 3.237 0 0 1 2.58 1.01 4.368 4.368 0 0 1 .88 2.95 4.368 4.368 0 0 1-.88 2.95 3.237 3.237 0 0 1-2.58 1.01zm0-1.52q1.24 0 1.24-1.9v-1.08q0-1.9-1.24-1.9t-1.24 1.9v1.08q0 1.9 1.24 1.9zM26.64.24a3.243 3.243 0 0 1-2.57-1.01 4.334 4.334 0 0 1-.89-2.95 4.334 4.334 0 0 1 .89-2.95 3.243 3.243 0 0 1 2.57-1.01 3.269 3.269 0 0 1 2.59 1.01 4.334 4.334 0 0 1 .89 2.95 4.334 4.334 0 0 1-.89 2.95A3.269 3.269 0 0 1 26.64.24zm0-1.52q1.24 0 1.24-1.9v-1.08q0-1.9-1.24-1.9t-1.24 1.9v1.08q0 1.9 1.24 1.9z" transform="translate(308.662 4571)"/>
                <circle id="Ellipse_1404" data-name="Ellipse 1404" class="cls-2" cx="9.599" cy="9.599" r="9.599" transform="translate(277 4554.901)"/>
            </g>
            <g id="Group_1382" data-name="Group 1382" transform="translate(1225 -801)">
                <path id="Path_736" data-name="Path 736" class="cls-1" d="M6.96 0v-2.7H.64v-2.24l5.56-9.02h3.26v9.22h1.82v2.04H9.46V0zM2.8-4.74h4.16v-6.66H6.8zM18 .24a5.132 5.132 0 0 1-2.32-.49 4.28 4.28 0 0 1-1.62-1.41 6.476 6.476 0 0 1-.95-2.26 13.642 13.642 0 0 1-.31-3.06 13.675 13.675 0 0 1 .31-3.05 6.476 6.476 0 0 1 .95-2.27 4.28 4.28 0 0 1 1.62-1.41A5.132 5.132 0 0 1 18-14.2a4.4 4.4 0 0 1 3.93 1.9 9.511 9.511 0 0 1 1.27 5.32 9.511 9.511 0 0 1-1.27 5.32A4.4 4.4 0 0 1 18 .24zm0-2.22a1.928 1.928 0 0 0 1.87-1.01 5.914 5.914 0 0 0 .53-2.73v-2.52a5.914 5.914 0 0 0-.53-2.73A1.928 1.928 0 0 0 18-11.98a1.928 1.928 0 0 0-1.87 1.01 5.914 5.914 0 0 0-.53 2.73v2.52a5.914 5.914 0 0 0 .53 2.73A1.928 1.928 0 0 0 18-1.98zm8.98 2.2a1.6 1.6 0 0 1-1.21-.41 1.462 1.462 0 0 1-.39-1.05v-.36a1.5 1.5 0 0 1 .39-1.06 1.577 1.577 0 0 1 1.21-.42 1.572 1.572 0 0 1 1.22.42 1.52 1.52 0 0 1 .38 1.06v.36a1.484 1.484 0 0 1-.38 1.05 1.6 1.6 0 0 1-1.22.41zM36.94 0v-2.7h-6.32v-2.24l5.56-9.02h3.26v9.22h1.82v2.04h-1.82V0zm-4.16-4.74h4.16v-6.66h-.16zM45.58 0l9.68-13.96h2.32L47.9 0zm.96-6.28a3.269 3.269 0 0 1-2.59-1.01 4.334 4.334 0 0 1-.89-2.95 4.334 4.334 0 0 1 .89-2.95 3.269 3.269 0 0 1 2.59-1.01 3.237 3.237 0 0 1 2.58 1.01 4.368 4.368 0 0 1 .88 2.95 4.368 4.368 0 0 1-.88 2.95 3.237 3.237 0 0 1-2.58 1.01zm0-1.52q1.24 0 1.24-1.9v-1.08q0-1.9-1.24-1.9t-1.24 1.9v1.08q0 1.9 1.24 1.9zM56.62.24a3.243 3.243 0 0 1-2.57-1.01 4.334 4.334 0 0 1-.89-2.95 4.334 4.334 0 0 1 .89-2.95 3.243 3.243 0 0 1 2.57-1.01 3.269 3.269 0 0 1 2.59 1.01 4.334 4.334 0 0 1 .89 2.95 4.334 4.334 0 0 1-.89 2.95A3.269 3.269 0 0 1 56.62.24zm0-1.52q1.24 0 1.24-1.9v-1.08q0-1.9-1.24-1.9t-1.24 1.9v1.08q0 1.9 1.24 1.9z" transform="translate(429.662 4571)"/>
                <circle id="Ellipse_1405" data-name="Ellipse 1405" class="cls-3" cx="9.599" cy="9.599" r="9.599" transform="translate(398 4554.901)"/>
            </g>
            <g id="Group_1383" data-name="Group 1383" transform="translate(1211 -801)">
                <path id="Path_737" data-name="Path 737" class="cls-1" d="M10.3-11.68H4.02L3.7-7h.14a6.969 6.969 0 0 1 .48-.82 2.757 2.757 0 0 1 .6-.64 2.688 2.688 0 0 1 .79-.41 3.471 3.471 0 0 1 1.09-.15 4.64 4.64 0 0 1 1.68.3 3.828 3.828 0 0 1 1.35.87 4.1 4.1 0 0 1 .9 1.39 4.947 4.947 0 0 1 .33 1.86 5.341 5.341 0 0 1-.34 1.94 4.292 4.292 0 0 1-1 1.53A4.549 4.549 0 0 1 8.1-.12a6.24 6.24 0 0 1-2.2.36A6.465 6.465 0 0 1 4.18.03a5.1 5.1 0 0 1-1.34-.57 4.541 4.541 0 0 1-1-.83 6.955 6.955 0 0 1-.74-.99l1.92-1.48q.24.4.5.75a2.939 2.939 0 0 0 .61.61 2.9 2.9 0 0 0 .78.41 3.069 3.069 0 0 0 1.01.15 2.318 2.318 0 0 0 1.79-.66 2.549 2.549 0 0 0 .61-1.8v-.16a2.3 2.3 0 0 0-.62-1.7 2.325 2.325 0 0 0-1.72-.62 2.654 2.654 0 0 0-1.4.33 3.491 3.491 0 0 0-.86.71l-2.16-.3.52-7.84h8.22zM22.92 0h-9.68v-2.44l4.38-3.84a9.281 9.281 0 0 0 1.64-1.77 3.05 3.05 0 0 0 .52-1.71v-.26a1.716 1.716 0 0 0-.6-1.41 2.234 2.234 0 0 0-1.46-.49 2.116 2.116 0 0 0-1.64.61 3.545 3.545 0 0 0-.8 1.47L13-10.72a5.611 5.611 0 0 1 .62-1.33 4.426 4.426 0 0 1 1.01-1.11 4.8 4.8 0 0 1 1.43-.76 5.808 5.808 0 0 1 1.88-.28 5.759 5.759 0 0 1 1.96.31 4.087 4.087 0 0 1 1.45.87 3.753 3.753 0 0 1 .9 1.32 4.354 4.354 0 0 1 .31 1.66 4.381 4.381 0 0 1-.28 1.6 5.9 5.9 0 0 1-.76 1.37 8.8 8.8 0 0 1-1.12 1.24q-.64.59-1.36 1.19L16.1-2.22h6.82zm4.06.22a1.6 1.6 0 0 1-1.21-.41 1.462 1.462 0 0 1-.39-1.05v-.36a1.5 1.5 0 0 1 .39-1.06 1.577 1.577 0 0 1 1.21-.42 1.572 1.572 0 0 1 1.22.42 1.52 1.52 0 0 1 .38 1.06v.36a1.484 1.484 0 0 1-.38 1.05 1.6 1.6 0 0 1-1.22.41zm9.06.02a5.542 5.542 0 0 1-2.14-.39 4.515 4.515 0 0 1-1.6-1.1 4.681 4.681 0 0 1-1-1.72 7.091 7.091 0 0 1-.34-2.27 8.771 8.771 0 0 1 .45-2.83 10.853 10.853 0 0 1 1.17-2.44 11.526 11.526 0 0 1 1.61-1.98 13.153 13.153 0 0 1 1.77-1.47h3.56q-1.24.88-2.21 1.7a15.517 15.517 0 0 0-1.7 1.66 8.891 8.891 0 0 0-1.2 1.75 8.236 8.236 0 0 0-.71 1.97l.16.04a5.407 5.407 0 0 1 .47-.77 3.206 3.206 0 0 1 .65-.66 3.063 3.063 0 0 1 .88-.46 3.6 3.6 0 0 1 1.16-.17 4.3 4.3 0 0 1 1.61.3 3.687 3.687 0 0 1 1.3.87 4.058 4.058 0 0 1 .86 1.37 4.89 4.89 0 0 1 .31 1.78 5.077 5.077 0 0 1-.36 1.94 4.424 4.424 0 0 1-1.02 1.52 4.679 4.679 0 0 1-1.59 1 5.751 5.751 0 0 1-2.09.36zm0-2.08a2.382 2.382 0 0 0 1.73-.61 2.324 2.324 0 0 0 .63-1.75v-.3a2.324 2.324 0 0 0-.63-1.75 2.382 2.382 0 0 0-1.73-.61 2.375 2.375 0 0 0-1.74.61 2.346 2.346 0 0 0-.62 1.75v.3a2.346 2.346 0 0 0 .62 1.75 2.375 2.375 0 0 0 1.74.61zM45.58 0l9.68-13.96h2.32L47.9 0zm.96-6.28a3.269 3.269 0 0 1-2.59-1.01 4.334 4.334 0 0 1-.89-2.95 4.334 4.334 0 0 1 .89-2.95 3.269 3.269 0 0 1 2.59-1.01 3.237 3.237 0 0 1 2.58 1.01 4.368 4.368 0 0 1 .88 2.95 4.368 4.368 0 0 1-.88 2.95 3.237 3.237 0 0 1-2.58 1.01zm0-1.52q1.24 0 1.24-1.9v-1.08q0-1.9-1.24-1.9t-1.24 1.9v1.08q0 1.9 1.24 1.9zM56.62.24a3.243 3.243 0 0 1-2.57-1.01 4.334 4.334 0 0 1-.89-2.95 4.334 4.334 0 0 1 .89-2.95 3.243 3.243 0 0 1 2.57-1.01 3.269 3.269 0 0 1 2.59 1.01 4.334 4.334 0 0 1 .89 2.95 4.334 4.334 0 0 1-.89 2.95A3.269 3.269 0 0 1 56.62.24zm0-1.52q1.24 0 1.24-1.9v-1.08q0-1.9-1.24-1.9t-1.24 1.9v1.08q0 1.9 1.24 1.9z" transform="translate(558.662 4570)"/>
                <circle id="Ellipse_1406" data-name="Ellipse 1406" class="cls-4" cx="9.599" cy="9.599" r="9.599" transform="translate(527 4554.901)"/>
            </g>
        </g>
        <g id="Group_1405" data-name="Group 1405">
            <g id="Group_1370" data-name="Group 1370" transform="translate(-782.975 4116.984)">
                <path id="Path_521" data-name="Path 521" class="cls-4" d="M1107.578 427.228a201.269 201.269 0 0 0 33.16 2.788c110.458 0 200-89.545 200-200s-89.542-200-200-200v200z" transform="translate(96.234)"/>
                <path id="Path_522" data-name="Path 522" class="cls-2" d="M1172.395 230.016v-200a199.116 199.116 0 0 0-88.042 20.407z" transform="translate(64.578)"/>
                <path id="Path_523" data-name="Path 523" class="cls-3" d="m1236.973 218.245-88.042-179.593a199.978 199.978 0 0 0-111.956 179.593c0 99.153 72.172 181.408 166.837 197.212z" transform="translate(0 11.771)"/>
            </g>
            <path id="Path_566" data-name="Path 566" class="cls-5" d="M12.81.42a7.057 7.057 0 0 1-2.152-.3 5.478 5.478 0 0 1-1.61-.805 4.632 4.632 0 0 1-1.12-1.173 6.221 6.221 0 0 1-.683-1.362H7.07V0H2.59v-19.32h4.48v12.81a2.807 2.807 0 0 0 .35 1.418 3.17 3.17 0 0 0 .91 1.015 4.216 4.216 0 0 0 1.26.612 4.85 4.85 0 0 0 1.4.21 4.072 4.072 0 0 0 1.75-.332 3.03 3.03 0 0 0 1.137-.91 3.477 3.477 0 0 0 .613-1.365 7.818 7.818 0 0 0 .175-1.7V-19.32h4.48v12.18a8.546 8.546 0 0 1-1.628 5.6A5.771 5.771 0 0 1 12.81.42zm19.635-13.335a3.348 3.348 0 0 0-.788-2.38 3.289 3.289 0 0 0-2.5-.84 4.215 4.215 0 0 0-2.5.665 5.985 5.985 0 0 0-1.558 1.645l-2.66-2.38a7.742 7.742 0 0 1 2.642-2.573 8.606 8.606 0 0 1 4.392-.962 8.081 8.081 0 0 1 5.565 1.7 6.223 6.223 0 0 1 1.89 4.882V0h-4.48zm11.13 2.52-3.01-1.225a9.094 9.094 0 0 1 .875-3.325 7.952 7.952 0 0 1 1.978-2.573 8.81 8.81 0 0 1 2.94-1.645 11.4 11.4 0 0 1 3.693-.577 11.754 11.754 0 0 1 3.762.56 7.852 7.852 0 0 1 2.818 1.61 6.964 6.964 0 0 1 1.769 2.537 8.61 8.61 0 0 1 .613 3.307V0H54.53v-11.13a5.194 5.194 0 0 0-1.225-3.71 4.634 4.634 0 0 0-3.535-1.3 6.165 6.165 0 0 0-3.167.788A4.268 4.268 0 0 0 44.73-13.3l1.365.525a3.37 3.37 0 0 1 1.54.98 2.785 2.785 0 0 1 .42 1.68V0h-4.48zm20.4-8.925h4.48v3.22h.175a5.823 5.823 0 0 1 .7-1.365 4.922 4.922 0 0 1 1.137-1.173 5.478 5.478 0 0 1 1.61-.8 7.188 7.188 0 0 1 2.188-.3A5.823 5.823 0 0 1 79-17.78a8.482 8.482 0 0 1 1.645 5.6V0H76.16v-11.76a5.06 5.06 0 0 0-.875-3.2 3.36 3.36 0 0 0-2.8-1.1 5.329 5.329 0 0 0-1.47.21 3.938 3.938 0 0 0-1.295.63 3.361 3.361 0 0 0-.91 1.033 2.807 2.807 0 0 0-.35 1.417V0h-4.48zm1.05-6.58h11.52v-2.905h4.1v6.3H65.03zm11.8-10.115h3.815v5.5h-3.815zM91.07.35a6.888 6.888 0 0 1-4.515-1.383 5.233 5.233 0 0 1-1.68-4.287 5.4 5.4 0 0 1 1.61-4.2 6.562 6.562 0 0 1 4.585-1.47h5.88v-1.26a3.87 3.87 0 0 0-1.015-2.887 4.454 4.454 0 0 0-3.22-1 5.636 5.636 0 0 0-3.325.892 8.139 8.139 0 0 0-2.065 2.083l-2.835-2.483a9.43 9.43 0 0 1 1.382-1.663 8 8 0 0 1 1.82-1.295 9.571 9.571 0 0 1 2.345-.84 13.423 13.423 0 0 1 2.957-.3 10.3 10.3 0 0 1 5.565 1.365 2.029 2.029 0 0 1 .857-1.452 3.226 3.226 0 0 1 1.768-.437h4.1v3.71h-4.9v.14a7.049 7.049 0 0 1 1.05 3.99V0H96.95v-8.085h-4.375q-3.115 0-3.115 2.485v.665a2.6 2.6 0 0 0 .7 1.925 2.6 2.6 0 0 0 1.925.7 4.069 4.069 0 0 0 .98-.105l.315 2.52a4.541 4.541 0 0 1-1.015.175q-.735.07-1.295.07zm6.58 6.405h-2.415v-3.01h3.325a2.988 2.988 0 0 1 2.205.682 2.52 2.52 0 0 1 .665 1.838v5.915h-3.78zM115.255.42a8.827 8.827 0 0 1-3.588-.7 7.241 7.241 0 0 1-2.677-1.995 8.991 8.991 0 0 1-1.662-3.167 14.29 14.29 0 0 1-.577-4.218 12.584 12.584 0 0 1 .647-4.165 8.984 8.984 0 0 1 1.855-3.167 8.2 8.2 0 0 1 2.94-2.03 10.019 10.019 0 0 1 3.868-.717 11.041 11.041 0 0 1 3.675.577 7.94 7.94 0 0 1 2.8 1.645 7.25 7.25 0 0 1 1.785 2.59 8.849 8.849 0 0 1 .63 3.413V0h-4.48v-11.235a5.178 5.178 0 0 0-1.173-3.6 4.19 4.19 0 0 0-3.272-1.3 4.247 4.247 0 0 0-3.378 1.383 5.577 5.577 0 0 0-1.207 3.8V-8.4q0 5.215 4.375 5.215.385 0 .682-.017a3.872 3.872 0 0 0 .613-.088l.525 3.5a6.506 6.506 0 0 1-1.243.175q-.683.035-1.138.035z" transform="translate(489 4357)"/>
            <path id="Path_568" data-name="Path 568" class="cls-5" d="M12.81.42a7.057 7.057 0 0 1-2.152-.3 5.478 5.478 0 0 1-1.61-.805 4.632 4.632 0 0 1-1.12-1.173 6.221 6.221 0 0 1-.683-1.362H7.07V0H2.59v-19.32h4.48v12.81a2.807 2.807 0 0 0 .35 1.418 3.17 3.17 0 0 0 .91 1.015 4.216 4.216 0 0 0 1.26.612 4.85 4.85 0 0 0 1.4.21 4.072 4.072 0 0 0 1.75-.332 3.03 3.03 0 0 0 1.137-.91 3.477 3.477 0 0 0 .613-1.365 7.818 7.818 0 0 0 .175-1.7V-19.32h4.48v12.18a8.546 8.546 0 0 1-1.628 5.6A5.771 5.771 0 0 1 12.81.42zm19.635-13.335a3.348 3.348 0 0 0-.788-2.38 3.289 3.289 0 0 0-2.5-.84 4.215 4.215 0 0 0-2.5.665 5.985 5.985 0 0 0-1.558 1.645l-2.66-2.38a7.742 7.742 0 0 1 2.642-2.573 8.606 8.606 0 0 1 4.392-.962 8.081 8.081 0 0 1 5.565 1.7 6.223 6.223 0 0 1 1.89 4.882V0h-4.48zm11.13 2.52-3.01-1.225a9.094 9.094 0 0 1 .875-3.325 7.952 7.952 0 0 1 1.978-2.573 8.81 8.81 0 0 1 2.94-1.645 11.4 11.4 0 0 1 3.693-.577 11.754 11.754 0 0 1 3.762.56 7.852 7.852 0 0 1 2.818 1.61 6.964 6.964 0 0 1 1.769 2.537 8.61 8.61 0 0 1 .613 3.307V0H54.53v-11.13a5.194 5.194 0 0 0-1.225-3.71 4.634 4.634 0 0 0-3.535-1.3 6.165 6.165 0 0 0-3.167.788A4.268 4.268 0 0 0 44.73-13.3l1.365.525a3.37 3.37 0 0 1 1.54.98 2.785 2.785 0 0 1 .42 1.68V0h-4.48z" transform="translate(316 4357)"/>
            <path id="Path_567" data-name="Path 567" class="cls-5" d="M-30.46.24a6.1 6.1 0 0 1-1.92-.29 4.847 4.847 0 0 1-1.52-.8 3.667 3.667 0 0 1-1-1.22 3.421 3.421 0 0 1-.36-1.57v-1a1.707 1.707 0 0 1 .39-1.19 1.613 1.613 0 0 1 1.25-.43h2.32v1.94h-1.62v.48a1.869 1.869 0 0 0 .68 1.57 2.988 2.988 0 0 0 1.88.53 2.224 2.224 0 0 0 1.8-.76 3.162 3.162 0 0 0 .64-2.1v-1.78a2.894 2.894 0 0 0-.72-2.09 2.668 2.668 0 0 0-2.02-.75 3.786 3.786 0 0 0-1.99.5 3.793 3.793 0 0 0-1.23 1.1l-1.56-1.4a4.49 4.49 0 0 1 1.81-1.61 6.521 6.521 0 0 1 3.07-.65 6.022 6.022 0 0 1 2.24.39 4.493 4.493 0 0 1 1.67 1.14 5 5 0 0 1 1.05 1.82 7.534 7.534 0 0 1 .36 2.41 6.145 6.145 0 0 1-1.36 4.23A4.894 4.894 0 0 1-30.46.24zm-4.26-15.04h3.38v-1.66h2v1.88h1.54v-1.88h2v3.6h-8.92zm6.74-5.78h2.18v3.14h-2.18zM-19.4.24a3.221 3.221 0 0 1-2.64-1.12 4.92 4.92 0 0 1-.92-3.2v-6.96h2.56v6.72a3.154 3.154 0 0 0 .45 1.8 1.763 1.763 0 0 0 1.57.66 2.838 2.838 0 0 0 .82-.12 2.279 2.279 0 0 0 .71-.35 1.863 1.863 0 0 0 .51-.58 1.6 1.6 0 0 0 .2-.81v-7.32h2.56v9h1.06V0h-1.6q-1.72 0-1.78-1.96h-.12A3.517 3.517 0 0 1-17.17-.4a3.508 3.508 0 0 1-2.23.64zm15.36-8.48q0-.94-.72-.94-.78 0-.84 1.42h-1.56Q-7.22-9.18-8-9.18q-.72 0-.72.94v.9a1.5 1.5 0 0 0 .24.87.993.993 0 0 0 .88.35q.16 0 .27-.01a1.377 1.377 0 0 0 .25-.05l.16 1.74a2.263 2.263 0 0 1-.47.09 5.185 5.185 0 0 1-.53.03 3.124 3.124 0 0 1-2.37-.91 3.846 3.846 0 0 1-.87-2.75 4.066 4.066 0 0 1 .63-2.45 2.268 2.268 0 0 1 1.95-.85 2.118 2.118 0 0 1 1.46.48 2.089 2.089 0 0 1 .68 1.18h.14a2.111 2.111 0 0 1 .74-1.18 2.275 2.275 0 0 1 1.5-.48 2.354 2.354 0 0 1 1.93.79 3.42 3.42 0 0 1 .65 2.23V3.88h-2.56z" transform="translate(439 4207)"/>
        </g>
    </g>
</svg>
