<svg xmlns="http://www.w3.org/2000/svg" width="399.997" height="477" viewBox="0 0 399.997 477">
    <defs>
        <style>
            .cls-1{fill:#191919;font-size:20px;font-family:IBMPlexSansThai-SemiBold,IBM Plex Sans Thai;font-weight:600}.cls-2{fill:#707070}.cls-3,.cls-4{fill:#daa13d}.cls-3{opacity:.6}.cls-5{fill:#fff}
        </style>
    </defs>
    <g id="Group_1409" data-name="Group 1409" transform="translate(-760.001 -4147)">
        <g id="Group_1392" data-name="Group 1392" transform="translate(-714.83 792)">
            <g id="Group_1385" data-name="Group 1385" transform="translate(736.331 -750)">
                <text id="_6.6_" data-name="6.6%" class="cls-1" transform="translate(814.331 4571)"><tspan x="0" y="0">6.6%</tspan></text>
                <circle id="Ellipse_1404" data-name="Ellipse 1404" class="cls-2" cx="9.599" cy="9.599" r="9.599" transform="translate(782.669 4554.901)"/>
            </g>
            <g id="Group_1386" data-name="Group 1386" transform="translate(719.331 -750)">
                <text id="_47_" data-name="47%" class="cls-1" transform="translate(935.331 4571)"><tspan x="0" y="0">47%</tspan></text>
                <circle id="Ellipse_1405" data-name="Ellipse 1405" class="cls-3" cx="9.599" cy="9.599" r="9.599" transform="translate(903.669 4554.901)"/>
            </g>
            <g id="Group_1387" data-name="Group 1387" transform="translate(705.331 -750)">
                <text id="_46.4_" data-name="46.4%" class="cls-1" transform="translate(1064.331 4571)"><tspan x="0" y="0">46.4%</tspan></text>
                <circle id="Ellipse_1406" data-name="Ellipse 1406" class="cls-4" cx="9.599" cy="9.599" r="9.599" transform="translate(1032.669 4554.901)"/>
            </g>
        </g>
        <g id="Group_1406" data-name="Group 1406">
            <g id="Group_1371" data-name="Group 1371" transform="translate(-276.955 3854.349)">
                <path id="Path_524" data-name="Path 524" class="cls-2" d="m1168.844 492.589-81.9-182.407a199.133 199.133 0 0 1 81.9-17.532z" transform="translate(68.11)"/>
                <path id="Path_525" data-name="Path 525" class="cls-3" d="M1284.5 676.667c-91.959 22.623-189.785-22.821-229.954-112.292-45.231-100.739-.231-219.074 100.51-264.3l81.9 182.407z" transform="translate(0 10.111)"/>
                <path id="Path_526" data-name="Path 526" class="cls-4" d="M1121.613 492.589V292.651a199.94 199.94 0 0 1 182.409 118.042c45.229 100.742.229 219.074-100.512 264.306a200.917 200.917 0 0 1-34.35 11.779z" transform="translate(115.341)"/>
            </g>
            <path id="Path_571" data-name="Path 571" class="cls-5" d="M12.81.42a7.057 7.057 0 0 1-2.152-.3 5.478 5.478 0 0 1-1.61-.805 4.632 4.632 0 0 1-1.12-1.173 6.221 6.221 0 0 1-.683-1.362H7.07V0H2.59v-19.32h4.48v12.81a2.807 2.807 0 0 0 .35 1.418 3.17 3.17 0 0 0 .91 1.015 4.216 4.216 0 0 0 1.26.612 4.85 4.85 0 0 0 1.4.21 4.072 4.072 0 0 0 1.75-.332 3.03 3.03 0 0 0 1.137-.91 3.477 3.477 0 0 0 .613-1.365 7.818 7.818 0 0 0 .175-1.7V-19.32h4.48v12.18a8.546 8.546 0 0 1-1.628 5.6A5.771 5.771 0 0 1 12.81.42zm19.635-13.335a3.348 3.348 0 0 0-.788-2.38 3.289 3.289 0 0 0-2.5-.84 4.215 4.215 0 0 0-2.5.665 5.985 5.985 0 0 0-1.558 1.645l-2.66-2.38a7.742 7.742 0 0 1 2.642-2.573 8.606 8.606 0 0 1 4.392-.962 8.081 8.081 0 0 1 5.565 1.7 6.223 6.223 0 0 1 1.89 4.882V0h-4.48zm11.13 2.52-3.01-1.225a9.094 9.094 0 0 1 .875-3.325 7.952 7.952 0 0 1 1.978-2.573 8.81 8.81 0 0 1 2.94-1.645 11.4 11.4 0 0 1 3.693-.577 11.754 11.754 0 0 1 3.762.56 7.852 7.852 0 0 1 2.818 1.61 6.964 6.964 0 0 1 1.769 2.537 8.61 8.61 0 0 1 .613 3.307V0H54.53v-11.13a5.194 5.194 0 0 0-1.225-3.71 4.634 4.634 0 0 0-3.535-1.3 6.165 6.165 0 0 0-3.167.788A4.268 4.268 0 0 0 44.73-13.3l1.365.525a3.37 3.37 0 0 1 1.54.98 2.785 2.785 0 0 1 .42 1.68V0h-4.48zm20.4-8.925h4.48v3.22h.175a5.823 5.823 0 0 1 .7-1.365 4.922 4.922 0 0 1 1.137-1.173 5.478 5.478 0 0 1 1.61-.8 7.188 7.188 0 0 1 2.188-.3A5.823 5.823 0 0 1 79-17.78a8.482 8.482 0 0 1 1.645 5.6V0H76.16v-11.76a5.06 5.06 0 0 0-.875-3.2 3.36 3.36 0 0 0-2.8-1.1 5.329 5.329 0 0 0-1.47.21 3.938 3.938 0 0 0-1.295.63 3.361 3.361 0 0 0-.91 1.033 2.807 2.807 0 0 0-.35 1.417V0h-4.48zm1.05-6.58h11.52v-2.905h4.1v6.3H65.03zm11.8-10.115h3.815v5.5h-3.815zM91.07.35a6.888 6.888 0 0 1-4.515-1.383 5.233 5.233 0 0 1-1.68-4.287 5.4 5.4 0 0 1 1.61-4.2 6.562 6.562 0 0 1 4.585-1.47h5.88v-1.26a3.87 3.87 0 0 0-1.015-2.887 4.454 4.454 0 0 0-3.22-1 5.636 5.636 0 0 0-3.325.892 8.139 8.139 0 0 0-2.065 2.083l-2.835-2.483a9.43 9.43 0 0 1 1.382-1.663 8 8 0 0 1 1.82-1.295 9.571 9.571 0 0 1 2.345-.84 13.423 13.423 0 0 1 2.957-.3 10.3 10.3 0 0 1 5.565 1.365 2.029 2.029 0 0 1 .857-1.452 3.226 3.226 0 0 1 1.768-.437h4.1v3.71h-4.9v.14a7.049 7.049 0 0 1 1.05 3.99V0H96.95v-8.085h-4.375q-3.115 0-3.115 2.485v.665a2.6 2.6 0 0 0 .7 1.925 2.6 2.6 0 0 0 1.925.7 4.069 4.069 0 0 0 .98-.105l.315 2.52a4.541 4.541 0 0 1-1.015.175q-.735.07-1.295.07zm6.58 6.405h-2.415v-3.01h3.325a2.988 2.988 0 0 1 2.205.682 2.52 2.52 0 0 1 .665 1.838v5.915h-3.78zM115.255.42a8.827 8.827 0 0 1-3.588-.7 7.241 7.241 0 0 1-2.677-1.995 8.991 8.991 0 0 1-1.662-3.167 14.29 14.29 0 0 1-.577-4.218 12.584 12.584 0 0 1 .647-4.165 8.984 8.984 0 0 1 1.855-3.167 8.2 8.2 0 0 1 2.94-2.03 10.019 10.019 0 0 1 3.868-.717 11.041 11.041 0 0 1 3.675.577 7.94 7.94 0 0 1 2.8 1.645 7.25 7.25 0 0 1 1.785 2.59 8.849 8.849 0 0 1 .63 3.413V0h-4.48v-11.235a5.178 5.178 0 0 0-1.173-3.6 4.19 4.19 0 0 0-3.272-1.3 4.247 4.247 0 0 0-3.378 1.383 5.577 5.577 0 0 0-1.207 3.8V-8.4q0 5.215 4.375 5.215.385 0 .682-.017a3.872 3.872 0 0 0 .613-.088l.525 3.5a6.506 6.506 0 0 1-1.243.175q-.683.035-1.138.035z" transform="translate(996 4357)"/>
            <path id="Path_569" data-name="Path 569" class="cls-5" d="M-30.46.24a6.1 6.1 0 0 1-1.92-.29 4.847 4.847 0 0 1-1.52-.8 3.667 3.667 0 0 1-1-1.22 3.421 3.421 0 0 1-.36-1.57v-1a1.707 1.707 0 0 1 .39-1.19 1.613 1.613 0 0 1 1.25-.43h2.32v1.94h-1.62v.48a1.869 1.869 0 0 0 .68 1.57 2.988 2.988 0 0 0 1.88.53 2.224 2.224 0 0 0 1.8-.76 3.162 3.162 0 0 0 .64-2.1v-1.78a2.894 2.894 0 0 0-.72-2.09 2.668 2.668 0 0 0-2.02-.75 3.786 3.786 0 0 0-1.99.5 3.793 3.793 0 0 0-1.23 1.1l-1.56-1.4a4.49 4.49 0 0 1 1.81-1.61 6.521 6.521 0 0 1 3.07-.65 6.022 6.022 0 0 1 2.24.39 4.493 4.493 0 0 1 1.67 1.14 5 5 0 0 1 1.05 1.82 7.534 7.534 0 0 1 .36 2.41 6.145 6.145 0 0 1-1.36 4.23A4.894 4.894 0 0 1-30.46.24zm-4.26-15.04h3.38v-1.66h2v1.88h1.54v-1.88h2v3.6h-8.92zm6.74-5.78h2.18v3.14h-2.18zM-19.4.24a3.221 3.221 0 0 1-2.64-1.12 4.92 4.92 0 0 1-.92-3.2v-6.96h2.56v6.72a3.154 3.154 0 0 0 .45 1.8 1.763 1.763 0 0 0 1.57.66 2.838 2.838 0 0 0 .82-.12 2.279 2.279 0 0 0 .71-.35 1.863 1.863 0 0 0 .51-.58 1.6 1.6 0 0 0 .2-.81v-7.32h2.56v9h1.06V0h-1.6q-1.72 0-1.78-1.96h-.12A3.517 3.517 0 0 1-17.17-.4a3.508 3.508 0 0 1-2.23.64zm15.36-8.48q0-.94-.72-.94-.78 0-.84 1.42h-1.56Q-7.22-9.18-8-9.18q-.72 0-.72.94v.9a1.5 1.5 0 0 0 .24.87.993.993 0 0 0 .88.35q.16 0 .27-.01a1.377 1.377 0 0 0 .25-.05l.16 1.74a2.263 2.263 0 0 1-.47.09 5.185 5.185 0 0 1-.53.03 3.124 3.124 0 0 1-2.37-.91 3.846 3.846 0 0 1-.87-2.75 4.066 4.066 0 0 1 .63-2.45 2.268 2.268 0 0 1 1.95-.85 2.118 2.118 0 0 1 1.46.48 2.089 2.089 0 0 1 .68 1.18h.14a2.111 2.111 0 0 1 .74-1.18 2.275 2.275 0 0 1 1.5-.48 2.354 2.354 0 0 1 1.93.79 3.42 3.42 0 0 1 .65 2.23V3.88h-2.56z" transform="translate(946 4207)"/>
            <path id="Path_570" data-name="Path 570" class="cls-5" d="M12.81.42a7.057 7.057 0 0 1-2.152-.3 5.478 5.478 0 0 1-1.61-.805 4.632 4.632 0 0 1-1.12-1.173 6.221 6.221 0 0 1-.683-1.362H7.07V0H2.59v-19.32h4.48v12.81a2.807 2.807 0 0 0 .35 1.418 3.17 3.17 0 0 0 .91 1.015 4.216 4.216 0 0 0 1.26.612 4.85 4.85 0 0 0 1.4.21 4.072 4.072 0 0 0 1.75-.332 3.03 3.03 0 0 0 1.137-.91 3.477 3.477 0 0 0 .613-1.365 7.818 7.818 0 0 0 .175-1.7V-19.32h4.48v12.18a8.546 8.546 0 0 1-1.628 5.6A5.771 5.771 0 0 1 12.81.42zm19.635-13.335a3.348 3.348 0 0 0-.788-2.38 3.289 3.289 0 0 0-2.5-.84 4.215 4.215 0 0 0-2.5.665 5.985 5.985 0 0 0-1.558 1.645l-2.66-2.38a7.742 7.742 0 0 1 2.642-2.573 8.606 8.606 0 0 1 4.392-.962 8.081 8.081 0 0 1 5.565 1.7 6.223 6.223 0 0 1 1.89 4.882V0h-4.48zm11.13 2.52-3.01-1.225a9.094 9.094 0 0 1 .875-3.325 7.952 7.952 0 0 1 1.978-2.573 8.81 8.81 0 0 1 2.94-1.645 11.4 11.4 0 0 1 3.693-.577 11.754 11.754 0 0 1 3.762.56 7.852 7.852 0 0 1 2.818 1.61 6.964 6.964 0 0 1 1.769 2.537 8.61 8.61 0 0 1 .613 3.307V0H54.53v-11.13a5.194 5.194 0 0 0-1.225-3.71 4.634 4.634 0 0 0-3.535-1.3 6.165 6.165 0 0 0-3.167.788A4.268 4.268 0 0 0 44.73-13.3l1.365.525a3.37 3.37 0 0 1 1.54.98 2.785 2.785 0 0 1 .42 1.68V0h-4.48z" transform="translate(823 4357)"/>
        </g>
    </g>
</svg>
