<svg xmlns="http://www.w3.org/2000/svg" width="180" height="160" viewBox="0 0 180 160">
    <defs>
        <style>
            .cls-2{fill:none;stroke:#fff;stroke-linecap:round;stroke-linejoin:round;stroke-width:3px}
        </style>
    </defs>
    <g id="Group_1230" data-name="Group 1230" transform="translate(-1424.499 -5996)">
        <path id="Path_462" data-name="Path 462" d="M1752.236 1202.572c-17.466-15.525-45.458-18.066-73.922-9.247-28.465-8.819-56.457-6.278-73.923 9.247s-20.325 40.406-10.4 65.709c-9.922 25.3-7.063 50.184 10.4 65.709s45.458 18.067 73.923 9.247c28.465 8.82 56.457 6.279 73.922-9.247s20.325-40.407 10.4-65.709c9.925-25.303 7.064-50.181-10.4-65.709z" transform="translate(-163.814 4807.719)" style="fill:#3f36b7"/>
        <g id="Group_864" data-name="Group 864" transform="translate(1117.244 5548.116)">
            <g id="Group_78" data-name="Group 78" transform="translate(354.251 482.826)">
                <g id="Group_76" data-name="Group 76" transform="translate(0 37.626)">
                    <path id="Path_90" data-name="Path 90" class="cls-2" d="m354.251 554.993 6.3-6.3h0a25.211 25.211 0 0 1 7.557-18.753l9.7-9.5a1.654 1.654 0 0 1 2.329.012h0a6.124 6.124 0 0 1 0 8.661l-4.445 4.445v10.92a13.584 13.584 0 0 1-3.978 9.605l-1.749 1.749" transform="translate(-354.251 -519.957)"/>
                    <path id="Line_2" data-name="Line 2" class="cls-2" transform="translate(26.469 5.434)" d="M3.129 0 0 3.129"/>
                    <path id="Line_3" data-name="Line 3" class="cls-2" transform="translate(17.455 16.05)" d="M0 36.441 36.441 0"/>
                </g>
                <g id="Group_77" data-name="Group 77" transform="translate(30.176)">
                    <path id="Path_91" data-name="Path 91" class="cls-2" d="m439.492 500.051-6.3 6.3h0a25.215 25.215 0 0 1-7.556 18.753l-9.7 9.5a1.655 1.655 0 0 1-2.329-.012h0a6.124 6.124 0 0 1 0-8.661l4.445-4.445" transform="translate(-383.66 -482.597)"/>
                    <path id="Path_92" data-name="Path 92" class="cls-2" d="m422.406 482.826-36.441 36.44a3.086 3.086 0 0 0 4.364 4.364l-5.4 5.4a3.086 3.086 0 0 0 4.364 4.364l-2.029 2.028a3.086 3.086 0 0 0 4.364 4.364l3.938-3.938a3.086 3.086 0 1 0 4.364 4.364l13.456-13.456" transform="translate(-384.03 -482.826)"/>
                    <path id="Line_4" data-name="Line 4" class="cls-2" transform="translate(2.813 32.392)" d="M0 11.899 11.899 0"/>
                    <path id="Line_5" data-name="Line 5" class="cls-2" transform="translate(5.268 36.756)" d="M0 13.808 13.808 0"/>
                    <path id="Line_6" data-name="Line 6" class="cls-2" transform="translate(11.542 41.12)" d="M0 11.899 11.899 0"/>
                </g>
            </g>
            <g id="Group_79" data-name="Group 79" transform="translate(395.201 527.884)">
                <path id="Path_93" data-name="Path 93" class="cls-2" d="M431.462 527.292a36.8 36.8 0 0 1-36.8 36.8" transform="translate(-394.663 -527.292)"/>
                <path id="Path_94" data-name="Path 94" class="cls-2" d="m435.057 532.124-4.026-4.832-4.031 4.832" transform="translate(-394.232 -527.292)"/>
            </g>
            <g id="Group_80" data-name="Group 80" transform="translate(354.376 491.086)">
                <path id="Path_95" data-name="Path 95" class="cls-2" d="M358.347 527.776a36.8 36.8 0 0 1 36.8-36.8" transform="translate(-354.321 -490.977)"/>
                <path id="Path_96" data-name="Path 96" class="cls-2" d="m354.374 522.524 4.026 4.831 4.026-4.831" transform="translate(-354.374 -490.557)"/>
            </g>
        </g>
    </g>
</svg>
