<svg xmlns="http://www.w3.org/2000/svg" width="308" height="305.359" viewBox="0 0 308 305.359">
    <defs>
        <style>
            .cls-3{fill:#a8a8a8}.cls-4,.cls-6{fill:#fff}.cls-6{stroke:#a8a8a8;stroke-width:1.5px}.cls-9{fill:none}.cls-8{stroke:none}
        </style>
    </defs>
    <g id="Group_1490" data-name="Group 1490" transform="translate(-590.75 -6226.451)">
        <g id="Group_1422" data-name="Group 1422" transform="translate(680.961 6323.019)">
            <g id="Group_1489" data-name="Group 1489">
                <ellipse id="Ellipse_52" data-name="Ellipse 52" cx="64.5" cy="64" rx="64.5" ry="64" transform="translate(-.211 .432)" style="opacity:.1;fill:#f04e30"/>
                <path id="Path_755" data-name="Path 755" d="M-85.039-20.588a2.024 2.024 0 0 1-1.205-.35 1.49 1.49 0 0 1-.61-.975l-2.366 1.146h-1.815v-5.029a1.913 1.913 0 0 1-1.287-.461 1.555 1.555 0 0 1-.5-1.22 1.54 1.54 0 0 1 .521-1.235 1.963 1.963 0 0 1 1.324-.446 1.963 1.963 0 0 1 1.324.446 1.54 1.54 0 0 1 .521 1.235v5.222h.074l2.708-1.309v-5.416h1.9v4.3a1.826 1.826 0 0 1-.03.327 1.23 1.23 0 0 1-.134.357 1.747 1.747 0 0 1 1.027.558 1.636 1.636 0 0 1 .387 1.123 1.614 1.614 0 0 1-.513 1.265 1.917 1.917 0 0 1-1.326.462zm0-.937a.79.79 0 0 0 .558-.186.629.629 0 0 0 .2-.484v-.238a.629.629 0 0 0-.2-.484.79.79 0 0 0-.558-.186.79.79 0 0 0-.558.186.629.629 0 0 0-.2.484v.238a.629.629 0 0 0 .2.484.79.79 0 0 0 .558.186zm-5.981-5.207a.67.67 0 0 0 .506-.2.75.75 0 0 0 .193-.543.75.75 0 0 0-.193-.543.67.67 0 0 0-.506-.2.67.67 0 0 0-.506.2.75.75 0 0 0-.193.543.75.75 0 0 0 .193.543.67.67 0 0 0 .506.2zm12.066 6.145a1.963 1.963 0 0 1-1.324-.446 1.54 1.54 0 0 1-.521-1.235v-7.409l-2.142-.818v-.521a3.536 3.536 0 0 1 .238-1.324 2.864 2.864 0 0 1 .67-1.012 2.923 2.923 0 0 1 1.041-.64 3.916 3.916 0 0 1 1.354-.223 4.225 4.225 0 0 1 1.83.35 3.613 3.613 0 0 1 1.235.96l-1.027 1.129a2.323 2.323 0 0 0-.774-.677 2.446 2.446 0 0 0-1.235-.29 1.879 1.879 0 0 0-1.16.357 1.321 1.321 0 0 0-.476 1.131l1.518.55a1.4 1.4 0 0 1 .655.424 1.219 1.219 0 0 1 .179.722v5.609a1.974 1.974 0 0 1 1.287.476 1.537 1.537 0 0 1 .5 1.205 1.54 1.54 0 0 1-.521 1.235 1.963 1.963 0 0 1-1.327.446zm.045-.937a.67.67 0 0 0 .506-.2.75.75 0 0 0 .193-.543.75.75 0 0 0-.193-.543.67.67 0 0 0-.506-.2.67.67 0 0 0-.506.2.75.75 0 0 0-.193.543.75.75 0 0 0 .193.543.67.67 0 0 0 .506.199zm6.264-2.693a1.056 1.056 0 0 0-.826.3 1.041 1.041 0 0 0-.275.722 1.04 1.04 0 0 0 .35.826 1.458 1.458 0 0 0 .989.3h.55a1.5 1.5 0 0 0 1.041-.35 1.247 1.247 0 0 0 .387-.974v-5.594h1.9v5.445a2.642 2.642 0 0 1-.937 2.2 4.22 4.22 0 0 1-2.678.744 4.91 4.91 0 0 1-2.544-.565 1.768 1.768 0 0 1-.937-1.592 1.377 1.377 0 0 1 .372-1.041 2.093 2.093 0 0 1 .922-.506v-.06a1.762 1.762 0 0 1-1.034-.7 2.105 2.105 0 0 1-.32-1.175v-.8a2.138 2.138 0 0 1 .558-1.547 1.978 1.978 0 0 1 1.5-.58 1.711 1.711 0 0 1 1.205.424 1.471 1.471 0 0 1 .461 1.138 1.348 1.348 0 0 1-.446 1.064 1.624 1.624 0 0 1-1.116.394 1.73 1.73 0 0 1-.55-.089.767.767 0 0 0 .171.558.977.977 0 0 0 .677.171h1.1v1.279zm-.967-2.693a.629.629 0 0 0 .476-.186.71.71 0 0 0 .179-.513.71.71 0 0 0-.179-.513.629.629 0 0 0-.476-.186.629.629 0 0 0-.476.186.711.711 0 0 0-.179.513.711.711 0 0 0 .179.513.629.629 0 0 0 .475.185zm8.585 4.776v-3.66a1.913 1.913 0 0 1-1.287-.461 1.555 1.555 0 0 1-.5-1.22 1.54 1.54 0 0 1 .521-1.235 1.963 1.963 0 0 1 1.324-.446 1.963 1.963 0 0 1 1.324.446 1.54 1.54 0 0 1 .521 1.235v5.341h1.7a1.509 1.509 0 0 0 1.049-.342 1.235 1.235 0 0 0 .375-.968v-5.535h1.9v5.49a2.508 2.508 0 0 1-.826 2.016 3.45 3.45 0 0 1-2.314.707h-4.984v-1.369zm.015-4.6a.67.67 0 0 0 .506-.2.75.75 0 0 0 .193-.543.75.75 0 0 0-.193-.543.67.67 0 0 0-.506-.2.67.67 0 0 0-.506.2.75.75 0 0 0-.193.543.75.75 0 0 0 .193.543.67.67 0 0 0 .505.202zm12.765 5.966v-5.52a1.461 1.461 0 0 0-.35-1.041 1.437 1.437 0 0 0-1.094-.372 1.827 1.827 0 0 0-1.086.3 2.719 2.719 0 0 0-.7.729l-1.131-.982a3.211 3.211 0 0 1 1.153-1.094 3.9 3.9 0 0 1 1.927-.409 3.464 3.464 0 0 1 2.373.722 2.633 2.633 0 0 1 .811 2.075v5.594zm7.247-3.45a1.056 1.056 0 0 0-.826.3 1.041 1.041 0 0 0-.275.722 1.04 1.04 0 0 0 .35.826 1.458 1.458 0 0 0 .989.3h.55a1.5 1.5 0 0 0 1.041-.35 1.247 1.247 0 0 0 .387-.974v-5.594h1.9v5.445a2.642 2.642 0 0 1-.937 2.2 4.22 4.22 0 0 1-2.678.744 4.91 4.91 0 0 1-2.544-.565 1.768 1.768 0 0 1-.937-1.592 1.377 1.377 0 0 1 .372-1.041 2.093 2.093 0 0 1 .922-.506v-.06a1.762 1.762 0 0 1-1.034-.7 2.105 2.105 0 0 1-.32-1.175v-.8a2.139 2.139 0 0 1 .558-1.547 1.978 1.978 0 0 1 1.5-.58 1.711 1.711 0 0 1 1.205.424 1.471 1.471 0 0 1 .461 1.138 1.348 1.348 0 0 1-.446 1.064 1.624 1.624 0 0 1-1.116.394 1.73 1.73 0 0 1-.55-.089.767.767 0 0 0 .171.558.977.977 0 0 0 .677.171h1.1v1.279zm-.967-2.693a.629.629 0 0 0 .476-.186.711.711 0 0 0 .179-.513.711.711 0 0 0-.179-.513.629.629 0 0 0-.476-.186.629.629 0 0 0-.476.186.711.711 0 0 0-.179.513.711.711 0 0 0 .179.513.629.629 0 0 0 .473.186zm9.492 6.323a1.963 1.963 0 0 1-1.324-.446 1.54 1.54 0 0 1-.521-1.235v-6.71h1.9v5.029a1.974 1.974 0 0 1 1.287.476 1.537 1.537 0 0 1 .5 1.205 1.54 1.54 0 0 1-.521 1.235 1.963 1.963 0 0 1-1.324.446zm.045-.937a.67.67 0 0 0 .506-.2.75.75 0 0 0 .193-.543.75.75 0 0 0-.193-.543.67.67 0 0 0-.506-.2.67.67 0 0 0-.506.2.75.75 0 0 0-.193.543.75.75 0 0 0 .193.543.67.67 0 0 0 .503.2zm3.913-4.27a1.913 1.913 0 0 1-1.287-.461 1.555 1.555 0 0 1-.5-1.22 1.54 1.54 0 0 1 .521-1.235 1.963 1.963 0 0 1 1.324-.446 1.963 1.963 0 0 1 1.324.446 1.54 1.54 0 0 1 .521 1.235v2.752l-.074 2.306h.074l1.607-6.308h1.041l1.607 6.308h.074l-.074-2.306v-4.255h1.9v7.279a1.026 1.026 0 0 1-.216.677.829.829 0 0 1-.677.26h-1.562l-1.547-6.07h-.06l-1.547 6.07h-2.452zm.015-.937a.67.67 0 0 0 .506-.2.75.75 0 0 0 .193-.543.75.75 0 0 0-.197-.544.67.67 0 0 0-.506-.2.67.67 0 0 0-.506.2.75.75 0 0 0-.193.543.75.75 0 0 0 .193.543.67.67 0 0 0 .507.201zm.521-4.225a3.168 3.168 0 0 1 .231-1.235 2.849 2.849 0 0 1 .632-.945 2.818 2.818 0 0 1 .945-.61 3.175 3.175 0 0 1 1.183-.216 2.639 2.639 0 0 1 .4.03l.387.06v-.727h1.488v1.4a3.048 3.048 0 0 1 .327.283 2.627 2.627 0 0 1 .268.312h.06V-34.6h1.607v4.166h-7.528zm3.586-1.726a2.786 2.786 0 0 0-1.413.335 1.291 1.291 0 0 0-.684.885H-26a1.33 1.33 0 0 0-.751-.885 3.509 3.509 0 0 0-1.649-.335zm3.794-1.1h-1.324l-.208-2.336h1.733zm6.427 13.2a4.48 4.48 0 0 1-2.611-.64 2.231 2.231 0 0 1-.9-1.949v-1.235a1.981 1.981 0 0 1 .528-1.465 1.824 1.824 0 0 1 1.346-.528 2.014 2.014 0 0 1 1.346.446 1.547 1.547 0 0 1 .528 1.25 1.535 1.535 0 0 1-.521 1.242 2.046 2.046 0 0 1-1.324.454.971.971 0 0 0 .3.729 1.238 1.238 0 0 0 .848.253h.922a1.22 1.22 0 0 0 .855-.268.962.962 0 0 0 .29-.744v-2.693a1.84 1.84 0 0 0-.58-1.443 2.32 2.32 0 0 0-1.607-.521 3.373 3.373 0 0 0-.915.112 3.145 3.145 0 0 0-.707.29 2.387 2.387 0 0 0-.536.409 4.922 4.922 0 0 0-.4.469l-1.146-1.041a3.769 3.769 0 0 1 .588-.655 3.5 3.5 0 0 1 .833-.543 5.012 5.012 0 0 1 1.108-.365 6.7 6.7 0 0 1 1.4-.134 4.167 4.167 0 0 1 2.871.893 3.145 3.145 0 0 1 1 2.47v2.618a2.231 2.231 0 0 1-.9 1.949 4.48 4.48 0 0 1-2.62.635zm-1.566-3.367a.714.714 0 0 0 .528-.2.754.754 0 0 0 .2-.558.754.754 0 0 0-.2-.558.714.714 0 0 0-.528-.2.714.714 0 0 0-.528.2.754.754 0 0 0-.2.558.754.754 0 0 0 .2.558.714.714 0 0 0 .528.2zM-84.14.15h-2.187a1.845 1.845 0 0 0-1.092.28 1.1 1.1 0 0 0-.454.751A1.592 1.592 0 0 1-87.1 1a1.586 1.586 0 0 1 1.1.4 1.406 1.406 0 0 1 .446 1.1 1.471 1.471 0 0 1-.461 1.138 1.732 1.732 0 0 1-1.22.424 2.126 2.126 0 0 1-1.585-.6 2.466 2.466 0 0 1-.588-1.8 2.5 2.5 0 0 1 .759-1.986 3.014 3.014 0 0 1 2.053-.662h2.455v-.268a1.8 1.8 0 0 0-.469-1.339 2.068 2.068 0 0 0-1.5-.461 2.853 2.853 0 0 0-.855.119 2.882 2.882 0 0 0-.684.312 2.5 2.5 0 0 0-.536.454 4.886 4.886 0 0 0-.409.528l-1.22-1.056a4.381 4.381 0 0 1 .617-.736A3.4 3.4 0 0 1-88.372-4a4.528 4.528 0 0 1 1.072-.369 6.3 6.3 0 0 1 1.361-.131 5.293 5.293 0 0 1 1.845.3v-1.151h1.9v.67a1.566 1.566 0 0 1-.655 1.369 3.187 3.187 0 0 1 .61 2.009v5.192h-1.9zm-3.06 3.084a.629.629 0 0 0 .476-.186.711.711 0 0 0 .179-.513.711.711 0 0 0-.179-.513.629.629 0 0 0-.476-.186.629.629 0 0 0-.476.186.711.711 0 0 0-.179.513.711.711 0 0 0 .179.513.629.629 0 0 0 .476.186zm3.5-8.9a4.313 4.313 0 0 1-2.336-.521 1.738 1.738 0 0 1-.8-1.562 1.649 1.649 0 0 1 .466-1.261 1.733 1.733 0 0 1 1.235-.446 1.638 1.638 0 0 1 1.175.409 1.364 1.364 0 0 1 .431 1.034 1.209 1.209 0 0 1-.186.692.814.814 0 0 1-.439.35v.03h.759q1.666 0 1.666-1.949v-.223h1.875v.223a2.9 2.9 0 0 1-1 2.477 4.677 4.677 0 0 1-2.853.75zm-1.45-1.47q.64 0 .64-.684t-.64-.684q-.64 0-.64.684t.64.684zm7.275 11.024-2.633-5.877h1.889l2.038 4.538h.922V-1.14a1.913 1.913 0 0 1-1.286-.46 1.555 1.555 0 0 1-.5-1.22 1.54 1.54 0 0 1 .521-1.235A1.963 1.963 0 0 1-75.6-4.5a1.963 1.963 0 0 1 1.324.446 1.54 1.54 0 0 1 .521 1.235v6.71zm2.232-5.966a.67.67 0 0 0 .506-.2.75.75 0 0 0 .193-.543.75.75 0 0 0-.193-.543.67.67 0 0 0-.506-.2.67.67 0 0 0-.506.2.75.75 0 0 0-.193.543.75.75 0 0 0 .193.543.67.67 0 0 0 .505.201zm4.508 1.027a3.459 3.459 0 0 1 .283-1.413 3.01 3.01 0 0 1 .818-1.094 3.763 3.763 0 0 1 1.3-.7 5.617 5.617 0 0 1 1.72-.242 5.617 5.617 0 0 1 1.718.245 3.763 3.763 0 0 1 1.3.7 3.01 3.01 0 0 1 .818 1.094 3.459 3.459 0 0 1 .283 1.413v4.937h-1.9V-.9a2.1 2.1 0 0 0-.58-1.584 2.266 2.266 0 0 0-1.637-.558 2.266 2.266 0 0 0-1.637.558A2.1 2.1 0 0 0-69.231-.9V.541h.074a2.489 2.489 0 0 1 .8-1.16 2.041 2.041 0 0 1 1.343-.481 1.65 1.65 0 0 1 1.16.409 1.448 1.448 0 0 1 .446 1.128 1.448 1.448 0 0 1-.446 1.123 1.65 1.65 0 0 1-1.16.409 1.494 1.494 0 0 1-1.019-.357 1.342 1.342 0 0 1-.454-.952h-.013a1.973 1.973 0 0 0-.558.811 3 3 0 0 0-.173 1.029v1.389h-1.9zm4.121 2.187a.594.594 0 0 0 .469-.193.735.735 0 0 0 .171-.506.735.735 0 0 0-.171-.506.594.594 0 0 0-.469-.193.594.594 0 0 0-.469.193.735.735 0 0 0-.171.506.735.735 0 0 0 .171.506.594.594 0 0 0 .469.193zm7.8 2.931a1.917 1.917 0 0 1-1.332-.461 1.614 1.614 0 0 1-.513-1.265 1.614 1.614 0 0 1 .513-1.265 1.917 1.917 0 0 1 1.328-.461h.089a1.044 1.044 0 0 1-.06-.245A2.509 2.509 0 0 1-59.2.08v-1.22a1.913 1.913 0 0 1-1.29-.46 1.555 1.555 0 0 1-.5-1.22 1.54 1.54 0 0 1 .521-1.235 1.963 1.963 0 0 1 1.325-.445 1.963 1.963 0 0 1 1.324.446 1.54 1.54 0 0 1 .52 1.233v4.046l2.41 1.16h.074v-6.71h1.9v8.214h-1.8l-2.678-1.309a1.537 1.537 0 0 1-.573 1.094 1.964 1.964 0 0 1-1.251.393zm0-.937a.79.79 0 0 0 .558-.186.629.629 0 0 0 .2-.484v-.238a.629.629 0 0 0-.2-.484.79.79 0 0 0-.558-.186.79.79 0 0 0-.558.186.629.629 0 0 0-.2.484v.238a.629.629 0 0 0 .2.484.79.79 0 0 0 .554.186zm.03-5.207a.67.67 0 0 0 .506-.2.75.75 0 0 0 .193-.543.75.75 0 0 0-.193-.543.67.67 0 0 0-.506-.2.67.67 0 0 0-.506.2.75.75 0 0 0-.193.543.75.75 0 0 0 .193.543.67.67 0 0 0 .501.2zm13.9 2.232h-2.196a1.845 1.845 0 0 0-1.093.275 1.1 1.1 0 0 0-.454.751A1.592 1.592 0 0 1-48.253 1a1.586 1.586 0 0 1 1.1.4 1.406 1.406 0 0 1 .446 1.1 1.471 1.471 0 0 1-.461 1.138 1.732 1.732 0 0 1-1.22.424 2.126 2.126 0 0 1-1.584-.6 2.466 2.466 0 0 1-.588-1.8 2.5 2.5 0 0 1 .76-1.976 3.014 3.014 0 0 1 2.053-.662h2.455v-.268a1.8 1.8 0 0 0-.469-1.339 2.068 2.068 0 0 0-1.5-.461 2.853 2.853 0 0 0-.855.119 2.882 2.882 0 0 0-.684.312 2.5 2.5 0 0 0-.536.454 4.885 4.885 0 0 0-.409.528l-1.22-1.056a4.381 4.381 0 0 1 .617-.736A3.4 3.4 0 0 1-49.526-4a4.528 4.528 0 0 1 1.071-.372 6.3 6.3 0 0 1 1.362-.128 5.293 5.293 0 0 1 1.845.3v-1.151h1.9v.67A1.566 1.566 0 0 1-44-3.312a3.187 3.187 0 0 1 .61 2.009v5.192h-1.9zm-3.065 3.08a.629.629 0 0 0 .476-.186.711.711 0 0 0 .179-.513.711.711 0 0 0-.179-.513.629.629 0 0 0-.476-.186.629.629 0 0 0-.476.186.711.711 0 0 0-.179.513.711.711 0 0 0 .179.513.629.629 0 0 0 .467.185zm.327 4.925a1.626 1.626 0 0 1-1.1-.372 1.284 1.284 0 0 1-.431-1.027 1.284 1.284 0 0 1 .431-1.027 1.626 1.626 0 0 1 1.1-.372 1.626 1.626 0 0 1 1.1.372A1.284 1.284 0 0 1-46.5 6.76v1.4h.774a.727.727 0 0 0 .558-.186.849.849 0 0 0 .168-.589v-1.9h1.607v1.77a2.541 2.541 0 0 1-.469 1.592 1.7 1.7 0 0 1-1.436.61h-1.354a1.456 1.456 0 0 1-1.034-.3 1.033 1.033 0 0 1-.3-.774v-.224zm-.045-.848q.521 0 .521-.55t-.521-.55q-.521 0-.521.55t.513.549zm9.046-3.422-2.633-5.877h1.889l2.038 4.538h.922V-1.14A1.913 1.913 0 0 1-38.1-1.6a1.555 1.555 0 0 1-.5-1.22 1.54 1.54 0 0 1 .521-1.235 1.963 1.963 0 0 1 1.326-.445 1.963 1.963 0 0 1 1.324.446 1.54 1.54 0 0 1 .521 1.235v6.71zm2.221-5.967a.67.67 0 0 0 .506-.2.75.75 0 0 0 .193-.543.75.75 0 0 0-.193-.543.67.67 0 0 0-.506-.2.67.67 0 0 0-.506.2.75.75 0 0 0-.193.543.75.75 0 0 0 .193.543.67.67 0 0 0 .506.2zm7.9 6.145a1.963 1.963 0 0 1-1.324-.446 1.54 1.54 0 0 1-.521-1.235 1.537 1.537 0 0 1 .5-1.205A1.973 1.973 0 0 1-28.957.7v-2.316a1.464 1.464 0 0 0-.357-1.056 1.485 1.485 0 0 0-1.116-.372 1.918 1.918 0 0 0-1.123.3 2.672 2.672 0 0 0-.707.729L-33.391-3a3.177 3.177 0 0 1 1.168-1.094 3.989 3.989 0 0 1 1.942-.406 3.544 3.544 0 0 1 2.41.722 2.62 2.62 0 0 1 .818 2.075v4.089a1.54 1.54 0 0 1-.521 1.235 1.963 1.963 0 0 1-1.326.446zm-.045-.937a.67.67 0 0 0 .506-.2.75.75 0 0 0 .193-.543.75.75 0 0 0-.193-.543.67.67 0 0 0-.506-.2.67.67 0 0 0-.506.2.75.75 0 0 0-.193.543.75.75 0 0 0 .193.543.67.67 0 0 0 .509.199zm.417-8.793a4.313 4.313 0 0 1-2.336-.521 1.738 1.738 0 0 1-.8-1.562 1.649 1.649 0 0 1 .476-1.265 1.733 1.733 0 0 1 1.235-.446 1.638 1.638 0 0 1 1.175.409 1.364 1.364 0 0 1 .431 1.034 1.209 1.209 0 0 1-.186.692.814.814 0 0 1-.439.35v.03h.759q1.666 0 1.666-1.949v-.223h1.875v.223a2.9 2.9 0 0 1-1 2.477 4.677 4.677 0 0 1-2.853.75zm-1.443-1.473q.64 0 .64-.684t-.64-.684q-.64 0-.64.684t.642.683zm8.26 7.572a1.056 1.056 0 0 0-.826.3 1.041 1.041 0 0 0-.275.722 1.04 1.04 0 0 0 .35.826 1.458 1.458 0 0 0 .989.3h.55a1.5 1.5 0 0 0 1.041-.35 1.247 1.247 0 0 0 .387-.974v-5.585h1.9v5.445a2.642 2.642 0 0 1-.937 2.2 4.22 4.22 0 0 1-2.678.744 4.91 4.91 0 0 1-2.54-.565 1.768 1.768 0 0 1-.937-1.592 1.377 1.377 0 0 1 .372-1.04 2.093 2.093 0 0 1 .922-.506V.3a1.762 1.762 0 0 1-1.034-.7 2.105 2.105 0 0 1-.32-1.175v-.8a2.139 2.139 0 0 1 .558-1.547 1.978 1.978 0 0 1 1.5-.58 1.711 1.711 0 0 1 1.205.424 1.471 1.471 0 0 1 .461 1.138 1.348 1.348 0 0 1-.446 1.064 1.624 1.624 0 0 1-1.116.394 1.73 1.73 0 0 1-.55-.089.767.767 0 0 0 .171.558.977.977 0 0 0 .677.171h1.1V.437zm-.967-2.693a.629.629 0 0 0 .476-.186.711.711 0 0 0 .179-.513.711.711 0 0 0-.179-.513.629.629 0 0 0-.476-.186.629.629 0 0 0-.476.186.711.711 0 0 0-.179.513.711.711 0 0 0 .179.513.629.629 0 0 0 .476.186z" transform="translate(120.249 76.954)" style="fill:#191919"/>
            </g>
        </g>
        <g id="Group_1185" data-name="Group 1185" transform="translate(590.75 6226.587)">
            <path id="Ellipse_142" data-name="Ellipse 142" class="cls-3" d="M21.254 1.275a19.984 19.984 0 0 0-7.776 38.388A19.984 19.984 0 0 0 29.03 2.845a19.853 19.853 0 0 0-7.776-1.57m0-1.275A21.254 21.254 0 1 1 0 21.254 21.254 21.254 0 0 1 21.254 0z" transform="translate(73.781 262.715)"/>
            <circle id="Ellipse_138" data-name="Ellipse 138" class="cls-4" cx="21.5" cy="21.5" r="21.5" transform="translate(0 175.863)"/>
            <path id="Ellipse_138_-_Outline" data-name="Ellipse 138 - Outline" class="cls-3" d="M21.254 1.275a19.984 19.984 0 0 0-7.776 38.388A19.984 19.984 0 0 0 29.03 2.845a19.853 19.853 0 0 0-7.776-1.57m0-1.275A21.254 21.254 0 1 1 0 21.254 21.254 21.254 0 0 1 21.254 0z" transform="translate(.242 175.574)"/>
            <circle id="Ellipse_147" data-name="Ellipse 147" class="cls-4" cx="21" cy="21" r="21" transform="translate(266 175.863)"/>
            <path id="Ellipse_147_-_Outline" data-name="Ellipse 147 - Outline" class="cls-3" d="M21.254 1.275a19.984 19.984 0 0 0-7.776 38.388A19.984 19.984 0 0 0 29.03 2.845a19.853 19.853 0 0 0-7.776-1.57m0-1.275A21.254 21.254 0 1 1 0 21.254 21.254 21.254 0 0 1 21.254 0z" transform="translate(265.492 175.574)"/>
            <ellipse id="Ellipse_148" data-name="Ellipse 148" class="cls-4" cx="21" cy="21.5" rx="21" ry="21.5" transform="translate(245 56.863)"/>
            <path id="Ellipse_148_-_Outline" data-name="Ellipse 148 - Outline" class="cls-3" d="M21.254 1.275a19.984 19.984 0 0 0-7.776 38.388A19.984 19.984 0 0 0 29.03 2.845a19.853 19.853 0 0 0-7.776-1.57m0-1.275A21.254 21.254 0 1 1 0 21.254 21.254 21.254 0 0 1 21.254 0z" transform="translate(244.663 57.401)"/>
            <g id="Group_1132" data-name="Group 1132" transform="translate(43.529 44.011)">
                <path id="Ellipse_53" data-name="Ellipse 53" d="M79.719 0h.666q.365 0 .73.009h.312l.418.01-.022.85c-.7-.018-1.4-.028-2.1-.028V0zm4.25.111h.142c.549.03 1.092.065 1.638.106H85.891l.2.015-.067.848c-.7-.055-1.4-.1-2.1-.138l.045-.849zm4.238.335c.327.035.654.071.979.11h.276q.428.052.854.109l-.112.843a76.684 76.684 0 0 0-2.088-.249l.089-.845zm4.213.56c.368.059.736.12 1.1.184h.271l.12.021H94.278l.212.04h.009l-.157.836a75.908 75.908 0 0 0-2.071-.36l.134-.839zm4.18.784.029.006q1.024.221 2.039.469l-.2.826a79.913 79.913 0 0 0-2.049-.471zm4.125 1.01.4.111.026.007h.006l.022.006h.011l.019.005h.06l.023.006h.007l.159.045.031.009.03.009.031.009.286.082.027.008h.007l.024.007h.008l.022.006h.01l.02.006h.012l.018.005h.013l.017.005H102.07c.228.067.457.135.685.2l-.245.814c-.668-.2-1.348-.4-2.021-.58l.223-.82zm4.069 1.227.431.144.023.008h.008l.019.007h.011l.018.006h.012l.017.006h.013l.017.006h.014l.015.005.016.005h.014l.017.006h.013l.021.007h.009l.03.01h.007l.023.008h.013l.017.006h.013l.017.006h.014l.017.006h.014l.015.005.016.005h.014l.016.006h.013l.017.006h.012l.019.006h.008l.023.008c.334.116.664.232 1 .352l-.289.8a81.759 81.759 0 0 0-1.987-.688zm4 1.444H108.815l.019.007h.009l.022.009.534.212.026.01.024.01h.006l.022.009h.007l.021.008h.009l.02.008h.009l.02.008.013.005.015.006.059.024.029.012.028.011.028.012.029.012q.492.2.981.407l-.331.783c-.643-.272-1.3-.539-1.947-.793zm3.914 1.656q.968.441 1.922.906l-.373.764a96.8 96.8 0 0 0-1.9-.9zm3.82 1.864q.943.492 1.871 1.008l-.413.743a91.53 91.53 0 0 0-1.851-1l.393-.754zm3.715 2.065q.408.241.813.487l.024.014.024.015.178.108.023.014.022.014.022.013.022.013.022.014.023.014.073.045.019.012h.007l.018.011.01.006.017.01.01.006.017.01.011.007.015.009.012.007.014.009.014.009.013.008.016.01.01.006.054.034.054.039h.006l.021.013h.007l.021.013.024.015.025.016.14.088-.452.72c-.591-.371-1.2-.739-1.8-1.094l.433-.732zm3.6 2.26q.442.294.879.594l.022.015h.005l.021.014h.006l.02.014h.007l.019.013.008.006.019.013.007.005.025.017.016.011.009.006.019.013h.006l.021.014.021.015.023.016c.2.135.392.273.586.409l-.49.695c-.57-.4-1.154-.8-1.735-1.188zm3.474 2.449q.652.486 1.293.985l.008.006.016.012.013.01.012.009.015.012.008.006.018.014h.006l.02.016.277.217-.526.668a79.253 79.253 0 0 0-1.669-1.279zm3.339 2.63.37.309.022.019.205.173.022.019.2.174.022.019.022.019.158.135.02.017.019.017.02.017.02.017.02.018.06.052.008.007.013.011.012.01.011.009.013.011.01.009.014.012.009.008.016.014.008.007.019.016.274.239-.561.639c-.525-.46-1.063-.92-1.6-1.366l.544-.654zm3.2 2.8.257.239.006.006.014.014.009.008.012.012.012.011.01.009.015.014.008.007.018.017h.005l.021.02q.581.545 1.152 1.1l-.594.608c-.5-.487-1.012-.975-1.524-1.449l.577-.624zm3.042 2.968.019.019.018.018.006.006.016.017.006.006.015.016.008.008.015.016.007.007.017.017.006.006.022.022.011.011.01.011.012.013.01.01.013.014.007.008.015.016.006.006.016.017.017.018c.318.33.629.66.941 1l.016.018.006.006.013.014.009.01.011.012.012.013.008.009.016.018.134.145-.625.576a77.171 77.171 0 0 0-1.446-1.527zm2.88 3.125.01.011.02.022.116.133.016.018v.005l.015.017.006.007.014.016.007.009.013.014.009.01.012.014.008.01.012.014.008.01.012.014.011.013.019.022.01.011.011.013.009.011.011.013.01.012.009.011.012.014.008.01.013.015.008.009.013.015.007.009.016.018v.005l.02.024.043.05.019.022.018.021.018.021.017.02.018.021.02.023.086.1.021.024.02.023.019.022.02.024.107.127.02.024.018.022.018.021.018.021.018.021.02.024.042.05.016.019.007.008.013.016.008.009.012.015.009.011.01.012.011.013.008.01.013.016.005.006.015.018.143.172-.655.542a66.54 66.54 0 0 0-1.363-1.6zm2.711 3.274q.656.836 1.289 1.69l-.683.507a79.292 79.292 0 0 0-1.276-1.672zm2.533 3.413.341.49.017.025.016.024.018.026.056.081v.007l.014.02.005.008.012.018.006.009.012.017.007.01.011.016.007.01.011.016.007.01.011.015.008.011.011.016.007.011.012.017.011.016.012.018.008.011.01.015.008.012.01.015.007.011.011.016.007.011.011.016.007.01.011.016.007.01.012.017.006.009.013.02v.007l.073.108.017.025.017.026q.167.248.332.5l-.709.47a78.177 78.177 0 0 0-1.185-1.737zm2.348 3.543.154.247.012.02v.007l.01.017.007.011.009.015.008.013.008.013.01.017.006.009.012.019v.007l.016.025q.427.692.84 1.394l-.733.431c-.354-.6-.721-1.206-1.091-1.8l.721-.451zm2.156 3.663q.442.8.866 1.608l.014.027v.007l.011.021v.009l.01.018.006.011.008.016.007.013.007.013.008.016.005.01.009.018.042.08-.755.392a76.594 76.594 0 0 0-.993-1.853zm1.957 3.773q.464.955.9 1.924l-.774.351a73.225 73.225 0 0 0-.893-1.9zm1.753 3.872.083.2.01.024v.006l.009.021v.01l.007.017.008.019v.009q.344.827.669 1.663l-.792.309a80.164 80.164 0 0 0-.789-1.949zm1.543 3.961c.148.414.294.831.436 1.248l.008.025v.005l.007.021v.01l.006.018v.013l.006.017v.014l.005.016v.014l.005.015.005.016v.014l.006.018v.012l.007.021v.009l.042.125.125.378-.808.266a77.728 77.728 0 0 0-.684-1.989zm1.328 4.038.075.252v.006l.007.024v.009l.006.021v.011l.006.019v.012l.005.018v.086l.006.019v.006l.022.076v.008l.005.018v.013l.005.017v.013l.005.018V57.625l.005.018v.012l.006.022v.008l.036.126.008.03.009.03q.141.495.275.992l-.821.222a78.876 78.876 0 0 0-.576-2.022zm1.109 4.1.2.838.007.029.006.026v.006l.006.024v.025q.128.558.247 1.118l-.831.177c-.146-.682-.3-1.372-.466-2.05zm.887 4.157.06.325.005.028V65.549q.118.655.225 1.315V67.041l.021.13-.84.133a79.999 79.999 0 0 0-.356-2.072zm.663 4.2q.112.854.205 1.713v.108l.03.285-.846.088c-.072-.694-.154-1.4-.245-2.089zm.439 4.228.043.581V74.386l.016.252V74.869c.014.238.027.475.039.714l-.849.043c-.035-.7-.08-1.4-.134-2.1l.848-.065zm.214 4.245q0 .183.008.366V79.884h-.85v-.161c0-.645-.008-1.3-.023-1.942zm-.858 4.227.85.024q-.03 1.065-.088 2.124l-.849-.046c.032-.696.062-1.403.081-2.101zm-.229 4.2.847.069-.042.5V86.989c-.03.336-.063.669-.1 1V88.224l-.014.131-.845-.091c.022-.681.092-1.385.148-2.081zm-.451 4.181.843.114-.009.065v.168c-.041.3-.084.6-.129.9V91.825l-.01.064v.154l-.083.523-.839-.136c.024-.675.128-1.374.221-2.066zm-.673 4.151.835.159-.085.441-.005.027v.188l-.006.032V95.729c-.07.342-.142.687-.217 1.027l-.831-.181c.032-.682.173-1.375.301-2.061zm-.894 4.108.826.2-.007.027-.007.028-.024.1-.007.03v.007l-.006.025v.009l-.005.022v.012l-.005.02v.011l-.005.021v.01l-.005.022v.01l-.005.021v.01l-.006.022v.009l-.006.024v.008l-.007.027-.032.128-.007.029-.007.028-.007.028-.007.028-.007.029q-.165.643-.34 1.282l-.82-.225c.145-.639.323-1.324.489-2.001zm-1.114 4.054.813.247c-.051.166-.1.335-.154.5l-.008.027-.008.025-.008.026-.008.026-.008.027c-.144.46-.293.921-.445 1.378l-.807-.269c.209-.644.424-1.318.627-1.986zm-1.33 3.989.8.29q-.159.437-.323.872l-.012.031-.011.03-.059.154-.011.028v.009l-.008.021v.011l-.007.018v.013l-.007.017-.005.013-.006.015-.006.016-.005.013-.006.017v.012l-.007.018v.009q-.128.334-.259.667l-.791-.312c.228-.644.479-1.305.717-1.961zm-1.542 3.912.782.333c-.278.654-.563 1.3-.858 1.944l-.773-.354c.284-.633.57-1.28.843-1.922zm-1.75 3.823.763.374q-.145.295-.292.589l-.012.023v.005l-.011.021v.007l-.011.021v.007l-.01.02v.008l-.01.02v.008l-.01.02v.009l-.01.019-.005.01-.009.017v.008l-.02.039v.008l-.009.018-.005.01-.008.017-.006.012-.008.016-.006.012-.008.017-.006.012-.008.016-.006.013-.008.015-.007.013-.008.015-.006.012-.008.016-.005.01-.009.018-.021.041-.006.012-.009.018v.01l-.009.018-.005.011-.008.016-.006.012-.009.017-.005.011-.009.018v.009l-.01.019v.008l-.01.02v.006l-.08.156-.013.026-.013.026-.176.337-.753-.395c.267-.613.587-1.244.894-1.871zm-1.952 3.724.742.415c-.345.618-.7 1.234-1.061 1.842l-.731-.434c.351-.599.704-1.212 1.044-1.821zm-2.148 3.615.719.454c-.152.241-.3.479-.459.718l-.014.022v.005l-.013.02v.007l-.012.019-.005.008-.012.018-.005.008-.011.018-.006.009-.011.017-.007.01-.013.021-.014.021-.006.009-.012.018-.006.009-.011.017-.006.009-.012.018-.006.009-.012.019v.007l-.013.021v.006l-.015.023-.017.026q-.218.333-.439.664l-.707-.473c.362-.572.747-1.165 1.119-1.755zm-2.338 3.5.694.491q-.615.868-1.251 1.718l-.681-.509c.414-.561.83-1.133 1.233-1.703zm-2.52 3.366.667.527-.366.46-.014.018-.006.007-.012.015-.008.01-.011.014-.009.011-.01.012-.011.014-.009.011-.011.014-.008.01-.013.016-.007.009-.04.049v.006l-.016.02-.005.007-.014.018-.006.008-.014.018-.006.007-.014.017-.007.008-.014.017-.006.008-.014.018-.006.007-.017.021-.041.051-.02.024-.016.02-.006.007-.015.018-.007.008-.014.017-.007.008-.014.017-.006.008-.015.018v.006l-.018.021-.041.05-.018.022v.005l-.016.019-.006.007-.015.018-.005.006-.015.018-.007.008-.014.017-.006.007-.016.02-.019.024-.063.076-.018.022-.016.02-.005.006-.016.02-.017.021-.019.023-.106.127-.653-.545c.393-.496.839-1.046 1.272-1.596zm-2.7 3.228.638.562c-.275.312-.549.619-.829.926l-.019.02-.019.021-.073.08-.007.008-.011.012-.011.012-.009.01-.013.015-.008.008-.014.015-.007.008-.015.017-.006.006-.017.019-.359.389-.623-.579c.466-.503.941-1.028 1.402-1.551zm-2.862 3.081.607.595q-.732.747-1.483 1.475l-.021.021-.591-.611c.497-.485.999-.984 1.487-1.482zm-3.022 2.925.575.626c-.523.48-1.049.95-1.585 1.416l-.558-.641c.526-.46 1.054-.932 1.568-1.403zm-3.172 2.761.541.656-.555.453-.02.016h-.006l-.017.014-.008.006-.015.012-.012.01-.011.009-.018.015h-.006q-.491.4-.988.784l-.523-.67a68.757 68.757 0 0 0 1.637-1.305zm-3.314 2.588.505.684q-.667.493-1.345.973l-.025.018-.023.016h-.006l-.021.015h-.006l-.021.015h-.005l-.026.018-.025.017-.017.012-.008.006-.017.012-.008.006-.017.012-.008.006-.019.013-.021.015-.1.067-.487-.7c.563-.38 1.138-.793 1.699-1.207zm-3.447 2.409.468.71q-.346.228-.695.453l-.026.017-.025.016-.027.017-.082.053-.009.006-.018.011-.012.008-.013.009-.015.01-.011.007-.017.011-.009.006-.018.011h-.007l-.02.013a67.78 67.78 0 0 1-.776.489l-.449-.722a71.16 71.16 0 0 0 1.758-1.128zm-3.57 2.222.43.734-.056.033-.026.015-.023.014h-.006l-.023.013-.02.012-.085.049-.025.015c-.427.248-.859.493-1.291.733l-.019.01h-.005l-.024.013-.231.128-.41-.745a67.611 67.611 0 0 0 1.813-1.027zm-3.683 2.028.39.755q-.692.358-1.393.7l-.024.012h-.009l-.019.009-.012.006-.016.008-.014.007-.013.006-.016.008h-.01l-.021.01-.349.17-.37-.766a52.568 52.568 0 0 0 1.875-.928zm-3.786 1.828.349.775-.048.022-.023.01h-.006l-.021.009h-.008l-.02.009h-.008l-.02.009h-.01l-.019.009h-.009l-.02.009h-.008l-.072.032-.018.008h-.011l-.018.008h-.01l-.018.008h-.01l-.019.008h-.009l-.019.009h-.009l-.02.009h-.007l-.022.01-.024.011c-.37.163-.737.322-1.109.48l-.02.008h-.012l-.016.007-.014.006-.014.006-.018.008h-.009l-.024.01-.183.077-.328-.784c.617-.207 1.266-.489 1.902-.776zm-3.879 1.623.307.793c-.243.094-.486.187-.731.279l-.024.009h-.007l-.02.007h-.011l-.017.006-.014.005-.015.005-.018.007h-.011q-.559.209-1.121.409l-.286-.8a66.537 66.537 0 0 0 1.966-.718zm-3.961 1.412.264.808c-.48.157-.957.308-1.441.455l-.026.008h-.006l-.023.007h-.008l-.022.007h-.01l-.019.006h-.012l-.018.005h-.03l-.028.009-.063.019-.03.009-.03.009-.03.009-.03.009-.191.057-.242-.815c.655-.178 1.33-.388 1.993-.605zm-4.03 1.2.22.821q-.5.133-.995.26l-.03.008-.028.007-.027.007h-.006l-.028.007-.029.007-.064.016-.026.007h-.184l-.02.005h-.01l-.021.005h-.009l-.023.006h-.024l-.171.042h-.006l-.022.005h-.01l-.021.005h-.01l-.021.005h-.01l-.021.005H98.413l-.063.015-.2-.827c.683-.057 1.368-.231 2.042-.416zm-4.089.979.176.832q-.389.082-.779.161l-.064.013-.423.083-.03.006-.03.006-.031.006-.044.004-.032.006-.163.031-.028.005h-.179l-.027.005-.248.046-.153-.836a28.496 28.496 0 0 0 2.05-.373zm-4.136.759.131.84-.481.073H91.197l-.142.02h-.241l-.369.05H90.191l-.2.026-.109-.843c.696.036 1.396-.064 2.085-.171zm-4.171.537.086.846-.389.039H87.065l-.3.027H86.402l-.131.011H85.984l-.214.016-.064-.848c.694.036 1.394-.026 2.094-.097zm-4.194.315.041.849-.52.024h-.581a69.46 69.46 0 0 1-1.023.029l-.019-.85c.698.001 1.404-.024 2.098-.058zm-6.309.057c.7.021 1.4.033 2.1.036v.85H78.813c-.4 0-.789-.012-1.185-.022H77.6l-.33-.009zm-4.2-.238c.695.058 1.4.107 2.1.147l-.048.849a87.133 87.133 0 0 1-1.147-.073H73.648l-.624-.049zm-4.18-.46c.691.095 1.393.181 2.087.258l-.093.845c-.261-.029-.52-.058-.78-.09H69.804l-.107-.013H69.187l-.064-.009H68.797zm-4.149-.682c.685.131 1.381.255 2.07.369l-.138.839a88.68 88.68 0 0 1-1.271-.219h-.164l-.029-.005-.618-.116zm-4.106-.9c.677.168 1.366.329 2.047.479l-.183.83q-.526-.116-1.049-.238l-.03-.007-.03-.007-.144-.034H60.904l-.024-.006-.03-.007h-.038l-.021-.005h-.009l-.022-.005h-.009l-.024-.006h-.006l-.026-.006-.028-.007-.208-.051zm-4.053-1.122c.667.2 1.346.4 2.019.588l-.227.819q-1.026-.284-2.041-.595zm-3.986-1.338c.655.24 1.323.474 1.984.7l-.271.806-.251-.085-.025-.009h-.007l-.023-.008h-.009l-.02-.007h-.012l-.017-.006H53.941l-.017-.006h-.011l-.164-.056-.028-.01-.027-.009-.027-.009-.316-.11-.057-.02-.23-.081-.027-.01-.037-.047-.025-.009-.025-.009-.026-.009-.027-.01-.553-.2zm-3.908-1.55c.641.275 1.3.544 1.944.8l-.313.79q-.989-.392-1.965-.81zm-3.82-1.757a60.98 60.98 0 0 0 1.9.9l-.355.772-.291-.135-.021-.01h-.009l-.018-.008-.012-.006-.015-.007-.022-.016-.012-.005-.019-.009h-.009l-.023-.011h-.005q-.525-.246-1.047-.5h-.006l-.021-.01-.011-.006-.016-.008-.015-.007-.012-.006-.018-.009h-.009l-.021-.01-.285-.14zm-3.721-1.96c.609.342 1.23.68 1.847 1l-.4.752-.352-.187-.028-.015-.026-.014-.024-.013h-.006l-.023-.012h-.006l-.024-.013h-.005l-.025-.014-.058-.031-.024-.013-.01-.005-.018-.01-.012-.007-.015-.008-.013-.007-.015-.008-.014-.008-.013-.007-.015-.008-.013-.007-.016-.008-.012-.006-.016-.009-.011-.006-.017-.009-.07-.038h-.008l-.02-.011h-.007l-.02-.011h-.007l-.02-.011h-.006l-.021-.011h-.006l-.022-.012-.024-.013q-.4-.22-.8-.445zm-3.611-2.155c.589.374 1.192.744 1.791 1.1l-.436.73-.342-.205-.027-.02-.027-.017-.141-.085-.024-.014h-.007l-.02-.012h-.008l-.019-.012-.009-.005-.019-.011-.009-.006-.017-.011-.01-.006-.019-.011-.008-.005-.055-.034-.022-.014-.01-.006-.017-.011-.01-.006-.017-.011-.01-.006-.017-.011-.01-.006-.017-.011-.01-.006-.019-.012h-.008l-.021-.013h-.006l-.111-.069-.026-.016-.026-.016-.027-.017q-.324-.2-.647-.406zm-3.491-2.345c.569.4 1.151.807 1.73 1.2l-.474.706-.219-.148-.026-.017-.081-.07-.008-.006-.018-.012-.012-.008-.013-.009-.016-.011-.009-.006-.018-.012h-.007l-.02-.014-.022-.015a84.859 84.859 0 0 1-1.271-.885zm-3.361-2.527a76.76 76.76 0 0 0 1.664 1.286l-.511.68q-.85-.639-1.682-1.3zm-3.223-2.7c.523.462 1.059.924 1.593 1.372l-.546.652-.344-.29-.007-.006-.014-.012-.011-.009-.012-.01-.013-.011-.01-.008-.017-.014-.006-.005-.021-.018q-.581-.495-1.153-1zm-3.075-2.869c.5.489 1.008.979 1.518 1.455l-.58.622a85.125 85.125 0 0 1-1.535-1.47zm-2.919-3.028c.471.515.955 1.031 1.439 1.533l-.612.59q-.219-.227-.436-.456l-.02-.022-.019-.02-.018-.019-.005-.005-.017-.018-.006-.006-.017-.018-.005-.006-.019-.02-.044-.047-.007-.007-.015-.016-.01-.01-.011-.012-.011-.011-.011-.011-.011-.012-.01-.01-.012-.013-.009-.009-.014-.015-.006-.006-.015-.016-.076-.081-.018-.019-.017-.018-.017-.018-.018-.02-.363-.392-.019-.02-.019-.021-.116-.127-.005-.005zm-2.754-3.178c.443.539.9 1.08 1.356 1.607l-.642.557q-.206-.238-.411-.478l-.019-.022-.022-.035-.02-.023-.085-.1-.017-.02-.005-.006-.016-.019-.005-.006-.016-.019-.017-.02-.018-.022-.124-.142-.02-.024-.02-.024-.021-.025-.361-.433-.021-.025-.084-.1-.016-.019-.01-.012-.009-.011-.013-.016-.006-.008-.006-.007zm-2.582-3.319c.414.562.84 1.126 1.269 1.677l-.671.522q-.275-.354-.546-.71l-.019-.025-.018-.023-.018-.024-.079-.1-.018-.024-.016-.022v-.005l-.016-.021-.016-.022-.018-.024-.5-.666zm-2.4-3.452a78.18 78.18 0 0 0 1.178 1.742l-.7.486c-.174-.25-.348-.5-.519-.755l-.016-.023-.015-.022-.015-.023-.016-.024-.1-.147-.015-.022-.015-.022-.015-.022-.016-.023-.1-.149-.016-.024-.015-.022-.015-.023-.016-.024-.1-.147-.015-.022-.014-.021v-.005l-.013-.02v-.006l-.013-.019-.005-.008-.012-.018v-.007l-.012-.019-.005-.008-.015-.023-.013-.02-.006-.009-.012-.018-.006-.01-.011-.017zm-2.215-3.575c.351.6.716 1.209 1.083 1.8l-.723.448-.034-.055-.013-.021-.006-.009-.01-.016-.009-.014-.007-.011-.01-.017v-.008l-.012-.02q-.5-.815-.984-1.642zm-2.021-3.696c.319.62.65 1.245.986 1.857l-.746.409-.285-.525-.014-.027-.013-.024v-.007l-.011-.021v-.008l-.011-.02v-.009l-.011-.02v-.008l-.01-.019-.005-.01-.01-.018-.005-.01-.013-.024-.009-.017-.007-.014-.01-.018v-.009l-.01-.018-.005-.01-.01-.018-.005-.009-.01-.019v-.008l-.011-.021-.012-.023a82.223 82.223 0 0 1-.486-.931zm-1.82-3.79c.285.637.583 1.278.885 1.907l-.766.368a85.517 85.517 0 0 1-.435-.921l-.011-.025-.011-.023v-.006l-.01-.021v-.009l-.009-.02v-.009l-.009-.019v-.009l-.009-.02v-.008l-.009-.02-.005-.011-.014-.031-.007-.014-.006-.013-.007-.016-.006-.012-.008-.018v-.01l-.009-.019v-.011l-.009-.019v-.01l-.009-.02v-.009l-.01-.023v-.006l-.012-.026-.246-.544zm-1.615-3.883c.251.651.513 1.308.781 1.952l-.785.326-.089-.214-.011-.027v-.006l-.01-.024v-.007l-.009-.023v-.007l-.009-.023v-.007l-.01-.023v-.007l-.01-.024v-.006l-.011-.027-.024-.06v-.009l-.008-.02v-.012l-.007-.017-.006-.014-.006-.016-.006-.014-.006-.015-.006-.015-.006-.014-.006-.016-.005-.013-.007-.016-.005-.013-.034-.022v-.01l-.008-.02-.031-.078-.009-.022v-.008l-.008-.02v-.009l-.008-.019v-.011l-.007-.019v-.01l-.008-.019v-.009l-.009-.021v-.007l-.009-.022v-.007l-.009-.023-.056-.14-.01-.026-.01-.024v-.005l-.009-.024-.01-.025-.01-.025-.01-.026c-.08-.2-.16-.407-.238-.611zm-1.4-3.963c.215.664.442 1.333.675 1.991l-.8.284-.158-.45-.009-.025v-.007l-.008-.022v-.009l-.007-.019-.007-.019v-.01q-.146-.423-.288-.848l-.023-.036v-.008l-.007-.021v-.012l-.006-.017-.005-.015v-.014l-.006-.018v-.009l-.008-.023a72.122 72.122 0 0 1-.141-.431zm-1.189-4.033c.179.674.37 1.355.567 2.024l-.815.24q-.117-.4-.23-.8l-.008-.029v-.006l-.01-.021v-.009l-.006-.021v-.088l-.005-.018v-.009c-.1-.348-.192-.694-.285-1.044zm-.971-4.091c.143.683.3 1.373.458 2.052l-.827.2q-.111-.467-.216-.937l-.007-.029v-.005l-.011-.027v-.145c-.049-.219-.1-.437-.143-.657l-.006-.027-.005-.025v-.12l-.068-.038-.014-.064zm-.75-4.138c.106.69.223 1.388.347 2.074l-.837.152-.081-.456V93.284l-.041-.242L1.1 93l-.005-.03v-.089l-.005-.031-.05-.306V92.208l-.02-.13-.02-.13zm-.528-4.172c.069.695.149 1.4.236 2.09l-.843.107-.006-.051v-.169q-.091-.74-.169-1.484v-.119a.758.758 0 0 1-.065-.289zm-.31-4.194c.032.7.075 1.4.125 2.1l-.848.058c-.008-.1-.014-.211-.023-.316v-.272q-.05-.76-.085-1.525zM0 79.231l.85.005v.483c0 .539.006 1.084.016 1.622l-.85.017V81.154L0 80.541V79.231zm.137-4.248.849.05c-.041.7-.073 1.4-.1 2.1l-.85-.027c.01-.317.022-.63.036-.947v-.25q.017-.363.037-.726v-.14zM.5 70.747l.845.095c-.078.693-.147 1.4-.206 2.093l-.847-.072Q.381 71.8.5 70.747zm.585-4.21.839.14a80.723 80.723 0 0 0-.317 2.078l-.842-.117c.059-.427.122-.85.188-1.275v-.262q.085-.285.132-.563zm.809-4.172.83.184c-.151.681-.3 1.373-.428 2.058l-.835-.162q.095-.489.2-.977l.005-.024v-.004l.006-.027c.073-.349.147-.7.224-1.043zm1.032-4.123.819.229a75.037 75.037 0 0 0-.538 2.033l-.824-.204q.129-.516.265-1.03l.042-.16v-.01l.007-.025v-.011l.005-.019v-.06l.005-.019v-.011l.006-.021v-.007l.006-.024V58.9l.007-.026c.057-.21.114-.42.173-.63zm1.253-4.062.805.272a78.89 78.89 0 0 0-.646 2l-.812-.25.079-.254.009-.028v-.006l.007-.024v-.01l.006-.019v-.013l.005-.017V55.802l.005-.017v-.012l.006-.02v-.007l.008-.024c.1-.331.21-.659.319-.988L4 54.7l.008-.025v-.005l.008-.024v-.008l.007-.021V54.588l.008-.025q.084-.194.148-.383zm1.468-3.989.79.315a76.297 76.297 0 0 0-.753 1.963l-.8-.294.092-.248.01-.028.014-.031v-.006l.009-.023v-.008l.007-.02v-.012l.006-.017.005-.014v-.013l.007-.017q.291-.777.6-1.545zm1.68-3.9.772.357a78.452 78.452 0 0 0-.857 1.92l-.781-.336q.421-.98.866-1.944zm1.887-3.811.751.4a80.396 80.396 0 0 0-.959 1.872l-.762-.377q.472-.952.968-1.89zm2.088-3.7.729.437c-.359.6-.715 1.21-1.057 1.818l-.741-.418q.506-.9 1.034-1.78l.016-.027.014-.023zm2.282-3.586.7.475c-.39.578-.778 1.17-1.153 1.759l-.717-.457.005-.008.008-.013.009-.015.007-.011.01-.016.006-.009.011-.018v-.006l.094-.147.016-.024.342-.528.015-.022.014-.022.015-.023.06-.092v-.008l.01-.014.008-.012.008-.013.01-.015.007-.011.01-.016.007-.011.011-.017.006-.009.012-.018.005-.008.015-.022q.237-.335.45-.651zm2.47-3.459.679.512c-.42.557-.839 1.127-1.245 1.695l-.692-.494.252-.351.018-.025.016-.022v-.005l.014-.02.005-.007.016-.022.018-.025.013-.018v-.007l.015-.02.015-.02.016-.022q.414-.569.839-1.132zm2.65-3.323.65.548c-.449.534-.9 1.081-1.333 1.627l-.665-.53L17.4 30l.018-.022.017-.021v-.005l.017-.021.017-.021.019-.023.041-.051.018-.023v-.005l.016-.019.005-.007.014-.018.007-.008.014-.017.006-.008.014-.017.007-.009.013-.016.007-.008.014-.017.007-.009.04-.049V29.6l.015-.019.006-.008.014-.017.008-.009.013-.016.033-.031.013-.016.007-.009.013-.017.007-.008.013-.016.007-.009.015-.019V29.4l.041-.05.019-.024.005-.007.015-.018.005-.007.015-.018.006-.007.019-.013.006-.007.015-.018.006-.007.017-.02.02-.024.084-.1.019-.023.019-.023.02-.024.021-.025.127-.153.02-.025.021-.025.17-.2zm2.823-3.178.62.581a77.173 77.173 0 0 0-1.417 1.554l-.636-.565q.5-.558 1-1.108l.019-.021.005-.006.016-.017.008-.008.013-.014.01-.011.011-.012.01-.011.01-.011.012-.013v-.005l.309-.331zm2.987-3.024.589.613c-.5.483-1.007.98-1.5 1.476l-.6-.6.445-.447.022-.022.093-.093.021-.021.018-.018.006-.006.016-.016.007-.007.016-.016.007-.007.016-.016.006-.006L23.7 23l.006-.006.019-.019.023-.023.023-.022.005-.005.024-.025.016-.016.007-.007.016-.016.007-.007.016-.016.006-.006.017-.017.006-.006.019-.019.118-.115.023-.023.463-.444zm3.143-2.861.556.644a79.98 79.98 0 0 0-1.574 1.395l-.572-.629.013-.012.01-.009q.723-.658 1.463-1.3l.023-.02.018-.015.009-.008.013-.011.013-.011.008-.007zm3.29-2.691.521.672a76.74 76.74 0 0 0-1.645 1.31l-.538-.658.327-.266.02-.016.018-.014.007-.006.017-.013.007-.006.016-.013.009-.007.016-.013.009-.007.015-.012.011-.008.051-.041.011-.009.013-.01.012-.009.013-.011.011-.009.014-.011.011-.009.014-.011.011-.008.013-.011.011-.009.014-.011.01-.008.014-.011.009-.007.062-.049.018-.015h.006l.018-.014h.006l.018-.014.007-.006.018-.014h.006l.019-.015.02-.016c.25-.2.5-.393.75-.588zm3.428-2.512.484.7c-.573.4-1.15.808-1.712 1.22l-.5-.686.052-.038.011-.008.013-.009.017-.013.007-.005.02-.014.021-.015q.783-.571 1.581-1.124zm3.557-2.327.446.724c-.594.366-1.191.746-1.775 1.128l-.465-.711.444-.289.024-.016.023-.015.022-.014h.005l.022-.014h.006l.025-.016.054-.035.012-.008.014-.009.015-.01.011-.007.016-.01.01-.007.017-.011.009-.006.018-.011h.007l.019-.012h.006l.021-.013c.343-.236.662-.438.995-.641zm3.676-2.134.407.746c-.612.334-1.229.681-1.832 1.031l-.427-.735.343-.2.024-.014h.005l.022-.013h.007l.02-.012h.008l.019-.011.009-.005.021-.012h.006l.025-.014.015-.009.015-.008.016-.009.011-.006.017-.01.011-.006.017-.01.009-.005.019-.011h.008l.02-.011h.006l.021-.012h.005l.022-.013q.566-.345 1.131-.654zm3.785-1.934.367.767c-.629.3-1.264.614-1.885.932l-.387-.757q.31-.158.622-.314l.027-.014.025-.013.025-.012h.005l.026-.013.028-.014.088-.044h.006l.022-.011.01-.005.028-.023.012-.006.015-.008.014-.007.015-.007.014-.007.015-.007.014-.007.014-.007.015-.007.011-.005.018-.009h.007l.071-.035.021-.01h.007l.02-.01h.008l.019-.009h.009l.02-.01h.008l.02-.01h.007l.022-.011.023-.011.133-.065.024-.012.023-.011.023-.011h.006l.022-.011.023-.011.024-.011.131-.063.022-.01h.007l.02-.009h.009l.019-.009h.009l.018-.009.011-.005zm3.883-1.729.324.778c-.645.267-1.295.546-1.932.83l-.346-.777.09-.04h.006l.022-.01h.011l.018-.008.013-.006.018-.009.015-.007.013-.006.016-.007.011-.005.018-.008h.01l.02-.009h.006q.827-.371 1.667-.719zm3.97-1.522.282.8c-.658.232-1.322.475-1.974.725l-.3-.794.091-.035h.009l.019-.007.016-.006h.013l.02-.008h.007l.024-.009c.6-.226 1.19-.443 1.792-.655zm4.045-1.3.239.816c-.67.2-1.346.4-2.01.617l-.261-.809.373-.119.024-.008h.007l.021-.007h.009l.02-.006h.011l.019-.006h.012l.017-.005h.03l.017-.005h.013l.02-.006h.01l.027-.008.189-.059q.607-.219 1.213-.395zM61.4 2.115l.195.828c-.679.16-1.366.331-2.04.509l-.217-.822.367-.1.029-.007.026-.007h.006l.024-.006h.008l.022-.006h.008l.023-.006h.01l.02-.005.031-.008h.005l.026-.007h.006l.026-.007h.006l.026-.007.028-.007.029-.007.03-.008q.578-.146 1.16-.284h.005l.025-.006h.087zm4.162-.862.15.837a72.31 72.31 0 0 0-2.065.4l-.172-.832.195-.04.03-.006.026-.005h.086l.139-.028.03-.006.028-.006.027-.005.027-.005.027-.005.027-.005.026-.005.057-.032.205-.04h.274l.028-.005L65 1.41l.032-.006.031-.006.032-.006.228-.042h.118zm4.2-.638.105.844c-.693.086-1.394.183-2.083.288L67.66.906q.409-.062.82-.12h.239c.347-.048.692-.093 1.041-.137zM74 .2l.06.848c-.7.049-1.4.109-2.1.177l-.081-.844h.013C72.591.311 73.291.252 74 .2zm4.242-.187.015.85c-.7.013-1.405.035-2.1.066L76.118.08Q76.76.051 77.4.033h.34z" transform="translate(30.873 36.116)" style="fill:#f04e30"/>
                <circle id="Ellipse_54" data-name="Ellipse 54" class="cls-3" cx="3.066" cy="3.066" r="3.066" transform="translate(107.526 33.172)"/>
                <circle id="Ellipse_143" data-name="Ellipse 143" class="cls-3" cx="3.066" cy="3.066" r="3.066" transform="translate(43.175 65.796)"/>
                <circle id="Ellipse_58" data-name="Ellipse 58" class="cls-3" cx="3.066" cy="3.066" r="3.066" transform="translate(141.705 184.515)"/>
                <path id="Line_17" data-name="Line 17" class="cls-3" d="M-.15 38.132H-1v-2.126h.85zm0-4.251H-1v-2.125h.85zm0-4.251H-1V27.5h.85zm0-4.251H-1v-2.125h.85zm0-4.251H-1V19h.85zm0-4.251H-1v-2.125h.85zm0-4.251H-1V10.5h.85zm0-4.251H-1V6.251h.85zm0-4.251H-1V2h.85z" transform="translate(111.379 -2)"/>
                <path id="Line_19" data-name="Line 19" class="cls-3" d="m-.087 22.369-.5-.69 1.726-1.24.5.69zm3.452-2.48-.5-.69L4.6 17.958l.5.69zm3.452-2.48-.5-.69 1.726-1.24.5.69zm3.452-2.48-.5-.69L11.5 13l.5.69zm3.452-2.48-.5-.69 1.726-1.24.5.69zm3.452-2.48-.5-.69 1.726-1.24.5.69zm3.452-2.48-.5-.69 1.726-1.24.5.69zm3.452-2.48-.5-.69 1.726-1.24.5.69zm3.452-2.48-.5-.69L28.762.6l.5.69z" transform="translate(175.327 46.84)"/>
                <path id="Line_22" data-name="Line 22" class="cls-3" d="M30.727 22.369 29 21.129l.5-.69 1.726 1.24zm-3.452-2.48-1.726-1.24.5-.69L27.77 19.2zm-3.452-2.48-1.723-1.24.5-.69 1.726 1.24zm-3.452-2.48-1.726-1.24.5-.69 1.726 1.24zm-3.452-2.48-1.726-1.24.5-.69 1.726 1.24zm-3.452-2.48-1.726-1.24.5-.69 1.726 1.24zm-3.452-2.48-1.729-1.24.5-.69L10.508 6.8zM6.56 5.009l-1.727-1.24.5-.69 1.726 1.24zm-3.453-2.48-1.726-1.24.5-.69L3.6 1.839z" transform="translate(16.121 46.84)"/>
                <path id="Line_20" data-name="Line 20" class="cls-3" d="m34.436 9.881-2.042-.59.236-.817 2.042.59zM30.352 8.7l-2.042-.59.236-.817 2.042.59zm-4.084-1.178-2.042-.59.236-.817 2.042.59zm-4.084-1.179-2.042-.59.236-.817 2.042.59zM18.1 5.163l-2.042-.59.236-.817 2.042.59zm-4.084-1.179-2.042-.59.236-.817 2.042.59zM9.932 2.8 7.89 2.215l.236-.815 2.042.59zM5.848 1.625l-2.042-.59.236-.816 2.042.59zM1.764.446l-2.041-.59.236-.817L2-.371z" transform="translate(187.415 137.848)"/>
                <path id="Line_23" data-name="Line 23" class="cls-3" d="m1.443 9.881-.236-.817 2.042-.59.236.817zM5.527 8.7l-.236-.817L7.333 7.3l.236.817zm4.084-1.178-.236-.817 2.042-.59.236.817zm4.084-1.179-.236-.817 2.042-.59.236.817zm4.084-1.179-.236-.817 2.042-.59.236.817zm4.084-1.179-.236-.817 2.042-.59.236.817zM25.947 2.8l-.236-.817 2.042-.59.236.817zm4.084-1.179-.236-.813 2.042-.59.236.817zM34.114.446l-.236-.817 2.042-.59.236.817z" transform="translate(-1.207 137.848)"/>
                <path id="Path_370" data-name="Path 370" class="cls-3" d="m14.655 31.711-.6-1.233.764-.374.6 1.233zm-1.538-3.142-.934-1.909.764-.374.934 1.909zm-1.869-3.818-.934-1.909.764-.374.934 1.909zM9.38 20.933l-.934-1.909.764-.374.934 1.909zm-1.869-3.818-.934-1.909.764-.374.934 1.909zM5.642 13.3l-.934-1.909.764-.374.934 1.909zM3.774 9.479 2.839 7.57 3.6 7.2l.934 1.909zM1.9 5.661.971 3.752l.764-.374.934 1.909zM.036 1.843-.9-.066l.765-.374L.8 1.469z" transform="translate(145.327 187.713)"/>
                <path id="Line_24" data-name="Line 24" class="cls-3" d="m.249 32.335-.762-.376.941-1.906.762.376zm1.881-3.812-.762-.376.941-1.906.762.376zm1.881-3.812-.762-.376.941-1.906.762.376zM5.893 20.9l-.762-.376.941-1.906.762.376zm1.881-3.812-.762-.376.941-1.906.762.376zm1.881-3.812-.762-.376.941-1.906.762.376zm1.881-3.812-.762-.376.941-1.906.762.376zm1.881-3.812-.762-.376.945-1.907.762.376zM15.3 1.84l-.762-.376.941-1.906.762.376z" transform="translate(61.419 187.715)"/>
                <circle id="Ellipse_144" data-name="Ellipse 144" class="cls-3" cx="3.066" cy="3.066" r="3.066" transform="translate(74.25 184.515)"/>
                <circle id="Ellipse_55" data-name="Ellipse 55" class="cls-3" cx="3.066" cy="3.066" r="3.066" transform="translate(171.874 65.796)"/>
                <circle id="Ellipse_60" data-name="Ellipse 60" class="cls-3" cx="3.066" cy="3.066" r="3.066" transform="translate(184.14 134.231)"/>
                <circle id="Ellipse_57" data-name="Ellipse 57" class="cls-3" cx="3.066" cy="3.066" r="3.066" transform="translate(30.912 134.231)"/>
            </g>
            <g id="Component_23_2" data-name="Component 23 – 2" transform="translate(133 -.136)">
                <g id="Ellipse_146" data-name="Ellipse 146" class="cls-6">
                    <circle class="cls-8" cx="21.5" cy="21.5" r="21.5"/>
                    <circle class="cls-9" cx="21.5" cy="21.5" r="20.75"/>
                </g>
                <g id="Group_1184" data-name="Group 1184" transform="translate(8.026 8.024)">
                    <path id="Path_369" data-name="Path 369" class="cls-3" d="m270.907 14.1 1.375-4.287a.349.349 0 0 1 .681.108l-.017 4.5a.349.349 0 0 0 .632.205l2.632-3.652a.349.349 0 0 1 .615.313l-1.407 4.276a.349.349 0 0 0 .538.391l3.632-2.66a.349.349 0 0 1 .488.488l-2.66 3.632a.349.349 0 0 0 .391.538l4.276-1.407a.349.349 0 0 1 .313.615l-3.651 2.64a.349.349 0 0 0 .205.632l4.5-.017a.349.349 0 0 1 .108.681l-4.287 1.375a.349.349 0 0 0 0 .665l4.287 1.375a.349.349 0 0 1-.108.681l-4.5-.017a.349.349 0 0 0-.205.632l3.652 2.632a.349.349 0 0 1-.313.615l-4.276-1.407a.349.349 0 0 0-.391.538l2.66 3.632a.349.349 0 0 1-.488.488l-3.632-2.66a.349.349 0 0 0-.538.391l1.407 4.276a.349.349 0 0 1-.615.313l-2.632-3.652a.349.349 0 0 0-.632.205l.017 4.5a.349.349 0 0 1-.681.108l-1.376-4.286a.349.349 0 0 0-.665 0l-1.375 4.287a.349.349 0 0 1-.681-.108l.017-4.5a.349.349 0 0 0-.632-.205l-2.632 3.652a.349.349 0 0 1-.615-.313l1.407-4.276a.349.349 0 0 0-.538-.391l-3.632 2.66a.349.349 0 0 1-.488-.488l2.66-3.632a.349.349 0 0 0-.391-.538l-4.276 1.407a.349.349 0 0 1-.313-.615l3.647-2.64a.349.349 0 0 0-.206-.632l-4.5.017a.349.349 0 0 1-.108-.681l4.287-1.375a.349.349 0 0 0 0-.665l-4.287-1.375a.349.349 0 0 1 .108-.681l4.5.017a.349.349 0 0 0 .206-.632l-3.652-2.632a.349.349 0 0 1 .313-.615l4.276 1.407a.349.349 0 0 0 .391-.538l-2.66-3.632a.349.349 0 0 1 .488-.488l3.632 2.66a.349.349 0 0 0 .538-.391l-1.407-4.276a.349.349 0 0 1 .615-.313l2.632 3.652a.349.349 0 0 0 .632-.205l-.017-4.5a.349.349 0 0 1 .681-.108l1.375 4.287a.349.349 0 0 0 .67-.001z" transform="translate(-257.346 -9.572)"/>
                </g>
            </g>
            <path id="Path_130" data-name="Path 130" class="cls-3" d="M516.608 12.894c0-1.264-1.368-2.4-3.542-3.181 1.541-.45 2.479-1.048 2.479-1.7 0-.964-2.029-1.8-5.016-2.232.5-.243.794-.529.794-.836 0-.88-2.392-1.594-5.342-1.594s-5.342.714-5.342 1.594c0 .307.291.593.794.836-2.987.429-5.016 1.268-5.016 2.232 0 .656.939 1.254 2.479 1.7-2.174.782-3.542 1.917-3.542 3.181s1.391 2.418 3.6 3.2c-1.572.452-2.533 1.056-2.533 1.719 0 .964 2.029 1.8 5.016 2.232-.5.243-.794.529-.794.836 0 .88 2.392 1.594 5.342 1.594s5.342-.714 5.342-1.594c0-.307-.291-.593-.794-.836 2.987-.429 5.016-1.268 5.016-2.232 0-.664-.961-1.267-2.533-1.719 2.201-.782 3.592-1.926 3.592-3.2z" transform="translate(-240.065 65.957)"/>
            <path id="Path_59" data-name="Path 59" class="cls-3" d="M1355.417 41.633a4.665 4.665 0 0 1-7.9 0c-3.43 0-6.21 4.282-6.21 9.564s2.78 9.564 6.21 9.564a4.665 4.665 0 0 1 7.9 0c3.43 0 6.21-4.282 6.21-9.564s-2.78-9.564-6.21-9.564z" transform="translate(-1064.759 145.843)"/>
            <g id="Component_25_2" data-name="Component 25 – 2" transform="translate(192 261.864)">
                <g id="Ellipse_149" data-name="Ellipse 149" style="fill:none;stroke:#a8a8a8;stroke-width:1.5px">
                    <circle class="cls-8" cx="21.5" cy="21.5" r="21.5"/>
                    <circle class="cls-9" cx="21.5" cy="21.5" r="20.75"/>
                </g>
                <path id="Path_129" data-name="Path 129" class="cls-3" d="M1607.911 1189.989c-2.088-1.856-5.434-2.16-8.838-1.105-3.4-1.054-6.75-.751-8.838 1.105s-2.43 4.831-1.244 7.856c-1.186 3.025-.844 6 1.244 7.856s5.435 2.16 8.838 1.105c3.4 1.055 6.75.751 8.838-1.105s2.43-4.831 1.244-7.856c1.186-3.025.845-5.999-1.244-7.856z" transform="translate(-1577.686 -1176.38)"/>
            </g>
            <path id="Path_56" data-name="Path 56" class="cls-3" d="M728.177 1099.134a6.212 6.212 0 0 0-8.773-8.773 8.347 8.347 0 1 0-6.2 14.976 6.212 6.212 0 0 0 12.407 0 3.366 3.366 0 0 0 2.569-6.2z" transform="translate(-624.37 -815.164)"/>
            <path id="Path_54" data-name="Path 54" class="cls-3" d="M864.862 32.755h-20.47a2.741 2.741 0 0 1-.867-5.342l4.445-1.482h-3.578a2.741 2.741 0 0 1-.867-5.342l4.445-1.482h-3.578a2.741 2.741 0 1 1 0-5.482h20.469a2.741 2.741 0 0 1 .867 5.342l-4.445 1.482h3.578a2.741 2.741 0 0 1 .867 5.342l-4.445 1.482h3.578a2.741 2.741 0 1 1 0 5.482z" transform="translate(-833.333 173.85)"/>
            <g id="Component_24_2" data-name="Component 24 – 2" transform="translate(21 56.864)">
                <g id="Ellipse_145" data-name="Ellipse 145" class="cls-6">
                    <circle class="cls-8" cx="21.5" cy="21.5" r="21.5"/>
                    <circle class="cls-9" cx="21.5" cy="21.5" r="20.75"/>
                </g>
                <g id="Group_1183" data-name="Group 1183" transform="translate(9.352 10.625)">
                    <path id="Path_55" data-name="Path 55" class="cls-3" d="M175.506 606.6h-3.136a.352.352 0 0 1-.3-.528l1.568-2.715a2.953 2.953 0 0 0-1.081-4.034 2.953 2.953 0 0 0-4.034 1.081l-1.568 2.716a.352.352 0 0 1-.609 0l-1.568-2.716a2.953 2.953 0 0 0-4.034-1.081 2.953 2.953 0 0 0-1.081 4.034l1.568 2.715a.352.352 0 0 1-.3.528h-3.136a2.953 2.953 0 0 0-2.953 2.953 2.953 2.953 0 0 0 2.953 2.953h3.136a.352.352 0 0 1 .3.527l-1.568 2.716a2.953 2.953 0 0 0 1.081 4.034 2.953 2.953 0 0 0 4.034-1.081l1.568-2.716a.352.352 0 0 1 .609 0l1.568 2.716a2.953 2.953 0 0 0 4.034 1.081 2.953 2.953 0 0 0 1.081-4.034l-1.568-2.716a.352.352 0 0 1 .3-.527h3.136a2.953 2.953 0 0 0 2.953-2.953 2.953 2.953 0 0 0-2.953-2.953z" transform="translate(-154.832 -598.927)"/>
                </g>
            </g>
        </g>
    </g>
</svg>
