<svg xmlns="http://www.w3.org/2000/svg" width="305.222" height="302.94" viewBox="0 0 305.222 302.94">
    <defs>
        <style>
            .cls-3{fill:#a8a8a8}.cls-4,.cls-6{fill:#fff}.cls-6{stroke:#a8a8a8;stroke-width:1.5px}.cls-10{fill:none}.cls-8{fill:#a9a8a8}.cls-9{stroke:none}
        </style>
    </defs>
    <g id="Group_1690" data-name="Group 1690" transform="translate(-591 -6226.844)">
        <g id="Group_1422" data-name="Group 1422" transform="translate(680.935 6322.46)">
            <g id="Group_1489" data-name="Group 1489">
                <circle id="Ellipse_52" data-name="Ellipse 52" cx="62.955" cy="62.955" r="62.955" style="opacity:.1;fill:#f04e30"/>
                <path id="Path_755" data-name="Path 755" d="M-85.1-20.716a2.007 2.007 0 0 1-1.2-.347 1.478 1.478 0 0 1-.6-.966l-2.346 1.136h-1.8v-4.987a1.9 1.9 0 0 1-1.276-.457 1.542 1.542 0 0 1-.494-1.21 1.527 1.527 0 0 1 .516-1.225 1.947 1.947 0 0 1 1.313-.443 1.947 1.947 0 0 1 1.313.443 1.527 1.527 0 0 1 .516 1.225v5.179h.074l2.685-1.3v-5.371h1.889v4.264a1.811 1.811 0 0 1-.03.325 1.219 1.219 0 0 1-.133.354 1.733 1.733 0 0 1 1.018.553 1.623 1.623 0 0 1 .384 1.114 1.6 1.6 0 0 1-.509 1.254 1.9 1.9 0 0 1-1.32.459zm0-.93a.783.783 0 0 0 .553-.184.623.623 0 0 0 .2-.48v-.236a.623.623 0 0 0-.2-.48.783.783 0 0 0-.553-.184.783.783 0 0 0-.553.184.623.623 0 0 0-.2.48v.236a.623.623 0 0 0 .2.48.783.783 0 0 0 .553.185zm-5.932-5.164a.665.665 0 0 0 .5-.2.744.744 0 0 0 .192-.539.744.744 0 0 0-.192-.539.665.665 0 0 0-.5-.2.665.665 0 0 0-.5.2.744.744 0 0 0-.192.539.744.744 0 0 0 .192.539.665.665 0 0 0 .497.201zm11.966 6.094a1.947 1.947 0 0 1-1.313-.443 1.527 1.527 0 0 1-.516-1.225v-7.348l-2.125-.812v-.516a3.507 3.507 0 0 1 .236-1.313 2.84 2.84 0 0 1 .664-1 2.9 2.9 0 0 1 1.033-.634 3.884 3.884 0 0 1 1.343-.221 4.19 4.19 0 0 1 1.815.347 3.583 3.583 0 0 1 1.225.952l-1.018 1.121a2.3 2.3 0 0 0-.767-.671 2.426 2.426 0 0 0-1.225-.288 1.863 1.863 0 0 0-1.151.354 1.31 1.31 0 0 0-.475 1.113l1.505.546a1.386 1.386 0 0 1 .649.421 1.21 1.21 0 0 1 .177.716v5.563a1.957 1.957 0 0 1 1.276.472 1.524 1.524 0 0 1 .494 1.2 1.527 1.527 0 0 1-.516 1.225 1.947 1.947 0 0 1-1.313.441zm.044-.93a.665.665 0 0 0 .5-.2.744.744 0 0 0 .192-.539.744.744 0 0 0-.192-.539.665.665 0 0 0-.5-.2.665.665 0 0 0-.5.2.744.744 0 0 0-.192.539.744.744 0 0 0 .192.539.665.665 0 0 0 .498.201zm6.212-2.671a1.048 1.048 0 0 0-.819.3 1.033 1.033 0 0 0-.273.716 1.031 1.031 0 0 0 .347.819 1.446 1.446 0 0 0 .981.3h.546A1.482 1.482 0 0 0-71-22.523a1.236 1.236 0 0 0 .384-.966v-5.548h1.889v5.4a2.62 2.62 0 0 1-.93 2.184 4.185 4.185 0 0 1-2.656.738 4.869 4.869 0 0 1-2.523-.561 1.753 1.753 0 0 1-.93-1.579 1.366 1.366 0 0 1 .369-1.033 2.076 2.076 0 0 1 .915-.5v-.059a1.747 1.747 0 0 1-1.025-.693 2.088 2.088 0 0 1-.317-1.166v-.8a2.121 2.121 0 0 1 .553-1.535 1.962 1.962 0 0 1 1.483-.575 1.7 1.7 0 0 1 1.2.421 1.459 1.459 0 0 1 .457 1.129 1.337 1.337 0 0 1-.443 1.055 1.611 1.611 0 0 1-1.107.391 1.715 1.715 0 0 1-.546-.089.76.76 0 0 0 .17.553.969.969 0 0 0 .671.17h1.086v1.269zm-.959-2.671a.624.624 0 0 0 .472-.184.7.7 0 0 0 .177-.509.7.7 0 0 0-.177-.509.624.624 0 0 0-.472-.184.624.624 0 0 0-.472.184.7.7 0 0 0-.177.509.7.7 0 0 0 .177.509.624.624 0 0 0 .47.185zm8.514 4.736v-3.63a1.9 1.9 0 0 1-1.276-.457 1.542 1.542 0 0 1-.494-1.21 1.527 1.527 0 0 1 .516-1.225 1.947 1.947 0 0 1 1.313-.443 1.947 1.947 0 0 1 1.313.443 1.527 1.527 0 0 1 .516 1.225v5.3h1.682a1.5 1.5 0 0 0 1.04-.339 1.225 1.225 0 0 0 .376-.959v-5.489h1.889v5.445a2.487 2.487 0 0 1-.819 2 3.422 3.422 0 0 1-2.294.7h-4.943v-1.359zm.015-4.559a.665.665 0 0 0 .5-.2.744.744 0 0 0 .192-.539.744.744 0 0 0-.192-.539.665.665 0 0 0-.5-.2.665.665 0 0 0-.5.2.744.744 0 0 0-.192.539.744.744 0 0 0 .192.539.665.665 0 0 0 .497.202zm12.66 5.917v-5.474a1.449 1.449 0 0 0-.347-1.033 1.425 1.425 0 0 0-1.085-.369 1.812 1.812 0 0 0-1.077.3 2.7 2.7 0 0 0-.693.723l-1.121-.974a3.185 3.185 0 0 1 1.144-1.085 3.869 3.869 0 0 1 1.911-.406 3.436 3.436 0 0 1 2.348.712 2.611 2.611 0 0 1 .8 2.058v5.548zm7.186-3.423a1.048 1.048 0 0 0-.819.3 1.033 1.033 0 0 0-.273.716 1.031 1.031 0 0 0 .347.819 1.446 1.446 0 0 0 .981.3h.546a1.482 1.482 0 0 0 1.033-.347 1.236 1.236 0 0 0 .384-.966v-5.548h1.889v5.4a2.62 2.62 0 0 1-.93 2.184 4.185 4.185 0 0 1-2.656.738 4.869 4.869 0 0 1-2.523-.561 1.753 1.753 0 0 1-.93-1.579 1.366 1.366 0 0 1 .369-1.033 2.076 2.076 0 0 1 .915-.5v-.059a1.747 1.747 0 0 1-1.025-.693 2.088 2.088 0 0 1-.317-1.166v-.8a2.121 2.121 0 0 1 .553-1.535 1.962 1.962 0 0 1 1.483-.575 1.7 1.7 0 0 1 1.2.421 1.459 1.459 0 0 1 .457 1.129 1.337 1.337 0 0 1-.443 1.055 1.611 1.611 0 0 1-1.107.391 1.715 1.715 0 0 1-.546-.089.76.76 0 0 0 .17.553.969.969 0 0 0 .671.17h1.092v1.269zm-.959-2.671a.624.624 0 0 0 .472-.184.7.7 0 0 0 .177-.509.7.7 0 0 0-.177-.509.624.624 0 0 0-.472-.184.624.624 0 0 0-.472.184.7.7 0 0 0-.177.509.7.7 0 0 0 .177.509.624.624 0 0 0 .469.185zm9.414 6.271a1.947 1.947 0 0 1-1.313-.443 1.527 1.527 0 0 1-.516-1.225v-6.655h1.889v4.987a1.957 1.957 0 0 1 1.276.472 1.524 1.524 0 0 1 .494 1.2 1.527 1.527 0 0 1-.516 1.225 1.947 1.947 0 0 1-1.317.44zm.044-.93a.665.665 0 0 0 .5-.2.744.744 0 0 0 .192-.539.744.744 0 0 0-.192-.539.665.665 0 0 0-.5-.2.665.665 0 0 0-.5.2.744.744 0 0 0-.192.539.744.744 0 0 0 .192.539.665.665 0 0 0 .495.202zm3.881-4.235a1.9 1.9 0 0 1-1.276-.457 1.542 1.542 0 0 1-.494-1.21 1.527 1.527 0 0 1 .516-1.225 1.947 1.947 0 0 1 1.313-.443 1.947 1.947 0 0 1 1.313.443 1.527 1.527 0 0 1 .516 1.225v2.73l-.074 2.289h.074l1.594-6.256h1.032l1.594 6.256h.074l-.074-2.287v-4.22h1.889v7.215a1.018 1.018 0 0 1-.214.671.823.823 0 0 1-.671.258h-1.549l-1.535-6.02h-.059l-1.535 6.02h-2.435zm.015-.93a.665.665 0 0 0 .5-.2.744.744 0 0 0 .192-.539.744.744 0 0 0-.192-.539.665.665 0 0 0-.5-.2.665.665 0 0 0-.5.2.744.744 0 0 0-.192.539.744.744 0 0 0 .192.539.665.665 0 0 0 .499.203zm.516-4.19a3.142 3.142 0 0 1 .229-1.225 2.825 2.825 0 0 1 .627-.937 2.8 2.8 0 0 1 .937-.6 3.149 3.149 0 0 1 1.173-.214 2.618 2.618 0 0 1 .4.03l.384.059v-.723h1.476v1.387a3.023 3.023 0 0 1 .325.28 2.6 2.6 0 0 1 .266.31h.059v-1.977h1.594v4.131h-7.466zm3.556-1.712a2.763 2.763 0 0 0-1.4.332 1.281 1.281 0 0 0-.679.878h4.456a1.319 1.319 0 0 0-.745-.878 3.48 3.48 0 0 0-1.635-.33zm3.763-1.092h-1.313l-.207-2.317h1.726zm6.374 13.088a4.443 4.443 0 0 1-2.59-.634 2.212 2.212 0 0 1-.893-1.933v-1.225a1.964 1.964 0 0 1 .524-1.453 1.809 1.809 0 0 1 1.335-.524 2 2 0 0 1 1.335.443 1.534 1.534 0 0 1 .524 1.239 1.522 1.522 0 0 1-.516 1.232 2.029 2.029 0 0 1-1.313.45.963.963 0 0 0 .3.723 1.228 1.228 0 0 0 .841.251h.915a1.21 1.21 0 0 0 .848-.266.954.954 0 0 0 .288-.738v-2.671a1.825 1.825 0 0 0-.575-1.431 2.3 2.3 0 0 0-1.594-.516 3.345 3.345 0 0 0-.907.111 3.12 3.12 0 0 0-.7.288 2.367 2.367 0 0 0-.531.406 4.882 4.882 0 0 0-.4.465l-1.136-1.033a3.738 3.738 0 0 1 .583-.649 3.476 3.476 0 0 1 .826-.539 4.97 4.97 0 0 1 1.1-.362 6.64 6.64 0 0 1 1.387-.133 4.132 4.132 0 0 1 2.848.885 3.119 3.119 0 0 1 .989 2.449v2.6a2.212 2.212 0 0 1-.898 1.933 4.443 4.443 0 0 1-2.593.634zm-1.549-3.335a.708.708 0 0 0 .524-.2.748.748 0 0 0 .2-.553.748.748 0 0 0-.2-.553.708.708 0 0 0-.524-.2.708.708 0 0 0-.524.2.748.748 0 0 0-.2.553.748.748 0 0 0 .2.553.708.708 0 0 0 .521.203zM-84.21-.145h-2.169a1.829 1.829 0 0 0-1.085.273 1.092 1.092 0 0 0-.45.745A1.579 1.579 0 0 1-87.147.7a1.572 1.572 0 0 1 1.092.4 1.4 1.4 0 0 1 .443 1.092 1.459 1.459 0 0 1-.457 1.129 1.717 1.717 0 0 1-1.21.421 2.109 2.109 0 0 1-1.571-.59 2.446 2.446 0 0 1-.583-1.785 2.475 2.475 0 0 1 .753-1.97 2.989 2.989 0 0 1 2.036-.657h2.435v-.266a1.782 1.782 0 0 0-.465-1.328 2.051 2.051 0 0 0-1.483-.457 2.83 2.83 0 0 0-.848.118 2.858 2.858 0 0 0-.679.31 2.476 2.476 0 0 0-.531.45 4.843 4.843 0 0 0-.406.524l-1.21-1.048a4.346 4.346 0 0 1 .612-.73 3.371 3.371 0 0 1 .812-.568 4.491 4.491 0 0 1 1.062-.369A6.248 6.248 0 0 1-86-4.763a5.249 5.249 0 0 1 1.83.3V-5.6h1.889v.664a1.553 1.553 0 0 1-.649 1.357 3.16 3.16 0 0 1 .6 1.992v5.15h-1.88zm-3.04 3.055a.624.624 0 0 0 .472-.184.7.7 0 0 0 .177-.509.7.7 0 0 0-.177-.509.624.624 0 0 0-.472-.184.624.624 0 0 0-.472.184.7.7 0 0 0-.177.509.7.7 0 0 0 .177.509.624.624 0 0 0 .472.184zm3.467-8.824A4.277 4.277 0 0 1-86.1-6.43a1.723 1.723 0 0 1-.8-1.549 1.635 1.635 0 0 1 .472-1.254 1.718 1.718 0 0 1 1.228-.444 1.625 1.625 0 0 1 1.166.406 1.353 1.353 0 0 1 .428 1.025 1.2 1.2 0 0 1-.184.686.807.807 0 0 1-.435.347v.03h.753q1.653 0 1.653-1.933v-.221h1.859v.221a2.879 2.879 0 0 1-.989 2.457 4.638 4.638 0 0 1-2.833.745zm-1.431-1.461q.634 0 .634-.679t-.634-.679q-.634 0-.634.679t.634.679zM-78 3.559l-2.61-5.828h1.874l2.021 4.5h.915v-3.659a1.9 1.9 0 0 1-1.276-.457A1.542 1.542 0 0 1-77.57-3.1a1.527 1.527 0 0 1 .516-1.225 1.947 1.947 0 0 1 1.313-.443 1.947 1.947 0 0 1 1.313.443 1.527 1.527 0 0 1 .517 1.225v6.659zm2.213-5.917a.665.665 0 0 0 .5-.2.744.744 0 0 0 .192-.539.744.744 0 0 0-.192-.539.665.665 0 0 0-.5-.2.665.665 0 0 0-.5.2.744.744 0 0 0-.192.539.744.744 0 0 0 .192.539.665.665 0 0 0 .502.2zm4.471 1.018a3.43 3.43 0 0 1 .28-1.4 2.985 2.985 0 0 1 .812-1.085 3.732 3.732 0 0 1 1.291-.693 5.571 5.571 0 0 1 1.7-.243 5.571 5.571 0 0 1 1.7.243 3.732 3.732 0 0 1 1.291.693 2.985 2.985 0 0 1 .812 1.085 3.43 3.43 0 0 1 .28 1.4v4.9h-1.889v-4.752a2.078 2.078 0 0 0-.561-1.572 2.247 2.247 0 0 0-1.623-.553 2.247 2.247 0 0 0-1.623.553 2.078 2.078 0 0 0-.575 1.571V.239h.074a2.468 2.468 0 0 1 .789-1.151 2.024 2.024 0 0 1 1.335-.472 1.637 1.637 0 0 1 1.151.406 1.436 1.436 0 0 1 .438 1.114 1.436 1.436 0 0 1-.443 1.114 1.637 1.637 0 0 1-1.151.406 1.482 1.482 0 0 1-1.01-.356 1.331 1.331 0 0 1-.45-.944h-.012a1.957 1.957 0 0 0-.553.8 2.971 2.971 0 0 0-.17 1.025v1.378h-1.889zm4.089 2.169a.589.589 0 0 0 .465-.192.729.729 0 0 0 .17-.5.729.729 0 0 0-.17-.5.589.589 0 0 0-.465-.192.589.589 0 0 0-.465.192.729.729 0 0 0-.17.5.729.729 0 0 0 .17.5.589.589 0 0 0 .465.192zm7.727 2.907a1.9 1.9 0 0 1-1.321-.457 1.6 1.6 0 0 1-.509-1.254A1.6 1.6 0 0 1-60.816.77 1.9 1.9 0 0 1-59.5.313h.089A1.035 1.035 0 0 1-59.47.07a2.488 2.488 0 0 1-.015-.288v-1.21a1.9 1.9 0 0 1-1.276-.457 1.542 1.542 0 0 1-.494-1.21 1.527 1.527 0 0 1 .516-1.225 1.947 1.947 0 0 1 1.313-.443 1.947 1.947 0 0 1 1.313.443 1.527 1.527 0 0 1 .521 1.22V.918l2.39 1.151h.074v-6.655h1.889v8.145h-1.785l-2.656-1.3a1.524 1.524 0 0 1-.568 1.085 1.948 1.948 0 0 1-1.252.392zm0-.93a.783.783 0 0 0 .553-.184.623.623 0 0 0 .2-.48v-.236a.623.623 0 0 0-.2-.48.783.783 0 0 0-.553-.184.783.783 0 0 0-.553.184.623.623 0 0 0-.2.48v.236a.623.623 0 0 0 .2.48.783.783 0 0 0 .553.184zm.03-5.164a.665.665 0 0 0 .5-.2.744.744 0 0 0 .192-.539.744.744 0 0 0-.192-.539.665.665 0 0 0-.5-.2.665.665 0 0 0-.5.2.744.744 0 0 0-.192.539.744.744 0 0 0 .192.539.665.665 0 0 0 .504.2zm13.786 2.213h-2.169a1.829 1.829 0 0 0-1.085.273 1.092 1.092 0 0 0-.45.745A1.579 1.579 0 0 1-48.621.7a1.572 1.572 0 0 1 1.092.4 1.4 1.4 0 0 1 .443 1.092 1.459 1.459 0 0 1-.457 1.129 1.717 1.717 0 0 1-1.21.421 2.109 2.109 0 0 1-1.571-.59 2.446 2.446 0 0 1-.583-1.785 2.475 2.475 0 0 1 .753-1.97 2.989 2.989 0 0 1 2.036-.657h2.435v-.266a1.782 1.782 0 0 0-.465-1.328 2.051 2.051 0 0 0-1.483-.457 2.83 2.83 0 0 0-.848.118 2.858 2.858 0 0 0-.679.31 2.476 2.476 0 0 0-.531.45 4.845 4.845 0 0 0-.406.524l-1.21-1.048a4.345 4.345 0 0 1 .612-.73 3.372 3.372 0 0 1 .812-.568 4.491 4.491 0 0 1 1.061-.375 6.248 6.248 0 0 1 1.35-.133 5.249 5.249 0 0 1 1.83.3V-5.6h1.889v.664a1.553 1.553 0 0 1-.649 1.353 3.16 3.16 0 0 1 .6 1.992v5.15h-1.889zm-3.04 3.054a.624.624 0 0 0 .472-.184.7.7 0 0 0 .177-.509.7.7 0 0 0-.177-.509.624.624 0 0 0-.472-.184.624.624 0 0 0-.472.184.7.7 0 0 0-.177.509.7.7 0 0 0 .177.509.624.624 0 0 0 .472.185zm.325 4.884a1.613 1.613 0 0 1-1.092-.369 1.273 1.273 0 0 1-.428-1.018 1.273 1.273 0 0 1 .428-1.018A1.613 1.613 0 0 1-48.4 5.02a1.613 1.613 0 0 1 1.092.369 1.273 1.273 0 0 1 .428 1.018v1.387h.767a.721.721 0 0 0 .553-.184.842.842 0 0 0 .17-.583V5.138h1.59v1.756a2.52 2.52 0 0 1-.465 1.579 1.682 1.682 0 0 1-1.424.6h-1.343a1.444 1.444 0 0 1-1.025-.3 1.024 1.024 0 0 1-.3-.767v-.212zm-.044-.841q.516 0 .516-.546t-.516-.546q-.516 0-.516.546t.515.547zm8.971-3.394-2.612-5.828h1.874l2.021 4.5h.915v-3.658a1.9 1.9 0 0 1-1.276-.457 1.542 1.542 0 0 1-.494-1.21 1.527 1.527 0 0 1 .516-1.225 1.947 1.947 0 0 1 1.313-.443 1.947 1.947 0 0 1 1.315.443 1.527 1.527 0 0 1 .515 1.22v6.659zm2.213-5.917a.665.665 0 0 0 .5-.2.744.744 0 0 0 .192-.539.744.744 0 0 0-.192-.539.665.665 0 0 0-.5-.2.665.665 0 0 0-.5.2.744.744 0 0 0-.192.539.744.744 0 0 0 .192.539.665.665 0 0 0 .5.201zm7.835 6.094a1.947 1.947 0 0 1-1.313-.443 1.527 1.527 0 0 1-.516-1.225 1.524 1.524 0 0 1 .494-1.2A1.957 1.957 0 0 1-29.483.4v-2.3a1.452 1.452 0 0 0-.354-1.048 1.473 1.473 0 0 0-1.107-.369 1.9 1.9 0 0 0-1.114.3 2.65 2.65 0 0 0-.7.723l-1.121-.974a3.151 3.151 0 0 1 1.158-1.085 3.956 3.956 0 0 1 1.921-.41 3.514 3.514 0 0 1 2.39.716 2.6 2.6 0 0 1 .812 2.058v4.058a1.527 1.527 0 0 1-.516 1.225 1.947 1.947 0 0 1-1.31.442zm-.044-.93a.665.665 0 0 0 .5-.2.744.744 0 0 0 .192-.539.744.744 0 0 0-.192-.539.665.665 0 0 0-.5-.2.665.665 0 0 0-.5.2.744.744 0 0 0-.192.539.744.744 0 0 0 .192.539.665.665 0 0 0 .5.201zm.413-8.72a4.277 4.277 0 0 1-2.317-.516 1.723 1.723 0 0 1-.8-1.549 1.635 1.635 0 0 1 .472-1.254 1.718 1.718 0 0 1 1.225-.443 1.625 1.625 0 0 1 1.166.406 1.353 1.353 0 0 1 .428 1.025 1.2 1.2 0 0 1-.184.686.807.807 0 0 1-.435.347v.03h.753q1.653 0 1.653-1.933v-.221h1.859v.221a2.879 2.879 0 0 1-.989 2.457 4.638 4.638 0 0 1-2.831.745zm-1.431-1.461q.634 0 .634-.679t-.634-.679q-.634 0-.634.679t.633.68zM-22.3.136a1.048 1.048 0 0 0-.819.3 1.033 1.033 0 0 0-.273.716 1.031 1.031 0 0 0 .347.819 1.446 1.446 0 0 0 .981.3h.546a1.482 1.482 0 0 0 1.033-.347A1.236 1.236 0 0 0-20.1.962v-5.548h1.889v5.4A2.62 2.62 0 0 1-19.14 3a4.185 4.185 0 0 1-2.656.738 4.869 4.869 0 0 1-2.523-.561 1.753 1.753 0 0 1-.93-1.579A1.366 1.366 0 0 1-24.88.564a2.076 2.076 0 0 1 .915-.5V0a1.747 1.747 0 0 1-1.025-.691 2.088 2.088 0 0 1-.317-1.166v-.8a2.121 2.121 0 0 1 .553-1.535 1.962 1.962 0 0 1 1.483-.575 1.7 1.7 0 0 1 1.2.421 1.459 1.459 0 0 1 .457 1.129 1.337 1.337 0 0 1-.443 1.055 1.611 1.611 0 0 1-1.107.391 1.715 1.715 0 0 1-.546-.089.76.76 0 0 0 .17.553.969.969 0 0 0 .671.17h1.092V.136zm-.959-2.671a.624.624 0 0 0 .472-.184.7.7 0 0 0 .177-.509.7.7 0 0 0-.177-.509.624.624 0 0 0-.472-.184.624.624 0 0 0-.472.184.7.7 0 0 0-.177.509.7.7 0 0 0 .177.509.624.624 0 0 0 .474.184z" transform="translate(119.316 76.415)" style="fill:#191919"/>
            </g>
        </g>
        <g id="Group_1185" data-name="Group 1185" transform="translate(591 6226.844)">
            <path id="Ellipse_142" data-name="Ellipse 142" class="cls-3" d="M21.079 1.265a19.82 19.82 0 0 0-7.712 38.072A19.82 19.82 0 0 0 28.791 2.821a19.689 19.689 0 0 0-7.712-1.557m0-1.265A21.079 21.079 0 1 1 0 21.079 21.079 21.079 0 0 1 21.079 0z" transform="translate(72.933 260.327)"/>
            <circle id="Ellipse_138" data-name="Ellipse 138" class="cls-4" cx="21.3" cy="21.3" r="21.3" transform="translate(0 174.191)"/>
            <path id="Ellipse_138_-_Outline" data-name="Ellipse 138 - Outline" class="cls-3" d="M21.079 1.265a19.82 19.82 0 0 0-7.712 38.072A19.82 19.82 0 0 0 28.791 2.821a19.689 19.689 0 0 0-7.712-1.557m0-1.265A21.079 21.079 0 1 1 0 21.079 21.079 21.079 0 0 1 21.079 0z" transform="translate(0 173.904)"/>
            <circle id="Ellipse_147" data-name="Ellipse 147" class="cls-4" cx="20.827" cy="20.827" r="20.827" transform="translate(263.179 174.191)"/>
            <path id="Ellipse_147_-_Outline" data-name="Ellipse 147 - Outline" class="cls-3" d="M21.079 1.265a19.82 19.82 0 0 0-7.712 38.072A19.82 19.82 0 0 0 28.791 2.821a19.689 19.689 0 0 0-7.712-1.557m0-1.265A21.079 21.079 0 1 1 0 21.079 21.079 21.079 0 0 1 21.079 0z" transform="translate(263.064 173.904)"/>
            <circle id="Ellipse_148" data-name="Ellipse 148" class="cls-4" cx="21.3" cy="21.3" r="21.3" transform="translate(242.352 55.855)"/>
            <path id="Ellipse_148_-_Outline" data-name="Ellipse 148 - Outline" class="cls-3" d="M21.079 1.265a19.82 19.82 0 0 0-7.712 38.072A19.82 19.82 0 0 0 28.791 2.821a19.689 19.689 0 0 0-7.712-1.557m0-1.265A21.079 21.079 0 1 1 0 21.079 21.079 21.079 0 0 1 21.079 0z" transform="translate(242.407 56.705)"/>
            <g id="Group_1132" data-name="Group 1132" transform="translate(42.931 43.425)">
                <path id="Ellipse_53" data-name="Ellipse 53" d="M79.062 0h.66q.362 0 .724.009h.31l.414.01-.022.851a80.547 80.547 0 0 0-2.086-.027V0zm4.215.11h.141c.544.03 1.083.064 1.625.1h.14l.195.015-.066.841c-.689-.055-1.39-.1-2.081-.137l.045-.819zm4.2.332c.324.034.648.071.971.109h.273q.424.052.847.108l-.111.836a79.55 79.55 0 0 0-2.071-.247l.089-.838zM91.658 1c.365.058.73.119 1.092.183h.275l.119.021H93.505l.211.039h.009l-.156.829a75.332 75.332 0 0 0-2.054-.357L91.658 1zm4.143.777.029.006q1.016.219 2.022.465l-.2.819a62.197 62.197 0 0 0-2.029-.467zm4.095 1 .4.11.025.007h.006l.022.006h.011l.019.005h.06l.022.006h.007l.158.044.031.009.03.008.031.009.284.081.026.008h.007l.024.007h.008l.022.006h.01l.02.006h.011l.018.005h.013l.017.005H101.234l.679.2-.243.807c-.662-.2-1.337-.393-2-.575l.222-.814zm4.036 1.217.428.143.023.008h.008l.019.007h.011l.018.006h.012l.017.006h.013l.017.006h.014l.015.005.016.005h.014l.016.006h.013l.021.007h.009l.03.01h.007l.023.008h.013l.017.006h.013l.017.006h.014l.017.006h.014l.015.005.016.005h.014l.016.006h.013l.017.006h.012l.019.006h.008l.023.008c.331.115.659.231.988.35l-.286.793a76.43 76.43 0 0 0-1.971-.682zm3.968 1.429H107.921l.019.007h.009l.022.009.53.21.026.01.023.009h.006l.022.009h.007l.021.008h.009l.02.008h.009l.019.008.013.005.015.006.059.024.029.012.028.011.028.011.029.012.973.4-.329.776a78.84 78.84 0 0 0-1.931-.787zm3.882 1.643q.96.437 1.907.9l-.37.758c-.622-.3-1.256-.6-1.886-.889zm3.788 1.848q.935.487 1.856 1l-.41.737c-.6-.336-1.223-.669-1.836-.989l.39-.748zm3.684 2.048.806.483.023.014.024.014.176.108.023.014.022.014.021.013.022.013.022.014.023.014.073.045.019.012h.007l.017.011.01.006.017.01.01.006.016.01.011.007.015.009.012.007.014.009.014.009.012.008.016.01.01.006.054.034.023.014h.006l.021.013h.007l.021.013.023.015.025.016.139.087-.448.714a76.844 76.844 0 0 0-1.781-1.085l.429-.726zm3.57 2.242q.438.292.872.589l.022.015h.005l.021.014h.006l.02.014h.007l.019.013.008.006.019.013.007.005.025.017.016.011.009.006.019.013h.006l.021.014.021.014.023.016c.194.134.389.27.581.406l-.486.689c-.566-.4-1.144-.8-1.72-1.179zm3.445 2.429q.646.482 1.283.977l.008.006.016.012.012.01.012.009.015.012.008.006.018.014h.006l.02.015.275.216-.522.662c-.544-.428-1.1-.855-1.655-1.268zm3.312 2.608.367.307.022.019.2.172.022.019.2.173.022.019.022.019.156.134.02.017.019.017.02.017.02.017.02.017.06.052.007.006.013.011.012.01.011.009.013.011.01.009.014.012.009.008.016.014.008.007.018.016.271.237-.556.634a82.05 82.05 0 0 0-1.586-1.355l.539-.648zm3.169 2.78.255.237.006.006.014.013.009.008.012.012.012.011.01.009.014.014.008.007.018.017h.005l.021.02q.576.541 1.142 1.093l-.589.6c-.5-.483-1-.967-1.512-1.437l.573-.619zm3.017 2.944.019.019.017.018.006.006.016.017.006.006.015.016.008.008.015.016.007.007.017.017.005.006.021.022.011.011.01.011.012.013.009.01.013.014.007.008.015.016.006.006.016.017.017.018c.315.328.624.654.934.987l.016.018.006.006.013.014.009.01.011.012.012.013.008.009.016.018.133.144-.62.571a78.765 78.765 0 0 0-1.434-1.515zm2.857 3.1.01.011.019.022.115.132.016.018v.005l.015.017.006.007.013.016.007.008.012.014.009.01.012.014.008.009.012.014.008.009.012.014.011.013.019.022.01.011.011.013.009.01.011.013.01.012.009.011.012.014.008.01.013.015.008.009.013.015.007.009.016.018v.005l.02.023.042.049.019.022.018.021.017.02.017.02.018.021.019.023.085.1.02.024.02.023.019.022.02.024.106.126.02.024.018.022.018.021.018.021.017.021.02.024.042.05.016.019.007.008.013.016.008.009.012.014.009.011.01.012.011.013.008.009.013.016.005.006.015.018.142.171-.649.538c-.441-.533-.9-1.067-1.351-1.589zm2.688 3.247q.65.829 1.279 1.676l-.677.5a77.956 77.956 0 0 0-1.265-1.658zm2.512 3.385q.17.242.338.485l.017.025.016.023.018.025.055.08v.007l.014.02.005.008.012.018.006.009.012.017.007.01.011.016.007.01.011.016.007.01.01.015.007.011.011.015.007.011.012.017.011.016.012.018.008.011.01.015.008.011.01.015.007.011.011.016.007.011.011.016.007.01.011.016.007.01.011.017.006.009.013.019v.007l.072.107.017.024.017.025.329.492-.7.466a80.427 80.427 0 0 0-1.175-1.723zm2.329 3.514.153.245.012.02v.007l.01.017.007.011.009.014.008.013.008.013.01.016.006.009.012.019v.007l.015.025q.423.687.833 1.382l-.727.428c-.351-.6-.715-1.2-1.082-1.783l.715-.447zm2.139 3.633q.438.792.859 1.595l.014.027v.007l.011.021v.009l.009.018.006.011.008.016.007.013.007.013.008.016.005.01.009.018.041.079-.748.388a81.065 81.065 0 0 0-.985-1.838zm1.941 3.741q.46.947.895 1.908l-.768.348a78.922 78.922 0 0 0-.885-1.888zm1.738 3.84.082.2.01.024v.006l.009.021v.01l.007.017.008.019v.009q.341.82.664 1.649l-.786.306a75.082 75.082 0 0 0-.783-1.933zm1.53 3.928c.147.41.292.824.433 1.238l.008.025v.005l.007.021v.01l.006.018v.012l.006.016v.014l.005.016v.014l.005.015.005.016v.014l.024.013v.012l.007.021v.009l.041.124q.063.187.124.375l-.8.263a76.402 76.402 0 0 0-.678-1.972zm1.317 4 .074.25v.006l.007.024v.009l.006.021v.011l.006.019v.012l.005.018v.086l.006.019v.006l.022.075v.008l.005.018v.013l.005.017v.013L155 57V57.15l.005.018v.012l.006.022v.008l.036.125.008.029.008.03q.14.491.273.984l-.814.22a76.431 76.431 0 0 0-.571-2.005zm1.1 4.069.2.831.007.029.006.026v.006l.005.024v.025q.126.553.245 1.109l-.825.176c-.144-.677-.3-1.361-.462-2.033zm.88 4.122.059.323.005.028V65.009q.117.65.223 1.3v.191l.02.129-.833.132a78.69 78.69 0 0 0-.353-2.055zm.658 4.164q.111.847.2 1.7v.106l.03.283-.839.087a74.958 74.958 0 0 0-.243-2.071zm.435 4.193c.015.191.029.385.042.576V73.77l.016.25V74.249l.039.708-.842.043a80.199 80.199 0 0 0-.133-2.082l.841-.065zm.213 4.21q0 .182.008.363V79.226h-.843v-.16c0-.64-.008-1.288-.023-1.926zm-.851 4.192.843.024q-.03 1.056-.087 2.106l-.842-.046c.033-.687.062-1.387.082-2.079zm-.227 4.165.84.068q-.02.247-.042.493V86.265c-.03.333-.062.663-.1 1v.23l-.014.13-.838-.09c.028-.674.093-1.372.149-2.062zm-.447 4.147.836.113-.009.064v.167c-.041.3-.084.593-.128.89V91.056l-.01.063v.152q-.04.26-.082.518l-.832-.135c.024-.654.127-1.349.22-2.035zm-.668 4.116.828.157-.084.437-.005.027v.203l-.006.032V94.94c-.069.339-.141.681-.215 1.019l-.824-.179c.032-.68.172-1.365.301-2.044zm-.887 4.074.819.2-.007.027-.007.028-.024.1-.007.029v.007l-.006.025v.009l-.005.022v.011l-.005.02v.01l-.005.021v.01l-.005.021v.01l-.005.021v.01l-.005.022v.009l-.006.023v.007l-.007.027-.032.127-.007.029-.007.027-.007.028-.007.028-.007.029q-.164.638-.338 1.271l-.813-.223c.146-.629.323-1.308.488-1.98zm-1.1 4.021.807.245c-.05.165-.1.332-.153.5l-.008.026-.008.025-.008.026-.008.025-.008.026c-.143.457-.291.913-.442 1.366l-.8-.267c.204-.636.418-1.305.619-1.967zm-1.319 3.956.792.288q-.158.434-.32.865l-.011.03-.011.029-.058.153-.011.028v.009l-.008.021v.011l-.007.018v.013l-.006.017-.005.013-.006.015-.006.016-.005.013-.006.017v.011l-.007.018v.009q-.127.331-.257.661l-.784-.309c.222-.635.471-1.291.711-1.941zm-1.529 3.879.776.33a81.028 81.028 0 0 1-.851 1.928l-.767-.351c.278-.623.566-1.268.833-1.901zm-1.735 3.792.757.371q-.143.293-.289.584l-.011.023v.005l-.011.021v.007l-.01.021v.007l-.01.02v.008l-.01.02v.007l-.01.02v.008l-.01.019-.005.01-.009.017v.008l-.019.039v.008l-.009.018-.005.01-.008.016-.006.012-.008.016-.006.011-.008.017-.006.012-.008.016-.006.012-.008.015-.007.013-.008.015-.006.012-.008.016-.005.01-.009.018-.021.04-.006.012-.009.018v.01l-.009.018-.005.011-.008.016-.006.012-.009.017-.005.01-.009.018v.009l-.01.019v.007l-.01.02v.006l-.08.155-.013.026-.013.026-.174.335-.747-.391c.261-.604.578-1.229.882-1.851zm-1.936 3.694.736.411a80.07 80.07 0 0 1-1.052 1.826l-.725-.431c.344-.589.694-1.197 1.036-1.801zm-2.13 3.585.713.45c-.151.239-.3.475-.455.712l-.014.021v.005l-.013.019v.007l-.012.019-.005.008-.012.018-.005.008-.011.018-.006.009-.011.017-.007.01-.013.021-.013.021-.006.009-.012.018-.006.009-.011.017-.006.009-.012.018-.006.009-.012.019v.007l-.013.02v.006l-.015.023-.017.026q-.216.331-.436.659l-.7-.469c.355-.564.741-1.152 1.106-1.737zm-2.318 3.467.688.487q-.61.861-1.241 1.7l-.675-.505c.405-.545.818-1.112 1.218-1.681zm-2.5 3.339.661.523c-.121.153-.241.3-.363.456l-.014.018-.006.007-.012.015-.008.01-.011.014-.009.011-.01.012-.011.013-.009.011-.011.014-.008.01-.013.016-.007.009-.04.049v.006l-.016.019-.005.007-.014.018-.006.008-.014.018-.006.007-.014.017-.007.008-.014.017-.006.008-.014.018-.006.007-.017.021-.041.05-.02.024-.016.02-.005.007-.014.018-.007.008-.013.016-.007.008-.014.017-.006.008-.015.018v.006l-.017.021-.041.05-.018.022v.005l-.015.019-.006.007-.015.018-.005.006-.015.018-.006.008-.014.017-.006.007-.016.02-.019.023-.062.075-.018.022-.016.02v.006l-.016.019-.017.02-.019.022-.105.126-.647-.54c.38-.486.823-1.03 1.252-1.573zm-2.673 3.2.633.557c-.273.31-.545.613-.822.919l-.018.02-.019.021-.072.079-.007.008-.011.012-.011.012-.009.01-.013.014-.007.008-.014.015-.007.008-.015.017-.006.006-.017.019-.356.386-.618-.574a94.08 94.08 0 0 0 1.38-1.53zm-2.839 3.055.6.59q-.726.741-1.471 1.463l-.021.021-.586-.606c.487-.472.985-.967 1.469-1.461zm-3 2.9.57.621c-.519.476-1.04.942-1.572 1.4l-.554-.636c.517-.442 1.04-.909 1.55-1.378zm-3.146 2.738.536.651-.55.45-.019.016h-.006l-.017.014-.008.006-.015.012-.012.01-.011.009-.018.014h-.006q-.487.393-.98.778l-.519-.665a50.39 50.39 0 0 0 1.619-1.288zm-3.287 2.567.5.678q-.662.489-1.334.965l-.025.017-.022.016h-.006l-.021.015h-.006l-.021.015h-.005l-.025.018-.025.017-.017.012-.008.006-.017.012-.008.006-.017.012-.008.006-.019.013-.021.015-.095.066-.483-.691c.551-.37 1.121-.779 1.677-1.19zm-3.419 2.389.464.7q-.343.227-.689.45l-.026.017-.025.016-.026.017-.081.052-.009.006-.018.011-.012.008-.013.008-.015.009-.011.007-.017.011-.009.006-.018.011h-.007l-.019.012c-.257.164-.51.324-.769.485l-.445-.716a48.465 48.465 0 0 0 1.74-1.103zm-3.541 2.2.426.727-.056.033-.026.015-.023.013h-.006l-.023.013-.02.011-.084.049-.025.015c-.424.246-.852.489-1.28.727l-.019.01h-.005l-.024.013-.229.127-.407-.739a44.152 44.152 0 0 0 1.796-1.001zm-3.653 2.011.387.749q-.687.355-1.381.7l-.024.012h-.009l-.019.009-.012.006-.016.008-.014.007-.013.006-.016.008h-.01l-.021.01-.346.168-.367-.759a45.392 45.392 0 0 0 1.856-.913zm-3.755 1.813.346.769-.048.022-.023.01h-.006l-.021.009h-.008l-.02.009h-.008l-.02.009h-.009l-.019.009h-.009l-.019.009h-.007l-.072.032-.018.008h-.011l-.018.008h-.01l-.018.008h-.01l-.019.008h-.009l-.019.008h-.009l-.02.009h-.007l-.022.01-.024.011c-.367.162-.731.319-1.1.476l-.02.008h-.012l-.015.007-.014.006-.014.006-.018.008h-.009l-.024.01-.181.076-.325-.778c.609-.192 1.253-.471 1.884-.755zm-3.847 1.609.3.786-.725.277-.023.009h-.007l-.02.007h-.011l-.017.006-.014.005-.014.005-.018.007h-.011q-.554.207-1.112.406l-.283-.794a35.9 35.9 0 0 0 1.949-.702zm-3.928 1.4.262.8c-.476.155-.95.305-1.429.452l-.026.008h-.006l-.023.007h-.008l-.021.007h-.01l-.019.006h-.012l-.018.005h-.03l-.028.009-.063.019-.03.009-.03.009-.029.009-.03.009-.189.056-.24-.808c.646-.161 1.316-.37 1.973-.585zm-4 1.187.218.814q-.492.132-.987.258l-.03.008-.028.007-.027.007H98.5l-.028.007-.029.007-.063.016-.026.006h-.181l-.02.005h-.01l-.021.005h-.009l-.022.006h-.005l-.17.042H97.9l-.021.005h-.01l-.021.005H97.604l-.063.015-.2-.82c.677-.029 1.359-.2 2.025-.38zm-4.055.971.174.825q-.386.081-.773.159l-.064.013-.419.083-.03.006-.03.006-.031.006-.032.006-.032.006-.161.031-.028.005h-.176l-.027.005-.246.046-.152-.829a22.393 22.393 0 0 0 2.024-.355zm-4.1.752.13.833-.477.073H90.452l-.14.02h-.249l-.366.05H89.463l-.2.025-.108-.836c.676.054 1.371-.045 2.054-.152zm-4.137.532.085.839-.386.038H86.34l-.294.026H85.686l-.13.011h-.243l-.212.016-.101-.733a81.313 81.313 0 0 0 2.073-.183zm-4.159.312.041.842-.516.023h-.576a85.18 85.18 0 0 1-1.014.029l-.019-.843a26.72 26.72 0 0 0 2.079-.037zm-6.257.057c.691.021 1.393.033 2.086.036v.843h-.575c-.393 0-.783-.012-1.175-.022h-.031l-.327-.009zm-4.164-.236c.689.057 1.389.106 2.081.145l-.048.842c-.381-.022-.758-.046-1.137-.072H73.048l-.618-.049zm-4.146-.456c.685.094 1.382.18 2.07.255l-.092.838a67.89 67.89 0 0 1-.774-.089H69.236l-.106-.013H68.625l-.064-.008H68.24zm-4.115-.676c.679.13 1.37.253 2.053.366l-.137.832c-.423-.069-.84-.141-1.26-.218h-.163l-.029-.005-.613-.115zm-4.072-.9c.671.167 1.354.326 2.03.475l-.181.824q-.521-.115-1.041-.236l-.03-.007-.03-.007-.147-.012H60.404l-.024-.006-.029-.007h-.038l-.021-.005h-.009l-.022-.005h-.009l-.023-.006h-.006l-.026-.006-.028-.007-.207-.051zm-4.019-1.113c.662.2 1.335.4 2 .583l-.225.813q-1.018-.282-2.024-.59zm-3.953-1.327c.65.238 1.312.47 1.968.69l-.268.8-.248-.084-.025-.009h-.007l-.022-.008h-.009l-.02-.007h-.012l-.017-.006H53.503l-.017-.006h-.011l-.162-.056-.028-.01-.027-.009-.027-.009-.314-.109-.057-.02-.228-.08-.027-.009-.025-.009-.025-.009-.025-.009-.026-.009-.027-.01-.549-.2zM48.311 151c.636.272 1.285.54 1.928.795l-.311.784q-.981-.389-1.949-.8zm-3.788-1.743c.621.306 1.254.608 1.882.9l-.352.766-.288-.133-.021-.01h-.008l-.017-.008-.012-.006-.015-.007-.015-.007-.012-.005-.019-.009h-.009l-.023-.011h-.005q-.521-.244-1.038-.495h-.006l-.021-.01-.011-.006-.016-.008-.015-.007-.012-.006-.017-.009h-.009l-.021-.01-.283-.139zm-3.69-1.943c.6.339 1.22.674 1.832 1l-.393.746-.349-.185-.028-.015-.026-.014-.024-.013h-.006l-.023-.012h-.006l-.023-.013h-.005l-.025-.013-.057-.031-.024-.013-.01-.005-.018-.01-.012-.007-.015-.008-.013-.007-.015-.008-.014-.007-.013-.007-.015-.008-.013-.007-.015-.008-.012-.006-.016-.009-.011-.006-.017-.009-.069-.038h-.008l-.02-.011h-.007l-.02-.011h-.007l-.02-.011h-.006l-.021-.011h-.006l-.022-.012-.024-.013q-.4-.218-.8-.442zm-3.581-2.138c.585.37 1.182.738 1.776 1.093L38.6 147l-.339-.2-.028-.017-.027-.016-.14-.085-.023-.014h-.007l-.02-.012h-.008l-.019-.012-.009-.005-.018-.011-.009-.006-.017-.01-.01-.006-.018-.011-.008-.005-.054-.033-.022-.013-.01-.006-.017-.01-.01-.006-.017-.011-.01-.006-.017-.01-.01-.006-.017-.01-.01-.006-.019-.012h-.008l-.021-.013h-.006l-.11-.068-.026-.016-.026-.016-.027-.016-.642-.4zm-3.462-2.325c.564.4 1.141.8 1.716 1.186l-.47.7-.217-.146-.026-.017-.08-.055-.008-.006-.017-.012-.012-.008-.013-.009-.015-.01-.009-.006-.018-.012h-.007l-.02-.014-.022-.015a78.666 78.666 0 0 1-1.26-.878zm-3.334-2.506c.542.43 1.1.859 1.65 1.275l-.507.674q-.843-.633-1.668-1.289zm-3.2-2.679c.518.459 1.05.916 1.58 1.361l-.542.646-.341-.287-.007-.006-.014-.012-.011-.009-.011-.01-.013-.011-.01-.008-.017-.014-.006-.005-.021-.018q-.577-.491-1.144-.992zm-3.05-2.845c.493.485 1 .971 1.506 1.443l-.575.617a80.564 80.564 0 0 1-1.522-1.458zm-2.895-3c.467.511.947 1.022 1.427 1.52l-.607.585q-.217-.225-.432-.452l-.02-.021-.019-.02-.018-.019-.005-.005-.017-.018-.006-.006-.017-.018-.005-.006-.019-.02-.044-.046-.007-.007-.015-.016-.01-.01-.011-.012-.011-.011-.011-.011-.011-.012-.01-.01-.012-.013-.009-.009-.014-.015-.006-.006-.015-.016-.075-.08-.017-.019-.017-.018-.017-.018-.018-.02-.36-.389-.019-.02-.019-.021-.145-.162zm-2.731-3.152a78.64 78.64 0 0 0 1.345 1.594l-.637.552q-.2-.236-.407-.474l-.019-.022-.018-.021-.02-.023-.084-.1-.017-.02v-.006l-.016-.018-.005-.006-.016-.019-.017-.02-.018-.021-.1-.125-.02-.024-.02-.024-.021-.025q-.18-.214-.358-.43l-.02-.025-.083-.1-.016-.019-.01-.012-.009-.011-.013-.016-.006-.008-.006-.007zm-2.56-3.292c.41.557.833 1.117 1.258 1.663l-.666.518-.542-.7-.019-.024-.018-.023-.018-.024-.079-.1-.018-.023-.016-.022v-.005l-.016-.021-.016-.021-.018-.023q-.247-.329-.491-.66zm-2.382-3.423c.38.578.773 1.159 1.168 1.728l-.692.482c-.173-.248-.345-.5-.515-.749l-.016-.023-.015-.022-.015-.022-.016-.024-.1-.146-.015-.022-.015-.022-.015-.022-.016-.023-.1-.148-.016-.023-.015-.022-.015-.023-.016-.024-.1-.146-.015-.022-.014-.021v-.005l-.013-.02v-.006l-.013-.019v-.008l-.012-.018v-.007l-.012-.018-.035-.042-.015-.023-.013-.02-.006-.009-.011-.017-.006-.01-.011-.017zm-2.2-3.545c.349.6.71 1.2 1.074 1.787l-.717.444-.034-.055-.013-.021-.006-.009-.01-.016-.008-.014-.007-.011-.01-.017v-.007l-.012-.02q-.5-.809-.976-1.629zm-2-3.657c.316.615.645 1.235.978 1.842L9.68 117l-.283-.52-.014-.027-.013-.024v-.007l-.011-.021v-.008l-.011-.02v-.009l-.011-.02v-.008l-.01-.019-.027-.017-.01-.018-.005-.01-.013-.024-.009-.017-.007-.014-.009-.018v-.009l-.01-.018-.005-.01-.009-.018-.005-.009-.01-.018v-.008l-.011-.02-.012-.023c-.163-.308-.322-.613-.482-.923zm-1.806-3.759c.283.631.578 1.268.878 1.892l-.76.365c-.146-.3-.29-.608-.432-.914l-.011-.024-.011-.023v-.006l-.01-.021v-.009l-.009-.02v-.009l-.017-.024v-.009l-.009-.02v-.008l-.009-.02-.005-.011-.014-.031-.007-.014-.006-.013-.007-.016-.006-.012-.008-.018v-.01L7.168 112v-.011l-.009-.019v-.01l-.009-.02v-.009l-.01-.023v-.006l-.012-.026q-.123-.269-.244-.54zm-1.6-3.851c.248.646.509 1.3.775 1.936l-.779.324-.088-.212-.011-.027v-.006l-.01-.024v-.007l-.009-.023v-.007l-.009-.023v-.007l-.009-.023v-.007l-.01-.024v-.006l-.011-.027-.024-.059v-.009l-.008-.02v-.012l-.007-.017-.006-.014-.026-.018-.006-.014-.006-.015-.006-.015-.006-.014-.006-.016-.005-.013-.007-.016-.005-.012-.007-.017v-.01l-.008-.02-.031-.077-.009-.021v-.008l-.008-.02v-.009l-.008-.019v-.011l-.007-.018v-.01l-.008-.019v-.009l-.008-.021v-.007l-.009-.022v-.007l-.009-.023-.055-.138-.01-.026-.01-.024v-.005l-.009-.024-.01-.024-.01-.025-.01-.026c-.079-.2-.158-.4-.236-.606zm-1.392-3.931c.213.658.439 1.322.67 1.974l-.795.282c-.053-.15-.1-.3-.157-.446l-.009-.025v-.007l-.008-.022v-.009l-.007-.019-.007-.019v-.01q-.145-.419-.285-.841l-.009-.028v-.008l-.007-.021V104l-.006-.017V103.954l-.006-.018v-.008l-.008-.023-.14-.428zm-1.179-4c.178.669.367 1.344.563 2.008l-.809.238q-.116-.394-.228-.79l-.008-.028v-.006l-.007-.024v-.009l-.006-.021V100.492l-.005-.018v-.009c-.1-.345-.191-.689-.283-1.035zM2.5 95.156c.142.677.294 1.362.454 2.035l-.82.195q-.11-.463-.215-.929l-.006-.029v-.005l-.007-.023v-.145c-.048-.217-.1-.433-.142-.651l-.006-.027-.005-.024v-.12l-.064-.033-.013-.064zm-.744-4.1c.105.684.221 1.376.345 2.057l-.83.15-.081-.452V92.518l-.041-.24-.005-.03v-.118l-.005-.03-.05-.3V91.467l-.02-.129-.02-.129zm-.524-4.138c.069.689.148 1.386.234 2.073l-.836.106-.006-.051v-.168q-.091-.734-.168-1.472v-.119A.9.9 0 0 1 .393 87zm-.3-4.159c.032.692.074 1.392.124 2.082l-.844.059C.2 84.793.2 84.686.19 84.581v-.269Q.141 83.558.105 82.8zM0 78.578l.843.005v.479c0 .534.005 1.075.016 1.608l-.843.017v-.201q-.005-.3-.008-.607V79.063H0V78.578zm.136-4.213.842.049A88.685 88.685 0 0 0 .884 76.5l-.842-.03c.01-.315.022-.625.036-.939v-.248q.017-.36.037-.72v-.139zm.358-4.2.838.094a62.49 62.49 0 0 0-.2 2.075l-.84-.072Q.378 71.21.5 70.164zm.581-4.175.832.138a79.414 79.414 0 0 0-.315 2.061l-.835-.116c.059-.424.121-.843.186-1.265v-.265q.087-.278.133-.553zm.8-4.138.823.183c-.15.675-.293 1.362-.425 2.041l-.828-.161q.094-.485.194-.968l.005-.024v-.006l.006-.027c.072-.346.146-.69.222-1.035zm1.025-4.09.812.227a77.615 77.615 0 0 0-.534 2.016l-.818-.2q.128-.512.263-1.021l.042-.158v-.005l.007-.025v-.011l.005-.019v-.059l.005-.019v-.011l.006-.021v-.007l.006-.024v-.005l.007-.026c.056-.209.113-.416.171-.624zm1.242-4.029.8.27a76.378 76.378 0 0 0-.641 1.984L3.5 55.74l.078-.252.009-.028v-.006l.007-.023v-.01L3.6 55.4v-.013l.005-.016V55.342l.005-.017v-.012l.006-.02v-.007l.008-.024c.1-.328.209-.654.316-.98l.009-.026.008-.025v-.005l.033-.026v-.008l.01-.025V54.138l.008-.025q.073-.192.136-.379zM5.6 49.778l.783.312c-.256.643-.508 1.3-.747 1.947l-.791-.291.091-.246.01-.027.009-.025v-.006l.009-.023v-.008l.007-.019v-.012l.006-.017.023-.022v-.013l.006-.017q.289-.771.593-1.532zm1.666-3.872.765.354a86.258 86.258 0 0 0-.85 1.9l-.774-.333q.418-.965.86-1.92zm1.872-3.777.745.394a77.208 77.208 0 0 0-.951 1.856l-.755-.374q.468-.944.96-1.874zm2.071-3.672.723.434c-.356.594-.709 1.2-1.049 1.8l-.734-.414q.5-.89 1.026-1.765l.016-.027.014-.023zm2.264-3.557.7.472a79.135 79.135 0 0 0-1.143 1.744l-.711-.453.005-.008.008-.012.009-.015.007-.011.01-.016.006-.009.011-.018v-.006l.094-.146.016-.024c.113-.175.225-.349.339-.523l.014-.022.014-.022.015-.022.06-.091v-.007l.009-.014.008-.012.008-.013.01-.015.007-.011.01-.015.021-.023.011-.017.006-.009.012-.018.005-.008.015-.022q.212-.319.424-.634zm2.449-3.431.673.508a77.93 77.93 0 0 0-1.234 1.681l-.686-.49.25-.348.018-.024.016-.022v-.005l.014-.02.005-.007.022-.023.018-.025.013-.018v-.007l.015-.02.015-.02.016-.021q.411-.565.832-1.123zm2.628-3.3.645.543a78.65 78.65 0 0 0-1.322 1.613l-.659-.526.04-.05.018-.022.017-.021v-.005l.016-.021.017-.021.018-.023.041-.051.018-.023v-.005l.015-.019.005-.007.014-.018.007-.008.013-.017.006-.008.013-.017.007-.009.013-.016.007-.008.013-.017.007-.009.039-.049v-.006l.015-.019.006-.007.013-.017.008-.009.013-.016.007-.009.013-.016.007-.009.013-.016.007-.008.013-.016.007-.009.015-.018v-.006l.041-.05.019-.023.005-.006.015-.018.005-.007.015-.018.006-.007.014-.018.006-.007.014-.018.006-.007.016-.02.02-.024.083-.1.019-.023.019-.023.019-.024.021-.025.126-.152.02-.024.021-.025.169-.2zm2.8-3.152.615.576a75.88 75.88 0 0 0-1.405 1.541l-.63-.56q.492-.554.994-1.1l.019-.021.005-.006.015-.017.008-.008.013-.014L21 25.4l.011-.012.01-.011.01-.011.012-.013v-.005l.306-.328zm2.962-3 .584.608c-.5.479-1 .972-1.485 1.464l-.6-.593q.22-.223.441-.443l.022-.022.093-.092.021-.021.018-.018.006-.006.016-.016.007-.007.016-.015.007-.007.016-.016.006-.006.017-.017.006-.005.019-.019.023-.023.022-.022.005-.005.017-.017.007-.007.016-.016.007-.007.016-.015.007-.007.016-.016.006-.006.017-.017.006-.006.019-.019.117-.114.023-.022q.24-.226.466-.442zm3.117-2.838.551.638c-.524.452-1.049.918-1.561 1.383l-.568-.623.013-.012.01-.009q.718-.653 1.451-1.288l.022-.019.017-.015.009-.008.013-.011.013-.011.008-.007zm3.263-2.669.516.667c-.547.424-1.1.861-1.632 1.3l-.534-.653.324-.264.02-.016.018-.014.007-.006.016-.013.007-.006.016-.013.009-.007.015-.012.009-.007.015-.012.01-.008.05-.04.011-.009.013-.01.012-.009.013-.011.011-.009.013-.011.011-.009.014-.011.01-.008.013-.011.021-.008.014-.011.01-.008.014-.011.009-.007.061-.049.018-.015h.006l.018-.014h.006l.017-.014.007-.006.017-.014h.006l.019-.015.02-.016c.248-.2.494-.39.744-.583zm3.4-2.492.48.693c-.569.394-1.14.8-1.7 1.21l-.5-.68.052-.038.011-.008.013-.009.017-.013.007-.005.019-.014.021-.015q.777-.567 1.568-1.115zm3.528-2.308.443.718c-.589.363-1.181.739-1.76 1.118l-.462-.706.441-.286.024-.016.023-.015.022-.014h.005l.022-.014h.006l.024-.016.053-.034.012-.008.014-.009.015-.01.011-.007.016-.01.01-.007.017-.011.009-.006.018-.011h.007l.019-.012h.006l.02-.013c.339-.221.659-.422.985-.622zm3.645-2.11.4.74c-.607.331-1.219.675-1.817 1.023l-.423-.729.341-.2.024-.014.022-.013h.007l.02-.012h.008l.019-.011.009-.005.021-.012h.006l.025-.014.015-.008.015-.008.016-.009.011-.006.017-.01.01-.006.017-.01.009-.005.019-.011h.008l.02-.011h.006l.021-.012h.005l.022-.012q.562-.337 1.127-.645zm3.753-1.918.363.761c-.624.3-1.253.609-1.869.924l-.384-.751q.307-.157.616-.312l.027-.013.025-.013.024-.012h.005l.025-.013.028-.014.087-.043h.006l.022-.011.01-.005.018-.009.012-.006.015-.008.014-.007.014-.007.014-.007.015-.007.014-.007.014-.007.015-.007.011-.005.018-.009h.007l.07-.035.021-.01h.007l.02-.01h.008l.019-.009h.009l.019-.009h.008l.02-.01h.007L44.414 8l.023-.011.132-.064.024-.012.023-.011.022-.011h.006l.022-.011.023-.011.024-.011.13-.062.021-.01h.007l.02-.009h.009l.019-.009h.009L45 7.695l.011-.005zM48.87 5.97l.322.779a75.1 75.1 0 0 0-1.916.823l-.343-.77.089-.04h.006l.022-.01h.011l.018-.008.013-.006.015-.007.015-.007.013-.006.016-.007h.011l.018-.008h.01l.019-.009h.006q.822-.38 1.655-.724zm3.937-1.506.28.8a75.04 75.04 0 0 0-1.957.719l-.3-.788.091-.035h.009l.019-.007.016-.006h.013L51 5.126h.007l.024-.009c.59-.224 1.18-.439 1.777-.649zm4.012-1.292.237.809c-.664.194-1.335.4-1.993.612l-.258-.8.37-.118.024-.008h.007l.021-.007h.009l.02-.006h.011l.019-.006h.012l.017-.005h.03l.017-.005h.013l.02-.006h.01l.026-.008.188-.059q.599-.217 1.2-.393zM60.9 2.1l.193.821c-.674.158-1.354.328-2.023.5l-.215-.815.364-.1.028-.007.026-.007h.006l.021-.002h.008l.022-.006h.008l.022-.006h.01l.02-.005.031-.008h.005l.026-.007h.006l.026-.007h.006l.026-.007.028-.007.029-.007.03-.008q.573-.145 1.15-.282h.005l.025-.006h.087zm4.128-.854.149.83c-.681.122-1.37.255-2.048.4l-.171-.826.193-.04.03-.006.025-.005H63.291l.138-.028.03-.006.028-.006.027-.005.027-.005.027-.005.027-.005.045-.039.027-.005.2-.04h.272l.028-.005.291-.055.031-.006.031-.006.032-.006.226-.042h.118zM69.191.61l.1.837a84.05 84.05 0 0 0-2.066.285L67.1.9q.406-.062.813-.119h.241A9.87 9.87 0 0 1 69.191.61zm4.2-.41.06.841c-.691.049-1.39.108-2.078.175l-.087-.838h.014A75.154 75.154 0 0 1 73.386.2zM77.6.013l.015.843c-.692.013-1.394.035-2.084.065L75.49.079q.637-.028 1.275-.047h.335z" transform="translate(30.619 35.818)" style="fill:#f04e30"/>
                <circle id="Ellipse_54" data-name="Ellipse 54" class="cls-3" cx="3.041" cy="3.041" r="3.041" transform="translate(106.64 32.899)"/>
                <circle id="Ellipse_143" data-name="Ellipse 143" class="cls-3" cx="3.041" cy="3.041" r="3.041" transform="translate(42.82 65.253)"/>
                <circle id="Ellipse_58" data-name="Ellipse 58" class="cls-3" cx="3.041" cy="3.041" r="3.041" transform="translate(140.537 182.995)"/>
                <path id="Line_17" data-name="Line 17" class="cls-3" d="M-.157 37.834H-1v-2.108h.843zm0-4.216H-1V31.51h.843zm0-4.216H-1v-2.107h.843zm0-4.216H-1v-2.107h.843zm0-4.216H-1v-2.107h.843zm0-4.216H-1v-2.107h.843zm0-4.216H-1v-2.106h.843zm0-4.216H-1V6.216h.843zm0-4.216H-1V2h.843z" transform="translate(110.469 -2)"/>
                <path id="Line_19" data-name="Line 19" class="cls-3" d="m-.092 22.189-.491-.689 1.712-1.23.492.685zm3.424-2.459-.492-.685 1.712-1.23.492.685zm3.424-2.46-.492-.685 1.712-1.23.492.685zm3.424-2.459-.492-.685L11.4 12.9l.492.685zm3.42-2.46-.492-.685 1.712-1.23.492.685zm3.424-2.459-.492-.685 1.712-1.23.492.685zm3.424-2.459-.492-.685 1.712-1.23.492.685zm3.424-2.459-.492-.685 1.72-1.231.492.685zM27.3 2.513l-.492-.685L28.52.6l.492.685z" transform="translate(173.886 46.449)"/>
                <path id="Line_22" data-name="Line 22" class="cls-3" d="m30.485 22.189-1.712-1.23.492-.685 1.712 1.23zm-3.424-2.459-1.712-1.23.492-.685 1.712 1.23zm-3.424-2.46-1.712-1.23.492-.685 1.712 1.23zm-3.424-2.459-1.713-1.23.492-.685 1.712 1.23zm-3.424-2.459-1.712-1.23.492-.685 1.712 1.23zm-3.424-2.46-1.712-1.23.492-.685 1.712 1.23zm-3.424-2.46L8.229 6.2l.492-.685 1.712 1.23zM6.517 4.973 4.8 3.743l.5-.685 1.712 1.23zm-3.424-2.46L1.381 1.284 1.873.6l1.712 1.23z" transform="translate(15.977 46.449)"/>
                <path id="Line_20" data-name="Line 20" class="cls-3" d="m34.15 9.792-2.025-.585.234-.81 2.025.585zm-4.05-1.17-2.025-.585.234-.81 2.025.585zm-4.05-1.17-2.025-.585.234-.81 2.025.585zM22 6.283 19.974 5.7l.234-.81 2.025.585zm-4.05-1.17-2.025-.585.234-.81 2.025.585zm-4.05-1.17-2.025-.585.234-.81 2.025.585zm-4.05-1.17-2.027-.584.234-.81 2.025.585zM5.8 1.6l-2.027-.581.234-.81 2.025.585zM1.748.434-.277-.151l.234-.81 2.025.585z" transform="translate(185.873 136.72)"/>
                <path id="Line_23" data-name="Line 23" class="cls-3" d="m1.441 9.792-.234-.81L3.232 8.4l.234.81zm4.05-1.17-.234-.81 2.025-.585.234.81zm4.05-1.17-.234-.81 2.025-.585.234.81zm4.05-1.17-.234-.81 2.025-.585.234.81zm4.05-1.17-.234-.81 2.025-.585.234.81zm4.05-1.17-.234-.81 2.025-.585.234.81zm4.05-1.17-.234-.81 2.025-.585.234.81zm4.05-1.17-.234-.81 2.027-.583.234.81zm4.05-1.17-.234-.81 2.025-.585.234.81z" transform="translate(-1.207 136.72)"/>
                <path id="Path_370" data-name="Path 370" class="cls-3" d="m14.527 31.446-.6-1.223.757-.371.6 1.223zM13 28.33l-.927-1.893.757-.371.927 1.893zm-1.853-3.787-.927-1.893.757-.371.927 1.893zM9.3 20.757l-.927-1.893.757-.371.927 1.893zm-1.858-3.786-.927-1.893.757-.371L8.2 16.6zm-1.854-3.787-.927-1.893.757-.371.927 1.893zM3.735 9.4l-.927-1.9.757-.371.927 1.893zM1.882 5.611.955 3.718l.757-.371.927 1.893zM.028 1.824-.9-.069l.759-.371.927 1.894z" transform="translate(144.137 186.17)"/>
                <path id="Line_24" data-name="Line 24" class="cls-3" d="m.243 32.065-.756-.373.932-1.892.756.373zm1.866-3.78-.756-.373.933-1.89.756.373zM3.974 24.5l-.756-.373.933-1.89.756.373zm1.866-3.78-.756-.373.933-1.89.756.373zm1.866-3.78-.756-.373.933-1.89.756.373zm1.866-3.78-.756-.373.933-1.89.756.373zm1.866-3.78-.756-.373.933-1.89.756.373zM13.3 5.6l-.756-.373.933-1.89.756.373zm1.866-3.78-.756-.373.933-1.89.756.373z" transform="translate(60.917 186.172)"/>
                <circle id="Ellipse_144" data-name="Ellipse 144" class="cls-3" cx="3.041" cy="3.041" r="3.041" transform="translate(73.638 182.995)"/>
                <circle id="Ellipse_55" data-name="Ellipse 55" class="cls-3" cx="3.041" cy="3.041" r="3.041" transform="translate(170.458 65.253)"/>
                <circle id="Ellipse_60" data-name="Ellipse 60" class="cls-3" cx="3.041" cy="3.041" r="3.041" transform="translate(182.622 133.125)"/>
                <circle id="Ellipse_57" data-name="Ellipse 57" class="cls-3" cx="3.041" cy="3.041" r="3.041" transform="translate(30.657 133.125)"/>
            </g>
            <g id="Component_23_2" data-name="Component 23 – 2" transform="translate(131.59)">
                <g id="Ellipse_146" data-name="Ellipse 146" class="cls-6">
                    <circle class="cls-9" cx="21.3" cy="21.3" r="21.3"/>
                    <circle class="cls-10" cx="21.3" cy="21.3" r="20.55"/>
                </g>
                <g id="Group_1184" data-name="Group 1184" transform="translate(7.96 7.96)">
                    <path id="Path_369" data-name="Path 369" class="cls-3" d="m270.8 14.064 1.364-4.251a.346.346 0 0 1 .676.107l-.017 4.465a.346.346 0 0 0 .627.2l2.611-3.622a.346.346 0 0 1 .61.311l-1.4 4.241a.346.346 0 0 0 .533.387l3.6-2.638a.346.346 0 0 1 .484.484l-2.638 3.6a.346.346 0 0 0 .388.533l4.241-1.4a.346.346 0 0 1 .311.61l-3.622 2.611a.346.346 0 0 0 .2.627l4.465-.017a.346.346 0 0 1 .107.676l-4.251 1.364a.346.346 0 0 0 0 .659l4.251 1.364a.346.346 0 0 1-.107.676l-4.465-.017a.346.346 0 0 0-.2.627l3.622 2.611a.346.346 0 0 1-.311.61l-4.241-1.4a.346.346 0 0 0-.388.533l2.638 3.6a.346.346 0 0 1-.484.484l-3.6-2.638a.346.346 0 0 0-.533.387l1.4 4.241a.346.346 0 0 1-.61.311l-2.611-3.622a.346.346 0 0 0-.627.2l.017 4.465a.346.346 0 0 1-.676.107l-1.364-4.232a.346.346 0 0 0-.659 0l-1.364 4.251a.346.346 0 0 1-.676-.107l.012-4.462a.346.346 0 0 0-.627-.2l-2.611 3.622a.346.346 0 0 1-.61-.311l1.4-4.241a.346.346 0 0 0-.533-.387l-3.6 2.638a.346.346 0 0 1-.484-.484l2.638-3.6a.346.346 0 0 0-.387-.533l-4.241 1.4a.346.346 0 0 1-.311-.61l3.622-2.611a.346.346 0 0 0-.2-.627l-4.465.017a.346.346 0 0 1-.107-.676l4.251-1.364a.346.346 0 0 0 0-.659L257.587 21a.346.346 0 0 1 .107-.676l4.465.017a.346.346 0 0 0 .2-.627l-3.618-2.614a.346.346 0 0 1 .311-.61l4.241 1.4a.346.346 0 0 0 .387-.533l-2.638-3.6a.346.346 0 0 1 .484-.484l3.6 2.638a.346.346 0 0 0 .533-.387l-1.4-4.241a.346.346 0 0 1 .61-.311l2.611 3.622a.346.346 0 0 0 .627-.2L268.1 9.92a.346.346 0 0 1 .676-.107l1.364 4.251a.346.346 0 0 0 .66 0z" transform="translate(-257.346 -9.572)"/>
                </g>
            </g>
            <path id="Path_130" data-name="Path 130" class="cls-3" d="M516.433 12.816c0-1.254-1.357-2.38-3.513-3.155 1.528-.447 2.459-1.04 2.459-1.69 0-.956-2.012-1.788-4.975-2.214.5-.241.787-.525.787-.829 0-.873-2.372-1.581-5.3-1.581s-5.3.708-5.3 1.581c0 .3.288.588.787.829-2.962.426-4.974 1.257-4.974 2.214 0 .651.931 1.244 2.459 1.69-2.156.775-3.513 1.9-3.513 3.155s1.38 2.4 3.566 3.173c-1.559.448-2.512 1.047-2.512 1.705 0 .956 2.012 1.788 4.974 2.214-.5.241-.787.525-.787.829 0 .873 2.372 1.581 5.3 1.581s5.3-.708 5.3-1.581c0-.3-.288-.588-.787-.829 2.963-.426 4.975-1.257 4.975-2.214 0-.658-.953-1.257-2.512-1.705 2.186-.776 3.566-1.91 3.566-3.173z" transform="translate(-242.408 65.162)"/>
            <g id="Component_25_2" data-name="Component 25 – 2" transform="translate(190.284 260.339)">
                <g id="Ellipse_149" data-name="Ellipse 149" style="fill:none;stroke:#a8a8a8;stroke-width:1.5px">
                    <circle class="cls-9" cx="21.3" cy="21.3" r="21.3"/>
                    <circle class="cls-10" cx="21.3" cy="21.3" r="20.55"/>
                </g>
                <path id="Path_129" data-name="Path 129" class="cls-3" d="M1607.75 1189.976c-2.071-1.841-5.39-2.142-8.765-1.1-3.375-1.046-6.694-.744-8.765 1.1s-2.41 4.791-1.234 7.791c-1.176 3-.838 5.95 1.234 7.791s5.39 2.142 8.765 1.1c3.375 1.046 6.694.745 8.765-1.1s2.41-4.791 1.233-7.791c1.176-3.001.837-5.951-1.233-7.791z" transform="translate(-1577.774 -1176.477)"/>
            </g>
            <path id="Path_54" data-name="Path 54" class="cls-3" d="M864.671 32.6h-20.3a2.719 2.719 0 0 1-.86-5.3s4.194-1.1 4.409-1.47-3.549 0-3.549 0a2.719 2.719 0 0 1-.86-5.3l4.409-1.47h-3.55a2.718 2.718 0 1 1 0-5.437h20.3a2.718 2.718 0 0 1 .86 5.3l-4.408 1.47h3.549a2.718 2.718 0 0 1 .86 5.3l-4.408 1.47h3.549a2.718 2.718 0 1 1 0 5.437z" transform="translate(-833.641 172.082)"/>
            <g id="Component_24_2" data-name="Component 24 – 2" transform="translate(20.827 55.855)">
                <g id="Ellipse_145" data-name="Ellipse 145" class="cls-6">
                    <circle class="cls-9" cx="21.3" cy="21.3" r="21.3"/>
                    <circle class="cls-10" cx="21.3" cy="21.3" r="20.55"/>
                </g>
                <g id="Group_1183" data-name="Group 1183" transform="translate(9.275 10.54)">
                    <path id="Path_55" data-name="Path 55" class="cls-3" d="M175.335 606.537h-3.11a.349.349 0 0 1-.3-.523l1.555-2.693a2.929 2.929 0 0 0-1.072-4 2.929 2.929 0 0 0-4 1.072l-1.555 2.693a.349.349 0 0 1-.6 0l-1.555-2.693a2.929 2.929 0 0 0-4-1.072 2.929 2.929 0 0 0-1.072 4l1.555 2.693a.349.349 0 0 1-.3.523h-3.11a2.929 2.929 0 0 0-2.929 2.929 2.929 2.929 0 0 0 2.929 2.929h3.11a.349.349 0 0 1 .3.523l-1.555 2.693a2.929 2.929 0 0 0 1.072 4 2.929 2.929 0 0 0 4-1.072l1.555-2.693a.349.349 0 0 1 .6 0l1.555 2.693a2.929 2.929 0 0 0 4 1.072 2.929 2.929 0 0 0 1.072-4l-1.555-2.693a.349.349 0 0 1 .3-.523h3.11a2.929 2.929 0 0 0 2.929-2.929 2.929 2.929 0 0 0-2.929-2.929z" transform="translate(-154.832 -598.927)"/>
                </g>
            </g>
            <path id="PD_Icon_FixArtboard_4_copy" data-name="PD_Icon_FixArtboard 4 copy" class="cls-8" d="M21.26 7.26a5 5 0 0 0-3.91 2.3 5 5 0 0 0-3.92-2.3c-3.41 0-6.16 4.51-6.16 10.09S10 27.43 13.43 27.43a5 5 0 0 0 3.92-2.3 5 5 0 0 0 3.91 2.3c3.41 0 6.16-4.51 6.16-10.08S24.67 7.26 21.26 7.26z" transform="translate(267.608 177.639)"/>
            <path id="PD_Icon_FixArtboard_4" data-name="PD_Icon_FixArtboard 4" class="cls-8" d="M26.38 17.35A3.47 3.47 0 0 0 23.73 11a3.46 3.46 0 0 0-6.38-2.65A3.47 3.47 0 0 0 11 11a3.47 3.47 0 0 0-2.65 6.39A3.46 3.46 0 0 0 11 23.73a3.47 3.47 0 0 0 6.39 2.65 3.46 3.46 0 0 0 6.38-2.65 3.46 3.46 0 0 0 2.65-6.38z" transform="translate(76.596 264.042)"/>
        </g>
    </g>
</svg>
